<?xml version="1.0" standalone="no"?>
<!DOCTYPE svg PUBLIC "-//W3C//DTD SVG 1.1//EN" "http://www.w3.org/Graphics/SVG/1.1/DTD/svg11.dtd" >
<svg xmlns="http://www.w3.org/2000/svg" xmlns:xlink="http://www.w3.org/1999/xlink" version="1.1">
<metadata>
Created by FontForge 20170731 at Mon Feb 20 16:25:06 2023
 By Aleksey,,,
Copyright 2020 The Arima Project Authors (https://github.com/NDISCOVER/Arima-Font)
</metadata>
<defs>
<font id="Arima-Thin" horiz-adv-x="0" >
  <font-face 
    font-family="Arima Thin"
    font-weight="250"
    font-stretch="normal"
    units-per-em="1000"
    panose-1="0 0 0 0 0 0 0 0 0 0"
    ascent="800"
    descent="-200"
    x-height="500"
    cap-height="695"
    bbox="-981 -529 2330 986"
    underline-thickness="50"
    underline-position="-175"
    unicode-range="U+000D-FB02"
  />
<missing-glyph horiz-adv-x="500" 
d="M50 -430v1270h400v-1270h-400zM100 -380h300v1170h-300v-1170z" />
    <glyph glyph-name="fi" unicode="fi" horiz-adv-x="571" 
d="M135 -8q-8 0 -12.5 6t-4.5 16l-1 523q0 31 6 66t25 66t56.5 51t101.5 20q44 0 81.5 -10.5t61 -32t23.5 -54.5q0 -28 -16 -44.5t-27 -16.5q-4 0 -6 1q14 17 17 31.5t3 21.5q0 29 -20 45.5t-50.5 23.5t-64.5 7q-49 0 -80.5 -12.5t-49 -36t-24 -56.5t-6.5 -73l-1 -447
q0 -29 1.5 -52t4.5 -35q-3 -3 -7 -5.5t-11 -2.5zM36 472l1 14q1 6 4 10t7 4h205h11t15 0.5t15 1t11 0.5l-1 -14q-1 -6 -3.5 -10t-7.5 -4h-197q-10 0 -30 -0.5t-30 -1.5zM471 87q0 -32 1.5 -53.5t4.5 -33.5q-3 -3 -7 -5.5t-11 -2.5q-8 0 -12.5 6t-4.5 16l-2 403
q0 32 -1.5 53.5t-4.5 33.5q3 3 7 5.5t11 2.5q8 0 12.5 -5.5t4.5 -16.5z" />
    <glyph glyph-name="fl" unicode="fl" horiz-adv-x="598" 
d="M135 -8q-8 0 -12.5 6t-4.5 16l-1 563q0 29 7 57.5t25.5 52.5t52 38.5t87.5 14.5q91 0 137 -42.5t46 -111.5v-515q0 -25 10.5 -39t30.5 -14q14 0 26 7t18 20q5 -6 7 -11t2 -10q0 -16 -16.5 -25t-37.5 -9q-31 0 -50.5 21.5t-19.5 61.5v505q0 52 -19.5 81t-53.5 41t-77 12
q-46 0 -74.5 -10.5t-43.5 -29.5t-20.5 -44t-5.5 -54l-1 -487q0 -29 1.5 -52t4.5 -35q-3 -3 -7 -5.5t-11 -2.5zM36 472l1 14q1 6 4 10t7 4h205q5 0 15.5 0.5l21 1t15.5 0.5l-1 -14q-1 -6 -3.5 -10t-7.5 -4h-197q-10 0 -30 -0.5t-30 -1.5z" />
    <glyph glyph-name=".notdef" horiz-adv-x="500" 
d="M50 -430v1270h400v-1270h-400zM100 -380h300v1170h-300v-1170z" />
    <glyph glyph-name=".null" 
 />
    <glyph glyph-name="nonmarkingreturn" horiz-adv-x="333" 
 />
    <glyph glyph-name="CR" unicode="&#xd;" horiz-adv-x="600" 
 />
    <glyph glyph-name="space" unicode=" " horiz-adv-x="275" 
 />
    <glyph glyph-name="exclam" unicode="!" horiz-adv-x="268" 
d="M115 718l4 -555h30l4 555q-9 2 -19 2t-19 -2zM134 -12q-13 0 -23.5 10.5t-10.5 23.5q0 14 10.5 24t23.5 10q14 0 24 -10t10 -24q0 -13 -10 -23.5t-24 -10.5z" />
    <glyph glyph-name="quotedbl" unicode="&#x22;" horiz-adv-x="211" 
d="M137 727l6 -117h22l6 117q-8 2 -17 2t-17 -2zM40 727l6 -117h22l6 117q-8 2 -17 2t-17 -2z" />
    <glyph glyph-name="numbersign" unicode="#" horiz-adv-x="680" 
d="M188 0h-30l126 688h30zM388 0h-30l126 688h30zM65 458h583l-4 -26h-583zM33 258h583l-4 -26h-583z" />
    <glyph glyph-name="dollar" unicode="$" horiz-adv-x="543" 
d="M285 -88q-15 0 -15 22l-2 746q0 63 -6 87q3 3 6.5 5.5t9.5 2.5q15 0 15 -22l2 -746q0 -63 6 -87q-3 -3 -6.5 -5.5t-9.5 -2.5zM276 -12q-75 0 -121 21.5t-67.5 57t-21.5 75.5q0 16 3.5 26.5t12 15t22.5 2.5q-2 -7 -3.5 -14t-1.5 -19q0 -47 22.5 -77.5t62 -45t90.5 -14.5
q81 0 129.5 35t48.5 104q0 45 -21.5 77t-61.5 60t-98 59q-52 29 -93 55.5t-64.5 60.5t-23.5 83q0 53 26 86t69.5 48.5t94.5 15.5q83 0 134 -35.5t51 -94.5q0 -12 -2.5 -19t-10.5 -12q-9 -5 -24 -1q4 7 5 13.5t1 12.5q0 38 -21.5 61.5t-57 35t-77.5 11.5q-39 0 -74.5 -11
t-58.5 -36.5t-23 -70.5q0 -48 25.5 -79.5t64 -54t76.5 -43.5q61 -32 104.5 -63.5t67.5 -69.5t24 -89q0 -28 -9 -57.5t-32 -54t-63.5 -40t-103.5 -15.5z" />
    <glyph glyph-name="percent" unicode="%" horiz-adv-x="956" 
d="M201 315q-73 0 -112.5 47t-39.5 146q0 98 39.5 145t112.5 47t112 -47t39 -145q0 -99 -39 -146t-112 -47zM201 336q59 0 92 42t33 130q0 89 -33 130t-92 41t-92 -41t-33 -130q0 -88 33 -130t92 -42zM695 700q8 2 14 -2t6 -12l-454 -698q-16 0 -20 14zM756 -8
q-73 0 -112.5 47t-39.5 146q0 98 39.5 145t112.5 47t112 -47t39 -145q0 -99 -39 -146t-112 -47zM756 13q59 0 92 42t33 130q0 89 -33 130t-92 41t-92 -41t-33 -130q0 -88 33 -130t92 -42z" />
    <glyph glyph-name="ampersand" unicode="&#x26;" horiz-adv-x="792" 
d="M358 -15q-69 0 -123 25.5t-91 68.5t-56 97t-19 110q0 72 28 122.5t73.5 77t96.5 26.5q49 0 79.5 -21.5t45.5 -55t15 -68.5q0 -48 -23.5 -81.5t-62.5 -59.5t-88 -53l-4 10q36 10 78.5 31t89 51t93 66.5t90.5 78t81 86.5t64 91q8 0 13.5 -2t8.5 -5.5t3 -8.5t-3 -10
q-49 -75 -115 -140.5t-139 -117.5t-142 -87.5t-123 -51.5l-5 20q46 26 81 50.5t55 55t20 72.5q0 48 -27.5 85t-88.5 37q-42 0 -79 -22t-60 -65.5t-23 -106.5q0 -51 17 -100.5t50 -89.5t81 -63.5t111 -23.5q74 0 138.5 35t104 102t39.5 162q0 61 -19.5 124t-55 115
t-84.5 82.5t-108 27.5q0 16 8.5 21.5t26.5 5.5q55 0 102.5 -34.5t84 -91t57 -122.5t20.5 -128q0 -72 -25 -132t-68.5 -103.5t-100.5 -67.5t-122 -24z" />
    <glyph glyph-name="quotesingle" unicode="'" horiz-adv-x="114" 
d="M40 727l6 -117h22l6 117q-8 2 -17 2t-17 -2z" />
    <glyph glyph-name="parenleft" unicode="(" horiz-adv-x="404" 
d="M346 -172q-19 0 -47.5 16.5t-59.5 51.5t-58 89.5t-44 129.5t-17 173t17 173t44 129.5t58 89.5t59.5 51.5t47.5 16.5q14 0 16 -5.5t2 -13.5q-43 -10 -81.5 -49.5t-68 -99.5t-46.5 -135t-17 -157t17 -157t46.5 -135t68 -99t81.5 -50q0 -7 -2 -13t-16 -6z" />
    <glyph glyph-name="parenright" unicode=")" horiz-adv-x="404" 
d="M58 -172q-13 0 -15.5 6t-2.5 13q43 11 81.5 50t68 99t46.5 135t17 157t-17 157t-46.5 135t-68 99.5t-81.5 49.5q0 8 2.5 13.5t15.5 5.5q19 0 47.5 -16.5t59.5 -51.5t58 -89.5t44 -129.5t17 -173t-17 -173t-44 -129.5t-58 -89.5t-59.5 -51.5t-47.5 -16.5z" />
    <glyph glyph-name="asterisk" unicode="*" horiz-adv-x="513" 
d="M38 527q0 20 13 37.5t42 17.5q38 0 69 -29t49.5 -72.5t18.5 -87.5q0 -30 -9.5 -59.5t-27.5 -48.5t-44 -19q-21 0 -37.5 15t-16.5 38q0 27 22 50.5t58.5 38.5t79.5 15q44 0 80 -15t57 -38t21 -48q0 -22 -16.5 -37.5t-39.5 -15.5q-24 0 -40.5 16.5t-25 42t-8.5 51.5
q0 33 12 67.5t32 64t45 48t51 18.5t39 -17t13 -39q0 -30 -22.5 -44.5t-55.5 -14.5q-37 0 -72 15.5t-63 42t-44.5 58t-16.5 63.5q0 28 14 44t43 16t43 -17t14 -45q0 -33 -16.5 -63.5t-44.5 -55.5t-62.5 -39.5t-70.5 -14.5q-34 0 -58.5 15t-24.5 46zM62 526q0 -21 17 -30.5
t42 -9.5q43 0 83 23t65.5 58t25.5 71q0 43 -37 43q-18 0 -25.5 -10.5t-7.5 -28.5q0 -29 15 -57.5t39.5 -51.5t55.5 -37t62 -14q24 0 40.5 9.5t16.5 30.5q0 15 -8.5 25t-23.5 10q-21 0 -41 -17.5t-37 -45t-27 -58t-10 -57.5q0 -17 5 -38t16.5 -35.5t29.5 -14.5q14 0 24.5 9
t10.5 23q0 19 -19 37.5t-50 31t-68 12.5t-68.5 -12.5t-50.5 -32t-19 -39.5q0 -13 9 -23t22 -10q17 0 30 16t20 40.5t7 49.5q0 40 -16 78.5t-41 64t-52 25.5q-17 0 -26 -10.5t-9 -24.5z" />
    <glyph glyph-name="plus" unicode="+" horiz-adv-x="557" 
d="M83 368h391q6 -15 0 -30h-391q-6 15 0 30zM293 549v-392q-15 -5 -29 1l-1 391q15 6 30 0z" />
    <glyph glyph-name="comma" unicode="," horiz-adv-x="236" 
d="M99 -90q-7 2 -11.5 6t-6.5 8q14 14 20 27.5t6 29.5q0 13 -3.5 20.5t-9.5 12.5t-14 8q0 8 8.5 21t28.5 13q11 0 25 -8.5t14 -38.5q0 -19 -11 -44.5t-46 -54.5z" />
    <glyph glyph-name="hyphen" unicode="-" horiz-adv-x="399" 
d="M60 270h279v-28h-279v28z" />
    <glyph glyph-name="period" unicode="." horiz-adv-x="228" 
d="M114 -12q-13 0 -23.5 10.5t-10.5 23.5q0 14 10.5 24t23.5 10q14 0 24 -10t10 -24q0 -13 -10 -23.5t-24 -10.5z" />
    <glyph glyph-name="slash" unicode="/" horiz-adv-x="391" 
d="M39 -142h-32l323 872h32z" />
    <glyph glyph-name="zero" unicode="0" horiz-adv-x="608" 
d="M304 -12q-109 0 -169 86.5t-60 269.5t60 269.5t169 86.5t169 -86.5t60 -269.5t-60 -269.5t-169 -86.5zM304 16q93 0 145 79.5t52 248.5q0 170 -52 249t-145 79t-145 -79t-52 -249q0 -169 52 -248.5t145 -79.5z" />
    <glyph glyph-name="one" unicode="1" horiz-adv-x="397" 
d="M253 87q0 -30 1.5 -52.5t4.5 -34.5q-3 -3 -7 -5.5t-11 -2.5q-8 0 -12.5 6t-4.5 16l-2 584q0 17 -0.5 31.5t-1.5 26.5q-19 -17 -44.5 -37t-50.5 -37.5t-43.5 -29t-24.5 -11.5q-8 0 -11.5 2.5t-4.5 5.5t-0.5 7t0.5 7q3 1 17.5 10t35.5 23.5t44.5 31.5t45 33t36.5 28
q3 2 6.5 3t7.5 1q8 0 12.5 -5.5t4.5 -16.5z" />
    <glyph glyph-name="two" unicode="2" horiz-adv-x="533" 
d="M63 0q-7 3 -9 12t-1 17q64 50 120 98t102.5 94t80 91t51.5 90.5t18 92.5q0 49 -19 89t-57 64t-95 24q-43 0 -73 -14t-48 -34t-26.5 -40.5t-10.5 -33.5q-6 0 -11 2.5t-8 8t-3 13.5q0 22 20.5 51.5t61 52t99.5 22.5q50 0 96.5 -20t76 -63.5t29.5 -114.5q0 -45 -14 -88.5
t-39.5 -85t-60 -81t-76 -77t-87 -73.5t-92.5 -71h82h82h82h82h82q3 -1 4.5 -5t1.5 -8t-1.5 -7.5t-4.5 -5.5h-435z" />
    <glyph glyph-name="three" unicode="3" horiz-adv-x="541" 
d="M251 -12q-61 0 -101 15.5t-63 37.5t-32 43t-9 32q0 8 3 12.5t8.5 7t11.5 2.5q3 -16 12 -36.5t28 -40t53 -32.5t88 -13q96 0 144.5 44t48.5 117q0 66 -35.5 103.5t-93 54.5t-123.5 19v27q70 1 121 20.5t79.5 55t28.5 82.5q0 54 -40.5 93.5t-120.5 39.5q-46 0 -77.5 -13.5
t-50 -33.5t-27.5 -40.5t-11 -34.5q-6 0 -11 2t-8.5 7.5t-3.5 13.5q0 14 10.5 35.5t33.5 42.5t60 35t89 14q36 0 70 -8t61.5 -26.5t43.5 -49t16 -75.5q0 -71 -43.5 -113t-120.5 -59q55 -11 96.5 -33t65.5 -60t24 -97q0 -64 -28.5 -106t-79.5 -63.5t-117 -21.5z" />
    <glyph glyph-name="four" unicode="4" horiz-adv-x="577" 
d="M436 87q0 -30 1.5 -52.5t4.5 -34.5q-3 -3 -7 -5.5t-11 -2.5q-8 0 -12.5 6t-4.5 16l-3 632l-323 -422h338q29 0 59 1.5t58 4.5q7 -7 6.5 -18t-6.5 -13h-489q-6 7 -6.5 12.5t2 10t4.5 7.5l352 457q2 3 6.5 6t11.5 3q8 0 12.5 -6t4.5 -16z" />
    <glyph glyph-name="five" unicode="5" horiz-adv-x="551" 
d="M259 -12q-57 0 -98.5 20.5t-64 50.5t-22.5 59q0 9 7.5 15.5t17.5 6.5q1 -14 9.5 -35t27 -42t49 -35t74.5 -14q103 0 149 54.5t46 150.5q0 62 -23 103t-63 61t-91 20q-36 0 -70 -9.5t-58 -20.5t-31 -15q-12 0 -15 6.5t-3 13.5l13 293q0 8 5.5 12.5t12.5 4.5h104t104 0.5
t102 1.5q2 -4 1.5 -8.5l-1 -9t-2.5 -10.5h-148.5h-148.5l-12 -269q32 14 66.5 25t83.5 11q94 0 150 -55.5t56 -150.5q0 -66 -18 -111t-49.5 -72.5t-72.5 -39.5t-87 -12z" />
    <glyph glyph-name="six" unicode="6" horiz-adv-x="568" 
d="M301 -12q-40 0 -80.5 14.5t-73 49t-52.5 95t-20 151.5q0 146 28.5 234t84 128t135.5 40q31 0 62 -9.5t52 -23t21 -27.5q0 -4 -2 -7.5t-5.5 -5t-7.5 -1.5q-31 30 -60.5 39t-56.5 9q-60 0 -100.5 -24.5t-64.5 -65.5t-36 -91t-16 -101t-4 -95q0 -61 11.5 -112.5t35 -90
t61 -59.5t88.5 -21q61 0 99 30.5t56 78.5t18 98q0 83 -44.5 131t-118.5 48q-51 0 -93 -22t-72.5 -56.5t-47.5 -73.5l-9 28q8 24 27.5 50t48 49t65.5 37t81 14q57 0 101 -22.5t69 -68t25 -113.5q0 -71 -25.5 -124t-71.5 -81.5t-108 -28.5z" />
    <glyph glyph-name="seven" unicode="7" horiz-adv-x="499" 
d="M223 0q-7 -4 -14 -4t-15 4q0 52 11.5 122.5t32.5 147.5t49 151.5t61 137.5t68 103h-185h-185q-4 2 -5.5 7.5t0 11t5.5 7.5h95.5h95.5h204q11 0 13 -11t-3 -18q-40 -49 -75 -115.5t-63.5 -141t-48.5 -148.5t-30.5 -140t-10.5 -114z" />
    <glyph glyph-name="eight" unicode="8" horiz-adv-x="575" 
d="M271 373l26 -13q-24 -8 -57.5 -22.5t-66.5 -37.5t-54.5 -57t-21.5 -81q0 -51 27.5 -84t70.5 -49.5t90 -16.5q49 0 93 16.5t72 49.5t28 80q0 41 -21 73t-55 57t-73.5 44.5t-76.5 35.5q-45 19 -82 42.5t-59 57t-22 80.5q0 22 10 48t32.5 50t60 39t92.5 15q66 0 109.5 -20.5
t65 -54.5t21.5 -75q0 -42 -19 -77t-55 -62.5t-86 -47.5l-27 14q56 26 90 54.5t49.5 59t15.5 60.5q0 35 -21 63t-57.5 44.5t-84.5 16.5q-42 0 -79.5 -13.5t-61 -42t-23.5 -74.5q0 -41 19.5 -68.5t57 -48.5t89.5 -46q50 -23 91 -46.5t70.5 -49.5t45.5 -56t16 -68
q0 -29 -11.5 -59.5t-37.5 -56.5t-69 -42t-107 -16t-106.5 16t-67.5 41.5t-35.5 56t-10.5 58.5q0 54 28.5 97.5t75.5 73.5t102 42z" />
    <glyph glyph-name="nine" unicode="9" horiz-adv-x="568" 
d="M252 -12q-41 0 -72 10t-51 24t-31 27q-6 8 -6 15.5t5.5 12t13.5 3.5q38 -41 73 -53t66 -12q58 0 97 23t62.5 62t35 88t15 101.5t3.5 101.5q0 61 -9.5 112.5t-31.5 90t-58.5 59.5t-89.5 21q-59 0 -96.5 -29t-55 -74.5t-17.5 -93.5q0 -87 43 -138t116 -51q49 0 90 22t71 57
t45 73l9 -28q-8 -24 -26.5 -50t-46 -49t-63.5 -37t-79 -14q-55 0 -98.5 23.5t-68 71.5t-24.5 119q0 69 25 119t70.5 77.5t105.5 27.5q43 0 82 -14.5t70 -49t49 -94.5t18 -152q0 -153 -28 -240.5t-81.5 -124.5t-131.5 -37z" />
    <glyph glyph-name="colon" unicode=":" horiz-adv-x="228" 
d="M114 326q-13 0 -23.5 10.5t-10.5 23.5q0 14 10.5 24t23.5 10q14 0 24 -10t10 -24q0 -13 -10 -23.5t-24 -10.5zM114 -12q-13 0 -23.5 10.5t-10.5 23.5q0 14 10.5 24t23.5 10q14 0 24 -10t10 -24q0 -13 -10 -23.5t-24 -10.5z" />
    <glyph glyph-name="semicolon" unicode=";" horiz-adv-x="237" 
d="M123 326q-13 0 -23.5 10.5t-10.5 23.5q0 14 10.5 24t23.5 10q14 0 24 -10t10 -24q0 -13 -10 -23.5t-24 -10.5zM99 -90q-7 2 -11.5 6t-6.5 8q14 14 20 27.5t6 29.5q0 13 -3.5 20.5t-9.5 12.5t-14 8q0 8 8.5 21t28.5 13q11 0 25 -8.5t14 -38.5q0 -19 -11 -44.5t-46 -54.5z
" />
    <glyph glyph-name="less" unicode="&#x3c;" horiz-adv-x="477" 
d="M41 340q-8 11 0 22l366 172q7 3 12 -6t1 -23l-342 -154l342 -154q3 -13 -1.5 -22.5t-11.5 -6.5z" />
    <glyph glyph-name="equal" unicode="=" horiz-adv-x="557" 
d="M83 472h391q6 -15 0 -30h-391q-6 15 0 30zM83 262h391q6 -15 0 -30h-391q-6 15 0 30z" />
    <glyph glyph-name="greater" unicode="&#x3e;" horiz-adv-x="478" 
d="M437 340l-366 -172q-7 -3 -11.5 6.5t-1.5 22.5l342 154l-342 154q-4 14 1 23t12 6l366 -172q8 -11 0 -22z" />
    <glyph glyph-name="question" unicode="?" horiz-adv-x="486" 
d="M174 163v144q30 0 68.5 12.5t74 37.5t58.5 64t23 92q0 55 -21 97.5t-63.5 67t-106.5 24.5q-43 0 -73 -14t-48 -34t-26.5 -40.5t-10.5 -33.5q-6 0 -11 2.5t-8 8t-3 13.5q0 22 20 51.5t61.5 52t103.5 22.5q39 0 77.5 -11.5t70.5 -36t51 -65t19 -97.5q0 -48 -16.5 -89
t-47 -72.5t-72 -52t-91.5 -28.5v-115h-29zM171 -12q-13 0 -23.5 10.5t-10.5 23.5q0 14 10.5 24t23.5 10q14 0 24 -10t10 -24q0 -13 -10 -23.5t-24 -10.5z" />
    <glyph glyph-name="at" unicode="@" horiz-adv-x="829" 
d="M350 -94q-27 -2 -62 9.5t-71.5 38t-67.5 69t-50 101.5t-19 136q0 69 20 135.5t61.5 120.5t107.5 86t157 32q78 0 133.5 -22t92.5 -59.5t58 -84.5t30 -96t9 -94q0 -83 -20.5 -136t-50.5 -78t-60 -25q-20 0 -38 10.5t-29.5 30.5t-11.5 49v90l17 23q-6 -45 -25 -88.5
t-54 -72.5t-91 -29q-46 0 -73 20t-40 50t-17 61.5t-4 54.5q0 107 42.5 170.5t127.5 63.5q45 0 73.5 -16t45 -41t23 -54.5t6.5 -56.5l-1 -172q0 -29 12 -48t36 -19q39 0 70.5 51t32.5 163q0 41 -7 86.5t-26 88.5t-52 77.5t-84 55t-123 20.5q-84 0 -143.5 -28.5t-98 -77.5
t-56.5 -110t-18 -127q0 -84 24.5 -148t64 -106.5t85 -62t88.5 -15.5q5 -13 -0.5 -18.5t-23.5 -7.5zM388 78q46 0 79.5 28.5t52.5 78t19 112.5q0 32 -8 66.5t-32.5 58t-75.5 23.5q-69 0 -106 -51t-37 -155q0 -21 3 -48.5t13.5 -53.5t32.5 -42.5t59 -16.5z" />
    <glyph glyph-name="A" unicode="A" horiz-adv-x="562" 
d="M282 700q9 0 15.5 -4.5t9.5 -12.5l224 -652q4 -10 8 -17.5t8 -12.5q-4 -5 -8 -7t-9 -2q-7 0 -13.5 3.5t-8.5 10.5l-233 680h12l-223 -657q-1 -4 -3 -10t-2 -11q0 -3 0.5 -7t1.5 -7q-4 -1 -7.5 -1.5t-8.5 -0.5q-8 0 -13.5 5t-4.5 13q0 5 2.5 12t3.5 12l227 658q11 8 22 8z
M130 260h305v-26h-305v26z" />
    <glyph glyph-name="B" unicode="B" horiz-adv-x="559" 
d="M127 0q-9 0 -13.5 6t-5.5 16v578q0 5 -0.5 22.5t-2 37t-4.5 27.5q2 2 22.5 7.5t81.5 5.5q123 0 183.5 -39.5t60.5 -130.5q0 -62 -29.5 -107t-90.5 -65q80 -13 117.5 -58t37.5 -122q0 -73 -32 -111.5t-93.5 -52.5t-149.5 -14h-82zM138 28h82q70 0 122 10.5t81 43t29 98.5
q0 64 -28 99.5t-80.5 50t-124.5 14.5h-89l-7 26h131q41 0 78 16t61 51.5t24 93.5q0 81 -53 113t-169 32q-20 0 -34.5 -1t-22.5 -3v-644z" />
    <glyph glyph-name="C" unicode="C" horiz-adv-x="576" 
d="M516 99q0 -16 -15 -35.5t-42 -36.5t-63 -28t-77 -11q-118 0 -183.5 90.5t-65.5 265.5q0 176 65.5 266t183.5 90q40 0 72.5 -7.5t55.5 -20t35.5 -27t12.5 -28.5q0 -8 -8 -13t-17 -1q-9 30 -49 49.5t-102 19.5q-102 0 -159.5 -83t-57.5 -245t57.5 -245t159.5 -83
q37 0 73 12t63.5 34t36.5 52q7 0 12 -1t8.5 -4t3.5 -10z" />
    <glyph glyph-name="D" unicode="D" horiz-adv-x="629" 
d="M126 0q-8 0 -12.5 6t-4.5 16l-2 578q0 30 -1.5 56.5t-4.5 38.5q26 2 62.5 3t72 1.5t59.5 0.5q126 0 195 -86.5t69 -269.5t-69 -263.5t-195 -80.5h-169zM138 28h157q73 0 124.5 32t79.5 101.5t28 182.5q0 170 -61.5 249t-170.5 79h-159z" />
    <glyph glyph-name="E" unicode="E" horiz-adv-x="523" 
d="M126 0q-8 0 -12.5 6t-4.5 16l-2 578q0 30 -1.5 49t-4.5 31q3 4 7 6t11 2h314q5 0 7 -3.5t1 -8.5t-4 -9t-7 -5h-146.5h-147.5l2 -637q51 0 102 0.5t101.5 0.5h101.5q4 -1 6 -5.5t2 -9t-1.5 -8t-6.5 -3.5h-317zM131 354v26h280q2 -7 2 -13t-2 -13h-280z" />
    <glyph glyph-name="F" unicode="F" horiz-adv-x="505" 
d="M126 -8q-8 0 -12.5 6t-4.5 16l-2 586q0 30 -1.5 49t-4.5 31q3 4 7 6t11 2h314q5 0 7 -3.5t1 -8.5t-4 -9t-7 -5h-146.5h-147.5l2 -575q0 -30 1.5 -52.5t4.5 -34.5q-3 -3 -7 -5.5t-11 -2.5zM131 346v26h278q2 -7 2 -13t-2 -13h-278z" />
    <glyph glyph-name="G" unicode="G" horiz-adv-x="599" 
d="M327 -12q-126 0 -191.5 90t-65.5 265q0 176 65.5 266.5t186.5 90.5q38 0 69.5 -7.5t55 -20t36 -26.5t12.5 -27q0 -10 -7 -15t-18 -1q-8 30 -49 49.5t-97 19.5q-108 0 -165 -83t-57 -245t57.5 -245t166.5 -83q59 0 94.5 21t53.5 53.5t23.5 67t5.5 62.5q0 51 -11 81.5
t-30.5 44t-45.5 13.5q-1 11 6.5 16t20.5 5q21 0 42 -14t35 -49t14 -99q0 -22 -3.5 -52t-14.5 -61t-34 -57.5t-60.5 -43t-94.5 -16.5z" />
    <glyph glyph-name="H" unicode="H" horiz-adv-x="662" 
d="M138 87q0 -30 1.5 -52.5t4.5 -34.5q-3 -3 -7 -5.5t-11 -2.5q-8 0 -12.5 6t-4.5 16l-2 586q0 30 -1.5 52.5t-4.5 34.5q3 3 7 5.5t11 2.5q8 0 13.5 -5.5t5.5 -16.5v-586zM555 87q0 -30 1.5 -52.5t4.5 -34.5q-3 -3 -7 -5.5t-11 -2.5q-8 0 -12.5 6t-4.5 16l-2 586
q0 30 -1.5 52.5t-4.5 34.5q3 3 7 5.5t11 2.5q8 0 13.5 -5.5t5.5 -16.5v-586zM130 380h411v-26h-411v26z" />
    <glyph glyph-name="I" unicode="I" horiz-adv-x="245" 
d="M126 -8q-8 0 -12.5 6t-4.5 16l-2 586q0 30 -1.5 52.5t-4.5 34.5q3 3 7 5.5t11 2.5q8 0 13.5 -5.5t5.5 -16.5v-586q0 -30 1.5 -52.5t4.5 -34.5q-3 -3 -7 -5.5t-11 -2.5z" />
    <glyph glyph-name="J" unicode="J" horiz-adv-x="419" 
d="M174 -12q-39 0 -66 14.5t-41 37.5t-14 50q0 11 6 21.5t20 10.5h1.5h1.5q-1 -6 -1.5 -11.5t-0.5 -10.5q0 -32 15.5 -50.5t37 -26t39.5 -7.5q47 0 71.5 18t34 51t9.5 79v469v19.5v19.5q-31 -1 -58.5 1t-65.5 4q-16 2 -33.5 -4t-17.5 -33q0 -16 7 -25.5t20 -15.5
q-4 -4 -9.5 -4.5t-8.5 -0.5q-14 0 -25.5 14.5t-11.5 37.5q0 20 15 37t46 17q9 0 29 -1.5t43.5 -2.5t40.5 -2q22 -1 36.5 1t25.5 3q-2 -16 -2.5 -33t-0.5 -34v-470q0 -26 -4.5 -56t-18.5 -56.5t-43 -43.5t-77 -17z" />
    <glyph glyph-name="K" unicode="K" horiz-adv-x="554" 
d="M494 -8q-11 0 -23 6.5t-22 18.5t-15 28l-55 176q-9 23 -20.5 43.5t-32.5 36.5t-58 25t-97 9h-40l-1 26h20.5h20.5q60 0 106.5 23.5t78.5 61.5t48 82t16 86q0 31 -6.5 48t-11.5 25q5 5 10 8.5t10 3.5q8 0 14.5 -8t11 -25t4.5 -45q0 -52 -21 -108t-67 -101.5t-123 -67.5
l6 11q75 -7 111 -43.5t52 -88.5l50 -162q8 -24 17.5 -32.5t20.5 -8.5q5 0 15.5 3t17.5 14q5 -6 5 -15q0 -16 -15.5 -23t-26.5 -7zM126 -8q-8 0 -12.5 6t-4.5 16l-2 586q0 30 -1.5 52.5t-4.5 34.5q3 3 7 5.5t11 2.5q8 0 12.5 -5.5t4.5 -16.5l2 -586q0 -30 1.5 -52.5
t4.5 -34.5q-3 -3 -7 -5.5t-11 -2.5z" />
    <glyph glyph-name="L" unicode="L" horiz-adv-x="456" 
d="M136 673l2 -648q46 0 91.5 0.5t91.5 0.5h92q4 -1 6 -5.5t2 -9t-1.5 -8t-6.5 -3.5h-287q-8 0 -12.5 6t-4.5 16l-2 578q0 30 -1.5 52.5t-4.5 34.5q3 3 7 5.5t11 2.5q8 0 12.5 -5.5t4.5 -16.5z" />
    <glyph glyph-name="M" unicode="M" horiz-adv-x="850" 
d="M743 87q0 -30 1.5 -52.5t4.5 -34.5q-3 -3 -7 -5.5t-11 -2.5q-8 0 -12.5 6t-4.5 16l-2 633l6 -2l-272 -509q-7 -5 -15 -5t-16 5q-47 82 -94.5 164t-95 165t-95.5 164l4 6l2 -548q0 -30 1.5 -52.5t4.5 -34.5q-3 -3 -7 -5.5t-11 -2.5t-11 6t-4 16l-2 586q0 30 -1.5 52.5
t-4.5 34.5q3 3 6.5 5.5t9.5 2.5q5 0 9 -2t6 -7q75 -131 151 -262.5t151 -262.5l-8 -5q35 66 70.5 133t71 134.5t71 134.5t70.5 133q3 2 7 3t8 1q8 0 12.5 -5.5t4.5 -16.5z" />
    <glyph glyph-name="N" unicode="N" horiz-adv-x="667" 
d="M121 -8q-7 0 -11 2.5t-7 5.5q3 12 4.5 34.5t1.5 52.5l-2 503q0 30 -1.5 57.5t-4.5 39.5q6 5 13 5.5t12.5 -1t6.5 -3.5q28 -42 67 -103.5t83 -132.5t89.5 -143.5t87 -139t75.5 -116.5l-2 547q0 30 -1.5 52.5t-4.5 34.5q3 3 7 5.5t11 2.5q8 0 12.5 -5.5t4.5 -16.5l2 -586
q0 -30 0.5 -52.5t1.5 -34.5q-2 -3 -7 -4.5t-9.5 -1.5t-7.5 1q-17 24 -46 68t-66 101t-77 120.5t-79.5 126.5t-75 119.5t-62.5 98.5l2 -615q0 -10 -4.5 -16t-12.5 -6z" />
    <glyph glyph-name="O" unicode="O" horiz-adv-x="638" 
d="M319 -12q-118 0 -183.5 86.5t-65.5 269.5t65.5 269.5t183.5 86.5t183.5 -86.5t65.5 -269.5t-65.5 -269.5t-183.5 -86.5zM319 16q102 0 159.5 79.5t57.5 248.5q0 170 -57.5 249t-159.5 79t-159.5 -79t-57.5 -249q0 -169 57.5 -248.5t159.5 -79.5z" />
    <glyph glyph-name="P" unicode="P" horiz-adv-x="535" 
d="M127 -8q-9 0 -13.5 6t-5.5 16v586q0 5 -0.5 22.5t-2 37t-4.5 27.5q2 2 23 7.5t79 5.5q146 0 208.5 -50.5t62.5 -150.5q0 -113 -75 -165t-230 -52h-24.5t-21.5 1l-7 26q10 -1 22.5 -1.5t41.5 -0.5q88 0 146 20t87 62t29 109q0 63 -26 102t-80.5 56.5t-141.5 17.5
q-19 0 -33.5 -1t-22.5 -3v-583q0 -4 0.5 -22t2.5 -37t4 -28q-3 -3 -7 -5.5t-11 -2.5z" />
    <glyph glyph-name="Q" unicode="Q" horiz-adv-x="638" 
d="M484 -134q-43 -1 -83 14.5t-77 40t-70 51.5t-62 49q-39 30 -66.5 75t-41.5 106.5t-14 141.5q0 183 65.5 269.5t183.5 86.5t183.5 -86.5t65.5 -269.5q0 -122 -29.5 -201t-85 -117t-134.5 -38q-10 0 -24.5 1.5t-23.5 3.5q32 -23 66 -46t70.5 -38.5t73.5 -14.5
q44 0 71.5 22.5t21.5 61.5q14 3 21.5 -5.5t7.5 -18.5q0 -42 -32 -65t-87 -23zM319 16q102 0 159.5 79.5t57.5 248.5q0 170 -57.5 249t-159.5 79t-159.5 -79t-57.5 -249q0 -113 26 -185.5t74.5 -107.5t116.5 -35z" />
    <glyph glyph-name="R" unicode="R" horiz-adv-x="572" 
d="M127 -8q-9 0 -13.5 6t-5.5 16v586q0 5 -0.5 22.5t-2 37t-4.5 27.5q2 2 25.5 7.5t82.5 5.5q140 0 202.5 -45.5t62.5 -149.5q0 -52 -21 -92.5t-57.5 -66t-83.5 -34.5l-5 9q33 0 54 -17.5t35 -44.5t26 -57l57 -141q10 -24 18.5 -32.5t19.5 -8.5q5 0 15.5 3t17.5 14
q3 -4 4 -7.5t1 -7.5q0 -10 -7.5 -17t-17 -10t-17.5 -3q-11 0 -22.5 6.5t-21 18.5t-16.5 28l-62 155q-10 25 -22.5 48.5t-39.5 38.5t-80 15h-118l-7 27q23 -1 53 -1h72q50 0 94 19.5t71.5 58t27.5 94.5q0 99 -56.5 136.5t-179.5 37.5q-25 0 -42 -1t-26 -3v-583q0 -4 0.5 -22
t2.5 -37t4 -28q-3 -3 -7 -5.5t-11 -2.5z" />
    <glyph glyph-name="S" unicode="S" horiz-adv-x="543" 
d="M276 -12q-75 0 -121 21.5t-67.5 57t-21.5 75.5q0 16 3.5 26.5t12 15t22.5 2.5q-2 -7 -3.5 -14t-1.5 -19q0 -47 22.5 -77.5t62 -45t90.5 -14.5q81 0 129.5 35t48.5 104q0 45 -21.5 77t-61.5 60t-98 59q-52 29 -93 55.5t-64.5 60.5t-23.5 83q0 53 26 86t69.5 48.5
t94.5 15.5q83 0 134 -35.5t51 -94.5q0 -12 -2.5 -19t-10.5 -12q-9 -5 -24 -1q4 7 5 13.5t1 12.5q0 38 -21.5 61.5t-57 35t-77.5 11.5q-39 0 -74.5 -11t-58.5 -36.5t-23 -70.5q0 -48 25.5 -79.5t64 -54t76.5 -43.5q61 -32 104.5 -63.5t67.5 -69.5t24 -89q0 -28 -9 -57.5
t-32 -54t-63.5 -40t-103.5 -15.5z" />
    <glyph glyph-name="T" unicode="T" horiz-adv-x="503" 
d="M256 -8q-8 0 -12.5 6t-4.5 16l-2 661l30 2l1 -590q0 -31 1.5 -53t4.5 -34q-3 -3 -7 -5.5t-11 -2.5zM32 662q-4 1 -7 5t-4 9t1 8.5t7 3.5h446q5 0 7 -3.5t1 -8.5t-4 -9t-7 -5h-74.5h-75h-74.5h-72h-72h-72z" />
    <glyph glyph-name="U" unicode="U" horiz-adv-x="642" 
d="M547 673v-369q0 -156 -57.5 -236t-169.5 -80t-165.5 76.5t-53.5 239.5v296q0 30 -1.5 52.5t-4.5 34.5q3 3 7 5.5t11 2.5q8 0 12.5 -5.5t4.5 -16.5v-369q0 -148 46.5 -218t143.5 -70q98 0 148 73t50 215v296q0 30 -1.5 52.5t-4.5 34.5q3 3 7 5.5t11 2.5q8 0 12.5 -5.5
t4.5 -16.5z" />
    <glyph glyph-name="V" unicode="V" horiz-adv-x="553" 
d="M275 -8q-19 0 -25 17l-219 652q-3 10 -7.5 18t-8.5 12q5 5 10 7t10 2q15 0 20 -14l228 -680h-14l218 657q2 4 3.5 10.5t1.5 10.5v7t-2 7q4 2 7 2h7q10 0 16 -5t5 -13q0 -5 -2 -12t-4 -12l-222 -658q-6 -4 -11.5 -6t-10.5 -2z" />
    <glyph glyph-name="W" unicode="W" horiz-adv-x="887" 
d="M845 700q10 0 16 -5t5 -13q0 -5 -2 -12t-4 -12l-187 -658q-5 -4 -10.5 -6t-10.5 -2q-9 0 -16 4.5t-9 12.5l-176 565l-179 -574q-6 -4 -11.5 -6t-10.5 -2q-9 0 -16 4.5t-9 12.5l-184 652q-3 10 -7.5 18t-8.5 12q5 5 10 7t10 2q7 0 12.5 -3.5t7.5 -10.5l186 -662l180 578
q3 9 2.5 14.5t-1.5 8.5q4 2 9.5 3.5t9.5 1.5h6.5t6.5 -1l189 -605l175 639q2 4 3.5 10.5t1.5 10.5v7t-2 7q4 2 7 2h7z" />
    <glyph glyph-name="X" unicode="X" horiz-adv-x="574" 
d="M510 -7q-28 0 -47.5 18t-30.5 40l-160 298l-148 274q-11 21 -22.5 31.5t-26.5 10.5q-17 0 -23 -10t-4 -22q-11 1 -17 7.5t-6 16.5q0 14 13.5 26t36.5 12q29 0 48 -19t29 -39l147 -273l162 -299q10 -17 21.5 -29.5t27.5 -12.5q17 0 23 11t4 21q11 -1 17 -7.5t6 -16.5
q0 -14 -13.5 -26t-36.5 -12zM50 -5q-7 0 -12 4.5t-7 16.5q6 5 18.5 20.5t32.5 44.5l202 298l18 -25l-234 -348q-4 -5 -8.5 -8t-9.5 -3zM301 348l-17 22l204 319q4 5 8.5 8t9.5 3q8 0 12.5 -5t6.5 -16q-10 -8 -23.5 -25t-29.5 -41z" />
    <glyph glyph-name="Y" unicode="Y" horiz-adv-x="512" 
d="M260 227q-4 1 -7 2t-5.5 3t-3.5 4l-203 425q-4 8 -10.5 16t-10.5 12q5 5 10.5 8t12.5 3t12 -3.5t8 -10.5l203 -433h-15l195 402q10 21 10 28v8t-2 7q4 2 7 2h7q9 0 14.5 -5.5t5.5 -16.5q0 -4 -2 -9.5t-6 -13.5l-208 -419zM272 249l1 -162q0 -31 1.5 -53t4.5 -34
q-3 -3 -7 -5.5t-11 -2.5q-8 0 -12.5 6t-4.5 16l-1 236z" />
    <glyph glyph-name="Z" unicode="Z" horiz-adv-x="553" 
d="M63 -5l-11 14q0 9 6 21t13 23l392 612l12 -2h-299q-49 0 -69 -18t-20 -43t12.5 -42t36.5 -31q-5 -10 -20 -10q-25 0 -41 27.5t-16 56.5q0 35 29.5 60.5t84.5 25.5h174q52 0 82 0.5t46 4.5l17 -9q0 -16 -4.5 -29t-10.5 -23l-399 -620v13h305q62 0 84 20.5t23 48.5
q1 31 -13.5 53.5t-32.5 32.5q7 4 10 6t9 2q20 0 32.5 -16t18.5 -37.5t6 -38.5q0 -40 -30 -68.5t-96 -28.5h-207q-30 0 -62 -0.5t-62 -4.5z" />
    <glyph glyph-name="bracketleft" unicode="[" horiz-adv-x="310" 
d="M100 730h110v-24h-80v-842h80v-24h-110v890z" />
    <glyph glyph-name="backslash" unicode="\" horiz-adv-x="391" 
d="M374 -142l-323 872h32l323 -872h-32z" />
    <glyph glyph-name="bracketright" unicode="]" horiz-adv-x="310" 
d="M180 730v-890h-110v24h80v842h-80v24h110z" />
    <glyph glyph-name="asciicircum" unicode="^" horiz-adv-x="535" 
d="M105 276q-4 0 -13.5 2t-11.5 6l170 158q6 1 12 1.5t11.5 0t11.5 -1.5l170 -158q-4 -4 -11.5 -6t-12.5 -2l-163 132z" />
    <glyph glyph-name="underscore" unicode="_" horiz-adv-x="373" 
d="M-30 -67l433 -2v-26l-433 2v26z" />
    <glyph glyph-name="grave" unicode="`" horiz-adv-x="600" 
d="M188 689q7 5 13.5 7.5t14.5 4t17 1.5l91 -140q-1 -4 -10.5 -5t-14.5 0z" />
    <glyph glyph-name="a" unicode="a" horiz-adv-x="534" 
d="M473 -10q-35 0 -51 23t-16 60v133l14 -12q-23 -65 -62.5 -111.5t-87.5 -70.5t-97 -24q-60 0 -89 33t-29 81q0 36 17 66t52 53.5t88 37.5q44 11 96 14.5t98 -1.5v26q0 93 -39 139.5t-126 46.5q-29 0 -61 -7t-53.5 -25.5t-21.5 -54.5q0 -19 12.5 -41t37.5 -28
q-6 -10 -14 -13t-13 -3q-22 0 -37 27.5t-15 55.5q0 59 46.5 88t124.5 29q97 0 143 -55t46 -159v-227q0 -53 38 -53q10 0 21 7t17 20q5 -6 7 -11t2 -10q0 -16 -15.5 -25t-32.5 -9zM179 15q38 0 77.5 20.5t73 54.5t54.5 76t22 85q-27 3 -62.5 1t-70 -7t-59.5 -13
q-61 -18 -94 -49.5t-33 -78.5q0 -34 20.5 -61.5t71.5 -27.5z" />
    <glyph glyph-name="b" unicode="b" horiz-adv-x="529" 
d="M267 -12q-23 0 -56 5t-66 19.5t-57 43.5v650q0 11 5 16.5t14 5.5q7 0 11 -2.5t7 -5.5q-1 -5 -2.5 -22t-2 -35t-0.5 -28l-1 -270q13 39 39.5 72.5t64 54t83.5 20.5q56 0 93.5 -25.5t57 -77.5t19.5 -134q0 -56 -11.5 -107.5t-36 -92t-64.5 -64t-97 -23.5zM270 16
q56 2 90.5 27t53 64.5t25 84t6.5 84.5q0 109 -36.5 158.5t-100.5 49.5q-55 0 -91.5 -27.5t-58 -69.5t-31 -87t-9.5 -80v-150q10 -15 34 -28t55.5 -20t62.5 -6z" />
    <glyph glyph-name="c" unicode="c" horiz-adv-x="499" 
d="M265 -12q-97 0 -154.5 64t-57.5 191q0 125 59 197t165 72q72 0 114.5 -33.5t42.5 -91.5q0 -30 -11.5 -49t-31.5 -19q-7 0 -13.5 3t-12.5 13q20 0 28.5 15.5t8.5 36.5q0 34 -18.5 56t-48 32.5t-63.5 10.5q-80 0 -133.5 -59t-53.5 -180q0 -88 27 -138.5t69 -71t87 -20.5
q36 0 68.5 11.5t57 37.5t33.5 69q9 -4 13 -12.5t-5 -30.5q-19 -53 -64 -78.5t-106 -25.5z" />
    <glyph glyph-name="d" unicode="d" horiz-adv-x="544" 
d="M219 -12q-57 0 -90.5 25t-49.5 63t-21 77.5t-5 68.5q0 134 52.5 212t153.5 78q57 0 96.5 -25.5t55.5 -72.5l-1 214q0 41 -1.5 62t-3.5 30q3 3 7 5.5t11 2.5q9 0 14 -5.5t5 -16.5l-1 -635q0 -28 8.5 -39t21.5 -11q6 0 14 3t13 15q5 -6 7.5 -11.5t2.5 -10.5
q0 -11 -11 -17.5t-29 -6.5q-28 0 -42.5 20t-14.5 60v127l23 29q-6 -44 -21.5 -86.5t-41.5 -77.5t-63.5 -56t-88.5 -21zM221 16q43 0 78 20t60 56.5t38.5 86t13.5 107.5q0 33 -7 68t-24 64.5t-48 47.5t-79 18q-75 0 -121.5 -63.5t-46.5 -196.5q0 -28 4 -63.5t17.5 -68.5
t41 -54.5t73.5 -21.5z" />
    <glyph glyph-name="e" unicode="e" horiz-adv-x="497" 
d="M268 -12q-100 0 -157.5 64t-57.5 191q0 124 57 196.5t166 72.5q50 0 86 -16t56 -46.5t20 -74.5q0 -76 -61 -113.5t-176 -37.5q-43 0 -74.5 4.5l-59.5 8.5v25q29 -6 71.5 -9.5t74.5 -3.5q47 0 83.5 8t61 23.5t37 39.5t12.5 55q0 43 -20 66.5t-50.5 33.5t-62.5 10
q-83 0 -136 -58t-53 -180q0 -88 26.5 -138t69.5 -71t90 -21q52 0 97.5 23t58.5 75q9 -4 13 -13t-5 -30q-19 -43 -64.5 -63.5t-102.5 -20.5z" />
    <glyph glyph-name="f" unicode="f" horiz-adv-x="372" 
d="M135 -8q-8 0 -12.5 6t-4.5 16l-1 563q0 25 5 53t19.5 53t43 41t74.5 16q47 0 80 -21.5t33 -62.5q0 -32 -16 -48t-27 -16h-2.5t-3.5 1q14 17 17 31t3 24q0 36 -25 50t-61 14q-47 0 -70.5 -20.5t-31 -52.5t-7.5 -65l-1 -487q0 -30 1.5 -52.5t4.5 -34.5q-3 -3 -7 -5.5
t-11 -2.5zM36 472l1 14q1 6 4 10t7 4h205h11t15 0.5t15 1t11 0.5l-1 -14q-1 -6 -3.5 -10t-7.5 -4h-197q-10 0 -30 -0.5t-30 -1.5z" />
    <glyph glyph-name="g" unicode="g" horiz-adv-x="529" 
d="M208 -240q-41 0 -75.5 13.5t-55.5 41.5t-21 69q0 30 11.5 47.5t24.5 17.5t19 -9q-14 -8 -20 -21.5t-6 -31.5q0 -36 17.5 -58t46.5 -31.5t61 -9.5q107 0 154 66.5t47 207.5v30v33q-19 -63 -67 -99t-115 -36q-56 0 -95.5 27.5t-60 84.5t-20.5 145q0 28 4 63t15.5 70.5
t35 65.5t62 48t96.5 18q24 0 56 -4.5t64.5 -18.5t55.5 -43v-400q0 -108 -30.5 -170.5t-83 -89t-120.5 -26.5zM231 18q53 0 88 23.5t55 59.5t28.5 75.5t8.5 70.5l1 186q-21 26 -63 38.5t-92 12.5q-57 0 -91.5 -24.5t-52 -62.5t-23 -78.5t-5.5 -73.5q0 -118 38 -172.5
t108 -54.5z" />
    <glyph glyph-name="h" unicode="h" horiz-adv-x="554" 
d="M115 -8q-8 0 -12.5 6t-4.5 16l-1 692q0 11 5 16.5t14 5.5q7 0 11 -2.5t7 -5.5q-2 -8 -3.5 -24.5t-2.5 -55.5l-1 -313l-13 -8q4 60 31.5 103.5t69.5 66.5t89 23q82 0 120.5 -55t38.5 -160l1 -210q0 -30 1.5 -52.5t4.5 -34.5q-3 -3 -7 -5.5t-11 -2.5q-8 0 -12.5 6t-4.5 16
l-1 284q0 93 -31 139.5t-102 46.5q-25 0 -55 -11t-57 -37.5t-44.5 -72.5t-17.5 -116v-114.5t0.5 -70.5t2 -39.5t3.5 -22.5q-3 -3 -7 -5.5t-11 -2.5z" />
    <glyph glyph-name="i" unicode="i" horiz-adv-x="248" 
d="M120 626q-13 0 -23.5 10.5t-10.5 23.5q0 14 10.5 24t23.5 10q14 0 24 -10t10 -24q0 -13 -10 -23.5t-24 -10.5zM139 87q0 -30 1.5 -52.5t4.5 -34.5q-3 -3 -7 -5.5t-11 -2.5q-8 0 -12.5 6t-4.5 16l-2 403q0 30 -1.5 52.5t-4.5 34.5q3 3 7 5.5t11 2.5q8 0 12.5 -5.5
t4.5 -16.5z" />
    <glyph glyph-name="j" unicode="j" horiz-adv-x="254" 
d="M34 -236q-43 0 -66 19t-23 53q0 11 5.5 21.5t18.5 10.5h1.5h1.5q-1 -6 -1.5 -11.5t-0.5 -10.5q0 -24 10.5 -35.5t25 -15t26.5 -3.5q35 0 53 15.5t25 44t7 68.5l1 497q0 29 -1.5 52t-4.5 35q3 3 7 5.5t11 2.5q8 0 12.5 -5.5t4.5 -16.5l1 -573q0 -23 -3.5 -49.5t-15 -50
t-34.5 -38.5t-61 -15zM130 626q-13 0 -23.5 10.5t-10.5 23.5q0 14 10.5 24t23.5 10q14 0 24 -10t10 -24q0 -13 -10 -23.5t-24 -10.5z" />
    <glyph glyph-name="k" unicode="k" horiz-adv-x="540" 
d="M115 -8q-8 0 -12.5 6t-4.5 16l-1 692q0 11 5 16.5t14 5.5q7 0 11 -2.5t7 -5.5q-1 -3 -2 -11t-2 -19t-1.5 -24t-0.5 -26l-1 -328l-5 3q13 59 44 103t76 69t100 25t88.5 -29.5t33.5 -87.5q0 -41 -19.5 -73t-50 -54.5t-65.5 -38.5q5 -6 8.5 -12t7.5 -12l88 -158
q8 -14 16 -20.5t19 -6.5q5 0 13.5 3t15.5 14q3 -4 4 -7.5t1 -7.5q0 -16 -14.5 -23t-25.5 -7q-17 0 -31 12t-22 27l-105 187q-46 -18 -93 -32.5t-84 -24.5v-78t1 -44t2 -23t3 -16q-3 -3 -7 -5.5t-11 -2.5zM127 185q57 17 112 35.5t99 42.5t70 56t26 75q0 48 -26.5 69
t-67.5 21q-66 0 -113.5 -37.5t-73.5 -104.5t-26 -157z" />
    <glyph glyph-name="l" unicode="l" horiz-adv-x="250" 
d="M164 -10q-31 0 -50.5 21.5t-19.5 61.5v633q0 11 5 16.5t14 5.5q7 0 11 -2.5t7 -5.5q-4 -11 -5 -58.5t-1 -137.5l-1 -453q0 -25 10.5 -39t30.5 -14q14 0 26 7t18 20q5 -6 7 -11t2 -10q0 -16 -16.5 -25t-37.5 -9z" />
    <glyph glyph-name="m" unicode="m" horiz-adv-x="873" 
d="M783 87q0 -30 1.5 -52.5t4.5 -34.5q-3 -3 -7 -5.5t-11 -2.5q-8 0 -12.5 6t-4.5 16l-1 284q0 62 -12 103.5t-39.5 62t-74.5 20.5q-23 0 -50 -10t-51.5 -34.5t-41 -66.5t-18.5 -106l1 -180q0 -30 1.5 -52.5t4.5 -34.5q-3 -3 -7 -5.5t-11 -2.5q-8 0 -12.5 6t-4.5 16l-1 284
q0 93 -28 139.5t-98 46.5q-24 0 -52 -11.5t-52.5 -39t-40.5 -75.5t-16 -121v-110t0.5 -67.5t2 -37.5t3.5 -22q-3 -3 -7 -5.5t-11 -2.5q-8 0 -12.5 6t-4.5 16l-1 415q0 25 -10.5 39t-30.5 14q-11 0 -20 -7t-14 -20q-9 10 -9 21q0 17 14.5 25.5t29.5 8.5q32 0 51 -21t19 -62
v-97l-9 9q14 81 63.5 127t109.5 46q74 0 111 -46t41 -131l-11 3q7 54 32.5 93t62.5 60t80 21q80 0 116 -55t36 -160z" />
    <glyph glyph-name="n" unicode="n" horiz-adv-x="562" 
d="M121 -8q-9 0 -13.5 6t-4.5 16v418q-1 28 -7.5 39t-22.5 11q-6 0 -14 -3t-13 -15q-10 11 -10 22t11 17.5t29 6.5q31 0 44 -20t13 -59v-104l-13 -8q4 60 31.5 103.5t69.5 66.5t89 23q83 0 122 -55t39 -160v-210q1 -30 2.5 -52.5t4.5 -34.5q-3 -3 -7 -5.5t-11 -2.5
q-9 0 -14 6t-5 16v284q-1 93 -32 139.5t-102 46.5q-25 0 -55 -11t-57 -37.5t-44.5 -72.5t-17.5 -116v-114.5t0.5 -70.5t2 -39.5t3.5 -22.5q-3 -3 -7 -5.5t-11 -2.5z" />
    <glyph glyph-name="o" unicode="o" horiz-adv-x="534" 
d="M267 -12q-101 0 -157.5 69t-56.5 193t56.5 193t157.5 69t157.5 -69t56.5 -193t-56.5 -193t-157.5 -69zM267 16q86 0 134 62t48 172t-48 172t-134 62q-85 0 -133.5 -62t-48.5 -172t48.5 -172t133.5 -62z" />
    <glyph glyph-name="p" unicode="p" horiz-adv-x="544" 
d="M325 512q57 0 90.5 -25t49.5 -63t21 -77.5t5 -68.5q0 -133 -52.5 -211.5t-153.5 -78.5q-57 0 -96 26t-56 72v-192q0 -20 1 -44t2.5 -43.5t2.5 -26.5q-3 -3 -7 -5.5t-11 -2.5q-9 0 -14 6t-5 16l1 638q0 28 -6.5 39t-23.5 11q-6 0 -14 -3t-13 -15q-5 6 -7.5 11.5t-2.5 10.5
q0 11 11 17.5t29 6.5q31 0 44 -20t13 -59v-131l-23 -29q6 44 21.5 86.5t41.5 77.5t63.5 56t88.5 21zM323 484q-43 0 -78 -20t-60 -56.5t-38.5 -85.5t-13.5 -108q0 -33 6 -68t21.5 -64.5t45 -47.5t76.5 -18q82 0 129.5 63.5t47.5 196.5q0 28 -4 63.5t-17.5 68.5t-40.5 54.5
t-74 21.5z" />
    <glyph glyph-name="q" unicode="q" horiz-adv-x="532" 
d="M423 -228q-7 0 -11 2.5t-7 5.5q2 8 3.5 25.5t2 45t0.5 65.5v223q-12 -42 -39 -76.5t-64 -55t-82 -20.5q-56 0 -95 27.5t-58.5 83t-19.5 139.5q0 29 5.5 65.5t19 73t36.5 67.5t58.5 50t84.5 19q63 0 111.5 -19t73.5 -49v-650q0 -10 -5 -16t-14 -6zM229 15q42 0 72.5 19
t52 49.5t34 65.5t18.5 68.5t6 56.5v159q-16 18 -59.5 34.5t-93.5 16.5q-47 0 -79 -19.5t-51 -50t-28.5 -65t-12.5 -65.5t-3 -50q0 -116 37.5 -167.5t106.5 -51.5z" />
    <glyph glyph-name="r" unicode="r" horiz-adv-x="413" 
d="M120 -8q-8 0 -12.5 6t-4.5 16v418q0 28 -7 39t-23 11q-6 0 -14 -3t-13 -15q-10 11 -10 22t11 17.5t29 6.5q30 0 43 -21t13 -62v-100l-12 -8q6 93 46 143t100 50q45 0 73.5 -23.5t28.5 -70.5q0 -28 -12.5 -45t-24.5 -19q-7 -1 -12 1q14 17 17 31.5t3 27.5q0 38 -19.5 54
t-53.5 16q-29 0 -60 -20.5t-51.5 -72t-20.5 -144.5v-114.5t0.5 -70.5t1.5 -39.5t3 -22.5q-3 -3 -7.5 -5.5t-11.5 -2.5z" />
    <glyph glyph-name="s" unicode="s" horiz-adv-x="460" 
d="M227 -12q-66 0 -106 17.5t-58 46.5t-18 62q0 16 4 25.5t12 14t21 2.5q-3 -7 -4.5 -14t-1.5 -18q0 -56 41.5 -82t106.5 -26q70 0 114 24.5t44 70.5q0 38 -24 59.5t-61 37t-76 34.5t-73.5 37.5t-56.5 46.5t-22 74q0 41 22.5 66t59.5 36t80 11q83 0 124.5 -28t41.5 -75
q0 -11 -2.5 -18.5t-10.5 -12.5q-4 -3 -10 -3t-13 2q3 7 4 13.5t1 12.5q0 42 -36.5 61.5t-100.5 19.5q-33 0 -62.5 -7.5t-47.5 -25.5t-18 -49q0 -38 19 -61.5t50.5 -39.5t66.5 -33q31 -14 62 -27.5t57 -30t42 -40t16 -58.5q0 -27 -15.5 -56t-55.5 -49t-116 -20z" />
    <glyph glyph-name="t" unicode="t" horiz-adv-x="325" 
d="M190 -12q-36 0 -58 21.5t-22 61.5v539q0 11 5 16.5t14 5.5q7 0 11 -2.5t7 -5.5q-4 -11 -5 -58.5t-1 -137.5l-1 -357q0 -25 13 -40t38 -15q17 0 32.5 7t21.5 20q5 -6 7 -11t2 -10q0 -16 -19.5 -25t-44.5 -9zM36 472l1 14q1 6 4 10t7 4h170h11t15 0.5t15 1t11 0.5l-1 -14
q-1 -6 -3.5 -10t-7.5 -4h-162q-10 0 -30 -0.5t-30 -1.5z" />
    <glyph glyph-name="u" unicode="u" horiz-adv-x="551" 
d="M430 512q8 0 12.5 -5.5t4.5 -16.5l1 -418q0 -28 7 -39t23 -11q6 0 14 3t13 15q10 -11 10 -22t-11 -17.5t-29 -6.5q-31 0 -44 20t-13 59v104l13 8q-4 -61 -31 -105t-68 -68t-87 -24q-79 0 -116.5 48.5t-38.5 170.5l-1 210q0 30 -1.5 52.5t-4.5 34.5q3 3 7 5.5t11 2.5
q8 0 12.5 -5.5t4.5 -16.5l1 -284q0 -73 13 -114.5t41.5 -58.5t74.5 -17q25 0 54 11.5t55.5 38.5t43.5 73.5t17 117.5v115t-0.5 70t-2 39.5t-3.5 22.5q3 3 7 5.5t11 2.5z" />
    <glyph glyph-name="v" unicode="v" horiz-adv-x="464" 
d="M235 -8q-9 0 -15.5 4.5t-9.5 12.5l-179 452q-2 6 -7 16t-9 14q5 5 10 7t10 2q7 0 12.5 -3.5t7.5 -10.5l186 -480h-10l176 457q2 4 3.5 10.5t1.5 10.5v7t-2 7q4 2 7 2h7q10 0 16 -5t5 -13q0 -5 -2 -12t-4 -12l-182 -458q-11 -8 -22 -8z" />
    <glyph glyph-name="w" unicode="w" horiz-adv-x="733" 
d="M209 -8q-9 0 -15 4.5t-9 12.5l-149 452q-2 6 -7 16t-9 14q5 5 10 7t10 2q7 0 12.5 -3.5t7.5 -10.5l151 -467l133 444q1 3 2.5 10t1.5 11v7t-2 7q4 2 10.5 4t13.5 2q5 0 8 -1t7 -3l143 -481l143 444q2 4 3.5 10.5t1.5 10.5v7t-2 7q4 2 7 2h7q10 0 16 -5t5 -13q0 -5 -2 -12
t-4 -12l-152 -458q-6 -4 -11 -6t-10 -2q-9 0 -17 4.5t-10 12.5l-133 452l-137 -461q-6 -4 -12.5 -6t-11.5 -2z" />
    <glyph glyph-name="x" unicode="x" horiz-adv-x="483" 
d="M421 -13q-19 0 -33 8t-24.5 21t-19.5 28l-120 209l-108 188q-13 22 -23.5 32t-25.5 10q-17 0 -23 -10t-4 -22q-11 1 -17 7.5t-6 15.5q0 14 13.5 26t35.5 12q19 0 33.5 -8.5t25 -21.5t18.5 -27l107 -188l121 -209q11 -18 22 -30t28 -12t23 11t3 21q11 -1 17 -7.5t6 -16.5
q0 -13 -13 -25t-36 -12zM51 -12q-6 0 -11 4.5t-7 15.5q6 5 18 20.5t33 44.5l149 207l17 -24l-181 -257q-4 -5 -8.5 -8t-9.5 -3zM252 251l-17 22l165 228q4 5 8.5 8t9.5 3q7 0 11.5 -4.5t6.5 -15.5q-10 -8 -22.5 -25.5t-29.5 -40.5z" />
    <glyph glyph-name="y" unicode="y" horiz-adv-x="536" 
d="M235 -240q-36 0 -71 11t-58 35.5t-23 63.5q0 23 8 41t23 18q12 0 18 -9q-14 -7 -17 -21.5t-3 -21.5q0 -36 20 -55t48 -26.5t53 -7.5q99 0 142 65.5t43 208.5v41.5v41.5v42l13 8q-7 -93 -59.5 -149t-135.5 -56q-70 0 -107.5 48t-38.5 169l-1 210q0 32 -1.5 53.5t-4.5 33.5
q3 3 7 5.5t11 2.5q8 0 12.5 -5.5t4.5 -16.5l1 -284q0 -102 28.5 -145t89.5 -43q31 0 62.5 11.5t58.5 39.5t43.5 76.5t16.5 121.5v110.5t-0.5 67t-2 37.5t-3.5 22q3 3 7 5.5t11 2.5q8 0 12.5 -5.5t4.5 -16.5l2 -444q0 -108 -28 -170.5t-76 -89t-110 -26.5z" />
    <glyph glyph-name="z" unicode="z" horiz-adv-x="476" 
d="M49 -4l-8 11q0 7 4 16t10 17l335 442l5 -10h-249q-40 0 -56 -17t-16 -37q0 -18 9 -30.5t22 -21.5q-2 -4 -6 -6t-9 -2q-22 0 -34 20t-12 42q0 32 26 56t74 24h164q38 0 60.5 0.5t34.5 3.5l10 -7q0 -12 -2.5 -23.5t-12.5 -25.5l-328 -431l-5 10h257q50 0 68.5 22t18.5 48
q0 20 -9 37t-23 24q11 6 18 6q18 0 27.5 -12t13 -28.5t3.5 -29.5q0 -42 -29 -68t-77 -26h-187q-22 0 -48 -0.5t-49 -3.5z" />
    <glyph glyph-name="braceleft" unicode="{" horiz-adv-x="342" 
d="M255 -171q-52 0 -88 34t-36 107q0 41 8 95t8 107q0 47 -15 68t-52 36v24q41 16 54 40.5t13 67.5q0 56 -8 106t-8 90q0 74 36 108t88 34q20 0 36 -3.5t19 -6.5q2 -1 2.5 -5t-1.5 -8t-8 -6q-8 1 -19 2t-19 1q-49 0 -77.5 -28t-28.5 -84q0 -36 8.5 -87.5t8.5 -104.5
q0 -63 -15.5 -90.5t-35.5 -34.5v-6q22 -7 36.5 -36.5t14.5 -86.5q0 -33 -4 -68.5t-8.5 -68.5t-4.5 -57q0 -56 28.5 -84.5t77.5 -28.5q8 0 19 1t19 2q6 -1 8 -5t1.5 -8t-2.5 -6q-3 -3 -19 -6.5t-36 -3.5z" />
    <glyph glyph-name="bar" unicode="|" horiz-adv-x="230" 
d="M100 -137v867h30v-867h-30z" />
    <glyph glyph-name="braceright" unicode="}" horiz-adv-x="342" 
d="M87 -171q-19 0 -35.5 3.5t-19.5 6.5q-2 2 -2.5 6t2 8t7.5 5q8 -1 19 -2t19 -1q49 0 77.5 28.5t28.5 84.5q0 24 -4 57t-8.5 68.5t-4.5 68.5q0 57 14.5 86.5t36.5 36.5v6q-20 7 -35.5 34.5t-15.5 90.5q0 53 8.5 104.5t8.5 87.5q0 56 -28.5 84t-77.5 28q-8 0 -19 -1t-19 -2
q-5 2 -7.5 6t-2 8t2.5 5q3 3 19.5 6.5t35.5 3.5q53 0 88.5 -34t35.5 -108q0 -40 -8 -90t-8 -106q0 -43 13.5 -67.5t53.5 -40.5v-24q-37 -15 -52 -36t-15 -68q0 -53 8 -107t8 -95q0 -73 -35.5 -107t-88.5 -34z" />
    <glyph glyph-name="asciitilde" unicode="~" horiz-adv-x="521" 
d="M441 388q-6 -29 -27 -49t-52 -20q-34 0 -58.5 7.5t-45.5 18t-43 18t-51 7.5q-19 0 -36 -11.5t-23 -34.5q-7 -1 -13.5 3t-11.5 8q6 23 19 37.5t31.5 21.5t37.5 7q34 0 58.5 -7.5t45.5 -18t44 -18t53 -7.5q20 0 29 13.5t16 33.5q17 0 27 -9z" />
    <glyph glyph-name="uni00A0" unicode="&#xa0;" horiz-adv-x="275" 
 />
    <glyph glyph-name="exclamdown" unicode="&#xa1;" horiz-adv-x="268" 
d="M115 -221q9 -2 19 -2t19 2l-4 555h-30zM134 509q14 0 24 -10t10 -24q0 -13 -10 -23.5t-24 -10.5q-13 0 -23.5 10.5t-10.5 23.5q0 14 10.5 24t23.5 10z" />
    <glyph glyph-name="cent" unicode="&#xa2;" horiz-adv-x="499" 
d="M335 -41q-14 -3 -19 19l-117 655q-5 30 -10.5 52t-10.5 33q2 3 5 6t9 4q14 3 19 -19l117 -655q5 -30 11 -52t10 -33q-2 -3 -5 -6t-9 -4zM268 88q-97 0 -154.5 64t-57.5 191q0 125 59 197t165 72q72 0 114.5 -33.5t42.5 -91.5q0 -30 -11.5 -49t-31.5 -19q-7 0 -13.5 3
t-12.5 13q20 0 28.5 15.5t8.5 36.5q0 34 -18.5 56t-48 32.5t-63.5 10.5q-80 0 -133.5 -59t-53.5 -180q0 -88 27 -138.5t69 -71t87 -20.5q36 0 68.5 11.5t57 37.5t33.5 69q9 -4 13 -12.5t-5 -30.5q-19 -53 -64 -78.5t-106 -25.5z" />
    <glyph glyph-name="sterling" unicode="&#xa3;" horiz-adv-x="508" 
d="M146 499q0 -39 5 -76.5t9.5 -77t4.5 -84.5q0 -47 -9 -83.5t-29 -72.5t-54 -80q96 0 192.5 0.5t192.5 0.5q3 -1 4 -4t1 -6q0 -6 -3.5 -11t-9.5 -5h-406v22q34 50 54.5 87.5t29.5 73t9 80.5q0 35 -5 77.5t-10 84.5t-5 73q0 60 14 99.5t38.5 62t56 31.5t66.5 9
q59 0 92.5 -30t33.5 -67q0 -14 -5 -18.5t-10 -4.5q-6 0 -10 2q0 45 -31 67.5t-70 22.5q-38 0 -71.5 -13t-54 -50t-20.5 -110zM33 299l1 14q1 6 4 10t7 4h255h11t15 0.5t15 1t11 0.5l-1 -14q-1 -6 -3.5 -10t-7.5 -4h-247q-10 0 -30 -0.5t-30 -1.5z" />
    <glyph glyph-name="currency" unicode="&#xa4;" horiz-adv-x="529" 
d="M266 192q-51 0 -93.5 25t-68 67t-25.5 93q0 50 24.5 91.5t66.5 66t92 24.5q51 0 93.5 -25t67.5 -66.5t25 -92.5q0 -50 -24.5 -92t-66 -66.5t-91.5 -24.5zM263 220q43 0 78 21t56 56.5t21 78.5t-20.5 78t-55.5 56t-77 21q-43 0 -78.5 -21t-56.5 -56.5t-21 -78.5
q0 -42 21 -77.5t56 -56.5t77 -21zM145 479l-29 27q-22 21 -38.5 36t-27.5 22q0 4 1 8.5t5 8.5q6 6 13 3.5t13 -8.5l81 -80zM385 477l-17 18l27 29q21 22 36 39t22 27q4 0 8.5 -0.5t8.5 -5.5q6 -6 3.5 -13t-8.5 -13zM447 175l-81 80l18 17l29 -27q22 -21 39 -36t27 -22
q0 -4 -0.5 -8t-5.5 -9q-6 -6 -13 -3.5t-13 8.5zM76 161q-4 0 -8 1t-9 5q-6 6 -3.5 13t8.5 13l80 81l17 -18l-27 -29q-21 -22 -36 -38.5t-22 -27.5z" />
    <glyph glyph-name="yen" unicode="&#xa5;" horiz-adv-x="508" 
d="M95 284l1 14q1 6 4 10t7 4h255h8t11.5 0.5t13 0.5t11.5 0.5t8 0.5l-1 -14q-1 -6 -3.5 -10t-7.5 -4h-247q-10 0 -30 -0.5t-30 -1.5zM95 174l1 14q1 6 4 10t7 4h255h8t11.5 0.5t13 0.5t11.5 0.5t8 0.5l-1 -14q-1 -6 -3.5 -10t-7.5 -4h-247q-10 0 -30 -0.5t-30 -1.5z
M260 227q-4 1 -7 2t-5.5 3t-3.5 4l-203 425q-4 8 -10.5 16t-10.5 12q5 5 10.5 8t12.5 3t12 -3.5t8 -10.5l203 -433h-15l195 402q10 21 10 28v8t-2 7q4 2 7 2h7q9 0 14.5 -5.5t5.5 -16.5q0 -4 -2 -9.5t-6 -13.5l-208 -419zM272 249l1 -162q0 -31 1.5 -53t4.5 -34
q-3 -3 -7 -5.5t-11 -2.5q-8 0 -12.5 6t-4.5 16l-1 236z" />
    <glyph glyph-name="brokenbar" unicode="&#xa6;" horiz-adv-x="230" 
d="M100 -137v344h30v-344h-30zM100 384v344h30v-344h-30z" />
    <glyph glyph-name="section" unicode="&#xa7;" horiz-adv-x="460" 
d="M227 -81q-66 0 -106 17.5t-58 46.5t-18 62q0 16 4 25.5t12 14t21 2.5q-3 -7 -4.5 -14t-1.5 -18q0 -56 41.5 -82t106.5 -26q70 0 114 24.5t44 70.5q0 38 -24 59.5t-61 37t-76 34.5t-73.5 37.5t-56.5 46.5t-22 74q0 53 30 81.5t76 38.5q-44 23 -75 52t-31 84q0 41 22.5 66
t59.5 36t80 11q83 0 124.5 -28t41.5 -75q0 -11 -2.5 -18.5t-10.5 -12.5q-4 -3 -10 -3t-13 2q3 7 4 13.5t1 12.5q0 42 -36.5 61.5t-100.5 19.5q-33 0 -62.5 -7.5t-47.5 -25.5t-18 -49q0 -38 19 -61.5t50.5 -39.5t66.5 -33q31 -14 62 -27.5t57 -30t42 -40t16 -58.5
q0 -23 -11 -49t-38.5 -46t-79.5 -26q34 -14 63 -31.5t47.5 -42t18.5 -61.5q0 -27 -15.5 -56t-55.5 -49t-116 -20zM243 200q36 -3 67.5 6t51.5 32t20 60q0 33 -22.5 54.5t-57.5 38.5t-75 36q-56 6 -91 -17.5t-35 -75.5q0 -37 21.5 -61t54 -40.5t66.5 -32.5z" />
    <glyph glyph-name="dieresis" unicode="&#xa8;" horiz-adv-x="600" 
d="M220 587q-13 0 -23.5 10.5t-10.5 23.5q0 14 10.5 24t23.5 10q14 0 24 -10t10 -24q0 -13 -10 -23.5t-24 -10.5zM380 587q-13 0 -23.5 10.5t-10.5 23.5q0 14 10.5 24t23.5 10q14 0 24 -10t10 -24q0 -13 -10 -23.5t-24 -10.5z" />
    <glyph glyph-name="copyright" unicode="&#xa9;" horiz-adv-x="837" 
d="M419 -12q-75 0 -140 28t-114 77t-77 114t-28 139t28 138t77 112.5t114 76t140 27.5q74 0 139 -27.5t114 -76.5t77 -113t28 -137q0 -74 -28 -139t-77 -114t-114 -77t-139 -28zM425 123q-85 0 -133 56.5t-48 166.5t48 166.5t133 56.5q39 0 68 -8t45 -20t16 -24
q0 -4 -6 -7.5t-13 -1.5q-7 17 -35.5 28t-74.5 11q-72 0 -112 -51t-40 -150t40 -150t112 -51q41 0 79 15t48 42q7 0 12 -1.5t5 -7.5q0 -14 -19.5 -30.5t-52 -28t-72.5 -11.5zM419 13q69 0 129 26t105.5 71.5t71 106t25.5 129.5q0 68 -25.5 128t-71 105t-105.5 70.5t-129 25.5
t-129 -25.5t-106 -70.5t-71.5 -105t-25.5 -128q0 -69 25.5 -129.5t71.5 -106.5t106 -71.5t129 -25.5z" />
    <glyph glyph-name="ordfeminine" unicode="&#xaa;" horiz-adv-x="358" 
d="M317 358q-12 0 -20.5 4t-14 11.5t-8 18t-2.5 22.5v89l9 -8q-15 -44 -41.5 -75t-58.5 -47t-65 -16q-40 0 -59.5 22.5t-19.5 53.5q0 24 11.5 44.5t35 36.5t58.5 25q29 8 64 10t66 0v16q0 62 -26 92t-85 30q-19 0 -39.5 -4.5t-35 -16.5t-14.5 -35q0 -13 8 -27.5t24 -18.5
q-4 -7 -9.5 -9t-8.5 -2q-15 0 -25 18.5t-10 37.5q0 40 31 59t83 19q66 0 97.5 -36.5t31.5 -106.5v-152q0 -34 24 -34q6 0 13.5 4.5t11.5 11.5q4 -4 5 -7.5t1 -6.5q0 -11 -10.5 -17t-21.5 -6zM120 377q34 0 69 23t58.5 59t24.5 74q-27 2 -65 -1t-64 -11q-40 -12 -61.5 -33.5
t-21.5 -52.5q0 -22 13.5 -40t46.5 -18z" />
    <glyph glyph-name="guillemotleft" unicode="&#xab;" horiz-adv-x="611" 
d="M549 438l-282 -195v-5l284 -196l-18 -21l-296 205q-1 5 -1.5 10t0 10.5t1.5 9.5l296 204zM349 438l-282 -195v-5l284 -196l-18 -21l-296 205q-1 5 -1.5 10t0 10.5t1.5 9.5l296 204z" />
    <glyph glyph-name="logicalnot" unicode="&#xac;" horiz-adv-x="574" 
d="M83 344q-6 15 0 30h391v-30h-391zM444 228v133h30v-133q-15 -7 -30 0z" />
    <glyph glyph-name="uni00AD" unicode="&#xad;" horiz-adv-x="399" 
d="M60 270h279v-28h-279v28z" />
    <glyph glyph-name="registered" unicode="&#xae;" horiz-adv-x="837" 
d="M419 -12q-75 0 -140 28t-114 77t-77 114t-28 139t28 138t77 112.5t114 76t140 27.5q74 0 139 -27.5t114 -76.5t77 -113t28 -137q0 -74 -28 -139t-77 -114t-114 -77t-139 -28zM419 13q69 0 129 26t105.5 71.5t71 106t25.5 129.5q0 68 -25.5 128t-71 105t-105.5 70.5
t-129 25.5t-129 -25.5t-106 -70.5t-71.5 -105t-25.5 -128q0 -69 25.5 -129.5t71.5 -106.5t106 -71.5t129 -25.5zM296 123q-7 0 -10.5 3.5t-4.5 10.5v386q0 3 -0.5 14.5t-1.5 24.5t-3 19q2 0 19.5 4t62.5 4q108 0 155.5 -30t47.5 -99q0 -51 -35 -84.5t-88 -41.5l-4 6
q37 0 55 -24.5t33 -54.5l42 -93q8 -14 15 -19.5t15 -5.5q4 0 12 2.5t13 9.5q4 -5 4 -12q0 -10 -12 -15t-21 -5t-18.5 4t-18 12t-14.5 19l-46 102q-7 16 -16.5 31t-29 24.5t-58.5 9.5h-90l-6 21h40.5h55.5q37 0 69.5 12.5t53 37.5t20.5 61q0 63 -42 87t-134 24
q-17 0 -28.5 -0.5t-18.5 -2.5v-379q0 -8 1.5 -28.5t4.5 -29.5q-3 -1 -7 -3t-12 -2z" />
    <glyph glyph-name="macron" unicode="&#xaf;" horiz-adv-x="600" 
d="M182 627h235q6 -14 0 -28h-235q-6 14 0 28z" />
    <glyph glyph-name="degree" unicode="&#xb0;" horiz-adv-x="362" 
d="M181 477q-32 0 -58.5 15t-42 40.5t-15.5 56.5t15.5 56t42 40t58.5 15t58.5 -15t42 -40t15.5 -56t-15.5 -56.5t-42 -40.5t-58.5 -15zM181 503q36 0 61.5 25.5t25.5 60.5t-25.5 60t-61.5 25t-61.5 -25t-25.5 -60t25.5 -60.5t61.5 -25.5z" />
    <glyph glyph-name="plusminus" unicode="&#xb1;" horiz-adv-x="577" 
d="M93 372h391q6 -15 0 -30h-391q-6 15 0 30zM303 503v-292q-15 -5 -29 1l-1 291q15 6 30 0zM93 152h391q6 -15 0 -30h-391q-6 15 0 30z" />
    <glyph glyph-name="uni00B2" unicode="&#xb2;" horiz-adv-x="349" 
d="M41 243q-5 3 -6 9t-1 13q39 31 75 61t66.5 59.5t53 59.5t35 60.5t12.5 62.5q0 45 -27 78t-82 33q-37 0 -58.5 -15t-31 -34.5t-11.5 -31.5q-5 0 -9.5 2.5t-7 6.5t-2.5 10q0 15 14 34.5t41.5 34t66.5 14.5q34 0 64.5 -13t50 -41.5t19.5 -74.5q0 -36 -13.5 -70.5
t-37.5 -66.5t-55.5 -61.5t-66.5 -57t-70 -53.5q33 0 67 0.5t68 1.5t67.5 1.5t65.5 1.5q2 -1 3 -4.5t1 -7.5t-1 -7.5t-4 -4.5h-286z" />
    <glyph glyph-name="uni00B3" unicode="&#xb3;" horiz-adv-x="375" 
d="M182 235q-41 0 -67.5 10t-41.5 24t-21 28t-6 21q0 5 2 9t6.5 6.5t10.5 2.5q2 -10 7.5 -24t18 -26.5t34.5 -21t56 -8.5q62 0 92.5 28t30.5 74q0 43 -23 67.5t-60.5 35.5t-80.5 12v19q46 1 79.5 14t51.5 36t18 53q0 35 -25.5 59.5t-76.5 24.5q-39 0 -62 -14.5t-32.5 -33
t-11.5 -31.5q-6 0 -10 2t-6 5.5t-2 9.5q0 13 12.5 32.5t40.5 35t74 15.5q23 0 45.5 -5.5t41 -17.5t29.5 -32t11 -49q0 -46 -28.5 -73.5t-78.5 -38.5q53 -10 87.5 -38.5t34.5 -85.5q0 -61 -42 -93t-108 -32z" />
    <glyph glyph-name="acute" unicode="&#xb4;" horiz-adv-x="600" 
d="M365 689l-111 -132q-5 -1 -14 0t-11 5l91 140q10 0 17.5 -1.5t14 -4t13.5 -7.5z" />
    <glyph glyph-name="uni00B5" unicode="&#xb5;" horiz-adv-x="558" 
d="M248 -12q-79 0 -116.5 48.5t-38.5 170.5l-1 210q0 30 -1.5 52.5t-4.5 34.5q3 3 7 5.5t11 2.5q8 0 12.5 -5.5t4.5 -16.5l1 -284q0 -73 13 -114.5t41.5 -58.5t74.5 -17q25 0 54 11.5t55.5 38.5t43.5 73.5t17 117.5v115t-0.5 70t-2 39.5t-3.5 22.5q3 3 7 5.5t11 2.5
q8 0 12.5 -5.5t4.5 -16.5l1 -418q0 -28 7 -39t23 -11q6 0 14 3t13 15q10 -11 10 -22t-11 -17.5t-29 -6.5q-31 0 -44 20t-13 59v104l13 8q-4 -61 -31 -105t-68 -68t-87 -24zM111 -228q-9 0 -14 6t-5 16l1 413l30 -121v-192q0 -20 1 -44t2.5 -43.5t2.5 -26.5q-3 -3 -7 -5.5
t-11 -2.5z" />
    <glyph glyph-name="paragraph" unicode="&#xb6;" horiz-adv-x="631" 
d="M533 -195q-11 0 -22 11.5t-18 33.5t-7 52v532q0 84 -22 136.5t-68 77t-118 24.5q-62 0 -100.5 -18t-59.5 -47t-28.5 -62t-7.5 -63q0 -68 28 -110t75 -56.5t102 -2.5l-4 -30q-42 -9 -83.5 -1t-75 32.5t-54 66.5t-20.5 100q0 23 5 51.5t18 58t38.5 54t66 40t100.5 15.5
q121 0 179.5 -64.5t58.5 -201.5v-508q0 -37 5 -58t14 -30t21 -12q-2 -10 -7 -15.5t-16 -5.5zM296 -8q-8 0 -12.5 6t-4.5 16l-2 423q0 30 -1.5 52.5t-4.5 34.5q3 3 7 5.5t11 2.5q8 0 12.5 -5.5t4.5 -16.5l2 -423q0 -30 1.5 -52.5t4.5 -34.5q-3 -3 -7 -5.5t-11 -2.5z" />
    <glyph glyph-name="periodcentered" unicode="&#xb7;" horiz-adv-x="228" 
d="M114 211q-13 0 -23.5 10.5t-10.5 23.5q0 14 10.5 24t23.5 10q14 0 24 -10t10 -24q0 -13 -10 -23.5t-24 -10.5z" />
    <glyph glyph-name="cedilla" unicode="&#xb8;" horiz-adv-x="600" 
d="M307 0l-9 -41q39 0 59.5 -19.5t20.5 -50.5q0 -36 -25 -57t-61 -21q-30 0 -48.5 8.5t-29.5 19.5q-1 6 3.5 12.5t8.5 9.5q8 -6 21.5 -14t40.5 -8q25 0 41 11.5t16 36.5q0 22 -16 37t-66 11l14 65h30z" />
    <glyph glyph-name="uni00B9" unicode="&#xb9;" horiz-adv-x="277" 
d="M175 238q-7 0 -10.5 4.5t-3.5 11.5l-2 381v20t-1 17q-18 -12 -41.5 -29t-42.5 -30.5t-24 -13.5q-3 0 -5 1.5t-3 4t-1.5 5t-0.5 4.5q2 2 11.5 8.5t22.5 16t28.5 20t30 21t25.5 17.5q3 2 5 2.5t6 0.5q7 0 11 -4.5t4 -12.5l1 -379q-1 -19 0.5 -35t3.5 -25q-2 -2 -5.5 -4
t-8.5 -2z" />
    <glyph glyph-name="ordmasculine" unicode="&#xba;" horiz-adv-x="358" 
d="M179 357q-68 0 -105.5 46.5t-37.5 129.5t37.5 129t105.5 46t105.5 -46t37.5 -129t-37.5 -129.5t-105.5 -46.5zM179 378q56 0 88 41t32 114t-32 113.5t-88 40.5t-88 -40.5t-32 -113.5t32 -114t88 -41z" />
    <glyph glyph-name="guillemotright" unicode="&#xbb;" horiz-adv-x="611" 
d="M262 438l16 22l296 -204q1 -4 1.5 -9.5t0 -10.5t-1.5 -10l-296 -205l-18 21l284 196v5zM62 438l16 22l296 -204q1 -4 1.5 -9.5t0 -10.5t-1.5 -10l-296 -205l-18 21l284 196v5z" />
    <glyph glyph-name="onequarter" unicode="&#xbc;" horiz-adv-x="889" 
d="M175 238q-7 0 -10.5 4.5t-3.5 11.5l-2 381v20t-1 17q-18 -12 -41.5 -29t-42.5 -30.5t-24 -13.5q-3 0 -5 1.5t-3 4t-1.5 5t-0.5 4.5q2 2 11.5 8.5t22.5 16t28.5 20t30 21t25.5 17.5q3 2 5 2.5t6 0.5q7 0 11 -4.5t4 -12.5l1 -379q-1 -19 0.5 -35t3.5 -25q-2 -2 -5.5 -4
t-8.5 -2zM601 700q8 2 14 -2t6 -12l-454 -698q-8 0 -13 3.5t-7 10.5zM794 61q0 -19 1.5 -35t2.5 -25q-1 -2 -5 -4t-9 -2q-7 0 -10.5 4.5t-3.5 11.5l-2 409l-205 -271h216q20 0 40.5 1t39.5 4q5 -6 4.5 -15t-5.5 -12h-320q-8 7 -6.5 13t4.5 10l228 300q2 2 5.5 4.5t9.5 2.5
t10 -4.5t4 -12.5z" />
    <glyph glyph-name="onehalf" unicode="&#xbd;" horiz-adv-x="871" 
d="M175 238q-7 0 -10.5 4.5t-3.5 11.5l-2 381v20t-1 17q-18 -12 -41.5 -29t-42.5 -30.5t-24 -13.5q-3 0 -5 1.5t-3 4t-1.5 5t-0.5 4.5q2 2 11.5 8.5t22.5 16t28.5 20t30 21t25.5 17.5q3 2 5 2.5t6 0.5q7 0 11 -4.5t4 -12.5l1 -379q-1 -19 0.5 -35t3.5 -25q-2 -2 -5.5 -4
t-8.5 -2zM601 700q8 2 14 -2t6 -12l-454 -698q-8 0 -13 3.5t-7 10.5zM551 0q-5 3 -6 9t-1 13q39 31 75 61t66.5 59.5t53 59.5t35 60.5t12.5 62.5q0 45 -27 78t-82 33q-37 0 -58.5 -15t-31 -34.5t-11.5 -31.5q-5 0 -9.5 2t-7 6.5t-2.5 10.5q0 15 14 34.5t41.5 34t66.5 14.5
q34 0 64.5 -13t50 -41.5t19.5 -74.5q0 -36 -13.5 -70.5t-37.5 -66.5t-55.5 -61.5t-66.5 -57t-70 -53.5q33 0 67 0.5t68 1.5t67.5 1.5t65.5 1.5q2 -1 3 -4.5t1 -7.5t-1 -7.5t-4 -4.5h-286z" />
    <glyph glyph-name="threequarters" unicode="&#xbe;" horiz-adv-x="987" 
d="M182 235q-41 0 -67.5 10t-41.5 24t-21 28t-6 21q0 5 2 9t6.5 6.5t10.5 2.5q2 -10 7.5 -24t18 -26.5t34.5 -21t56 -8.5q62 0 92.5 28t30.5 74q0 43 -23 67.5t-60.5 35.5t-80.5 12v19q46 1 79.5 14t51.5 36t18 53q0 35 -25.5 59.5t-76.5 24.5q-39 0 -62 -14.5t-32.5 -33
t-11.5 -31.5q-6 0 -10 2t-6 5.5t-2 9.5q0 13 12.5 32.5t40.5 35t74 15.5q23 0 45.5 -5.5t41 -17.5t29.5 -32t11 -49q0 -46 -28.5 -73.5t-78.5 -38.5q53 -10 87.5 -38.5t34.5 -85.5q0 -61 -42 -93t-108 -32zM699 700q8 2 14 -2t6 -12l-454 -698q-8 0 -13 3.5t-7 10.5zM892 61
q0 -19 1.5 -35t2.5 -25q-1 -2 -5 -4t-9 -2q-7 0 -10.5 4.5t-3.5 11.5l-2 409l-205 -271h216q20 0 40.5 1t39.5 4q5 -6 4.5 -15t-5.5 -12h-320q-8 7 -6.5 13t4.5 10l228 300q2 2 5.5 4.5t9.5 2.5t10 -4.5t4 -12.5z" />
    <glyph glyph-name="questiondown" unicode="&#xbf;" horiz-adv-x="465" 
d="M301 349v-144q-30 0 -68.5 -12.5t-74 -37.5t-58.5 -64t-23 -92q0 -54 21 -97t63.5 -67.5t106.5 -24.5q44 0 73.5 14t47.5 34t27 40.5t10 33.5q6 0 11 -2.5t8 -7.5t3 -14q0 -21 -20 -51t-61 -52.5t-104 -22.5q-39 0 -77.5 11.5t-70.5 36t-51 65t-19 97.5q0 48 16.5 89
t47 72.5t72 52t91.5 28.5v115h29zM304 524q14 0 24 -10t10 -24q0 -13 -10 -23.5t-24 -10.5q-13 0 -23.5 10.5t-10.5 23.5q0 14 10.5 24t23.5 10z" />
    <glyph glyph-name="Agrave" unicode="&#xc0;" horiz-adv-x="562" 
d="M282 700q9 0 15.5 -4.5t9.5 -12.5l224 -652q4 -10 8 -17.5t8 -12.5q-4 -5 -8 -7t-9 -2q-7 0 -13.5 3.5t-8.5 10.5l-233 680h12l-223 -657q-1 -4 -3 -10t-2 -11q0 -3 0.5 -7t1.5 -7q-4 -1 -7.5 -1.5t-8.5 -0.5q-8 0 -13.5 5t-4.5 13q0 5 2.5 12t3.5 12l227 658q11 8 22 8z
M130 260h305v-26h-305v26zM137 810q4 8 9.5 14t11.5 10.5t13 7.5l129 -97q-1 -4 -4.5 -10t-8.5 -8z" />
    <glyph glyph-name="Aacute" unicode="&#xc1;" horiz-adv-x="562" 
d="M282 700q9 0 15.5 -4.5t9.5 -12.5l224 -652q4 -10 8 -17.5t8 -12.5q-4 -5 -8 -7t-9 -2q-7 0 -13.5 3.5t-8.5 10.5l-233 680h12l-223 -657q-1 -4 -3 -10t-2 -11q0 -3 0.5 -7t1.5 -7q-4 -1 -7.5 -1.5t-8.5 -0.5q-8 0 -13.5 5t-4.5 13q0 5 2.5 12t3.5 12l227 658q11 8 22 8z
M130 260h305v-26h-305v26zM420 810l-150 -83q-4 2 -8 8t-5 10l129 97q7 -3 13.5 -7.5t11.5 -10.5t9 -14z" />
    <glyph glyph-name="Acircumflex" unicode="&#xc2;" horiz-adv-x="562" 
d="M282 700q9 0 15.5 -4.5t9.5 -12.5l224 -652q4 -10 8 -17.5t8 -12.5q-4 -5 -8 -7t-9 -2q-7 0 -13.5 3.5t-8.5 10.5l-233 680h12l-223 -657q-1 -4 -3 -10t-2 -11q0 -3 0.5 -7t1.5 -7q-4 -1 -7.5 -1.5t-8.5 -0.5q-8 0 -13.5 5t-4.5 13q0 5 2.5 12t3.5 12l227 658q11 8 22 8z
M130 260h305v-26h-305v26zM297 840l115 -97q-2 -4 -6.5 -9t-9.5 -7l-116 78l-117 -78q-4 2 -9 7t-7 9l115 97q6 1 12 1.5t11.5 0t11.5 -1.5z" />
    <glyph glyph-name="Atilde" unicode="&#xc3;" horiz-adv-x="562" 
d="M282 700q9 0 15.5 -4.5t9.5 -12.5l224 -652q4 -10 8 -17.5t8 -12.5q-4 -5 -8 -7t-9 -2q-7 0 -13.5 3.5t-8.5 10.5l-233 680h12l-223 -657q-1 -4 -3 -10t-2 -11q0 -3 0.5 -7t1.5 -7q-4 -1 -7.5 -1.5t-8.5 -0.5q-8 0 -13.5 5t-4.5 13q0 5 2.5 12t3.5 12l227 658q11 8 22 8z
M130 260h305v-26h-305v26zM409 805q-7 -25 -26 -41t-46 -16q-24 0 -43.5 10t-37 20t-37.5 10q-19 0 -32.5 -10t-19.5 -32q-5 -1 -10 2.5t-9 7.5q8 32 27.5 47.5t46.5 15.5q25 0 43.5 -10t36.5 -20t40 -10q20 0 29 9.5t18 25.5q7 0 11.5 -2t8.5 -7z" />
    <glyph glyph-name="Adieresis" unicode="&#xc4;" horiz-adv-x="562" 
d="M282 700q9 0 15.5 -4.5t9.5 -12.5l224 -652q4 -10 8 -17.5t8 -12.5q-4 -5 -8 -7t-9 -2q-7 0 -13.5 3.5t-8.5 10.5l-233 680h12l-223 -657q-1 -4 -3 -10t-2 -11q0 -3 0.5 -7t1.5 -7q-4 -1 -7.5 -1.5t-8.5 -0.5q-8 0 -13.5 5t-4.5 13q0 5 2.5 12t3.5 12l227 658q11 8 22 8z
M130 260h305v-26h-305v26zM203 760q-13 0 -23.5 10.5t-10.5 23.5q0 14 10.5 24t23.5 10q14 0 24 -10t10 -24q0 -13 -10 -23.5t-24 -10.5zM363 760q-13 0 -23.5 10.5t-10.5 23.5q0 14 10.5 24t23.5 10q14 0 24 -10t10 -24q0 -13 -10 -23.5t-24 -10.5z" />
    <glyph glyph-name="Aring" unicode="&#xc5;" horiz-adv-x="562" 
d="M282 700q9 0 15.5 -4.5t9.5 -12.5l224 -652q4 -10 8 -17.5t8 -12.5q-4 -5 -8 -7t-9 -2q-7 0 -13.5 3.5t-8.5 10.5l-233 680h12l-223 -657q-1 -4 -3 -10t-2 -11q0 -3 0.5 -7t1.5 -7q-4 -1 -7.5 -1.5t-8.5 -0.5q-8 0 -13.5 5t-4.5 13q0 5 2.5 12t3.5 12l227 658q11 8 22 8z
M130 260h305v-26h-305v26zM284 894q36 0 58 -20.5t22 -55.5q-1 -37 -23.5 -58.5t-60.5 -21.5q-36 0 -58 21t-22 55q0 37 23.5 58.5t60.5 21.5zM282 872q-25 0 -40.5 -15t-15.5 -41q0 -25 15.5 -40.5t40.5 -15.5q26 0 41 15.5t15 40.5q0 26 -15 41t-41 15z" />
    <glyph glyph-name="AE" unicode="&#xc6;" horiz-adv-x="803" 
d="M45 -8q-8 0 -13.5 5t-4.5 13q0 14 6 24l354 654h16h16h16h278q5 0 7 -3.5t1 -8.5t-4 -9t-7 -5h-146.5h-147.5l2 -637q51 0 102 0.5t101.5 0.5h101.5q4 -1 6 -5.5t2 -9t-1.5 -8t-6.5 -3.5h-317q-8 0 -12.5 6t-4.5 16l-2 578v18.5t-1 15.5l-324 -605q-2 -4 -3.5 -10
t-1.5 -11q0 -3 0.5 -7t1.5 -7q-4 -1 -7 -1.5t-7 -0.5zM166 234v26h233v-26h-233zM411 354v26h280q2 -7 2 -13t-2 -13h-280z" />
    <glyph glyph-name="Ccedilla" unicode="&#xc7;" horiz-adv-x="576" 
d="M516 99q0 -16 -15 -35.5t-42 -36.5t-63 -28t-77 -11q-118 0 -183.5 90.5t-65.5 265.5q0 176 65.5 266t183.5 90q40 0 72.5 -7.5t55.5 -20t35.5 -27t12.5 -28.5q0 -8 -8 -13t-17 -1q-9 30 -49 49.5t-102 19.5q-102 0 -159.5 -83t-57.5 -245t57.5 -245t159.5 -83
q37 0 73 12t63.5 34t36.5 52q7 0 12 -1t8.5 -4t3.5 -10zM329 0l-9 -41q39 0 59.5 -19.5t20.5 -50.5q0 -36 -25 -57t-61 -21q-30 0 -48.5 8.5t-29.5 19.5q-1 6 3.5 12.5t8.5 9.5q8 -6 21.5 -14t40.5 -8q25 0 41 11.5t16 36.5q0 22 -16 37t-66 11l14 65h30z" />
    <glyph glyph-name="Egrave" unicode="&#xc8;" horiz-adv-x="523" 
d="M126 0q-8 0 -12.5 6t-4.5 16l-2 578q0 30 -1.5 49t-4.5 31q3 4 7 6t11 2h314q5 0 7 -3.5t1 -8.5t-4 -9t-7 -5h-146.5h-147.5l2 -637q51 0 102 0.5t101.5 0.5h101.5q4 -1 6 -5.5t2 -9t-1.5 -8t-6.5 -3.5h-317zM131 354v26h280q2 -7 2 -13t-2 -13h-280zM133 810q4 8 9.5 14
t11.5 10.5t13 7.5l129 -97q-1 -4 -4.5 -10t-8.5 -8z" />
    <glyph glyph-name="Eacute" unicode="&#xc9;" horiz-adv-x="523" 
d="M126 0q-8 0 -12.5 6t-4.5 16l-2 578q0 30 -1.5 49t-4.5 31q3 4 7 6t11 2h314q5 0 7 -3.5t1 -8.5t-4 -9t-7 -5h-146.5h-147.5l2 -637q51 0 102 0.5t101.5 0.5h101.5q4 -1 6 -5.5t2 -9t-1.5 -8t-6.5 -3.5h-317zM131 354v26h280q2 -7 2 -13t-2 -13h-280zM416 810l-150 -83
q-4 2 -8 8t-5 10l129 97q7 -3 13.5 -7.5t11.5 -10.5t9 -14z" />
    <glyph glyph-name="Ecircumflex" unicode="&#xca;" horiz-adv-x="523" 
d="M126 0q-8 0 -12.5 6t-4.5 16l-2 578q0 30 -1.5 49t-4.5 31q3 4 7 6t11 2h314q5 0 7 -3.5t1 -8.5t-4 -9t-7 -5h-146.5h-147.5l2 -637q51 0 102 0.5t101.5 0.5h101.5q4 -1 6 -5.5t2 -9t-1.5 -8t-6.5 -3.5h-317zM131 354v26h280q2 -7 2 -13t-2 -13h-280zM293 840l115 -97
q-2 -4 -6.5 -9t-9.5 -7l-116 78l-117 -78q-4 2 -9 7t-7 9l115 97q6 1 12 1.5t11.5 0t11.5 -1.5z" />
    <glyph glyph-name="Edieresis" unicode="&#xcb;" horiz-adv-x="523" 
d="M126 0q-8 0 -12.5 6t-4.5 16l-2 578q0 30 -1.5 49t-4.5 31q3 4 7 6t11 2h314q5 0 7 -3.5t1 -8.5t-4 -9t-7 -5h-146.5h-147.5l2 -637q51 0 102 0.5t101.5 0.5h101.5q4 -1 6 -5.5t2 -9t-1.5 -8t-6.5 -3.5h-317zM131 354v26h280q2 -7 2 -13t-2 -13h-280zM199 760
q-13 0 -23.5 10.5t-10.5 23.5q0 14 10.5 24t23.5 10q14 0 24 -10t10 -24q0 -13 -10 -23.5t-24 -10.5zM359 760q-13 0 -23.5 10.5t-10.5 23.5q0 14 10.5 24t23.5 10q14 0 24 -10t10 -24q0 -13 -10 -23.5t-24 -10.5z" />
    <glyph glyph-name="Igrave" unicode="&#xcc;" horiz-adv-x="245" 
d="M126 -8q-8 0 -12.5 6t-4.5 16l-2 586q0 30 -1.5 52.5t-4.5 34.5q3 3 7 5.5t11 2.5q8 0 13.5 -5.5t5.5 -16.5v-586q0 -30 1.5 -52.5t4.5 -34.5q-3 -3 -7 -5.5t-11 -2.5zM-24 810q4 8 9.5 14t11.5 10.5t13 7.5l129 -97q-1 -4 -4.5 -10t-8.5 -8z" />
    <glyph glyph-name="Iacute" unicode="&#xcd;" horiz-adv-x="245" 
d="M126 -8q-8 0 -12.5 6t-4.5 16l-2 586q0 30 -1.5 52.5t-4.5 34.5q3 3 7 5.5t11 2.5q8 0 13.5 -5.5t5.5 -16.5v-586q0 -30 1.5 -52.5t4.5 -34.5q-3 -3 -7 -5.5t-11 -2.5zM259 810l-150 -83q-4 2 -8 8t-5 10l129 97q7 -3 13.5 -7.5t11.5 -10.5t9 -14z" />
    <glyph glyph-name="Icircumflex" unicode="&#xce;" horiz-adv-x="245" 
d="M126 -8q-8 0 -12.5 6t-4.5 16l-2 586q0 30 -1.5 52.5t-4.5 34.5q3 3 7 5.5t11 2.5q8 0 13.5 -5.5t5.5 -16.5v-586q0 -30 1.5 -52.5t4.5 -34.5q-3 -3 -7 -5.5t-11 -2.5zM136 840l115 -97q-2 -4 -6.5 -9t-9.5 -7l-116 78l-117 -78q-4 2 -9 7t-7 9l115 97q6 1 12 1.5t11.5 0
t11.5 -1.5z" />
    <glyph glyph-name="Idieresis" unicode="&#xcf;" horiz-adv-x="245" 
d="M126 -8q-8 0 -12.5 6t-4.5 16l-2 586q0 30 -1.5 52.5t-4.5 34.5q3 3 7 5.5t11 2.5q8 0 13.5 -5.5t5.5 -16.5v-586q0 -30 1.5 -52.5t4.5 -34.5q-3 -3 -7 -5.5t-11 -2.5zM42 760q-13 0 -23.5 10.5t-10.5 23.5q0 14 10.5 24t23.5 10q14 0 24 -10t10 -24q0 -13 -10 -23.5
t-24 -10.5zM202 760q-13 0 -23.5 10.5t-10.5 23.5q0 14 10.5 24t23.5 10q14 0 24 -10t10 -24q0 -13 -10 -23.5t-24 -10.5z" />
    <glyph glyph-name="Eth" unicode="&#xd0;" horiz-adv-x="619" 
d="M27 361h283q6 -12 0 -25h-283q-6 13 0 25zM126 0q-8 0 -12.5 6t-4.5 16l-2 578q0 30 -1.5 56.5t-4.5 38.5q26 2 62.5 3t72 1.5t59.5 0.5q126 0 195 -86.5t69 -269.5t-69 -263.5t-195 -80.5h-169zM138 28h157q73 0 124.5 32t79.5 101.5t28 182.5q0 170 -61.5 249
t-170.5 79h-159z" />
    <glyph glyph-name="Ntilde" unicode="&#xd1;" horiz-adv-x="667" 
d="M121 -8q-7 0 -11 2.5t-7 5.5q3 12 4.5 34.5t1.5 52.5l-2 503q0 30 -1.5 57.5t-4.5 39.5q6 5 13 5.5t12.5 -1t6.5 -3.5q28 -42 67 -103.5t83 -132.5t89.5 -143.5t87 -139t75.5 -116.5l-2 547q0 30 -1.5 52.5t-4.5 34.5q3 3 7 5.5t11 2.5q8 0 12.5 -5.5t4.5 -16.5l2 -586
q0 -30 0.5 -52.5t1.5 -34.5q-2 -3 -7 -4.5t-9.5 -1.5t-7.5 1q-17 24 -46 68t-66 101t-77 120.5t-79.5 126.5t-75 119.5t-62.5 98.5l2 -615q0 -10 -4.5 -16t-12.5 -6zM461 805q-7 -25 -26 -41t-46 -16q-24 0 -43.5 10t-37 20t-37.5 10q-19 0 -32.5 -10t-19.5 -32
q-5 -1 -10 2.5t-9 7.5q8 32 27.5 47.5t46.5 15.5q25 0 43.5 -10t36.5 -20t40 -10q20 0 29 9.5t18 25.5q7 0 11.5 -2t8.5 -7z" />
    <glyph glyph-name="Ograve" unicode="&#xd2;" horiz-adv-x="638" 
d="M319 -12q-118 0 -183.5 86.5t-65.5 269.5t65.5 269.5t183.5 86.5t183.5 -86.5t65.5 -269.5t-65.5 -269.5t-183.5 -86.5zM319 16q102 0 159.5 79.5t57.5 248.5q0 170 -57.5 249t-159.5 79t-159.5 -79t-57.5 -249q0 -169 57.5 -248.5t159.5 -79.5zM237 810q4 8 9.5 14
t11.5 10.5t13 7.5l129 -97q-1 -4 -4.5 -10t-8.5 -8z" />
    <glyph glyph-name="Oacute" unicode="&#xd3;" horiz-adv-x="638" 
d="M319 -12q-118 0 -183.5 86.5t-65.5 269.5t65.5 269.5t183.5 86.5t183.5 -86.5t65.5 -269.5t-65.5 -269.5t-183.5 -86.5zM319 16q102 0 159.5 79.5t57.5 248.5q0 170 -57.5 249t-159.5 79t-159.5 -79t-57.5 -249q0 -169 57.5 -248.5t159.5 -79.5zM459 810l-150 -83
q-4 2 -8 8t-5 10l129 97q7 -3 13.5 -7.5t11.5 -10.5t9 -14z" />
    <glyph glyph-name="Ocircumflex" unicode="&#xd4;" horiz-adv-x="638" 
d="M319 -12q-118 0 -183.5 86.5t-65.5 269.5t65.5 269.5t183.5 86.5t183.5 -86.5t65.5 -269.5t-65.5 -269.5t-183.5 -86.5zM319 16q102 0 159.5 79.5t57.5 248.5q0 170 -57.5 249t-159.5 79t-159.5 -79t-57.5 -249q0 -169 57.5 -248.5t159.5 -79.5zM336 840l115 -97
q-2 -4 -6.5 -9t-9.5 -7l-116 78l-117 -78q-4 2 -9 7t-7 9l115 97q6 1 12 1.5t11.5 0t11.5 -1.5z" />
    <glyph glyph-name="Otilde" unicode="&#xd5;" horiz-adv-x="638" 
d="M319 -12q-118 0 -183.5 86.5t-65.5 269.5t65.5 269.5t183.5 86.5t183.5 -86.5t65.5 -269.5t-65.5 -269.5t-183.5 -86.5zM319 16q102 0 159.5 79.5t57.5 248.5q0 170 -57.5 249t-159.5 79t-159.5 -79t-57.5 -249q0 -169 57.5 -248.5t159.5 -79.5zM448 805q-7 -25 -26 -41
t-46 -16q-24 0 -43.5 10t-37 20t-37.5 10q-19 0 -32.5 -10t-19.5 -32q-5 -1 -10 2.5t-9 7.5q8 32 27.5 47.5t46.5 15.5q25 0 43.5 -10t36.5 -20t40 -10q20 0 29 9.5t18 25.5q7 0 11.5 -2t8.5 -7z" />
    <glyph glyph-name="Odieresis" unicode="&#xd6;" horiz-adv-x="638" 
d="M319 -12q-118 0 -183.5 86.5t-65.5 269.5t65.5 269.5t183.5 86.5t183.5 -86.5t65.5 -269.5t-65.5 -269.5t-183.5 -86.5zM319 16q102 0 159.5 79.5t57.5 248.5q0 170 -57.5 249t-159.5 79t-159.5 -79t-57.5 -249q0 -169 57.5 -248.5t159.5 -79.5zM242 760
q-13 0 -23.5 10.5t-10.5 23.5q0 14 10.5 24t23.5 10q14 0 24 -10t10 -24q0 -13 -10 -23.5t-24 -10.5zM402 760q-13 0 -23.5 10.5t-10.5 23.5q0 14 10.5 24t23.5 10q14 0 24 -10t10 -24q0 -13 -10 -23.5t-24 -10.5z" />
    <glyph glyph-name="multiply" unicode="&#xd7;" horiz-adv-x="486" 
d="M101 516l305 -305q-6 -15 -21 -21l-305 305q6 14 21 21zM406 496l-305 -306q-15 7 -20 21l304 306q15 -6 21 -21z" />
    <glyph glyph-name="Oslash" unicode="&#xd8;" horiz-adv-x="618" 
d="M88 -1l408 702q15 0 21 -13l-407 -701q-16 0 -22 12zM319 -12q-118 0 -183.5 86.5t-65.5 269.5t65.5 269.5t183.5 86.5t183.5 -86.5t65.5 -269.5t-65.5 -269.5t-183.5 -86.5zM319 16q102 0 159.5 79.5t57.5 248.5q0 170 -57.5 249t-159.5 79t-159.5 -79t-57.5 -249
q0 -169 57.5 -248.5t159.5 -79.5z" />
    <glyph glyph-name="Ugrave" unicode="&#xd9;" horiz-adv-x="642" 
d="M547 673v-369q0 -156 -57.5 -236t-169.5 -80t-165.5 76.5t-53.5 239.5v296q0 30 -1.5 52.5t-4.5 34.5q3 3 7 5.5t11 2.5q8 0 12.5 -5.5t4.5 -16.5v-369q0 -148 46.5 -218t143.5 -70q98 0 148 73t50 215v296q0 30 -1.5 52.5t-4.5 34.5q3 3 7 5.5t11 2.5q8 0 12.5 -5.5
t4.5 -16.5zM178 810q4 8 9.5 14t11.5 10.5t13 7.5l129 -97q-1 -4 -4.5 -10t-8.5 -8z" />
    <glyph glyph-name="Uacute" unicode="&#xda;" horiz-adv-x="642" 
d="M547 673v-369q0 -156 -57.5 -236t-169.5 -80t-165.5 76.5t-53.5 239.5v296q0 30 -1.5 52.5t-4.5 34.5q3 3 7 5.5t11 2.5q8 0 12.5 -5.5t4.5 -16.5v-369q0 -148 46.5 -218t143.5 -70q98 0 148 73t50 215v296q0 30 -1.5 52.5t-4.5 34.5q3 3 7 5.5t11 2.5q8 0 12.5 -5.5
t4.5 -16.5zM461 810l-150 -83q-4 2 -8 8t-5 10l129 97q7 -3 13.5 -7.5t11.5 -10.5t9 -14z" />
    <glyph glyph-name="Ucircumflex" unicode="&#xdb;" horiz-adv-x="642" 
d="M547 673v-369q0 -156 -57.5 -236t-169.5 -80t-165.5 76.5t-53.5 239.5v296q0 30 -1.5 52.5t-4.5 34.5q3 3 7 5.5t11 2.5q8 0 12.5 -5.5t4.5 -16.5v-369q0 -148 46.5 -218t143.5 -70q98 0 148 73t50 215v296q0 30 -1.5 52.5t-4.5 34.5q3 3 7 5.5t11 2.5q8 0 12.5 -5.5
t4.5 -16.5zM338 840l115 -97q-2 -4 -6.5 -9t-9.5 -7l-116 78l-117 -78q-4 2 -9 7t-7 9l115 97q6 1 12 1.5t11.5 0t11.5 -1.5z" />
    <glyph glyph-name="Udieresis" unicode="&#xdc;" horiz-adv-x="642" 
d="M547 673v-369q0 -156 -57.5 -236t-169.5 -80t-165.5 76.5t-53.5 239.5v296q0 30 -1.5 52.5t-4.5 34.5q3 3 7 5.5t11 2.5q8 0 12.5 -5.5t4.5 -16.5v-369q0 -148 46.5 -218t143.5 -70q98 0 148 73t50 215v296q0 30 -1.5 52.5t-4.5 34.5q3 3 7 5.5t11 2.5q8 0 12.5 -5.5
t4.5 -16.5zM244 760q-13 0 -23.5 10.5t-10.5 23.5q0 14 10.5 24t23.5 10q14 0 24 -10t10 -24q0 -13 -10 -23.5t-24 -10.5zM404 760q-13 0 -23.5 10.5t-10.5 23.5q0 14 10.5 24t23.5 10q14 0 24 -10t10 -24q0 -13 -10 -23.5t-24 -10.5z" />
    <glyph glyph-name="Yacute" unicode="&#xdd;" horiz-adv-x="512" 
d="M260 227q-4 1 -7 2t-5.5 3t-3.5 4l-203 425q-4 8 -10.5 16t-10.5 12q5 5 10.5 8t12.5 3t12 -3.5t8 -10.5l203 -433h-15l195 402q10 21 10 28v8t-2 7q4 2 7 2h7q9 0 14.5 -5.5t5.5 -16.5q0 -4 -2 -9.5t-6 -13.5l-208 -419zM272 249l1 -162q0 -31 1.5 -53t4.5 -34
q-3 -3 -7 -5.5t-11 -2.5q-8 0 -12.5 6t-4.5 16l-1 236zM410 810l-150 -83q-4 2 -8 8t-5 10l129 97q7 -3 13.5 -7.5t11.5 -10.5t9 -14z" />
    <glyph glyph-name="Thorn" unicode="&#xde;" horiz-adv-x="534" 
d="M169 152h-24.5t-21.5 1l-7 26q10 -1 22.5 -1.5t41.5 -0.5q88 0 146 20t87 62t29 109q0 63 -26 102t-80.5 56.5t-141.5 17.5h-23t-29 -0.5t-20 -1.5l1 26q7 1 22 1t31.5 0.5t26.5 0.5q146 0 208.5 -50.5t62.5 -150.5q0 -113 -75 -165t-230 -52zM126 -8q-8 0 -12.5 6
t-4.5 16l-2 586q0 30 -1.5 52.5t-4.5 34.5q3 3 7 5.5t11 2.5q8 0 12.5 -5.5t4.5 -16.5l2 -586q0 -30 1.5 -52.5t4.5 -34.5q-3 -3 -7 -5.5t-11 -2.5z" />
    <glyph glyph-name="germandbls" unicode="&#xdf;" horiz-adv-x="589" 
d="M110 -8q-9 0 -11 5.5t-2 16.5v442q0 146 52.5 209t150.5 63q71 0 113.5 -32t42.5 -103q0 -44 -14.5 -71.5t-36.5 -46t-44 -33t-36.5 -30.5t-14.5 -41q0 -34 30 -56.5t76 -47.5q32 -17 61 -36t47.5 -46t18.5 -67q0 -30 -14.5 -60t-49.5 -50t-98 -20q-57 0 -91.5 17.5
t-50 47.5t-15.5 65q0 8 1.5 15.5t6 14t14.5 8.5q6 2 10 1.5t8 -1.5q-3 -7 -4.5 -19t-1.5 -23q0 -37 17 -58.5t45 -30.5t59 -9q56 0 94 25t38 75q0 35 -17.5 57t-43.5 37.5t-52 28.5q-43 22 -69.5 42t-38.5 41t-12 45q0 30 14.5 50t36.5 36t44 33t36.5 41.5t14.5 62.5
q0 39 -17 63t-46 35.5t-66 11.5q-50 0 -83 -19t-52 -53t-26.5 -80.5t-7.5 -101.5v-198.5v-124.5t0.5 -70t2 -34.5t2.5 -18.5q-1 -1 -6.5 -4.5t-14.5 -3.5z" />
    <glyph glyph-name="agrave" unicode="&#xe0;" horiz-adv-x="534" 
d="M473 -10q-35 0 -51 23t-16 60v133l14 -12q-23 -65 -62.5 -111.5t-87.5 -70.5t-97 -24q-60 0 -89 33t-29 81q0 36 17 66t52 53.5t88 37.5q44 11 96 14.5t98 -1.5v26q0 93 -39 139.5t-126 46.5q-29 0 -61 -7t-53.5 -25.5t-21.5 -54.5q0 -19 12.5 -41t37.5 -28
q-6 -10 -14 -13t-13 -3q-22 0 -37 27.5t-15 55.5q0 59 46.5 88t124.5 29q97 0 143 -55t46 -159v-227q0 -53 38 -53q10 0 21 7t17 20q5 -6 7 -11t2 -10q0 -16 -15.5 -25t-32.5 -9zM179 15q38 0 77.5 20.5t73 54.5t54.5 76t22 85q-27 3 -62.5 1t-70 -7t-59.5 -13
q-61 -18 -94 -49.5t-33 -78.5q0 -34 20.5 -61.5t71.5 -27.5zM127 689q7 5 13.5 7.5t14.5 4t17 1.5l91 -140q-1 -4 -10.5 -5t-14.5 0z" />
    <glyph glyph-name="aacute" unicode="&#xe1;" horiz-adv-x="534" 
d="M473 -10q-35 0 -51 23t-16 60v133l14 -12q-23 -65 -62.5 -111.5t-87.5 -70.5t-97 -24q-60 0 -89 33t-29 81q0 36 17 66t52 53.5t88 37.5q44 11 96 14.5t98 -1.5v26q0 93 -39 139.5t-126 46.5q-29 0 -61 -7t-53.5 -25.5t-21.5 -54.5q0 -19 12.5 -41t37.5 -28
q-6 -10 -14 -13t-13 -3q-22 0 -37 27.5t-15 55.5q0 59 46.5 88t124.5 29q97 0 143 -55t46 -159v-227q0 -53 38 -53q10 0 21 7t17 20q5 -6 7 -11t2 -10q0 -16 -15.5 -25t-32.5 -9zM179 15q38 0 77.5 20.5t73 54.5t54.5 76t22 85q-27 3 -62.5 1t-70 -7t-59.5 -13
q-61 -18 -94 -49.5t-33 -78.5q0 -34 20.5 -61.5t71.5 -27.5zM366 689l-111 -132q-5 -1 -14 0t-11 5l91 140q10 0 17.5 -1.5t14 -4t13.5 -7.5z" />
    <glyph glyph-name="acircumflex" unicode="&#xe2;" horiz-adv-x="534" 
d="M473 -10q-35 0 -51 23t-16 60v133l14 -12q-23 -65 -62.5 -111.5t-87.5 -70.5t-97 -24q-60 0 -89 33t-29 81q0 36 17 66t52 53.5t88 37.5q44 11 96 14.5t98 -1.5v26q0 93 -39 139.5t-126 46.5q-29 0 -61 -7t-53.5 -25.5t-21.5 -54.5q0 -19 12.5 -41t37.5 -28
q-6 -10 -14 -13t-13 -3q-22 0 -37 27.5t-15 55.5q0 59 46.5 88t124.5 29q97 0 143 -55t46 -159v-227q0 -53 38 -53q10 0 21 7t17 20q5 -6 7 -11t2 -10q0 -16 -15.5 -25t-32.5 -9zM179 15q38 0 77.5 20.5t73 54.5t54.5 76t22 85q-27 3 -62.5 1t-70 -7t-59.5 -13
q-61 -18 -94 -49.5t-33 -78.5q0 -34 20.5 -61.5t71.5 -27.5zM150 556q-4 0 -13.5 2t-11.5 6l110 118q6 1 12 1.5t11.5 0t11.5 -1.5l110 -118q-4 -4 -11.5 -6t-12.5 -2l-103 92z" />
    <glyph glyph-name="atilde" unicode="&#xe3;" horiz-adv-x="534" 
d="M473 -10q-35 0 -51 23t-16 60v133l14 -12q-23 -65 -62.5 -111.5t-87.5 -70.5t-97 -24q-60 0 -89 33t-29 81q0 36 17 66t52 53.5t88 37.5q44 11 96 14.5t98 -1.5v26q0 93 -39 139.5t-126 46.5q-29 0 -61 -7t-53.5 -25.5t-21.5 -54.5q0 -19 12.5 -41t37.5 -28
q-6 -10 -14 -13t-13 -3q-22 0 -37 27.5t-15 55.5q0 59 46.5 88t124.5 29q97 0 143 -55t46 -159v-227q0 -53 38 -53q10 0 21 7t17 20q5 -6 7 -11t2 -10q0 -16 -15.5 -25t-32.5 -9zM179 15q38 0 77.5 20.5t73 54.5t54.5 76t22 85q-27 3 -62.5 1t-70 -7t-59.5 -13
q-61 -18 -94 -49.5t-33 -78.5q0 -34 20.5 -61.5t71.5 -27.5zM388 651q-6 -29 -25.5 -49t-48.5 -20q-27 0 -45 12.5t-34 25.5t-40 13q-19 0 -36 -11.5t-23 -34.5q-5 -1 -10 2.5t-9 7.5q8 34 31 50.5t50 16.5q28 0 45.5 -13t34.5 -25.5t41 -12.5q21 0 31.5 13.5t17.5 33.5
q7 0 11.5 -2t8.5 -7z" />
    <glyph glyph-name="adieresis" unicode="&#xe4;" horiz-adv-x="534" 
d="M473 -10q-35 0 -51 23t-16 60v133l14 -12q-23 -65 -62.5 -111.5t-87.5 -70.5t-97 -24q-60 0 -89 33t-29 81q0 36 17 66t52 53.5t88 37.5q44 11 96 14.5t98 -1.5v26q0 93 -39 139.5t-126 46.5q-29 0 -61 -7t-53.5 -25.5t-21.5 -54.5q0 -19 12.5 -41t37.5 -28
q-6 -10 -14 -13t-13 -3q-22 0 -37 27.5t-15 55.5q0 59 46.5 88t124.5 29q97 0 143 -55t46 -159v-227q0 -53 38 -53q10 0 21 7t17 20q5 -6 7 -11t2 -10q0 -16 -15.5 -25t-32.5 -9zM179 15q38 0 77.5 20.5t73 54.5t54.5 76t22 85q-27 3 -62.5 1t-70 -7t-59.5 -13
q-61 -18 -94 -49.5t-33 -78.5q0 -34 20.5 -61.5t71.5 -27.5zM176 587q-13 0 -23.5 10.5t-10.5 23.5q0 14 10.5 24t23.5 10q14 0 24 -10t10 -24q0 -13 -10 -23.5t-24 -10.5zM336 587q-13 0 -23.5 10.5t-10.5 23.5q0 14 10.5 24t23.5 10q14 0 24 -10t10 -24q0 -13 -10 -23.5
t-24 -10.5z" />
    <glyph glyph-name="aring" unicode="&#xe5;" horiz-adv-x="534" 
d="M473 -10q-35 0 -51 23t-16 60v133l14 -12q-23 -65 -62.5 -111.5t-87.5 -70.5t-97 -24q-60 0 -89 33t-29 81q0 36 17 66t52 53.5t88 37.5q44 11 96 14.5t98 -1.5v26q0 93 -39 139.5t-126 46.5q-29 0 -61 -7t-53.5 -25.5t-21.5 -54.5q0 -19 12.5 -41t37.5 -28
q-6 -10 -14 -13t-13 -3q-22 0 -37 27.5t-15 55.5q0 59 46.5 88t124.5 29q97 0 143 -55t46 -159v-227q0 -53 38 -53q10 0 21 7t17 20q5 -6 7 -11t2 -10q0 -16 -15.5 -25t-32.5 -9zM179 15q38 0 77.5 20.5t73 54.5t54.5 76t22 85q-27 3 -62.5 1t-70 -7t-59.5 -13
q-61 -18 -94 -49.5t-33 -78.5q0 -34 20.5 -61.5t71.5 -27.5zM257 706q36 0 58 -20.5t22 -55.5q-1 -37 -23.5 -58.5t-60.5 -21.5q-36 0 -58 21t-22 55q0 37 23.5 58.5t60.5 21.5zM255 684q-25 0 -40.5 -15t-15.5 -41q0 -25 15.5 -40.5t40.5 -15.5q26 0 41 15.5t15 40.5
q0 26 -15 41t-41 15z" />
    <glyph glyph-name="ae" unicode="&#xe6;" horiz-adv-x="849" 
d="M173 -12q-60 0 -89 33t-29 81q0 36 17 66t52 53.5t88 37.5q44 11 96 14.5t98 -1.5v26q0 93 -39 139.5t-126 46.5q-29 0 -61 -7t-53.5 -25.5t-21.5 -54.5q0 -19 12.5 -41t37.5 -28q-6 -10 -14 -13t-13 -3q-22 0 -37 27.5t-15 55.5q0 59 46.5 88t124.5 29q79 0 124 -36
t59 -107l-5 1q23 68 74.5 105t128.5 37q50 0 86 -16t56 -46.5t20 -74.5q0 -76 -61 -113.5t-176 -37.5q-36 0 -64 3t-52 7q3 -83 29.5 -130.5t68.5 -67t88 -19.5q52 0 97.5 23t58.5 75q9 -4 13 -13t-5 -30q-19 -43 -64.5 -63.5t-102.5 -20.5q-86 0 -141 48t-70 142l6 -1
q-24 -60 -63 -102.5t-85.5 -64.5t-93.5 -22zM179 15q37 0 75 19t70.5 50.5t54.5 71t26 81.5v15v9l7 -11q-26 4 -62.5 2.5t-73 -7t-62.5 -13.5q-61 -18 -94 -49.5t-33 -78.5q0 -34 20.5 -61.5t71.5 -27.5zM565 249q47 0 83.5 8t61 23.5t37 39.5t12.5 55q0 43 -20 66.5
t-50.5 33.5t-62.5 10q-81 0 -133.5 -55t-55.5 -171q29 -4 64.5 -7t63.5 -3z" />
    <glyph glyph-name="ccedilla" unicode="&#xe7;" horiz-adv-x="499" 
d="M265 -12q-97 0 -154.5 64t-57.5 191q0 125 59 197t165 72q72 0 114.5 -33.5t42.5 -91.5q0 -30 -11.5 -49t-31.5 -19q-7 0 -13.5 3t-12.5 13q20 0 28.5 15.5t8.5 36.5q0 34 -18.5 56t-48 32.5t-63.5 10.5q-80 0 -133.5 -59t-53.5 -180q0 -88 27 -138.5t69 -71t87 -20.5
q36 0 68.5 11.5t57 37.5t33.5 69q9 -4 13 -12.5t-5 -30.5q-19 -53 -64 -78.5t-106 -25.5zM281 0l-9 -41q39 0 59.5 -19.5t20.5 -50.5q0 -36 -25 -57t-61 -21q-30 0 -48.5 8.5t-29.5 19.5q-1 6 3.5 12.5t8.5 9.5q8 -6 21.5 -14t40.5 -8q25 0 41 11.5t16 36.5q0 22 -16 37
t-66 11l14 65h30z" />
    <glyph glyph-name="egrave" unicode="&#xe8;" horiz-adv-x="497" 
d="M268 -12q-100 0 -157.5 64t-57.5 191q0 124 57 196.5t166 72.5q50 0 86 -16t56 -46.5t20 -74.5q0 -76 -61 -113.5t-176 -37.5q-43 0 -74.5 4.5l-59.5 8.5v25q29 -6 71.5 -9.5t74.5 -3.5q47 0 83.5 8t61 23.5t37 39.5t12.5 55q0 43 -20 66.5t-50.5 33.5t-62.5 10
q-83 0 -136 -58t-53 -180q0 -88 26.5 -138t69.5 -71t90 -21q52 0 97.5 23t58.5 75q9 -4 13 -13t-5 -30q-19 -43 -64.5 -63.5t-102.5 -20.5zM142 689q7 5 13.5 7.5t14.5 4t17 1.5l91 -140q-1 -4 -10.5 -5t-14.5 0z" />
    <glyph glyph-name="eacute" unicode="&#xe9;" horiz-adv-x="497" 
d="M268 -12q-100 0 -157.5 64t-57.5 191q0 124 57 196.5t166 72.5q50 0 86 -16t56 -46.5t20 -74.5q0 -76 -61 -113.5t-176 -37.5q-43 0 -74.5 4.5l-59.5 8.5v25q29 -6 71.5 -9.5t74.5 -3.5q47 0 83.5 8t61 23.5t37 39.5t12.5 55q0 43 -20 66.5t-50.5 33.5t-62.5 10
q-83 0 -136 -58t-53 -180q0 -88 26.5 -138t69.5 -71t90 -21q52 0 97.5 23t58.5 75q9 -4 13 -13t-5 -30q-19 -43 -64.5 -63.5t-102.5 -20.5zM381 689l-111 -132q-5 -1 -14 0t-11 5l91 140q10 0 17.5 -1.5t14 -4t13.5 -7.5z" />
    <glyph glyph-name="ecircumflex" unicode="&#xea;" horiz-adv-x="497" 
d="M268 -12q-100 0 -157.5 64t-57.5 191q0 124 57 196.5t166 72.5q50 0 86 -16t56 -46.5t20 -74.5q0 -76 -61 -113.5t-176 -37.5q-43 0 -74.5 4.5l-59.5 8.5v25q29 -6 71.5 -9.5t74.5 -3.5q47 0 83.5 8t61 23.5t37 39.5t12.5 55q0 43 -20 66.5t-50.5 33.5t-62.5 10
q-83 0 -136 -58t-53 -180q0 -88 26.5 -138t69.5 -71t90 -21q52 0 97.5 23t58.5 75q9 -4 13 -13t-5 -30q-19 -43 -64.5 -63.5t-102.5 -20.5zM165 556q-4 0 -13.5 2t-11.5 6l110 118q6 1 12 1.5t11.5 0t11.5 -1.5l110 -118q-4 -4 -11.5 -6t-12.5 -2l-103 92z" />
    <glyph glyph-name="edieresis" unicode="&#xeb;" horiz-adv-x="497" 
d="M268 -12q-100 0 -157.5 64t-57.5 191q0 124 57 196.5t166 72.5q50 0 86 -16t56 -46.5t20 -74.5q0 -76 -61 -113.5t-176 -37.5q-43 0 -74.5 4.5l-59.5 8.5v25q29 -6 71.5 -9.5t74.5 -3.5q47 0 83.5 8t61 23.5t37 39.5t12.5 55q0 43 -20 66.5t-50.5 33.5t-62.5 10
q-83 0 -136 -58t-53 -180q0 -88 26.5 -138t69.5 -71t90 -21q52 0 97.5 23t58.5 75q9 -4 13 -13t-5 -30q-19 -43 -64.5 -63.5t-102.5 -20.5zM191 587q-13 0 -23.5 10.5t-10.5 23.5q0 14 10.5 24t23.5 10q14 0 24 -10t10 -24q0 -13 -10 -23.5t-24 -10.5zM351 587
q-13 0 -23.5 10.5t-10.5 23.5q0 14 10.5 24t23.5 10q14 0 24 -10t10 -24q0 -13 -10 -23.5t-24 -10.5z" />
    <glyph glyph-name="igrave" unicode="&#xec;" horiz-adv-x="223" 
d="M123 87q0 -30 1.5 -52.5t4.5 -34.5q-3 -3 -7 -5.5t-11 -2.5q-8 0 -12.5 6t-4.5 16l-2 403q0 30 -1.5 52.5t-4.5 34.5q3 3 7 5.5t11 2.5q8 0 12.5 -5.5t4.5 -16.5zM-21 689q7 5 13.5 7.5t14.5 4t17 1.5l91 -140q-1 -4 -10.5 -5t-14.5 0z" />
    <glyph glyph-name="iacute" unicode="&#xed;" horiz-adv-x="223" 
d="M123 87q0 -30 1.5 -52.5t4.5 -34.5q-3 -3 -7 -5.5t-11 -2.5q-8 0 -12.5 6t-4.5 16l-2 403q0 30 -1.5 52.5t-4.5 34.5q3 3 7 5.5t11 2.5q8 0 12.5 -5.5t4.5 -16.5zM218 689l-111 -132q-5 -1 -14 0t-11 5l91 140q10 0 17.5 -1.5t14 -4t13.5 -7.5z" />
    <glyph glyph-name="icircumflex" unicode="&#xee;" horiz-adv-x="223" 
d="M123 87q0 -30 1.5 -52.5t4.5 -34.5q-3 -3 -7 -5.5t-11 -2.5q-8 0 -12.5 6t-4.5 16l-2 403q0 30 -1.5 52.5t-4.5 34.5q3 3 7 5.5t11 2.5q8 0 12.5 -5.5t4.5 -16.5zM2 556q-4 0 -13.5 2t-11.5 6l110 118q6 1 12 1.5t11.5 0t11.5 -1.5l110 -118q-4 -4 -11.5 -6t-12.5 -2
l-103 92z" />
    <glyph glyph-name="idieresis" unicode="&#xef;" horiz-adv-x="223" 
d="M123 87q0 -30 1.5 -52.5t4.5 -34.5q-3 -3 -7 -5.5t-11 -2.5q-8 0 -12.5 6t-4.5 16l-2 403q0 30 -1.5 52.5t-4.5 34.5q3 3 7 5.5t11 2.5q8 0 12.5 -5.5t4.5 -16.5zM28 587q-13 0 -23.5 10.5t-10.5 23.5q0 14 10.5 24t23.5 10q14 0 24 -10t10 -24q0 -13 -10 -23.5
t-24 -10.5zM188 587q-13 0 -23.5 10.5t-10.5 23.5q0 14 10.5 24t23.5 10q14 0 24 -10t10 -24q0 -13 -10 -23.5t-24 -10.5z" />
    <glyph glyph-name="eth" unicode="&#xf0;" horiz-adv-x="497" 
d="M242 -12q-64 0 -101.5 26t-56.5 65.5t-25 81t-6 73.5q0 73 23.5 131.5t69 93t112.5 34.5q40 0 75 -13t58 -40t26 -69l-11 -21q-3 75 -25 138.5t-56 111t-74.5 73.5t-80.5 26q-8 0 -15.5 -0.5t-9.5 -0.5q-2 7 0.5 13.5t8.5 11.5t11 5q67 0 119 -35.5t87.5 -97t54 -141.5
t18.5 -170q0 -83 -18.5 -150.5t-62.5 -106.5t-121 -39zM241 16q61 0 98 34.5t54.5 91.5t17.5 124q0 33 -7 68t-24 64.5t-46.5 48t-75.5 18.5q-53 0 -92 -27t-60 -76t-21 -116q0 -36 6.5 -76t23 -75t47 -57t79.5 -22zM216 582l202 107q11 -5 11 -22l-202 -107q-11 8 -11 22z
" />
    <glyph glyph-name="ntilde" unicode="&#xf1;" horiz-adv-x="562" 
d="M121 -8q-9 0 -13.5 6t-4.5 16v418q-1 28 -7.5 39t-22.5 11q-6 0 -14 -3t-13 -15q-10 11 -10 22t11 17.5t29 6.5q31 0 44 -20t13 -59v-104l-13 -8q4 60 31.5 103.5t69.5 66.5t89 23q83 0 122 -55t39 -160v-210q1 -30 2.5 -52.5t4.5 -34.5q-3 -3 -7 -5.5t-11 -2.5
q-9 0 -14 6t-5 16v284q-1 93 -32 139.5t-102 46.5q-25 0 -55 -11t-57 -37.5t-44.5 -72.5t-17.5 -116v-114.5t0.5 -70.5t2 -39.5t3.5 -22.5q-3 -3 -7 -5.5t-11 -2.5zM418 651q-6 -29 -25.5 -49t-48.5 -20q-27 0 -45 12.5t-34 25.5t-40 13q-19 0 -36 -11.5t-23 -34.5
q-5 -1 -10 2.5t-9 7.5q8 34 31 50.5t50 16.5q28 0 45.5 -13t34.5 -25.5t41 -12.5q21 0 31.5 13.5t17.5 33.5q7 0 11.5 -2t8.5 -7z" />
    <glyph glyph-name="ograve" unicode="&#xf2;" horiz-adv-x="534" 
d="M267 -12q-101 0 -157.5 69t-56.5 193t56.5 193t157.5 69t157.5 -69t56.5 -193t-56.5 -193t-157.5 -69zM267 16q86 0 134 62t48 172t-48 172t-134 62q-85 0 -133.5 -62t-48.5 -172t48.5 -172t133.5 -62zM141 689q7 5 13.5 7.5t14.5 4t17 1.5l91 -140q-1 -4 -10.5 -5
t-14.5 0z" />
    <glyph glyph-name="oacute" unicode="&#xf3;" horiz-adv-x="534" 
d="M267 -12q-101 0 -157.5 69t-56.5 193t56.5 193t157.5 69t157.5 -69t56.5 -193t-56.5 -193t-157.5 -69zM267 16q86 0 134 62t48 172t-48 172t-134 62q-85 0 -133.5 -62t-48.5 -172t48.5 -172t133.5 -62zM380 689l-111 -132q-5 -1 -14 0t-11 5l91 140q10 0 17.5 -1.5t14 -4
t13.5 -7.5z" />
    <glyph glyph-name="ocircumflex" unicode="&#xf4;" horiz-adv-x="534" 
d="M267 -12q-101 0 -157.5 69t-56.5 193t56.5 193t157.5 69t157.5 -69t56.5 -193t-56.5 -193t-157.5 -69zM267 16q86 0 134 62t48 172t-48 172t-134 62q-85 0 -133.5 -62t-48.5 -172t48.5 -172t133.5 -62zM164 556q-4 0 -13.5 2t-11.5 6l110 118q6 1 12 1.5t11.5 0
t11.5 -1.5l110 -118q-4 -4 -11.5 -6t-12.5 -2l-103 92z" />
    <glyph glyph-name="otilde" unicode="&#xf5;" horiz-adv-x="534" 
d="M267 -12q-101 0 -157.5 69t-56.5 193t56.5 193t157.5 69t157.5 -69t56.5 -193t-56.5 -193t-157.5 -69zM267 16q86 0 134 62t48 172t-48 172t-134 62q-85 0 -133.5 -62t-48.5 -172t48.5 -172t133.5 -62zM402 651q-6 -29 -25.5 -49t-48.5 -20q-27 0 -45 12.5t-34 25.5
t-40 13q-19 0 -36 -11.5t-23 -34.5q-5 -1 -10 2.5t-9 7.5q8 34 31 50.5t50 16.5q28 0 45.5 -13t34.5 -25.5t41 -12.5q21 0 31.5 13.5t17.5 33.5q7 0 11.5 -2t8.5 -7z" />
    <glyph glyph-name="odieresis" unicode="&#xf6;" horiz-adv-x="534" 
d="M267 -12q-101 0 -157.5 69t-56.5 193t56.5 193t157.5 69t157.5 -69t56.5 -193t-56.5 -193t-157.5 -69zM267 16q86 0 134 62t48 172t-48 172t-134 62q-85 0 -133.5 -62t-48.5 -172t48.5 -172t133.5 -62zM190 587q-13 0 -23.5 10.5t-10.5 23.5q0 14 10.5 24t23.5 10
q14 0 24 -10t10 -24q0 -13 -10 -23.5t-24 -10.5zM350 587q-13 0 -23.5 10.5t-10.5 23.5q0 14 10.5 24t23.5 10q14 0 24 -10t10 -24q0 -13 -10 -23.5t-24 -10.5z" />
    <glyph glyph-name="divide" unicode="&#xf7;" horiz-adv-x="557" 
d="M83 368h391q6 -15 0 -30h-391q-6 15 0 30zM279 478q-13 0 -23.5 10.5t-10.5 23.5q0 14 10.5 24t23.5 10q14 0 24 -10t10 -24q0 -13 -10 -23.5t-24 -10.5zM279 160q-13 0 -23.5 10.5t-10.5 23.5q0 14 10.5 24t23.5 10q14 0 24 -10t10 -24q0 -13 -10 -23.5t-24 -10.5z" />
    <glyph glyph-name="oslash" unicode="&#xf8;" horiz-adv-x="534" 
d="M431 499l-23 -38q35 -34 54 -87t19 -124q0 -124 -56.5 -193t-157.5 -69q-71 0 -121 35l-19 -32q-14 1 -21 12l21 35q-74 69 -74 212q0 124 56.5 193t157.5 69q71 0 121 -35l21 35q16 0 22 -13zM85 250q0 -61 15 -107.5t43 -76.5l229 385q-21 16 -47 24.5t-58 8.5
q-85 0 -133.5 -62t-48.5 -172zM267 16q86 0 134 62t48 172q0 60 -14.5 106.5t-42.5 76.5l-230 -384q44 -33 105 -33z" />
    <glyph glyph-name="ugrave" unicode="&#xf9;" horiz-adv-x="551" 
d="M430 512q8 0 12.5 -5.5t4.5 -16.5l1 -418q0 -28 7 -39t23 -11q6 0 14 3t13 15q10 -11 10 -22t-11 -17.5t-29 -6.5q-31 0 -44 20t-13 59v104l13 8q-4 -61 -31 -105t-68 -68t-87 -24q-79 0 -116.5 48.5t-38.5 170.5l-1 210q0 30 -1.5 52.5t-4.5 34.5q3 3 7 5.5t11 2.5
q8 0 12.5 -5.5t4.5 -16.5l1 -284q0 -73 13 -114.5t41.5 -58.5t74.5 -17q25 0 54 11.5t55.5 38.5t43.5 73.5t17 117.5v115t-0.5 70t-2 39.5t-3.5 22.5q3 3 7 5.5t11 2.5zM139 689q7 5 13.5 7.5t14.5 4t17 1.5l91 -140q-1 -4 -10.5 -5t-14.5 0z" />
    <glyph glyph-name="uacute" unicode="&#xfa;" horiz-adv-x="551" 
d="M430 512q8 0 12.5 -5.5t4.5 -16.5l1 -418q0 -28 7 -39t23 -11q6 0 14 3t13 15q10 -11 10 -22t-11 -17.5t-29 -6.5q-31 0 -44 20t-13 59v104l13 8q-4 -61 -31 -105t-68 -68t-87 -24q-79 0 -116.5 48.5t-38.5 170.5l-1 210q0 30 -1.5 52.5t-4.5 34.5q3 3 7 5.5t11 2.5
q8 0 12.5 -5.5t4.5 -16.5l1 -284q0 -73 13 -114.5t41.5 -58.5t74.5 -17q25 0 54 11.5t55.5 38.5t43.5 73.5t17 117.5v115t-0.5 70t-2 39.5t-3.5 22.5q3 3 7 5.5t11 2.5zM378 689l-111 -132q-5 -1 -14 0t-11 5l91 140q10 0 17.5 -1.5t14 -4t13.5 -7.5z" />
    <glyph glyph-name="ucircumflex" unicode="&#xfb;" horiz-adv-x="551" 
d="M430 512q8 0 12.5 -5.5t4.5 -16.5l1 -418q0 -28 7 -39t23 -11q6 0 14 3t13 15q10 -11 10 -22t-11 -17.5t-29 -6.5q-31 0 -44 20t-13 59v104l13 8q-4 -61 -31 -105t-68 -68t-87 -24q-79 0 -116.5 48.5t-38.5 170.5l-1 210q0 30 -1.5 52.5t-4.5 34.5q3 3 7 5.5t11 2.5
q8 0 12.5 -5.5t4.5 -16.5l1 -284q0 -73 13 -114.5t41.5 -58.5t74.5 -17q25 0 54 11.5t55.5 38.5t43.5 73.5t17 117.5v115t-0.5 70t-2 39.5t-3.5 22.5q3 3 7 5.5t11 2.5zM162 556q-4 0 -13.5 2t-11.5 6l110 118q6 1 12 1.5t11.5 0t11.5 -1.5l110 -118q-4 -4 -11.5 -6
t-12.5 -2l-103 92z" />
    <glyph glyph-name="udieresis" unicode="&#xfc;" horiz-adv-x="551" 
d="M430 512q8 0 12.5 -5.5t4.5 -16.5l1 -418q0 -28 7 -39t23 -11q6 0 14 3t13 15q10 -11 10 -22t-11 -17.5t-29 -6.5q-31 0 -44 20t-13 59v104l13 8q-4 -61 -31 -105t-68 -68t-87 -24q-79 0 -116.5 48.5t-38.5 170.5l-1 210q0 30 -1.5 52.5t-4.5 34.5q3 3 7 5.5t11 2.5
q8 0 12.5 -5.5t4.5 -16.5l1 -284q0 -73 13 -114.5t41.5 -58.5t74.5 -17q25 0 54 11.5t55.5 38.5t43.5 73.5t17 117.5v115t-0.5 70t-2 39.5t-3.5 22.5q3 3 7 5.5t11 2.5zM188 587q-13 0 -23.5 10.5t-10.5 23.5q0 14 10.5 24t23.5 10q14 0 24 -10t10 -24q0 -13 -10 -23.5
t-24 -10.5zM348 587q-13 0 -23.5 10.5t-10.5 23.5q0 14 10.5 24t23.5 10q14 0 24 -10t10 -24q0 -13 -10 -23.5t-24 -10.5z" />
    <glyph glyph-name="yacute" unicode="&#xfd;" horiz-adv-x="536" 
d="M235 -240q-36 0 -71 11t-58 35.5t-23 63.5q0 23 8 41t23 18q12 0 18 -9q-14 -7 -17 -21.5t-3 -21.5q0 -36 20 -55t48 -26.5t53 -7.5q99 0 142 65.5t43 208.5v41.5v41.5v42l13 8q-7 -93 -59.5 -149t-135.5 -56q-70 0 -107.5 48t-38.5 169l-1 210q0 32 -1.5 53.5t-4.5 33.5
q3 3 7 5.5t11 2.5q8 0 12.5 -5.5t4.5 -16.5l1 -284q0 -102 28.5 -145t89.5 -43q31 0 62.5 11.5t58.5 39.5t43.5 76.5t16.5 121.5v110.5t-0.5 67t-2 37.5t-3.5 22q3 3 7 5.5t11 2.5q8 0 12.5 -5.5t4.5 -16.5l2 -444q0 -108 -28 -170.5t-76 -89t-110 -26.5zM389 689l-111 -132
q-5 -1 -14 0t-11 5l91 140q10 0 17.5 -1.5t14 -4t13.5 -7.5z" />
    <glyph glyph-name="thorn" unicode="&#xfe;" horiz-adv-x="539" 
d="M116 -228q-9 0 -14 6t-5 16v912q0 11 5 16.5t14 5.5q7 0 11 -2.5t7 -5.5q-2 -8 -3.5 -24.5t-2.5 -55.5v-340l-23 -29q6 44 21.5 86.5t41.5 77.5t63.5 56t88.5 21q57 0 90.5 -25t49.5 -63t21 -77.5t5 -68.5q0 -132 -52.5 -209.5t-153.5 -77.5q-57 0 -96 25t-56 70v-192
q0 -20 1 -44t2.5 -43.5t2.5 -26.5q-3 -3 -7 -5.5t-11 -2.5zM277 19q82 0 129.5 63t47.5 194q0 28 -4 63.5t-17.5 68.5t-40.5 54.5t-74 21.5q-43 0 -78 -20t-60 -56.5t-38.5 -85.5t-13.5 -108q0 -33 6 -67.5t21.5 -63t45 -46.5t76.5 -18z" />
    <glyph glyph-name="ydieresis" unicode="&#xff;" horiz-adv-x="536" 
d="M235 -240q-36 0 -71 11t-58 35.5t-23 63.5q0 23 8 41t23 18q12 0 18 -9q-14 -7 -17 -21.5t-3 -21.5q0 -36 20 -55t48 -26.5t53 -7.5q99 0 142 65.5t43 208.5v41.5v41.5v42l13 8q-7 -93 -59.5 -149t-135.5 -56q-70 0 -107.5 48t-38.5 169l-1 210q0 32 -1.5 53.5t-4.5 33.5
q3 3 7 5.5t11 2.5q8 0 12.5 -5.5t4.5 -16.5l1 -284q0 -102 28.5 -145t89.5 -43q31 0 62.5 11.5t58.5 39.5t43.5 76.5t16.5 121.5v110.5t-0.5 67t-2 37.5t-3.5 22q3 3 7 5.5t11 2.5q8 0 12.5 -5.5t4.5 -16.5l2 -444q0 -108 -28 -170.5t-76 -89t-110 -26.5zM199 587
q-13 0 -23.5 10.5t-10.5 23.5q0 14 10.5 24t23.5 10q14 0 24 -10t10 -24q0 -13 -10 -23.5t-24 -10.5zM359 587q-13 0 -23.5 10.5t-10.5 23.5q0 14 10.5 24t23.5 10q14 0 24 -10t10 -24q0 -13 -10 -23.5t-24 -10.5z" />
    <glyph glyph-name="Amacron" unicode="&#x100;" horiz-adv-x="562" 
d="M282 700q9 0 15.5 -4.5t9.5 -12.5l224 -652q4 -10 8 -17.5t8 -12.5q-4 -5 -8 -7t-9 -2q-7 0 -13.5 3.5t-8.5 10.5l-233 680h12l-223 -657q-1 -4 -3 -10t-2 -11q0 -3 0.5 -7t1.5 -7q-4 -1 -7.5 -1.5t-8.5 -0.5q-8 0 -13.5 5t-4.5 13q0 5 2.5 12t3.5 12l227 658q11 8 22 8z
M130 260h305v-26h-305v26zM162 796h235q6 -15 0 -30h-235q-6 15 0 30z" />
    <glyph glyph-name="amacron" unicode="&#x101;" horiz-adv-x="534" 
d="M473 -10q-35 0 -51 23t-16 60v133l14 -12q-23 -65 -62.5 -111.5t-87.5 -70.5t-97 -24q-60 0 -89 33t-29 81q0 36 17 66t52 53.5t88 37.5q44 11 96 14.5t98 -1.5v26q0 93 -39 139.5t-126 46.5q-29 0 -61 -7t-53.5 -25.5t-21.5 -54.5q0 -19 12.5 -41t37.5 -28
q-6 -10 -14 -13t-13 -3q-22 0 -37 27.5t-15 55.5q0 59 46.5 88t124.5 29q97 0 143 -55t46 -159v-227q0 -53 38 -53q10 0 21 7t17 20q5 -6 7 -11t2 -10q0 -16 -15.5 -25t-32.5 -9zM179 15q38 0 77.5 20.5t73 54.5t54.5 76t22 85q-27 3 -62.5 1t-70 -7t-59.5 -13
q-61 -18 -94 -49.5t-33 -78.5q0 -34 20.5 -61.5t71.5 -27.5zM135 627h235q6 -14 0 -28h-235q-6 14 0 28z" />
    <glyph glyph-name="Abreve" unicode="&#x102;" horiz-adv-x="562" 
d="M282 700q9 0 15.5 -4.5t9.5 -12.5l224 -652q4 -10 8 -17.5t8 -12.5q-4 -5 -8 -7t-9 -2q-7 0 -13.5 3.5t-8.5 10.5l-233 680h12l-223 -657q-1 -4 -3 -10t-2 -11q0 -3 0.5 -7t1.5 -7q-4 -1 -7.5 -1.5t-8.5 -0.5q-8 0 -13.5 5t-4.5 13q0 5 2.5 12t3.5 12l227 658q11 8 22 8z
M130 260h305v-26h-305v26zM401 807q-11 -23 -29 -41t-41.5 -28t-52.5 -10q-30 0 -53 10.5t-39 27.5t-26 37l14 8l14 8q13 -25 36.5 -42t59.5 -17q37 0 58.5 18.5t32.5 39.5q7 -3 13 -5.5t13 -5.5z" />
    <glyph glyph-name="abreve" unicode="&#x103;" horiz-adv-x="534" 
d="M473 -10q-35 0 -51 23t-16 60v133l14 -12q-23 -65 -62.5 -111.5t-87.5 -70.5t-97 -24q-60 0 -89 33t-29 81q0 36 17 66t52 53.5t88 37.5q44 11 96 14.5t98 -1.5v26q0 93 -39 139.5t-126 46.5q-29 0 -61 -7t-53.5 -25.5t-21.5 -54.5q0 -19 12.5 -41t37.5 -28
q-6 -10 -14 -13t-13 -3q-22 0 -37 27.5t-15 55.5q0 59 46.5 88t124.5 29q97 0 143 -55t46 -159v-227q0 -53 38 -53q10 0 21 7t17 20q5 -6 7 -11t2 -10q0 -16 -15.5 -25t-32.5 -9zM179 15q38 0 77.5 20.5t73 54.5t54.5 76t22 85q-27 3 -62.5 1t-70 -7t-59.5 -13
q-61 -18 -94 -49.5t-33 -78.5q0 -34 20.5 -61.5t71.5 -27.5zM253 592q36 0 57 14.5t32.5 33.5t15.5 31q7 -1 13.5 -2t13.5 -3q-7 -27 -24.5 -50.5t-44.5 -38.5t-63 -15q-45 0 -74 17.5t-44.5 41t-20.5 41.5q6 5 12.5 7.5t13.5 3.5q6 -14 19 -33.5t36 -33.5t58 -14z" />
    <glyph glyph-name="Aogonek" unicode="&#x104;" horiz-adv-x="562" 
d="M282 700q9 0 15.5 -4.5t9.5 -12.5l224 -652q4 -10 8 -17.5t8 -12.5q-4 -5 -8 -7t-9 -2q-7 0 -13.5 3.5t-8.5 10.5l-233 680h12l-223 -657q-1 -4 -3 -10t-2 -11q0 -3 0.5 -7t1.5 -7q-4 -1 -7.5 -1.5t-8.5 -0.5q-8 0 -13.5 5t-4.5 13q0 5 2.5 12t3.5 12l227 658q11 8 22 8z
M130 260h305v-26h-305v26zM507 -172q-21 0 -39.5 8t-30 24.5t-11.5 41.5q0 29 15 49.5t38.5 35t48.5 22.5l11 -15q-39 -18 -60 -37.5t-21 -50.5q0 -24 13.5 -39t39.5 -15q32 0 53.5 18.5t29.5 32.5q5 -3 7 -7.5t0 -10.5q-13 -28 -39 -42.5t-55 -14.5z" />
    <glyph glyph-name="aogonek" unicode="&#x105;" horiz-adv-x="534" 
d="M473 -10q-35 0 -51 23t-16 60v133l14 -12q-23 -65 -62.5 -111.5t-87.5 -70.5t-97 -24q-60 0 -89 33t-29 81q0 36 17 66t52 53.5t88 37.5q44 11 96 14.5t98 -1.5v26q0 93 -39 139.5t-126 46.5q-29 0 -61 -7t-53.5 -25.5t-21.5 -54.5q0 -19 12.5 -41t37.5 -28
q-6 -10 -14 -13t-13 -3q-22 0 -37 27.5t-15 55.5q0 59 46.5 88t124.5 29q97 0 143 -55t46 -159v-227q0 -53 38 -53q10 0 21 7t17 20q5 -6 7 -11t2 -10q0 -16 -15.5 -25t-32.5 -9zM179 15q38 0 77.5 20.5t73 54.5t54.5 76t22 85q-27 3 -62.5 1t-70 -7t-59.5 -13
q-61 -18 -94 -49.5t-33 -78.5q0 -34 20.5 -61.5t71.5 -27.5zM465 -171q-21 0 -39.5 8t-30 24.5t-11.5 41.5q0 29 15 49.5t38.5 35t48.5 22.5l11 -15q-39 -18 -60 -37.5t-21 -50.5q0 -24 13.5 -39t39.5 -15q32 0 53.5 18.5t29.5 32.5q5 -3 7 -7.5t0 -10.5q-13 -28 -39 -42.5
t-55 -14.5z" />
    <glyph glyph-name="Cacute" unicode="&#x106;" horiz-adv-x="576" 
d="M516 99q0 -16 -15 -35.5t-42 -36.5t-63 -28t-77 -11q-118 0 -183.5 90.5t-65.5 265.5q0 176 65.5 266t183.5 90q40 0 72.5 -7.5t55.5 -20t35.5 -27t12.5 -28.5q0 -8 -8 -13t-17 -1q-9 30 -49 49.5t-102 19.5q-102 0 -159.5 -83t-57.5 -245t57.5 -245t159.5 -83
q37 0 73 12t63.5 34t36.5 52q7 0 12 -1t8.5 -4t3.5 -10zM459 810l-150 -83q-4 2 -8 8t-5 10l129 97q7 -3 13.5 -7.5t11.5 -10.5t9 -14z" />
    <glyph glyph-name="cacute" unicode="&#x107;" horiz-adv-x="499" 
d="M265 -12q-97 0 -154.5 64t-57.5 191q0 125 59 197t165 72q72 0 114.5 -33.5t42.5 -91.5q0 -30 -11.5 -49t-31.5 -19q-7 0 -13.5 3t-12.5 13q20 0 28.5 15.5t8.5 36.5q0 34 -18.5 56t-48 32.5t-63.5 10.5q-80 0 -133.5 -59t-53.5 -180q0 -88 27 -138.5t69 -71t87 -20.5
q36 0 68.5 11.5t57 37.5t33.5 69q9 -4 13 -12.5t-5 -30.5q-19 -53 -64 -78.5t-106 -25.5zM384 689l-111 -132q-5 -1 -14 0t-11 5l91 140q10 0 17.5 -1.5t14 -4t13.5 -7.5z" />
    <glyph glyph-name="Ccircumflex" unicode="&#x108;" horiz-adv-x="576" 
d="M516 99q0 -16 -15 -35.5t-42 -36.5t-63 -28t-77 -11q-118 0 -183.5 90.5t-65.5 265.5q0 176 65.5 266t183.5 90q40 0 72.5 -7.5t55.5 -20t35.5 -27t12.5 -28.5q0 -8 -8 -13t-17 -1q-9 30 -49 49.5t-102 19.5q-102 0 -159.5 -83t-57.5 -245t57.5 -245t159.5 -83
q37 0 73 12t63.5 34t36.5 52q7 0 12 -1t8.5 -4t3.5 -10zM336 840l115 -97q-2 -4 -6.5 -9t-9.5 -7l-116 78l-117 -78q-4 2 -9 7t-7 9l115 97q6 1 12 1.5t11.5 0t11.5 -1.5z" />
    <glyph glyph-name="ccircumflex" unicode="&#x109;" horiz-adv-x="499" 
d="M265 -12q-97 0 -154.5 64t-57.5 191q0 125 59 197t165 72q72 0 114.5 -33.5t42.5 -91.5q0 -30 -11.5 -49t-31.5 -19q-7 0 -13.5 3t-12.5 13q20 0 28.5 15.5t8.5 36.5q0 34 -18.5 56t-48 32.5t-63.5 10.5q-80 0 -133.5 -59t-53.5 -180q0 -88 27 -138.5t69 -71t87 -20.5
q36 0 68.5 11.5t57 37.5t33.5 69q9 -4 13 -12.5t-5 -30.5q-19 -53 -64 -78.5t-106 -25.5zM168 556q-4 0 -13.5 2t-11.5 6l110 118q6 1 12 1.5t11.5 0t11.5 -1.5l110 -118q-4 -4 -11.5 -6t-12.5 -2l-103 92z" />
    <glyph glyph-name="Cdotaccent" unicode="&#x10a;" horiz-adv-x="576" 
d="M516 99q0 -16 -15 -35.5t-42 -36.5t-63 -28t-77 -11q-118 0 -183.5 90.5t-65.5 265.5q0 176 65.5 266t183.5 90q40 0 72.5 -7.5t55.5 -20t35.5 -27t12.5 -28.5q0 -8 -8 -13t-17 -1q-9 30 -49 49.5t-102 19.5q-102 0 -159.5 -83t-57.5 -245t57.5 -245t159.5 -83
q37 0 73 12t63.5 34t36.5 52q7 0 12 -1t8.5 -4t3.5 -10zM319 752q-13 0 -23.5 10.5t-10.5 23.5q0 14 10.5 24t23.5 10q14 0 24 -10t10 -24q0 -13 -10 -23.5t-24 -10.5z" />
    <glyph glyph-name="cdotaccent" unicode="&#x10b;" horiz-adv-x="499" 
d="M265 -12q-97 0 -154.5 64t-57.5 191q0 125 59 197t165 72q72 0 114.5 -33.5t42.5 -91.5q0 -30 -11.5 -49t-31.5 -19q-7 0 -13.5 3t-12.5 13q20 0 28.5 15.5t8.5 36.5q0 34 -18.5 56t-48 32.5t-63.5 10.5q-80 0 -133.5 -59t-53.5 -180q0 -88 27 -138.5t69 -71t87 -20.5
q36 0 68.5 11.5t57 37.5t33.5 69q9 -4 13 -12.5t-5 -30.5q-19 -53 -64 -78.5t-106 -25.5zM269 573q-13 0 -23.5 10.5t-10.5 23.5q0 14 10.5 24t23.5 10q14 0 24 -10t10 -24q0 -13 -10 -23.5t-24 -10.5z" />
    <glyph glyph-name="Ccaron" unicode="&#x10c;" horiz-adv-x="576" 
d="M516 99q0 -16 -15 -35.5t-42 -36.5t-63 -28t-77 -11q-118 0 -183.5 90.5t-65.5 265.5q0 176 65.5 266t183.5 90q40 0 72.5 -7.5t55.5 -20t35.5 -27t12.5 -28.5q0 -8 -8 -13t-17 -1q-9 30 -49 49.5t-102 19.5q-102 0 -159.5 -83t-57.5 -245t57.5 -245t159.5 -83
q37 0 73 12t63.5 34t36.5 52q7 0 12 -1t8.5 -4t3.5 -10zM335 731q-6 -1 -11.5 -1.5t-11.5 0t-12 1.5l-115 97q2 5 7 9.5t9 6.5l117 -78l116 78q5 -2 9.5 -6.5t6.5 -9.5z" />
    <glyph glyph-name="ccaron" unicode="&#x10d;" horiz-adv-x="499" 
d="M265 -12q-97 0 -154.5 64t-57.5 191q0 125 59 197t165 72q72 0 114.5 -33.5t42.5 -91.5q0 -30 -11.5 -49t-31.5 -19q-7 0 -13.5 3t-12.5 13q20 0 28.5 15.5t8.5 36.5q0 34 -18.5 56t-48 32.5t-63.5 10.5q-80 0 -133.5 -59t-53.5 -180q0 -88 27 -138.5t69 -71t87 -20.5
q36 0 68.5 11.5t57 37.5t33.5 69q9 -4 13 -12.5t-5 -30.5q-19 -53 -64 -78.5t-106 -25.5zM169 687l103 -92l103 92q5 0 12.5 -1.5t11.5 -6.5l-110 -118q-6 -1 -11.5 -1.5t-11.5 0t-12 1.5l-110 118q2 5 11.5 6.5t13.5 1.5z" />
    <glyph glyph-name="Dcaron" unicode="&#x10e;" horiz-adv-x="629" 
d="M126 0q-8 0 -12.5 6t-4.5 16l-2 578q0 30 -1.5 56.5t-4.5 38.5q26 2 62.5 3t72 1.5t59.5 0.5q126 0 195 -86.5t69 -269.5t-69 -263.5t-195 -80.5h-169zM138 28h157q73 0 124.5 32t79.5 101.5t28 182.5q0 170 -61.5 249t-170.5 79h-159zM319 731q-6 -1 -11.5 -1.5t-11.5 0
t-12 1.5l-115 97q2 5 7 9.5t9 6.5l117 -78l116 78q5 -2 9.5 -6.5t6.5 -9.5z" />
    <glyph glyph-name="dcaron" unicode="&#x10f;" horiz-adv-x="561" 
d="M219 -12q-57 0 -90.5 25t-49.5 63t-21 77.5t-5 68.5q0 134 52.5 212t153.5 78q57 0 96.5 -25.5t55.5 -72.5l-1 214q0 41 -1.5 62t-3.5 30q3 3 7 5.5t11 2.5q9 0 14 -5.5t5 -16.5l-1 -635q0 -28 8.5 -39t21.5 -11q6 0 14 3t13 15q5 -6 7.5 -11.5t2.5 -10.5
q0 -11 -11 -17.5t-29 -6.5q-28 0 -42.5 20t-14.5 60v127l23 29q-6 -44 -21.5 -86.5t-41.5 -77.5t-63.5 -56t-88.5 -21zM221 16q43 0 78 20t60 56.5t38.5 86t13.5 107.5q0 33 -7 68t-24 64.5t-48 47.5t-79 18q-75 0 -121.5 -63.5t-46.5 -196.5q0 -28 4 -63.5t17.5 -68.5
t41 -54.5t73.5 -21.5zM517 606q2 28 0.5 57t-6.5 60q8 2 17 2t17 -2q2 -29 0.5 -58.5t-6.5 -58.5h-22z" />
    <glyph glyph-name="Dcroat" unicode="&#x110;" horiz-adv-x="619" 
d="M27 361h283q6 -12 0 -25h-283q-6 13 0 25zM126 0q-8 0 -12.5 6t-4.5 16l-2 578q0 30 -1.5 56.5t-4.5 38.5q26 2 62.5 3t72 1.5t59.5 0.5q126 0 195 -86.5t69 -269.5t-69 -263.5t-195 -80.5h-169zM138 28h157q73 0 124.5 32t79.5 101.5t28 182.5q0 170 -61.5 249
t-170.5 79h-159z" />
    <glyph glyph-name="dcroat" unicode="&#x111;" horiz-adv-x="548" 
d="M289 613h229q6 -12 0 -25h-229q-6 13 0 25zM219 -12q-57 0 -90.5 25t-49.5 63t-21 77.5t-5 68.5q0 134 52.5 212t153.5 78q57 0 96.5 -25.5t55.5 -72.5l-1 214q0 41 -1.5 62t-3.5 30q3 3 7 5.5t11 2.5q9 0 14 -5.5t5 -16.5l-1 -635q0 -28 8.5 -39t21.5 -11q6 0 14 3
t13 15q5 -6 7.5 -11.5t2.5 -10.5q0 -11 -11 -17.5t-29 -6.5q-28 0 -42.5 20t-14.5 60v127l23 29q-6 -44 -21.5 -86.5t-41.5 -77.5t-63.5 -56t-88.5 -21zM221 16q43 0 78 20t60 56.5t38.5 86t13.5 107.5q0 33 -7 68t-24 64.5t-48 47.5t-79 18q-75 0 -121.5 -63.5
t-46.5 -196.5q0 -28 4 -63.5t17.5 -68.5t41 -54.5t73.5 -21.5z" />
    <glyph glyph-name="Emacron" unicode="&#x112;" horiz-adv-x="523" 
d="M126 0q-8 0 -12.5 6t-4.5 16l-2 578q0 30 -1.5 49t-4.5 31q3 4 7 6t11 2h314q5 0 7 -3.5t1 -8.5t-4 -9t-7 -5h-146.5h-147.5l2 -637q51 0 102 0.5t101.5 0.5h101.5q4 -1 6 -5.5t2 -9t-1.5 -8t-6.5 -3.5h-317zM131 354v26h280q2 -7 2 -13t-2 -13h-280zM158 796h235
q6 -15 0 -30h-235q-6 15 0 30z" />
    <glyph glyph-name="emacron" unicode="&#x113;" horiz-adv-x="497" 
d="M268 -12q-100 0 -157.5 64t-57.5 191q0 124 57 196.5t166 72.5q50 0 86 -16t56 -46.5t20 -74.5q0 -76 -61 -113.5t-176 -37.5q-43 0 -74.5 4.5l-59.5 8.5v25q29 -6 71.5 -9.5t74.5 -3.5q47 0 83.5 8t61 23.5t37 39.5t12.5 55q0 43 -20 66.5t-50.5 33.5t-62.5 10
q-83 0 -136 -58t-53 -180q0 -88 26.5 -138t69.5 -71t90 -21q52 0 97.5 23t58.5 75q9 -4 13 -13t-5 -30q-19 -43 -64.5 -63.5t-102.5 -20.5zM150 627h235q6 -14 0 -28h-235q-6 14 0 28z" />
    <glyph glyph-name="Ebreve" unicode="&#x114;" horiz-adv-x="523" 
d="M126 0q-8 0 -12.5 6t-4.5 16l-2 578q0 30 -1.5 49t-4.5 31q3 4 7 6t11 2h314q5 0 7 -3.5t1 -8.5t-4 -9t-7 -5h-146.5h-147.5l2 -637q51 0 102 0.5t101.5 0.5h101.5q4 -1 6 -5.5t2 -9t-1.5 -8t-6.5 -3.5h-317zM131 354v26h280q2 -7 2 -13t-2 -13h-280zM397 807
q-11 -23 -29 -41t-41.5 -28t-52.5 -10q-30 0 -53 10.5t-39 27.5t-26 37l14 8l14 8q13 -25 36.5 -42t59.5 -17q37 0 58.5 18.5t32.5 39.5q7 -3 13 -5.5t13 -5.5z" />
    <glyph glyph-name="ebreve" unicode="&#x115;" horiz-adv-x="497" 
d="M268 -12q-100 0 -157.5 64t-57.5 191q0 124 57 196.5t166 72.5q50 0 86 -16t56 -46.5t20 -74.5q0 -76 -61 -113.5t-176 -37.5q-43 0 -74.5 4.5l-59.5 8.5v25q29 -6 71.5 -9.5t74.5 -3.5q47 0 83.5 8t61 23.5t37 39.5t12.5 55q0 43 -20 66.5t-50.5 33.5t-62.5 10
q-83 0 -136 -58t-53 -180q0 -88 26.5 -138t69.5 -71t90 -21q52 0 97.5 23t58.5 75q9 -4 13 -13t-5 -30q-19 -43 -64.5 -63.5t-102.5 -20.5zM268 592q36 0 57 14.5t32.5 33.5t15.5 31q7 -1 13.5 -2t13.5 -3q-7 -27 -24.5 -50.5t-44.5 -38.5t-63 -15q-45 0 -74 17.5t-44.5 41
t-20.5 41.5q6 5 12.5 7.5t13.5 3.5q6 -14 19 -33.5t36 -33.5t58 -14z" />
    <glyph glyph-name="Edotaccent" unicode="&#x116;" horiz-adv-x="523" 
d="M126 0q-8 0 -12.5 6t-4.5 16l-2 578q0 30 -1.5 49t-4.5 31q3 4 7 6t11 2h314q5 0 7 -3.5t1 -8.5t-4 -9t-7 -5h-146.5h-147.5l2 -637q51 0 102 0.5t101.5 0.5h101.5q4 -1 6 -5.5t2 -9t-1.5 -8t-6.5 -3.5h-317zM131 354v26h280q2 -7 2 -13t-2 -13h-280zM276 752
q-13 0 -23.5 10.5t-10.5 23.5q0 14 10.5 24t23.5 10q14 0 24 -10t10 -24q0 -13 -10 -23.5t-24 -10.5z" />
    <glyph glyph-name="edotaccent" unicode="&#x117;" horiz-adv-x="497" 
d="M268 -12q-100 0 -157.5 64t-57.5 191q0 124 57 196.5t166 72.5q50 0 86 -16t56 -46.5t20 -74.5q0 -76 -61 -113.5t-176 -37.5q-43 0 -74.5 4.5l-59.5 8.5v25q29 -6 71.5 -9.5t74.5 -3.5q47 0 83.5 8t61 23.5t37 39.5t12.5 55q0 43 -20 66.5t-50.5 33.5t-62.5 10
q-83 0 -136 -58t-53 -180q0 -88 26.5 -138t69.5 -71t90 -21q52 0 97.5 23t58.5 75q9 -4 13 -13t-5 -30q-19 -43 -64.5 -63.5t-102.5 -20.5zM266 573q-13 0 -23.5 10.5t-10.5 23.5q0 14 10.5 24t23.5 10q14 0 24 -10t10 -24q0 -13 -10 -23.5t-24 -10.5z" />
    <glyph glyph-name="Eogonek" unicode="&#x118;" horiz-adv-x="523" 
d="M126 0q-8 0 -12.5 6t-4.5 16l-2 578q0 30 -1.5 49t-4.5 31q3 4 7 6t11 2h314q5 0 7 -3.5t1 -8.5t-4 -9t-7 -5h-146.5h-147.5l2 -637q51 0 102 0.5t101.5 0.5h101.5q4 -1 6 -5.5t2 -9t-1.5 -8t-6.5 -3.5h-317zM131 354v26h280q2 -7 2 -13t-2 -13h-280zM364 -166
q-21 0 -39.5 8t-30 24.5t-11.5 41.5q0 29 15 49.5t38.5 35t48.5 22.5l11 -15q-39 -18 -60 -37.5t-21 -50.5q0 -24 13.5 -39t39.5 -15q32 0 53.5 18.5t29.5 32.5q5 -3 7 -7.5t0 -10.5q-13 -28 -39 -42.5t-55 -14.5z" />
    <glyph glyph-name="eogonek" unicode="&#x119;" horiz-adv-x="497" 
d="M268 -12q-100 0 -157.5 64t-57.5 191q0 124 57 196.5t166 72.5q50 0 86 -16t56 -46.5t20 -74.5q0 -76 -61 -113.5t-176 -37.5q-43 0 -74.5 4.5l-59.5 8.5v25q29 -6 71.5 -9.5t74.5 -3.5q47 0 83.5 8t61 23.5t37 39.5t12.5 55q0 43 -20 66.5t-50.5 33.5t-62.5 10
q-83 0 -136 -58t-53 -180q0 -88 26.5 -138t69.5 -71t90 -21q52 0 97.5 23t58.5 75q9 -4 13 -13t-5 -30q-19 -43 -64.5 -63.5t-102.5 -20.5zM351 -151q-21 0 -39.5 8t-30 24.5t-11.5 41.5q0 29 15 49.5t38.5 35t48.5 22.5l11 -15q-39 -18 -60 -37.5t-21 -50.5q0 -24 13.5 -39
t39.5 -15q32 0 53.5 18.5t29.5 32.5q5 -3 7 -7.5t0 -10.5q-13 -28 -39 -42.5t-55 -14.5z" />
    <glyph glyph-name="Ecaron" unicode="&#x11a;" horiz-adv-x="523" 
d="M126 0q-8 0 -12.5 6t-4.5 16l-2 578q0 30 -1.5 49t-4.5 31q3 4 7 6t11 2h314q5 0 7 -3.5t1 -8.5t-4 -9t-7 -5h-146.5h-147.5l2 -637q51 0 102 0.5t101.5 0.5h101.5q4 -1 6 -5.5t2 -9t-1.5 -8t-6.5 -3.5h-317zM131 354v26h280q2 -7 2 -13t-2 -13h-280zM292 731
q-6 -1 -11.5 -1.5t-11.5 0t-12 1.5l-115 97q2 5 7 9.5t9 6.5l117 -78l116 78q5 -2 9.5 -6.5t6.5 -9.5z" />
    <glyph glyph-name="ecaron" unicode="&#x11b;" horiz-adv-x="497" 
d="M268 -12q-100 0 -157.5 64t-57.5 191q0 124 57 196.5t166 72.5q50 0 86 -16t56 -46.5t20 -74.5q0 -76 -61 -113.5t-176 -37.5q-43 0 -74.5 4.5l-59.5 8.5v25q29 -6 71.5 -9.5t74.5 -3.5q47 0 83.5 8t61 23.5t37 39.5t12.5 55q0 43 -20 66.5t-50.5 33.5t-62.5 10
q-83 0 -136 -58t-53 -180q0 -88 26.5 -138t69.5 -71t90 -21q52 0 97.5 23t58.5 75q9 -4 13 -13t-5 -30q-19 -43 -64.5 -63.5t-102.5 -20.5zM166 687l103 -92l103 92q5 0 12.5 -1.5t11.5 -6.5l-110 -118q-6 -1 -11.5 -1.5t-11.5 0t-12 1.5l-110 118q2 5 11.5 6.5t13.5 1.5z
" />
    <glyph glyph-name="Gcircumflex" unicode="&#x11c;" horiz-adv-x="599" 
d="M327 -12q-126 0 -191.5 90t-65.5 265q0 176 65.5 266.5t186.5 90.5q38 0 69.5 -7.5t55 -20t36 -26.5t12.5 -27q0 -10 -7 -15t-18 -1q-8 30 -49 49.5t-97 19.5q-108 0 -165 -83t-57 -245t57.5 -245t166.5 -83q59 0 94.5 21t53.5 53.5t23.5 67t5.5 62.5q0 51 -11 81.5
t-30.5 44t-45.5 13.5q-1 11 6.5 16t20.5 5q21 0 42 -14t35 -49t14 -99q0 -22 -3.5 -52t-14.5 -61t-34 -57.5t-60.5 -43t-94.5 -16.5zM339 840l115 -97q-2 -4 -6.5 -9t-9.5 -7l-116 78l-117 -78q-4 2 -9 7t-7 9l115 97q6 1 12 1.5t11.5 0t11.5 -1.5z" />
    <glyph glyph-name="gcircumflex" unicode="&#x11d;" horiz-adv-x="529" 
d="M208 -240q-41 0 -75.5 13.5t-55.5 41.5t-21 69q0 30 11.5 47.5t24.5 17.5t19 -9q-14 -8 -20 -21.5t-6 -31.5q0 -36 17.5 -58t46.5 -31.5t61 -9.5q107 0 154 66.5t47 207.5v30v33q-19 -63 -67 -99t-115 -36q-56 0 -95.5 27.5t-60 84.5t-20.5 145q0 28 4 63t15.5 70.5
t35 65.5t62 48t96.5 18q24 0 56 -4.5t64.5 -18.5t55.5 -43v-400q0 -108 -30.5 -170.5t-83 -89t-120.5 -26.5zM231 18q53 0 88 23.5t55 59.5t28.5 75.5t8.5 70.5l1 186q-21 26 -63 38.5t-92 12.5q-57 0 -91.5 -24.5t-52 -62.5t-23 -78.5t-5.5 -73.5q0 -118 38 -172.5
t108 -54.5zM162 556q-4 0 -13.5 2t-11.5 6l110 118q6 1 12 1.5t11.5 0t11.5 -1.5l110 -118q-4 -4 -11.5 -6t-12.5 -2l-103 92z" />
    <glyph glyph-name="Gbreve" unicode="&#x11e;" horiz-adv-x="599" 
d="M327 -12q-126 0 -191.5 90t-65.5 265q0 176 65.5 266.5t186.5 90.5q38 0 69.5 -7.5t55 -20t36 -26.5t12.5 -27q0 -10 -7 -15t-18 -1q-8 30 -49 49.5t-97 19.5q-108 0 -165 -83t-57 -245t57.5 -245t166.5 -83q59 0 94.5 21t53.5 53.5t23.5 67t5.5 62.5q0 51 -11 81.5
t-30.5 44t-45.5 13.5q-1 11 6.5 16t20.5 5q21 0 42 -14t35 -49t14 -99q0 -22 -3.5 -52t-14.5 -61t-34 -57.5t-60.5 -43t-94.5 -16.5zM443 807q-11 -23 -29 -41t-41.5 -28t-52.5 -10q-30 0 -53 10.5t-39 27.5t-26 37l14 8l14 8q13 -25 36.5 -42t59.5 -17q37 0 58.5 18.5
t32.5 39.5q7 -3 13 -5.5t13 -5.5z" />
    <glyph glyph-name="gbreve" unicode="&#x11f;" horiz-adv-x="529" 
d="M208 -240q-41 0 -75.5 13.5t-55.5 41.5t-21 69q0 30 11.5 47.5t24.5 17.5t19 -9q-14 -8 -20 -21.5t-6 -31.5q0 -36 17.5 -58t46.5 -31.5t61 -9.5q107 0 154 66.5t47 207.5v30v33q-19 -63 -67 -99t-115 -36q-56 0 -95.5 27.5t-60 84.5t-20.5 145q0 28 4 63t15.5 70.5
t35 65.5t62 48t96.5 18q24 0 56 -4.5t64.5 -18.5t55.5 -43v-400q0 -108 -30.5 -170.5t-83 -89t-120.5 -26.5zM231 18q53 0 88 23.5t55 59.5t28.5 75.5t8.5 70.5l1 186q-21 26 -63 38.5t-92 12.5q-57 0 -91.5 -24.5t-52 -62.5t-23 -78.5t-5.5 -73.5q0 -118 38 -172.5
t108 -54.5zM265 592q36 0 57 14.5t32.5 33.5t15.5 31q7 -1 13.5 -2t13.5 -3q-7 -27 -24.5 -50.5t-44.5 -38.5t-63 -15q-45 0 -74 17.5t-44.5 41t-20.5 41.5q6 5 12.5 7.5t13.5 3.5q6 -14 19 -33.5t36 -33.5t58 -14z" />
    <glyph glyph-name="Gdotaccent" unicode="&#x120;" horiz-adv-x="599" 
d="M327 -12q-126 0 -191.5 90t-65.5 265q0 176 65.5 266.5t186.5 90.5q38 0 69.5 -7.5t55 -20t36 -26.5t12.5 -27q0 -10 -7 -15t-18 -1q-8 30 -49 49.5t-97 19.5q-108 0 -165 -83t-57 -245t57.5 -245t166.5 -83q59 0 94.5 21t53.5 53.5t23.5 67t5.5 62.5q0 51 -11 81.5
t-30.5 44t-45.5 13.5q-1 11 6.5 16t20.5 5q21 0 42 -14t35 -49t14 -99q0 -22 -3.5 -52t-14.5 -61t-34 -57.5t-60.5 -43t-94.5 -16.5zM322 752q-13 0 -23.5 10.5t-10.5 23.5q0 14 10.5 24t23.5 10q14 0 24 -10t10 -24q0 -13 -10 -23.5t-24 -10.5z" />
    <glyph glyph-name="gdotaccent" unicode="&#x121;" horiz-adv-x="529" 
d="M208 -240q-41 0 -75.5 13.5t-55.5 41.5t-21 69q0 30 11.5 47.5t24.5 17.5t19 -9q-14 -8 -20 -21.5t-6 -31.5q0 -36 17.5 -58t46.5 -31.5t61 -9.5q107 0 154 66.5t47 207.5v30v33q-19 -63 -67 -99t-115 -36q-56 0 -95.5 27.5t-60 84.5t-20.5 145q0 28 4 63t15.5 70.5
t35 65.5t62 48t96.5 18q24 0 56 -4.5t64.5 -18.5t55.5 -43v-400q0 -108 -30.5 -170.5t-83 -89t-120.5 -26.5zM231 18q53 0 88 23.5t55 59.5t28.5 75.5t8.5 70.5l1 186q-21 26 -63 38.5t-92 12.5q-57 0 -91.5 -24.5t-52 -62.5t-23 -78.5t-5.5 -73.5q0 -118 38 -172.5
t108 -54.5zM263 573q-13 0 -23.5 10.5t-10.5 23.5q0 14 10.5 24t23.5 10q14 0 24 -10t10 -24q0 -13 -10 -23.5t-24 -10.5z" />
    <glyph glyph-name="uni0122" unicode="&#x122;" horiz-adv-x="599" 
d="M327 -12q-126 0 -191.5 90t-65.5 265q0 176 65.5 266.5t186.5 90.5q38 0 69.5 -7.5t55 -20t36 -26.5t12.5 -27q0 -10 -7 -15t-18 -1q-8 30 -49 49.5t-97 19.5q-108 0 -165 -83t-57 -245t57.5 -245t166.5 -83q59 0 94.5 21t53.5 53.5t23.5 67t5.5 62.5q0 51 -11 81.5
t-30.5 44t-45.5 13.5q-1 11 6.5 16t20.5 5q21 0 42 -14t35 -49t14 -99q0 -22 -3.5 -52t-14.5 -61t-34 -57.5t-60.5 -43t-94.5 -16.5zM310 -180q-7 2 -11.5 6t-6.5 8q14 14 20 27.5t6 29.5q0 13 -3.5 20.5t-9.5 12.5t-14 8q0 8 8.5 21t28.5 13q11 0 25 -8.5t14 -38.5
q0 -19 -11 -44.5t-46 -54.5z" />
    <glyph glyph-name="uni0123" unicode="&#x123;" horiz-adv-x="529" 
d="M208 -240q-41 0 -75.5 13.5t-55.5 41.5t-21 69q0 30 11.5 47.5t24.5 17.5t19 -9q-14 -8 -20 -21.5t-6 -31.5q0 -36 17.5 -58t46.5 -31.5t61 -9.5q107 0 154 66.5t47 207.5v30v33q-19 -63 -67 -99t-115 -36q-56 0 -95.5 27.5t-60 84.5t-20.5 145q0 28 4 63t15.5 70.5
t35 65.5t62 48t96.5 18q24 0 56 -4.5t64.5 -18.5t55.5 -43v-400q0 -108 -30.5 -170.5t-83 -89t-120.5 -26.5zM231 18q53 0 88 23.5t55 59.5t28.5 75.5t8.5 70.5l1 186q-21 26 -63 38.5t-92 12.5q-57 0 -91.5 -24.5t-52 -62.5t-23 -78.5t-5.5 -73.5q0 -118 38 -172.5
t108 -54.5zM280 699q8 -2 11 -4.5t5 -6.5q-13 -20 -19 -38.5t-6 -32.5q0 -15 4.5 -19.5t15.5 -6.5q0 -8 -7 -17.5t-21 -9.5q-7 0 -14.5 3.5t-12.5 12t-5 23.5q0 17 9.5 40t39.5 56z" />
    <glyph glyph-name="Hcircumflex" unicode="&#x124;" horiz-adv-x="662" 
d="M138 87q0 -30 1.5 -52.5t4.5 -34.5q-3 -3 -7 -5.5t-11 -2.5q-8 0 -12.5 6t-4.5 16l-2 586q0 30 -1.5 52.5t-4.5 34.5q3 3 7 5.5t11 2.5q8 0 13.5 -5.5t5.5 -16.5v-586zM555 87q0 -30 1.5 -52.5t4.5 -34.5q-3 -3 -7 -5.5t-11 -2.5q-8 0 -12.5 6t-4.5 16l-2 586
q0 30 -1.5 52.5t-4.5 34.5q3 3 7 5.5t11 2.5q8 0 13.5 -5.5t5.5 -16.5v-586zM130 380h411v-26h-411v26zM348 840l115 -97q-2 -4 -6.5 -9t-9.5 -7l-116 78l-117 -78q-4 2 -9 7t-7 9l115 97q6 1 12 1.5t11.5 0t11.5 -1.5z" />
    <glyph glyph-name="hcircumflex" unicode="&#x125;" horiz-adv-x="554" 
d="M115 -8q-8 0 -12.5 6t-4.5 16l-1 692q0 11 5 16.5t14 5.5q7 0 11 -2.5t7 -5.5q-2 -8 -3.5 -24.5t-2.5 -55.5l-1 -313l-13 -8q4 60 31.5 103.5t69.5 66.5t89 23q82 0 120.5 -55t38.5 -160l1 -210q0 -30 1.5 -52.5t4.5 -34.5q-3 -3 -7 -5.5t-11 -2.5q-8 0 -12.5 6t-4.5 16
l-1 284q0 93 -31 139.5t-102 46.5q-25 0 -55 -11t-57 -37.5t-44.5 -72.5t-17.5 -116v-114.5t0.5 -70.5t2 -39.5t3.5 -22.5q-3 -3 -7 -5.5t-11 -2.5zM13 724q-4 0 -13.5 2t-11.5 6l110 118q6 1 12 1.5t11.5 0t11.5 -1.5l110 -118q-4 -4 -11.5 -6t-12.5 -2l-103 92z" />
    <glyph glyph-name="Hbar" unicode="&#x126;" horiz-adv-x="662" 
d="M56 578h549q6 -12 0 -25h-549q-6 13 0 25zM138 87q0 -30 1.5 -52.5t4.5 -34.5q-3 -3 -7 -5.5t-11 -2.5q-8 0 -12.5 6t-4.5 16l-2 586q0 30 -1.5 52.5t-4.5 34.5q3 3 7 5.5t11 2.5q8 0 13.5 -5.5t5.5 -16.5v-586zM555 87q0 -30 1.5 -52.5t4.5 -34.5q-3 -3 -7 -5.5
t-11 -2.5q-8 0 -12.5 6t-4.5 16l-2 586q0 30 -1.5 52.5t-4.5 34.5q3 3 7 5.5t11 2.5q8 0 13.5 -5.5t5.5 -16.5v-586zM130 380h411v-26h-411v26z" />
    <glyph glyph-name="hbar" unicode="&#x127;" horiz-adv-x="564" 
d="M30 613h229q6 -12 0 -25h-229q-6 13 0 25zM115 -8q-8 0 -12.5 6t-4.5 16l-1 692q0 11 5 16.5t14 5.5q7 0 11 -2.5t7 -5.5q-2 -8 -3.5 -24.5t-2.5 -55.5l-1 -313l-13 -8q4 60 31.5 103.5t69.5 66.5t89 23q82 0 120.5 -55t38.5 -160l1 -210q0 -30 1.5 -52.5t4.5 -34.5
q-3 -3 -7 -5.5t-11 -2.5q-8 0 -12.5 6t-4.5 16l-1 284q0 93 -31 139.5t-102 46.5q-25 0 -55 -11t-57 -37.5t-44.5 -72.5t-17.5 -116v-114.5t0.5 -70.5t2 -39.5t3.5 -22.5q-3 -3 -7 -5.5t-11 -2.5z" />
    <glyph glyph-name="Itilde" unicode="&#x128;" horiz-adv-x="245" 
d="M126 -8q-8 0 -12.5 6t-4.5 16l-2 586q0 30 -1.5 52.5t-4.5 34.5q3 3 7 5.5t11 2.5q8 0 13.5 -5.5t5.5 -16.5v-586q0 -30 1.5 -52.5t4.5 -34.5q-3 -3 -7 -5.5t-11 -2.5zM248 805q-7 -25 -26 -41t-46 -16q-24 0 -43.5 10t-37 20t-37.5 10q-19 0 -32.5 -10t-19.5 -32
q-5 -1 -10 2.5t-9 7.5q8 32 27.5 47.5t46.5 15.5q25 0 43.5 -10t36.5 -20t40 -10q20 0 29 9.5t18 25.5q7 0 11.5 -2t8.5 -7z" />
    <glyph glyph-name="itilde" unicode="&#x129;" horiz-adv-x="223" 
d="M123 87q0 -30 1.5 -52.5t4.5 -34.5q-3 -3 -7 -5.5t-11 -2.5q-8 0 -12.5 6t-4.5 16l-2 403q0 30 -1.5 52.5t-4.5 34.5q3 3 7 5.5t11 2.5q8 0 12.5 -5.5t4.5 -16.5zM240 651q-6 -29 -25.5 -49t-48.5 -20q-27 0 -45 12.5t-34 25.5t-40 13q-19 0 -36 -11.5t-23 -34.5
q-5 -1 -10 2.5t-9 7.5q8 34 31 50.5t50 16.5q28 0 45.5 -13t34.5 -25.5t41 -12.5q21 0 31.5 13.5t17.5 33.5q7 0 11.5 -2t8.5 -7z" />
    <glyph glyph-name="Imacron" unicode="&#x12a;" horiz-adv-x="245" 
d="M126 -8q-8 0 -12.5 6t-4.5 16l-2 586q0 30 -1.5 52.5t-4.5 34.5q3 3 7 5.5t11 2.5q8 0 13.5 -5.5t5.5 -16.5v-586q0 -30 1.5 -52.5t4.5 -34.5q-3 -3 -7 -5.5t-11 -2.5zM1 796h235q6 -15 0 -30h-235q-6 15 0 30z" />
    <glyph glyph-name="imacron" unicode="&#x12b;" horiz-adv-x="223" 
d="M123 87q0 -30 1.5 -52.5t4.5 -34.5q-3 -3 -7 -5.5t-11 -2.5q-8 0 -12.5 6t-4.5 16l-2 403q0 30 -1.5 52.5t-4.5 34.5q3 3 7 5.5t11 2.5q8 0 12.5 -5.5t4.5 -16.5zM-13 627h235q6 -14 0 -28h-235q-6 14 0 28z" />
    <glyph glyph-name="Iogonek" unicode="&#x12e;" horiz-adv-x="245" 
d="M126 -8q-8 0 -12.5 6t-4.5 16l-2 586q0 30 -1.5 52.5t-4.5 34.5q3 3 7 5.5t11 2.5q8 0 13.5 -5.5t5.5 -16.5v-586q0 -30 1.5 -52.5t4.5 -34.5q-3 -3 -7 -5.5t-11 -2.5zM110 -169q-21 0 -39.5 8t-30 24.5t-11.5 41.5q0 29 15 49.5t38.5 35t48.5 22.5l11 -15
q-39 -18 -60 -37.5t-21 -50.5q0 -24 13.5 -39t39.5 -15q32 0 53.5 18.5t29.5 32.5q5 -3 7 -7.5t0 -10.5q-13 -28 -39 -42.5t-55 -14.5z" />
    <glyph glyph-name="iogonek" unicode="&#x12f;" horiz-adv-x="248" 
d="M120 626q-13 0 -23.5 10.5t-10.5 23.5q0 14 10.5 24t23.5 10q14 0 24 -10t10 -24q0 -13 -10 -23.5t-24 -10.5zM139 87q0 -30 1.5 -52.5t4.5 -34.5q-3 -3 -7 -5.5t-11 -2.5q-8 0 -12.5 6t-4.5 16l-2 403q0 30 -1.5 52.5t-4.5 34.5q3 3 7 5.5t11 2.5q8 0 12.5 -5.5
t4.5 -16.5zM109 -164q-21 0 -39.5 8t-30 24.5t-11.5 41.5q0 29 15 49.5t38.5 35t48.5 22.5l11 -15q-39 -18 -60 -37.5t-21 -50.5q0 -24 13.5 -39t39.5 -15q32 0 53.5 18.5t29.5 32.5q5 -3 7 -7.5t0 -10.5q-13 -28 -39 -42.5t-55 -14.5z" />
    <glyph glyph-name="Idotaccent" unicode="&#x130;" horiz-adv-x="245" 
d="M126 -8q-8 0 -12.5 6t-4.5 16l-2 586q0 30 -1.5 52.5t-4.5 34.5q3 3 7 5.5t11 2.5q8 0 13.5 -5.5t5.5 -16.5v-586q0 -30 1.5 -52.5t4.5 -34.5q-3 -3 -7 -5.5t-11 -2.5zM119 752q-13 0 -23.5 10.5t-10.5 23.5q0 14 10.5 24t23.5 10q14 0 24 -10t10 -24q0 -13 -10 -23.5
t-24 -10.5z" />
    <glyph glyph-name="dotlessi" unicode="&#x131;" horiz-adv-x="223" 
d="M123 87q0 -30 1.5 -52.5t4.5 -34.5q-3 -3 -7 -5.5t-11 -2.5q-8 0 -12.5 6t-4.5 16l-2 403q0 30 -1.5 52.5t-4.5 34.5q3 3 7 5.5t11 2.5q8 0 12.5 -5.5t4.5 -16.5z" />
    <glyph glyph-name="Jcircumflex" unicode="&#x134;" horiz-adv-x="419" 
d="M174 -12q-39 0 -66 14.5t-41 37.5t-14 50q0 11 6 21.5t20 10.5h1.5h1.5q-1 -6 -1.5 -11.5t-0.5 -10.5q0 -32 15.5 -50.5t37 -26t39.5 -7.5q47 0 71.5 18t34 51t9.5 79v469v19.5v19.5q-31 -1 -58.5 1t-65.5 4q-16 2 -33.5 -4t-17.5 -33q0 -16 7 -25.5t20 -15.5
q-4 -4 -9.5 -4.5t-8.5 -0.5q-14 0 -25.5 14.5t-11.5 37.5q0 20 15 37t46 17q9 0 29 -1.5t43.5 -2.5t40.5 -2q22 -1 36.5 1t25.5 3q-2 -16 -2.5 -33t-0.5 -34v-470q0 -26 -4.5 -56t-18.5 -56.5t-43 -43.5t-77 -17zM229 840l115 -97q-2 -4 -6.5 -9t-9.5 -7l-116 78l-117 -78
q-4 2 -9 7t-7 9l115 97q6 1 12 1.5t11.5 0t11.5 -1.5z" />
    <glyph glyph-name="jcircumflex" unicode="&#x135;" horiz-adv-x="238" 
d="M34 -236q-43 0 -66 19t-23 53q0 11 5.5 21.5t18.5 10.5h1.5h1.5q-1 -6 -1.5 -11.5t-0.5 -10.5q0 -24 10.5 -35.5t25 -15t26.5 -3.5q35 0 53 15.5t25 44t7 68.5l1 497q0 29 -1.5 52t-4.5 35q3 3 7 5.5t11 2.5q8 0 12.5 -5.5t4.5 -16.5l1 -573q0 -23 -3.5 -49.5t-15 -50
t-34.5 -38.5t-61 -15zM27 556q-4 0 -13.5 2t-11.5 6l110 118q6 1 12 1.5t11.5 0t11.5 -1.5l110 -118q-4 -4 -11.5 -6t-12.5 -2l-103 92z" />
    <glyph glyph-name="uni0136" unicode="&#x136;" horiz-adv-x="554" 
d="M494 -8q-11 0 -23 6.5t-22 18.5t-15 28l-55 176q-9 23 -20.5 43.5t-32.5 36.5t-58 25t-97 9h-40l-1 26h20.5h20.5q60 0 106.5 23.5t78.5 61.5t48 82t16 86q0 31 -6.5 48t-11.5 25q5 5 10 8.5t10 3.5q8 0 14.5 -8t11 -25t4.5 -45q0 -52 -21 -108t-67 -101.5t-123 -67.5
l6 11q75 -7 111 -43.5t52 -88.5l50 -162q8 -24 17.5 -32.5t20.5 -8.5q5 0 15.5 3t17.5 14q5 -6 5 -15q0 -16 -15.5 -23t-26.5 -7zM126 -8q-8 0 -12.5 6t-4.5 16l-2 586q0 30 -1.5 52.5t-4.5 34.5q3 3 7 5.5t11 2.5q8 0 12.5 -5.5t4.5 -16.5l2 -586q0 -30 1.5 -52.5
t4.5 -34.5q-3 -3 -7 -5.5t-11 -2.5zM269 -180q-7 2 -11.5 6t-6.5 8q14 14 20 27.5t6 29.5q0 13 -3.5 20.5t-9.5 12.5t-14 8q0 8 8.5 21t28.5 13q11 0 25 -8.5t14 -38.5q0 -19 -11 -44.5t-46 -54.5z" />
    <glyph glyph-name="uni0137" unicode="&#x137;" horiz-adv-x="540" 
d="M115 -8q-8 0 -12.5 6t-4.5 16l-1 692q0 11 5 16.5t14 5.5q7 0 11 -2.5t7 -5.5q-1 -3 -2 -11t-2 -19t-1.5 -24t-0.5 -26l-1 -328l-5 3q13 59 44 103t76 69t100 25t88.5 -29.5t33.5 -87.5q0 -41 -19.5 -73t-50 -54.5t-65.5 -38.5q5 -6 8.5 -12t7.5 -12l88 -158
q8 -14 16 -20.5t19 -6.5q5 0 13.5 3t15.5 14q3 -4 4 -7.5t1 -7.5q0 -16 -14.5 -23t-25.5 -7q-17 0 -31 12t-22 27l-105 187q-46 -18 -93 -32.5t-84 -24.5v-78t1 -44t2 -23t3 -16q-3 -3 -7 -5.5t-11 -2.5zM127 185q57 17 112 35.5t99 42.5t70 56t26 75q0 48 -26.5 69
t-67.5 21q-66 0 -113.5 -37.5t-73.5 -104.5t-26 -157zM257 -180q-7 2 -11.5 6t-6.5 8q14 14 20 27.5t6 29.5q0 13 -3.5 20.5t-9.5 12.5t-14 8q0 8 8.5 21t28.5 13q11 0 25 -8.5t14 -38.5q0 -19 -11 -44.5t-46 -54.5z" />
    <glyph glyph-name="kgreenlandic" unicode="&#x138;" horiz-adv-x="563" 
d="M476 -8q-17 0 -34.5 14t-25.5 39l-30 106q-8 27 -22.5 47t-47.5 31.5t-98 11.5h-100l-1 26h46h45q65 0 111 24.5t70 63t24 78.5q0 23 -4.5 41.5t-9.5 25.5q3 7 9 9.5t11 2.5q9 0 15 -9.5t8.5 -26t2.5 -36.5q0 -42 -18.5 -81t-56.5 -67.5t-97 -39.5l6 9q45 -3 72 -16.5
t42 -36.5t24 -55l25 -92q7 -25 17 -33t21 -8q10 0 19.5 4.5t13.5 12.5q3 -4 4 -7.5t1 -6.5q0 -16 -15.5 -23.5t-26.5 -7.5zM113 -8q-8 0 -13.5 6t-5.5 16v403q0 30 -1.5 52.5t-4.5 34.5q3 3 8 5.5t12 2.5q8 0 12.5 -5.5t4.5 -16.5v-403q0 -30 1.5 -52.5t4.5 -34.5
q-3 -3 -7 -5.5t-11 -2.5z" />
    <glyph glyph-name="Lacute" unicode="&#x139;" horiz-adv-x="456" 
d="M136 673l2 -648q46 0 91.5 0.5t91.5 0.5h92q4 -1 6 -5.5t2 -9t-1.5 -8t-6.5 -3.5h-287q-8 0 -12.5 6t-4.5 16l-2 578q0 30 -1.5 52.5t-4.5 34.5q3 3 7 5.5t11 2.5q8 0 12.5 -5.5t4.5 -16.5zM276 809l-150 -83q-4 2 -8 8t-5 10l129 97q7 -3 13.5 -7.5t11.5 -10.5t9 -14z
" />
    <glyph glyph-name="lacute" unicode="&#x13a;" horiz-adv-x="250" 
d="M164 -10q-31 0 -50.5 21.5t-19.5 61.5v633q0 11 5 16.5t14 5.5q7 0 11 -2.5t7 -5.5q-4 -11 -5 -58.5t-1 -137.5l-1 -453q0 -25 10.5 -39t30.5 -14q14 0 26 7t18 20q5 -6 7 -11t2 -10q0 -16 -16.5 -25t-37.5 -9zM241 894l-111 -132q-5 -1 -14 0t-11 5l91 140
q10 0 17.5 -1.5t14 -4t13.5 -7.5z" />
    <glyph glyph-name="uni013B" unicode="&#x13b;" horiz-adv-x="456" 
d="M136 673l2 -648q46 0 91.5 0.5t91.5 0.5h92q4 -1 6 -5.5t2 -9t-1.5 -8t-6.5 -3.5h-287q-8 0 -12.5 6t-4.5 16l-2 578q0 30 -1.5 52.5t-4.5 34.5q3 3 7 5.5t11 2.5q8 0 12.5 -5.5t4.5 -16.5zM249 -180q-7 2 -11.5 6t-6.5 8q14 14 20 27.5t6 29.5q0 13 -3.5 20.5t-9.5 12.5
t-14 8q0 8 8.5 21t28.5 13q11 0 25 -8.5t14 -38.5q0 -19 -11 -44.5t-46 -54.5z" />
    <glyph glyph-name="uni013C" unicode="&#x13c;" horiz-adv-x="250" 
d="M164 -10q-31 0 -50.5 21.5t-19.5 61.5v633q0 11 5 16.5t14 5.5q7 0 11 -2.5t7 -5.5q-4 -11 -5 -58.5t-1 -137.5l-1 -453q0 -25 10.5 -39t30.5 -14q14 0 26 7t18 20q5 -6 7 -11t2 -10q0 -16 -16.5 -25t-37.5 -9zM144 -180q-7 2 -11.5 6t-6.5 8q14 14 20 27.5t6 29.5
q0 13 -3.5 20.5t-9.5 12.5t-14 8q0 8 8.5 21t28.5 13q11 0 25 -8.5t14 -38.5q0 -19 -11 -44.5t-46 -54.5z" />
    <glyph glyph-name="Lcaron" unicode="&#x13d;" horiz-adv-x="456" 
d="M136 673l2 -648q46 0 91.5 0.5t91.5 0.5h92q4 -1 6 -5.5t2 -9t-1.5 -8t-6.5 -3.5h-287q-8 0 -12.5 6t-4.5 16l-2 578q0 30 -1.5 52.5t-4.5 34.5q3 3 7 5.5t11 2.5q8 0 12.5 -5.5t4.5 -16.5zM258 607q2 28 0.5 57t-6.5 60q8 2 17 2t17 -2q2 -29 0.5 -58.5t-6.5 -58.5h-22z
" />
    <glyph glyph-name="lcaron" unicode="&#x13e;" horiz-adv-x="266" 
d="M164 -10q-31 0 -50.5 21.5t-19.5 61.5v633q0 11 5 16.5t14 5.5q7 0 11 -2.5t7 -5.5q-4 -11 -5 -58.5t-1 -137.5l-1 -453q0 -25 10.5 -39t30.5 -14q14 0 26 7t18 20q5 -6 7 -11t2 -10q0 -16 -16.5 -25t-37.5 -9zM205 606q2 28 0.5 57t-6.5 60q8 2 17 2t17 -2
q2 -29 0.5 -58.5t-6.5 -58.5h-22z" />
    <glyph glyph-name="Ldot" unicode="&#x13f;" horiz-adv-x="456" 
d="M136 673l2 -648q46 0 91.5 0.5t91.5 0.5h92q4 -1 6 -5.5t2 -9t-1.5 -8t-6.5 -3.5h-287q-8 0 -12.5 6t-4.5 16l-2 578q0 30 -1.5 52.5t-4.5 34.5q3 3 7 5.5t11 2.5q8 0 12.5 -5.5t4.5 -16.5zM335 273q-13 0 -23.5 10.5t-10.5 23.5q0 14 10.5 24t23.5 10q14 0 24 -10
t10 -24q0 -13 -10 -23.5t-24 -10.5z" />
    <glyph glyph-name="ldot" unicode="&#x140;" horiz-adv-x="250" 
d="M164 -10q-31 0 -50.5 21.5t-19.5 61.5v633q0 11 5 16.5t14 5.5q7 0 11 -2.5t7 -5.5q-4 -11 -5 -58.5t-1 -137.5l-1 -453q0 -25 10.5 -39t30.5 -14q14 0 26 7t18 20q5 -6 7 -11t2 -10q0 -16 -16.5 -25t-37.5 -9zM264 296q-13 0 -23.5 10.5t-10.5 23.5q0 14 10.5 24
t23.5 10q14 0 24 -10t10 -24q0 -13 -10 -23.5t-24 -10.5z" />
    <glyph glyph-name="Lslash" unicode="&#x141;" horiz-adv-x="456" 
d="M37 186l222 221q14 -4 18 -18l-222 -220q-15 3 -18 17zM136 673l2 -648q46 0 91.5 0.5t91.5 0.5h92q4 -1 6 -5.5t2 -9t-1.5 -8t-6.5 -3.5h-287q-8 0 -12.5 6t-4.5 16l-2 578q0 30 -1.5 52.5t-4.5 34.5q3 3 7 5.5t11 2.5q8 0 12.5 -5.5t4.5 -16.5z" />
    <glyph glyph-name="lslash" unicode="&#x142;" horiz-adv-x="251" 
d="M15 178l173 242l20 -15l-173 -241zM164 -10q-31 0 -50.5 21.5t-19.5 61.5v633q0 11 5 16.5t14 5.5q7 0 11 -2.5t7 -5.5q-4 -11 -5 -58.5t-1 -137.5l-1 -453q0 -25 10.5 -39t30.5 -14q14 0 26 7t18 20q5 -6 7 -11t2 -10q0 -16 -16.5 -25t-37.5 -9z" />
    <glyph glyph-name="Nacute" unicode="&#x143;" horiz-adv-x="667" 
d="M121 -8q-7 0 -11 2.5t-7 5.5q3 12 4.5 34.5t1.5 52.5l-2 503q0 30 -1.5 57.5t-4.5 39.5q6 5 13 5.5t12.5 -1t6.5 -3.5q28 -42 67 -103.5t83 -132.5t89.5 -143.5t87 -139t75.5 -116.5l-2 547q0 30 -1.5 52.5t-4.5 34.5q3 3 7 5.5t11 2.5q8 0 12.5 -5.5t4.5 -16.5l2 -586
q0 -30 0.5 -52.5t1.5 -34.5q-2 -3 -7 -4.5t-9.5 -1.5t-7.5 1q-17 24 -46 68t-66 101t-77 120.5t-79.5 126.5t-75 119.5t-62.5 98.5l2 -615q0 -10 -4.5 -16t-12.5 -6zM472 810l-150 -83q-4 2 -8 8t-5 10l129 97q7 -3 13.5 -7.5t11.5 -10.5t9 -14z" />
    <glyph glyph-name="nacute" unicode="&#x144;" horiz-adv-x="562" 
d="M121 -8q-9 0 -13.5 6t-4.5 16v418q-1 28 -7.5 39t-22.5 11q-6 0 -14 -3t-13 -15q-10 11 -10 22t11 17.5t29 6.5q31 0 44 -20t13 -59v-104l-13 -8q4 60 31.5 103.5t69.5 66.5t89 23q83 0 122 -55t39 -160v-210q1 -30 2.5 -52.5t4.5 -34.5q-3 -3 -7 -5.5t-11 -2.5
q-9 0 -14 6t-5 16v284q-1 93 -32 139.5t-102 46.5q-25 0 -55 -11t-57 -37.5t-44.5 -72.5t-17.5 -116v-114.5t0.5 -70.5t2 -39.5t3.5 -22.5q-3 -3 -7 -5.5t-11 -2.5zM396 689l-111 -132q-5 -1 -14 0t-11 5l91 140q10 0 17.5 -1.5t14 -4t13.5 -7.5z" />
    <glyph glyph-name="uni0145" unicode="&#x145;" horiz-adv-x="667" 
d="M121 -8q-7 0 -11 2.5t-7 5.5q3 12 4.5 34.5t1.5 52.5l-2 503q0 30 -1.5 57.5t-4.5 39.5q6 5 13 5.5t12.5 -1t6.5 -3.5q28 -42 67 -103.5t83 -132.5t89.5 -143.5t87 -139t75.5 -116.5l-2 547q0 30 -1.5 52.5t-4.5 34.5q3 3 7 5.5t11 2.5q8 0 12.5 -5.5t4.5 -16.5l2 -586
q0 -30 0.5 -52.5t1.5 -34.5q-2 -3 -7 -4.5t-9.5 -1.5t-7.5 1q-17 24 -46 68t-66 101t-77 120.5t-79.5 126.5t-75 119.5t-62.5 98.5l2 -615q0 -10 -4.5 -16t-12.5 -6zM322 -180q-7 2 -11.5 6t-6.5 8q14 14 20 27.5t6 29.5q0 13 -3.5 20.5t-9.5 12.5t-14 8q0 8 8.5 21t28.5 13
q11 0 25 -8.5t14 -38.5q0 -19 -11 -44.5t-46 -54.5z" />
    <glyph glyph-name="uni0146" unicode="&#x146;" horiz-adv-x="562" 
d="M121 -8q-9 0 -13.5 6t-4.5 16v418q-1 28 -7.5 39t-22.5 11q-6 0 -14 -3t-13 -15q-10 11 -10 22t11 17.5t29 6.5q31 0 44 -20t13 -59v-104l-13 -8q4 60 31.5 103.5t69.5 66.5t89 23q83 0 122 -55t39 -160v-210q1 -30 2.5 -52.5t4.5 -34.5q-3 -3 -7 -5.5t-11 -2.5
q-9 0 -14 6t-5 16v284q-1 93 -32 139.5t-102 46.5q-25 0 -55 -11t-57 -37.5t-44.5 -72.5t-17.5 -116v-114.5t0.5 -70.5t2 -39.5t3.5 -22.5q-3 -3 -7 -5.5t-11 -2.5zM271 -180q-7 2 -11.5 6t-6.5 8q14 14 20 27.5t6 29.5q0 13 -3.5 20.5t-9.5 12.5t-14 8q0 8 8.5 21t28.5 13
q11 0 25 -8.5t14 -38.5q0 -19 -11 -44.5t-46 -54.5z" />
    <glyph glyph-name="Ncaron" unicode="&#x147;" horiz-adv-x="667" 
d="M121 -8q-7 0 -11 2.5t-7 5.5q3 12 4.5 34.5t1.5 52.5l-2 503q0 30 -1.5 57.5t-4.5 39.5q6 5 13 5.5t12.5 -1t6.5 -3.5q28 -42 67 -103.5t83 -132.5t89.5 -143.5t87 -139t75.5 -116.5l-2 547q0 30 -1.5 52.5t-4.5 34.5q3 3 7 5.5t11 2.5q8 0 12.5 -5.5t4.5 -16.5l2 -586
q0 -30 0.5 -52.5t1.5 -34.5q-2 -3 -7 -4.5t-9.5 -1.5t-7.5 1q-17 24 -46 68t-66 101t-77 120.5t-79.5 126.5t-75 119.5t-62.5 98.5l2 -615q0 -10 -4.5 -16t-12.5 -6zM348 731q-6 -1 -11.5 -1.5t-11.5 0t-12 1.5l-115 97q2 5 7 9.5t9 6.5l117 -78l116 78q5 -2 9.5 -6.5
t6.5 -9.5z" />
    <glyph glyph-name="ncaron" unicode="&#x148;" horiz-adv-x="562" 
d="M121 -8q-9 0 -13.5 6t-4.5 16v418q-1 28 -7.5 39t-22.5 11q-6 0 -14 -3t-13 -15q-10 11 -10 22t11 17.5t29 6.5q31 0 44 -20t13 -59v-104l-13 -8q4 60 31.5 103.5t69.5 66.5t89 23q83 0 122 -55t39 -160v-210q1 -30 2.5 -52.5t4.5 -34.5q-3 -3 -7 -5.5t-11 -2.5
q-9 0 -14 6t-5 16v284q-1 93 -32 139.5t-102 46.5q-25 0 -55 -11t-57 -37.5t-44.5 -72.5t-17.5 -116v-114.5t0.5 -70.5t2 -39.5t3.5 -22.5q-3 -3 -7 -5.5t-11 -2.5zM181 687l103 -92l103 92q5 0 12.5 -1.5t11.5 -6.5l-110 -118q-6 -1 -11.5 -1.5t-11.5 0t-12 1.5l-110 118
q2 5 11.5 6.5t13.5 1.5z" />
    <glyph glyph-name="napostrophe" unicode="&#x149;" horiz-adv-x="630" 
d="M10 590l6 -117h22l6 117q-8 2 -17 2t-17 -2zM151 -8q-9 0 -13.5 6t-4.5 16v418q-1 28 -7.5 39t-22.5 11q-6 0 -14 -3t-13 -15q-10 11 -10 22t11 17.5t29 6.5q31 0 44 -20t13 -59v-104l-13 -8q4 60 31.5 103.5t69.5 66.5t89 23q83 0 122 -55t39 -160v-210q1 -30 2.5 -52.5
t4.5 -34.5q-3 -3 -7 -5.5t-11 -2.5q-9 0 -14 6t-5 16v284q-1 93 -32 139.5t-102 46.5q-25 0 -55 -11t-57 -37.5t-44.5 -72.5t-17.5 -116v-114.5t0.5 -70.5t2 -39.5t3.5 -22.5q-3 -3 -7 -5.5t-11 -2.5z" />
    <glyph glyph-name="Omacron" unicode="&#x14c;" horiz-adv-x="638" 
d="M319 -12q-118 0 -183.5 86.5t-65.5 269.5t65.5 269.5t183.5 86.5t183.5 -86.5t65.5 -269.5t-65.5 -269.5t-183.5 -86.5zM319 16q102 0 159.5 79.5t57.5 248.5q0 170 -57.5 249t-159.5 79t-159.5 -79t-57.5 -249q0 -169 57.5 -248.5t159.5 -79.5zM201 796h235q6 -15 0 -30
h-235q-6 15 0 30z" />
    <glyph glyph-name="omacron" unicode="&#x14d;" horiz-adv-x="534" 
d="M267 -12q-101 0 -157.5 69t-56.5 193t56.5 193t157.5 69t157.5 -69t56.5 -193t-56.5 -193t-157.5 -69zM267 16q86 0 134 62t48 172t-48 172t-134 62q-85 0 -133.5 -62t-48.5 -172t48.5 -172t133.5 -62zM149 627h235q6 -14 0 -28h-235q-6 14 0 28z" />
    <glyph glyph-name="Ohungarumlaut" unicode="&#x150;" horiz-adv-x="638" 
d="M319 -12q-118 0 -183.5 86.5t-65.5 269.5t65.5 269.5t183.5 86.5t183.5 -86.5t65.5 -269.5t-65.5 -269.5t-183.5 -86.5zM319 16q102 0 159.5 79.5t57.5 248.5q0 170 -57.5 249t-159.5 79t-159.5 -79t-57.5 -249q0 -169 57.5 -248.5t159.5 -79.5zM399 832l-128 -104
q-5 2 -9.5 6.5t-6.5 8.5l105 114q8 -2 14.5 -5t13 -8t11.5 -12zM506 830l-129 -104q-4 2 -8.5 6.5t-6.5 8.5l105 114q8 -2 14.5 -5t13 -8t11.5 -12z" />
    <glyph glyph-name="ohungarumlaut" unicode="&#x151;" horiz-adv-x="534" 
d="M267 -12q-101 0 -157.5 69t-56.5 193t56.5 193t157.5 69t157.5 -69t56.5 -193t-56.5 -193t-157.5 -69zM267 16q86 0 134 62t48 172t-48 172t-134 62q-85 0 -133.5 -62t-48.5 -172t48.5 -172t133.5 -62zM347 694l-139 -157q-5 2 -10.5 5.5t-8.5 7.5l115 162q12 -1 22.5 -5
t20.5 -13zM473 694l-139 -157q-5 2 -10.5 5.5t-8.5 7.5l115 162q12 -1 22.5 -5t20.5 -13z" />
    <glyph glyph-name="OE" unicode="&#x152;" horiz-adv-x="869" 
d="M475 44q-15 -14 -32.5 -24.5t-37 -17.5t-41 -10.5t-45.5 -3.5q-118 0 -183.5 86.5t-65.5 269.5t65.5 269.5t183.5 86.5q31 0 58 -5.5t50.5 -17t42.5 -28.5l-3 -41q-18 22 -41 36t-49.5 21t-57.5 7q-102 0 -159.5 -79t-57.5 -249q0 -169 57.5 -248.5t159.5 -79.5
q48 0 86 17t66 52zM472 0q-8 0 -12.5 6t-4.5 16l-2 578q0 30 -1.5 49t-4.5 31q3 4 7 6t11 2h314q5 0 7 -3.5t1 -8.5t-4 -9t-7 -5h-146.5h-147.5l2 -637q51 0 102 0.5t101.5 0.5h101.5q4 -1 6 -5.5t2 -9t-1.5 -8t-6.5 -3.5h-317zM477 354v26h280q2 -7 2 -13t-2 -13h-280z" />
    <glyph glyph-name="oe" unicode="&#x153;" horiz-adv-x="893" 
d="M267 -12q-101 0 -157.5 69t-56.5 193t56.5 193t157.5 69q77 0 129.5 -41.5t72.5 -117.5l-6 1q21 74 74 116t135 42q50 0 86 -16t56 -46.5t20 -74.5q0 -76 -61 -113.5t-176 -37.5q-36 0 -64 3t-52 7q3 -83 29.5 -130.5t68.5 -67t88 -19.5q52 0 97.5 23t58.5 75
q9 -4 13 -13t-5 -30q-19 -43 -64.5 -63.5t-102.5 -20.5q-77 0 -130 38.5t-73 114.5h6q-21 -73 -72.5 -113t-127.5 -40zM267 16q86 0 134 62t48 172t-48 172t-134 62q-85 0 -133.5 -62t-48.5 -172t48.5 -172t133.5 -62zM481 259q29 -4 64.5 -7t63.5 -3q63 0 106.5 14t65.5 42
t22 70q0 43 -20 66.5t-50.5 33.5t-62.5 10q-54 0 -96 -24.5t-66.5 -74.5t-26.5 -127z" />
    <glyph glyph-name="Racute" unicode="&#x154;" horiz-adv-x="572" 
d="M127 -8q-9 0 -13.5 6t-5.5 16v586q0 5 -0.5 22.5t-2 37t-4.5 27.5q2 2 25.5 7.5t82.5 5.5q140 0 202.5 -45.5t62.5 -149.5q0 -52 -21 -92.5t-57.5 -66t-83.5 -34.5l-5 9q33 0 54 -17.5t35 -44.5t26 -57l57 -141q10 -24 18.5 -32.5t19.5 -8.5q5 0 15.5 3t17.5 14
q3 -4 4 -7.5t1 -7.5q0 -10 -7.5 -17t-17 -10t-17.5 -3q-11 0 -22.5 6.5t-21 18.5t-16.5 28l-62 155q-10 25 -22.5 48.5t-39.5 38.5t-80 15h-118l-7 27q23 -1 53 -1h72q50 0 94 19.5t71.5 58t27.5 94.5q0 99 -56.5 136.5t-179.5 37.5q-25 0 -42 -1t-26 -3v-583q0 -4 0.5 -22
t2.5 -37t4 -28q-3 -3 -7 -5.5t-11 -2.5zM392 810l-150 -83q-4 2 -8 8t-5 10l129 97q7 -3 13.5 -7.5t11.5 -10.5t9 -14z" />
    <glyph glyph-name="racute" unicode="&#x155;" horiz-adv-x="413" 
d="M120 -8q-8 0 -12.5 6t-4.5 16v418q0 28 -7 39t-23 11q-6 0 -14 -3t-13 -15q-10 11 -10 22t11 17.5t29 6.5q30 0 43 -21t13 -62v-100l-12 -8q6 93 46 143t100 50q45 0 73.5 -23.5t28.5 -70.5q0 -28 -12.5 -45t-24.5 -19q-7 -1 -12 1q14 17 17 31.5t3 27.5q0 38 -19.5 54
t-53.5 16q-29 0 -60 -20.5t-51.5 -72t-20.5 -144.5v-114.5t0.5 -70.5t1.5 -39.5t3 -22.5q-3 -3 -7.5 -5.5t-11.5 -2.5zM299 689l-111 -132q-5 -1 -14 0t-11 5l91 140q10 0 17.5 -1.5t14 -4t13.5 -7.5z" />
    <glyph glyph-name="uni0156" unicode="&#x156;" horiz-adv-x="572" 
d="M127 -8q-9 0 -13.5 6t-5.5 16v586q0 5 -0.5 22.5t-2 37t-4.5 27.5q2 2 25.5 7.5t82.5 5.5q140 0 202.5 -45.5t62.5 -149.5q0 -52 -21 -92.5t-57.5 -66t-83.5 -34.5l-5 9q33 0 54 -17.5t35 -44.5t26 -57l57 -141q10 -24 18.5 -32.5t19.5 -8.5q5 0 15.5 3t17.5 14
q3 -4 4 -7.5t1 -7.5q0 -10 -7.5 -17t-17 -10t-17.5 -3q-11 0 -22.5 6.5t-21 18.5t-16.5 28l-62 155q-10 25 -22.5 48.5t-39.5 38.5t-80 15h-118l-7 27q23 -1 53 -1h72q50 0 94 19.5t71.5 58t27.5 94.5q0 99 -56.5 136.5t-179.5 37.5q-25 0 -42 -1t-26 -3v-583q0 -4 0.5 -22
t2.5 -37t4 -28q-3 -3 -7 -5.5t-11 -2.5zM274 -180q-7 2 -11.5 6t-6.5 8q14 14 20 27.5t6 29.5q0 13 -3.5 20.5t-9.5 12.5t-14 8q0 8 8.5 21t28.5 13q11 0 25 -8.5t14 -38.5q0 -19 -11 -44.5t-46 -54.5z" />
    <glyph glyph-name="uni0157" unicode="&#x157;" horiz-adv-x="413" 
d="M120 -8q-8 0 -12.5 6t-4.5 16v418q0 28 -7 39t-23 11q-6 0 -14 -3t-13 -15q-10 11 -10 22t11 17.5t29 6.5q30 0 43 -21t13 -62v-100l-12 -8q6 93 46 143t100 50q45 0 73.5 -23.5t28.5 -70.5q0 -28 -12.5 -45t-24.5 -19q-7 -1 -12 1q14 17 17 31.5t3 27.5q0 38 -19.5 54
t-53.5 16q-29 0 -60 -20.5t-51.5 -72t-20.5 -144.5v-114.5t0.5 -70.5t1.5 -39.5t3 -22.5q-3 -3 -7.5 -5.5t-11.5 -2.5zM107 -180q-7 2 -11.5 6t-6.5 8q14 14 20 27.5t6 29.5q0 13 -3.5 20.5t-9.5 12.5t-14 8q0 8 8.5 21t28.5 13q11 0 25 -8.5t14 -38.5q0 -19 -11 -44.5
t-46 -54.5z" />
    <glyph glyph-name="Rcaron" unicode="&#x158;" horiz-adv-x="572" 
d="M127 -8q-9 0 -13.5 6t-5.5 16v586q0 5 -0.5 22.5t-2 37t-4.5 27.5q2 2 25.5 7.5t82.5 5.5q140 0 202.5 -45.5t62.5 -149.5q0 -52 -21 -92.5t-57.5 -66t-83.5 -34.5l-5 9q33 0 54 -17.5t35 -44.5t26 -57l57 -141q10 -24 18.5 -32.5t19.5 -8.5q5 0 15.5 3t17.5 14
q3 -4 4 -7.5t1 -7.5q0 -10 -7.5 -17t-17 -10t-17.5 -3q-11 0 -22.5 6.5t-21 18.5t-16.5 28l-62 155q-10 25 -22.5 48.5t-39.5 38.5t-80 15h-118l-7 27q23 -1 53 -1h72q50 0 94 19.5t71.5 58t27.5 94.5q0 99 -56.5 136.5t-179.5 37.5q-25 0 -42 -1t-26 -3v-583q0 -4 0.5 -22
t2.5 -37t4 -28q-3 -3 -7 -5.5t-11 -2.5zM268 731q-6 -1 -11.5 -1.5t-11.5 0t-12 1.5l-115 97q2 5 7 9.5t9 6.5l117 -78l116 78q5 -2 9.5 -6.5t6.5 -9.5z" />
    <glyph glyph-name="rcaron" unicode="&#x159;" horiz-adv-x="413" 
d="M120 -8q-8 0 -12.5 6t-4.5 16v418q0 28 -7 39t-23 11q-6 0 -14 -3t-13 -15q-10 11 -10 22t11 17.5t29 6.5q30 0 43 -21t13 -62v-100l-12 -8q6 93 46 143t100 50q45 0 73.5 -23.5t28.5 -70.5q0 -28 -12.5 -45t-24.5 -19q-7 -1 -12 1q14 17 17 31.5t3 27.5q0 38 -19.5 54
t-53.5 16q-29 0 -60 -20.5t-51.5 -72t-20.5 -144.5v-114.5t0.5 -70.5t1.5 -39.5t3 -22.5q-3 -3 -7.5 -5.5t-11.5 -2.5zM84 687l103 -92l103 92q5 0 12.5 -1.5t11.5 -6.5l-110 -118q-6 -1 -11.5 -1.5t-11.5 0t-12 1.5l-110 118q2 5 11.5 6.5t13.5 1.5z" />
    <glyph glyph-name="Sacute" unicode="&#x15a;" horiz-adv-x="543" 
d="M276 -12q-75 0 -121 21.5t-67.5 57t-21.5 75.5q0 16 3.5 26.5t12 15t22.5 2.5q-2 -7 -3.5 -14t-1.5 -19q0 -47 22.5 -77.5t62 -45t90.5 -14.5q81 0 129.5 35t48.5 104q0 45 -21.5 77t-61.5 60t-98 59q-52 29 -93 55.5t-64.5 60.5t-23.5 83q0 53 26 86t69.5 48.5
t94.5 15.5q83 0 134 -35.5t51 -94.5q0 -12 -2.5 -19t-10.5 -12q-9 -5 -24 -1q4 7 5 13.5t1 12.5q0 38 -21.5 61.5t-57 35t-77.5 11.5q-39 0 -74.5 -11t-58.5 -36.5t-23 -70.5q0 -48 25.5 -79.5t64 -54t76.5 -43.5q61 -32 104.5 -63.5t67.5 -69.5t24 -89q0 -28 -9 -57.5
t-32 -54t-63.5 -40t-103.5 -15.5zM412 810l-150 -83q-4 2 -8 8t-5 10l129 97q7 -3 13.5 -7.5t11.5 -10.5t9 -14z" />
    <glyph glyph-name="sacute" unicode="&#x15b;" horiz-adv-x="460" 
d="M227 -12q-66 0 -106 17.5t-58 46.5t-18 62q0 16 4 25.5t12 14t21 2.5q-3 -7 -4.5 -14t-1.5 -18q0 -56 41.5 -82t106.5 -26q70 0 114 24.5t44 70.5q0 38 -24 59.5t-61 37t-76 34.5t-73.5 37.5t-56.5 46.5t-22 74q0 41 22.5 66t59.5 36t80 11q83 0 124.5 -28t41.5 -75
q0 -11 -2.5 -18.5t-10.5 -12.5q-4 -3 -10 -3t-13 2q3 7 4 13.5t1 12.5q0 42 -36.5 61.5t-100.5 19.5q-33 0 -62.5 -7.5t-47.5 -25.5t-18 -49q0 -38 19 -61.5t50.5 -39.5t66.5 -33q31 -14 62 -27.5t57 -30t42 -40t16 -58.5q0 -27 -15.5 -56t-55.5 -49t-116 -20zM343 689
l-111 -132q-5 -1 -14 0t-11 5l91 140q10 0 17.5 -1.5t14 -4t13.5 -7.5z" />
    <glyph glyph-name="Scircumflex" unicode="&#x15c;" horiz-adv-x="543" 
d="M276 -12q-75 0 -121 21.5t-67.5 57t-21.5 75.5q0 16 3.5 26.5t12 15t22.5 2.5q-2 -7 -3.5 -14t-1.5 -19q0 -47 22.5 -77.5t62 -45t90.5 -14.5q81 0 129.5 35t48.5 104q0 45 -21.5 77t-61.5 60t-98 59q-52 29 -93 55.5t-64.5 60.5t-23.5 83q0 53 26 86t69.5 48.5
t94.5 15.5q83 0 134 -35.5t51 -94.5q0 -12 -2.5 -19t-10.5 -12q-9 -5 -24 -1q4 7 5 13.5t1 12.5q0 38 -21.5 61.5t-57 35t-77.5 11.5q-39 0 -74.5 -11t-58.5 -36.5t-23 -70.5q0 -48 25.5 -79.5t64 -54t76.5 -43.5q61 -32 104.5 -63.5t67.5 -69.5t24 -89q0 -28 -9 -57.5
t-32 -54t-63.5 -40t-103.5 -15.5zM289 840l115 -97q-2 -4 -6.5 -9t-9.5 -7l-116 78l-117 -78q-4 2 -9 7t-7 9l115 97q6 1 12 1.5t11.5 0t11.5 -1.5z" />
    <glyph glyph-name="scircumflex" unicode="&#x15d;" horiz-adv-x="460" 
d="M227 -12q-66 0 -106 17.5t-58 46.5t-18 62q0 16 4 25.5t12 14t21 2.5q-3 -7 -4.5 -14t-1.5 -18q0 -56 41.5 -82t106.5 -26q70 0 114 24.5t44 70.5q0 38 -24 59.5t-61 37t-76 34.5t-73.5 37.5t-56.5 46.5t-22 74q0 41 22.5 66t59.5 36t80 11q83 0 124.5 -28t41.5 -75
q0 -11 -2.5 -18.5t-10.5 -12.5q-4 -3 -10 -3t-13 2q3 7 4 13.5t1 12.5q0 42 -36.5 61.5t-100.5 19.5q-33 0 -62.5 -7.5t-47.5 -25.5t-18 -49q0 -38 19 -61.5t50.5 -39.5t66.5 -33q31 -14 62 -27.5t57 -30t42 -40t16 -58.5q0 -27 -15.5 -56t-55.5 -49t-116 -20zM127 556
q-4 0 -13.5 2t-11.5 6l110 118q6 1 12 1.5t11.5 0t11.5 -1.5l110 -118q-4 -4 -11.5 -6t-12.5 -2l-103 92z" />
    <glyph glyph-name="Scedilla" unicode="&#x15e;" horiz-adv-x="543" 
d="M276 -12q-75 0 -121 21.5t-67.5 57t-21.5 75.5q0 16 3.5 26.5t12 15t22.5 2.5q-2 -7 -3.5 -14t-1.5 -19q0 -47 22.5 -77.5t62 -45t90.5 -14.5q81 0 129.5 35t48.5 104q0 45 -21.5 77t-61.5 60t-98 59q-52 29 -93 55.5t-64.5 60.5t-23.5 83q0 53 26 86t69.5 48.5
t94.5 15.5q83 0 134 -35.5t51 -94.5q0 -12 -2.5 -19t-10.5 -12q-9 -5 -24 -1q4 7 5 13.5t1 12.5q0 38 -21.5 61.5t-57 35t-77.5 11.5q-39 0 -74.5 -11t-58.5 -36.5t-23 -70.5q0 -48 25.5 -79.5t64 -54t76.5 -43.5q61 -32 104.5 -63.5t67.5 -69.5t24 -89q0 -28 -9 -57.5
t-32 -54t-63.5 -40t-103.5 -15.5zM285 0l-9 -41q39 0 59.5 -19.5t20.5 -50.5q0 -36 -25 -57t-61 -21q-30 0 -48.5 8.5t-29.5 19.5q-1 6 3.5 12.5t8.5 9.5q8 -6 21.5 -14t40.5 -8q25 0 41 11.5t16 36.5q0 22 -16 37t-66 11l14 65h30z" />
    <glyph glyph-name="scedilla" unicode="&#x15f;" horiz-adv-x="460" 
d="M227 -12q-66 0 -106 17.5t-58 46.5t-18 62q0 16 4 25.5t12 14t21 2.5q-3 -7 -4.5 -14t-1.5 -18q0 -56 41.5 -82t106.5 -26q70 0 114 24.5t44 70.5q0 38 -24 59.5t-61 37t-76 34.5t-73.5 37.5t-56.5 46.5t-22 74q0 41 22.5 66t59.5 36t80 11q83 0 124.5 -28t41.5 -75
q0 -11 -2.5 -18.5t-10.5 -12.5q-4 -3 -10 -3t-13 2q3 7 4 13.5t1 12.5q0 42 -36.5 61.5t-100.5 19.5q-33 0 -62.5 -7.5t-47.5 -25.5t-18 -49q0 -38 19 -61.5t50.5 -39.5t66.5 -33q31 -14 62 -27.5t57 -30t42 -40t16 -58.5q0 -27 -15.5 -56t-55.5 -49t-116 -20zM243 0l-9 -41
q39 0 59.5 -19.5t20.5 -50.5q0 -36 -25 -57t-61 -21q-30 0 -48.5 8.5t-29.5 19.5q-1 6 3.5 12.5t8.5 9.5q8 -6 21.5 -14t40.5 -8q25 0 41 11.5t16 36.5q0 22 -16 37t-66 11l14 65h30z" />
    <glyph glyph-name="Scaron" unicode="&#x160;" horiz-adv-x="543" 
d="M276 -12q-75 0 -121 21.5t-67.5 57t-21.5 75.5q0 16 3.5 26.5t12 15t22.5 2.5q-2 -7 -3.5 -14t-1.5 -19q0 -47 22.5 -77.5t62 -45t90.5 -14.5q81 0 129.5 35t48.5 104q0 45 -21.5 77t-61.5 60t-98 59q-52 29 -93 55.5t-64.5 60.5t-23.5 83q0 53 26 86t69.5 48.5
t94.5 15.5q83 0 134 -35.5t51 -94.5q0 -12 -2.5 -19t-10.5 -12q-9 -5 -24 -1q4 7 5 13.5t1 12.5q0 38 -21.5 61.5t-57 35t-77.5 11.5q-39 0 -74.5 -11t-58.5 -36.5t-23 -70.5q0 -48 25.5 -79.5t64 -54t76.5 -43.5q61 -32 104.5 -63.5t67.5 -69.5t24 -89q0 -28 -9 -57.5
t-32 -54t-63.5 -40t-103.5 -15.5zM288 731q-6 -1 -11.5 -1.5t-11.5 0t-12 1.5l-115 97q2 5 7 9.5t9 6.5l117 -78l116 78q5 -2 9.5 -6.5t6.5 -9.5z" />
    <glyph glyph-name="scaron" unicode="&#x161;" horiz-adv-x="460" 
d="M227 -12q-66 0 -106 17.5t-58 46.5t-18 62q0 16 4 25.5t12 14t21 2.5q-3 -7 -4.5 -14t-1.5 -18q0 -56 41.5 -82t106.5 -26q70 0 114 24.5t44 70.5q0 38 -24 59.5t-61 37t-76 34.5t-73.5 37.5t-56.5 46.5t-22 74q0 41 22.5 66t59.5 36t80 11q83 0 124.5 -28t41.5 -75
q0 -11 -2.5 -18.5t-10.5 -12.5q-4 -3 -10 -3t-13 2q3 7 4 13.5t1 12.5q0 42 -36.5 61.5t-100.5 19.5q-33 0 -62.5 -7.5t-47.5 -25.5t-18 -49q0 -38 19 -61.5t50.5 -39.5t66.5 -33q31 -14 62 -27.5t57 -30t42 -40t16 -58.5q0 -27 -15.5 -56t-55.5 -49t-116 -20zM128 687
l103 -92l103 92q5 0 12.5 -1.5t11.5 -6.5l-110 -118q-6 -1 -11.5 -1.5t-11.5 0t-12 1.5l-110 118q2 5 11.5 6.5t13.5 1.5z" />
    <glyph glyph-name="uni0162" unicode="&#x162;" horiz-adv-x="503" 
d="M256 -8q-8 0 -12.5 6t-4.5 16l-2 661l30 2l1 -590q0 -31 1.5 -53t4.5 -34q-3 -3 -7 -5.5t-11 -2.5zM32 662q-4 1 -7 5t-4 9t1 8.5t7 3.5h446q5 0 7 -3.5t1 -8.5t-4 -9t-7 -5h-74.5h-75h-74.5h-72h-72h-72zM272 0l-9 -41q39 0 59.5 -19.5t20.5 -50.5q0 -36 -25 -57
t-61 -21q-30 0 -48.5 8.5t-29.5 19.5q-1 6 3.5 12.5t8.5 9.5q8 -6 21.5 -14t40.5 -8q25 0 41 11.5t16 36.5q0 22 -16 37t-66 11l14 65h30z" />
    <glyph glyph-name="uni0163" unicode="&#x163;" horiz-adv-x="325" 
d="M190 -12q-36 0 -58 21.5t-22 61.5v539q0 11 5 16.5t14 5.5q7 0 11 -2.5t7 -5.5q-4 -11 -5 -58.5t-1 -137.5l-1 -357q0 -25 13 -40t38 -15q17 0 32.5 7t21.5 20q5 -6 7 -11t2 -10q0 -16 -19.5 -25t-44.5 -9zM36 472l1 14q1 6 4 10t7 4h170h11t15 0.5t15 1t11 0.5l-1 -14
q-1 -6 -3.5 -10t-7.5 -4h-162q-10 0 -30 -0.5t-30 -1.5zM196 0l-9 -41q39 0 59.5 -19.5t20.5 -50.5q0 -36 -25 -57t-61 -21q-30 0 -48.5 8.5t-29.5 19.5q-1 6 3.5 12.5t8.5 9.5q8 -6 21.5 -14t40.5 -8q25 0 41 11.5t16 36.5q0 22 -16 37t-66 11l14 65h30z" />
    <glyph glyph-name="Tcaron" unicode="&#x164;" horiz-adv-x="503" 
d="M256 -8q-8 0 -12.5 6t-4.5 16l-2 661l30 2l1 -590q0 -31 1.5 -53t4.5 -34q-3 -3 -7 -5.5t-11 -2.5zM32 662q-4 1 -7 5t-4 9t1 8.5t7 3.5h446q5 0 7 -3.5t1 -8.5t-4 -9t-7 -5h-74.5h-75h-74.5h-72h-72h-72zM268 731q-6 -1 -11.5 -1.5t-11.5 0t-12 1.5l-115 97q2 5 7 9.5
t9 6.5l117 -78l116 78q5 -2 9.5 -6.5t6.5 -9.5z" />
    <glyph glyph-name="tcaron" unicode="&#x165;" horiz-adv-x="325" 
d="M190 -12q-36 0 -58 21.5t-22 61.5v539q0 11 5 16.5t14 5.5q7 0 11 -2.5t7 -5.5q-4 -11 -5 -58.5t-1 -137.5l-1 -357q0 -25 13 -40t38 -15q17 0 32.5 7t21.5 20q5 -6 7 -11t2 -10q0 -16 -19.5 -25t-44.5 -9zM36 472l1 14q1 6 4 10t7 4h170h11t15 0.5t15 1t11 0.5l-1 -14
q-1 -6 -3.5 -10t-7.5 -4h-162q-10 0 -30 -0.5t-30 -1.5zM206 556q2 28 0.5 57t-6.5 60q8 2 17 2t17 -2q2 -29 0.5 -58.5t-6.5 -58.5h-22z" />
    <glyph glyph-name="Utilde" unicode="&#x168;" horiz-adv-x="642" 
d="M547 673v-369q0 -156 -57.5 -236t-169.5 -80t-165.5 76.5t-53.5 239.5v296q0 30 -1.5 52.5t-4.5 34.5q3 3 7 5.5t11 2.5q8 0 12.5 -5.5t4.5 -16.5v-369q0 -148 46.5 -218t143.5 -70q98 0 148 73t50 215v296q0 30 -1.5 52.5t-4.5 34.5q3 3 7 5.5t11 2.5q8 0 12.5 -5.5
t4.5 -16.5zM450 805q-7 -25 -26 -41t-46 -16q-24 0 -43.5 10t-37 20t-37.5 10q-19 0 -32.5 -10t-19.5 -32q-5 -1 -10 2.5t-9 7.5q8 32 27.5 47.5t46.5 15.5q25 0 43.5 -10t36.5 -20t40 -10q20 0 29 9.5t18 25.5q7 0 11.5 -2t8.5 -7z" />
    <glyph glyph-name="utilde" unicode="&#x169;" horiz-adv-x="551" 
d="M430 512q8 0 12.5 -5.5t4.5 -16.5l1 -418q0 -28 7 -39t23 -11q6 0 14 3t13 15q10 -11 10 -22t-11 -17.5t-29 -6.5q-31 0 -44 20t-13 59v104l13 8q-4 -61 -31 -105t-68 -68t-87 -24q-79 0 -116.5 48.5t-38.5 170.5l-1 210q0 30 -1.5 52.5t-4.5 34.5q3 3 7 5.5t11 2.5
q8 0 12.5 -5.5t4.5 -16.5l1 -284q0 -73 13 -114.5t41.5 -58.5t74.5 -17q25 0 54 11.5t55.5 38.5t43.5 73.5t17 117.5v115t-0.5 70t-2 39.5t-3.5 22.5q3 3 7 5.5t11 2.5zM400 651q-6 -29 -25.5 -49t-48.5 -20q-27 0 -45 12.5t-34 25.5t-40 13q-19 0 -36 -11.5t-23 -34.5
q-5 -1 -10 2.5t-9 7.5q8 34 31 50.5t50 16.5q28 0 45.5 -13t34.5 -25.5t41 -12.5q21 0 31.5 13.5t17.5 33.5q7 0 11.5 -2t8.5 -7z" />
    <glyph glyph-name="Umacron" unicode="&#x16a;" horiz-adv-x="642" 
d="M547 673v-369q0 -156 -57.5 -236t-169.5 -80t-165.5 76.5t-53.5 239.5v296q0 30 -1.5 52.5t-4.5 34.5q3 3 7 5.5t11 2.5q8 0 12.5 -5.5t4.5 -16.5v-369q0 -148 46.5 -218t143.5 -70q98 0 148 73t50 215v296q0 30 -1.5 52.5t-4.5 34.5q3 3 7 5.5t11 2.5q8 0 12.5 -5.5
t4.5 -16.5zM203 796h235q6 -15 0 -30h-235q-6 15 0 30z" />
    <glyph glyph-name="umacron" unicode="&#x16b;" horiz-adv-x="551" 
d="M430 512q8 0 12.5 -5.5t4.5 -16.5l1 -418q0 -28 7 -39t23 -11q6 0 14 3t13 15q10 -11 10 -22t-11 -17.5t-29 -6.5q-31 0 -44 20t-13 59v104l13 8q-4 -61 -31 -105t-68 -68t-87 -24q-79 0 -116.5 48.5t-38.5 170.5l-1 210q0 30 -1.5 52.5t-4.5 34.5q3 3 7 5.5t11 2.5
q8 0 12.5 -5.5t4.5 -16.5l1 -284q0 -73 13 -114.5t41.5 -58.5t74.5 -17q25 0 54 11.5t55.5 38.5t43.5 73.5t17 117.5v115t-0.5 70t-2 39.5t-3.5 22.5q3 3 7 5.5t11 2.5zM147 627h235q6 -14 0 -28h-235q-6 14 0 28z" />
    <glyph glyph-name="Ubreve" unicode="&#x16c;" horiz-adv-x="642" 
d="M547 673v-369q0 -156 -57.5 -236t-169.5 -80t-165.5 76.5t-53.5 239.5v296q0 30 -1.5 52.5t-4.5 34.5q3 3 7 5.5t11 2.5q8 0 12.5 -5.5t4.5 -16.5v-369q0 -148 46.5 -218t143.5 -70q98 0 148 73t50 215v296q0 30 -1.5 52.5t-4.5 34.5q3 3 7 5.5t11 2.5q8 0 12.5 -5.5
t4.5 -16.5zM442 807q-11 -23 -29 -41t-41.5 -28t-52.5 -10q-30 0 -53 10.5t-39 27.5t-26 37l14 8l14 8q13 -25 36.5 -42t59.5 -17q37 0 58.5 18.5t32.5 39.5q7 -3 13 -5.5t13 -5.5z" />
    <glyph glyph-name="ubreve" unicode="&#x16d;" horiz-adv-x="551" 
d="M430 512q8 0 12.5 -5.5t4.5 -16.5l1 -418q0 -28 7 -39t23 -11q6 0 14 3t13 15q10 -11 10 -22t-11 -17.5t-29 -6.5q-31 0 -44 20t-13 59v104l13 8q-4 -61 -31 -105t-68 -68t-87 -24q-79 0 -116.5 48.5t-38.5 170.5l-1 210q0 30 -1.5 52.5t-4.5 34.5q3 3 7 5.5t11 2.5
q8 0 12.5 -5.5t4.5 -16.5l1 -284q0 -73 13 -114.5t41.5 -58.5t74.5 -17q25 0 54 11.5t55.5 38.5t43.5 73.5t17 117.5v115t-0.5 70t-2 39.5t-3.5 22.5q3 3 7 5.5t11 2.5zM265 592q36 0 57 14.5t32.5 33.5t15.5 31q7 -1 13.5 -2t13.5 -3q-7 -27 -24.5 -50.5t-44.5 -38.5
t-63 -15q-45 0 -74 17.5t-44.5 41t-20.5 41.5q6 5 12.5 7.5t13.5 3.5q6 -14 19 -33.5t36 -33.5t58 -14z" />
    <glyph glyph-name="Uring" unicode="&#x16e;" horiz-adv-x="642" 
d="M547 673v-369q0 -156 -57.5 -236t-169.5 -80t-165.5 76.5t-53.5 239.5v296q0 30 -1.5 52.5t-4.5 34.5q3 3 7 5.5t11 2.5q8 0 12.5 -5.5t4.5 -16.5v-369q0 -148 46.5 -218t143.5 -70q98 0 148 73t50 215v296q0 30 -1.5 52.5t-4.5 34.5q3 3 7 5.5t11 2.5q8 0 12.5 -5.5
t4.5 -16.5zM325 894q36 0 58 -20.5t22 -55.5q-1 -37 -23.5 -58.5t-60.5 -21.5q-36 0 -58 21t-22 55q0 37 23.5 58.5t60.5 21.5zM323 872q-25 0 -40.5 -15t-15.5 -41q0 -25 15.5 -40.5t40.5 -15.5q26 0 41 15.5t15 40.5q0 26 -15 41t-41 15z" />
    <glyph glyph-name="uring" unicode="&#x16f;" horiz-adv-x="551" 
d="M430 512q8 0 12.5 -5.5t4.5 -16.5l1 -418q0 -28 7 -39t23 -11q6 0 14 3t13 15q10 -11 10 -22t-11 -17.5t-29 -6.5q-31 0 -44 20t-13 59v104l13 8q-4 -61 -31 -105t-68 -68t-87 -24q-79 0 -116.5 48.5t-38.5 170.5l-1 210q0 30 -1.5 52.5t-4.5 34.5q3 3 7 5.5t11 2.5
q8 0 12.5 -5.5t4.5 -16.5l1 -284q0 -73 13 -114.5t41.5 -58.5t74.5 -17q25 0 54 11.5t55.5 38.5t43.5 73.5t17 117.5v115t-0.5 70t-2 39.5t-3.5 22.5q3 3 7 5.5t11 2.5zM269 706q36 0 58 -20.5t22 -55.5q-1 -37 -23.5 -58.5t-60.5 -21.5q-36 0 -58 21t-22 55q0 37 23.5 58.5
t60.5 21.5zM267 684q-25 0 -40.5 -15t-15.5 -41q0 -25 15.5 -40.5t40.5 -15.5q26 0 41 15.5t15 40.5q0 26 -15 41t-41 15z" />
    <glyph glyph-name="Uhungarumlaut" unicode="&#x170;" horiz-adv-x="642" 
d="M547 673v-369q0 -156 -57.5 -236t-169.5 -80t-165.5 76.5t-53.5 239.5v296q0 30 -1.5 52.5t-4.5 34.5q3 3 7 5.5t11 2.5q8 0 12.5 -5.5t4.5 -16.5v-369q0 -148 46.5 -218t143.5 -70q98 0 148 73t50 215v296q0 30 -1.5 52.5t-4.5 34.5q3 3 7 5.5t11 2.5q8 0 12.5 -5.5
t4.5 -16.5zM401 832l-128 -104q-5 2 -9.5 6.5t-6.5 8.5l105 114q8 -2 14.5 -5t13 -8t11.5 -12zM508 830l-129 -104q-4 2 -8.5 6.5t-6.5 8.5l105 114q8 -2 14.5 -5t13 -8t11.5 -12z" />
    <glyph glyph-name="uhungarumlaut" unicode="&#x171;" horiz-adv-x="551" 
d="M430 512q8 0 12.5 -5.5t4.5 -16.5l1 -418q0 -28 7 -39t23 -11q6 0 14 3t13 15q10 -11 10 -22t-11 -17.5t-29 -6.5q-31 0 -44 20t-13 59v104l13 8q-4 -61 -31 -105t-68 -68t-87 -24q-79 0 -116.5 48.5t-38.5 170.5l-1 210q0 30 -1.5 52.5t-4.5 34.5q3 3 7 5.5t11 2.5
q8 0 12.5 -5.5t4.5 -16.5l1 -284q0 -73 13 -114.5t41.5 -58.5t74.5 -17q25 0 54 11.5t55.5 38.5t43.5 73.5t17 117.5v115t-0.5 70t-2 39.5t-3.5 22.5q3 3 7 5.5t11 2.5zM345 694l-139 -157q-5 2 -10.5 5.5t-8.5 7.5l115 162q12 -1 22.5 -5t20.5 -13zM471 694l-139 -157
q-5 2 -10.5 5.5t-8.5 7.5l115 162q12 -1 22.5 -5t20.5 -13z" />
    <glyph glyph-name="Uogonek" unicode="&#x172;" horiz-adv-x="642" 
d="M547 673v-369q0 -156 -57.5 -236t-169.5 -80t-165.5 76.5t-53.5 239.5v296q0 30 -1.5 52.5t-4.5 34.5q3 3 7 5.5t11 2.5q8 0 12.5 -5.5t4.5 -16.5v-369q0 -148 46.5 -218t143.5 -70q98 0 148 73t50 215v296q0 30 -1.5 52.5t-4.5 34.5q3 3 7 5.5t11 2.5q8 0 12.5 -5.5
t4.5 -16.5zM377 -162q-21 0 -39.5 8t-30 24.5t-11.5 41.5q0 29 15 49.5t38.5 35t48.5 22.5l11 -15q-39 -18 -60 -37.5t-21 -50.5q0 -24 13.5 -39t39.5 -15q32 0 53.5 18.5t29.5 32.5q5 -3 7 -7.5t0 -10.5q-13 -28 -39 -42.5t-55 -14.5z" />
    <glyph glyph-name="uogonek" unicode="&#x173;" horiz-adv-x="551" 
d="M430 512q8 0 12.5 -5.5t4.5 -16.5l1 -418q0 -28 7 -39t23 -11q6 0 14 3t13 15q10 -11 10 -22t-11 -17.5t-29 -6.5q-31 0 -44 20t-13 59v104l13 8q-4 -61 -31 -105t-68 -68t-87 -24q-79 0 -116.5 48.5t-38.5 170.5l-1 210q0 30 -1.5 52.5t-4.5 34.5q3 3 7 5.5t11 2.5
q8 0 12.5 -5.5t4.5 -16.5l1 -284q0 -73 13 -114.5t41.5 -58.5t74.5 -17q25 0 54 11.5t55.5 38.5t43.5 73.5t17 117.5v115t-0.5 70t-2 39.5t-3.5 22.5q3 3 7 5.5t11 2.5zM478 -160q-21 0 -39.5 8t-30 24.5t-11.5 41.5q0 29 15 49.5t38.5 35t48.5 22.5l11 -15
q-39 -18 -60 -37.5t-21 -50.5q0 -24 13.5 -39t39.5 -15q32 0 53.5 18.5t29.5 32.5q5 -3 7 -7.5t0 -10.5q-13 -28 -39 -42.5t-55 -14.5z" />
    <glyph glyph-name="Wcircumflex" unicode="&#x174;" horiz-adv-x="887" 
d="M845 700q10 0 16 -5t5 -13q0 -5 -2 -12t-4 -12l-187 -658q-5 -4 -10.5 -6t-10.5 -2q-9 0 -16 4.5t-9 12.5l-176 565l-179 -574q-6 -4 -11.5 -6t-10.5 -2q-9 0 -16 4.5t-9 12.5l-184 652q-3 10 -7.5 18t-8.5 12q5 5 10 7t10 2q7 0 12.5 -3.5t7.5 -10.5l186 -662l180 578
q3 9 2.5 14.5t-1.5 8.5q4 2 9.5 3.5t9.5 1.5h6.5t6.5 -1l189 -605l175 639q2 4 3.5 10.5t1.5 10.5v7t-2 7q4 2 7 2h7zM463 840l115 -97q-2 -4 -6.5 -9t-9.5 -7l-116 78l-117 -78q-4 2 -9 7t-7 9l115 97q6 1 12 1.5t11.5 0t11.5 -1.5z" />
    <glyph glyph-name="wcircumflex" unicode="&#x175;" horiz-adv-x="733" 
d="M209 -8q-9 0 -15 4.5t-9 12.5l-149 452q-2 6 -7 16t-9 14q5 5 10 7t10 2q7 0 12.5 -3.5t7.5 -10.5l151 -467l133 444q1 3 2.5 10t1.5 11v7t-2 7q4 2 10.5 4t13.5 2q5 0 8 -1t7 -3l143 -481l143 444q2 4 3.5 10.5t1.5 10.5v7t-2 7q4 2 7 2h7q10 0 16 -5t5 -13q0 -5 -2 -12
t-4 -12l-152 -458q-6 -4 -11 -6t-10 -2q-9 0 -17 4.5t-10 12.5l-133 452l-137 -461q-6 -4 -12.5 -6t-11.5 -2zM262 556q-4 0 -13.5 2t-11.5 6l110 118q6 1 12 1.5t11.5 0t11.5 -1.5l110 -118q-4 -4 -11.5 -6t-12.5 -2l-103 92z" />
    <glyph glyph-name="Ycircumflex" unicode="&#x176;" horiz-adv-x="512" 
d="M260 227q-4 1 -7 2t-5.5 3t-3.5 4l-203 425q-4 8 -10.5 16t-10.5 12q5 5 10.5 8t12.5 3t12 -3.5t8 -10.5l203 -433h-15l195 402q10 21 10 28v8t-2 7q4 2 7 2h7q9 0 14.5 -5.5t5.5 -16.5q0 -4 -2 -9.5t-6 -13.5l-208 -419zM272 249l1 -162q0 -31 1.5 -53t4.5 -34
q-3 -3 -7 -5.5t-11 -2.5q-8 0 -12.5 6t-4.5 16l-1 236zM287 840l115 -97q-2 -4 -6.5 -9t-9.5 -7l-116 78l-117 -78q-4 2 -9 7t-7 9l115 97q6 1 12 1.5t11.5 0t11.5 -1.5z" />
    <glyph glyph-name="ycircumflex" unicode="&#x177;" horiz-adv-x="536" 
d="M235 -240q-36 0 -71 11t-58 35.5t-23 63.5q0 23 8 41t23 18q12 0 18 -9q-14 -7 -17 -21.5t-3 -21.5q0 -36 20 -55t48 -26.5t53 -7.5q99 0 142 65.5t43 208.5v41.5v41.5v42l13 8q-7 -93 -59.5 -149t-135.5 -56q-70 0 -107.5 48t-38.5 169l-1 210q0 32 -1.5 53.5t-4.5 33.5
q3 3 7 5.5t11 2.5q8 0 12.5 -5.5t4.5 -16.5l1 -284q0 -102 28.5 -145t89.5 -43q31 0 62.5 11.5t58.5 39.5t43.5 76.5t16.5 121.5v110.5t-0.5 67t-2 37.5t-3.5 22q3 3 7 5.5t11 2.5q8 0 12.5 -5.5t4.5 -16.5l2 -444q0 -108 -28 -170.5t-76 -89t-110 -26.5zM173 556
q-4 0 -13.5 2t-11.5 6l110 118q6 1 12 1.5t11.5 0t11.5 -1.5l110 -118q-4 -4 -11.5 -6t-12.5 -2l-103 92z" />
    <glyph glyph-name="Ydieresis" unicode="&#x178;" horiz-adv-x="512" 
d="M260 227q-4 1 -7 2t-5.5 3t-3.5 4l-203 425q-4 8 -10.5 16t-10.5 12q5 5 10.5 8t12.5 3t12 -3.5t8 -10.5l203 -433h-15l195 402q10 21 10 28v8t-2 7q4 2 7 2h7q9 0 14.5 -5.5t5.5 -16.5q0 -4 -2 -9.5t-6 -13.5l-208 -419zM272 249l1 -162q0 -31 1.5 -53t4.5 -34
q-3 -3 -7 -5.5t-11 -2.5q-8 0 -12.5 6t-4.5 16l-1 236zM193 760q-13 0 -23.5 10.5t-10.5 23.5q0 14 10.5 24t23.5 10q14 0 24 -10t10 -24q0 -13 -10 -23.5t-24 -10.5zM353 760q-13 0 -23.5 10.5t-10.5 23.5q0 14 10.5 24t23.5 10q14 0 24 -10t10 -24q0 -13 -10 -23.5
t-24 -10.5z" />
    <glyph glyph-name="Zacute" unicode="&#x179;" horiz-adv-x="553" 
d="M63 -5l-11 14q0 9 6 21t13 23l392 612l12 -2h-299q-49 0 -69 -18t-20 -43t12.5 -42t36.5 -31q-5 -10 -20 -10q-25 0 -41 27.5t-16 56.5q0 35 29.5 60.5t84.5 25.5h174q52 0 82 0.5t46 4.5l17 -9q0 -16 -4.5 -29t-10.5 -23l-399 -620v13h305q62 0 84 20.5t23 48.5
q1 31 -13.5 53.5t-32.5 32.5q7 4 10 6t9 2q20 0 32.5 -16t18.5 -37.5t6 -38.5q0 -40 -30 -68.5t-96 -28.5h-207q-30 0 -62 -0.5t-62 -4.5zM423 810l-150 -83q-4 2 -8 8t-5 10l129 97q7 -3 13.5 -7.5t11.5 -10.5t9 -14z" />
    <glyph glyph-name="zacute" unicode="&#x17a;" horiz-adv-x="476" 
d="M49 -4l-8 11q0 7 4 16t10 17l335 442l5 -10h-249q-40 0 -56 -17t-16 -37q0 -18 9 -30.5t22 -21.5q-2 -4 -6 -6t-9 -2q-22 0 -34 20t-12 42q0 32 26 56t74 24h164q38 0 60.5 0.5t34.5 3.5l10 -7q0 -12 -2.5 -23.5t-12.5 -25.5l-328 -431l-5 10h257q50 0 68.5 22t18.5 48
q0 20 -9 37t-23 24q11 6 18 6q18 0 27.5 -12t13 -28.5t3.5 -29.5q0 -42 -29 -68t-77 -26h-187q-22 0 -48 -0.5t-49 -3.5zM352 689l-111 -132q-5 -1 -14 0t-11 5l91 140q10 0 17.5 -1.5t14 -4t13.5 -7.5z" />
    <glyph glyph-name="Zdotaccent" unicode="&#x17b;" horiz-adv-x="553" 
d="M63 -5l-11 14q0 9 6 21t13 23l392 612l12 -2h-299q-49 0 -69 -18t-20 -43t12.5 -42t36.5 -31q-5 -10 -20 -10q-25 0 -41 27.5t-16 56.5q0 35 29.5 60.5t84.5 25.5h174q52 0 82 0.5t46 4.5l17 -9q0 -16 -4.5 -29t-10.5 -23l-399 -620v13h305q62 0 84 20.5t23 48.5
q1 31 -13.5 53.5t-32.5 32.5q7 4 10 6t9 2q20 0 32.5 -16t18.5 -37.5t6 -38.5q0 -40 -30 -68.5t-96 -28.5h-207q-30 0 -62 -0.5t-62 -4.5zM283 752q-13 0 -23.5 10.5t-10.5 23.5q0 14 10.5 24t23.5 10q14 0 24 -10t10 -24q0 -13 -10 -23.5t-24 -10.5z" />
    <glyph glyph-name="zdotaccent" unicode="&#x17c;" horiz-adv-x="476" 
d="M49 -4l-8 11q0 7 4 16t10 17l335 442l5 -10h-249q-40 0 -56 -17t-16 -37q0 -18 9 -30.5t22 -21.5q-2 -4 -6 -6t-9 -2q-22 0 -34 20t-12 42q0 32 26 56t74 24h164q38 0 60.5 0.5t34.5 3.5l10 -7q0 -12 -2.5 -23.5t-12.5 -25.5l-328 -431l-5 10h257q50 0 68.5 22t18.5 48
q0 20 -9 37t-23 24q11 6 18 6q18 0 27.5 -12t13 -28.5t3.5 -29.5q0 -42 -29 -68t-77 -26h-187q-22 0 -48 -0.5t-49 -3.5zM237 573q-13 0 -23.5 10.5t-10.5 23.5q0 14 10.5 24t23.5 10q14 0 24 -10t10 -24q0 -13 -10 -23.5t-24 -10.5z" />
    <glyph glyph-name="Zcaron" unicode="&#x17d;" horiz-adv-x="553" 
d="M63 -5l-11 14q0 9 6 21t13 23l392 612l12 -2h-299q-49 0 -69 -18t-20 -43t12.5 -42t36.5 -31q-5 -10 -20 -10q-25 0 -41 27.5t-16 56.5q0 35 29.5 60.5t84.5 25.5h174q52 0 82 0.5t46 4.5l17 -9q0 -16 -4.5 -29t-10.5 -23l-399 -620v13h305q62 0 84 20.5t23 48.5
q1 31 -13.5 53.5t-32.5 32.5q7 4 10 6t9 2q20 0 32.5 -16t18.5 -37.5t6 -38.5q0 -40 -30 -68.5t-96 -28.5h-207q-30 0 -62 -0.5t-62 -4.5zM299 731q-6 -1 -11.5 -1.5t-11.5 0t-12 1.5l-115 97q2 5 7 9.5t9 6.5l117 -78l116 78q5 -2 9.5 -6.5t6.5 -9.5z" />
    <glyph glyph-name="zcaron" unicode="&#x17e;" horiz-adv-x="476" 
d="M49 -4l-8 11q0 7 4 16t10 17l335 442l5 -10h-249q-40 0 -56 -17t-16 -37q0 -18 9 -30.5t22 -21.5q-2 -4 -6 -6t-9 -2q-22 0 -34 20t-12 42q0 32 26 56t74 24h164q38 0 60.5 0.5t34.5 3.5l10 -7q0 -12 -2.5 -23.5t-12.5 -25.5l-328 -431l-5 10h257q50 0 68.5 22t18.5 48
q0 20 -9 37t-23 24q11 6 18 6q18 0 27.5 -12t13 -28.5t3.5 -29.5q0 -42 -29 -68t-77 -26h-187q-22 0 -48 -0.5t-49 -3.5zM137 687l103 -92l103 92q5 0 12.5 -1.5t11.5 -6.5l-110 -118q-6 -1 -11.5 -1.5t-11.5 0t-12 1.5l-110 118q2 5 11.5 6.5t13.5 1.5z" />
    <glyph glyph-name="uni018F" unicode="&#x18f;" horiz-adv-x="596" 
d="M276 700q122 0 191 -88.5t69 -264.5q0 -110 -30.5 -190.5t-90 -124.5t-147.5 -44q-63 0 -109.5 21t-72 62t-25.5 99q0 66 27.5 109.5t80.5 65t129 21.5q48 0 87 -2t72.5 -5t64.5 -6v-25q-30 4 -72 7t-85.5 4.5t-78.5 1.5q-47 0 -83 -10.5t-60.5 -32t-37 -53.5t-12.5 -75
q0 -60 26.5 -93.5t67.5 -47.5t83 -14q69 0 121.5 35.5t82.5 108.5t30 184q0 94 -19 157.5t-52 101t-74.5 53.5t-85.5 16q-42 0 -81.5 -12t-69 -38t-40.5 -68q-9 4 -13 13t5 30q23 53 78 78.5t124 25.5z" />
    <glyph glyph-name="florin" unicode="&#x192;" horiz-adv-x="364" 
d="M97 -200q-8 0 -12 6t-3 16l38 755q1 25 7.5 53t22.5 53t45.5 41t75.5 16q47 0 78.5 -21.5t29.5 -62.5q-1 -32 -18 -48t-28 -16h-2.5t-3.5 1q14 17 18 31t5 24q2 36 -22.5 50t-60.5 14q-47 0 -71.5 -20.5t-33.5 -52.5t-11 -65l-37 -679q-1 -30 -0.5 -52.5t2.5 -34.5
q-3 -3 -7.5 -5.5t-11.5 -2.5zM34 472l1 14q2 6 5 10t7 4h205h11t15 0.5t15 1t11 0.5l-2 -14q-1 -6 -3.5 -10t-7.5 -4h-197q-10 0 -30 -0.5t-30 -1.5z" />
    <glyph glyph-name="Ohorn" unicode="&#x1a0;" horiz-adv-x="638" 
d="M319 -12q-118 0 -183.5 86.5t-65.5 269.5t65.5 269.5t183.5 86.5t183.5 -86.5t65.5 -269.5t-65.5 -269.5t-183.5 -86.5zM319 16q102 0 159.5 79.5t57.5 248.5q0 170 -57.5 249t-159.5 79t-159.5 -79t-57.5 -249q0 -169 57.5 -248.5t159.5 -79.5zM494 603l-9 23
q27 10 39 22.5t12 31.5q0 7 -3 19t-15 26q4 4 9 7.5t11.5 7.5t12.5 6q13 -13 18 -30t5 -30q0 -21 -9.5 -37t-27 -27t-43.5 -19z" />
    <glyph glyph-name="ohorn" unicode="&#x1a1;" horiz-adv-x="534" 
d="M267 -12q-101 0 -157.5 69t-56.5 193t56.5 193t157.5 69t157.5 -69t56.5 -193t-56.5 -193t-157.5 -69zM267 16q86 0 134 62t48 172t-48 172t-134 62q-85 0 -133.5 -62t-48.5 -172t48.5 -172t133.5 -62zM353 470l-9 23q27 10 39 22.5t12 31.5q0 7 -3 19t-15 26q4 4 9 7.5
t11.5 7.5t12.5 6q13 -13 18 -30t5 -30q0 -21 -9.5 -37t-27 -27t-43.5 -19z" />
    <glyph glyph-name="Uhorn" unicode="&#x1af;" horiz-adv-x="642" 
d="M547 673v-369q0 -156 -57.5 -236t-169.5 -80t-165.5 76.5t-53.5 239.5v296q0 30 -1.5 52.5t-4.5 34.5q3 3 7 5.5t11 2.5q8 0 12.5 -5.5t4.5 -16.5v-369q0 -148 46.5 -218t143.5 -70q98 0 148 73t50 215v296q0 30 -1.5 52.5t-4.5 34.5q3 3 7 5.5t11 2.5q8 0 12.5 -5.5
t4.5 -16.5zM528 670l-9 22q27 11 39 23.5t12 31.5q0 7 -3 19t-15 26q4 4 9 7.5t11.5 7.5t12.5 6q13 -13 18 -30t5 -30q0 -21 -9.5 -37t-27 -27t-43.5 -19z" />
    <glyph glyph-name="uhorn" unicode="&#x1b0;" horiz-adv-x="551" 
d="M430 512q8 0 12.5 -5.5t4.5 -16.5l1 -418q0 -28 7 -39t23 -11q6 0 14 3t13 15q10 -11 10 -22t-11 -17.5t-29 -6.5q-31 0 -44 20t-13 59v104l13 8q-4 -61 -31 -105t-68 -68t-87 -24q-79 0 -116.5 48.5t-38.5 170.5l-1 210q0 30 -1.5 52.5t-4.5 34.5q3 3 7 5.5t11 2.5
q8 0 12.5 -5.5t4.5 -16.5l1 -284q1 -73 14 -114.5t41 -58.5t74 -17q25 0 54 11.5t55.5 38.5t43.5 73.5t17 117.5v115t-0.5 70t-2 39.5t-3.5 22.5q3 3 7 5.5t11 2.5zM428 470l-9 23q27 10 39 22.5t12 31.5q0 7 -3 19t-15 26q4 4 9 7.5t11.5 7.5t12.5 6q13 -13 18 -30t5 -30
q0 -21 -9.5 -37t-27 -27t-43.5 -19z" />
    <glyph glyph-name="uni01CD" unicode="&#x1cd;" horiz-adv-x="562" 
d="M282 700q9 0 15.5 -4.5t9.5 -12.5l224 -652q4 -10 8 -17.5t8 -12.5q-4 -5 -8 -7t-9 -2q-7 0 -13.5 3.5t-8.5 10.5l-233 680h12l-223 -657q-1 -4 -3 -10t-2 -11q0 -3 0.5 -7t1.5 -7q-4 -1 -7.5 -1.5t-8.5 -0.5q-8 0 -13.5 5t-4.5 13q0 5 2.5 12t3.5 12l227 658q11 8 22 8z
M130 260h305v-26h-305v26zM296 731q-6 -1 -11.5 -1.5t-11.5 0t-12 1.5l-115 97q2 5 7 9.5t9 6.5l117 -78l116 78q5 -2 9.5 -6.5t6.5 -9.5z" />
    <glyph glyph-name="uni01CE" unicode="&#x1ce;" horiz-adv-x="534" 
d="M473 -10q-35 0 -51 23t-16 60v133l14 -12q-23 -65 -62.5 -111.5t-87.5 -70.5t-97 -24q-60 0 -89 33t-29 81q0 36 17 66t52 53.5t88 37.5q44 11 96 14.5t98 -1.5v26q0 93 -39 139.5t-126 46.5q-29 0 -61 -7t-53.5 -25.5t-21.5 -54.5q0 -19 12.5 -41t37.5 -28
q-6 -10 -14 -13t-13 -3q-22 0 -37 27.5t-15 55.5q0 59 46.5 88t124.5 29q97 0 143 -55t46 -159v-227q0 -53 38 -53q10 0 21 7t17 20q5 -6 7 -11t2 -10q0 -16 -15.5 -25t-32.5 -9zM179 15q38 0 77.5 20.5t73 54.5t54.5 76t22 85q-27 3 -62.5 1t-70 -7t-59.5 -13
q-61 -18 -94 -49.5t-33 -78.5q0 -34 20.5 -61.5t71.5 -27.5zM151 687l103 -92l103 92q5 0 12.5 -1.5t11.5 -6.5l-110 -118q-6 -1 -11.5 -1.5t-11.5 0t-12 1.5l-110 118q2 5 11.5 6.5t13.5 1.5z" />
    <glyph glyph-name="uni01CF" unicode="&#x1cf;" horiz-adv-x="245" 
d="M126 -8q-8 0 -12.5 6t-4.5 16l-2 586q0 30 -1.5 52.5t-4.5 34.5q3 3 7 5.5t11 2.5q8 0 13.5 -5.5t5.5 -16.5v-586q0 -30 1.5 -52.5t4.5 -34.5q-3 -3 -7 -5.5t-11 -2.5zM135 731q-6 -1 -11.5 -1.5t-11.5 0t-12 1.5l-115 97q2 5 7 9.5t9 6.5l117 -78l116 78q5 -2 9.5 -6.5
t6.5 -9.5z" />
    <glyph glyph-name="uni01D0" unicode="&#x1d0;" horiz-adv-x="223" 
d="M123 87q0 -30 1.5 -52.5t4.5 -34.5q-3 -3 -7 -5.5t-11 -2.5q-8 0 -12.5 6t-4.5 16l-2 403q0 30 -1.5 52.5t-4.5 34.5q3 3 7 5.5t11 2.5q8 0 12.5 -5.5t4.5 -16.5zM3 687l103 -92l103 92q5 0 12.5 -1.5t11.5 -6.5l-110 -118q-6 -1 -11.5 -1.5t-11.5 0t-12 1.5l-110 118
q2 5 11.5 6.5t13.5 1.5z" />
    <glyph glyph-name="uni01D1" unicode="&#x1d1;" horiz-adv-x="638" 
d="M319 -12q-118 0 -183.5 86.5t-65.5 269.5t65.5 269.5t183.5 86.5t183.5 -86.5t65.5 -269.5t-65.5 -269.5t-183.5 -86.5zM319 16q102 0 159.5 79.5t57.5 248.5q0 170 -57.5 249t-159.5 79t-159.5 -79t-57.5 -249q0 -169 57.5 -248.5t159.5 -79.5zM335 731
q-6 -1 -11.5 -1.5t-11.5 0t-12 1.5l-115 97q2 5 7 9.5t9 6.5l117 -78l116 78q5 -2 9.5 -6.5t6.5 -9.5z" />
    <glyph glyph-name="uni01D2" unicode="&#x1d2;" horiz-adv-x="534" 
d="M267 -12q-101 0 -157.5 69t-56.5 193t56.5 193t157.5 69t157.5 -69t56.5 -193t-56.5 -193t-157.5 -69zM267 16q86 0 134 62t48 172t-48 172t-134 62q-85 0 -133.5 -62t-48.5 -172t48.5 -172t133.5 -62zM165 687l103 -92l103 92q5 0 12.5 -1.5t11.5 -6.5l-110 -118
q-6 -1 -11.5 -1.5t-11.5 0t-12 1.5l-110 118q2 5 11.5 6.5t13.5 1.5z" />
    <glyph glyph-name="uni01D3" unicode="&#x1d3;" horiz-adv-x="642" 
d="M547 673v-369q0 -156 -57.5 -236t-169.5 -80t-165.5 76.5t-53.5 239.5v296q0 30 -1.5 52.5t-4.5 34.5q3 3 7 5.5t11 2.5q8 0 12.5 -5.5t4.5 -16.5v-369q0 -148 46.5 -218t143.5 -70q98 0 148 73t50 215v296q0 30 -1.5 52.5t-4.5 34.5q3 3 7 5.5t11 2.5q8 0 12.5 -5.5
t4.5 -16.5zM337 731q-6 -1 -11.5 -1.5t-11.5 0t-12 1.5l-115 97q2 5 7 9.5t9 6.5l117 -78l116 78q5 -2 9.5 -6.5t6.5 -9.5z" />
    <glyph glyph-name="uni01D4" unicode="&#x1d4;" horiz-adv-x="551" 
d="M430 512q8 0 12.5 -5.5t4.5 -16.5l1 -418q0 -28 7 -39t23 -11q6 0 14 3t13 15q10 -11 10 -22t-11 -17.5t-29 -6.5q-31 0 -44 20t-13 59v104l13 8q-4 -61 -31 -105t-68 -68t-87 -24q-79 0 -116.5 48.5t-38.5 170.5l-1 210q0 30 -1.5 52.5t-4.5 34.5q3 3 7 5.5t11 2.5
q8 0 12.5 -5.5t4.5 -16.5l1 -284q0 -73 13 -114.5t41.5 -58.5t74.5 -17q25 0 54 11.5t55.5 38.5t43.5 73.5t17 117.5v115t-0.5 70t-2 39.5t-3.5 22.5q3 3 7 5.5t11 2.5zM163 687l103 -92l103 92q5 0 12.5 -1.5t11.5 -6.5l-110 -118q-6 -1 -11.5 -1.5t-11.5 0t-12 1.5
l-110 118q2 5 11.5 6.5t13.5 1.5z" />
    <glyph glyph-name="uni01D5" unicode="&#x1d5;" horiz-adv-x="642" 
d="M547 673v-369q0 -156 -57.5 -236t-169.5 -80t-165.5 76.5t-53.5 239.5v296q0 30 -1.5 52.5t-4.5 34.5q3 3 7 5.5t11 2.5q8 0 12.5 -5.5t4.5 -16.5v-369q0 -148 46.5 -218t143.5 -70q98 0 148 73t50 215v296q0 30 -1.5 52.5t-4.5 34.5q3 3 7 5.5t11 2.5q8 0 12.5 -5.5
t4.5 -16.5zM244 760q-13 0 -23.5 10.5t-10.5 23.5q0 14 10.5 24t23.5 10q14 0 24 -10t10 -24q0 -13 -10 -23.5t-24 -10.5zM404 760q-13 0 -23.5 10.5t-10.5 23.5q0 14 10.5 24t23.5 10q14 0 24 -10t10 -24q0 -13 -10 -23.5t-24 -10.5zM203 908h235q6 -15 0 -30h-235
q-6 15 0 30z" />
    <glyph glyph-name="uni01D6" unicode="&#x1d6;" horiz-adv-x="551" 
d="M430 512q8 0 12.5 -5.5t4.5 -16.5l1 -418q0 -28 7 -39t23 -11q6 0 14 3t13 15q10 -11 10 -22t-11 -17.5t-29 -6.5q-31 0 -44 20t-13 59v104l13 8q-4 -61 -31 -105t-68 -68t-87 -24q-79 0 -116.5 48.5t-38.5 170.5l-1 210q0 30 -1.5 52.5t-4.5 34.5q3 3 7 5.5t11 2.5
q8 0 12.5 -5.5t4.5 -16.5l1 -284q0 -73 13 -114.5t41.5 -58.5t74.5 -17q25 0 54 11.5t55.5 38.5t43.5 73.5t17 117.5v115t-0.5 70t-2 39.5t-3.5 22.5q3 3 7 5.5t11 2.5zM188 587q-13 0 -23.5 10.5t-10.5 23.5q0 14 10.5 24t23.5 10q14 0 24 -10t10 -24q0 -13 -10 -23.5
t-24 -10.5zM348 587q-13 0 -23.5 10.5t-10.5 23.5q0 14 10.5 24t23.5 10q14 0 24 -10t10 -24q0 -13 -10 -23.5t-24 -10.5zM147 739h235q6 -14 0 -28h-235q-6 14 0 28z" />
    <glyph glyph-name="uni01D7" unicode="&#x1d7;" horiz-adv-x="642" 
d="M547 673v-369q0 -156 -57.5 -236t-169.5 -80t-165.5 76.5t-53.5 239.5v296q0 30 -1.5 52.5t-4.5 34.5q3 3 7 5.5t11 2.5q8 0 12.5 -5.5t4.5 -16.5v-369q0 -148 46.5 -218t143.5 -70q98 0 148 73t50 215v296q0 30 -1.5 52.5t-4.5 34.5q3 3 7 5.5t11 2.5q8 0 12.5 -5.5
t4.5 -16.5zM244 760q-13 0 -23.5 10.5t-10.5 23.5q0 14 10.5 24t23.5 10q14 0 24 -10t10 -24q0 -13 -10 -23.5t-24 -10.5zM404 760q-13 0 -23.5 10.5t-10.5 23.5q0 14 10.5 24t23.5 10q14 0 24 -10t10 -24q0 -13 -10 -23.5t-24 -10.5zM461 922l-150 -83q-4 2 -8 8t-5 10
l129 97q7 -3 13.5 -7.5t11.5 -10.5t9 -14z" />
    <glyph glyph-name="uni01D8" unicode="&#x1d8;" horiz-adv-x="551" 
d="M430 512q8 0 12.5 -5.5t4.5 -16.5l1 -418q0 -28 7 -39t23 -11q6 0 14 3t13 15q10 -11 10 -22t-11 -17.5t-29 -6.5q-31 0 -44 20t-13 59v104l13 8q-4 -61 -31 -105t-68 -68t-87 -24q-79 0 -116.5 48.5t-38.5 170.5l-1 210q0 30 -1.5 52.5t-4.5 34.5q3 3 7 5.5t11 2.5
q8 0 12.5 -5.5t4.5 -16.5l1 -284q0 -73 13 -114.5t41.5 -58.5t74.5 -17q25 0 54 11.5t55.5 38.5t43.5 73.5t17 117.5v115t-0.5 70t-2 39.5t-3.5 22.5q3 3 7 5.5t11 2.5zM188 587q-13 0 -23.5 10.5t-10.5 23.5q0 14 10.5 24t23.5 10q14 0 24 -10t10 -24q0 -13 -10 -23.5
t-24 -10.5zM348 587q-13 0 -23.5 10.5t-10.5 23.5q0 14 10.5 24t23.5 10q14 0 24 -10t10 -24q0 -13 -10 -23.5t-24 -10.5zM378 801l-111 -132q-5 -1 -14 0t-11 5l91 140q10 0 17.5 -1.5t14 -4t13.5 -7.5z" />
    <glyph glyph-name="uni01D9" unicode="&#x1d9;" horiz-adv-x="642" 
d="M547 673v-369q0 -156 -57.5 -236t-169.5 -80t-165.5 76.5t-53.5 239.5v296q0 30 -1.5 52.5t-4.5 34.5q3 3 7 5.5t11 2.5q8 0 12.5 -5.5t4.5 -16.5v-369q0 -148 46.5 -218t143.5 -70q98 0 148 73t50 215v296q0 30 -1.5 52.5t-4.5 34.5q3 3 7 5.5t11 2.5q8 0 12.5 -5.5
t4.5 -16.5zM244 760q-13 0 -23.5 10.5t-10.5 23.5q0 14 10.5 24t23.5 10q14 0 24 -10t10 -24q0 -13 -10 -23.5t-24 -10.5zM404 760q-13 0 -23.5 10.5t-10.5 23.5q0 14 10.5 24t23.5 10q14 0 24 -10t10 -24q0 -13 -10 -23.5t-24 -10.5zM337 843q-6 -1 -11.5 -1.5t-11.5 0
t-12 1.5l-115 97q2 5 7 9.5t9 6.5l117 -78l116 78q5 -2 9.5 -6.5t6.5 -9.5z" />
    <glyph glyph-name="uni01DA" unicode="&#x1da;" horiz-adv-x="551" 
d="M430 512q8 0 12.5 -5.5t4.5 -16.5l1 -418q0 -28 7 -39t23 -11q6 0 14 3t13 15q10 -11 10 -22t-11 -17.5t-29 -6.5q-31 0 -44 20t-13 59v104l13 8q-4 -61 -31 -105t-68 -68t-87 -24q-79 0 -116.5 48.5t-38.5 170.5l-1 210q0 30 -1.5 52.5t-4.5 34.5q3 3 7 5.5t11 2.5
q8 0 12.5 -5.5t4.5 -16.5l1 -284q0 -73 13 -114.5t41.5 -58.5t74.5 -17q25 0 54 11.5t55.5 38.5t43.5 73.5t17 117.5v115t-0.5 70t-2 39.5t-3.5 22.5q3 3 7 5.5t11 2.5zM188 587q-13 0 -23.5 10.5t-10.5 23.5q0 14 10.5 24t23.5 10q14 0 24 -10t10 -24q0 -13 -10 -23.5
t-24 -10.5zM348 587q-13 0 -23.5 10.5t-10.5 23.5q0 14 10.5 24t23.5 10q14 0 24 -10t10 -24q0 -13 -10 -23.5t-24 -10.5zM163 799l103 -92l103 92q5 0 12.5 -1.5t11.5 -6.5l-110 -118q-6 -1 -11.5 -1.5t-11.5 0t-12 1.5l-110 118q2 5 11.5 6.5t13.5 1.5z" />
    <glyph glyph-name="uni01DB" unicode="&#x1db;" horiz-adv-x="642" 
d="M547 673v-369q0 -156 -57.5 -236t-169.5 -80t-165.5 76.5t-53.5 239.5v296q0 30 -1.5 52.5t-4.5 34.5q3 3 7 5.5t11 2.5q8 0 12.5 -5.5t4.5 -16.5v-369q0 -148 46.5 -218t143.5 -70q98 0 148 73t50 215v296q0 30 -1.5 52.5t-4.5 34.5q3 3 7 5.5t11 2.5q8 0 12.5 -5.5
t4.5 -16.5zM244 760q-13 0 -23.5 10.5t-10.5 23.5q0 14 10.5 24t23.5 10q14 0 24 -10t10 -24q0 -13 -10 -23.5t-24 -10.5zM404 760q-13 0 -23.5 10.5t-10.5 23.5q0 14 10.5 24t23.5 10q14 0 24 -10t10 -24q0 -13 -10 -23.5t-24 -10.5zM178 922q4 8 9.5 14t11.5 10.5t13 7.5
l129 -97q-1 -4 -4.5 -10t-8.5 -8z" />
    <glyph glyph-name="uni01DC" unicode="&#x1dc;" horiz-adv-x="551" 
d="M430 512q8 0 12.5 -5.5t4.5 -16.5l1 -418q0 -28 7 -39t23 -11q6 0 14 3t13 15q10 -11 10 -22t-11 -17.5t-29 -6.5q-31 0 -44 20t-13 59v104l13 8q-4 -61 -31 -105t-68 -68t-87 -24q-79 0 -116.5 48.5t-38.5 170.5l-1 210q0 30 -1.5 52.5t-4.5 34.5q3 3 7 5.5t11 2.5
q8 0 12.5 -5.5t4.5 -16.5l1 -284q0 -73 13 -114.5t41.5 -58.5t74.5 -17q25 0 54 11.5t55.5 38.5t43.5 73.5t17 117.5v115t-0.5 70t-2 39.5t-3.5 22.5q3 3 7 5.5t11 2.5zM188 587q-13 0 -23.5 10.5t-10.5 23.5q0 14 10.5 24t23.5 10q14 0 24 -10t10 -24q0 -13 -10 -23.5
t-24 -10.5zM348 587q-13 0 -23.5 10.5t-10.5 23.5q0 14 10.5 24t23.5 10q14 0 24 -10t10 -24q0 -13 -10 -23.5t-24 -10.5zM139 801q7 5 13.5 7.5t14.5 4t17 1.5l91 -140q-1 -4 -10.5 -5t-14.5 0z" />
    <glyph glyph-name="Gcaron" unicode="&#x1e6;" horiz-adv-x="599" 
d="M327 -12q-126 0 -191.5 90t-65.5 265q0 176 65.5 266.5t186.5 90.5q38 0 69.5 -7.5t55 -20t36 -26.5t12.5 -27q0 -10 -7 -15t-18 -1q-8 30 -49 49.5t-97 19.5q-108 0 -165 -83t-57 -245t57.5 -245t166.5 -83q59 0 94.5 21t53.5 53.5t23.5 67t5.5 62.5q0 51 -11 81.5
t-30.5 44t-45.5 13.5q-1 11 6.5 16t20.5 5q21 0 42 -14t35 -49t14 -99q0 -22 -3.5 -52t-14.5 -61t-34 -57.5t-60.5 -43t-94.5 -16.5zM338 731q-6 -1 -11.5 -1.5t-11.5 0t-12 1.5l-115 97q2 5 7 9.5t9 6.5l117 -78l116 78q5 -2 9.5 -6.5t6.5 -9.5z" />
    <glyph glyph-name="gcaron" unicode="&#x1e7;" horiz-adv-x="529" 
d="M208 -240q-41 0 -75.5 13.5t-55.5 41.5t-21 69q0 30 11.5 47.5t24.5 17.5t19 -9q-14 -8 -20 -21.5t-6 -31.5q0 -36 17.5 -58t46.5 -31.5t61 -9.5q107 0 154 66.5t47 207.5v30v33q-19 -63 -67 -99t-115 -36q-56 0 -95.5 27.5t-60 84.5t-20.5 145q0 28 4 63t15.5 70.5
t35 65.5t62 48t96.5 18q24 0 56 -4.5t64.5 -18.5t55.5 -43v-400q0 -108 -30.5 -170.5t-83 -89t-120.5 -26.5zM231 18q53 0 88 23.5t55 59.5t28.5 75.5t8.5 70.5l1 186q-21 26 -63 38.5t-92 12.5q-57 0 -91.5 -24.5t-52 -62.5t-23 -78.5t-5.5 -73.5q0 -118 38 -172.5
t108 -54.5zM163 687l103 -92l103 92q5 0 12.5 -1.5t11.5 -6.5l-110 -118q-6 -1 -11.5 -1.5t-11.5 0t-12 1.5l-110 118q2 5 11.5 6.5t13.5 1.5z" />
    <glyph glyph-name="uni0218" unicode="&#x218;" horiz-adv-x="543" 
d="M276 -12q-75 0 -121 21.5t-67.5 57t-21.5 75.5q0 16 3.5 26.5t12 15t22.5 2.5q-2 -7 -3.5 -14t-1.5 -19q0 -47 22.5 -77.5t62 -45t90.5 -14.5q81 0 129.5 35t48.5 104q0 45 -21.5 77t-61.5 60t-98 59q-52 29 -93 55.5t-64.5 60.5t-23.5 83q0 53 26 86t69.5 48.5
t94.5 15.5q83 0 134 -35.5t51 -94.5q0 -12 -2.5 -19t-10.5 -12q-9 -5 -24 -1q4 7 5 13.5t1 12.5q0 38 -21.5 61.5t-57 35t-77.5 11.5q-39 0 -74.5 -11t-58.5 -36.5t-23 -70.5q0 -48 25.5 -79.5t64 -54t76.5 -43.5q61 -32 104.5 -63.5t67.5 -69.5t24 -89q0 -28 -9 -57.5
t-32 -54t-63.5 -40t-103.5 -15.5zM260 -180q-7 2 -11.5 6t-6.5 8q14 14 20 27.5t6 29.5q0 13 -3.5 20.5t-9.5 12.5t-14 8q0 8 8.5 21t28.5 13q11 0 25 -8.5t14 -38.5q0 -19 -11 -44.5t-46 -54.5z" />
    <glyph glyph-name="uni0219" unicode="&#x219;" horiz-adv-x="460" 
d="M227 -12q-66 0 -106 17.5t-58 46.5t-18 62q0 16 4 25.5t12 14t21 2.5q-3 -7 -4.5 -14t-1.5 -18q0 -56 41.5 -82t106.5 -26q70 0 114 24.5t44 70.5q0 38 -24 59.5t-61 37t-76 34.5t-73.5 37.5t-56.5 46.5t-22 74q0 41 22.5 66t59.5 36t80 11q83 0 124.5 -28t41.5 -75
q0 -11 -2.5 -18.5t-10.5 -12.5q-4 -3 -10 -3t-13 2q3 7 4 13.5t1 12.5q0 42 -36.5 61.5t-100.5 19.5q-33 0 -62.5 -7.5t-47.5 -25.5t-18 -49q0 -38 19 -61.5t50.5 -39.5t66.5 -33q31 -14 62 -27.5t57 -30t42 -40t16 -58.5q0 -27 -15.5 -56t-55.5 -49t-116 -20zM218 -180
q-7 2 -11.5 6t-6.5 8q14 14 20 27.5t6 29.5q0 13 -3.5 20.5t-9.5 12.5t-14 8q0 8 8.5 21t28.5 13q11 0 25 -8.5t14 -38.5q0 -19 -11 -44.5t-46 -54.5z" />
    <glyph glyph-name="uni021A" unicode="&#x21a;" horiz-adv-x="503" 
d="M256 -8q-8 0 -12.5 6t-4.5 16l-2 661l30 2l1 -590q0 -31 1.5 -53t4.5 -34q-3 -3 -7 -5.5t-11 -2.5zM32 662q-4 1 -7 5t-4 9t1 8.5t7 3.5h446q5 0 7 -3.5t1 -8.5t-4 -9t-7 -5h-74.5h-75h-74.5h-72h-72h-72zM247 -180q-7 2 -11.5 6t-6.5 8q14 14 20 27.5t6 29.5
q0 13 -3.5 20.5t-9.5 12.5t-14 8q0 8 8.5 21t28.5 13q11 0 25 -8.5t14 -38.5q0 -19 -11 -44.5t-46 -54.5z" />
    <glyph glyph-name="uni021B" unicode="&#x21b;" horiz-adv-x="325" 
d="M190 -12q-36 0 -58 21.5t-22 61.5v539q0 11 5 16.5t14 5.5q7 0 11 -2.5t7 -5.5q-4 -11 -5 -58.5t-1 -137.5l-1 -357q0 -25 13 -40t38 -15q17 0 32.5 7t21.5 20q5 -6 7 -11t2 -10q0 -16 -19.5 -25t-44.5 -9zM36 472l1 14q1 6 4 10t7 4h170h11t15 0.5t15 1t11 0.5l-1 -14
q-1 -6 -3.5 -10t-7.5 -4h-162q-10 0 -30 -0.5t-30 -1.5zM171 -180q-7 2 -11.5 6t-6.5 8q14 14 20 27.5t6 29.5q0 13 -3.5 20.5t-9.5 12.5t-14 8q0 8 8.5 21t28.5 13q11 0 25 -8.5t14 -38.5q0 -19 -11 -44.5t-46 -54.5z" />
    <glyph glyph-name="uni0237" unicode="&#x237;" horiz-adv-x="238" 
d="M34 -236q-43 0 -66 19t-23 53q0 11 5.5 21.5t18.5 10.5h1.5h1.5q-1 -6 -1.5 -11.5t-0.5 -10.5q0 -24 10.5 -35.5t25 -15t26.5 -3.5q35 0 53 15.5t25 44t7 68.5l1 497q0 29 -1.5 52t-4.5 35q3 3 7 5.5t11 2.5q8 0 12.5 -5.5t4.5 -16.5l1 -573q0 -23 -3.5 -49.5t-15 -50
t-34.5 -38.5t-61 -15z" />
    <glyph glyph-name="ascript" unicode="&#x251;" horiz-adv-x="544" 
d="M219 -12q-57 0 -90.5 25t-49.5 63t-21 77.5t-5 68.5q0 132 52.5 209.5t155.5 77.5q55 0 94.5 -23t55.5 -68q1 15 1 33t-0.5 33t-2.5 20q3 3 5.5 4.5t7.5 1.5q12 0 16 -7t4 -15l-1 -417q0 -28 8.5 -39t21.5 -11q6 0 14 3t13 15q5 -6 7.5 -11.5t2.5 -10.5q0 -11 -11 -17.5
t-29 -6.5q-28 0 -42.5 20t-14.5 60v127l23 29q-6 -44 -21.5 -86.5t-41.5 -77.5t-63.5 -56t-88.5 -21zM221 16q43 0 78 20t60 56.5t38.5 84.5t13.5 105q0 32 -6 67t-22 65t-46 48.5t-78 18.5q-81 0 -127.5 -62t-46.5 -194q0 -28 4 -63.5t17.5 -69t41 -55t73.5 -21.5z" />
    <glyph glyph-name="uni0259" unicode="&#x259;" horiz-adv-x="497" 
d="M229 512q101 0 158 -63.5t57 -191.5q0 -124 -56.5 -196.5t-166.5 -72.5q-49 0 -85.5 16t-56.5 46.5t-20 74.5q0 76 61 113.5t176 37.5q43 0 74.5 -4t59.5 -9v-25q-28 6 -71 9.5t-75 3.5q-47 0 -83.5 -8t-61 -23.5t-37 -39t-12.5 -55.5q0 -42 20 -66t50.5 -34t62.5 -10
q83 0 136 58.5t53 179.5q0 88 -26.5 138t-69 71t-90.5 21q-52 0 -97 -22.5t-59 -75.5q-9 4 -13 13t5 30q19 43 64.5 63.5t102.5 20.5z" />
    <glyph glyph-name="uni210A" unicode="&#x261;" horiz-adv-x="529" 
d="M208 -240q-41 0 -75.5 13.5t-55.5 41.5t-21 69q0 30 11.5 47.5t24.5 17.5t19 -9q-14 -8 -20 -21.5t-6 -31.5q0 -36 17.5 -58t46.5 -31.5t61 -9.5q107 0 154 66.5t47 207.5v30v33q-19 -63 -67 -99t-115 -36q-56 0 -95.5 27.5t-60 84.5t-20.5 145q0 28 4 63t15.5 70.5
t35 65.5t62 48t96.5 18q24 0 56 -4.5t64.5 -18.5t55.5 -43v-400q0 -108 -30.5 -170.5t-83 -89t-120.5 -26.5zM231 18q53 0 88 23.5t55 59.5t28.5 75.5t8.5 70.5l1 186q-21 26 -63 38.5t-92 12.5q-57 0 -91.5 -24.5t-52 -62.5t-23 -78.5t-5.5 -73.5q0 -118 38 -172.5
t108 -54.5z" />
    <glyph glyph-name="uni02BC" unicode="&#x2bc;" horiz-adv-x="600" 
d="M299 659l6 -117h22l6 117q-8 2 -17 2t-17 -2z" />
    <glyph glyph-name="circumflex" unicode="&#x2c6;" horiz-adv-x="600" 
d="M197 556q-4 0 -13.5 2t-11.5 6l110 118q6 1 12 1.5t11.5 0t11.5 -1.5l110 -118q-4 -4 -11.5 -6t-12.5 -2l-103 92z" />
    <glyph glyph-name="caron" unicode="&#x2c7;" horiz-adv-x="600" 
d="M197 687l103 -92l103 92q5 0 12.5 -1.5t11.5 -6.5l-110 -118q-6 -1 -11.5 -1.5t-11.5 0t-12 1.5l-110 118q2 5 11.5 6.5t13.5 1.5z" />
    <glyph glyph-name="breve" unicode="&#x2d8;" horiz-adv-x="600" 
d="M299 592q36 0 57 14.5t32.5 33.5t15.5 31q7 -1 13.5 -2t13.5 -3q-7 -27 -24.5 -50.5t-44.5 -38.5t-63 -15q-45 0 -74 17.5t-44.5 41t-20.5 41.5q6 5 12.5 7.5t13.5 3.5q6 -14 19 -33.5t36 -33.5t58 -14z" />
    <glyph glyph-name="dotaccent" unicode="&#x2d9;" horiz-adv-x="600" 
d="M297 573q-13 0 -23.5 10.5t-10.5 23.5q0 14 10.5 24t23.5 10q14 0 24 -10t10 -24q0 -13 -10 -23.5t-24 -10.5z" />
    <glyph glyph-name="ring" unicode="&#x2da;" horiz-adv-x="600" 
d="M302 706q36 0 58 -20.5t22 -55.5q-1 -37 -23.5 -58.5t-60.5 -21.5q-36 0 -58 21t-22 55q0 37 23.5 58.5t60.5 21.5zM300 684q-25 0 -40.5 -15t-15.5 -41q0 -25 15.5 -40.5t40.5 -15.5q26 0 41 15.5t15 40.5q0 26 -15 41t-41 15z" />
    <glyph glyph-name="ogonek" unicode="&#x2db;" horiz-adv-x="600" 
d="M307 -168q-21 0 -39.5 8t-30 24.5t-11.5 41.5q0 29 15 49.5t38.5 35t48.5 22.5l11 -15q-39 -18 -60 -37.5t-21 -50.5q0 -24 13.5 -39t39.5 -15q32 0 53.5 18.5t29.5 32.5q5 -3 7 -7.5t0 -10.5q-13 -28 -39 -42.5t-55 -14.5z" />
    <glyph glyph-name="tilde" unicode="&#x2dc;" horiz-adv-x="600" 
d="M431 651q-6 -29 -25.5 -49t-48.5 -20q-27 0 -45 12.5t-34 25.5t-40 13q-19 0 -36 -11.5t-23 -34.5q-5 -1 -10 2.5t-9 7.5q8 34 31 50.5t50 16.5q28 0 45.5 -13t34.5 -25.5t41 -12.5q21 0 31.5 13.5t17.5 33.5q7 0 11.5 -2t8.5 -7z" />
    <glyph glyph-name="hungarumlaut" unicode="&#x2dd;" horiz-adv-x="600" 
d="M316 694l-139 -157q-5 2 -10.5 5.5t-8.5 7.5l115 162q12 -1 22.5 -5t20.5 -13zM442 694l-139 -157q-5 2 -10.5 5.5t-8.5 7.5l115 162q12 -1 22.5 -5t20.5 -13z" />
    <glyph glyph-name="gravecomb" unicode="&#x300;" 
d="M188 689q7 5 13.5 7.5t14.5 4t17 1.5l91 -140q-1 -4 -10.5 -5t-14.5 0z" />
    <glyph glyph-name="acutecomb" unicode="&#x301;" 
d="M365 689l-111 -132q-5 -1 -14 0t-11 5l91 140q10 0 17.5 -1.5t14 -4t13.5 -7.5z" />
    <glyph glyph-name="uni0302" unicode="&#x302;" 
d="M197 556q-4 0 -13.5 2t-11.5 6l110 118q6 1 12 1.5t11.5 0t11.5 -1.5l110 -118q-4 -4 -11.5 -6t-12.5 -2l-103 92z" />
    <glyph glyph-name="tildecomb" unicode="&#x303;" 
d="M431 651q-6 -29 -25.5 -49t-48.5 -20q-27 0 -45 12.5t-34 25.5t-40 13q-19 0 -36 -11.5t-23 -34.5q-5 -1 -10 2.5t-9 7.5q8 34 31 50.5t50 16.5q28 0 45.5 -13t34.5 -25.5t41 -12.5q21 0 31.5 13.5t17.5 33.5q7 0 11.5 -2t8.5 -7z" />
    <glyph glyph-name="uni0304" unicode="&#x304;" 
d="M182 627h235q6 -14 0 -28h-235q-6 14 0 28z" />
    <glyph glyph-name="uni0306" unicode="&#x306;" 
d="M299 592q36 0 57 14.5t32.5 33.5t15.5 31q7 -1 13.5 -2t13.5 -3q-7 -27 -24.5 -50.5t-44.5 -38.5t-63 -15q-45 0 -74 17.5t-44.5 41t-20.5 41.5q6 5 12.5 7.5t13.5 3.5q6 -14 19 -33.5t36 -33.5t58 -14z" />
    <glyph glyph-name="uni0307" unicode="&#x307;" 
d="M297 573q-13 0 -23.5 10.5t-10.5 23.5q0 14 10.5 24t23.5 10q14 0 24 -10t10 -24q0 -13 -10 -23.5t-24 -10.5z" />
    <glyph glyph-name="uni0308" unicode="&#x308;" 
d="M220 587q-13 0 -23.5 10.5t-10.5 23.5q0 14 10.5 24t23.5 10q14 0 24 -10t10 -24q0 -13 -10 -23.5t-24 -10.5zM380 587q-13 0 -23.5 10.5t-10.5 23.5q0 14 10.5 24t23.5 10q14 0 24 -10t10 -24q0 -13 -10 -23.5t-24 -10.5z" />
    <glyph glyph-name="hookabovecomb" unicode="&#x309;" 
d="M198 530l-9 21q27 7 41.5 15.5t14.5 24.5q0 14 -12.5 21.5t-29 10t-30.5 2.5l-2 29q26 0 51 -5.5t41.5 -18.5t16.5 -37q0 -22 -18 -38.5t-64 -24.5z" />
    <glyph glyph-name="uni030A" unicode="&#x30a;" 
d="M302 706q36 0 58 -20.5t22 -55.5q-1 -37 -23.5 -58.5t-60.5 -21.5q-36 0 -58 21t-22 55q0 37 23.5 58.5t60.5 21.5zM300 684q-25 0 -40.5 -15t-15.5 -41q0 -25 15.5 -40.5t40.5 -15.5q26 0 41 15.5t15 40.5q0 26 -15 41t-41 15z" />
    <glyph glyph-name="uni030B" unicode="&#x30b;" 
d="M316 694l-139 -157q-5 2 -10.5 5.5t-8.5 7.5l115 162q12 -1 22.5 -5t20.5 -13zM442 694l-139 -157q-5 2 -10.5 5.5t-8.5 7.5l115 162q12 -1 22.5 -5t20.5 -13z" />
    <glyph glyph-name="uni030C" unicode="&#x30c;" 
d="M197 687l103 -92l103 92q5 0 12.5 -1.5t11.5 -6.5l-110 -118q-6 -1 -11.5 -1.5t-11.5 0t-12 1.5l-110 118q2 5 11.5 6.5t13.5 1.5z" />
    <glyph glyph-name="uni0312" unicode="&#x312;" 
d="M280 699q8 -2 11 -4.5t5 -6.5q-13 -20 -19 -38.5t-6 -32.5q0 -15 4.5 -19.5t15.5 -6.5q0 -8 -7 -17.5t-21 -9.5q-7 0 -14.5 3.5t-12.5 12t-5 23.5q0 17 9.5 40t39.5 56z" />
    <glyph glyph-name="uni031B" unicode="&#x31b;" 
d="M177 480l-9 23q27 10 39 22.5t12 31.5q0 7 -3 19t-15 26q4 4 9 7.5t11.5 7.5t12.5 6q13 -13 18 -30t5 -30q0 -21 -9.5 -37t-27 -27t-43.5 -19z" />
    <glyph glyph-name="dotbelowcomb" unicode="&#x323;" 
d="M300 -113q-13 0 -23.5 10.5t-10.5 23.5q0 14 10.5 24t23.5 10q14 0 24 -10t10 -24q0 -13 -10 -23.5t-24 -10.5z" />
    <glyph glyph-name="uni0324" unicode="&#x324;" 
d="M220 -131q-13 0 -23.5 10.5t-10.5 23.5q0 14 10.5 24t23.5 10q14 0 24 -10t10 -24q0 -13 -10 -23.5t-24 -10.5zM380 -131q-13 0 -23.5 10.5t-10.5 23.5q0 14 10.5 24t23.5 10q14 0 24 -10t10 -24q0 -13 -10 -23.5t-24 -10.5z" />
    <glyph glyph-name="uni0326" unicode="&#x326;" 
d="M286 -180q-7 2 -11.5 6t-6.5 8q14 14 20 27.5t6 29.5q0 13 -3.5 20.5t-9.5 12.5t-14 8q0 8 8.5 21t28.5 13q11 0 25 -8.5t14 -38.5q0 -19 -11 -44.5t-46 -54.5z" />
    <glyph glyph-name="uni0327" unicode="&#x327;" 
d="M307 0l-9 -41q39 0 59.5 -19.5t20.5 -50.5q0 -36 -25 -57t-61 -21q-30 0 -48.5 8.5t-29.5 19.5q-1 6 3.5 12.5t8.5 9.5q8 -6 21.5 -14t40.5 -8q25 0 41 11.5t16 36.5q0 22 -16 37t-66 11l14 65h30z" />
    <glyph glyph-name="uni0328" unicode="&#x328;" 
d="M307 -168q-21 0 -39.5 8t-30 24.5t-11.5 41.5q0 29 15 49.5t38.5 35t48.5 22.5l11 -15q-39 -18 -60 -37.5t-21 -50.5q0 -24 13.5 -39t39.5 -15q32 0 53.5 18.5t29.5 32.5q5 -3 7 -7.5t0 -10.5q-13 -28 -39 -42.5t-55 -14.5z" />
    <glyph glyph-name="uni032E" unicode="&#x32e;" 
d="M303 -120q36 0 57 14.5t32.5 32.5t15.5 30l27 -5q-7 -27 -25.5 -50.5t-47 -38.5t-65.5 -15q-42 0 -70 17.5t-43 41t-20 41.5l26 11q6 -14 19 -32.5t36 -32.5t58 -14z" />
    <glyph glyph-name="uni0331" unicode="&#x331;" 
d="M182 -72h235q6 -14 0 -28h-235q-6 14 0 28z" />
    <glyph glyph-name="uni0374" unicode="&#x374;" horiz-adv-x="147" 
d="M56 557q-4 -1 -12.5 0t-10.5 5l51 170q11 -1 19.5 -3.5t16.5 -9.5z" />
    <glyph glyph-name="uni0375" unicode="&#x375;" horiz-adv-x="147" 
d="M56 -116q-4 -1 -12.5 0t-10.5 5l51 170q11 -1 19.5 -3.5t16.5 -9.5z" />
    <glyph glyph-name="uni037A" unicode="&#x37a;" horiz-adv-x="301" 
d="M160 -230q-31 0 -42.5 20.5t-11.5 56.5q0 30 -0.5 53.5t-3.5 35.5q3 3 7 5.5t11 2.5q8 0 11.5 -5.5t3.5 -16.5v-71q-1 -28 5 -41.5t21 -13.5q7 0 14.5 5t11.5 18q9 -10 9 -21q0 -13 -11.5 -20.5t-24.5 -7.5z" />
    <glyph glyph-name="uni037E" unicode="&#x37e;" horiz-adv-x="237" 
d="M123 326q-13 0 -23.5 10.5t-10.5 23.5q0 14 10.5 24t23.5 10q14 0 24 -10t10 -24q0 -13 -10 -23.5t-24 -10.5zM99 -90q-7 2 -11.5 6t-6.5 8q14 14 20 27.5t6 29.5q0 13 -3.5 20.5t-9.5 12.5t-14 8q0 8 8.5 21t28.5 13q11 0 25 -8.5t14 -38.5q0 -19 -11 -44.5t-46 -54.5z
" />
    <glyph glyph-name="tonos" unicode="&#x384;" horiz-adv-x="207" 
d="M86 557q-4 -1 -12.5 0t-10.5 5l51 170q11 -1 19.5 -3.5t16.5 -9.5z" />
    <glyph glyph-name="dieresistonos" unicode="&#x385;" horiz-adv-x="321" 
d="M165 589q-4 -1 -12.5 0t-10.5 5l20 158q9 0 15.5 -1t12.5 -2.5t12 -5.5zM81 587q-15 0 -23 11t-8 25t8 25t23 11t22.5 -11t7.5 -25t-7.5 -25t-22.5 -11zM241 587q-15 0 -23 11t-8 25t8 25t23 11t22.5 -11t7.5 -25t-7.5 -25t-22.5 -11z" />
    <glyph glyph-name="Alphatonos" unicode="&#x386;" horiz-adv-x="562" 
d="M282 700q9 0 15.5 -4.5t9.5 -12.5l224 -652q4 -10 8 -17.5t8 -12.5q-4 -5 -8 -7t-9 -2q-7 0 -13.5 3.5t-8.5 10.5l-233 680h12l-223 -657q-1 -4 -3 -10t-2 -11q0 -3 0.5 -7t1.5 -7q-4 -1 -7.5 -1.5t-8.5 -0.5q-8 0 -13.5 5t-4.5 13q0 5 2.5 12t3.5 12l227 658q11 8 22 8z
M130 260h305v-26h-305v26zM116 521q-4 -1 -12.5 0t-10.5 5l51 170q11 -1 19.5 -3.5t16.5 -9.5z" />
    <glyph glyph-name="anoteleia" unicode="&#x387;" horiz-adv-x="228" 
d="M114 326q-13 0 -23.5 10.5t-10.5 23.5q0 14 10.5 24t23.5 10q14 0 24 -10t10 -24q0 -13 -10 -23.5t-24 -10.5z" />
    <glyph glyph-name="Epsilontonos" unicode="&#x388;" horiz-adv-x="580" 
d="M183 0q-8 0 -12.5 6t-4.5 16l-2 578q0 30 -1.5 49t-4.5 31q3 4 7 6t11 2h314q5 0 7 -3.5t1 -8.5t-4 -9t-7 -5h-146.5h-147.5l2 -637q51 0 102 0.5t101.5 0.5h101.5q4 -1 6 -5.5t2 -9t-1.5 -8t-6.5 -3.5h-317zM188 354v26h280q2 -7 2 -13t-2 -13h-280zM43 521
q-4 -1 -12.5 0t-10.5 5l51 170q11 -1 19.5 -3.5t16.5 -9.5z" />
    <glyph glyph-name="Etatonos" unicode="&#x389;" horiz-adv-x="719" 
d="M195 87q0 -30 1.5 -52.5t4.5 -34.5q-3 -3 -7 -5.5t-11 -2.5q-8 0 -12.5 6t-4.5 16l-2 586q0 30 -1.5 52.5t-4.5 34.5q3 3 7 5.5t11 2.5q8 0 13.5 -5.5t5.5 -16.5v-586zM612 87q0 -30 1.5 -52.5t4.5 -34.5q-3 -3 -7 -5.5t-11 -2.5q-8 0 -12.5 6t-4.5 16l-2 586
q0 30 -1.5 52.5t-4.5 34.5q3 3 7 5.5t11 2.5q8 0 13.5 -5.5t5.5 -16.5v-586zM187 380h411v-26h-411v26zM43 520q-4 -1 -12.5 0t-10.5 5l51 170q11 -1 19.5 -3.5t16.5 -9.5z" />
    <glyph glyph-name="Iotatonos" unicode="&#x38a;" horiz-adv-x="302" 
d="M183 -8q-8 0 -12.5 6t-4.5 16l-2 586q0 30 -1.5 52.5t-4.5 34.5q3 3 7 5.5t11 2.5q8 0 13.5 -5.5t5.5 -16.5v-586q0 -30 1.5 -52.5t4.5 -34.5q-3 -3 -7 -5.5t-11 -2.5zM43 521q-4 -1 -12.5 0t-10.5 5l51 170q11 -1 19.5 -3.5t16.5 -9.5z" />
    <glyph glyph-name="Omicrontonos" unicode="&#x38c;" horiz-adv-x="655" 
d="M336 -12q-118 0 -183.5 86.5t-65.5 269.5t65.5 269.5t183.5 86.5t183.5 -86.5t65.5 -269.5t-65.5 -269.5t-183.5 -86.5zM336 16q102 0 159.5 79.5t57.5 248.5q0 170 -57.5 249t-159.5 79t-159.5 -79t-57.5 -249q0 -169 57.5 -248.5t159.5 -79.5zM43 521q-4 -1 -12.5 0
t-10.5 5l51 170q11 -1 19.5 -3.5t16.5 -9.5z" />
    <glyph glyph-name="Upsilontonos" unicode="&#x38e;" horiz-adv-x="692" 
d="M414 -8q-8 0 -13 6t-5 16v126q0 44 -15 95.5t-47 132.5l-88 219q-13 33 -25 55.5t-35 22.5q-10 0 -18 -5t-12 -16q-12 5 -12 18q0 11 12 22t33 11q32 0 49 -25t33 -67l88 -222q21 -52 33 -84t17.5 -58t5.5 -61h-11q0 30 9 65t22 70t25.5 64t19.5 46l76 180
q12 28 23.5 48.5t26.5 32t36 11.5t33 -11t12 -22q0 -13 -12 -18q-4 11 -12 16t-18 5q-22 0 -35 -21t-29 -57l-75 -172q-7 -17 -20.5 -49t-28 -72t-24 -80.5t-9.5 -73.5v-58q0 -28 2.5 -49t5.5 -33q-3 -3 -7 -5.5t-11 -2.5zM43 521q-4 -1 -12.5 0t-10.5 5l51 170
q11 -1 19.5 -3.5t16.5 -9.5z" />
    <glyph glyph-name="Omegatonos" unicode="&#x38f;" horiz-adv-x="717" 
d="M309 28v-28q-55 27 -104.5 81.5t-80 130t-30.5 162.5q0 102 34 175t95 112t140 39q80 0 140.5 -39t94.5 -112t34 -175q0 -87 -26 -162t-74 -130t-115 -82v28q86 44 134.5 134t48.5 212q0 93 -30.5 159.5t-84 102.5t-122.5 36t-122.5 -36t-84 -102.5t-30.5 -159.5
q0 -81 27 -148.5t69 -117.5t87 -80zM101 0q-6 0 -9.5 2.5t-5.5 6.5t-2 8.5t3 9.5l222 -5v-22h-208zM417 0v22l222 5q3 -5 3 -9.5t-2 -8.5t-5.5 -6.5t-9.5 -2.5h-208zM43 521q-4 -1 -12.5 0t-10.5 5l51 170q11 -1 19.5 -3.5t16.5 -9.5z" />
    <glyph glyph-name="iotadieresistonos" unicode="&#x390;" horiz-adv-x="271" 
d="M173 -12q-35 0 -51 23t-16 60v346q0 30 -1.5 52.5t-4.5 34.5q3 3 7 5.5t11 2.5q9 0 13.5 -5.5t4.5 -16.5v-421q0 -28 10.5 -40.5t27.5 -12.5q15 0 23.5 7t14.5 20q5 -6 7 -11t2 -10q0 -16 -15.5 -25t-32.5 -9zM125 589q-4 -1 -12.5 0t-10.5 5l20 158q9 0 15.5 -1
t12.5 -2.5t12 -5.5zM41 587q-15 0 -23 11t-8 25t8 25t23 11t22.5 -11t7.5 -25t-7.5 -25t-22.5 -11zM201 587q-15 0 -23 11t-8 25t8 25t23 11t22.5 -11t7.5 -25t-7.5 -25t-22.5 -11z" />
    <glyph glyph-name="Alpha" unicode="&#x391;" horiz-adv-x="562" 
d="M282 700q9 0 15.5 -4.5t9.5 -12.5l224 -652q4 -10 8 -17.5t8 -12.5q-4 -5 -8 -7t-9 -2q-7 0 -13.5 3.5t-8.5 10.5l-233 680h12l-223 -657q-1 -4 -3 -10t-2 -11q0 -3 0.5 -7t1.5 -7q-4 -1 -7.5 -1.5t-8.5 -0.5q-8 0 -13.5 5t-4.5 13q0 5 2.5 12t3.5 12l227 658q11 8 22 8z
M130 260h305v-26h-305v26z" />
    <glyph glyph-name="Beta" unicode="&#x392;" horiz-adv-x="549" 
d="M127 0q-9 0 -13.5 6t-5.5 16v578q0 5 -0.5 22.5t-2 37t-4.5 27.5q2 2 22.5 7.5t81.5 5.5q123 0 183.5 -39.5t60.5 -130.5q0 -62 -29.5 -107t-90.5 -65q80 -13 117.5 -58t37.5 -122q0 -73 -32 -111.5t-93.5 -52.5t-149.5 -14h-82zM138 28h82q70 0 122 10.5t81 43t29 98.5
q0 64 -28 99.5t-80.5 50t-124.5 14.5h-89l-7 26h131q41 0 78 16t61 51.5t24 93.5q0 81 -53 113t-169 32q-20 0 -34.5 -1t-22.5 -3v-644z" />
    <glyph glyph-name="Gamma" unicode="&#x393;" horiz-adv-x="490" 
d="M126 -8q-8 0 -12.5 6t-4.5 16l-2 586q0 30 -1.5 49t-4.5 31q3 4 7 6t11 2h332q6 0 8 -3t1 -7.5t-3.5 -9t-6.5 -6.5h-157h-157l2 -575q0 -30 1.5 -52.5t4.5 -34.5q-3 -3 -7 -5.5t-11 -2.5z" />
    <glyph glyph-name="uni0394" unicode="&#x394;" horiz-adv-x="585" 
d="M46 0q-10 0 -15.5 8t-2.5 18l243 662q11 8 22 8q9 0 15.5 -4.5t9.5 -12.5l236 -640q3 -10 7.5 -17.5t8.5 -12.5q-5 -5 -10 -7t-10 -2h-504zM57 13l-9 13h491l-9 -13l-242 661h8z" />
    <glyph glyph-name="Epsilon" unicode="&#x395;" horiz-adv-x="523" 
d="M126 0q-8 0 -12.5 6t-4.5 16l-2 578q0 30 -1.5 49t-4.5 31q3 4 7 6t11 2h314q5 0 7 -3.5t1 -8.5t-4 -9t-7 -5h-146.5h-147.5l2 -637q51 0 102 0.5t101.5 0.5h101.5q4 -1 6 -5.5t2 -9t-1.5 -8t-6.5 -3.5h-317zM131 354v26h280q2 -7 2 -13t-2 -13h-280z" />
    <glyph glyph-name="Zeta" unicode="&#x396;" horiz-adv-x="553" 
d="M63 -5l-11 14q0 9 6 21t13 23l392 612l12 -2h-299q-49 0 -69 -18t-20 -43t12.5 -42t36.5 -31q-5 -10 -20 -10q-25 0 -41 27.5t-16 56.5q0 35 29.5 60.5t84.5 25.5h174q52 0 82 0.5t46 4.5l17 -9q0 -16 -4.5 -29t-10.5 -23l-399 -620v13h305q62 0 84 20.5t23 48.5
q1 31 -13.5 53.5t-32.5 32.5q7 4 10 6t9 2q20 0 32.5 -16t18.5 -37.5t6 -38.5q0 -40 -30 -68.5t-96 -28.5h-207q-30 0 -62 -0.5t-62 -4.5z" />
    <glyph glyph-name="Eta" unicode="&#x397;" horiz-adv-x="662" 
d="M138 87q0 -30 1.5 -52.5t4.5 -34.5q-3 -3 -7 -5.5t-11 -2.5q-8 0 -12.5 6t-4.5 16l-2 586q0 30 -1.5 52.5t-4.5 34.5q3 3 7 5.5t11 2.5q8 0 13.5 -5.5t5.5 -16.5v-586zM555 87q0 -30 1.5 -52.5t4.5 -34.5q-3 -3 -7 -5.5t-11 -2.5q-8 0 -12.5 6t-4.5 16l-2 586
q0 30 -1.5 52.5t-4.5 34.5q3 3 7 5.5t11 2.5q8 0 13.5 -5.5t5.5 -16.5v-586zM130 380h411v-26h-411v26z" />
    <glyph glyph-name="Theta" unicode="&#x398;" horiz-adv-x="638" 
d="M199 331q-10 14 0 27h240q5 -7 4.5 -14t-4.5 -13h-240zM319 -12q-118 0 -183.5 86.5t-65.5 269.5t65.5 269.5t183.5 86.5t183.5 -86.5t65.5 -269.5t-65.5 -269.5t-183.5 -86.5zM319 16q102 0 159.5 79.5t57.5 248.5q0 170 -57.5 249t-159.5 79t-159.5 -79t-57.5 -249
q0 -169 57.5 -248.5t159.5 -79.5z" />
    <glyph glyph-name="Iota" unicode="&#x399;" horiz-adv-x="245" 
d="M126 -8q-8 0 -12.5 6t-4.5 16l-2 586q0 30 -1.5 52.5t-4.5 34.5q3 3 7 5.5t11 2.5q8 0 13.5 -5.5t5.5 -16.5v-586q0 -30 1.5 -52.5t4.5 -34.5q-3 -3 -7 -5.5t-11 -2.5z" />
    <glyph glyph-name="Kappa" unicode="&#x39a;" horiz-adv-x="554" 
d="M494 -8q-11 0 -23 6.5t-22 18.5t-15 28l-55 176q-9 23 -20.5 43.5t-32.5 36.5t-58 25t-97 9h-40l-1 26h20.5h20.5q60 0 106.5 23.5t78.5 61.5t48 82t16 86q0 31 -6.5 48t-11.5 25q5 5 10 8.5t10 3.5q8 0 14.5 -8t11 -25t4.5 -45q0 -52 -21 -108t-67 -101.5t-123 -67.5
l6 11q75 -7 111 -43.5t52 -88.5l50 -162q8 -24 17.5 -32.5t20.5 -8.5q5 0 15.5 3t17.5 14q5 -6 5 -15q0 -16 -15.5 -23t-26.5 -7zM126 -8q-8 0 -12.5 6t-4.5 16l-2 586q0 30 -1.5 52.5t-4.5 34.5q3 3 7 5.5t11 2.5q8 0 12.5 -5.5t4.5 -16.5l2 -586q0 -30 1.5 -52.5
t4.5 -34.5q-3 -3 -7 -5.5t-11 -2.5z" />
    <glyph glyph-name="Lambda" unicode="&#x39b;" horiz-adv-x="582" 
d="M43 -12q-10 0 -15.5 5t-5.5 13q0 5 2 12t4 12l242 658q6 5 11.5 6.5t10.5 1.5q19 0 25 -17l239 -652q4 -10 8 -17.5t8 -12.5q-5 -5 -10 -7t-10 -2q-15 0 -20 14l-248 680h14l-238 -657q-1 -4 -3 -10t-2 -11q0 -3 0.5 -7t1.5 -7q-4 -1 -7 -1.5t-7 -0.5z" />
    <glyph glyph-name="Mu" unicode="&#x39c;" horiz-adv-x="850" 
d="M743 87q0 -30 1.5 -52.5t4.5 -34.5q-3 -3 -7 -5.5t-11 -2.5q-8 0 -12.5 6t-4.5 16l-2 633l6 -2l-272 -509q-7 -5 -15 -5t-16 5q-47 82 -94.5 164t-95 165t-95.5 164l4 6l2 -548q0 -30 1.5 -52.5t4.5 -34.5q-3 -3 -7 -5.5t-11 -2.5t-11 6t-4 16l-2 586q0 30 -1.5 52.5
t-4.5 34.5q3 3 6.5 5.5t9.5 2.5q5 0 9 -2t6 -7q75 -131 151 -262.5t151 -262.5l-8 -5q35 66 70.5 133t71 134.5t71 134.5t70.5 133q3 2 7 3t8 1q8 0 12.5 -5.5t4.5 -16.5z" />
    <glyph glyph-name="Nu" unicode="&#x39d;" horiz-adv-x="650" 
d="M121 -8q-7 0 -11 2.5t-7 5.5q3 12 4.5 34.5t1.5 52.5l-2 503q0 30 -1.5 57.5t-4.5 39.5q6 5 13 5.5t12.5 -1t6.5 -3.5q28 -42 67 -103.5t83 -132.5t89.5 -143.5t87 -139t75.5 -116.5l-2 547q0 30 -1.5 52.5t-4.5 34.5q3 3 7 5.5t11 2.5q8 0 12.5 -5.5t4.5 -16.5l2 -586
q0 -30 0.5 -52.5t1.5 -34.5q-2 -3 -7 -4.5t-9.5 -1.5t-7.5 1q-17 24 -46 68t-66 101t-77 120.5t-79.5 126.5t-75 119.5t-62.5 98.5l2 -615q0 -10 -4.5 -16t-12.5 -6z" />
    <glyph glyph-name="Xi" unicode="&#x39e;" horiz-adv-x="523" 
d="M61 662q-2 2 -4.5 6.5t-3 9t1 7.5t6.5 3h402q5 0 7 -3.5t1 -8.5t-4 -9t-7 -5h-91.5h-91.5q-77 0 -135.5 -2.5t-80.5 2.5zM64 0q-6 0 -8.5 3.5t-2 8.5t3.5 9t7 5h97.5h97.5h85h72h44q4 -1 7 -5t3.5 -9t-2 -8.5t-8.5 -3.5h-396zM131 354q-6 13 0 26h280q2 -7 2 -13t-2 -13
h-280z" />
    <glyph glyph-name="Omicron" unicode="&#x39f;" horiz-adv-x="638" 
d="M319 -12q-118 0 -183.5 86.5t-65.5 269.5t65.5 269.5t183.5 86.5t183.5 -86.5t65.5 -269.5t-65.5 -269.5t-183.5 -86.5zM319 16q102 0 159.5 79.5t57.5 248.5q0 170 -57.5 249t-159.5 79t-159.5 -79t-57.5 -249q0 -169 57.5 -248.5t159.5 -79.5z" />
    <glyph glyph-name="Pi" unicode="&#x3a0;" horiz-adv-x="652" 
d="M126 -12q-8 0 -12.5 6t-4.5 16l-2 590q0 30 -1.5 52.5t-4.5 34.5q9 1 18 1h15h384h15t18 -1q-3 -12 -4.5 -34.5t-1.5 -52.5l-2 -517q0 -30 1.5 -52.5t4.5 -34.5q-3 -3 -7 -5.5t-11 -2.5q-8 0 -12.5 6t-4.5 16v652h-376v-579q0 -30 1.5 -52.5t4.5 -34.5q-3 -3 -7 -5.5
t-11 -2.5z" />
    <glyph glyph-name="Rho" unicode="&#x3a1;" horiz-adv-x="535" 
d="M127 -8q-9 0 -13.5 6t-5.5 16v586q0 5 -0.5 22.5t-2 37t-4.5 27.5q2 2 23 7.5t79 5.5q146 0 208.5 -50.5t62.5 -150.5q0 -113 -75 -165t-230 -52h-24.5t-21.5 1l-7 26q10 -1 22.5 -1.5t41.5 -0.5q88 0 146 20t87 62t29 109q0 63 -26 102t-80.5 56.5t-141.5 17.5
q-19 0 -33.5 -1t-22.5 -3v-583q0 -4 0.5 -22t2.5 -37t4 -28q-3 -3 -7 -5.5t-11 -2.5z" />
    <glyph glyph-name="Sigma" unicode="&#x3a3;" horiz-adv-x="463" 
d="M76 0v0q-7 0 -11.5 9t-3.5 16l200 337l5 -30l-215 331q-1 5 1.5 11t7 10t9.5 4h324q5 0 7 -3.5t1 -8.5t-4 -9t-7 -5h-156.5h-156.5l1 11l209 -322l-201 -338l-7 12q53 0 107.5 0.5t109.5 0.5h107q4 -1 6 -5.5t2 -9t-1.5 -8t-6.5 -3.5h-327z" />
    <glyph glyph-name="Tau" unicode="&#x3a4;" horiz-adv-x="503" 
d="M256 -8q-8 0 -12.5 6t-4.5 16l-2 661l30 2l1 -590q0 -31 1.5 -53t4.5 -34q-3 -3 -7 -5.5t-11 -2.5zM32 662q-4 1 -7 5t-4 9t1 8.5t7 3.5h446q5 0 7 -3.5t1 -8.5t-4 -9t-7 -5h-74.5h-75h-74.5h-72h-72h-72z" />
    <glyph glyph-name="Upsilon" unicode="&#x3a5;" horiz-adv-x="583" 
d="M305 -8q-8 0 -13 6t-5 16v126q0 44 -15 95.5t-47 132.5l-88 219q-13 33 -25 55.5t-35 22.5q-10 0 -18 -5t-12 -16q-12 5 -12 18q0 11 12 22t33 11q32 0 49 -25t33 -67l88 -222q21 -52 33 -84t17.5 -58t5.5 -61h-11q0 30 9 65t22 70t25.5 64t19.5 46l76 180
q12 28 23.5 48.5t26.5 32t36 11.5t33 -11t12 -22q0 -13 -12 -18q-4 11 -12 16t-18 5q-22 0 -35 -21t-29 -57l-75 -172q-7 -17 -20.5 -49t-28 -72t-24 -80.5t-9.5 -73.5v-58q0 -28 2.5 -49t5.5 -33q-3 -3 -7 -5.5t-11 -2.5z" />
    <glyph glyph-name="Phi" unicode="&#x3a6;" horiz-adv-x="771" 
d="M387 108q-101 0 -177 26t-118 81t-42 139q0 122 88.5 184t247.5 62q102 0 177 -26.5t116.5 -81t41.5 -138.5q0 -124 -89.5 -184.5t-244.5 -61.5zM385 136h5q89 0 156 23.5t105 72t38 122.5q0 75 -38 123t-105.5 71.5t-157.5 23.5h-4q-89 0 -157.5 -23.5t-106.5 -71.5
t-38 -123t38 -123t106.5 -71.5t158.5 -23.5zM389 -8q-8 0 -12.5 6t-4.5 16l-2 586q0 30 -1.5 52.5t-4.5 34.5q3 3 7 5.5t11 2.5q8 0 13.5 -5.5t5.5 -16.5v-586q0 -30 1.5 -52.5t4.5 -34.5q-3 -3 -7 -5.5t-11 -2.5z" />
    <glyph glyph-name="Chi" unicode="&#x3a7;" horiz-adv-x="574" 
d="M510 -7q-28 0 -47.5 18t-30.5 40l-160 298l-148 274q-11 21 -22.5 31.5t-26.5 10.5q-17 0 -23 -10t-4 -22q-11 1 -17 7.5t-6 16.5q0 14 13.5 26t36.5 12q29 0 48 -19t29 -39l147 -273l162 -299q10 -17 21.5 -29.5t27.5 -12.5q17 0 23 11t4 21q11 -1 17 -7.5t6 -16.5
q0 -14 -13.5 -26t-36.5 -12zM50 -5q-7 0 -12 4.5t-7 16.5q6 5 18.5 20.5t32.5 44.5l202 298l18 -25l-234 -348q-4 -5 -8.5 -8t-9.5 -3zM301 348l-17 22l204 319q4 5 8.5 8t9.5 3q8 0 12.5 -5t6.5 -16q-10 -8 -23.5 -25t-29.5 -41z" />
    <glyph glyph-name="Psi" unicode="&#x3a8;" horiz-adv-x="777" 
d="M394 211v28q84 0 142 24.5t88.5 77t30.5 135.5v137q0 34 11.5 53t27 26.5t27.5 7.5q15 0 27.5 -7t12.5 -23q0 -9 -5 -15q-7 11 -15.5 14t-14.5 3q-9 0 -18.5 -5t-16 -20.5t-6.5 -49.5v-123q0 -78 -24.5 -129.5t-65.5 -80.5t-93 -41t-108 -12zM392 211q-55 0 -107.5 12
t-93.5 41t-65.5 80.5t-24.5 129.5v123q0 34 -6.5 49.5t-16 20.5t-18.5 5q-7 0 -15 -3.5t-15 -13.5q-5 6 -5 15q0 16 13 23t27 7q13 0 28 -7.5t26.5 -26.5t11.5 -53v-137q0 -82 30.5 -134.5t89 -77.5t141.5 -25v-28zM396 -8q-8 0 -12.5 6t-4.5 16l-2 586q0 30 -1.5 52.5
t-4.5 34.5q3 3 7 5.5t11 2.5q8 0 13.5 -5.5t5.5 -16.5v-586q0 -30 1.5 -52.5t4.5 -34.5q-3 -3 -7 -5.5t-11 -2.5z" />
    <glyph glyph-name="uni03A9" unicode="&#x3a9;" horiz-adv-x="618" 
d="M300 28v-28q-55 27 -104.5 81.5t-80 130t-30.5 162.5q0 102 34 175t95 112t140 39q80 0 140.5 -39t94.5 -112t34 -175q0 -87 -26 -162t-74 -130t-115 -82v28q86 44 134.5 134t48.5 212q0 93 -30.5 159.5t-84 102.5t-122.5 36t-122.5 -36t-84 -102.5t-30.5 -159.5
q0 -81 27 -148.5t69 -117.5t87 -80zM92 0q-6 0 -9.5 2.5t-5.5 6.5t-2 8.5t3 9.5l222 -5v-22h-208zM408 0v22l222 5q3 -5 3 -9.5t-2 -8.5t-5.5 -6.5t-9.5 -2.5h-208z" />
    <glyph glyph-name="Iotadieresis" unicode="&#x3aa;" horiz-adv-x="245" 
d="M126 -8q-8 0 -12.5 6t-4.5 16l-2 586q0 30 -1.5 52.5t-4.5 34.5q3 3 7 5.5t11 2.5q8 0 13.5 -5.5t5.5 -16.5v-586q0 -30 1.5 -52.5t4.5 -34.5q-3 -3 -7 -5.5t-11 -2.5zM42 760q-13 0 -23.5 10.5t-10.5 23.5q0 14 10.5 24t23.5 10q14 0 24 -10t10 -24q0 -13 -10 -23.5
t-24 -10.5zM202 760q-13 0 -23.5 10.5t-10.5 23.5q0 14 10.5 24t23.5 10q14 0 24 -10t10 -24q0 -13 -10 -23.5t-24 -10.5z" />
    <glyph glyph-name="Upsilondieresis" unicode="&#x3ab;" horiz-adv-x="583" 
d="M305 -8q-8 0 -13 6t-5 16v126q0 44 -15 95.5t-47 132.5l-88 219q-13 33 -25 55.5t-35 22.5q-10 0 -18 -5t-12 -16q-12 5 -12 18q0 11 12 22t33 11q32 0 49 -25t33 -67l88 -222q21 -52 33 -84t17.5 -58t5.5 -61h-11q0 30 9 65t22 70t25.5 64t19.5 46l76 180
q12 28 23.5 48.5t26.5 32t36 11.5t33 -11t12 -22q0 -13 -12 -18q-4 11 -12 16t-18 5q-22 0 -35 -21t-29 -57l-75 -172q-7 -17 -20.5 -49t-28 -72t-24 -80.5t-9.5 -73.5v-58q0 -28 2.5 -49t5.5 -33q-3 -3 -7 -5.5t-11 -2.5zM227 760q-13 0 -23.5 10.5t-10.5 23.5
q0 14 10.5 24t23.5 10q14 0 24 -10t10 -24q0 -13 -10 -23.5t-24 -10.5zM387 760q-13 0 -23.5 10.5t-10.5 23.5q0 14 10.5 24t23.5 10q14 0 24 -10t10 -24q0 -13 -10 -23.5t-24 -10.5z" />
    <glyph glyph-name="alphatonos" unicode="&#x3ac;" horiz-adv-x="583" 
d="M227 -12q-28 0 -58 12t-56.5 40t-43 74.5t-16.5 116.5q0 77 26.5 141t75 102t113.5 38q41 0 74.5 -16t60 -51t45.5 -93l-14 -36q-21 78 -63 122.5t-101 44.5q-50 0 -85.5 -23.5t-58 -61.5t-33 -82t-10.5 -85q0 -57 15 -106t47.5 -78.5t84.5 -29.5q41 0 71 18.5t51 48
t34.5 63.5t21.5 66t12 54l39 190q3 16 4 24.5t-1 20.5q2 2 5.5 3t7.5 1q10 0 14 -5.5t4.5 -12.5t-1.5 -14l-46 -221q2 -112 15 -174.5t56 -62.5q16 0 28.5 7t17.5 22q10 -6 10 -20q0 -13 -14.5 -25t-41.5 -12q-47 0 -71.5 46.5t-24.5 158.5l7 -8q-11 -49 -36 -94.5
t-65.5 -74t-99.5 -28.5zM292 557q-4 -1 -12.5 0t-10.5 5l51 170q11 -1 19.5 -3.5t16.5 -9.5z" />
    <glyph glyph-name="epsilontonos" unicode="&#x3ad;" horiz-adv-x="470" 
d="M251 -12q-94 0 -147.5 37t-53.5 100q0 43 31.5 79t95.5 52l12 -12q-53 8 -86 46t-33 81q0 41 24 72.5t66.5 50t98.5 18.5q83 0 122.5 -27t39.5 -66q0 -23 -11.5 -38.5t-26.5 -15.5q-5 0 -10.5 2.5t-10.5 7.5q18 11 23.5 21t5.5 23q0 26 -35.5 45.5t-100.5 19.5
q-69 0 -111 -31.5t-42 -78.5q0 -50 36.5 -79t85.5 -35l2 -17q-67 -7 -105.5 -39.5t-38.5 -76.5q0 -56 48.5 -83.5t118.5 -27.5q41 0 80 7.5t69 29t43 62.5q8 -3 11 -8t3 -10q0 -27 -24 -52t-69.5 -41t-110.5 -16zM306 233q-33 0 -58 3t-43 5v21q37 2 68.5 3t62.5 2
q3 -4 3 -10q0 -8 -7.5 -16t-25.5 -8zM268 557q-4 -1 -12.5 0t-10.5 5l51 170q11 -1 19.5 -3.5t16.5 -9.5z" />
    <glyph glyph-name="etatonos" unicode="&#x3ae;" horiz-adv-x="569" 
d="M478 -230q-10 0 -14.5 6.5t-6 18.5t-1.5 29v514q0 43 -8.5 75.5t-30.5 51.5t-64 19q-46 0 -83.5 -26.5t-64 -66t-40.5 -78.5t-14 -64v-193q0 -25 2.5 -38.5t5.5 -20.5q-3 -4 -7 -6.5t-10 -2.5q-14 0 -17.5 14t-3.5 39l1 219q0 66 0.5 116.5t-7.5 79t-34 28.5
q-14 0 -23 -7t-13 -17q-4 4 -6.5 9t-2.5 11q0 16 15.5 24t31.5 8q26 0 43 -16.5t23 -61t0 -127.5l-12 6q24 70 60 114t76.5 64.5t79.5 20.5q31 0 55.5 -9t42 -30t26.5 -56t9 -87v-479q0 -14 0.5 -28t2.5 -25.5t5 -18.5q-1 -2 -5.5 -5.5t-10.5 -3.5zM321 557q-4 -1 -12.5 0
t-10.5 5l51 170q11 -1 19.5 -3.5t16.5 -9.5z" />
    <glyph glyph-name="iotatonos" unicode="&#x3af;" horiz-adv-x="271" 
d="M173 -12q-35 0 -51 23t-16 60v346q0 30 -1.5 52.5t-4.5 34.5q3 3 7 5.5t11 2.5q9 0 13.5 -5.5t4.5 -16.5v-421q0 -28 10.5 -40.5t27.5 -12.5q15 0 23.5 7t14.5 20q5 -6 7 -11t2 -10q0 -16 -15.5 -25t-32.5 -9zM132 557q-4 -1 -12.5 0t-10.5 5l51 170q11 -1 19.5 -3.5
t16.5 -9.5z" />
    <glyph glyph-name="upsilondieresistonos" unicode="&#x3b0;" horiz-adv-x="577" 
d="M288 -12q-54 0 -92.5 21t-58.5 61t-20 96q0 62 8 122t8 122q0 35 -8 54.5t-34 19.5q-15 0 -23.5 -8.5t-12.5 -18.5q-9 9 -9 21q0 17 15.5 25.5t31.5 8.5q41 0 55.5 -30.5t14.5 -73.5q0 -38 -4 -76.5t-8 -79.5t-4 -86q0 -71 37 -110.5t104 -39.5q86 0 131.5 63.5
t45.5 182.5q0 87 -23.5 153t-59.5 86q2 11 16 11q20 0 43 -31t39.5 -88.5t16.5 -136.5q0 -83 -25 -143t-72 -92.5t-112 -32.5zM281 589q-4 -1 -12.5 0t-10.5 5l20 158q9 0 15.5 -1t12.5 -2.5t12 -5.5zM197 587q-15 0 -23 11t-8 25t8 25t23 11t22.5 -11t7.5 -25t-7.5 -25
t-22.5 -11zM357 587q-15 0 -23 11t-8 25t8 25t23 11t22.5 -11t7.5 -25t-7.5 -25t-22.5 -11z" />
    <glyph glyph-name="alpha" unicode="&#x3b1;" horiz-adv-x="583" 
d="M227 -12q-28 0 -58 12t-56.5 40t-43 74.5t-16.5 116.5q0 77 26.5 141t75 102t113.5 38q41 0 74.5 -16t60 -51t45.5 -93l-14 -36q-21 78 -63 122.5t-101 44.5q-50 0 -85.5 -23.5t-58 -61.5t-33 -82t-10.5 -85q0 -57 15 -106t47.5 -78.5t84.5 -29.5q41 0 71 18.5t51 48
t34.5 63.5t21.5 66t12 54l39 190q3 16 4 24.5t-1 20.5q2 2 5.5 3t7.5 1q10 0 14 -5.5t4.5 -12.5t-1.5 -14l-46 -221q2 -112 15 -174.5t56 -62.5q16 0 28.5 7t17.5 22q10 -6 10 -20q0 -13 -14.5 -25t-41.5 -12q-47 0 -71.5 46.5t-24.5 158.5l7 -8q-11 -49 -36 -94.5
t-65.5 -74t-99.5 -28.5z" />
    <glyph glyph-name="beta" unicode="&#x3b2;" horiz-adv-x="544" 
d="M117 -230q-10 0 -14.5 6.5t-6 18.5t-1.5 29v689q0 58 15.5 99t41.5 66.5t58.5 37.5t66.5 12q45 0 81.5 -19t58.5 -55t22 -87q0 -59 -30 -109.5t-86 -79.5l-45 7q34 11 63 36.5t47 62.5t18 84q0 31 -12.5 61t-40.5 50.5t-75 20.5q-38 0 -73 -18t-57.5 -61.5t-22.5 -121.5
v-648q0 -21 1.5 -41.5t6.5 -30.5q-1 -2 -5.5 -5.5t-10.5 -3.5zM293 -12q-66 0 -105.5 20.5t-68.5 49.5l1 42q15 -18 37.5 -38.5t55.5 -34.5t78 -14q48 0 86 22.5t60 61.5t22 88q0 75 -47 124.5t-121 55.5q-19 -8 -35 -13t-36 -5q-15 0 -23 5t-8 15q0 4 1 7.5t2 7.5
q29 7 55.5 9t51.5 0v-2q58 -5 101 -31t67 -68.5t24 -98.5q0 -48 -20.5 -95t-64 -77.5t-113.5 -30.5z" />
    <glyph glyph-name="gamma" unicode="&#x3b3;" horiz-adv-x="506" 
d="M261 -36l-1 7l-163 466q-9 26 -20 36t-24 10q-16 0 -24.5 -9t-12.5 -19q-4 2 -7.5 7t-3.5 12q0 8 10 23t40 15q20 0 39 -14.5t30 -46.5l156 -456l-18 21q31 50 58.5 106.5t49 117t33.5 124t12 127.5q0 5 -0.5 10.5t-1.5 6.5q2 1 6 2.5t9 1.5q12 0 15 -7t3 -12
q0 -60 -12 -123t-32 -123t-43.5 -112t-47.5 -90zM263 -225q-13 0 -18.5 9.5t-5.5 33.5q0 22 2 56t6 69t8 59l24 2q-4 -44 -5 -90t1 -82t6 -50q-4 -4 -8.5 -5.5t-9.5 -1.5z" />
    <glyph glyph-name="delta" unicode="&#x3b4;" horiz-adv-x="516" 
d="M267 -12q-101 0 -157.5 68t-56.5 187q0 74 31.5 132.5t84.5 92.5t119 34l21 -25q-68 0 -118.5 -28.5t-78 -81t-27.5 -124.5q0 -106 48.5 -166.5t133.5 -60.5q86 0 134 61t48 170q0 77 -33.5 132.5t-98.5 89.5l-99 52q-50 26 -75 52.5t-25 57.5q0 44 38.5 70.5t102.5 26.5
q52 0 95.5 -15.5t69.5 -41t26 -57.5q0 -10 -6.5 -17t-17.5 -7q-1 33 -23 57.5t-59.5 38.5t-85.5 14q-50 0 -79 -17t-29 -49q0 -25 19 -44t67 -45l97 -53q71 -39 109.5 -101t38.5 -144q0 -81 -25.5 -139t-73 -89t-115.5 -31z" />
    <glyph glyph-name="epsilon" unicode="&#x3b5;" horiz-adv-x="470" 
d="M251 -12q-94 0 -147.5 37t-53.5 100q0 43 31.5 79t95.5 52l12 -12q-53 8 -86 46t-33 81q0 41 24 72.5t66.5 50t98.5 18.5q83 0 122.5 -27t39.5 -66q0 -23 -11.5 -38.5t-26.5 -15.5q-5 0 -10.5 2.5t-10.5 7.5q18 11 23.5 21t5.5 23q0 26 -35.5 45.5t-100.5 19.5
q-69 0 -111 -31.5t-42 -78.5q0 -50 36.5 -79t85.5 -35l2 -17q-67 -7 -105.5 -39.5t-38.5 -76.5q0 -56 48.5 -83.5t118.5 -27.5q41 0 80 7.5t69 29t43 62.5q8 -3 11 -8t3 -10q0 -27 -24 -52t-69.5 -41t-110.5 -16zM306 233q-33 0 -58 3t-43 5v21q37 2 68.5 3t62.5 2
q3 -4 3 -10q0 -8 -7.5 -16t-25.5 -8z" />
    <glyph glyph-name="zeta" unicode="&#x3b6;" horiz-adv-x="394" 
d="M332 -187q-19 0 -22 13q7 1 20 8t23.5 22t10.5 39q0 27 -16 43t-38.5 25t-43.5 16l-49 17q-9 3 -31 12.5t-46.5 29.5t-42 55.5t-17.5 92.5q0 55 23.5 123.5t64 138.5t93 131t111.5 100l-7 -20q-26 -13 -64.5 -24.5t-82.5 -11.5q-40 0 -69 14t-45 36t-16 45q0 6 3 11t11 8
q6 -18 17 -37.5t35 -33.5t67 -14q25 0 52.5 5t53.5 15q35 14 50 26.5t31 12.5q14 0 19.5 -8t6.5 -16l-38 -23q-34 -20 -72.5 -59t-76 -89t-68 -106.5t-49 -112.5t-18.5 -106t14 -81.5t34 -49.5t39 -26t30 -12l44 -16q11 -4 31 -11t41.5 -19.5t36 -32t14.5 -48.5
q0 -25 -9.5 -43.5t-24 -28.5t-30.5 -10z" />
    <glyph glyph-name="eta" unicode="&#x3b7;" horiz-adv-x="569" 
d="M478 -230q-10 0 -14.5 6.5t-6 18.5t-1.5 29v514q0 43 -8.5 75.5t-30.5 51.5t-64 19q-46 0 -83.5 -26.5t-64 -66t-40.5 -78.5t-14 -64v-193q0 -25 2.5 -38.5t5.5 -20.5q-3 -4 -7 -6.5t-10 -2.5q-14 0 -17.5 14t-3.5 39l1 219q0 66 0.5 116.5t-7.5 79t-34 28.5
q-14 0 -23 -7t-13 -17q-4 4 -6.5 9t-2.5 11q0 16 15.5 24t31.5 8q26 0 43 -16.5t23 -61t0 -127.5l-12 6q24 70 60 114t76.5 64.5t79.5 20.5q31 0 55.5 -9t42 -30t26.5 -56t9 -87v-479q0 -14 0.5 -28t2.5 -25.5t5 -18.5q-1 -2 -5.5 -5.5t-10.5 -3.5z" />
    <glyph glyph-name="theta" unicode="&#x3b8;" horiz-adv-x="572" 
d="M291 728q63 0 113 -44t79 -126.5t29 -198.5q0 -175 -58 -273t-163 -98t-163 98t-58 273q0 116 27 198.5t77 126.5t117 44zM289 700q-53 0 -95.5 -38t-67.5 -113.5t-25 -188.5q75 -1 134.5 -1.5t118 0.5t126.5 3q0 113 -26 188t-69 112.5t-96 37.5zM291 16
q86 0 135.5 80.5t53.5 238.5h-122.5h-117t-139.5 -1q4 -157 54.5 -237.5t135.5 -80.5z" />
    <glyph glyph-name="iota" unicode="&#x3b9;" horiz-adv-x="271" 
d="M173 -12q-35 0 -51 23t-16 60v346q0 30 -1.5 52.5t-4.5 34.5q3 3 7 5.5t11 2.5q9 0 13.5 -5.5t4.5 -16.5v-421q0 -28 10.5 -40.5t27.5 -12.5q15 0 23.5 7t14.5 20q5 -6 7 -11t2 -10q0 -16 -15.5 -25t-32.5 -9z" />
    <glyph glyph-name="kappa" unicode="&#x3ba;" horiz-adv-x="520" 
d="M99 -8q-9 0 -13.5 6t-4.5 16v403q0 30 -1.5 52.5t-4.5 34.5q3 3 7 5.5t11 2.5q9 0 13.5 -5.5t4.5 -16.5v-411l-14 -8q0 20 14 44.5t30 45.5l154 217q27 35 49 64t42.5 46.5t42.5 17.5q12 0 16.5 -6t4.5 -12t-2.5 -10t-5.5 -6q-2 2 -4.5 3.5t-6.5 1.5q-16 0 -36.5 -20
t-44.5 -52l-51 -68l-139 -197q-14 -18 -25 -36.5t-17.5 -38t-6.5 -40.5q0 -7 2 -13.5t4 -11.5q-3 -3 -7 -5.5t-11 -2.5zM458 -8q-13 0 -25 5.5t-24.5 19t-25.5 36.5l-134 238l19 26l135 -237q15 -26 28.5 -43t29.5 -17t23 10t10 19q5 -4 8 -9t3 -11q0 -8 -5 -16.5
t-15.5 -14.5t-26.5 -6z" />
    <glyph glyph-name="lambda" unicode="&#x3bb;" horiz-adv-x="507" 
d="M479 -12q-14 0 -26 5.5t-23 21.5t-23 45l-219 559q-11 28 -20 45.5t-18.5 25.5t-22.5 8q-14 0 -26.5 -7.5t-18.5 -19.5q-4 3 -6.5 7.5t-2.5 10.5q0 16 17 26.5t39 10.5q25 0 39.5 -13t25.5 -35.5t22 -51.5l217 -551q10 -24 20.5 -41.5t29.5 -17.5q14 0 22.5 9t12.5 18
q4 -4 6.5 -9t2.5 -11q0 -7 -5 -15.5t-15.5 -14t-27.5 -5.5zM59 -12q-8 0 -12.5 3.5t-5.5 8t-1 7.5q0 8 10 37.5t27 73.5t38 96t43 105t42 102t35 85l20 -29q-12 -29 -30 -72t-38.5 -93t-41 -100.5t-37.5 -94.5t-27 -74.5t-10 -41.5q0 -1 0.5 -5t1.5 -6q-1 -1 -5 -1.5
t-9 -0.5z" />
    <glyph glyph-name="uni03BC" unicode="&#x3bc;" horiz-adv-x="585" 
d="M150 -230q-19 0 -28.5 28t-13 86.5t-3 149.5t0.5 217v189q-1 23 -2.5 40t-3.5 24q3 3 7.5 5.5t11.5 2.5q14 0 15.5 -9.5t1.5 -20.5v-68.5v-68.5v-68.5v-68.5q0 -47 13 -91t42.5 -72.5t79.5 -28.5q48 0 83 32.5t53.5 86.5t18.5 116v164t-6 89q2 2 6.5 5t11.5 3
q15 0 16.5 -12t1.5 -26l-3 -271q0 -31 2 -64t8 -61t17.5 -45t30.5 -17q17 0 28 11.5t18 29t9 34.5q5 -1 9.5 -5t4.5 -18q0 -22 -10 -40.5t-25.5 -29t-33.5 -10.5q-31 0 -49 22t-25.5 58.5t-7.5 81.5h9q-12 -50 -35 -86.5t-56.5 -56t-75.5 -19.5q-57 0 -90 25.5t-46.5 64
t-13.5 76.5h14q0 -88 -1 -161t3 -123.5t19 -71.5q3 -4 6.5 -6.5t7.5 -4.5q0 -4 -5 -10.5t-15 -6.5z" />
    <glyph glyph-name="nu" unicode="&#x3bd;" horiz-adv-x="516" 
d="M254 -8l-157 445q-9 25 -17.5 35.5t-24.5 10.5q-17 0 -26 -9t-13 -19q-4 2 -7.5 7t-3.5 12q0 8 10 23t40 15q20 0 38.5 -13t30.5 -48l150 -428l-21 3q14 0 32 23.5t36.5 61.5t35.5 83q20 53 35.5 110t24 108t8.5 85q0 5 -0.5 10.5t-1.5 6.5q2 1 5.5 2.5t8.5 1.5
q13 0 16 -7t3 -12q0 -40 -8.5 -89t-22 -99.5t-30 -97t-31.5 -81.5q-19 -43 -39.5 -74.5t-38.5 -48.5t-32 -17z" />
    <glyph glyph-name="xi" unicode="&#x3be;" horiz-adv-x="480" 
d="M356 -187q-19 0 -22 13q7 1 20 8t23.5 22t10.5 39q0 27 -16 43t-38.5 25t-43.5 16l-49 17q-26 9 -53.5 20t-50.5 29t-37.5 46.5t-14.5 72.5q0 54 26 92t65.5 63t78.5 39v-13q-22 1 -52 19.5t-52 53.5t-22 82q0 50 25.5 89t65.5 64l3 -11q-8 -5 -31.5 -11.5t-42.5 -6.5
q-37 0 -65 14t-43.5 35.5t-15.5 44.5q0 6 3 11t11 8q6 -18 17 -37.5t35 -33.5t67 -14q38 0 74.5 15t76.5 25q35 9 63.5 14t55.5 5q14 0 19.5 -4t5.5 -12q0 -4 -1 -7.5t-2 -5.5q-2 0 -11 0.5t-17 0.5q-42 0 -87.5 -10.5t-85 -32.5t-64 -55.5t-24.5 -79.5q0 -50 23 -82
t54 -47.5t55 -15.5v-20q-42 -9 -82.5 -34t-67 -62t-26.5 -82q0 -43 19.5 -69.5t51 -42.5t65.5 -28l44 -16q11 -4 31 -11t41.5 -19.5t36 -32t14.5 -48.5q0 -37 -20 -59.5t-44 -22.5zM324 336q-10 0 -29.5 1t-35.5 2v25q27 5 64 9.5t61 5.5q1 -2 1.5 -5.5t0.5 -6.5
q0 -15 -17 -23t-45 -8z" />
    <glyph glyph-name="omicron" unicode="&#x3bf;" horiz-adv-x="534" 
d="M267 -12q-101 0 -157.5 69t-56.5 193q0 83 25.5 141.5t73.5 89.5t115 31q68 0 115.5 -31t73 -89.5t25.5 -141.5q0 -124 -56.5 -193t-157.5 -69zM267 16q86 0 134 62t48 172t-48 172t-134 62q-85 0 -133.5 -62t-48.5 -172t48.5 -172t133.5 -62z" />
    <glyph glyph-name="pi" unicode="&#x3c0;" horiz-adv-x="575" 
d="M474 -8q-41 0 -61 29t-20 86v386h30v-386q0 -46 13 -66.5t38 -20.5q17 0 35.5 16t25.5 50q9 -3 11.5 -9.5t2.5 -14.5q0 -15 -10 -31.5t-27 -27.5t-38 -11zM131 -8q-14 0 -19 15q8 8 14 17t10.5 27.5t4.5 52.5l3 383l28 -1l-3 -402q0 -31 -4.5 -49.5t-10 -28t-12 -12
t-11.5 -2.5zM12 436q-7 7 -7 17q0 14 19.5 30.5t72.5 16.5h383q21 0 38.5 1.5t27.5 6.5q2 -1 5.5 -5t3.5 -11q0 -14 -14 -16t-40 -2h-101.5h-100.5h-100.5h-101.5q-23 0 -48.5 -8t-36.5 -30z" />
    <glyph glyph-name="rho" unicode="&#x3c1;" horiz-adv-x="517" 
d="M95 -230q-7 0 -11.5 3.5t-7 10.5t-3 17t-0.5 23v430q0 67 15.5 116t43 80.5t63 46.5t75.5 15q68 0 111 -34.5t63 -90.5t20 -122q0 -78 -24 -140.5t-69.5 -99.5t-110.5 -37q-58 0 -107.5 34t-75.5 93l15 22q26 -59 74 -90t94 -31q58 0 96 34.5t57 92t19 125.5
q0 62 -17.5 110.5t-53.5 77t-91 28.5q-49 0 -87 -27t-59 -78t-21 -124v-404q0 -21 1.5 -41.5t6.5 -30.5q-1 -2 -5.5 -5.5t-10.5 -3.5z" />
    <glyph glyph-name="uni03C2" unicode="&#x3c2;" horiz-adv-x="423" 
d="M322 -187q-19 0 -22 13q16 2 35 17.5t19 51.5q0 27 -15.5 42.5t-35.5 23.5t-34 12l-33 11q-85 30 -134 96t-49 180q0 74 26 130.5t73.5 89t113.5 32.5q46 0 80 -17t53 -46.5t19 -69.5q0 -36 -14.5 -55t-29.5 -19q-5 0 -10.5 2.5t-10.5 7.5q11 8 22 23t11 44q0 44 -32 73
t-88 29q-57 0 -97.5 -29t-62 -79.5t-21.5 -115.5q0 -100 42 -160t113 -86l36 -12q51 -17 80.5 -41.5t29.5 -65.5q0 -37 -20 -59.5t-44 -22.5z" />
    <glyph glyph-name="sigma" unicode="&#x3c3;" horiz-adv-x="540" 
d="M257 -12q-63 0 -108.5 29.5t-70.5 86.5t-25 137q0 82 27.5 140t79 88.5t123.5 30.5h149q21 0 38.5 1.5t27.5 6.5q2 -1 5.5 -5t3.5 -11q0 -14 -14 -16t-40 -2l-117 -1l-60 -1q-56 0 -99.5 -27t-67.5 -78t-24 -125t22 -124.5t60.5 -76t88.5 -25.5q86 0 131.5 60.5
t46.5 167.5q1 56 -17 107.5t-54.5 85.5t-93.5 35l58 9q48 -8 79 -46t46 -89.5t14 -101.5q0 -80 -24.5 -137.5t-71 -88t-113.5 -30.5z" />
    <glyph glyph-name="tau" unicode="&#x3c4;" horiz-adv-x="410" 
d="M261 -8q-43 0 -66 40.5t-22 138.5l5 322h30l-5 -322q-1 -59 7 -92t21.5 -46t29.5 -13q19 0 33.5 18.5t21.5 52.5q9 -3 11.5 -9.5t2.5 -14.5q0 -16 -8.5 -33.5t-24 -29.5t-36.5 -12zM20 436q-7 7 -7 20q0 6 5.5 16.5t20 19t40.5 8.5h229q21 0 38.5 1.5t27.5 6.5
q2 -1 5.5 -5t3.5 -11q0 -14 -14 -16t-40 -2h-121h-121q-25 0 -42 -8t-25 -30z" />
    </font>
</defs>
</svg>
