<?xml version="1.0" standalone="no"?>
<!DOCTYPE svg PUBLIC "-//W3C//DTD SVG 1.1//EN" "http://www.w3.org/Graphics/SVG/1.1/DTD/svg11.dtd" >
<svg xmlns="http://www.w3.org/2000/svg" xmlns:xlink="http://www.w3.org/1999/xlink" version="1.1">
<metadata>
Created by FontForge 20170731 at Mon Feb 20 16:25:06 2023
 By Aleksey,,,
Copyright 2020 The Arima Project Authors (https://github.com/NDISCOVER/Arima-Font)
</metadata>
<defs>
<font id="Arima-Bold" horiz-adv-x="0" >
  <font-face 
    font-family="Arima"
    font-weight="700"
    font-stretch="normal"
    units-per-em="1000"
    panose-1="0 0 0 0 0 0 0 0 0 0"
    ascent="800"
    descent="-200"
    x-height="528"
    cap-height="711"
    bbox="-1246 -543 2696 1083"
    underline-thickness="50"
    underline-position="-175"
    unicode-range="U+000D-FB02"
  />
<missing-glyph horiz-adv-x="500" 
d="M50 -430v1270h400v-1270h-400zM100 -380h300v1170h-300v-1170z" />
    <glyph glyph-name="fi" unicode="fi" horiz-adv-x="591" 
d="M158 -15q-34 0 -56.5 19t-22.5 52v469q0 46 11.5 85.5t38.5 69.5t72.5 46.5t114.5 16.5q66 0 112 -10.5t70 -30.5t24 -49q0 -28 -24.5 -47t-59.5 -19q-44 0 -63 22q12 12 15 24.5t3 25.5q0 15 -11.5 24t-29 13.5t-37.5 4.5q-39 0 -60 -15.5t-29 -43.5t-9 -64.5t-1 -78.5
v-353q0 -22 3.5 -59.5t16.5 -70.5q-13 -12 -32.5 -21.5t-45.5 -9.5zM11 451l1 33q1 17 11.5 24.5t24.5 7.5h180q3 0 16 0.5t29 1t29 1t17 1.5l-1 -32q-1 -16 -11.5 -24.5t-24.5 -8.5h-211q-10 0 -30 -1t-30 -3zM526 146q0 -29 3.5 -63t16.5 -67q-9 -8 -29.5 -19.5
t-49.5 -11.5q-32 0 -54.5 19t-22.5 52v315q0 29 -3.5 63t-16.5 68q9 8 29 19t48 11q34 0 56 -18.5t22 -52.5z" />
    <glyph glyph-name="fl" unicode="fl" horiz-adv-x="633" 
d="M158 -15q-34 0 -56.5 19t-22.5 52v476q0 45 11.5 83.5t38 67t70.5 44.5t110 16q114 0 173 -39t59 -108v-451q0 -26 9 -39.5t26 -13.5q7 0 16 3t13 10q8 -10 11 -22t3 -21q0 -31 -27 -51.5t-65 -20.5q-60 0 -91.5 38.5t-31.5 104.5v457q0 40 -11 64.5t-32 35.5t-52 11
q-37 0 -56.5 -15.5t-27 -42.5t-8.5 -62t-1 -74v-361q0 -22 3.5 -59.5t16.5 -70.5q-13 -12 -32.5 -21.5t-45.5 -9.5zM11 451l1 33q1 17 11.5 24.5t24.5 7.5h180q4 0 22 0.5t36.5 1.5t23.5 2l-1 -32q-1 -16 -11 -24.5t-24 -8.5h-203q-10 0 -30 -1t-30 -3z" />
    <glyph glyph-name=".notdef" horiz-adv-x="500" 
d="M50 -430v1270h400v-1270h-400zM100 -380h300v1170h-300v-1170z" />
    <glyph glyph-name=".null" 
 />
    <glyph glyph-name="nonmarkingreturn" horiz-adv-x="333" 
 />
    <glyph glyph-name="CR" unicode="&#xd;" horiz-adv-x="600" 
 />
    <glyph glyph-name="space" unicode=" " horiz-adv-x="200" 
 />
    <glyph glyph-name="exclam" unicode="!" horiz-adv-x="332" 
d="M86 718l37 -516h93l30 516q-40 13 -80 13.5t-80 -13.5zM165 -14q-33 0 -55.5 22.5t-22.5 54.5q0 33 22.5 55.5t55.5 22.5q32 0 54.5 -22.5t22.5 -55.5q0 -32 -22.5 -54.5t-54.5 -22.5z" />
    <glyph glyph-name="quotedbl" unicode="&#x22;" horiz-adv-x="362" 
d="M200 725l30 -193h57l36 193q-25 9 -59.5 9t-63.5 -9zM40 725l30 -193h57l36 193q-25 9 -59.5 9t-63.5 -9z" />
    <glyph glyph-name="numbersign" unicode="#" horiz-adv-x="614" 
d="M190 0h-90l126 698h90zM390 0h-90l126 698h90zM40 482h583l-12 -78h-583zM8 282h583l-12 -78h-583z" />
    <glyph glyph-name="dollar" unicode="$" horiz-adv-x="568" 
d="M295 -96q-23 0 -23 22l-2 762q0 63 -6 87q5 3 10 5.5t14 2.5q23 0 23 -22l2 -762q0 -63 6 -87q-4 -3 -9.5 -5.5t-14.5 -2.5zM273 -15q-81 0 -134 18.5t-79 50.5t-26 72q0 23 10.5 42t35.5 28.5t69 2.5q-3 -12 -2.5 -26t2.5 -27q5 -26 21 -52t46.5 -43t76.5 -17
q44 0 76 24.5t32 76.5q0 34 -15 59t-45.5 47t-75.5 47q-64 37 -110 70.5t-71 75t-25 99.5q0 65 33 104t87.5 57t118.5 18q95 0 155 -28.5t60 -87.5q0 -25 -15.5 -44t-56.5 -20q-17 -2 -38 2q1 16 -1.5 31.5t-7.5 28.5q-5 19 -18.5 35t-36.5 26t-57 10q-20 0 -42 -7t-37 -25
t-15 -51q0 -30 13 -55t46.5 -50.5t94.5 -59.5q47 -25 91.5 -56t73.5 -73.5t29 -103.5q0 -41 -16 -77t-49 -63.5t-82.5 -43t-115.5 -15.5z" />
    <glyph glyph-name="percent" unicode="%" horiz-adv-x="1108" 
d="M243 314q-100 0 -150.5 51t-50.5 149t50.5 148t150.5 50q101 0 151 -50t50 -148t-50 -149t-151 -51zM244 352q39 0 56.5 38.5t17.5 123.5t-17.5 122.5t-56.5 37.5q-40 0 -57.5 -37.5t-17.5 -122.5t17.5 -123.5t57.5 -38.5zM671 712q22 3 45 -2.5t36 -25.5l-319 -698
q-46 -8 -78 23zM865 -10q-100 0 -150.5 50.5t-50.5 148.5t50.5 148.5t150.5 50.5q101 0 151 -50.5t50 -148.5t-50 -148.5t-151 -50.5zM866 28q39 0 56.5 38t17.5 123t-17.5 122.5t-56.5 37.5q-40 0 -57.5 -37.5t-17.5 -122.5t17.5 -123t57.5 -38z" />
    <glyph glyph-name="ampersand" unicode="&#x26;" horiz-adv-x="912" 
d="M412 -15q-82 0 -148 22t-113 62.5t-72.5 97.5t-25.5 126q0 65 30 120t88 89t142 34q61 0 101.5 -18t61 -49.5t20.5 -72.5q0 -46 -23.5 -84t-56 -66.5t-60.5 -45.5l6 13q16 4 50 29t78.5 65.5t94 89.5t97 100.5t87 100t62.5 86.5q12 0 29 -8.5t28.5 -26t7.5 -46t-33 -68.5
q-40 -56 -104.5 -112.5t-143.5 -107t-162.5 -90.5t-160.5 -63l-10 41q30 27 52.5 55t35 59t12.5 66q0 41 -17 67.5t-52 26.5q-28 0 -52.5 -19.5t-39 -58.5t-14.5 -96q0 -53 14 -100t42 -82.5t68.5 -56t93.5 -20.5q67 0 125.5 33.5t94.5 95t36 144.5q0 65 -24 122t-67.5 99
t-102 65t-128.5 21q0 40 21 66t82 26q71 0 128.5 -34.5t99 -91.5t63.5 -125.5t22 -136.5q0 -76 -26.5 -139t-75.5 -109t-115 -70.5t-146 -24.5z" />
    <glyph glyph-name="quotesingle" unicode="'" horiz-adv-x="203" 
d="M40 725l30 -193h57l36 193q-25 9 -59.5 9t-63.5 -9z" />
    <glyph glyph-name="parenleft" unicode="(" horiz-adv-x="453" 
d="M371 -173q-26 0 -61 16.5t-71 51t-66.5 88.5t-49.5 129t-19 173t19 173.5t50 130t67 89.5t70.5 51.5t60.5 16.5t34.5 -10.5t8.5 -15.5q-47 -43 -79 -89.5t-51 -99t-27 -113t-8 -132.5q1 -70 10 -132t29 -116t51 -100t75 -85q0 -5 -8.5 -15.5t-34.5 -10.5z" />
    <glyph glyph-name="parenright" unicode=")" horiz-adv-x="453" 
d="M82 -173q-25 0 -34 10.5t-9 15.5q44 39 75 85t51 100t29 116t10 132q0 72 -8 132.5t-27 113t-51 99t-79 89.5q0 5 9 15.5t34 10.5q26 0 60.5 -16.5t70.5 -51.5t67 -89.5t50 -130t19 -173.5t-19 -173t-49.5 -129t-66.5 -88.5t-71 -51t-61 -16.5z" />
    <glyph glyph-name="asterisk" unicode="*" horiz-adv-x="499" 
d="M22 541q0 22 15 39.5t48 17.5q42 0 76 -28.5t54 -71t20 -84.5q0 -32 -12.5 -63t-35.5 -50.5t-55 -19.5q-21 0 -39 11t-18 39q0 33 24 61t63 45t84 17q46 0 82.5 -17.5t58 -44t21.5 -54.5q0 -24 -16.5 -39t-41.5 -15q-27 0 -46.5 18.5t-29.5 46t-10 54.5q0 32 13 66.5
t35 63.5t49.5 47t55.5 18q26 0 40.5 -14.5t14.5 -41.5q0 -34 -23.5 -51.5t-61.5 -17.5q-37 0 -73 16t-65.5 42t-47.5 58t-18 64q0 30 16.5 46.5t49.5 16.5q36 0 51 -17.5t15 -45.5q0 -34 -17 -66t-45 -57.5t-63.5 -40.5t-73.5 -15q-37 0 -65.5 17t-28.5 50zM75 540
q0 -13 12.5 -20.5t31.5 -7.5q38 0 74 21.5t59 53.5t23 63q0 26 -20 26q-10 0 -14.5 -5.5t-4.5 -16.5q0 -25 13 -50.5t35 -46.5t49 -33.5t55 -12.5q18 0 31 6t13 21q0 7 -5 11.5t-14 4.5q-18 0 -36.5 -14.5t-34 -37.5t-25 -49t-9.5 -50q0 -14 4 -32.5t13.5 -32.5t24.5 -14
q8 0 13 4t5 11q0 16 -16.5 32.5t-44 28t-59.5 11.5t-60 -11.5t-44.5 -29t-16.5 -35.5q0 -7 4.5 -11t11.5 -4q14 0 25 14.5t17 36.5t6 43q0 35 -15 67.5t-37.5 53.5t-45.5 21q-8 0 -13 -4.5t-5 -11.5z" />
    <glyph glyph-name="plus" unicode="+" horiz-adv-x="549" 
d="M75 382h399q14 -36 0 -72h-399q-13 36 0 72zM310 546v-400q-36 -12 -72 0v400q36 14 72 0z" />
    <glyph glyph-name="comma" unicode="," horiz-adv-x="317" 
d="M155 -110q-13 2 -23 8t-21 16q17 20 27 40t10 39q0 26 -12 40t-27.5 20.5t-28.5 9.5q0 32 22.5 55t56.5 23q30 0 54 -21.5t24 -73.5q0 -39 -19 -77t-63 -79z" />
    <glyph glyph-name="hyphen" unicode="-" horiz-adv-x="399" 
d="M35 298h328v-79h-328v79z" />
    <glyph glyph-name="period" unicode="." horiz-adv-x="315" 
d="M158 -14q-33 0 -55.5 22.5t-22.5 54.5q0 33 22.5 55.5t55.5 22.5q32 0 54.5 -22.5t22.5 -55.5q0 -32 -22.5 -54.5t-54.5 -22.5z" />
    <glyph glyph-name="slash" unicode="/" horiz-adv-x="505" 
d="M139 -142h-137l325 875h138z" />
    <glyph glyph-name="zero" unicode="0" horiz-adv-x="641" 
d="M320 -14q-131 0 -198.5 91t-67.5 272t67.5 272t198.5 91t198.5 -91t67.5 -272t-67.5 -272t-198.5 -91zM320 33q59 0 85.5 75t26.5 241t-26.5 241t-85.5 75q-58 0 -85 -75t-27 -241t27 -241t85 -75z" />
    <glyph glyph-name="one" unicode="1" horiz-adv-x="461" 
d="M356 146q0 -28 3.5 -62.5t16.5 -67.5q-8 -8 -28.5 -19.5t-49.5 -11.5q-33 0 -55 19t-22 52v489q0 14 -0.5 24.5t-2.5 20.5q-13 -17 -30 -37t-36 -37.5t-36.5 -29t-30.5 -11.5q-24 0 -36.5 12t-17 28t-4.5 29.5v16.5q2 1 20.5 12.5t44.5 29.5t54 36.5t49.5 33t28.5 19.5
q10 6 24 10t30 4q34 0 56 -18.5t22 -51.5v-490z" />
    <glyph glyph-name="two" unicode="2" horiz-adv-x="563" 
d="M56 0q-11 10 -17.5 30t0.5 43q15 18 52.5 49t83.5 72.5t89.5 93.5t71.5 112t28 127q0 36 -9.5 68t-31 52.5t-57.5 20.5q-34 0 -55 -18t-32.5 -46t-15.5 -60t-4 -61q-47 0 -72 14.5t-33.5 35.5t-8.5 39q0 38 28 69.5t80 51t123 19.5q67 0 120 -21t84 -64t31 -110
q0 -62 -22.5 -117t-59 -102t-80 -85.5t-86.5 -67.5t-77.5 -48.5t-53.5 -28.5q29 1 70 6t87 12.5t90 17.5t78.5 20.5t52.5 21.5q13 -9 19.5 -32.5t6 -49.5t-8.5 -45t-25 -19h-446z" />
    <glyph glyph-name="three" unicode="3" horiz-adv-x="566" 
d="M262 -12q-77 0 -124.5 13t-72.5 32.5t-33.5 39.5t-8.5 33q0 14 7.5 31.5t28.5 30.5t63 13q2 -18 6 -43t16 -49.5t38 -41t71 -16.5q57 0 92.5 40.5t35.5 107.5q0 62 -33 97.5t-85.5 51.5t-111.5 16l1 48q76 4 119.5 29t62.5 61.5t19 72.5q0 51 -20 82t-70 31
q-33 0 -54 -13.5t-32.5 -35.5t-16 -48t-4.5 -50q-45 0 -66.5 11.5t-28 26.5t-6.5 25q0 26 14 49t41.5 41t68.5 28t95 10q36 0 76 -7t75.5 -25t58 -50.5t22.5 -83.5q0 -64 -49 -111t-123 -67q57 -9 102 -30t71.5 -56.5t26.5 -89.5q0 -63 -34 -109t-95 -70.5t-143 -24.5z" />
    <glyph glyph-name="four" unicode="4" horiz-adv-x="623" 
d="M495 146q0 -28 3.5 -62.5t16.5 -67.5q-9 -8 -29 -19.5t-49 -11.5q-33 0 -55.5 19t-22.5 52v532l-242 -347h296q44 0 87.5 3.5t87.5 16.5q10 -22 8 -47t-16 -47h-510q-18 1 -29.5 14t-13.5 30.5t8 30.5l305 432q8 12 31 22.5t45 10.5q34 0 56 -19t22 -52z" />
    <glyph glyph-name="five" unicode="5" horiz-adv-x="572" 
d="M277 -12q-76 0 -126 25t-74.5 61t-24.5 69q0 38 25.5 59t71.5 16q0 -26 5 -56t18 -57t36 -44t59 -17q61 0 87.5 47t26.5 117q0 41 -14.5 76.5t-45 57.5t-78.5 22q-30 0 -57 -3.5t-46.5 -6.5t-27.5 -4q-13 0 -20 7.5t-7 18.5l12 266q1 24 17.5 39.5t41.5 15.5
q83 0 141.5 1t104 3.5t86.5 8.5q10 -17 7 -44t-15 -50t-32 -31q-58 0 -124.5 1t-127.5 8l-9 -180q30 5 58 7.5t53 2.5q112 0 174.5 -55t62.5 -152q0 -64 -22.5 -108t-60 -70.5t-83.5 -38.5t-92 -12z" />
    <glyph glyph-name="six" unicode="6" horiz-adv-x="594" 
d="M303 -12q-51 0 -96 14t-79.5 49.5t-54 101t-19.5 167.5q0 126 29.5 213t93.5 132.5t169 45.5q39 0 77.5 -8.5t64.5 -27.5t26 -50q0 -18 -10 -34.5t-21.5 -27.5t-17.5 -13q-34 59 -64.5 82t-62.5 23q-35 0 -58.5 -17t-38 -48.5t-22 -74.5t-10 -94t-2.5 -108
q0 -55 3.5 -105t14 -89t31 -61.5t54.5 -22.5q38 0 58.5 27t28.5 70t8 91q0 69 -18.5 108t-69.5 39q-30 0 -56.5 -15.5t-45 -49t-24.5 -86.5l-42 36q8 29 22 59.5t36.5 57t56.5 43t83 16.5q55 0 102.5 -23.5t76.5 -71t29 -119.5q0 -65 -27 -117t-82.5 -82t-142.5 -30z" />
    <glyph glyph-name="seven" unicode="7" horiz-adv-x="513" 
d="M280 0q-34 -7 -68.5 -6.5t-68.5 8.5q5 47 17.5 110t32 132.5t44.5 137t55 124t64 91.5q-74 -13 -149.5 -14t-155.5 -1q-10 11 -15.5 35t-5 49.5t7.5 39.5q51 -4 99 -6t97 -2h240q6 -16 5.5 -46t-19.5 -53q-32 -45 -59.5 -105.5t-50 -128.5t-38 -135t-24 -126.5
t-8.5 -103.5z" />
    <glyph glyph-name="eight" unicode="8" horiz-adv-x="626" 
d="M262 352l26 -13q-12 -8 -26.5 -21.5t-27.5 -34t-21.5 -48t-8.5 -63.5q0 -52 16.5 -83t43 -44.5t55.5 -13.5q35 0 59.5 16t37.5 42.5t13 58.5t-12 57.5t-34.5 46t-53 39.5t-67.5 38q-38 22 -79.5 51t-69.5 69t-28 95q0 30 12 59.5t38 54t69.5 39.5t106.5 15
q83 0 135 -24.5t76.5 -62t24.5 -77.5q0 -38 -21.5 -76t-62 -63.5t-97.5 -29.5l-29 17q32 20 46 46.5t17.5 54.5t3.5 51q0 38 -11.5 64t-31.5 39.5t-46 13.5q-25 0 -45 -13.5t-31 -38t-11 -57.5q0 -46 17 -76t43.5 -49t53.5 -32q31 -14 71.5 -35.5t78.5 -50.5t63 -66.5
t25 -83.5q0 -30 -13.5 -61.5t-44 -57.5t-81.5 -42t-126 -16q-76 0 -126.5 16t-80.5 42.5t-42.5 57t-12.5 60.5q0 47 25.5 89.5t72.5 70.5t111 30z" />
    <glyph glyph-name="nine" unicode="9" horiz-adv-x="607" 
d="M262 -14q-44 0 -87 9t-71.5 28.5t-30.5 51.5q-1 19 8.5 36t22 28.5t18.5 13.5q40 -63 75.5 -87.5t72.5 -24.5q35 0 58 17t37 48.5t21.5 75t10 95.5t2.5 110q0 55 -3.5 105t-13.5 89t-30 61.5t-54 22.5q-38 0 -58.5 -26.5t-28.5 -69t-8 -90.5q0 -70 18.5 -109t68.5 -39
q30 0 56 15.5t44.5 48.5t24.5 86l42 -36q-8 -28 -22 -59t-36 -57.5t-56 -43t-82 -16.5q-54 0 -100.5 24t-74.5 72t-28 120q0 65 26.5 116.5t81 81t138.5 29.5q54 0 99.5 -16t79 -54t51.5 -102t18 -160q0 -128 -29 -216t-93 -133t-168 -45z" />
    <glyph glyph-name="colon" unicode=":" horiz-adv-x="282" 
d="M142 355q-33 0 -55.5 22.5t-22.5 54.5q0 33 22.5 55.5t55.5 22.5q32 0 54.5 -22.5t22.5 -55.5q0 -32 -22.5 -54.5t-54.5 -22.5zM142 -14q-33 0 -55.5 22.5t-22.5 54.5q0 33 22.5 55.5t55.5 22.5q32 0 54.5 -22.5t22.5 -55.5q0 -32 -22.5 -54.5t-54.5 -22.5z" />
    <glyph glyph-name="semicolon" unicode=";" horiz-adv-x="284" 
d="M143 355q-33 0 -55.5 22.5t-22.5 54.5q0 33 22.5 55.5t55.5 22.5q32 0 54.5 -22.5t22.5 -55.5q0 -32 -22.5 -54.5t-54.5 -22.5zM139 -110q-13 2 -23 8t-21 16q17 20 27 40t10 39q0 26 -12 40t-27.5 20.5t-28.5 9.5q0 32 22.5 55t56.5 23q30 0 54 -21.5t24 -73.5
q0 -39 -19 -77t-63 -79z" />
    <glyph glyph-name="less" unicode="&#x3c;" horiz-adv-x="498" 
d="M45 340q-8 11 0 22l358 177q18 9 33 -8t4 -58l-284 -122l284 -122q11 -37 -1.5 -57t-35.5 -9z" />
    <glyph glyph-name="equal" unicode="=" horiz-adv-x="541" 
d="M71 475h399q14 -36 0 -72h-399q-13 36 0 72zM71 279h399q14 -36 0 -72h-399q-13 36 0 72z" />
    <glyph glyph-name="greater" unicode="&#x3e;" horiz-adv-x="499" 
d="M453 340l-358 -177q-23 -11 -35.5 9t-1.5 57l284 122l-284 122q-10 41 5 58t32 8l358 -177q8 -11 0 -22z" />
    <glyph glyph-name="question" unicode="?" horiz-adv-x="525" 
d="M170 201v160q37 2 69.5 13t57 33t38.5 55t14 77q0 38 -12 71.5t-37.5 54t-67.5 20.5q-33 0 -54 -14.5t-32 -37.5t-15.5 -51t-4.5 -55q-46 0 -70.5 10t-33.5 26.5t-9 34.5q0 39 27.5 69.5t79 48t122.5 17.5q53 0 99 -11t81 -34.5t54.5 -62t19.5 -93.5q0 -59 -22 -100.5
t-57 -68t-74 -39t-73 -14.5v-109h-100zM212 -14q-33 0 -55.5 22.5t-22.5 54.5q0 33 22.5 55.5t55.5 22.5q32 0 54.5 -22.5t22.5 -55.5q0 -32 -22.5 -54.5t-54.5 -22.5z" />
    <glyph glyph-name="at" unicode="@" horiz-adv-x="891" 
d="M377 -110q-37 -1 -82 12t-90 40t-82.5 70.5t-60.5 104.5t-23 141q0 75 25 147t77.5 130.5t135.5 93.5t198 35q83 0 144.5 -23.5t104.5 -63.5t69.5 -90t38.5 -102t12 -100q0 -87 -24.5 -142t-64.5 -81t-89 -26q-32 0 -60.5 15t-46 40.5t-17.5 54.5l17 92l22 2
q-5 -50 -23 -93.5t-49 -70t-76 -26.5q-54 0 -85.5 19.5t-47 49.5t-20 63.5t-4.5 60.5q0 113 48.5 178.5t145.5 65.5q56 0 91.5 -16.5t55 -43.5t27 -60t7.5 -65l-1 -104q-1 -38 9.5 -69t38.5 -31q32 0 53 45t22 143q0 40 -9 83.5t-30 85t-55.5 75t-84 53.5t-117.5 20
q-83 0 -142.5 -28.5t-97 -77t-55.5 -109.5t-18 -126q0 -78 23 -138t61.5 -100t88 -57.5t101.5 -11.5q19 -25 2.5 -45t-63.5 -20zM426 94q33 0 57 27.5t37.5 75t13.5 107.5q0 42 -7.5 73t-25.5 47.5t-51 16.5q-58 0 -89 -49t-31 -148q0 -23 3 -49t12 -49t28.5 -37.5
t52.5 -14.5z" />
    <glyph glyph-name="A" unicode="A" horiz-adv-x="628" 
d="M363 713q25 0 46.5 -9t28.5 -36l174 -586q4 -13 12 -32t21 -33q-9 -10 -28 -20.5t-54 -10.5q-32 0 -55 13.5t-29 40.5l-162 620l14 -3l-144 -577q-3 -12 -5 -23.5t-2 -22.5q0 -12 3 -20t8 -13q-15 -6 -32.5 -10.5t-43.5 -4.5q-40 0 -59 13.5t-19 44.5q0 13 3.5 31.5
t10.5 39.5l194 579q58 19 118 19zM181 277h332v-74h-332v74z" />
    <glyph glyph-name="B" unicode="B" horiz-adv-x="603" 
d="M163 0q-34 0 -57 18.5t-23 52.5v480q0 16 -1.5 38t-5.5 46t-13 46q32 15 78 23t110 8q130 0 203.5 -38.5t73.5 -129.5q0 -61 -34 -106t-94 -61q71 -10 116.5 -55t45.5 -123q0 -66 -34 -110.5t-97.5 -66.5t-154.5 -22h-113zM223 48h47q52 0 82.5 19.5t44 53.5t13.5 75
q0 61 -18 93.5t-49 45t-71 12.5h-65l-7 48h69q40 -1 64.5 16.5t35.5 49t11 71.5q0 59 -27.5 95.5t-99.5 36.5h-15.5h-14.5v-616z" />
    <glyph glyph-name="C" unicode="C" horiz-adv-x="619" 
d="M584 129q0 -36 -22 -63t-59 -44.5t-82 -26.5t-91 -9q-133 0 -208 95t-75 268t77.5 268t215.5 95q41 0 81 -8t73 -23t53 -37.5t20 -52.5t-28 -55.5t-84 -24.5q-7 80 -35.5 117t-77.5 37q-73 0 -107 -79t-34 -237t33 -237t104 -79q35 0 61.5 18t43.5 55t24 93
q28 4 54.5 -2.5t44.5 -23t18 -44.5z" />
    <glyph glyph-name="D" unicode="D" horiz-adv-x="654" 
d="M159 0q-37 0 -59 19t-22 51l-1 481q0 29 -0.5 71.5t-13.5 76.5q28 4 67 6t81 2.5t76 0.5q153 0 236.5 -88t83.5 -261q0 -188 -82.5 -273.5t-229.5 -85.5h-136zM217 48h70q58 0 94.5 29t54 95t17.5 177q0 163 -40 237t-126 74h-70v-612z" />
    <glyph glyph-name="E" unicode="E" horiz-adv-x="554" 
d="M163 0q-34 0 -57 18.5t-23 52.5v462q0 29 -3.5 62.5t-16.5 67.5q26 23 53 29t74 6h289q14 0 19 -16t2 -38.5t-12.5 -42t-23.5 -25.5q-52 24 -114.5 39t-127.5 17l1 -566q44 2 96 11t98 22t72 26q13 -8 19.5 -28t6.5 -42.5t-8.5 -38.5t-25.5 -16h-318zM197 324v74h237
q5 -19 4.5 -38.5t-4.5 -35.5h-237z" />
    <glyph glyph-name="F" unicode="F" horiz-adv-x="534" 
d="M163 -15q-34 0 -57 19t-23 52v477q0 29 -3.5 62.5t-16.5 67.5q26 23 53 29t74 6h289q14 0 19 -16t2 -38.5t-12.5 -42t-23.5 -25.5q-52 24 -114.5 39t-127.5 17l1 -486q0 -28 3.5 -62.5t16.5 -67.5q-9 -8 -30 -19.5t-50 -11.5zM197 322v75h237q5 -19 4 -39t-4 -36h-237z
" />
    <glyph glyph-name="G" unicode="G" horiz-adv-x="656" 
d="M346 -14q-142 0 -220.5 95t-78.5 268t82 268t227 95q39 0 78 -8t71.5 -23t52 -37.5t19.5 -51.5q0 -31 -28 -56.5t-84 -24.5q-7 80 -34 117t-73 37q-82 0 -119.5 -79t-37.5 -237t36.5 -237t116.5 -79q36 0 58 18t34.5 47t17 62t4.5 62q0 26 -4 52t-16.5 48.5t-38.5 34.5
q10 21 33.5 31t49.5 10q35 0 61.5 -15.5t41.5 -46.5t15 -79q0 -56 -14 -100t-39.5 -76t-58.5 -53t-72 -31.5t-80 -10.5z" />
    <glyph glyph-name="H" unicode="H" horiz-adv-x="701" 
d="M223 146q0 -28 3.5 -62.5t16.5 -67.5q-9 -8 -30 -19.5t-50 -11.5q-34 0 -57 19t-23 52v495q0 29 -3.5 62.5t-16.5 67.5q9 8 30 19t50 11q34 0 57 -18.5t23 -51.5v-495zM618 146q0 -28 3.5 -62.5t16.5 -67.5q-9 -8 -30 -19.5t-50 -11.5q-34 0 -57 19t-23 52v495
q0 29 -3.5 62.5t-16.5 67.5q9 8 30 19t50 11q34 0 57 -18.5t23 -51.5v-495zM169 401h351v-74h-351v74z" />
    <glyph glyph-name="I" unicode="I" horiz-adv-x="306" 
d="M163 -15q-34 0 -57 19t-23 52v495q0 29 -3.5 62.5t-16.5 67.5q9 8 30 19t50 11q34 0 57 -18.5t23 -51.5v-495q0 -28 3.5 -62.5t16.5 -67.5q-9 -8 -30 -19.5t-50 -11.5z" />
    <glyph glyph-name="J" unicode="J" horiz-adv-x="499" 
d="M214 -14q-66 0 -104.5 17t-55.5 44t-17 56q0 34 19 61.5t60 27.5q22 0 36 -7t23 -23q-8 -16 -12 -31t-4 -32t7 -32t19.5 -24.5t28.5 -9.5q29 0 43 21t18.5 55t4.5 73v409q0 20 1 37.5t8 27.5q-16 1 -41 1.5t-38 1.5q-18 0 -34 -8.5t-16 -32.5q0 -23 10 -37.5t22 -22.5
q-10 -8 -24.5 -12t-31.5 -4q-30 0 -56 21t-26 62t30 64t88 23q20 0 42.5 -1.5t49 -2.5t57.5 -2q29 0 56.5 2t48.5 4q-2 -11 -4 -28.5t-2 -50.5v-434q0 -46 -10.5 -85t-34.5 -67.5t-63.5 -44.5t-97.5 -16z" />
    <glyph glyph-name="K" unicode="K" horiz-adv-x="621" 
d="M516 -16q-43 0 -69.5 23.5t-43 58t-28.5 66.5l-27 82q-6 16 -14 33.5t-20.5 32.5t-31 24t-44.5 9h-29l-1 48q10 2 19.5 4t17.5 5q42 13 73 41t51 63t30 72t10 68t-6.5 51.5t-11.5 28.5q15 6 28 9t29 3q21 0 43.5 -7.5t37.5 -29t15 -64.5q0 -48 -24 -98.5t-76.5 -93.5
t-136.5 -71l2 11q71 -3 107 -27t55 -68l44 -102q18 -35 29.5 -49t28.5 -16q6 -1 11.5 1t12.5 6q8 -22 8 -38q0 -31 -24 -53.5t-65 -22.5zM163 -15q-34 0 -57 19t-23 52v495q0 29 -3.5 62.5t-16.5 67.5q9 8 30 19t50 11q34 0 56.5 -18.5t22.5 -51.5l1 -495q0 -28 3.5 -62.5
t16.5 -67.5q-9 -8 -30 -19.5t-50 -11.5z" />
    <glyph glyph-name="L" unicode="L" horiz-adv-x="508" 
d="M222 641l1 -567q44 1 90.5 9.5t87.5 21.5t66 28q13 -9 19.5 -30t6.5 -45t-8.5 -41t-25.5 -17h-296q-34 0 -57 18.5t-23 52.5v480q0 29 -3.5 62.5t-16.5 67.5q9 8 30 19t50 11q34 0 56.5 -18.5t22.5 -51.5z" />
    <glyph glyph-name="M" unicode="M" horiz-adv-x="851" 
d="M768 146q0 -28 3.5 -62.5t16.5 -67.5q-9 -8 -30 -19.5t-50 -11.5q-32 0 -53.5 19t-21.5 52l-1 496l21 49l-186 -523q-38 -13 -68.5 -14.5t-59.5 9.5q-34 74 -70.5 163t-70 183t-60.5 182l17 -28l1 -428q0 -28 3.5 -68.5t16.5 -74.5q-9 -8 -22 -12.5t-27 -4.5
q-25 0 -35.5 15t-10.5 40v514q0 45 -1 77t-6 63q9 8 32.5 12.5t64.5 4.5q26 0 43 -6t30 -19q49 -133 97 -265t95 -256l-21 3q20 57 43.5 126t48 141.5t47 140.5t38.5 122q26 9 50.5 11t38.5 2q32 0 57.5 -8.5t29.5 -19.5v-537z" />
    <glyph glyph-name="N" unicode="N" horiz-adv-x="699" 
d="M120 -15q-15 0 -30 5t-27 13q13 34 16.5 74.5t3.5 68.5v406q0 45 -1.5 78t-5.5 64q8 9 28.5 13t41 3.5t26.5 -6.5q36 -51 81 -109.5t91 -118.5t88 -116t73 -102.5t44 -78.5l-36 440q-4 39 13 64t53 27q14 1 29.5 -3t27.5 -12q-11 -31 -13.5 -69t-2.5 -62l-1 -421
q0 -45 1.5 -77t5.5 -63q-7 -8 -25 -12.5t-37.5 -4.5t-31.5 6q-59 69 -106.5 126.5t-84.5 105.5t-65.5 87.5t-50.5 73t-38 61t-28 51.5l30 -432q3 -36 -20 -58t-49 -22z" />
    <glyph glyph-name="O" unicode="O" horiz-adv-x="666" 
d="M333 -14q-141 0 -213.5 91t-72.5 272t72.5 272t213.5 91t213.5 -91t72.5 -272t-72.5 -272t-213.5 -91zM333 33q70 0 101 75t31 241t-31 241t-101 75q-69 0 -100.5 -75t-31.5 -241t31.5 -241t100.5 -75z" />
    <glyph glyph-name="P" unicode="P" horiz-adv-x="586" 
d="M163 -15q-34 0 -57 19t-23 52v495q0 16 -1.5 38t-5.5 46t-13 46q32 15 78 23t108 8q146 0 225.5 -48t79.5 -159q0 -112 -80 -173.5t-228 -61.5h-20t-21 1l-7 48q10 -1 19.5 -1.5t21.5 -0.5q62 0 97 23t50 63t15 92q0 50 -14 88t-46.5 59.5t-88.5 21.5h-15.5t-13.5 -1
v-525q0 -16 1.5 -37t5.5 -42.5t13 -42.5q-9 -8 -30 -19.5t-50 -11.5z" />
    <glyph glyph-name="Q" unicode="Q" horiz-adv-x="676" 
d="M550 -167q-32 0 -70 9.5t-78.5 26t-79.5 38.5t-73 47q-58 42 -103.5 94.5t-72 125t-26.5 174.5q0 182 77 273t213 91q137 0 213.5 -91t76.5 -272q0 -114 -36.5 -195.5t-101.5 -124.5t-153 -43q-16 0 -29 1.5t-28 5.5q22 -18 50.5 -30t59.5 -18t60 -6q50 0 89.5 14.5
t50.5 44.5q33 -5 52.5 -24.5t19.5 -52.5q0 -34 -29 -61t-82 -27zM334 33q68 0 100 74.5t32 242.5q0 165 -31 240t-99 75q-73 0 -100.5 -85.5t-27.5 -254.5q0 -84 10 -150t37 -104t79 -38z" />
    <glyph glyph-name="R" unicode="R" horiz-adv-x="630" 
d="M163 -15q-34 0 -57 19t-23 52v495q0 16 -1.5 38t-5.5 46t-13 46q32 15 78 23t113 8q143 0 219.5 -41.5t76.5 -139.5q0 -64 -32 -110t-89 -70.5t-133 -23.5l19 19q52 1 84 -10t52.5 -32t36.5 -49l41 -93q15 -36 28.5 -52.5t28.5 -17.5q5 0 11.5 2t12.5 6q5 -11 6.5 -20.5
t1.5 -17.5q0 -26 -14 -43t-33 -25t-35 -8q-43 0 -68.5 18t-43 52.5t-36.5 81.5l-28 76q-10 25 -21.5 46.5t-31 35t-53.5 13.5l-46 1l-11 50q16 -1 32 -2.5t32 -0.5q47 2 77 24t44.5 59t14.5 82q0 60 -29.5 101.5t-101.5 41.5h-23.5t-19.5 -1v-526q0 -16 1.5 -37t5.5 -42.5
t13 -42.5q-9 -8 -30 -19.5t-50 -11.5z" />
    <glyph glyph-name="S" unicode="S" horiz-adv-x="568" 
d="M273 -15q-81 0 -134 18.5t-79 50.5t-26 72q0 23 10.5 42t35.5 28.5t69 2.5q-3 -12 -2.5 -26t2.5 -27q5 -26 21 -52t46.5 -43t76.5 -17q44 0 76 24.5t32 76.5q0 34 -15 59t-45.5 47t-75.5 47q-64 37 -110 70.5t-71 75t-25 99.5q0 65 33 104t87.5 57t118.5 18
q95 0 155 -28.5t60 -87.5q0 -25 -15.5 -44t-56.5 -20q-17 -2 -38 2q1 16 -1.5 31.5t-7.5 28.5q-5 19 -18.5 35t-36.5 26t-57 10q-20 0 -42 -7t-37 -25t-15 -51q0 -30 13 -55t46.5 -50.5t94.5 -59.5q47 -25 91.5 -56t73.5 -73.5t29 -103.5q0 -41 -16 -77t-49 -63.5t-82.5 -43
t-115.5 -15.5z" />
    <glyph glyph-name="T" unicode="T" horiz-adv-x="557" 
d="M289 -15q-34 0 -57 19t-23 52v621l139 -12l1 -519q0 -28 3.5 -62.5t16.5 -67.5q-9 -8 -30 -19.5t-50 -11.5zM49 576q-14 6 -23.5 25.5t-12.5 42t2 38.5t19 16h490q14 0 19 -16t1.5 -38.5t-13 -42t-23.5 -25.5q-29 16 -68 33.5t-81 29.5t-80 12t-80 -12t-80.5 -29.5
t-69.5 -33.5z" />
    <glyph glyph-name="U" unicode="U" horiz-adv-x="676" 
d="M603 641v-334q0 -160 -66 -240.5t-199 -80.5q-127 0 -192.5 77t-65.5 244v244q0 29 -3.5 62.5t-16.5 67.5q9 8 30 19t50 11q33 0 56 -18.5t23 -51.5v-341q0 -142 28.5 -204.5t90.5 -62.5q67 0 97 68.5t30 198.5v251q0 29 -3.5 62.5t-16.5 67.5q9 8 29.5 19t49.5 11
q33 0 56 -18.5t23 -51.5z" />
    <glyph glyph-name="V" unicode="V" horiz-adv-x="612" 
d="M298 -15q-75 0 -86 38l-176 594q-4 13 -12 32.5t-21 32.5q10 11 29.5 20.5t53.5 9.5q76 0 89 -53l162 -652h-39l147 612q3 11 5 22.5t2 22.5q0 13 -2.5 21t-7.5 13q15 6 32 10t43 4q41 0 59.5 -13.5t18.5 -43.5q0 -13 -3.5 -31.5t-10.5 -39.5l-190 -580
q-28 -10 -52 -14.5t-41 -4.5z" />
    <glyph glyph-name="W" unicode="W" horiz-adv-x="962" 
d="M858 709q41 0 60 -13.5t18 -43.5q0 -13 -4 -32t-10 -39l-159 -577q-27 -10 -51.5 -14.5t-41.5 -4.5q-31 0 -52.5 9t-26.5 29l-107 442l-116 -461q-28 -10 -51.5 -14.5t-38.5 -4.5q-37 0 -59 9t-27 29l-145 594q-3 13 -11.5 32.5t-21.5 32.5q10 11 29.5 20.5t53.5 9.5
q38 0 61 -13t28 -40l112 -561l106 441q6 28 3 47t-9 32q21 11 49 16.5t50 5.5q27 0 47 -9t24 -29l123 -503l96 516q2 12 4 23.5t2 22.5q0 12 -2.5 20t-7.5 14q15 5 32 9.5t43 4.5z" />
    <glyph glyph-name="X" unicode="X" horiz-adv-x="640" 
d="M514 -14q-53 0 -82.5 32.5t-58.5 87.5l-101 194l-134 251q-10 17 -18.5 25.5t-19.5 8.5t-20.5 -8t-11.5 -19q-16 8 -27.5 24.5t-11.5 39.5q0 32 23 58.5t80 26.5q55 0 86 -30.5t61 -89.5l83 -165l151 -280q9 -17 20 -25.5t21 -8.5q9 0 18 8.5t11 18.5q16 -7 28 -23.5
t12 -38.5q0 -33 -29.5 -60t-79.5 -27zM95 -14q-34 0 -51 20.5t-21 63.5q36 10 59.5 32t44.5 51l156 219l58 -56l-177 -289q-11 -18 -26.5 -29.5t-42.5 -11.5zM350 327l-45 55l162 284q9 17 24.5 29t43.5 12q34 0 51.5 -20t21.5 -64q-37 -10 -60.5 -32t-43.5 -50z" />
    <glyph glyph-name="Y" unicode="Y" horiz-adv-x="600" 
d="M288 230q-23 0 -38 12t-25 29.5t-19 32.5l-151 291q-7 13 -20 33t-31 37q10 11 36 27t63 16q42 0 61.5 -21.5t35.5 -56.5l148 -322l-56 -31l151 336q11 23 11 44q0 11 -4 20.5t-10 16.5q15 6 33 10t46 4q34 0 48.5 -18t15.5 -41q0 -17 -9.5 -40.5t-23.5 -44.5l-189 -315z
M369 310v-164q0 -28 3.5 -62.5t16.5 -67.5q-8 -8 -29 -19.5t-50 -11.5q-34 0 -57 19t-23 52v228z" />
    <glyph glyph-name="Z" unicode="Z" horiz-adv-x="597" 
d="M62 -7l-18 33q0 35 6 59t28 50l375 500l12 -39l-237 -19q-24 -1 -46 -9.5t-32 -25.5q-9 -17 -10.5 -30t2.5 -27q-38 7 -63 26q-17 11 -28 31t-11 45q0 50 41.5 83.5t134.5 30.5l203 -7q29 -1 59.5 1t55.5 10l17 -41q0 -34 -6.5 -57t-28.5 -50l-379 -490l-18 36l262 19
q34 2 55 14.5t29 25.5q10 14 11.5 28t-1.5 27q14 -2 20.5 -5t12.5 -6q20 -8 35 -22t23 -32.5t8 -42.5q0 -49 -38.5 -80.5t-118.5 -30.5l-264 7q-28 1 -46 -1t-45 -11z" />
    <glyph glyph-name="bracketleft" unicode="[" horiz-adv-x="374" 
d="M84 738h207v-62h-78v-785h78v-62h-207v909z" />
    <glyph glyph-name="backslash" unicode="\" horiz-adv-x="563" 
d="M391 -142l-326 875h138l325 -875h-137z" />
    <glyph glyph-name="bracketright" unicode="]" horiz-adv-x="374" 
d="M285 738v-909h-207v62h78v785h-78v62h207z" />
    <glyph glyph-name="asciicircum" unicode="^" horiz-adv-x="545" 
d="M103 246q-8 1 -23 6.5t-16 9.5l174 167q6 3 20.5 4t29 0t20.5 -4l174 -167q-1 -4 -17 -10t-24 -6l-168 99z" />
    <glyph glyph-name="underscore" unicode="_" horiz-adv-x="389" 
d="M-30 -67l449 -2v-68l-449 2v68z" />
    <glyph glyph-name="grave" unicode="`" horiz-adv-x="600" 
d="M165 714q6 5 28.5 12t49 12t42.5 2l90 -160q-6 -4 -21 -6t-27 -3z" />
    <glyph glyph-name="a" unicode="a" horiz-adv-x="568" 
d="M467 -10q-52 0 -81.5 37.5t-29.5 133.5v38l24 -5q-10 -55 -38 -101.5t-72 -74.5t-104 -28q-57 0 -94.5 30t-37.5 88q0 48 26.5 81.5t67 54.5t81.5 33q40 11 75.5 15.5t63.5 5.5v25q0 81 -18 122t-65 41q-19 0 -34.5 -7.5t-24 -23.5t-8.5 -43q0 -20 7 -41t28 -33
q-12 -12 -31.5 -18t-41.5 -6q-49 0 -75.5 27t-26.5 66q0 60 58.5 92t156.5 32q112 0 164 -50t52 -167v-169q0 -53 33 -53q5 0 13.5 3t13.5 10q7 -10 10 -22t3 -21q0 -29 -25.5 -50.5t-69.5 -21.5zM238 79q19 2 39 15.5t37 37t27.5 54.5t10.5 68q-19 0 -39 -1.5t-38.5 -6.5
t-34.5 -14q-24 -13 -39.5 -36.5t-15.5 -53.5q0 -25 12.5 -45.5t40.5 -17.5z" />
    <glyph glyph-name="b" unicode="b" horiz-adv-x="556" 
d="M277 -14q-44 0 -85.5 8t-75.5 23t-58 35v610q0 34 21 52.5t52 18.5t53 -11t32 -19q-9 -39 -14 -80t-6.5 -77t-1.5 -61v-54q11 31 32 53.5t51 34.5t67 12q53 0 93 -25.5t62.5 -81t22.5 -147.5q0 -67 -14 -121t-43.5 -92t-76 -58t-111.5 -20zM267 40q35 0 56 19t32.5 52
t15.5 75.5t4 90.5q0 96 -14.5 139.5t-49.5 43.5q-29 0 -51 -16.5t-36.5 -46t-21.5 -68t-7 -81.5v-187q9 -6 20.5 -10.5t25 -7.5t26.5 -3z" />
    <glyph glyph-name="c" unicode="c" horiz-adv-x="513" 
d="M288 -14q-122 0 -188 71.5t-66 202.5q0 126 66.5 198.5t190.5 72.5q95 0 140 -38t45 -90q0 -41 -26.5 -65t-67.5 -24q-20 0 -40 6t-31 18q14 14 21 32.5t7 44.5t-7.5 41.5t-20.5 22t-31 6.5q-46 0 -72.5 -53t-26.5 -150q0 -74 17.5 -120.5t51 -68.5t80.5 -22
q36 0 63.5 12t45.5 32.5t25 45.5q11 -4 15.5 -18.5t-2.5 -43.5q-14 -53 -65 -83t-124 -30z" />
    <glyph glyph-name="d" unicode="d" horiz-adv-x="592" 
d="M212 -14q-48 0 -81.5 18.5t-55 53t-31.5 81t-10 101.5q0 140 55.5 215.5t158.5 75.5q46 0 76.5 -15t44.5 -44v41q0 35 -4 87t-19 103q9 8 29.5 19t49.5 11q33 0 56 -18.5t23 -52.5l-1 -517q0 -26 9 -39t25 -13q5 0 13.5 2t12.5 9q7 -10 10 -22t3 -21q0 -31 -25.5 -50.5
t-63.5 -19.5q-58 0 -84.5 49.5t-26.5 133.5v46l21 -11q-7 -57 -22 -99t-38.5 -69.5t-54.5 -41t-70 -13.5zM254 60q30 0 51 22.5t34.5 60.5t20 85t6.5 96q0 27 -3 52t-11.5 44.5t-25 31t-43.5 11.5q-56 0 -79 -58t-23 -162q0 -46 3.5 -80.5t12 -57t22.5 -34t35 -11.5z" />
    <glyph glyph-name="e" unicode="e" horiz-adv-x="527" 
d="M289 -14q-116 0 -185.5 71.5t-69.5 202.5q0 126 66 198.5t190 72.5q58 0 104.5 -17t74 -50.5t27.5 -84.5q0 -74 -60 -113.5t-155 -39.5q-40 0 -85.5 2.5t-98.5 15.5l4 41q21 -2 43.5 -5t55.5 -4q22 0 47.5 3t48.5 15.5t37.5 38t14.5 69.5q0 34 -9 51.5t-23.5 24.5
t-30.5 7q-49 0 -76.5 -55t-27.5 -152q0 -77 17 -122.5t50 -65t80 -19.5q56 0 91.5 22t51.5 53q11 -4 15.5 -17t-6.5 -41q-19 -49 -69.5 -75.5t-121.5 -26.5z" />
    <glyph glyph-name="f" unicode="f" horiz-adv-x="406" 
d="M158 -15q-34 0 -56.5 19t-22.5 52v476q0 45 9.5 83t32 67t60.5 45t94 16q74 0 114.5 -23t40.5 -65q0 -29 -22 -47.5t-54 -18.5q-20 0 -36.5 5.5t-25.5 15.5q10 14 14 26t4 25q0 21 -8.5 30.5t-28.5 9.5q-30 0 -42 -27t-13.5 -71t-1.5 -96v-361q0 -22 3.5 -59.5
t16.5 -70.5q-13 -12 -32.5 -21.5t-45.5 -9.5zM11 451l1 33q1 17 11.5 24.5t24.5 7.5h180q4 0 20.5 0.5t37 1t37 1t20.5 1.5l-1 -32q-1 -16 -11 -24.5t-24 -8.5h-236q-10 0 -30 -1t-30 -3z" />
    <glyph glyph-name="g" unicode="g" horiz-adv-x="547" 
d="M229 -224q-50 0 -94 11.5t-70.5 37t-26.5 66.5q0 38 26.5 61t67.5 23q45 0 63 -23q-15 -13 -22.5 -31t-7.5 -38q0 -18 7 -33t22 -24t39 -9q63 0 94.5 58t31.5 150v35.5t1 39.5q-17 -47 -54.5 -72.5t-93.5 -25.5q-52 0 -92.5 24t-63 78.5t-22.5 144.5q0 49 8.5 92t26.5 78
t46.5 60t69.5 38.5t95 13.5q44 0 83.5 -8t73.5 -22.5t58 -35.5v-421q0 -99 -34.5 -158t-94.5 -84.5t-137 -25.5zM254 65q26 0 45 12.5t32 36t20 58t7 77.5l1 215q-13 10 -32 15.5t-39 5.5q-33 0 -54 -17t-32.5 -49t-16.5 -78.5t-5 -105.5q0 -94 15.5 -132t58.5 -38z" />
    <glyph glyph-name="h" unicode="h" horiz-adv-x="571" 
d="M145 -15q-34 0 -57 21t-23 57v599q-1 34 17.5 51t46.5 19q32 3 58 -9t36 -20q-15 -49 -19 -109.5t-5 -135.5v-87l-23 -31q8 60 28.5 102.5t56.5 65.5t89 23q83 0 122 -50t39 -150v-185q0 -22 3.5 -59.5t16.5 -70.5q-13 -12 -32.5 -21.5t-45.5 -9.5q-34 0 -56.5 19
t-22.5 52v253q0 76 -13.5 117.5t-57.5 41.5q-23 0 -42 -14.5t-32.5 -44t-21 -73t-7.5 -101.5q0 -49 0.5 -82t2.5 -56.5t6.5 -42.5t13.5 -39q-9 -8 -29 -19t-49 -11z" />
    <glyph glyph-name="i" unicode="i" horiz-adv-x="274" 
d="M136 576q-33 0 -55.5 22.5t-22.5 54.5q0 33 22.5 55.5t55.5 22.5q32 0 54.5 -22.5t22.5 -55.5q0 -32 -22.5 -54.5t-54.5 -22.5zM209 146q0 -28 3.5 -62.5t16.5 -67.5q-9 -8 -29.5 -19.5t-49.5 -11.5q-32 0 -54.5 19t-22.5 52v315q0 29 -3.5 63t-16.5 68q9 8 29 19t48 11
q34 0 56 -18.5t22 -52.5z" />
    <glyph glyph-name="j" unicode="j" horiz-adv-x="268" 
d="M20 -227q-67 0 -98.5 25.5t-31.5 62.5q0 26 17.5 47t53.5 21q19 0 30.5 -7t19.5 -24q-7 -11 -11.5 -23.5t-4.5 -23.5q0 -12 4 -20t11.5 -12t15.5 -4q24 0 33.5 27.5t11 71.5t1.5 94l1 362q0 23 -3.5 60t-16.5 71q14 13 34 21.5t43 8.5q33 0 55.5 -18.5t22.5 -52.5v-477
q0 -44 -10 -82t-32.5 -67t-58.5 -45t-87 -16zM134 587q-31 0 -53 22t-22 53q0 32 22 53.5t53 21.5q32 0 53.5 -21.5t21.5 -53.5q0 -31 -21.5 -53t-53.5 -22z" />
    <glyph glyph-name="k" unicode="k" horiz-adv-x="552" 
d="M141 -15q-47 0 -61.5 23t-14.5 55v599q-1 34 21.5 52.5t56.5 18.5q30 0 50 -11t28 -19q-9 -45 -12.5 -77.5t-5 -59t-1.5 -52.5t-2 -58l-1 -77l-7 13q14 42 38.5 73t61 48.5t84.5 17.5q69 0 98 -33.5t29 -77.5q0 -41 -21 -74t-53.5 -58t-69.5 -43q19 -4 33.5 -19.5
t28.5 -38.5l26 -44q13 -22 20.5 -32.5t23.5 -10.5q6 0 13.5 2t14.5 7q10 -10 14 -22t4 -23q0 -32 -28 -55.5t-71 -23.5q-34 0 -62.5 19t-45.5 62l-62 150q-19 -5 -35 -9t-32 -6q0 -40 0.5 -67.5t2.5 -47t7 -36t13 -35.5q-12 -10 -31 -20t-52 -10zM201 250q28 8 56.5 22.5
t52.5 35t38.5 46.5t14.5 57q0 29 -12 40.5t-30 11.5q-33 0 -60.5 -29t-43.5 -77.5t-16 -106.5z" />
    <glyph glyph-name="l" unicode="l" horiz-adv-x="293" 
d="M188 -10q-61 0 -92.5 38.5t-31.5 104.5v529q0 34 22.5 52.5t56.5 18.5q30 0 50 -11t28 -19q-13 -48 -16.5 -90.5t-3.5 -104.5v-363q0 -26 9 -39.5t26 -13.5q7 0 16 3t13 10q8 -10 11 -22t3 -21q0 -31 -27 -51.5t-64 -20.5z" />
    <glyph glyph-name="m" unicode="m" horiz-adv-x="870" 
d="M810 146q0 -22 3.5 -59.5t16.5 -70.5q-13 -12 -32.5 -21.5t-46.5 -9.5q-34 0 -56.5 19t-22.5 52v253q0 42 -3 78.5t-15.5 58.5t-40.5 22q-20 0 -38 -14.5t-32 -43t-22.5 -72t-8.5 -100.5v-92q0 -22 3.5 -59.5t16.5 -70.5q-13 -12 -31.5 -21.5t-45.5 -9.5q-32 0 -54 19
t-22 52v253q0 76 -12.5 117.5t-53.5 41.5q-21 0 -38 -14.5t-29.5 -43.5t-19.5 -73.5t-7 -103.5q0 -48 0.5 -81t2.5 -56t6.5 -42t13.5 -39q-9 -8 -28 -19t-51 -11q-34 0 -56.5 21t-22.5 57l-1 313q0 28 -7 40.5t-21 12.5q-6 0 -14 -3t-13 -11q-13 20 -13 43q0 32 22 52.5
t61 20.5q49 0 76.5 -35t27.5 -108v-32l-9 23q15 68 54.5 110t112.5 42q69 0 104 -38.5t44 -113.5l-15 4q10 44 31 77.5t54.5 52t79.5 18.5q77 0 114.5 -50.5t37.5 -149.5v-185z" />
    <glyph glyph-name="n" unicode="n" horiz-adv-x="588" 
d="M161 -15q-35 0 -58 21t-23 57v313q-1 29 -7 41t-19 12q-5 0 -13 -2t-13 -10q-13 20 -13 43q0 31 21 51t61 20q47 0 75 -32t28 -98v-30l-17 -31q8 60 29.5 102.5t59.5 65.5t94 23q83 0 122 -50t39 -150v-185q1 -22 4.5 -59.5t16.5 -70.5q-14 -13 -33.5 -22t-45.5 -9
q-34 0 -56.5 19t-22.5 52v253q-1 73 -14 113.5t-57 40.5q-23 0 -42 -14t-32.5 -42.5t-21 -71.5t-7.5 -100q0 -49 0.5 -82t2.5 -56.5t6.5 -42.5t13.5 -39q-9 -8 -29.5 -19t-48.5 -11z" />
    <glyph glyph-name="o" unicode="o" horiz-adv-x="562" 
d="M281 -14q-117 0 -182 72t-65 200q0 129 65 201t182 72t182 -72t65 -201q0 -128 -65 -200t-182 -72zM281 32q51 0 75 57t24 169q0 113 -24 170t-75 57q-52 0 -76 -57t-24 -170q0 -112 24 -169t76 -57z" />
    <glyph glyph-name="p" unicode="p" horiz-adv-x="585" 
d="M371 531q50 0 84.5 -20t55.5 -55t30.5 -81t9.5 -98q0 -143 -59 -217t-158 -74q-43 0 -74 15t-45 43v-40q0 -22 1.5 -55t6.5 -69.5t14 -69.5q-9 -8 -29.5 -19t-49.5 -11q-33 0 -56 18.5t-23 51.5l1 522q0 27 -6 39.5t-20 12.5q-5 0 -13 -2t-13 -9q-7 11 -10 22.5t-3 20.5
q0 31 23 50.5t60 19.5q57 0 83 -49.5t26 -133.5v-46l-21 10q7 57 22 99.5t38.5 70t54.5 41t70 13.5zM329 458q-30 0 -51 -22t-34.5 -59t-20 -81.5t-6.5 -88.5q0 -39 4.5 -67.5t14 -47t25.5 -27.5t38 -9q57 0 81 58t24 164q0 42 -3.5 75.5t-11.5 56.5t-22.5 35.5t-37.5 12.5z
" />
    <glyph glyph-name="q" unicode="q" horiz-adv-x="550" 
d="M416 -220q-28 -1 -47 9.5t-32 21.5q13 39 17.5 81t4.5 81.5v69.5v43q-11 -31 -32 -54t-51 -35t-67 -12q-51 0 -90.5 25.5t-62 82.5t-22.5 149q0 51 8.5 95t26.5 80t46.5 61.5t68.5 39t92 13.5q69 0 128 -19t93 -47v-614q0 -31 -21.5 -50.5t-59.5 -20.5zM247 57
q22 0 40 12t31.5 33t23 47.5t14 57t4.5 60.5v188q-13 8 -33.5 14.5t-43.5 6.5q-25 0 -42.5 -10t-29 -30t-18.5 -49t-9.5 -66t-2.5 -82q1 -87 15 -134.5t51 -47.5z" />
    <glyph glyph-name="r" unicode="r" horiz-adv-x="473" 
d="M160 -11q-31 0 -55.5 20.5t-24.5 57.5v309q0 29 -6.5 41t-19.5 12q-5 0 -13 -2t-13 -10q-13 20 -13 43q0 31 21 51t61 20q48 0 76.5 -34t26.5 -105v-26l-12 10q14 79 49.5 117t93.5 38q57 0 93.5 -30.5t36.5 -84.5q0 -39 -24 -64.5t-60 -26.5q-44 0 -63 22
q11 20 14.5 34.5t3.5 34.5q0 25 -10 38.5t-31 13.5q-23 0 -40 -25.5t-26 -77.5t-9 -130q0 -47 0.5 -79.5t2.5 -55.5t6.5 -42t13.5 -39q-9 -8 -29.5 -18.5t-49.5 -11.5z" />
    <glyph glyph-name="s" unicode="s" horiz-adv-x="477" 
d="M221 -14q-65 0 -107.5 15t-63.5 41t-21 60q0 18 9 36.5t31 29.5t61 4q-3 -14 -2.5 -27t4.5 -27q5 -30 30.5 -56.5t77.5 -26.5q36 0 61 14.5t25 45.5q0 26 -16.5 43.5t-43 31.5t-56.5 28q-38 18 -76.5 40.5t-63.5 57t-25 88.5q0 53 28 85.5t74 47.5t99 15q80 0 132 -24
t52 -73q0 -23 -14.5 -42.5t-51.5 -20.5q-10 -1 -18.5 0t-16.5 2q1 14 -0.5 30.5t-8.5 29.5q-8 23 -28 37t-51 14q-19 0 -35.5 -5.5t-27 -17.5t-10.5 -31q0 -26 17 -45.5t45 -34.5t59 -31q29 -14 58 -29.5t53.5 -35.5t39 -45.5t14.5 -60.5q0 -40 -23 -77.5t-74 -61.5
t-136 -24z" />
    <glyph glyph-name="t" unicode="t" horiz-adv-x="355" 
d="M203 -10q-61 0 -93 38.5t-32 104.5v447q0 33 22.5 51.5t56.5 18.5q30 0 50 -11t28 -19q-13 -48 -16.5 -90t-3.5 -104v-281q0 -26 11.5 -39.5t33.5 -13.5q10 0 22.5 3t16.5 10q8 -10 11 -22t3 -21q0 -31 -29.5 -51.5t-80.5 -20.5zM3 451l1 33q1 17 11.5 24.5t24.5 7.5h174
q4 0 21.5 0.5t40 1t40 1t21.5 1.5l-1 -32q-1 -16 -11 -24.5t-24 -8.5h-238q-10 0 -30 -1t-30 -3z" />
    <glyph glyph-name="u" unicode="u" horiz-adv-x="584" 
d="M426 531q33 0 56 -20.5t23 -57.5l1 -313q0 -28 6.5 -40t19.5 -12q5 0 13 2t13 9q13 -20 13 -42q0 -31 -21 -51t-61 -20q-47 0 -75 32t-28 97v31l17 30q-8 -60 -29.5 -102.5t-58.5 -65.5t-92 -23q-80 0 -119 46t-39 155v184q0 23 -3.5 60t-16.5 71q14 11 33 20.5t46 9.5
q34 0 56.5 -18.5t22.5 -52.5v-252q0 -52 5.5 -88t20 -54t41.5 -18q23 0 41 14.5t31.5 44t20.5 73.5t7 102q0 48 -0.5 81t-2.5 56.5t-6.5 42.5t-13.5 40q9 8 29.5 18.5t49.5 10.5z" />
    <glyph glyph-name="v" unicode="v" horiz-adv-x="514" 
d="M245 -15q-24 0 -44 10t-28 35l-133 404q-4 12 -11.5 32t-20.5 33q9 11 27.5 21t50.5 10t53.5 -13.5t27.5 -40.5l110 -437l-15 2l95 395q2 12 4 23t2 23t-2 20t-7 13q14 6 30 10.5t41 4.5q40 0 57.5 -13.5t17.5 -44.5q0 -13 -3 -32t-11 -39l-149 -396q-48 -20 -92 -20z
" />
    <glyph glyph-name="w" unicode="w" horiz-adv-x="836" 
d="M236 -15q-24 0 -44 10t-28 35l-120 404q-4 12 -11.5 32t-20.5 33q9 11 27.5 21t50.5 10t53.5 -13.5t27.5 -40.5l89 -398l74 358q2 11 3.5 22.5t1.5 23.5t-2 20t-7 13q22 9 46.5 11.5t42.5 3.5q30 0 58 -10.5t35 -40.5l88 -401l75 358q2 12 4 23t2 23t-2.5 20t-6.5 13
q14 6 30 10.5t41 4.5q40 0 57.5 -13.5t17.5 -44.5q0 -13 -3 -32t-11 -39l-135 -396q-24 -10 -47 -15t-46 -5t-44.5 10t-27.5 35l-85 365l-84 -390q-25 -10 -49.5 -15t-49.5 -5z" />
    <glyph glyph-name="x" unicode="x" horiz-adv-x="522" 
d="M414 -15q-32 0 -54 14.5t-39.5 41.5t-38.5 66l-68 125l-83 142q-10 18 -19.5 26.5t-18.5 8.5q-10 0 -19.5 -8t-12.5 -19q-17 8 -29.5 24t-12.5 40q0 31 25 58t80 27q32 0 51.5 -11.5t37 -38.5t40.5 -72l57 -108l93 -160q10 -17 21.5 -25.5t19.5 -8.5t17 8.5t12 18.5
q16 -7 29.5 -23.5t13.5 -40.5q0 -31 -26.5 -58t-75.5 -27zM98 -14q-28 0 -50.5 18.5t-26.5 64.5q41 10 66 31.5t44 50.5l88 130l51 -70l-104 -185q-9 -16 -25.5 -28t-42.5 -12zM309 242l-53 68l100 179q9 17 25.5 29.5t45.5 12.5q35 0 55 -20t24 -64q-41 -10 -65.5 -33
t-44.5 -51z" />
    <glyph glyph-name="y" unicode="y" horiz-adv-x="558" 
d="M245 -224q-50 0 -94 9t-71 32t-27 64q0 33 26 53.5t68 20.5q44 0 62 -23q-15 -10 -22 -24t-7 -27q0 -18 7.5 -32.5t22.5 -23t38 -8.5q64 0 97 59.5t33 155.5q0 13 3 37t7 49t7 42l8 26q-13 -90 -55 -141.5t-126 -51.5q-79 0 -118 46t-39 155v176q0 23 -3.5 60t-16.5 71
q14 11 33 20.5t46 9.5q34 0 56.5 -18.5t22.5 -52.5v-244q0 -77 12.5 -118t52.5 -41q23 0 42 14.5t32.5 43t20.5 70.5t7 98q0 48 -0.5 81t-2.5 56t-6.5 42t-13.5 40q9 8 29.5 18.5t49.5 10.5q33 0 56 -20.5t23 -57.5l1 -400q0 -103 -34 -163.5t-92.5 -87t-134.5 -26.5z" />
    <glyph glyph-name="z" unicode="z" horiz-adv-x="506" 
d="M46 -11l-16 29q0 29 5.5 49t24.5 40l301 335l22 -14l-189 -19q-19 -2 -34 -9.5t-25 -16.5q-10 -10 -15 -21.5t-4 -22.5q-9 2 -17.5 4.5t-16.5 6.5q-31 15 -45 40t-14 42q0 41 35.5 68.5t117.5 24.5l186 -7q22 -1 46.5 1t44.5 9l13 -35q0 -28 -4.5 -47t-24.5 -42
l-284 -325l-23 27l194 10q23 2 39.5 10t26.5 20q8 9 11 19.5t2 20.5q19 -4 33 -10q22 -10 35 -26t19 -33t6 -30q0 -40 -36.5 -67t-106.5 -26l-215 6q-21 1 -46 -1t-46 -10z" />
    <glyph glyph-name="braceleft" unicode="{" horiz-adv-x="429" 
d="M288 -178q-86 0 -134 35.5t-48 112.5q0 41 8 95t8 107q0 42 -16 62t-51 34v40q36 14 51.5 36.5t15.5 63.5q0 56 -8 105t-8 84q0 78 48 113.5t134 35.5q40 0 67 -6.5t38 -13.5q5 -2 5.5 -12t-2 -19t-8.5 -11q-14 5 -27.5 8t-30.5 3q-41 0 -63 -18.5t-22 -68.5
q0 -36 8.5 -87.5t8.5 -104.5q0 -63 -15.5 -90.5t-35.5 -34.5v-6q22 -7 36.5 -36.5t14.5 -86.5q0 -33 -4.5 -69t-8.5 -69.5t-4 -59.5q0 -46 22 -69t63 -23q17 0 30.5 3.5t27.5 8.5q6 -1 8.5 -10.5t2 -19.5t-5.5 -13q-11 -6 -38 -12.5t-67 -6.5z" />
    <glyph glyph-name="bar" unicode="|" horiz-adv-x="361" 
d="M116 -137v867h128v-867h-128z" />
    <glyph glyph-name="braceright" unicode="}" horiz-adv-x="428" 
d="M140 -178q-40 0 -67 6.5t-38 12.5q-4 3 -5 13t2 19.5t8 10.5q14 -5 27.5 -8.5t30.5 -3.5q41 0 63 23t22 69q0 26 -4 59.5t-8.5 69.5t-4.5 69q0 57 14.5 86.5t36.5 36.5v6q-20 7 -35.5 34.5t-15.5 90.5q0 53 8.5 104.5t8.5 87.5q0 50 -22 68.5t-63 18.5q-17 0 -30.5 -3
t-27.5 -8q-5 2 -8 11t-2 19t5 12q11 7 38 13.5t67 6.5q86 0 134 -35.5t48 -113.5q0 -35 -8 -84t-8 -105q0 -41 15.5 -63.5t51.5 -36.5v-40q-34 -14 -50.5 -34t-16.5 -62q0 -53 8 -107t8 -95q0 -77 -48 -112.5t-134 -35.5z" />
    <glyph glyph-name="asciitilde" unicode="~" horiz-adv-x="502" 
d="M442 386q-7 -49 -34 -81.5t-73 -32.5q-24 0 -45 9t-40.5 21.5t-40 21.5t-42.5 9q-32 0 -48.5 -15t-24.5 -32q-7 -1 -17.5 2t-17.5 7q4 43 21.5 67.5t42.5 35t51 10.5q24 0 45.5 -9t41.5 -21.5t40.5 -21.5t44.5 -9q30 0 42 14.5t21 33.5q21 0 33 -9z" />
    <glyph glyph-name="uni00A0" unicode="&#xa0;" horiz-adv-x="200" 
 />
    <glyph glyph-name="exclamdown" unicode="&#xa1;" horiz-adv-x="316" 
d="M78 -200q40 -13 80 -13t80 13l-30 516h-93zM157 532q32 0 54.5 -22.5t22.5 -54.5q0 -33 -22.5 -55.5t-54.5 -22.5q-33 0 -55.5 22.5t-22.5 55.5q0 32 22.5 54.5t55.5 22.5z" />
    <glyph glyph-name="cent" unicode="&#xa2;" horiz-adv-x="518" 
d="M428 -65q-22 -7 -28 13l-238 708q-10 29 -18.5 50t-14.5 31q4 5 7.5 8.5t12.5 6.5q21 7 29 -13l238 -708q9 -28 17.5 -49t14.5 -32q-3 -4 -7 -8t-13 -7zM289 81q-122 0 -188 71.5t-66 202.5q0 126 66.5 198.5t190.5 72.5q95 0 140 -38t45 -90q0 -41 -26.5 -65t-67.5 -24
q-20 0 -40 6t-31 18q14 14 21 32.5t7 44.5t-7.5 41.5t-20.5 22t-31 6.5q-46 0 -72.5 -53t-26.5 -150q0 -74 17.5 -120.5t51 -68.5t80.5 -22q36 0 63.5 12t45.5 32.5t25 45.5q11 -4 15.5 -18.5t-2.5 -43.5q-14 -53 -65 -83t-124 -30z" />
    <glyph glyph-name="sterling" unicode="&#xa3;" horiz-adv-x="511" 
d="M229 518q0 -45 4.5 -83t9 -74.5t4.5 -79.5q0 -60 -15 -106t-47 -77t-83 -48q103 0 193.5 25.5t177.5 77.5q8 -13 11 -33.5t3 -42.5q0 -28 -11.5 -52.5t-37.5 -24.5h-406v38q31 43 48.5 74t25 59.5t7.5 62.5q0 38 -5 77.5t-10 78.5t-5 73q0 75 21.5 122t56 72t74 34
t76.5 9q76 0 114 -27.5t38 -62.5q0 -43 -22 -56.5t-45 -13.5q-16 0 -27 3q0 56 -20 84.5t-52 28.5q-20 0 -38 -10.5t-29 -40t-11 -87.5zM23 273l1 32q1 17 11.5 25t24.5 8h194q4 0 23 0.5t43 1t43 1t23 0.5l-1 -32q-1 -16 -11.5 -24.5t-24.5 -8.5h-266q-10 0 -30 -1t-30 -2z
" />
    <glyph glyph-name="currency" unicode="&#xa4;" horiz-adv-x="621" 
d="M309 118q-64 0 -117.5 29.5t-85 82t-31.5 120.5q0 69 32 121.5t86 82t119 29.5t117.5 -29.5t84 -81.5t31.5 -121q0 -68 -32 -120.5t-85.5 -82.5t-118.5 -30zM311 191q38 0 70 20t51 56t19 83q0 48 -19.5 84t-51.5 56t-71 20q-38 0 -70 -20t-51 -55.5t-19 -83.5t19.5 -84
t52 -56t70.5 -20zM153 474l-26 24q-22 20 -38.5 35.5t-27.5 20.5q2 8 6 14.5t12 14.5q11 11 20 12.5t17 -6.5l78 -75zM475 467l-41 39l25 26q20 22 34.5 39t21.5 27q8 -2 14 -5.5t14 -11.5q11 -11 13 -20.5t-6 -17.5zM505 109l-78 75l40 41l26 -24q21 -21 38.5 -36t27.5 -22
q-2 -7 -5.5 -13t-11.5 -14q-10 -11 -19.5 -13t-17.5 6zM104 100q-7 4 -13.5 7t-14.5 11q-11 11 -13 19.5t6 16.5l76 78l41 -40l-25 -26q-21 -21 -36 -37.5t-21 -28.5z" />
    <glyph glyph-name="yen" unicode="&#xa5;" horiz-adv-x="599" 
d="M79 186l1 32q1 17 11.5 25t24.5 8h227h20.5t42 0.5t48.5 1t41.5 1t20.5 1.5l-1 -32q-1 -16 -11.5 -24.5t-24.5 -8.5h-340q-10 0 -30 -1t-30 -3zM79 265l1 32q1 17 11.5 25t24.5 8h227h20.5t42 0.5t48.5 0.5t41.5 0.5t20.5 1.5l-1 -32q-1 -16 -11.5 -24.5t-24.5 -8.5h-340
q-10 0 -30 -1t-30 -2zM288 230q-23 0 -38 12t-25 29.5t-19 32.5l-151 291q-7 13 -20 33t-31 37q10 11 36 27t63 16q42 0 61.5 -21.5t35.5 -56.5l148 -322l-56 -31l151 336q11 23 11 44q0 11 -4 20.5t-10 16.5q15 6 33 10t46 4q34 0 48.5 -18t15.5 -41q0 -17 -9.5 -40.5
t-23.5 -44.5l-189 -315zM369 310v-164q0 -28 3.5 -62.5t16.5 -67.5q-8 -8 -29 -19.5t-50 -11.5q-34 0 -57 19t-23 52v228z" />
    <glyph glyph-name="brokenbar" unicode="&#xa6;" horiz-adv-x="361" 
d="M116 -137v370h128v-370h-128zM116 360v370h128v-370h-128z" />
    <glyph glyph-name="section" unicode="&#xa7;" horiz-adv-x="475" 
d="M220 -121q-65 0 -107.5 15.5t-63 42t-20.5 60.5q0 18 8.5 36t30 28.5t59.5 3.5q-3 -13 -2.5 -26.5t3.5 -26.5q6 -31 32 -57.5t78 -26.5q38 0 63.5 15t25.5 46q0 26 -16.5 44t-43.5 32.5t-58 27.5q-38 19 -76 41t-63 56.5t-25 88.5q0 53 28 86t74 47q-42 25 -72 60.5
t-30 93.5q0 53 27.5 85t73.5 46.5t99 14.5q80 0 131 -24t51 -73q0 -23 -14 -42t-49 -20q-10 -1 -18 0l-16 2q1 14 -1 30t-8 29q-8 23 -28.5 37.5t-53.5 14.5q-19 0 -36 -5.5t-28 -17.5t-11 -32q0 -27 17 -46.5t45 -35t60 -30.5q29 -14 58 -29.5t53.5 -35t39.5 -45t15 -60.5
q0 -28 -11 -56t-36 -51t-67 -36q31 -16 56.5 -36t41.5 -46t16 -62q0 -40 -23 -77.5t-73.5 -61.5t-135.5 -24zM271 219q16 2 28.5 9t20 19.5t7.5 29.5q0 24 -15.5 41.5t-40.5 32t-55 27.5q-23 -4 -37.5 -17t-14.5 -38q0 -24 15 -42.5t39.5 -33t52.5 -28.5z" />
    <glyph glyph-name="dieresis" unicode="&#xa8;" horiz-adv-x="600" 
d="M191 585q-26 0 -44.5 18.5t-18.5 43.5q0 26 18.5 44t44.5 18t44 -18t18 -44q0 -25 -18 -43.5t-44 -18.5zM381 585q-25 0 -43.5 18.5t-18.5 43.5q0 26 18.5 44t43.5 18q26 0 44.5 -18t18.5 -44q0 -25 -18.5 -43.5t-44.5 -18.5z" />
    <glyph glyph-name="copyright" unicode="&#xa9;" horiz-adv-x="804" 
d="M403 -12q-75 0 -140 28t-114 78t-77 116t-28 141t28 140.5t77 115t114 77.5t140 28q74 0 139 -28t114 -78t77 -115t28 -140t-28 -141t-77 -116t-114 -78t-139 -28zM402 131q-85 0 -134 57.5t-49 162.5q0 104 50.5 161t140.5 57q35 0 68.5 -8.5t56 -25t22.5 -42.5
q0 -19 -18.5 -37t-54.5 -17q-4 52 -22.5 76t-50.5 24q-48 0 -70 -47t-22 -141t21 -141t67 -47q35 0 56.5 25.5t28.5 79.5q27 5 51 -7t24 -41q0 -31 -24.5 -50.5t-62.5 -29t-78 -9.5zM402 39q63 0 118.5 24t97.5 67t66 99.5t24 121.5t-24 121t-66 99t-97.5 67t-118.5 24
q-64 0 -119.5 -24t-97.5 -67t-65.5 -99t-23.5 -121t23.5 -122t65.5 -99.5t97.5 -66.5t119.5 -24z" />
    <glyph glyph-name="ordfeminine" unicode="&#xaa;" horiz-adv-x="409" 
d="M335 365q-19 0 -38.5 9t-33 25.5t-15 40t14.5 51.5l7 27l1 -21q-6 -34 -25 -64.5t-50.5 -49.5t-75.5 -19q-40 0 -67.5 19t-27.5 58q0 35 19.5 57.5t49 36t57.5 20.5q29 7 53 10t44 4v17q0 50 -12 75t-44 25q-13 0 -22.5 -5t-15 -14.5t-5.5 -25.5q0 -13 4.5 -26.5
t18.5 -22.5q-9 -8 -23.5 -12.5t-30.5 -4.5q-36 0 -56 17.5t-20 44.5q0 40 42.5 61.5t113.5 21.5q82 0 119 -31.5t37 -110.5v-98q0 -34 24 -34q3 0 9 1t8 4q6 -7 8 -16t2 -16q0 -22 -18 -38t-52 -16zM174 435q17 3 35 15.5t30 34t11 51.5q-20 -1 -39.5 -3t-36.5 -11
q-16 -8 -26 -21.5t-10 -30.5q0 -14 8.5 -25.5t27.5 -9.5z" />
    <glyph glyph-name="guillemotleft" unicode="&#xab;" horiz-adv-x="744" 
d="M703 441l-265 -198v-5l264 -187l-34 -47l-365 195q-2 5 -3 22t0 34.5t3 21.5l366 214zM421 441l-265 -198v-5l264 -187l-34 -47l-365 195q-2 5 -3 22t0 34.5t3 21.5l366 214z" />
    <glyph glyph-name="logicalnot" unicode="&#xac;" horiz-adv-x="530" 
d="M58 328q-13 36 0 72h400v-72h-400zM391 230v165h67v-165q-33 -14 -67 0z" />
    <glyph glyph-name="uni00AD" unicode="&#xad;" horiz-adv-x="399" 
d="M35 298h328v-79h-328v79z" />
    <glyph glyph-name="registered" unicode="&#xae;" horiz-adv-x="804" 
d="M403 -12q-75 0 -140 28t-114 78t-77 116t-28 141t28 140.5t77 115t114 77.5t140 28q74 0 139 -28t114 -78t77 -115t28 -140t-28 -141t-77 -116t-114 -78t-139 -28zM402 39q63 0 118.5 24t97.5 67t66 99.5t24 121.5q0 64 -24 120.5t-66 99t-97.5 67t-118.5 24.5
q-64 0 -119.5 -24t-97.5 -67t-65.5 -99t-23.5 -121t23.5 -122t65.5 -99.5t97.5 -66.5t119.5 -24zM302 126q-21 0 -36 12.5t-15 34.5v293q0 11 -0.5 24.5t-3.5 28.5t-9 30q21 10 51 15t74 5q95 0 144.5 -25t49.5 -86q0 -58 -46 -91t-119 -31l12 12q50 2 74 -12.5t37 -40.5
l27 -51q13 -23 21 -33.5t18 -11.5q5 -1 8 0t8 3q5 -15 5 -24q0 -22 -16 -36.5t-42 -14.5t-42.5 14.5t-28 37.5t-22.5 48l-17 40q-9 21 -18.5 33t-22 17.5t-29.5 5.5l-31 1l-8 34q11 -2 21 -3t22 0q30 2 50 15t30.5 34.5t10.5 47.5q0 32 -18.5 58.5t-70.5 27.5h-14.5h-12.5
v-313q0 -18 2 -38t10 -40q-5 -5 -19 -13t-34 -8z" />
    <glyph glyph-name="macron" unicode="&#xaf;" horiz-adv-x="600" 
d="M123 662h284q9 -31 0 -61h-284q-9 30 0 61z" />
    <glyph glyph-name="degree" unicode="&#xb0;" horiz-adv-x="378" 
d="M190 450q-38 0 -69 18t-49.5 48t-18.5 66t18.5 65.5t49.5 47t69 17.5t68.5 -17.5t49 -47t18.5 -65.5t-18.5 -66t-49 -48t-68.5 -18zM190 514q25 0 43.5 20t18.5 48t-18.5 47t-44.5 19q-25 0 -43.5 -19t-18.5 -47t18.5 -48t44.5 -20z" />
    <glyph glyph-name="plusminus" unicode="&#xb1;" horiz-adv-x="577" 
d="M89 426h399q14 -36 0 -72h-399q-13 36 0 72zM324 539v-299q-36 -13 -72 0v299q36 14 72 0zM89 189h399q14 -36 0 -72h-399q-13 36 0 72z" />
    <glyph glyph-name="uni00B2" unicode="&#xb2;" horiz-adv-x="429" 
d="M44 228q-8 9 -13.5 25.5t0.5 36.5q6 3 32 19.5t60 44.5t67 65.5t55 84t22 98.5q0 27 -14.5 51t-50.5 24q-32 0 -48 -22.5t-21 -55.5t-6 -64q-38 0 -58.5 13.5t-27.5 32t-7 32.5q0 30 22 52.5t61.5 34.5t93.5 12q51 0 91 -13.5t63 -40.5t23 -69q0 -52 -24.5 -99t-62 -85
t-77.5 -65t-72.5 -41t-45.5 -13q25 1 66 8t84.5 17.5t78.5 23.5t49 26q11 -9 16 -30t4.5 -44.5t-7 -41t-20.5 -17.5h-333z" />
    <glyph glyph-name="uni00B3" unicode="&#xb3;" horiz-adv-x="435" 
d="M203 220q-58 0 -94 8t-54.5 20.5t-25 25.5t-6.5 23q0 12 6 27t23.5 26.5t51.5 11.5q1 -12 3.5 -30.5t11 -36t27 -29.5t50.5 -12q38 0 63 26.5t25 69.5q0 41 -24.5 64.5t-62.5 33.5t-81 9v38q57 4 89.5 22.5t45.5 43.5t13 46q0 34 -13 52t-47 18q-30 0 -46 -15.5
t-21.5 -39.5t-5.5 -50q-38 -1 -56 9.5t-22.5 24t-4.5 19.5q0 28 18.5 47.5t55.5 29.5t90 10q27 0 57.5 -4.5t57.5 -16.5t44.5 -34.5t17.5 -58.5q0 -41 -37.5 -74t-90.5 -47q63 -9 106 -35.5t43 -79.5q0 -64 -56.5 -103t-150.5 -39z" />
    <glyph glyph-name="acute" unicode="&#xb4;" horiz-adv-x="600" 
d="M409 714l-162 -143q-12 1 -27 3t-21 6l90 160q16 3 42.5 -2t49.5 -12t28 -12z" />
    <glyph glyph-name="uni00B5" unicode="&#xb5;" horiz-adv-x="590" 
d="M229 -15q-80 0 -119 46t-39 155v184q0 23 -3.5 60t-16.5 71q14 11 33 20.5t46 9.5q34 0 56.5 -18.5t22.5 -52.5v-252q0 -52 5.5 -88t20 -54t41.5 -18q23 0 41 14.5t31.5 44t20.5 73.5t7 102q0 48 -0.5 81t-2.5 56.5t-6.5 42.5t-13.5 40q9 8 29.5 18.5t49.5 10.5
q33 0 56 -20.5t23 -57.5l1 -313q0 -28 6.5 -40t19.5 -12q5 0 13 2t13 9q13 -20 13 -42q0 -31 -21 -51t-61 -20q-47 0 -75 32t-28 97v31l17 30q-8 -60 -29.5 -102.5t-58.5 -65.5t-92 -23zM150 -216q-34 0 -56.5 18.5t-22.5 51.5v478l119 -294v-59q1 -23 5 -51t12 -57.5
t22 -56.5q-9 -8 -29.5 -19t-49.5 -11z" />
    <glyph glyph-name="paragraph" unicode="&#xb6;" horiz-adv-x="805" 
d="M658 -195q-19 0 -39 11.5t-33 33.5t-13 52v507q0 74 -23 130.5t-67.5 88.5t-109.5 32q-53 0 -89 -17.5t-57.5 -46t-31 -63t-9.5 -67.5q0 -65 23.5 -105t63 -54t85.5 -2l-4 -55q-55 -10 -109 -1.5t-98 35.5t-70.5 72.5t-26.5 108.5q0 28 7 61t26 65.5t54.5 60t93 44
t142.5 16.5q158 0 247 -75.5t89 -219.5v-430q0 -33 5 -67t14 -57.5t22 -26.5q-9 -16 -37 -23.5t-55 -7.5zM399 -15q-32 0 -54.5 19t-22.5 52v343q0 29 -3.5 63t-16.5 68q9 8 29 19t48 11q30 0 50 -18.5t20 -52.5v-343q0 -28 3.5 -62.5t16.5 -67.5q-7 -8 -25.5 -19.5
t-44.5 -11.5z" />
    <glyph glyph-name="periodcentered" unicode="&#xb7;" horiz-adv-x="315" 
d="M158 221q-33 0 -55.5 22.5t-22.5 55.5q0 32 22.5 54.5t55.5 22.5q32 0 54.5 -22.5t22.5 -54.5q0 -33 -22.5 -55.5t-54.5 -22.5z" />
    <glyph glyph-name="cedilla" unicode="&#xb8;" horiz-adv-x="600" 
d="M307 17l-13 -74q51 1 82 -18.5t31 -56.5q0 -42 -32.5 -68.5t-93.5 -26.5q-45 0 -67.5 12t-32.5 23q-2 10 2.5 25t9.5 18q5 -4 18 -14t40 -10q20 0 30.5 11t10.5 30t-14.5 32.5t-45.5 9.5l20 107h55z" />
    <glyph glyph-name="uni00B9" unicode="&#xb9;" horiz-adv-x="361" 
d="M236 222q-25 0 -42.5 16t-17.5 44v304v13.5t-2 12.5q-12 -15 -30 -33t-36 -31t-33 -13q-19 0 -29 10.5t-14 25t-4 26.5v14q1 0 15 8.5t34 21.5t41 26t37 23t20 13q8 3 19.5 6t24.5 3q28 0 46.5 -16t18.5 -45v-303q0 -19 3 -45t13 -55q-7 -7 -23.5 -16.5t-40.5 -9.5z" />
    <glyph glyph-name="ordmasculine" unicode="&#xba;" horiz-adv-x="405" 
d="M202 360q-85 0 -131.5 47.5t-46.5 132.5t46.5 132.5t131.5 47.5q84 0 131 -47.5t47 -132.5t-47 -132.5t-131 -47.5zM203 394q34 0 50 36.5t16 110.5q0 73 -16 108.5t-50 35.5q-36 0 -51.5 -35.5t-15.5 -108.5q0 -74 15.5 -110.5t51.5 -36.5z" />
    <glyph glyph-name="guillemotright" unicode="&#xbb;" horiz-adv-x="744" 
d="M323 441l34 50l366 -214q2 -4 3 -21.5t0.5 -34.5t-3.5 -22l-365 -195l-34 47l264 187v5zM41 441l34 50l366 -214q2 -4 3 -21.5t0.5 -34.5t-3.5 -22l-365 -195l-34 47l264 187v5z" />
    <glyph glyph-name="onequarter" unicode="&#xbc;" horiz-adv-x="1062" 
d="M236 222q-25 0 -42.5 16t-17.5 44v304v13.5t-2 12.5q-12 -15 -30 -33t-36 -31t-33 -13q-19 0 -29 10.5t-14 25t-4 26.5v14q1 0 15 8.5t34 21.5t41 26t37 23t20 13q8 3 19.5 6t24.5 3q28 0 46.5 -16t18.5 -45v-303q0 -19 3 -45t13 -55q-7 -7 -23.5 -16.5t-40.5 -9.5z
M592 712q23 3 45.5 -2.5t36.5 -25.5l-320 -698q-21 -4 -41 1.5t-36 21.5zM970 115q0 -19 2.5 -45t12.5 -55q-6 -7 -22.5 -17t-40.5 -10q-25 0 -42.5 16.5t-17.5 45.5v336l-174 -218h214q34 0 68 3.5t68 13.5q8 -19 6 -40t-13 -42h-380q-22 2 -32 23.5t3 39.5l221 286
q8 10 26 18.5t36 8.5q28 0 46.5 -16t18.5 -45v-303z" />
    <glyph glyph-name="onehalf" unicode="&#xbd;" horiz-adv-x="1028" 
d="M236 222q-25 0 -42.5 16t-17.5 44v304v13.5t-2 12.5q-12 -15 -30 -33t-36 -31t-33 -13q-19 0 -29 10.5t-14 25t-4 26.5v14q1 0 15 8.5t34 21.5t41 26t37 23t20 13q8 3 19.5 6t24.5 3q28 0 46.5 -16t18.5 -45v-303q0 -19 3 -45t13 -55q-7 -7 -23.5 -16.5t-40.5 -9.5z
M592 712q23 3 45.5 -2.5t36.5 -25.5l-320 -698q-21 -4 -41 1.5t-36 21.5zM640 0q-8 8 -13.5 25t0.5 37q6 3 32 19.5t60 44t67 65.5t55 84t22 99q0 27 -14.5 51t-50.5 24q-32 0 -48 -22.5t-21 -55.5t-6 -64q-38 0 -58.5 13.5t-27.5 32t-7 32.5q0 30 22 52.5t61.5 34.5
t93.5 12q51 0 91 -13t63 -40.5t23 -69.5q0 -52 -24.5 -99t-62 -85t-77.5 -65t-72.5 -41t-45.5 -13q25 1 66 8t84.5 17.5t78.5 23.5t49 26q11 -9 16 -30t4.5 -44.5t-7 -41t-20.5 -17.5h-333z" />
    <glyph glyph-name="threequarters" unicode="&#xbe;" horiz-adv-x="1136" 
d="M203 220q-58 0 -94 8t-54.5 20.5t-25 25.5t-6.5 23q0 12 6 27t23.5 26.5t51.5 11.5q1 -12 3.5 -30.5t11 -36t27 -29.5t50.5 -12q38 0 63 26.5t25 69.5q0 41 -24.5 64.5t-62.5 33.5t-81 9v38q57 4 89.5 22.5t45.5 43.5t13 46q0 34 -13 52t-47 18q-30 0 -46 -15.5
t-21.5 -39.5t-5.5 -50q-38 -1 -56 9.5t-22.5 24t-4.5 19.5q0 28 18.5 47.5t55.5 29.5t90 10q27 0 57.5 -4.5t57.5 -16.5t44.5 -34.5t17.5 -58.5q0 -41 -37.5 -74t-90.5 -47q63 -9 106 -35.5t43 -79.5q0 -64 -56.5 -103t-150.5 -39zM666 712q23 3 45.5 -2.5t36.5 -25.5
l-320 -698q-21 -4 -41 1.5t-36 21.5zM1044 115q0 -19 2.5 -45t12.5 -55q-6 -7 -22.5 -17t-40.5 -10q-25 0 -42.5 16.5t-17.5 45.5v336l-174 -218h214q34 0 68 3.5t68 13.5q8 -19 6 -40t-13 -42h-380q-22 2 -32 23.5t3 39.5l221 286q8 10 26 18.5t36 8.5q28 0 46.5 -16
t18.5 -45v-303z" />
    <glyph glyph-name="questiondown" unicode="&#xbf;" horiz-adv-x="508" 
d="M360 320v-160q-37 -1 -69.5 -12.5t-57 -33.5t-38.5 -55t-14 -77q0 -38 12 -71.5t38 -54t67 -20.5q33 0 54 14.5t32 37.5t15.5 51t4.5 55q47 0 71 -10t33 -26t9 -35q0 -38 -27.5 -69t-79 -48.5t-122.5 -17.5q-53 0 -99 11t-81 34.5t-54.5 62t-19.5 93.5q0 59 22 100.5
t57 68t74 39.5t73 14v109h100zM318 535q33 0 55.5 -22.5t22.5 -54.5q0 -33 -22.5 -55.5t-55.5 -22.5q-32 0 -54.5 22.5t-22.5 55.5q0 32 22.5 54.5t54.5 22.5z" />
    <glyph glyph-name="Agrave" unicode="&#xc0;" horiz-adv-x="628" 
d="M363 713q25 0 46.5 -9t28.5 -36l174 -586q4 -13 12 -32t21 -33q-9 -10 -28 -20.5t-54 -10.5q-32 0 -55 13.5t-29 40.5l-162 620l14 -3l-144 -577q-3 -12 -5 -23.5t-2 -22.5q0 -12 3 -20t8 -13q-15 -6 -32.5 -10.5t-43.5 -4.5q-40 0 -59 13.5t-19 44.5q0 13 3.5 31.5
t10.5 39.5l194 579q58 19 118 19zM181 277h332v-74h-332v74zM183 827q6 15 19 32.5t29 32t28 19.5l145 -134q1 -4 -6.5 -15.5t-14.5 -14.5z" />
    <glyph glyph-name="Aacute" unicode="&#xc1;" horiz-adv-x="628" 
d="M363 713q25 0 46.5 -9t28.5 -36l174 -586q4 -13 12 -32t21 -33q-9 -10 -28 -20.5t-54 -10.5q-32 0 -55 13.5t-29 40.5l-162 620l14 -3l-144 -577q-3 -12 -5 -23.5t-2 -22.5q0 -12 3 -20t8 -13q-15 -6 -32.5 -10.5t-43.5 -4.5q-40 0 -59 13.5t-19 44.5q0 13 3.5 31.5
t10.5 39.5l194 579q58 19 118 19zM181 277h332v-74h-332v74zM495 827l-200 -80q-7 3 -14.5 14.5t-6.5 15.5l145 134q13 -5 28.5 -19.5t29 -32t18.5 -32.5z" />
    <glyph glyph-name="Acircumflex" unicode="&#xc2;" horiz-adv-x="628" 
d="M363 713q25 0 46.5 -9t28.5 -36l174 -586q4 -13 12 -32t21 -33q-9 -10 -28 -20.5t-54 -10.5q-32 0 -55 13.5t-29 40.5l-162 620l14 -3l-144 -577q-3 -12 -5 -23.5t-2 -22.5q0 -12 3 -20t8 -13q-15 -6 -32.5 -10.5t-43.5 -4.5q-40 0 -59 13.5t-19 44.5q0 13 3.5 31.5
t10.5 39.5l194 579q58 19 118 19zM181 277h332v-74h-332v74zM370 901l139 -134q0 -4 -8.5 -15t-15.5 -14l-149 79l-150 -79q-6 3 -14.5 14t-9.5 15l139 134q6 3 20.5 4t28.5 0.5t20 -4.5z" />
    <glyph glyph-name="Atilde" unicode="&#xc3;" horiz-adv-x="628" 
d="M363 713q25 0 46.5 -9t28.5 -36l174 -586q4 -13 12 -32t21 -33q-9 -10 -28 -20.5t-54 -10.5q-32 0 -55 13.5t-29 40.5l-162 620l14 -3l-144 -577q-3 -12 -5 -23.5t-2 -22.5q0 -12 3 -20t8 -13q-15 -6 -32.5 -10.5t-43.5 -4.5q-40 0 -59 13.5t-19 44.5q0 13 3.5 31.5
t10.5 39.5l194 579q58 19 118 19zM181 277h332v-74h-332v74zM501 873q-7 -49 -30.5 -80.5t-63.5 -31.5q-25 0 -47.5 11t-44.5 22t-46 11q-29 0 -42.5 -11t-21.5 -25q-6 -1 -15 1.5t-15 7.5q5 64 35.5 87.5t64.5 23.5q26 0 48.5 -11t45.5 -22t48 -11q26 0 37 11.5t18 24.5
q10 0 16.5 -1.5t12.5 -6.5z" />
    <glyph glyph-name="Adieresis" unicode="&#xc4;" horiz-adv-x="628" 
d="M363 713q25 0 46.5 -9t28.5 -36l174 -586q4 -13 12 -32t21 -33q-9 -10 -28 -20.5t-54 -10.5q-32 0 -55 13.5t-29 40.5l-162 620l14 -3l-144 -577q-3 -12 -5 -23.5t-2 -22.5q0 -12 3 -20t8 -13q-15 -6 -32.5 -10.5t-43.5 -4.5q-40 0 -59 13.5t-19 44.5q0 13 3.5 31.5
t10.5 39.5l194 579q58 19 118 19zM181 277h332v-74h-332v74zM233 756q-30 0 -50.5 20.5t-20.5 50.5q0 29 20.5 50t50.5 21q29 0 50 -21t21 -50q0 -30 -21 -50.5t-50 -20.5zM448 756q-30 0 -50.5 20.5t-20.5 50.5q0 29 20.5 50t50.5 21q29 0 50 -21t21 -50q0 -30 -21 -50.5
t-50 -20.5z" />
    <glyph glyph-name="Aring" unicode="&#xc5;" horiz-adv-x="628" 
d="M363 713q25 0 46.5 -9t28.5 -36l174 -586q4 -13 12 -32t21 -33q-9 -10 -28 -20.5t-54 -10.5q-32 0 -55 13.5t-29 40.5l-162 620l14 -3l-144 -577q-3 -12 -5 -23.5t-2 -22.5q0 -12 3 -20t8 -13q-15 -6 -32.5 -10.5t-43.5 -4.5q-40 0 -59 13.5t-19 44.5q0 13 3.5 31.5
t10.5 39.5l194 579q58 19 118 19zM181 277h332v-74h-332v74zM344 921q44 0 71.5 -24t27.5 -63q-1 -41 -29 -65.5t-74 -24.5q-44 0 -71.5 23.5t-27.5 62.5q0 41 28.5 66t74.5 25zM342 884q-17 0 -26.5 -13t-9.5 -39q0 -25 9.5 -38.5t26.5 -13.5q18 0 27 13.5t9 38.5
q0 26 -9 39t-27 13z" />
    <glyph glyph-name="AE" unicode="&#xc6;" horiz-adv-x="875" 
d="M120 -14q-40 0 -61.5 18t-21.5 49q0 25 19 62l292 560q22 7 57 12t71 8t62 3h282q14 0 19 -16t2 -38.5t-12.5 -42t-23.5 -25.5q-51 24 -114 39t-127 17v-566q45 2 96.5 11t97.5 22t72 26q13 -8 19.5 -28t6.5 -42.5t-8.5 -38.5t-25.5 -16h-318q-34 0 -56.5 18.5
t-22.5 52.5l-1 462q0 16 -0.5 33.5t-4.5 36.5l-227 -523q-5 -12 -6 -23.5t-1 -22.5q0 -12 3 -20t7 -13q-15 -6 -32 -10.5t-43 -4.5zM230 203v74h229v-74h-229zM538 324v74h237q5 -19 4.5 -38.5t-4.5 -35.5h-237z" />
    <glyph glyph-name="Ccedilla" unicode="&#xc7;" horiz-adv-x="619" 
d="M584 129q0 -36 -22 -63t-59 -44.5t-82 -26.5t-91 -9q-133 0 -208 95t-75 268t77.5 268t215.5 95q41 0 81 -8t73 -23t53 -37.5t20 -52.5t-28 -55.5t-84 -24.5q-7 80 -35.5 117t-77.5 37q-73 0 -107 -79t-34 -237t33 -237t104 -79q35 0 61.5 18t43.5 55t24 93
q28 4 54.5 -2.5t44.5 -23t18 -44.5zM343 17l-13 -74q51 1 82 -18.5t31 -56.5q0 -42 -32.5 -68.5t-93.5 -26.5q-45 0 -67.5 12t-32.5 23q-2 10 2.5 25t9.5 18q5 -4 18 -14t40 -10q20 0 30.5 11t10.5 30t-14.5 32.5t-45.5 9.5l20 107h55z" />
    <glyph glyph-name="Egrave" unicode="&#xc8;" horiz-adv-x="554" 
d="M163 0q-34 0 -57 18.5t-23 52.5v462q0 29 -3.5 62.5t-16.5 67.5q26 23 53 29t74 6h289q14 0 19 -16t2 -38.5t-12.5 -42t-23.5 -25.5q-52 24 -114.5 39t-127.5 17l1 -566q44 2 96 11t98 22t72 26q13 -8 19.5 -28t6.5 -42.5t-8.5 -38.5t-25.5 -16h-318zM197 324v74h237
q5 -19 4.5 -38.5t-4.5 -35.5h-237zM123 827q6 15 19 32.5t29 32t28 19.5l145 -134q1 -4 -6.5 -15.5t-14.5 -14.5z" />
    <glyph glyph-name="Eacute" unicode="&#xc9;" horiz-adv-x="554" 
d="M163 0q-34 0 -57 18.5t-23 52.5v462q0 29 -3.5 62.5t-16.5 67.5q26 23 53 29t74 6h289q14 0 19 -16t2 -38.5t-12.5 -42t-23.5 -25.5q-52 24 -114.5 39t-127.5 17l1 -566q44 2 96 11t98 22t72 26q13 -8 19.5 -28t6.5 -42.5t-8.5 -38.5t-25.5 -16h-318zM197 324v74h237
q5 -19 4.5 -38.5t-4.5 -35.5h-237zM435 827l-200 -80q-7 3 -14.5 14.5t-6.5 15.5l145 134q13 -5 28.5 -19.5t29 -32t18.5 -32.5z" />
    <glyph glyph-name="Ecircumflex" unicode="&#xca;" horiz-adv-x="554" 
d="M163 0q-34 0 -57 18.5t-23 52.5v462q0 29 -3.5 62.5t-16.5 67.5q26 23 53 29t74 6h289q14 0 19 -16t2 -38.5t-12.5 -42t-23.5 -25.5q-52 24 -114.5 39t-127.5 17l1 -566q44 2 96 11t98 22t72 26q13 -8 19.5 -28t6.5 -42.5t-8.5 -38.5t-25.5 -16h-318zM197 324v74h237
q5 -19 4.5 -38.5t-4.5 -35.5h-237zM310 901l139 -134q0 -4 -8.5 -15t-15.5 -14l-149 79l-150 -79q-6 3 -14.5 14t-9.5 15l139 134q6 3 20.5 4t28.5 0.5t20 -4.5z" />
    <glyph glyph-name="Edieresis" unicode="&#xcb;" horiz-adv-x="554" 
d="M163 0q-34 0 -57 18.5t-23 52.5v462q0 29 -3.5 62.5t-16.5 67.5q26 23 53 29t74 6h289q14 0 19 -16t2 -38.5t-12.5 -42t-23.5 -25.5q-52 24 -114.5 39t-127.5 17l1 -566q44 2 96 11t98 22t72 26q13 -8 19.5 -28t6.5 -42.5t-8.5 -38.5t-25.5 -16h-318zM197 324v74h237
q5 -19 4.5 -38.5t-4.5 -35.5h-237zM173 756q-30 0 -50.5 20.5t-20.5 50.5q0 29 20.5 50t50.5 21q29 0 50 -21t21 -50q0 -30 -21 -50.5t-50 -20.5zM388 756q-30 0 -50.5 20.5t-20.5 50.5q0 29 20.5 50t50.5 21q29 0 50 -21t21 -50q0 -30 -21 -50.5t-50 -20.5z" />
    <glyph glyph-name="Igrave" unicode="&#xcc;" horiz-adv-x="306" 
d="M163 -15q-34 0 -57 19t-23 52v495q0 29 -3.5 62.5t-16.5 67.5q9 8 30 19t50 11q34 0 57 -18.5t23 -51.5v-495q0 -28 3.5 -62.5t16.5 -67.5q-9 -8 -30 -19.5t-50 -11.5zM-18 827q6 15 19 32.5t29 32t28 19.5l145 -134q1 -4 -6.5 -15.5t-14.5 -14.5z" />
    <glyph glyph-name="Iacute" unicode="&#xcd;" horiz-adv-x="306" 
d="M163 -15q-34 0 -57 19t-23 52v495q0 29 -3.5 62.5t-16.5 67.5q9 8 30 19t50 11q34 0 57 -18.5t23 -51.5v-495q0 -28 3.5 -62.5t16.5 -67.5q-9 -8 -30 -19.5t-50 -11.5zM294 827l-200 -80q-7 3 -14.5 14.5t-6.5 15.5l145 134q13 -5 28.5 -19.5t29 -32t18.5 -32.5z" />
    <glyph glyph-name="Icircumflex" unicode="&#xce;" horiz-adv-x="306" 
d="M163 -15q-34 0 -57 19t-23 52v495q0 29 -3.5 62.5t-16.5 67.5q9 8 30 19t50 11q34 0 57 -18.5t23 -51.5v-495q0 -28 3.5 -62.5t16.5 -67.5q-9 -8 -30 -19.5t-50 -11.5zM169 901l139 -134q0 -4 -8.5 -15t-15.5 -14l-149 79l-150 -79q-6 3 -14.5 14t-9.5 15l139 134
q6 3 20.5 4t28.5 0.5t20 -4.5z" />
    <glyph glyph-name="Idieresis" unicode="&#xcf;" horiz-adv-x="306" 
d="M163 -15q-34 0 -57 19t-23 52v495q0 29 -3.5 62.5t-16.5 67.5q9 8 30 19t50 11q34 0 57 -18.5t23 -51.5v-495q0 -28 3.5 -62.5t16.5 -67.5q-9 -8 -30 -19.5t-50 -11.5zM32 756q-30 0 -50.5 20.5t-20.5 50.5q0 29 20.5 50t50.5 21q29 0 50 -21t21 -50q0 -30 -21 -50.5
t-50 -20.5zM247 756q-30 0 -50.5 20.5t-20.5 50.5q0 29 20.5 50t50.5 21q29 0 50 -21t21 -50q0 -30 -21 -50.5t-50 -20.5z" />
    <glyph glyph-name="Eth" unicode="&#xd0;" horiz-adv-x="658" 
d="M21 375h320q7 -25 0 -51h-320q-9 26 0 51zM159 0q-37 0 -59 19t-22 51l-1 481q0 29 -0.5 71.5t-13.5 76.5q28 4 67 6t81 2.5t76 0.5q153 0 236.5 -88t83.5 -261q0 -188 -82.5 -273.5t-229.5 -85.5h-136zM217 48h70q58 0 94.5 29t54 95t17.5 177q0 163 -40 237t-126 74
h-70v-612z" />
    <glyph glyph-name="Ntilde" unicode="&#xd1;" horiz-adv-x="699" 
d="M120 -15q-15 0 -30 5t-27 13q13 34 16.5 74.5t3.5 68.5v406q0 45 -1.5 78t-5.5 64q8 9 28.5 13t41 3.5t26.5 -6.5q36 -51 81 -109.5t91 -118.5t88 -116t73 -102.5t44 -78.5l-36 440q-4 39 13 64t53 27q14 1 29.5 -3t27.5 -12q-11 -31 -13.5 -69t-2.5 -62l-1 -421
q0 -45 1.5 -77t5.5 -63q-7 -8 -25 -12.5t-37.5 -4.5t-31.5 6q-59 69 -106.5 126.5t-84.5 105.5t-65.5 87.5t-50.5 73t-38 61t-28 51.5l30 -432q3 -36 -20 -58t-49 -22zM513 873q-7 -49 -30.5 -80.5t-63.5 -31.5q-25 0 -47.5 11t-44.5 22t-46 11q-29 0 -42.5 -11t-21.5 -25
q-6 -1 -15 1.5t-15 7.5q5 64 35.5 87.5t64.5 23.5q26 0 48.5 -11t45.5 -22t48 -11q26 0 37 11.5t18 24.5q10 0 16.5 -1.5t12.5 -6.5z" />
    <glyph glyph-name="Ograve" unicode="&#xd2;" horiz-adv-x="666" 
d="M333 -14q-141 0 -213.5 91t-72.5 272t72.5 272t213.5 91t213.5 -91t72.5 -272t-72.5 -272t-213.5 -91zM333 33q70 0 101 75t31 241t-31 241t-101 75q-69 0 -100.5 -75t-31.5 -241t31.5 -241t100.5 -75zM176 827q6 15 19 32.5t29 32t28 19.5l145 -134q1 -4 -6.5 -15.5
t-14.5 -14.5z" />
    <glyph glyph-name="Oacute" unicode="&#xd3;" horiz-adv-x="666" 
d="M333 -14q-141 0 -213.5 91t-72.5 272t72.5 272t213.5 91t213.5 -91t72.5 -272t-72.5 -272t-213.5 -91zM333 33q70 0 101 75t31 241t-31 241t-101 75q-69 0 -100.5 -75t-31.5 -241t31.5 -241t100.5 -75zM488 827l-200 -80q-7 3 -14.5 14.5t-6.5 15.5l145 134
q13 -5 28.5 -19.5t29 -32t18.5 -32.5z" />
    <glyph glyph-name="Ocircumflex" unicode="&#xd4;" horiz-adv-x="666" 
d="M333 -14q-141 0 -213.5 91t-72.5 272t72.5 272t213.5 91t213.5 -91t72.5 -272t-72.5 -272t-213.5 -91zM333 33q70 0 101 75t31 241t-31 241t-101 75q-69 0 -100.5 -75t-31.5 -241t31.5 -241t100.5 -75zM363 901l139 -134q0 -4 -8.5 -15t-15.5 -14l-149 79l-150 -79
q-6 3 -14.5 14t-9.5 15l139 134q6 3 20.5 4t28.5 0.5t20 -4.5z" />
    <glyph glyph-name="Otilde" unicode="&#xd5;" horiz-adv-x="666" 
d="M333 -14q-141 0 -213.5 91t-72.5 272t72.5 272t213.5 91t213.5 -91t72.5 -272t-72.5 -272t-213.5 -91zM333 33q70 0 101 75t31 241t-31 241t-101 75q-69 0 -100.5 -75t-31.5 -241t31.5 -241t100.5 -75zM494 873q-7 -49 -30.5 -80.5t-63.5 -31.5q-25 0 -47.5 11t-44.5 22
t-46 11q-29 0 -42.5 -11t-21.5 -25q-6 -1 -15 1.5t-15 7.5q5 64 35.5 87.5t64.5 23.5q26 0 48.5 -11t45.5 -22t48 -11q26 0 37 11.5t18 24.5q10 0 16.5 -1.5t12.5 -6.5z" />
    <glyph glyph-name="Odieresis" unicode="&#xd6;" horiz-adv-x="666" 
d="M333 -14q-141 0 -213.5 91t-72.5 272t72.5 272t213.5 91t213.5 -91t72.5 -272t-72.5 -272t-213.5 -91zM333 33q70 0 101 75t31 241t-31 241t-101 75q-69 0 -100.5 -75t-31.5 -241t31.5 -241t100.5 -75zM226 756q-30 0 -50.5 20.5t-20.5 50.5q0 29 20.5 50t50.5 21
q29 0 50 -21t21 -50q0 -30 -21 -50.5t-50 -20.5zM441 756q-30 0 -50.5 20.5t-20.5 50.5q0 29 20.5 50t50.5 21q29 0 50 -21t21 -50q0 -30 -21 -50.5t-50 -20.5z" />
    <glyph glyph-name="multiply" unicode="&#xd7;" horiz-adv-x="503" 
d="M122 527l310 -311q-15 -34 -50 -51l-311 311q17 35 51 51zM432 476l-311 -311q-35 17 -50 51l311 311q35 -17 50 -51z" />
    <glyph glyph-name="Oslash" unicode="&#xd8;" horiz-adv-x="662" 
d="M82 10l433 721q29 1 43 -25l-433 -721q-28 0 -43 25zM333 -14q-141 0 -213.5 91t-72.5 272t72.5 272t213.5 91t213.5 -91t72.5 -272t-72.5 -272t-213.5 -91zM333 33q70 0 101 75t31 241t-31 241t-101 75q-69 0 -100.5 -75t-31.5 -241t31.5 -241t100.5 -75z" />
    <glyph glyph-name="Ugrave" unicode="&#xd9;" horiz-adv-x="676" 
d="M603 641v-334q0 -160 -66 -240.5t-199 -80.5q-127 0 -192.5 77t-65.5 244v244q0 29 -3.5 62.5t-16.5 67.5q9 8 30 19t50 11q33 0 56 -18.5t23 -51.5v-341q0 -142 28.5 -204.5t90.5 -62.5q67 0 97 68.5t30 198.5v251q0 29 -3.5 62.5t-16.5 67.5q9 8 29.5 19t49.5 11
q33 0 56 -18.5t23 -51.5zM181 827q6 15 19 32.5t29 32t28 19.5l145 -134q1 -4 -6.5 -15.5t-14.5 -14.5z" />
    <glyph glyph-name="Uacute" unicode="&#xda;" horiz-adv-x="676" 
d="M603 641v-334q0 -160 -66 -240.5t-199 -80.5q-127 0 -192.5 77t-65.5 244v244q0 29 -3.5 62.5t-16.5 67.5q9 8 30 19t50 11q33 0 56 -18.5t23 -51.5v-341q0 -142 28.5 -204.5t90.5 -62.5q67 0 97 68.5t30 198.5v251q0 29 -3.5 62.5t-16.5 67.5q9 8 29.5 19t49.5 11
q33 0 56 -18.5t23 -51.5zM493 827l-200 -80q-7 3 -14.5 14.5t-6.5 15.5l145 134q13 -5 28.5 -19.5t29 -32t18.5 -32.5z" />
    <glyph glyph-name="Ucircumflex" unicode="&#xdb;" horiz-adv-x="676" 
d="M603 641v-334q0 -160 -66 -240.5t-199 -80.5q-127 0 -192.5 77t-65.5 244v244q0 29 -3.5 62.5t-16.5 67.5q9 8 30 19t50 11q33 0 56 -18.5t23 -51.5v-341q0 -142 28.5 -204.5t90.5 -62.5q67 0 97 68.5t30 198.5v251q0 29 -3.5 62.5t-16.5 67.5q9 8 29.5 19t49.5 11
q33 0 56 -18.5t23 -51.5zM368 901l139 -134q0 -4 -8.5 -15t-15.5 -14l-149 79l-150 -79q-6 3 -14.5 14t-9.5 15l139 134q6 3 20.5 4t28.5 0.5t20 -4.5z" />
    <glyph glyph-name="Udieresis" unicode="&#xdc;" horiz-adv-x="676" 
d="M603 641v-334q0 -160 -66 -240.5t-199 -80.5q-127 0 -192.5 77t-65.5 244v244q0 29 -3.5 62.5t-16.5 67.5q9 8 30 19t50 11q33 0 56 -18.5t23 -51.5v-341q0 -142 28.5 -204.5t90.5 -62.5q67 0 97 68.5t30 198.5v251q0 29 -3.5 62.5t-16.5 67.5q9 8 29.5 19t49.5 11
q33 0 56 -18.5t23 -51.5zM231 756q-30 0 -50.5 20.5t-20.5 50.5q0 29 20.5 50t50.5 21q29 0 50 -21t21 -50q0 -30 -21 -50.5t-50 -20.5zM446 756q-30 0 -50.5 20.5t-20.5 50.5q0 29 20.5 50t50.5 21q29 0 50 -21t21 -50q0 -30 -21 -50.5t-50 -20.5z" />
    <glyph glyph-name="Yacute" unicode="&#xdd;" horiz-adv-x="600" 
d="M288 230q-23 0 -38 12t-25 29.5t-19 32.5l-151 291q-7 13 -20 33t-31 37q10 11 36 27t63 16q42 0 61.5 -21.5t35.5 -56.5l148 -322l-56 -31l151 336q11 23 11 44q0 11 -4 20.5t-10 16.5q15 6 33 10t46 4q34 0 48.5 -18t15.5 -41q0 -17 -9.5 -40.5t-23.5 -44.5l-189 -315z
M369 310v-164q0 -28 3.5 -62.5t16.5 -67.5q-8 -8 -29 -19.5t-50 -11.5q-34 0 -57 19t-23 52v228zM476 827l-200 -80q-7 3 -14.5 14.5t-6.5 15.5l145 134q13 -5 28.5 -19.5t29 -32t18.5 -32.5z" />
    <glyph glyph-name="Thorn" unicode="&#xde;" horiz-adv-x="586" 
d="M246 140h-20t-21 1l-7 48q10 -1 19.5 -1.5t21.5 -0.5q62 0 97 23t49.5 63t14.5 92q0 50 -14 88t-46 59.5t-88 21.5q-4 0 -16.5 0.5t-24.5 1t-17 -0.5v47h16h22.5h16.5q146 0 225 -48t79 -159q0 -112 -80 -173.5t-227 -61.5zM163 -15q-34 0 -57 19t-23 52v495
q0 29 -3.5 62.5t-16.5 67.5q9 8 30 19t50 11q34 0 56.5 -18.5t22.5 -51.5l1 -495q0 -28 3.5 -62.5t16.5 -67.5q-9 -8 -30 -19.5t-50 -11.5z" />
    <glyph glyph-name="germandbls" unicode="&#xdf;" horiz-adv-x="617" 
d="M144 -11q-30 0 -54 20.5t-24 57.5l-1 332q-1 172 67 253t193 81q100 0 146.5 -43.5t46.5 -105.5q0 -33 -10.5 -58t-25.5 -44.5t-30.5 -36t-26 -32t-10.5 -32.5q0 -28 27 -46.5t60 -41.5q23 -15 44 -34.5t34.5 -45.5t13.5 -64q0 -41 -19.5 -78t-62.5 -60t-112 -23
q-51 0 -83.5 13.5t-48.5 37t-16 53.5q0 11 3.5 26.5t15 27.5t34.5 12q6 1 11 0.5t9 -1.5q-1 -8 -2 -17t-1 -17q0 -22 7.5 -39.5t22 -27t35.5 -9.5q32 0 48.5 21t16.5 50q0 25 -9.5 42t-25 29t-33.5 22q-26 16 -49.5 32t-38.5 40t-15 61q0 39 16 67t39 50t46 41t39 41t16 50
q0 23 -11.5 44.5t-35.5 36t-62 14.5q-48 0 -74 -22.5t-37 -60.5t-13.5 -83.5t-2.5 -92.5v-169t1 -106t3.5 -63t7 -38.5t12.5 -33.5q-8 -7 -31 -18.5t-50 -11.5z" />
    <glyph glyph-name="agrave" unicode="&#xe0;" horiz-adv-x="568" 
d="M467 -10q-52 0 -81.5 37.5t-29.5 133.5v38l24 -5q-10 -55 -38 -101.5t-72 -74.5t-104 -28q-57 0 -94.5 30t-37.5 88q0 48 26.5 81.5t67 54.5t81.5 33q40 11 75.5 15.5t63.5 5.5v25q0 81 -18 122t-65 41q-19 0 -34.5 -7.5t-24 -23.5t-8.5 -43q0 -20 7 -41t28 -33
q-12 -12 -31.5 -18t-41.5 -6q-49 0 -75.5 27t-26.5 66q0 60 58.5 92t156.5 32q112 0 164 -50t52 -167v-169q0 -53 33 -53q5 0 13.5 3t13.5 10q7 -10 10 -22t3 -21q0 -29 -25.5 -50.5t-69.5 -21.5zM238 79q19 2 39 15.5t37 37t27.5 54.5t10.5 68q-19 0 -39 -1.5t-38.5 -6.5
t-34.5 -14q-24 -13 -39.5 -36.5t-15.5 -53.5q0 -25 12.5 -45.5t40.5 -17.5zM112 714q6 5 28.5 12t49 12t42.5 2l90 -160q-6 -4 -21 -6t-27 -3z" />
    <glyph glyph-name="aacute" unicode="&#xe1;" horiz-adv-x="568" 
d="M467 -10q-52 0 -81.5 37.5t-29.5 133.5v38l24 -5q-10 -55 -38 -101.5t-72 -74.5t-104 -28q-57 0 -94.5 30t-37.5 88q0 48 26.5 81.5t67 54.5t81.5 33q40 11 75.5 15.5t63.5 5.5v25q0 81 -18 122t-65 41q-19 0 -34.5 -7.5t-24 -23.5t-8.5 -43q0 -20 7 -41t28 -33
q-12 -12 -31.5 -18t-41.5 -6q-49 0 -75.5 27t-26.5 66q0 60 58.5 92t156.5 32q112 0 164 -50t52 -167v-169q0 -53 33 -53q5 0 13.5 3t13.5 10q7 -10 10 -22t3 -21q0 -29 -25.5 -50.5t-69.5 -21.5zM238 79q19 2 39 15.5t37 37t27.5 54.5t10.5 68q-19 0 -39 -1.5t-38.5 -6.5
t-34.5 -14q-24 -13 -39.5 -36.5t-15.5 -53.5q0 -25 12.5 -45.5t40.5 -17.5zM444 714l-162 -143q-12 1 -27 3t-21 6l90 160q16 3 42.5 -2t49.5 -12t28 -12z" />
    <glyph glyph-name="acircumflex" unicode="&#xe2;" horiz-adv-x="568" 
d="M467 -10q-52 0 -81.5 37.5t-29.5 133.5v38l24 -5q-10 -55 -38 -101.5t-72 -74.5t-104 -28q-57 0 -94.5 30t-37.5 88q0 48 26.5 81.5t67 54.5t81.5 33q40 11 75.5 15.5t63.5 5.5v25q0 81 -18 122t-65 41q-19 0 -34.5 -7.5t-24 -23.5t-8.5 -43q0 -20 7 -41t28 -33
q-12 -12 -31.5 -18t-41.5 -6q-49 0 -75.5 27t-26.5 66q0 60 58.5 92t156.5 32q112 0 164 -50t52 -167v-169q0 -53 33 -53q5 0 13.5 3t13.5 10q7 -10 10 -22t3 -21q0 -29 -25.5 -50.5t-69.5 -21.5zM238 79q19 2 39 15.5t37 37t27.5 54.5t10.5 68q-19 0 -39 -1.5t-38.5 -6.5
t-34.5 -14q-24 -13 -39.5 -36.5t-15.5 -53.5q0 -25 12.5 -45.5t40.5 -17.5zM143 568q-8 0 -23 5.5t-16 9.5l131 160q6 3 20.5 4t28.5 0t20 -4l131 -160q-1 -4 -17 -9.5t-24 -5.5l-124 82z" />
    <glyph glyph-name="atilde" unicode="&#xe3;" horiz-adv-x="568" 
d="M467 -10q-52 0 -81.5 37.5t-29.5 133.5v38l24 -5q-10 -55 -38 -101.5t-72 -74.5t-104 -28q-57 0 -94.5 30t-37.5 88q0 48 26.5 81.5t67 54.5t81.5 33q40 11 75.5 15.5t63.5 5.5v25q0 81 -18 122t-65 41q-19 0 -34.5 -7.5t-24 -23.5t-8.5 -43q0 -20 7 -41t28 -33
q-12 -12 -31.5 -18t-41.5 -6q-49 0 -75.5 27t-26.5 66q0 60 58.5 92t156.5 32q112 0 164 -50t52 -167v-169q0 -53 33 -53q5 0 13.5 3t13.5 10q7 -10 10 -22t3 -21q0 -29 -25.5 -50.5t-69.5 -21.5zM238 79q19 2 39 15.5t37 37t27.5 54.5t10.5 68q-19 0 -39 -1.5t-38.5 -6.5
t-34.5 -14q-24 -13 -39.5 -36.5t-15.5 -53.5q0 -25 12.5 -45.5t40.5 -17.5zM422 685q-6 -46 -27.5 -76t-59.5 -30q-23 0 -43.5 11t-40.5 22t-42 11q-27 0 -40 -12.5t-21 -26.5q-5 -1 -13.5 2t-13.5 7q5 59 33.5 82t59.5 23q25 0 45.5 -11.5t41 -22.5t43.5 -11q25 0 35 12
t17 28q9 0 15 -1.5t11 -6.5z" />
    <glyph glyph-name="adieresis" unicode="&#xe4;" horiz-adv-x="568" 
d="M467 -10q-52 0 -81.5 37.5t-29.5 133.5v38l24 -5q-10 -55 -38 -101.5t-72 -74.5t-104 -28q-57 0 -94.5 30t-37.5 88q0 48 26.5 81.5t67 54.5t81.5 33q40 11 75.5 15.5t63.5 5.5v25q0 81 -18 122t-65 41q-19 0 -34.5 -7.5t-24 -23.5t-8.5 -43q0 -20 7 -41t28 -33
q-12 -12 -31.5 -18t-41.5 -6q-49 0 -75.5 27t-26.5 66q0 60 58.5 92t156.5 32q112 0 164 -50t52 -167v-169q0 -53 33 -53q5 0 13.5 3t13.5 10q7 -10 10 -22t3 -21q0 -29 -25.5 -50.5t-69.5 -21.5zM238 79q19 2 39 15.5t37 37t27.5 54.5t10.5 68q-19 0 -39 -1.5t-38.5 -6.5
t-34.5 -14q-24 -13 -39.5 -36.5t-15.5 -53.5q0 -25 12.5 -45.5t40.5 -17.5zM180 585q-26 0 -44.5 18.5t-18.5 43.5q0 26 18.5 44t44.5 18t44 -18t18 -44q0 -25 -18 -43.5t-44 -18.5zM370 585q-25 0 -43.5 18.5t-18.5 43.5q0 26 18.5 44t43.5 18q26 0 44.5 -18t18.5 -44
q0 -25 -18.5 -43.5t-44.5 -18.5z" />
    <glyph glyph-name="aring" unicode="&#xe5;" horiz-adv-x="568" 
d="M467 -10q-52 0 -81.5 37.5t-29.5 133.5v38l24 -5q-10 -55 -38 -101.5t-72 -74.5t-104 -28q-57 0 -94.5 30t-37.5 88q0 48 26.5 81.5t67 54.5t81.5 33q40 11 75.5 15.5t63.5 5.5v25q0 81 -18 122t-65 41q-19 0 -34.5 -7.5t-24 -23.5t-8.5 -43q0 -20 7 -41t28 -33
q-12 -12 -31.5 -18t-41.5 -6q-49 0 -75.5 27t-26.5 66q0 60 58.5 92t156.5 32q112 0 164 -50t52 -167v-169q0 -53 33 -53q5 0 13.5 3t13.5 10q7 -10 10 -22t3 -21q0 -29 -25.5 -50.5t-69.5 -21.5zM238 79q19 2 39 15.5t37 37t27.5 54.5t10.5 68q-19 0 -39 -1.5t-38.5 -6.5
t-34.5 -14q-24 -13 -39.5 -36.5t-15.5 -53.5q0 -25 12.5 -45.5t40.5 -17.5zM278 739q44 0 71.5 -24t27.5 -63q-1 -41 -29 -65.5t-74 -24.5q-44 0 -71.5 23.5t-27.5 62.5q0 41 28.5 66t74.5 25zM276 702q-17 0 -26.5 -13t-9.5 -39q0 -25 9.5 -38.5t26.5 -13.5q18 0 27 13.5
t9 38.5q0 26 -9 39t-27 13z" />
    <glyph glyph-name="ae" unicode="&#xe6;" horiz-adv-x="849" 
d="M166 -10q-57 0 -94.5 30t-37.5 88q0 48 26.5 81.5t67 54.5t81.5 33q40 11 76 15.5t67 5.5v25q0 81 -18 122t-65 41q-21 0 -37 -7.5t-25 -23.5t-9 -43q0 -20 7 -41t28 -33q-12 -12 -31.5 -18t-41.5 -6q-49 0 -75.5 27t-26.5 66q0 60 59 92t160 32q59 0 99 -19.5t65 -56.5
l-21 1q32 37 80.5 56t111.5 19q58 0 104.5 -17t74 -50.5t27.5 -84.5q0 -74 -60 -113.5t-155 -39.5q-23 0 -47.5 0.5t-50.5 3.5q5 -59 23.5 -94t49.5 -50t72 -15q56 0 91.5 22t51.5 53q11 -4 15.5 -17t-6.5 -41q-19 -49 -69.5 -75.5t-121.5 -26.5q-94 0 -158 47t-86 135
l11 -1q-15 -49 -44 -89t-71 -64t-97 -24zM238 79q19 2 39.5 15.5t38.5 37t29 54.5t11 68v12t-1 12l20 -24q-24 1 -48.5 -0.5t-46.5 -6t-40 -15.5q-24 -13 -39.5 -36.5t-15.5 -53.5q0 -25 12.5 -45.5t40.5 -17.5zM522 276q22 0 47.5 3t48.5 15.5t37.5 38t14.5 69.5
q0 34 -9 51.5t-23.5 24.5t-30.5 7q-49 0 -76.5 -55t-27.5 -153q5 -1 9.5 -1h9.5z" />
    <glyph glyph-name="ccedilla" unicode="&#xe7;" horiz-adv-x="513" 
d="M288 -14q-122 0 -188 71.5t-66 202.5q0 126 66.5 198.5t190.5 72.5q95 0 140 -38t45 -90q0 -41 -26.5 -65t-67.5 -24q-20 0 -40 6t-31 18q14 14 21 32.5t7 44.5t-7.5 41.5t-20.5 22t-31 6.5q-46 0 -72.5 -53t-26.5 -150q0 -74 17.5 -120.5t51 -68.5t80.5 -22
q36 0 63.5 12t45.5 32.5t25 45.5q11 -4 15.5 -18.5t-2.5 -43.5q-14 -53 -65 -83t-124 -30zM309 17l-13 -74q51 1 82 -18.5t31 -56.5q0 -42 -32.5 -68.5t-93.5 -26.5q-45 0 -67.5 12t-32.5 23q-2 10 2.5 25t9.5 18q5 -4 18 -14t40 -10q20 0 30.5 11t10.5 30t-14.5 32.5
t-45.5 9.5l20 107h55z" />
    <glyph glyph-name="egrave" unicode="&#xe8;" horiz-adv-x="527" 
d="M289 -14q-116 0 -185.5 71.5t-69.5 202.5q0 126 66 198.5t190 72.5q58 0 104.5 -17t74 -50.5t27.5 -84.5q0 -74 -60 -113.5t-155 -39.5q-40 0 -85.5 2.5t-98.5 15.5l4 41q21 -2 43.5 -5t55.5 -4q22 0 47.5 3t48.5 15.5t37.5 38t14.5 69.5q0 34 -9 51.5t-23.5 24.5
t-30.5 7q-49 0 -76.5 -55t-27.5 -152q0 -77 17 -122.5t50 -65t80 -19.5q56 0 91.5 22t51.5 53q11 -4 15.5 -17t-6.5 -41q-19 -49 -69.5 -75.5t-121.5 -26.5zM110 714q6 5 28.5 12t49 12t42.5 2l90 -160q-6 -4 -21 -6t-27 -3z" />
    <glyph glyph-name="eacute" unicode="&#xe9;" horiz-adv-x="527" 
d="M289 -14q-116 0 -185.5 71.5t-69.5 202.5q0 126 66 198.5t190 72.5q58 0 104.5 -17t74 -50.5t27.5 -84.5q0 -74 -60 -113.5t-155 -39.5q-40 0 -85.5 2.5t-98.5 15.5l4 41q21 -2 43.5 -5t55.5 -4q22 0 47.5 3t48.5 15.5t37.5 38t14.5 69.5q0 34 -9 51.5t-23.5 24.5
t-30.5 7q-49 0 -76.5 -55t-27.5 -152q0 -77 17 -122.5t50 -65t80 -19.5q56 0 91.5 22t51.5 53q11 -4 15.5 -17t-6.5 -41q-19 -49 -69.5 -75.5t-121.5 -26.5zM442 714l-162 -143q-12 1 -27 3t-21 6l90 160q16 3 42.5 -2t49.5 -12t28 -12z" />
    <glyph glyph-name="ecircumflex" unicode="&#xea;" horiz-adv-x="527" 
d="M289 -14q-116 0 -185.5 71.5t-69.5 202.5q0 126 66 198.5t190 72.5q58 0 104.5 -17t74 -50.5t27.5 -84.5q0 -74 -60 -113.5t-155 -39.5q-40 0 -85.5 2.5t-98.5 15.5l4 41q21 -2 43.5 -5t55.5 -4q22 0 47.5 3t48.5 15.5t37.5 38t14.5 69.5q0 34 -9 51.5t-23.5 24.5
t-30.5 7q-49 0 -76.5 -55t-27.5 -152q0 -77 17 -122.5t50 -65t80 -19.5q56 0 91.5 22t51.5 53q11 -4 15.5 -17t-6.5 -41q-19 -49 -69.5 -75.5t-121.5 -26.5zM141 568q-8 0 -23 5.5t-16 9.5l131 160q6 3 20.5 4t28.5 0t20 -4l131 -160q-1 -4 -17 -9.5t-24 -5.5l-124 82z" />
    <glyph glyph-name="edieresis" unicode="&#xeb;" horiz-adv-x="527" 
d="M289 -14q-116 0 -185.5 71.5t-69.5 202.5q0 126 66 198.5t190 72.5q58 0 104.5 -17t74 -50.5t27.5 -84.5q0 -74 -60 -113.5t-155 -39.5q-40 0 -85.5 2.5t-98.5 15.5l4 41q21 -2 43.5 -5t55.5 -4q22 0 47.5 3t48.5 15.5t37.5 38t14.5 69.5q0 34 -9 51.5t-23.5 24.5
t-30.5 7q-49 0 -76.5 -55t-27.5 -152q0 -77 17 -122.5t50 -65t80 -19.5q56 0 91.5 22t51.5 53q11 -4 15.5 -17t-6.5 -41q-19 -49 -69.5 -75.5t-121.5 -26.5zM178 585q-26 0 -44.5 18.5t-18.5 43.5q0 26 18.5 44t44.5 18t44 -18t18 -44q0 -25 -18 -43.5t-44 -18.5zM368 585
q-25 0 -43.5 18.5t-18.5 43.5q0 26 18.5 44t43.5 18q26 0 44.5 -18t18.5 -44q0 -25 -18.5 -43.5t-44.5 -18.5z" />
    <glyph glyph-name="igrave" unicode="&#xec;" horiz-adv-x="274" 
d="M209 146q0 -28 3.5 -62.5t16.5 -67.5q-9 -8 -29.5 -19.5t-49.5 -11.5q-32 0 -54.5 19t-22.5 52v315q0 29 -3.5 63t-16.5 68q9 8 29 19t48 11q34 0 56 -18.5t22 -52.5zM-33 714q6 5 28.5 12t49 12t42.5 2l90 -160q-6 -4 -21 -6t-27 -3z" />
    <glyph glyph-name="iacute" unicode="&#xed;" horiz-adv-x="274" 
d="M209 146q0 -28 3.5 -62.5t16.5 -67.5q-9 -8 -29.5 -19.5t-49.5 -11.5q-32 0 -54.5 19t-22.5 52v315q0 29 -3.5 63t-16.5 68q9 8 29 19t48 11q34 0 56 -18.5t22 -52.5zM299 714l-162 -143q-12 1 -27 3t-21 6l90 160q16 3 42.5 -2t49.5 -12t28 -12z" />
    <glyph glyph-name="icircumflex" unicode="&#xee;" horiz-adv-x="274" 
d="M209 146q0 -28 3.5 -62.5t16.5 -67.5q-9 -8 -29.5 -19.5t-49.5 -11.5q-32 0 -54.5 19t-22.5 52v315q0 29 -3.5 63t-16.5 68q9 8 29 19t48 11q34 0 56 -18.5t22 -52.5zM-2 568q-8 0 -23 5.5t-16 9.5l131 160q6 3 20.5 4t28.5 0t20 -4l131 -160q-1 -4 -17 -9.5t-24 -5.5
l-124 82z" />
    <glyph glyph-name="idieresis" unicode="&#xef;" horiz-adv-x="274" 
d="M209 146q0 -28 3.5 -62.5t16.5 -67.5q-9 -8 -29.5 -19.5t-49.5 -11.5q-32 0 -54.5 19t-22.5 52v315q0 29 -3.5 63t-16.5 68q9 8 29 19t48 11q34 0 56 -18.5t22 -52.5zM35 585q-26 0 -44.5 18.5t-18.5 43.5q0 26 18.5 44t44.5 18t44 -18t18 -44q0 -25 -18 -43.5t-44 -18.5
zM225 585q-25 0 -43.5 18.5t-18.5 43.5q0 26 18.5 44t43.5 18q26 0 44.5 -18t18.5 -44q0 -25 -18.5 -43.5t-44.5 -18.5z" />
    <glyph glyph-name="eth" unicode="&#xf0;" horiz-adv-x="549" 
d="M263 -14q-66 0 -110.5 19t-70.5 53t-37 81t-11 103q0 80 25 139t73 92t115 33q42 0 71.5 -11.5t48 -30t26.5 -39.5l-21 21q-2 43 -23 80t-53 64.5t-67.5 42.5t-65.5 15q-7 0 -12.5 -0.5t-9.5 -1.5q3 20 10.5 40.5t26 34t54.5 13.5q68 0 120.5 -34.5t89 -95t55 -140
t18.5 -170.5q0 -87 -27.5 -157t-83.5 -110.5t-141 -40.5zM270 60q34 0 55 21.5t31 69.5t10 126q0 35 -3.5 64.5t-13 51t-25.5 33.5t-42 12q-37 0 -59.5 -25t-32 -68t-9.5 -98q0 -48 4.5 -83t14.5 -58t27 -34.5t43 -11.5zM211 586l234 141q25 -12 27 -44l-234 -140
q-24 14 -27 43z" />
    <glyph glyph-name="ntilde" unicode="&#xf1;" horiz-adv-x="588" 
d="M161 -15q-35 0 -58 21t-23 57v313q-1 29 -7 41t-19 12q-5 0 -13 -2t-13 -10q-13 20 -13 43q0 31 21 51t61 20q47 0 75 -32t28 -98v-30l-17 -31q8 60 29.5 102.5t59.5 65.5t94 23q83 0 122 -50t39 -150v-185q1 -22 4.5 -59.5t16.5 -70.5q-14 -13 -33.5 -22t-45.5 -9
q-34 0 -56.5 19t-22.5 52v253q-1 73 -14 113.5t-57 40.5q-23 0 -42 -14t-32.5 -42.5t-21 -71.5t-7.5 -100q0 -49 0.5 -82t2.5 -56.5t6.5 -42.5t13.5 -39q-9 -8 -29.5 -19t-48.5 -11zM460 685q-6 -46 -27.5 -76t-59.5 -30q-23 0 -43.5 11t-40.5 22t-42 11q-27 0 -40 -12.5
t-21 -26.5q-5 -1 -13.5 2t-13.5 7q5 59 33.5 82t59.5 23q25 0 45.5 -11.5t41 -22.5t43.5 -11q25 0 35 12t17 28q9 0 15 -1.5t11 -6.5z" />
    <glyph glyph-name="ograve" unicode="&#xf2;" horiz-adv-x="562" 
d="M281 -14q-117 0 -182 72t-65 200q0 129 65 201t182 72t182 -72t65 -201q0 -128 -65 -200t-182 -72zM281 32q51 0 75 57t24 169q0 113 -24 170t-75 57q-52 0 -76 -57t-24 -170q0 -112 24 -169t76 -57zM119 714q6 5 28.5 12t49 12t42.5 2l90 -160q-6 -4 -21 -6t-27 -3z" />
    <glyph glyph-name="oacute" unicode="&#xf3;" horiz-adv-x="562" 
d="M281 -14q-117 0 -182 72t-65 200q0 129 65 201t182 72t182 -72t65 -201q0 -128 -65 -200t-182 -72zM281 32q51 0 75 57t24 169q0 113 -24 170t-75 57q-52 0 -76 -57t-24 -170q0 -112 24 -169t76 -57zM451 714l-162 -143q-12 1 -27 3t-21 6l90 160q16 3 42.5 -2t49.5 -12
t28 -12z" />
    <glyph glyph-name="ocircumflex" unicode="&#xf4;" horiz-adv-x="562" 
d="M281 -14q-117 0 -182 72t-65 200q0 129 65 201t182 72t182 -72t65 -201q0 -128 -65 -200t-182 -72zM281 32q51 0 75 57t24 169q0 113 -24 170t-75 57q-52 0 -76 -57t-24 -170q0 -112 24 -169t76 -57zM150 568q-8 0 -23 5.5t-16 9.5l131 160q6 3 20.5 4t28.5 0t20 -4
l131 -160q-1 -4 -17 -9.5t-24 -5.5l-124 82z" />
    <glyph glyph-name="otilde" unicode="&#xf5;" horiz-adv-x="562" 
d="M281 -14q-117 0 -182 72t-65 200q0 129 65 201t182 72t182 -72t65 -201q0 -128 -65 -200t-182 -72zM281 32q51 0 75 57t24 169q0 113 -24 170t-75 57q-52 0 -76 -57t-24 -170q0 -112 24 -169t76 -57zM429 685q-6 -46 -27.5 -76t-59.5 -30q-23 0 -43.5 11t-40.5 22t-42 11
q-27 0 -40 -12.5t-21 -26.5q-5 -1 -13.5 2t-13.5 7q5 59 33.5 82t59.5 23q25 0 45.5 -11.5t41 -22.5t43.5 -11q25 0 35 12t17 28q9 0 15 -1.5t11 -6.5z" />
    <glyph glyph-name="odieresis" unicode="&#xf6;" horiz-adv-x="562" 
d="M281 -14q-117 0 -182 72t-65 200q0 129 65 201t182 72t182 -72t65 -201q0 -128 -65 -200t-182 -72zM281 32q51 0 75 57t24 169q0 113 -24 170t-75 57q-52 0 -76 -57t-24 -170q0 -112 24 -169t76 -57zM187 585q-26 0 -44.5 18.5t-18.5 43.5q0 26 18.5 44t44.5 18t44 -18
t18 -44q0 -25 -18 -43.5t-44 -18.5zM377 585q-25 0 -43.5 18.5t-18.5 43.5q0 26 18.5 44t43.5 18q26 0 44.5 -18t18.5 -44q0 -25 -18.5 -43.5t-44.5 -18.5z" />
    <glyph glyph-name="divide" unicode="&#xf7;" horiz-adv-x="541" 
d="M71 382h399q14 -36 0 -72h-399q-13 36 0 72zM271 463q-22 0 -37 15t-15 37q0 23 15 37.5t37 14.5q23 0 37.5 -14.5t14.5 -37.5q0 -22 -14.5 -37t-37.5 -15zM271 125q-22 0 -37 15t-15 37t15 37t37 15q23 0 37.5 -15t14.5 -37t-14.5 -37t-37.5 -15z" />
    <glyph glyph-name="oslash" unicode="&#xf8;" horiz-adv-x="562" 
d="M471 503l-20 -32q38 -34 57.5 -88t19.5 -125q0 -128 -65 -200t-182 -72q-70 0 -122 26l-24 -37q-32 2 -44 26l25 40q-82 71 -82 217q0 129 65 201t182 72q75 0 129 -30l17 27q28 0 44 -25zM181 258q0 -30 1.5 -56t5.5 -49l171 268q-12 32 -31.5 48t-46.5 16
q-52 0 -76 -57t-24 -170zM281 32q51 0 75 57t24 169q0 26 -1.5 50t-3.5 44l-169 -265q24 -55 75 -55z" />
    <glyph glyph-name="ugrave" unicode="&#xf9;" horiz-adv-x="584" 
d="M426 531q33 0 56 -20.5t23 -57.5l1 -313q0 -28 6.5 -40t19.5 -12q5 0 13 2t13 9q13 -20 13 -42q0 -31 -21 -51t-61 -20q-47 0 -75 32t-28 97v31l17 30q-8 -60 -29.5 -102.5t-58.5 -65.5t-92 -23q-80 0 -119 46t-39 155v184q0 23 -3.5 60t-16.5 71q14 11 33 20.5t46 9.5
q34 0 56.5 -18.5t22.5 -52.5v-252q0 -52 5.5 -88t20 -54t41.5 -18q23 0 41 14.5t31.5 44t20.5 73.5t7 102q0 48 -0.5 81t-2.5 56.5t-6.5 42.5t-13.5 40q9 8 29.5 18.5t49.5 10.5zM111 714q6 5 28.5 12t49 12t42.5 2l90 -160q-6 -4 -21 -6t-27 -3z" />
    <glyph glyph-name="uacute" unicode="&#xfa;" horiz-adv-x="584" 
d="M426 531q33 0 56 -20.5t23 -57.5l1 -313q0 -28 6.5 -40t19.5 -12q5 0 13 2t13 9q13 -20 13 -42q0 -31 -21 -51t-61 -20q-47 0 -75 32t-28 97v31l17 30q-8 -60 -29.5 -102.5t-58.5 -65.5t-92 -23q-80 0 -119 46t-39 155v184q0 23 -3.5 60t-16.5 71q14 11 33 20.5t46 9.5
q34 0 56.5 -18.5t22.5 -52.5v-252q0 -52 5.5 -88t20 -54t41.5 -18q23 0 41 14.5t31.5 44t20.5 73.5t7 102q0 48 -0.5 81t-2.5 56.5t-6.5 42.5t-13.5 40q9 8 29.5 18.5t49.5 10.5zM443 714l-162 -143q-12 1 -27 3t-21 6l90 160q16 3 42.5 -2t49.5 -12t28 -12z" />
    <glyph glyph-name="ucircumflex" unicode="&#xfb;" horiz-adv-x="584" 
d="M426 531q33 0 56 -20.5t23 -57.5l1 -313q0 -28 6.5 -40t19.5 -12q5 0 13 2t13 9q13 -20 13 -42q0 -31 -21 -51t-61 -20q-47 0 -75 32t-28 97v31l17 30q-8 -60 -29.5 -102.5t-58.5 -65.5t-92 -23q-80 0 -119 46t-39 155v184q0 23 -3.5 60t-16.5 71q14 11 33 20.5t46 9.5
q34 0 56.5 -18.5t22.5 -52.5v-252q0 -52 5.5 -88t20 -54t41.5 -18q23 0 41 14.5t31.5 44t20.5 73.5t7 102q0 48 -0.5 81t-2.5 56.5t-6.5 42.5t-13.5 40q9 8 29.5 18.5t49.5 10.5zM142 568q-8 0 -23 5.5t-16 9.5l131 160q6 3 20.5 4t28.5 0t20 -4l131 -160q-1 -4 -17 -9.5
t-24 -5.5l-124 82z" />
    <glyph glyph-name="udieresis" unicode="&#xfc;" horiz-adv-x="584" 
d="M426 531q33 0 56 -20.5t23 -57.5l1 -313q0 -28 6.5 -40t19.5 -12q5 0 13 2t13 9q13 -20 13 -42q0 -31 -21 -51t-61 -20q-47 0 -75 32t-28 97v31l17 30q-8 -60 -29.5 -102.5t-58.5 -65.5t-92 -23q-80 0 -119 46t-39 155v184q0 23 -3.5 60t-16.5 71q14 11 33 20.5t46 9.5
q34 0 56.5 -18.5t22.5 -52.5v-252q0 -52 5.5 -88t20 -54t41.5 -18q23 0 41 14.5t31.5 44t20.5 73.5t7 102q0 48 -0.5 81t-2.5 56.5t-6.5 42.5t-13.5 40q9 8 29.5 18.5t49.5 10.5zM179 585q-26 0 -44.5 18.5t-18.5 43.5q0 26 18.5 44t44.5 18t44 -18t18 -44q0 -25 -18 -43.5
t-44 -18.5zM369 585q-25 0 -43.5 18.5t-18.5 43.5q0 26 18.5 44t43.5 18q26 0 44.5 -18t18.5 -44q0 -25 -18.5 -43.5t-44.5 -18.5z" />
    <glyph glyph-name="yacute" unicode="&#xfd;" horiz-adv-x="558" 
d="M245 -224q-50 0 -94 9t-71 32t-27 64q0 33 26 53.5t68 20.5q44 0 62 -23q-15 -10 -22 -24t-7 -27q0 -18 7.5 -32.5t22.5 -23t38 -8.5q64 0 97 59.5t33 155.5q0 13 3 37t7 49t7 42l8 26q-13 -90 -55 -141.5t-126 -51.5q-79 0 -118 46t-39 155v176q0 23 -3.5 60t-16.5 71
q14 11 33 20.5t46 9.5q34 0 56.5 -18.5t22.5 -52.5v-244q0 -77 12.5 -118t52.5 -41q23 0 42 14.5t32.5 43t20.5 70.5t7 98q0 48 -0.5 81t-2.5 56t-6.5 42t-13.5 40q9 8 29.5 18.5t49.5 10.5q33 0 56 -20.5t23 -57.5l1 -400q0 -103 -34 -163.5t-92.5 -87t-134.5 -26.5z
M451 714l-162 -143q-12 1 -27 3t-21 6l90 160q16 3 42.5 -2t49.5 -12t28 -12z" />
    <glyph glyph-name="thorn" unicode="&#xfe;" horiz-adv-x="570" 
d="M144 -220q-34 0 -56.5 18.5t-22.5 51.5v812q0 34 16.5 51t44.5 19q32 3 58 -9t36 -20q-15 -49 -19.5 -109.5t-4.5 -135.5v-161l-24 10q7 57 22 99.5t38.5 70t54.5 41t69 13.5q50 0 84.5 -20t55.5 -55t30.5 -81t9.5 -98q0 -143 -58.5 -217t-157.5 -74q-43 0 -74 15t-45 43
v-40q0 -22 1.5 -55t6.5 -69.5t14 -69.5q-9 -8 -29.5 -19t-49.5 -11zM284 56q57 0 81 58t24 164q0 42 -3.5 75.5t-11.5 56.5t-22.5 35.5t-37.5 12.5q-30 0 -51 -22t-34.5 -59t-20 -81.5t-6.5 -88.5q0 -39 4.5 -67.5t14 -47t25.5 -27.5t38 -9z" />
    <glyph glyph-name="ydieresis" unicode="&#xff;" horiz-adv-x="558" 
d="M245 -224q-50 0 -94 9t-71 32t-27 64q0 33 26 53.5t68 20.5q44 0 62 -23q-15 -10 -22 -24t-7 -27q0 -18 7.5 -32.5t22.5 -23t38 -8.5q64 0 97 59.5t33 155.5q0 13 3 37t7 49t7 42l8 26q-13 -90 -55 -141.5t-126 -51.5q-79 0 -118 46t-39 155v176q0 23 -3.5 60t-16.5 71
q14 11 33 20.5t46 9.5q34 0 56.5 -18.5t22.5 -52.5v-244q0 -77 12.5 -118t52.5 -41q23 0 42 14.5t32.5 43t20.5 70.5t7 98q0 48 -0.5 81t-2.5 56t-6.5 42t-13.5 40q9 8 29.5 18.5t49.5 10.5q33 0 56 -20.5t23 -57.5l1 -400q0 -103 -34 -163.5t-92.5 -87t-134.5 -26.5z
M187 585q-26 0 -44.5 18.5t-18.5 43.5q0 26 18.5 44t44.5 18t44 -18t18 -44q0 -25 -18 -43.5t-44 -18.5zM377 585q-25 0 -43.5 18.5t-18.5 43.5q0 26 18.5 44t43.5 18q26 0 44.5 -18t18.5 -44q0 -25 -18.5 -43.5t-44.5 -18.5z" />
    <glyph glyph-name="Amacron" unicode="&#x100;" horiz-adv-x="628" 
d="M363 713q25 0 46.5 -9t28.5 -36l174 -586q4 -13 12 -32t21 -33q-9 -10 -28 -20.5t-54 -10.5q-32 0 -55 13.5t-29 40.5l-162 620l14 -3l-144 -577q-3 -12 -5 -23.5t-2 -22.5q0 -12 3 -20t8 -13q-15 -6 -32.5 -10.5t-43.5 -4.5q-40 0 -59 13.5t-19 44.5q0 13 3.5 31.5
t10.5 39.5l194 579q58 19 118 19zM181 277h332v-74h-332v74zM199 840h284q9 -30 0 -61h-284q-9 31 0 61z" />
    <glyph glyph-name="amacron" unicode="&#x101;" horiz-adv-x="568" 
d="M467 -10q-52 0 -81.5 37.5t-29.5 133.5v38l24 -5q-10 -55 -38 -101.5t-72 -74.5t-104 -28q-57 0 -94.5 30t-37.5 88q0 48 26.5 81.5t67 54.5t81.5 33q40 11 75.5 15.5t63.5 5.5v25q0 81 -18 122t-65 41q-19 0 -34.5 -7.5t-24 -23.5t-8.5 -43q0 -20 7 -41t28 -33
q-12 -12 -31.5 -18t-41.5 -6q-49 0 -75.5 27t-26.5 66q0 60 58.5 92t156.5 32q112 0 164 -50t52 -167v-169q0 -53 33 -53q5 0 13.5 3t13.5 10q7 -10 10 -22t3 -21q0 -29 -25.5 -50.5t-69.5 -21.5zM238 79q19 2 39 15.5t37 37t27.5 54.5t10.5 68q-19 0 -39 -1.5t-38.5 -6.5
t-34.5 -14q-24 -13 -39.5 -36.5t-15.5 -53.5q0 -25 12.5 -45.5t40.5 -17.5zM133 662h284q9 -31 0 -61h-284q-9 30 0 61z" />
    <glyph glyph-name="Abreve" unicode="&#x102;" horiz-adv-x="628" 
d="M363 713q25 0 46.5 -9t28.5 -36l174 -586q4 -13 12 -32t21 -33q-9 -10 -28 -20.5t-54 -10.5q-32 0 -55 13.5t-29 40.5l-162 620l14 -3l-144 -577q-3 -12 -5 -23.5t-2 -22.5q0 -12 3 -20t8 -13q-15 -6 -32.5 -10.5t-43.5 -4.5q-40 0 -59 13.5t-19 44.5q0 13 3.5 31.5
t10.5 39.5l194 579q58 19 118 19zM181 277h332v-74h-332v74zM483 900q-7 -40 -24 -75t-46 -56t-74 -21t-75 21.5t-46 56.5t-21 73q11 2 21 4.5t20 4.5q11 -40 40.5 -55.5t64.5 -15.5q37 0 65 17t39 54q10 -2 18.5 -4t17.5 -4z" />
    <glyph glyph-name="abreve" unicode="&#x103;" horiz-adv-x="568" 
d="M467 -10q-52 0 -81.5 37.5t-29.5 133.5v38l24 -5q-10 -55 -38 -101.5t-72 -74.5t-104 -28q-57 0 -94.5 30t-37.5 88q0 48 26.5 81.5t67 54.5t81.5 33q40 11 75.5 15.5t63.5 5.5v25q0 81 -18 122t-65 41q-19 0 -34.5 -7.5t-24 -23.5t-8.5 -43q0 -20 7 -41t28 -33
q-12 -12 -31.5 -18t-41.5 -6q-49 0 -75.5 27t-26.5 66q0 60 58.5 92t156.5 32q112 0 164 -50t52 -167v-169q0 -53 33 -53q5 0 13.5 3t13.5 10q7 -10 10 -22t3 -21q0 -29 -25.5 -50.5t-69.5 -21.5zM238 79q19 2 39 15.5t37 37t27.5 54.5t10.5 68q-19 0 -39 -1.5t-38.5 -6.5
t-34.5 -14q-24 -13 -39.5 -36.5t-15.5 -53.5q0 -25 12.5 -45.5t40.5 -17.5zM276 664q26 0 47 8.5t38.5 25.5t29.5 42q9 -2 18.5 -6t18.5 -9q-11 -41 -30 -75t-49 -54t-76 -20q-48 0 -79.5 21t-49 55t-25.5 73q11 8 21 11t20 4q11 -27 28.5 -43.5t40 -24.5t47.5 -8z" />
    <glyph glyph-name="Aogonek" unicode="&#x104;" horiz-adv-x="628" 
d="M363 713q25 0 46.5 -9t28.5 -36l174 -586q4 -13 12 -32t21 -33q-9 -10 -28 -20.5t-54 -10.5q-32 0 -55 13.5t-29 40.5l-162 620l14 -3l-144 -577q-3 -12 -5 -23.5t-2 -22.5q0 -12 3 -20t8 -13q-15 -6 -32.5 -10.5t-43.5 -4.5q-40 0 -59 13.5t-19 44.5q0 13 3.5 31.5
t10.5 39.5l194 579q58 19 118 19zM181 277h332v-74h-332v74zM561 -185q-20 0 -44 7t-41 24.5t-17 48.5q0 36 22.5 61t58.5 41.5t75 25.5l7 -23q-34 -18 -54 -39t-20 -50q0 -15 9 -29t37 -14q31 0 51.5 17t33.5 41q9 -5 13.5 -13t-0.5 -21q-11 -28 -44.5 -52.5t-86.5 -24.5z
" />
    <glyph glyph-name="aogonek" unicode="&#x105;" horiz-adv-x="568" 
d="M467 -10q-52 0 -81.5 37.5t-29.5 133.5v38l24 -5q-10 -55 -38 -101.5t-72 -74.5t-104 -28q-57 0 -94.5 30t-37.5 88q0 48 26.5 81.5t67 54.5t81.5 33q40 11 75.5 15.5t63.5 5.5v25q0 81 -18 122t-65 41q-19 0 -34.5 -7.5t-24 -23.5t-8.5 -43q0 -20 7 -41t28 -33
q-12 -12 -31.5 -18t-41.5 -6q-49 0 -75.5 27t-26.5 66q0 60 58.5 92t156.5 32q112 0 164 -50t52 -167v-169q0 -53 33 -53q5 0 13.5 3t13.5 10q7 -10 10 -22t3 -21q0 -29 -25.5 -50.5t-69.5 -21.5zM238 79q19 2 39 15.5t37 37t27.5 54.5t10.5 68q-19 0 -39 -1.5t-38.5 -6.5
t-34.5 -14q-24 -13 -39.5 -36.5t-15.5 -53.5q0 -25 12.5 -45.5t40.5 -17.5zM461 -182q-20 0 -44 7t-41 24.5t-17 48.5q0 36 22.5 61t58.5 41.5t75 25.5l7 -23q-34 -18 -54 -39t-20 -50q0 -15 9 -29t37 -14q31 0 51.5 17t33.5 41q9 -5 13.5 -13t-0.5 -21q-11 -28 -44.5 -52.5
t-86.5 -24.5z" />
    <glyph glyph-name="Cacute" unicode="&#x106;" horiz-adv-x="619" 
d="M584 129q0 -36 -22 -63t-59 -44.5t-82 -26.5t-91 -9q-133 0 -208 95t-75 268t77.5 268t215.5 95q41 0 81 -8t73 -23t53 -37.5t20 -52.5t-28 -55.5t-84 -24.5q-7 80 -35.5 117t-77.5 37q-73 0 -107 -79t-34 -237t33 -237t104 -79q35 0 61.5 18t43.5 55t24 93
q28 4 54.5 -2.5t44.5 -23t18 -44.5zM492 827l-200 -80q-7 3 -14.5 14.5t-6.5 15.5l145 134q13 -5 28.5 -19.5t29 -32t18.5 -32.5z" />
    <glyph glyph-name="cacute" unicode="&#x107;" horiz-adv-x="513" 
d="M288 -14q-122 0 -188 71.5t-66 202.5q0 126 66.5 198.5t190.5 72.5q95 0 140 -38t45 -90q0 -41 -26.5 -65t-67.5 -24q-20 0 -40 6t-31 18q14 14 21 32.5t7 44.5t-7.5 41.5t-20.5 22t-31 6.5q-46 0 -72.5 -53t-26.5 -150q0 -74 17.5 -120.5t51 -68.5t80.5 -22
q36 0 63.5 12t45.5 32.5t25 45.5q11 -4 15.5 -18.5t-2.5 -43.5q-14 -53 -65 -83t-124 -30zM448 714l-162 -143q-12 1 -27 3t-21 6l90 160q16 3 42.5 -2t49.5 -12t28 -12z" />
    <glyph glyph-name="Ccircumflex" unicode="&#x108;" horiz-adv-x="619" 
d="M584 129q0 -36 -22 -63t-59 -44.5t-82 -26.5t-91 -9q-133 0 -208 95t-75 268t77.5 268t215.5 95q41 0 81 -8t73 -23t53 -37.5t20 -52.5t-28 -55.5t-84 -24.5q-7 80 -35.5 117t-77.5 37q-73 0 -107 -79t-34 -237t33 -237t104 -79q35 0 61.5 18t43.5 55t24 93
q28 4 54.5 -2.5t44.5 -23t18 -44.5zM367 901l139 -134q0 -4 -8.5 -15t-15.5 -14l-149 79l-150 -79q-6 3 -14.5 14t-9.5 15l139 134q6 3 20.5 4t28.5 0.5t20 -4.5z" />
    <glyph glyph-name="ccircumflex" unicode="&#x109;" horiz-adv-x="513" 
d="M288 -14q-122 0 -188 71.5t-66 202.5q0 126 66.5 198.5t190.5 72.5q95 0 140 -38t45 -90q0 -41 -26.5 -65t-67.5 -24q-20 0 -40 6t-31 18q14 14 21 32.5t7 44.5t-7.5 41.5t-20.5 22t-31 6.5q-46 0 -72.5 -53t-26.5 -150q0 -74 17.5 -120.5t51 -68.5t80.5 -22
q36 0 63.5 12t45.5 32.5t25 45.5q11 -4 15.5 -18.5t-2.5 -43.5q-14 -53 -65 -83t-124 -30zM147 568q-8 0 -23 5.5t-16 9.5l131 160q6 3 20.5 4t28.5 0t20 -4l131 -160q-1 -4 -17 -9.5t-24 -5.5l-124 82z" />
    <glyph glyph-name="Cdotaccent" unicode="&#x10a;" horiz-adv-x="619" 
d="M584 129q0 -36 -22 -63t-59 -44.5t-82 -26.5t-91 -9q-133 0 -208 95t-75 268t77.5 268t215.5 95q41 0 81 -8t73 -23t53 -37.5t20 -52.5t-28 -55.5t-84 -24.5q-7 80 -35.5 117t-77.5 37q-73 0 -107 -79t-34 -237t33 -237t104 -79q35 0 61.5 18t43.5 55t24 93
q28 4 54.5 -2.5t44.5 -23t18 -44.5zM337 754q-29 0 -50 21t-21 50q0 30 21 50.5t50 20.5t50 -20.5t21 -50.5q0 -29 -21 -50t-50 -21z" />
    <glyph glyph-name="cdotaccent" unicode="&#x10b;" horiz-adv-x="513" 
d="M288 -14q-122 0 -188 71.5t-66 202.5q0 126 66.5 198.5t190.5 72.5q95 0 140 -38t45 -90q0 -41 -26.5 -65t-67.5 -24q-20 0 -40 6t-31 18q14 14 21 32.5t7 44.5t-7.5 41.5t-20.5 22t-31 6.5q-46 0 -72.5 -53t-26.5 -150q0 -74 17.5 -120.5t51 -68.5t80.5 -22
q36 0 63.5 12t45.5 32.5t25 45.5q11 -4 15.5 -18.5t-2.5 -43.5q-14 -53 -65 -83t-124 -30zM277 574q-29 0 -50 20.5t-21 50.5q0 29 21 50t50 21t50 -21t21 -50q0 -30 -21 -50.5t-50 -20.5z" />
    <glyph glyph-name="Ccaron" unicode="&#x10c;" horiz-adv-x="619" 
d="M584 129q0 -36 -22 -63t-59 -44.5t-82 -26.5t-91 -9q-133 0 -208 95t-75 268t77.5 268t215.5 95q41 0 81 -8t73 -23t53 -37.5t20 -52.5t-28 -55.5t-84 -24.5q-7 80 -35.5 117t-77.5 37q-73 0 -107 -79t-34 -237t33 -237t104 -79q35 0 61.5 18t43.5 55t24 93
q28 4 54.5 -2.5t44.5 -23t18 -44.5zM372 753q-6 -3 -20 -4t-28.5 0t-20.5 4l-139 134q1 5 9.5 15.5t14.5 13.5l150 -79l149 79q7 -3 15.5 -13.5t8.5 -15.5z" />
    <glyph glyph-name="ccaron" unicode="&#x10d;" horiz-adv-x="513" 
d="M288 -14q-122 0 -188 71.5t-66 202.5q0 126 66.5 198.5t190.5 72.5q95 0 140 -38t45 -90q0 -41 -26.5 -65t-67.5 -24q-20 0 -40 6t-31 18q14 14 21 32.5t7 44.5t-7.5 41.5t-20.5 22t-31 6.5q-46 0 -72.5 -53t-26.5 -150q0 -74 17.5 -120.5t51 -68.5t80.5 -22
q36 0 63.5 12t45.5 32.5t25 45.5q11 -4 15.5 -18.5t-2.5 -43.5q-14 -53 -65 -83t-124 -30zM150 752l127 -82l124 82q8 0 24 -5.5t17 -9.5l-131 -160q-6 -3 -20 -4t-28.5 0.5t-20.5 3.5l-131 160q1 4 16 9.5t23 5.5z" />
    <glyph glyph-name="Dcaron" unicode="&#x10e;" horiz-adv-x="654" 
d="M159 0q-37 0 -59 19t-22 51l-1 481q0 29 -0.5 71.5t-13.5 76.5q28 4 67 6t81 2.5t76 0.5q153 0 236.5 -88t83.5 -261q0 -188 -82.5 -273.5t-229.5 -85.5h-136zM217 48h70q58 0 94.5 29t54 95t17.5 177q0 163 -40 237t-126 74h-70v-612zM351 753q-6 -3 -20 -4t-28.5 0
t-20.5 4l-139 134q1 5 9.5 15.5t14.5 13.5l150 -79l149 79q7 -3 15.5 -13.5t8.5 -15.5z" />
    <glyph glyph-name="dcaron" unicode="&#x10f;" horiz-adv-x="680" 
d="M212 -14q-48 0 -81.5 18.5t-55 53t-31.5 81t-10 101.5q0 140 55.5 215.5t158.5 75.5q46 0 76.5 -15t44.5 -44v41q0 35 -4 87t-19 103q9 8 29.5 19t49.5 11q33 0 56 -18.5t23 -52.5l-1 -517q0 -26 9 -39t25 -13q5 0 13.5 2t12.5 9q7 -10 10 -22t3 -21q0 -31 -25.5 -50.5
t-63.5 -19.5q-58 0 -84.5 49.5t-26.5 133.5v46l21 -11q-7 -57 -22 -99t-38.5 -69.5t-54.5 -41t-70 -13.5zM254 60q30 0 51 22.5t34.5 60.5t20 85t6.5 96q0 27 -3 52t-11.5 44.5t-25 31t-43.5 11.5q-56 0 -79 -58t-23 -162q0 -46 3.5 -80.5t12 -57t22.5 -34t35 -11.5z
M568 570q5 39 2 92t-20 96q29 10 63.5 9.5t59.5 -9.5q0 -50 -14 -100t-33 -88h-58z" />
    <glyph glyph-name="Dcroat" unicode="&#x110;" horiz-adv-x="658" 
d="M21 375h320q7 -25 0 -51h-320q-9 26 0 51zM159 0q-37 0 -59 19t-22 51l-1 481q0 29 -0.5 71.5t-13.5 76.5q28 4 67 6t81 2.5t76 0.5q153 0 236.5 -88t83.5 -261q0 -188 -82.5 -273.5t-229.5 -85.5h-136zM217 48h70q58 0 94.5 29t54 95t17.5 177q0 163 -40 237t-126 74
h-70v-612z" />
    <glyph glyph-name="dcroat" unicode="&#x111;" horiz-adv-x="592" 
d="M269 627h301q7 -25 0 -51h-301q-7 26 0 51zM212 -14q-48 0 -81.5 18.5t-55 53t-31.5 81t-10 101.5q0 140 55.5 215.5t158.5 75.5q46 0 76.5 -15t44.5 -44v41q0 35 -4 87t-19 103q9 8 29.5 19t49.5 11q33 0 56 -18.5t23 -52.5l-1 -517q0 -26 9 -39t25 -13q5 0 13.5 2
t12.5 9q7 -10 10 -22t3 -21q0 -31 -25.5 -50.5t-63.5 -19.5q-58 0 -84.5 49.5t-26.5 133.5v46l21 -11q-7 -57 -22 -99t-38.5 -69.5t-54.5 -41t-70 -13.5zM254 60q30 0 51 22.5t34.5 60.5t20 85t6.5 96q0 27 -3 52t-11.5 44.5t-25 31t-43.5 11.5q-56 0 -79 -58t-23 -162
q0 -46 3.5 -80.5t12 -57t22.5 -34t35 -11.5z" />
    <glyph glyph-name="Emacron" unicode="&#x112;" horiz-adv-x="554" 
d="M163 0q-34 0 -57 18.5t-23 52.5v462q0 29 -3.5 62.5t-16.5 67.5q26 23 53 29t74 6h289q14 0 19 -16t2 -38.5t-12.5 -42t-23.5 -25.5q-52 24 -114.5 39t-127.5 17l1 -566q44 2 96 11t98 22t72 26q13 -8 19.5 -28t6.5 -42.5t-8.5 -38.5t-25.5 -16h-318zM197 324v74h237
q5 -19 4.5 -38.5t-4.5 -35.5h-237zM139 840h284q9 -30 0 -61h-284q-9 31 0 61z" />
    <glyph glyph-name="emacron" unicode="&#x113;" horiz-adv-x="527" 
d="M289 -14q-116 0 -185.5 71.5t-69.5 202.5q0 126 66 198.5t190 72.5q58 0 104.5 -17t74 -50.5t27.5 -84.5q0 -74 -60 -113.5t-155 -39.5q-40 0 -85.5 2.5t-98.5 15.5l4 41q21 -2 43.5 -5t55.5 -4q22 0 47.5 3t48.5 15.5t37.5 38t14.5 69.5q0 34 -9 51.5t-23.5 24.5
t-30.5 7q-49 0 -76.5 -55t-27.5 -152q0 -77 17 -122.5t50 -65t80 -19.5q56 0 91.5 22t51.5 53q11 -4 15.5 -17t-6.5 -41q-19 -49 -69.5 -75.5t-121.5 -26.5zM131 662h284q9 -31 0 -61h-284q-9 30 0 61z" />
    <glyph glyph-name="Ebreve" unicode="&#x114;" horiz-adv-x="554" 
d="M163 0q-34 0 -57 18.5t-23 52.5v462q0 29 -3.5 62.5t-16.5 67.5q26 23 53 29t74 6h289q14 0 19 -16t2 -38.5t-12.5 -42t-23.5 -25.5q-52 24 -114.5 39t-127.5 17l1 -566q44 2 96 11t98 22t72 26q13 -8 19.5 -28t6.5 -42.5t-8.5 -38.5t-25.5 -16h-318zM197 324v74h237
q5 -19 4.5 -38.5t-4.5 -35.5h-237zM423 900q-7 -40 -24 -75t-46 -56t-74 -21t-75 21.5t-46 56.5t-21 73q11 2 21 4.5t20 4.5q11 -40 40.5 -55.5t64.5 -15.5q37 0 65 17t39 54q10 -2 18.5 -4t17.5 -4z" />
    <glyph glyph-name="ebreve" unicode="&#x115;" horiz-adv-x="527" 
d="M289 -14q-116 0 -185.5 71.5t-69.5 202.5q0 126 66 198.5t190 72.5q58 0 104.5 -17t74 -50.5t27.5 -84.5q0 -74 -60 -113.5t-155 -39.5q-40 0 -85.5 2.5t-98.5 15.5l4 41q21 -2 43.5 -5t55.5 -4q22 0 47.5 3t48.5 15.5t37.5 38t14.5 69.5q0 34 -9 51.5t-23.5 24.5
t-30.5 7q-49 0 -76.5 -55t-27.5 -152q0 -77 17 -122.5t50 -65t80 -19.5q56 0 91.5 22t51.5 53q11 -4 15.5 -17t-6.5 -41q-19 -49 -69.5 -75.5t-121.5 -26.5zM274 664q26 0 47 8.5t38.5 25.5t29.5 42q9 -2 18.5 -6t18.5 -9q-11 -41 -30 -75t-49 -54t-76 -20q-48 0 -79.5 21
t-49 55t-25.5 73q11 8 21 11t20 4q11 -27 28.5 -43.5t40 -24.5t47.5 -8z" />
    <glyph glyph-name="Edotaccent" unicode="&#x116;" horiz-adv-x="554" 
d="M163 0q-34 0 -57 18.5t-23 52.5v462q0 29 -3.5 62.5t-16.5 67.5q26 23 53 29t74 6h289q14 0 19 -16t2 -38.5t-12.5 -42t-23.5 -25.5q-52 24 -114.5 39t-127.5 17l1 -566q44 2 96 11t98 22t72 26q13 -8 19.5 -28t6.5 -42.5t-8.5 -38.5t-25.5 -16h-318zM197 324v74h237
q5 -19 4.5 -38.5t-4.5 -35.5h-237zM280 754q-29 0 -50 21t-21 50q0 30 21 50.5t50 20.5t50 -20.5t21 -50.5q0 -29 -21 -50t-50 -21z" />
    <glyph glyph-name="edotaccent" unicode="&#x117;" horiz-adv-x="527" 
d="M289 -14q-116 0 -185.5 71.5t-69.5 202.5q0 126 66 198.5t190 72.5q58 0 104.5 -17t74 -50.5t27.5 -84.5q0 -74 -60 -113.5t-155 -39.5q-40 0 -85.5 2.5t-98.5 15.5l4 41q21 -2 43.5 -5t55.5 -4q22 0 47.5 3t48.5 15.5t37.5 38t14.5 69.5q0 34 -9 51.5t-23.5 24.5
t-30.5 7q-49 0 -76.5 -55t-27.5 -152q0 -77 17 -122.5t50 -65t80 -19.5q56 0 91.5 22t51.5 53q11 -4 15.5 -17t-6.5 -41q-19 -49 -69.5 -75.5t-121.5 -26.5zM271 574q-29 0 -50 20.5t-21 50.5q0 29 21 50t50 21t50 -21t21 -50q0 -30 -21 -50.5t-50 -20.5z" />
    <glyph glyph-name="Eogonek" unicode="&#x118;" horiz-adv-x="554" 
d="M163 0q-34 0 -57 18.5t-23 52.5v462q0 29 -3.5 62.5t-16.5 67.5q26 23 53 29t74 6h289q14 0 19 -16t2 -38.5t-12.5 -42t-23.5 -25.5q-52 24 -114.5 39t-127.5 17l1 -566q44 2 96 11t98 22t72 26q13 -8 19.5 -28t6.5 -42.5t-8.5 -38.5t-25.5 -16h-318zM197 324v74h237
q5 -19 4.5 -38.5t-4.5 -35.5h-237zM413 -182q-20 0 -44 7t-41 24.5t-17 48.5q0 36 22.5 61t58.5 41.5t75 25.5l7 -23q-34 -18 -54 -39t-20 -50q0 -15 9 -29t37 -14q31 0 51.5 17t33.5 41q9 -5 13.5 -13t-0.5 -21q-11 -28 -44.5 -52.5t-86.5 -24.5z" />
    <glyph glyph-name="eogonek" unicode="&#x119;" horiz-adv-x="527" 
d="M289 -14q-116 0 -185.5 71.5t-69.5 202.5q0 126 66 198.5t190 72.5q58 0 104.5 -17t74 -50.5t27.5 -84.5q0 -74 -60 -113.5t-155 -39.5q-40 0 -85.5 2.5t-98.5 15.5l4 41q21 -2 43.5 -5t55.5 -4q22 0 47.5 3t48.5 15.5t37.5 38t14.5 69.5q0 34 -9 51.5t-23.5 24.5
t-30.5 7q-49 0 -76.5 -55t-27.5 -152q0 -77 17 -122.5t50 -65t80 -19.5q56 0 91.5 22t51.5 53q11 -4 15.5 -17t-6.5 -41q-19 -49 -69.5 -75.5t-121.5 -26.5zM355 -169q-20 0 -44 7t-41 24.5t-17 48.5q0 36 22.5 61t58.5 41.5t75 25.5l7 -23q-34 -18 -54 -39t-20 -50
q0 -15 9 -29t37 -14q31 0 51.5 17t33.5 41q9 -5 13.5 -13t-0.5 -21q-11 -28 -44.5 -52.5t-86.5 -24.5z" />
    <glyph glyph-name="Ecaron" unicode="&#x11a;" horiz-adv-x="554" 
d="M163 0q-34 0 -57 18.5t-23 52.5v462q0 29 -3.5 62.5t-16.5 67.5q26 23 53 29t74 6h289q14 0 19 -16t2 -38.5t-12.5 -42t-23.5 -25.5q-52 24 -114.5 39t-127.5 17l1 -566q44 2 96 11t98 22t72 26q13 -8 19.5 -28t6.5 -42.5t-8.5 -38.5t-25.5 -16h-318zM197 324v74h237
q5 -19 4.5 -38.5t-4.5 -35.5h-237zM315 753q-6 -3 -20 -4t-28.5 0t-20.5 4l-139 134q1 5 9.5 15.5t14.5 13.5l150 -79l149 79q7 -3 15.5 -13.5t8.5 -15.5z" />
    <glyph glyph-name="ecaron" unicode="&#x11b;" horiz-adv-x="527" 
d="M289 -14q-116 0 -185.5 71.5t-69.5 202.5q0 126 66 198.5t190 72.5q58 0 104.5 -17t74 -50.5t27.5 -84.5q0 -74 -60 -113.5t-155 -39.5q-40 0 -85.5 2.5t-98.5 15.5l4 41q21 -2 43.5 -5t55.5 -4q22 0 47.5 3t48.5 15.5t37.5 38t14.5 69.5q0 34 -9 51.5t-23.5 24.5
t-30.5 7q-49 0 -76.5 -55t-27.5 -152q0 -77 17 -122.5t50 -65t80 -19.5q56 0 91.5 22t51.5 53q11 -4 15.5 -17t-6.5 -41q-19 -49 -69.5 -75.5t-121.5 -26.5zM144 752l127 -82l124 82q8 0 24 -5.5t17 -9.5l-131 -160q-6 -3 -20 -4t-28.5 0.5t-20.5 3.5l-131 160q1 4 16 9.5
t23 5.5z" />
    <glyph glyph-name="Gcircumflex" unicode="&#x11c;" horiz-adv-x="656" 
d="M346 -14q-142 0 -220.5 95t-78.5 268t82 268t227 95q39 0 78 -8t71.5 -23t52 -37.5t19.5 -51.5q0 -31 -28 -56.5t-84 -24.5q-7 80 -34 117t-73 37q-82 0 -119.5 -79t-37.5 -237t36.5 -237t116.5 -79q36 0 58 18t34.5 47t17 62t4.5 62q0 26 -4 52t-16.5 48.5t-38.5 34.5
q10 21 33.5 31t49.5 10q35 0 61.5 -15.5t41.5 -46.5t15 -79q0 -56 -14 -100t-39.5 -76t-58.5 -53t-72 -31.5t-80 -10.5zM374 901l139 -134q0 -4 -8.5 -15t-15.5 -14l-149 79l-150 -79q-6 3 -14.5 14t-9.5 15l139 134q6 3 20.5 4t28.5 0.5t20 -4.5z" />
    <glyph glyph-name="gcircumflex" unicode="&#x11d;" horiz-adv-x="547" 
d="M229 -224q-50 0 -94 11.5t-70.5 37t-26.5 66.5q0 38 26.5 61t67.5 23q45 0 63 -23q-15 -13 -22.5 -31t-7.5 -38q0 -18 7 -33t22 -24t39 -9q63 0 94.5 58t31.5 150v35.5t1 39.5q-17 -47 -54.5 -72.5t-93.5 -25.5q-52 0 -92.5 24t-63 78.5t-22.5 144.5q0 49 8.5 92t26.5 78
t46.5 60t69.5 38.5t95 13.5q44 0 83.5 -8t73.5 -22.5t58 -35.5v-421q0 -99 -34.5 -158t-94.5 -84.5t-137 -25.5zM254 65q26 0 45 12.5t32 36t20 58t7 77.5l1 215q-13 10 -32 15.5t-39 5.5q-33 0 -54 -17t-32.5 -49t-16.5 -78.5t-5 -105.5q0 -94 15.5 -132t58.5 -38zM155 574
q-8 0 -23 5.5t-16 9.5l131 160q6 3 20.5 4t28.5 0t20 -4l131 -160q-1 -4 -17 -9.5t-24 -5.5l-124 82z" />
    <glyph glyph-name="Gbreve" unicode="&#x11e;" horiz-adv-x="656" 
d="M346 -14q-142 0 -220.5 95t-78.5 268t82 268t227 95q39 0 78 -8t71.5 -23t52 -37.5t19.5 -51.5q0 -31 -28 -56.5t-84 -24.5q-7 80 -34 117t-73 37q-82 0 -119.5 -79t-37.5 -237t36.5 -237t116.5 -79q36 0 58 18t34.5 47t17 62t4.5 62q0 26 -4 52t-16.5 48.5t-38.5 34.5
q10 21 33.5 31t49.5 10q35 0 61.5 -15.5t41.5 -46.5t15 -79q0 -56 -14 -100t-39.5 -76t-58.5 -53t-72 -31.5t-80 -10.5zM487 900q-7 -40 -24 -75t-46 -56t-74 -21t-75 21.5t-46 56.5t-21 73q11 2 21 4.5t20 4.5q11 -40 40.5 -55.5t64.5 -15.5q37 0 65 17t39 54
q10 -2 18.5 -4t17.5 -4z" />
    <glyph glyph-name="gbreve" unicode="&#x11f;" horiz-adv-x="547" 
d="M229 -224q-50 0 -94 11.5t-70.5 37t-26.5 66.5q0 38 26.5 61t67.5 23q45 0 63 -23q-15 -13 -22.5 -31t-7.5 -38q0 -18 7 -33t22 -24t39 -9q63 0 94.5 58t31.5 150v35.5t1 39.5q-17 -47 -54.5 -72.5t-93.5 -25.5q-52 0 -92.5 24t-63 78.5t-22.5 144.5q0 49 8.5 92t26.5 78
t46.5 60t69.5 38.5t95 13.5q44 0 83.5 -8t73.5 -22.5t58 -35.5v-421q0 -99 -34.5 -158t-94.5 -84.5t-137 -25.5zM254 65q26 0 45 12.5t32 36t20 58t7 77.5l1 215q-13 10 -32 15.5t-39 5.5q-33 0 -54 -17t-32.5 -49t-16.5 -78.5t-5 -105.5q0 -94 15.5 -132t58.5 -38zM288 670
q26 0 47 8.5t38.5 25.5t29.5 42q9 -2 18.5 -6t18.5 -9q-11 -41 -30 -75t-49 -54t-76 -20q-48 0 -79.5 21t-49 55t-25.5 73q11 8 21 11t20 4q11 -27 28.5 -43.5t40 -24.5t47.5 -8z" />
    <glyph glyph-name="Gdotaccent" unicode="&#x120;" horiz-adv-x="656" 
d="M346 -14q-142 0 -220.5 95t-78.5 268t82 268t227 95q39 0 78 -8t71.5 -23t52 -37.5t19.5 -51.5q0 -31 -28 -56.5t-84 -24.5q-7 80 -34 117t-73 37q-82 0 -119.5 -79t-37.5 -237t36.5 -237t116.5 -79q36 0 58 18t34.5 47t17 62t4.5 62q0 26 -4 52t-16.5 48.5t-38.5 34.5
q10 21 33.5 31t49.5 10q35 0 61.5 -15.5t41.5 -46.5t15 -79q0 -56 -14 -100t-39.5 -76t-58.5 -53t-72 -31.5t-80 -10.5zM344 754q-29 0 -50 21t-21 50q0 30 21 50.5t50 20.5t50 -20.5t21 -50.5q0 -29 -21 -50t-50 -21z" />
    <glyph glyph-name="gdotaccent" unicode="&#x121;" horiz-adv-x="547" 
d="M229 -224q-50 0 -94 11.5t-70.5 37t-26.5 66.5q0 38 26.5 61t67.5 23q45 0 63 -23q-15 -13 -22.5 -31t-7.5 -38q0 -18 7 -33t22 -24t39 -9q63 0 94.5 58t31.5 150v35.5t1 39.5q-17 -47 -54.5 -72.5t-93.5 -25.5q-52 0 -92.5 24t-63 78.5t-22.5 144.5q0 49 8.5 92t26.5 78
t46.5 60t69.5 38.5t95 13.5q44 0 83.5 -8t73.5 -22.5t58 -35.5v-421q0 -99 -34.5 -158t-94.5 -84.5t-137 -25.5zM254 65q26 0 45 12.5t32 36t20 58t7 77.5l1 215q-13 10 -32 15.5t-39 5.5q-33 0 -54 -17t-32.5 -49t-16.5 -78.5t-5 -105.5q0 -94 15.5 -132t58.5 -38zM285 580
q-29 0 -50 20.5t-21 50.5q0 29 21 50t50 21t50 -21t21 -50q0 -30 -21 -50.5t-50 -20.5z" />
    <glyph glyph-name="uni0122" unicode="&#x122;" horiz-adv-x="656" 
d="M346 -14q-142 0 -220.5 95t-78.5 268t82 268t227 95q39 0 78 -8t71.5 -23t52 -37.5t19.5 -51.5q0 -31 -28 -56.5t-84 -24.5q-7 80 -34 117t-73 37q-82 0 -119.5 -79t-37.5 -237t36.5 -237t116.5 -79q36 0 58 18t34.5 47t17 62t4.5 62q0 26 -4 52t-16.5 48.5t-38.5 34.5
q10 21 33.5 31t49.5 10q35 0 61.5 -15.5t41.5 -46.5t15 -79q0 -56 -14 -100t-39.5 -76t-58.5 -53t-72 -31.5t-80 -10.5zM347 -285q-13 2 -23 8t-21 16q17 21 27 40.5t10 38.5q0 27 -12 41t-27.5 20t-28.5 9q0 32 22.5 55t56.5 23q30 0 54 -21.5t24 -73.5q0 -39 -19 -77
t-63 -79z" />
    <glyph glyph-name="uni0123" unicode="&#x123;" horiz-adv-x="547" 
d="M229 -224q-50 0 -94 11.5t-70.5 37t-26.5 66.5q0 38 26.5 61t67.5 23q45 0 63 -23q-15 -13 -22.5 -31t-7.5 -38q0 -18 7 -33t22 -24t39 -9q63 0 94.5 58t31.5 150v35.5t1 39.5q-17 -47 -54.5 -72.5t-93.5 -25.5q-52 0 -92.5 24t-63 78.5t-22.5 144.5q0 49 8.5 92t26.5 78
t46.5 60t69.5 38.5t95 13.5q44 0 83.5 -8t73.5 -22.5t58 -35.5v-421q0 -99 -34.5 -158t-94.5 -84.5t-137 -25.5zM254 65q26 0 45 12.5t32 36t20 58t7 77.5l1 215q-13 10 -32 15.5t-39 5.5q-33 0 -54 -17t-32.5 -49t-16.5 -78.5t-5 -105.5q0 -94 15.5 -132t58.5 -38zM280 817
q13 -1 26.5 -7t23.5 -17q-17 -24 -22.5 -41.5t-5.5 -29.5q0 -29 19 -44t38 -20q0 -32 -22 -54.5t-55 -22.5q-17 0 -35 8t-30 27t-12 51t16.5 65.5t58.5 84.5z" />
    <glyph glyph-name="Hcircumflex" unicode="&#x124;" horiz-adv-x="701" 
d="M223 146q0 -28 3.5 -62.5t16.5 -67.5q-9 -8 -30 -19.5t-50 -11.5q-34 0 -57 19t-23 52v495q0 29 -3.5 62.5t-16.5 67.5q9 8 30 19t50 11q34 0 57 -18.5t23 -51.5v-495zM618 146q0 -28 3.5 -62.5t16.5 -67.5q-9 -8 -30 -19.5t-50 -11.5q-34 0 -57 19t-23 52v495
q0 29 -3.5 62.5t-16.5 67.5q9 8 30 19t50 11q34 0 57 -18.5t23 -51.5v-495zM169 401h351v-74h-351v74zM381 901l139 -134q0 -4 -8.5 -15t-15.5 -14l-149 79l-150 -79q-6 3 -14.5 14t-9.5 15l139 134q6 3 20.5 4t28.5 0.5t20 -4.5z" />
    <glyph glyph-name="hcircumflex" unicode="&#x125;" horiz-adv-x="571" 
d="M145 -15q-34 0 -57 21t-23 57v599q-1 34 17.5 51t46.5 19q32 3 58 -9t36 -20q-15 -49 -19 -109.5t-5 -135.5v-87l-23 -31q8 60 28.5 102.5t56.5 65.5t89 23q83 0 122 -50t39 -150v-185q0 -22 3.5 -59.5t16.5 -70.5q-13 -12 -32.5 -21.5t-45.5 -9.5q-34 0 -56.5 19
t-22.5 52v253q0 76 -13.5 117.5t-57.5 41.5q-23 0 -42 -14.5t-32.5 -44t-21 -73t-7.5 -101.5q0 -49 0.5 -82t2.5 -56.5t6.5 -42.5t13.5 -39q-9 -8 -29 -19t-49 -11zM20 746q-8 0 -23 5.5t-16 9.5l131 160q6 3 20.5 4t28.5 0t20 -4l131 -160q-1 -4 -17 -9.5t-24 -5.5l-124 82
z" />
    <glyph glyph-name="Hbar" unicode="&#x126;" horiz-adv-x="701" 
d="M32 566h629q9 -25 0 -51h-629q-9 26 0 51zM223 146q0 -28 3.5 -62.5t16.5 -67.5q-9 -8 -30 -19.5t-50 -11.5q-34 0 -57 19t-23 52v495q0 29 -3.5 62.5t-16.5 67.5q9 8 30 19t50 11q34 0 57 -18.5t23 -51.5v-495zM618 146q0 -28 3.5 -62.5t16.5 -67.5q-9 -8 -30 -19.5
t-50 -11.5q-34 0 -57 19t-23 52v495q0 29 -3.5 62.5t-16.5 67.5q9 8 30 19t50 11q34 0 57 -18.5t23 -51.5v-495zM169 401h351v-74h-351v74z" />
    <glyph glyph-name="hbar" unicode="&#x127;" horiz-adv-x="573" 
d="M-3 616h312q7 -25 0 -50h-312q-6 25 0 50zM145 -15q-34 0 -57 21t-23 57v599q-1 34 17.5 51t46.5 19q32 3 58 -9t36 -20q-15 -49 -19 -109.5t-5 -135.5v-87l-23 -31q8 60 28.5 102.5t56.5 65.5t89 23q83 0 122 -50t39 -150v-185q0 -22 3.5 -59.5t16.5 -70.5
q-13 -12 -32.5 -21.5t-45.5 -9.5q-34 0 -56.5 19t-22.5 52v253q0 76 -13.5 117.5t-57.5 41.5q-23 0 -42 -14.5t-32.5 -44t-21 -73t-7.5 -101.5q0 -49 0.5 -82t2.5 -56.5t6.5 -42.5t13.5 -39q-9 -8 -29 -19t-49 -11z" />
    <glyph glyph-name="Itilde" unicode="&#x128;" horiz-adv-x="306" 
d="M163 -15q-34 0 -57 19t-23 52v495q0 29 -3.5 62.5t-16.5 67.5q9 8 30 19t50 11q34 0 57 -18.5t23 -51.5v-495q0 -28 3.5 -62.5t16.5 -67.5q-9 -8 -30 -19.5t-50 -11.5zM300 873q-7 -49 -30.5 -80.5t-63.5 -31.5q-25 0 -47.5 11t-44.5 22t-46 11q-29 0 -42.5 -11
t-21.5 -25q-6 -1 -15 1.5t-15 7.5q5 64 35.5 87.5t64.5 23.5q26 0 48.5 -11t45.5 -22t48 -11q26 0 37 11.5t18 24.5q10 0 16.5 -1.5t12.5 -6.5z" />
    <glyph glyph-name="itilde" unicode="&#x129;" horiz-adv-x="274" 
d="M209 146q0 -28 3.5 -62.5t16.5 -67.5q-9 -8 -29.5 -19.5t-49.5 -11.5q-32 0 -54.5 19t-22.5 52v315q0 29 -3.5 63t-16.5 68q9 8 29 19t48 11q34 0 56 -18.5t22 -52.5zM277 685q-6 -46 -27.5 -76t-59.5 -30q-23 0 -43.5 11t-40.5 22t-42 11q-27 0 -40 -12.5t-21 -26.5
q-5 -1 -13.5 2t-13.5 7q5 59 33.5 82t59.5 23q25 0 45.5 -11.5t41 -22.5t43.5 -11q25 0 35 12t17 28q9 0 15 -1.5t11 -6.5z" />
    <glyph glyph-name="Imacron" unicode="&#x12a;" horiz-adv-x="306" 
d="M163 -15q-34 0 -57 19t-23 52v495q0 29 -3.5 62.5t-16.5 67.5q9 8 30 19t50 11q34 0 57 -18.5t23 -51.5v-495q0 -28 3.5 -62.5t16.5 -67.5q-9 -8 -30 -19.5t-50 -11.5zM-2 840h284q9 -30 0 -61h-284q-9 31 0 61z" />
    <glyph glyph-name="imacron" unicode="&#x12b;" horiz-adv-x="274" 
d="M209 146q0 -28 3.5 -62.5t16.5 -67.5q-9 -8 -29.5 -19.5t-49.5 -11.5q-32 0 -54.5 19t-22.5 52v315q0 29 -3.5 63t-16.5 68q9 8 29 19t48 11q34 0 56 -18.5t22 -52.5zM-12 662h284q9 -31 0 -61h-284q-9 30 0 61z" />
    <glyph glyph-name="Iogonek" unicode="&#x12e;" horiz-adv-x="306" 
d="M163 -15q-34 0 -57 19t-23 52v495q0 29 -3.5 62.5t-16.5 67.5q9 8 30 19t50 11q34 0 57 -18.5t23 -51.5v-495q0 -28 3.5 -62.5t16.5 -67.5q-9 -8 -30 -19.5t-50 -11.5zM163 -180q-20 0 -44 7t-41 24.5t-17 48.5q0 36 22.5 61t58.5 41.5t75 25.5l7 -23q-34 -18 -54 -39
t-20 -50q0 -15 9 -29t37 -14q31 0 51.5 17t33.5 41q9 -5 13.5 -13t-0.5 -21q-11 -28 -44.5 -52.5t-86.5 -24.5z" />
    <glyph glyph-name="iogonek" unicode="&#x12f;" horiz-adv-x="274" 
d="M136 576q-33 0 -55.5 22.5t-22.5 54.5q0 33 22.5 55.5t55.5 22.5q32 0 54.5 -22.5t22.5 -55.5q0 -32 -22.5 -54.5t-54.5 -22.5zM209 146q0 -28 3.5 -62.5t16.5 -67.5q-9 -8 -29.5 -19.5t-49.5 -11.5q-32 0 -54.5 19t-22.5 52v315q0 29 -3.5 63t-16.5 68q9 8 29 19t48 11
q34 0 56 -18.5t22 -52.5zM146 -178q-20 0 -44 7t-41 24.5t-17 48.5q0 36 22.5 61t58.5 41.5t75 25.5l7 -23q-34 -18 -54 -39t-20 -50q0 -15 9 -29t37 -14q31 0 51.5 17t33.5 41q9 -5 13.5 -13t-0.5 -21q-11 -28 -44.5 -52.5t-86.5 -24.5z" />
    <glyph glyph-name="Idotaccent" unicode="&#x130;" horiz-adv-x="306" 
d="M163 -15q-34 0 -57 19t-23 52v495q0 29 -3.5 62.5t-16.5 67.5q9 8 30 19t50 11q34 0 57 -18.5t23 -51.5v-495q0 -28 3.5 -62.5t16.5 -67.5q-9 -8 -30 -19.5t-50 -11.5zM139 754q-29 0 -50 21t-21 50q0 30 21 50.5t50 20.5t50 -20.5t21 -50.5q0 -29 -21 -50t-50 -21z" />
    <glyph glyph-name="dotlessi" unicode="&#x131;" horiz-adv-x="274" 
d="M209 146q0 -28 3.5 -62.5t16.5 -67.5q-9 -8 -29.5 -19.5t-49.5 -11.5q-32 0 -54.5 19t-22.5 52v315q0 29 -3.5 63t-16.5 68q9 8 29 19t48 11q34 0 56 -18.5t22 -52.5z" />
    <glyph glyph-name="Jcircumflex" unicode="&#x134;" horiz-adv-x="499" 
d="M214 -14q-66 0 -104.5 17t-55.5 44t-17 56q0 34 19 61.5t60 27.5q22 0 36 -7t23 -23q-8 -16 -12 -31t-4 -32t7 -32t19.5 -24.5t28.5 -9.5q29 0 43 21t18.5 55t4.5 73v409q0 20 1 37.5t8 27.5q-16 1 -41 1.5t-38 1.5q-18 0 -34 -8.5t-16 -32.5q0 -23 10 -37.5t22 -22.5
q-10 -8 -24.5 -12t-31.5 -4q-30 0 -56 21t-26 62t30 64t88 23q20 0 42.5 -1.5t49 -2.5t57.5 -2q29 0 56.5 2t48.5 4q-2 -11 -4 -28.5t-2 -50.5v-434q0 -46 -10.5 -85t-34.5 -67.5t-63.5 -44.5t-97.5 -16zM282 901l139 -134q0 -4 -8.5 -15t-15.5 -14l-149 79l-150 -79
q-6 3 -14.5 14t-9.5 15l139 134q6 3 20.5 4t28.5 0.5t20 -4.5z" />
    <glyph glyph-name="jcircumflex" unicode="&#x135;" horiz-adv-x="267" 
d="M20 -227q-67 0 -98.5 25.5t-31.5 62.5q0 26 17.5 47t53.5 21q19 0 30.5 -7t19.5 -24q-7 -11 -11.5 -23.5t-4.5 -23.5q0 -12 4 -20t11.5 -12t15.5 -4q24 0 33.5 27.5t11 71.5t1.5 94l1 362q0 23 -3.5 60t-16.5 71q14 13 34 21.5t43 8.5q33 0 55.5 -18.5t22.5 -52.5v-477
q0 -44 -10 -82t-32.5 -67t-58.5 -45t-87 -16zM1 568q-8 0 -23 5.5t-16 9.5l131 160q6 3 20.5 4t28.5 0t20 -4l131 -160q-1 -4 -17 -9.5t-24 -5.5l-124 82z" />
    <glyph glyph-name="uni0136" unicode="&#x136;" horiz-adv-x="621" 
d="M516 -16q-43 0 -69.5 23.5t-43 58t-28.5 66.5l-27 82q-6 16 -14 33.5t-20.5 32.5t-31 24t-44.5 9h-29l-1 48q10 2 19.5 4t17.5 5q42 13 73 41t51 63t30 72t10 68t-6.5 51.5t-11.5 28.5q15 6 28 9t29 3q21 0 43.5 -7.5t37.5 -29t15 -64.5q0 -48 -24 -98.5t-76.5 -93.5
t-136.5 -71l2 11q71 -3 107 -27t55 -68l44 -102q18 -35 29.5 -49t28.5 -16q6 -1 11.5 1t12.5 6q8 -22 8 -38q0 -31 -24 -53.5t-65 -22.5zM163 -15q-34 0 -57 19t-23 52v495q0 29 -3.5 62.5t-16.5 67.5q9 8 30 19t50 11q34 0 56.5 -18.5t22.5 -51.5l1 -495q0 -28 3.5 -62.5
t16.5 -67.5q-9 -8 -30 -19.5t-50 -11.5zM337 -285q-13 2 -23 8t-21 16q17 21 27 40.5t10 38.5q0 27 -12 41t-27.5 20t-28.5 9q0 32 22.5 55t56.5 23q30 0 54 -21.5t24 -73.5q0 -39 -19 -77t-63 -79z" />
    <glyph glyph-name="uni0137" unicode="&#x137;" horiz-adv-x="552" 
d="M141 -15q-47 0 -61.5 23t-14.5 55v599q-1 34 21.5 52.5t56.5 18.5q30 0 50 -11t28 -19q-9 -45 -12.5 -77.5t-5 -59t-1.5 -52.5t-2 -58l-1 -77l-7 13q14 42 38.5 73t61 48.5t84.5 17.5q69 0 98 -33.5t29 -77.5q0 -41 -21 -74t-53.5 -58t-69.5 -43q19 -4 33.5 -19.5
t28.5 -38.5l26 -44q13 -22 20.5 -32.5t23.5 -10.5q6 0 13.5 2t14.5 7q10 -10 14 -22t4 -23q0 -32 -28 -55.5t-71 -23.5q-34 0 -62.5 19t-45.5 62l-62 150q-19 -5 -35 -9t-32 -6q0 -40 0.5 -67.5t2.5 -47t7 -36t13 -35.5q-12 -10 -31 -20t-52 -10zM201 250q28 8 56.5 22.5
t52.5 35t38.5 46.5t14.5 57q0 29 -12 40.5t-30 11.5q-33 0 -60.5 -29t-43.5 -77.5t-16 -106.5zM278 -285q-13 2 -23 8t-21 16q17 21 27 40.5t10 38.5q0 27 -12 41t-27.5 20t-28.5 9q0 32 22.5 55t56.5 23q30 0 54 -21.5t24 -73.5q0 -39 -19 -77t-63 -79z" />
    <glyph glyph-name="kgreenlandic" unicode="&#x138;" horiz-adv-x="596" 
d="M485 -14q-49 0 -79.5 28t-41.5 68l-18 62q-6 21 -17.5 43t-32 37t-52.5 15h-40l-1 48q7 1 22 4t24 4q49 12 79.5 36t45.5 54.5t15 59.5q0 23 -6.5 44.5t-11.5 28.5q15 7 28 10t27 3q17 0 40 -7t40.5 -26t17.5 -55q0 -45 -29.5 -83t-78 -62.5t-106.5 -29.5l2 11
q33 15 64 3.5t55 -38.5t36 -61l11 -34q14 -40 29 -50.5t25 -11.5q8 -1 13.5 1t10.5 6q5 -10 6.5 -20t1.5 -19q0 -28 -18.5 -48.5t-60.5 -20.5zM158 -15q-34 0 -57 19t-23 52v314q0 29 -3.5 63t-16.5 68q9 8 30 19t50 11q35 0 57.5 -18.5t22.5 -52.5v-314q0 -28 3.5 -62.5
t16.5 -67.5q-9 -8 -30 -19.5t-50 -11.5z" />
    <glyph glyph-name="Lacute" unicode="&#x139;" horiz-adv-x="508" 
d="M222 641l1 -567q44 1 90.5 9.5t87.5 21.5t66 28q13 -9 19.5 -30t6.5 -45t-8.5 -41t-25.5 -17h-296q-34 0 -57 18.5t-23 52.5v480q0 29 -3.5 62.5t-16.5 67.5q9 8 30 19t50 11q34 0 56.5 -18.5t22.5 -51.5zM320 827l-200 -80q-7 3 -14.5 14.5t-6.5 15.5l145 134
q13 -5 28.5 -19.5t29 -32t18.5 -32.5z" />
    <glyph glyph-name="lacute" unicode="&#x13a;" horiz-adv-x="293" 
d="M188 -10q-61 0 -92.5 38.5t-31.5 104.5v529q0 34 22.5 52.5t56.5 18.5q30 0 50 -11t28 -19q-13 -48 -16.5 -90.5t-3.5 -104.5v-363q0 -26 9 -39.5t26 -13.5q7 0 16 3t13 10q8 -10 11 -22t3 -21q0 -31 -27 -51.5t-64 -20.5zM317 908l-162 -143q-12 1 -27 3t-21 6l90 160
q16 3 42.5 -2t49.5 -12t28 -12z" />
    <glyph glyph-name="uni013B" unicode="&#x13b;" horiz-adv-x="508" 
d="M222 641l1 -567q44 1 90.5 9.5t87.5 21.5t66 28q13 -9 19.5 -30t6.5 -45t-8.5 -41t-25.5 -17h-296q-34 0 -57 18.5t-23 52.5v480q0 29 -3.5 62.5t-16.5 67.5q9 8 30 19t50 11q34 0 56.5 -18.5t22.5 -51.5zM284 -285q-13 2 -23 8t-21 16q17 21 27 40.5t10 38.5
q0 27 -12 41t-27.5 20t-28.5 9q0 32 22.5 55t56.5 23q30 0 54 -21.5t24 -73.5q0 -39 -19 -77t-63 -79z" />
    <glyph glyph-name="uni013C" unicode="&#x13c;" horiz-adv-x="293" 
d="M188 -10q-61 0 -92.5 38.5t-31.5 104.5v529q0 34 22.5 52.5t56.5 18.5q30 0 50 -11t28 -19q-13 -48 -16.5 -90.5t-3.5 -104.5v-363q0 -26 9 -39.5t26 -13.5q7 0 16 3t13 10q8 -10 11 -22t3 -21q0 -31 -27 -51.5t-64 -20.5zM175 -285q-13 2 -23 8t-21 16q17 21 27 40.5
t10 38.5q0 27 -12 41t-27.5 20t-28.5 9q0 32 22.5 55t56.5 23q30 0 54 -21.5t24 -73.5q0 -39 -19 -77t-63 -79z" />
    <glyph glyph-name="Lcaron" unicode="&#x13d;" horiz-adv-x="508" 
d="M222 641l1 -567q44 1 90.5 9.5t87.5 21.5t66 28q13 -9 19.5 -30t6.5 -45t-8.5 -41t-25.5 -17h-296q-34 0 -57 18.5t-23 52.5v480q0 29 -3.5 62.5t-16.5 67.5q9 8 30 19t50 11q34 0 56.5 -18.5t22.5 -51.5zM306 562q5 39 2 92t-20 96q29 10 63.5 9.5t59.5 -9.5
q0 -50 -14 -100t-33 -88h-58z" />
    <glyph glyph-name="lcaron" unicode="&#x13e;" horiz-adv-x="396" 
d="M188 -10q-61 0 -92.5 38.5t-31.5 104.5v529q0 34 22.5 52.5t56.5 18.5q30 0 50 -11t28 -19q-13 -48 -16.5 -90.5t-3.5 -104.5v-363q0 -26 9 -39.5t26 -13.5q7 0 16 3t13 10q8 -10 11 -22t3 -21q0 -31 -27 -51.5t-64 -20.5zM278 570q5 39 2 92t-20 96q29 10 63.5 9.5
t59.5 -9.5q0 -50 -14 -100t-33 -88h-58z" />
    <glyph glyph-name="Ldot" unicode="&#x13f;" horiz-adv-x="508" 
d="M222 641l1 -567q44 1 90.5 9.5t87.5 21.5t66 28q13 -9 19.5 -30t6.5 -45t-8.5 -41t-25.5 -17h-296q-34 0 -57 18.5t-23 52.5v480q0 29 -3.5 62.5t-16.5 67.5q9 8 30 19t50 11q34 0 56.5 -18.5t22.5 -51.5zM400 262q-33 0 -55.5 22.5t-22.5 55.5q0 32 22.5 54.5t55.5 22.5
q32 0 54.5 -22.5t22.5 -54.5q0 -33 -22.5 -55.5t-54.5 -22.5z" />
    <glyph glyph-name="ldot" unicode="&#x140;" horiz-adv-x="293" 
d="M188 -10q-61 0 -92.5 38.5t-31.5 104.5v529q0 34 22.5 52.5t56.5 18.5q30 0 50 -11t28 -19q-13 -48 -16.5 -90.5t-3.5 -104.5v-363q0 -26 9 -39.5t26 -13.5q7 0 16 3t13 10q8 -10 11 -22t3 -21q0 -31 -27 -51.5t-64 -20.5zM325 271q-33 0 -55.5 22.5t-22.5 55.5
q0 32 22.5 54.5t55.5 22.5q32 0 54.5 -22.5t22.5 -54.5q0 -33 -22.5 -55.5t-54.5 -22.5z" />
    <glyph glyph-name="Lslash" unicode="&#x141;" horiz-adv-x="508" 
d="M-1 165l319 321q30 -8 36 -36l-320 -321q-26 6 -35 36zM222 641l1 -567q44 1 90.5 9.5t87.5 21.5t66 28q13 -9 19.5 -30t6.5 -45t-8.5 -41t-25.5 -17h-296q-34 0 -57 18.5t-23 52.5v480q0 29 -3.5 62.5t-16.5 67.5q9 8 30 19t50 11q34 0 56.5 -18.5t22.5 -51.5z" />
    <glyph glyph-name="lslash" unicode="&#x142;" horiz-adv-x="293" 
d="M-28 170l298 391l41 -29l-297 -391zM188 -10q-61 0 -92.5 38.5t-31.5 104.5v529q0 34 22.5 52.5t56.5 18.5q30 0 50 -11t28 -19q-13 -48 -16.5 -90.5t-3.5 -104.5v-363q0 -26 9 -39.5t26 -13.5q7 0 16 3t13 10q8 -10 11 -22t3 -21q0 -31 -27 -51.5t-64 -20.5z" />
    <glyph glyph-name="Nacute" unicode="&#x143;" horiz-adv-x="699" 
d="M120 -15q-15 0 -30 5t-27 13q13 34 16.5 74.5t3.5 68.5v406q0 45 -1.5 78t-5.5 64q8 9 28.5 13t41 3.5t26.5 -6.5q36 -51 81 -109.5t91 -118.5t88 -116t73 -102.5t44 -78.5l-36 440q-4 39 13 64t53 27q14 1 29.5 -3t27.5 -12q-11 -31 -13.5 -69t-2.5 -62l-1 -421
q0 -45 1.5 -77t5.5 -63q-7 -8 -25 -12.5t-37.5 -4.5t-31.5 6q-59 69 -106.5 126.5t-84.5 105.5t-65.5 87.5t-50.5 73t-38 61t-28 51.5l30 -432q3 -36 -20 -58t-49 -22zM507 827l-200 -80q-7 3 -14.5 14.5t-6.5 15.5l145 134q13 -5 28.5 -19.5t29 -32t18.5 -32.5z" />
    <glyph glyph-name="nacute" unicode="&#x144;" horiz-adv-x="588" 
d="M161 -15q-35 0 -58 21t-23 57v313q-1 29 -7 41t-19 12q-5 0 -13 -2t-13 -10q-13 20 -13 43q0 31 21 51t61 20q47 0 75 -32t28 -98v-30l-17 -31q8 60 29.5 102.5t59.5 65.5t94 23q83 0 122 -50t39 -150v-185q1 -22 4.5 -59.5t16.5 -70.5q-14 -13 -33.5 -22t-45.5 -9
q-34 0 -56.5 19t-22.5 52v253q-1 73 -14 113.5t-57 40.5q-23 0 -42 -14t-32.5 -42.5t-21 -71.5t-7.5 -100q0 -49 0.5 -82t2.5 -56.5t6.5 -42.5t13.5 -39q-9 -8 -29.5 -19t-48.5 -11zM482 714l-162 -143q-12 1 -27 3t-21 6l90 160q16 3 42.5 -2t49.5 -12t28 -12z" />
    <glyph glyph-name="uni0145" unicode="&#x145;" horiz-adv-x="699" 
d="M120 -15q-15 0 -30 5t-27 13q13 34 16.5 74.5t3.5 68.5v406q0 45 -1.5 78t-5.5 64q8 9 28.5 13t41 3.5t26.5 -6.5q36 -51 81 -109.5t91 -118.5t88 -116t73 -102.5t44 -78.5l-36 440q-4 39 13 64t53 27q14 1 29.5 -3t27.5 -12q-11 -31 -13.5 -69t-2.5 -62l-1 -421
q0 -45 1.5 -77t5.5 -63q-7 -8 -25 -12.5t-37.5 -4.5t-31.5 6q-59 69 -106.5 126.5t-84.5 105.5t-65.5 87.5t-50.5 73t-38 61t-28 51.5l30 -432q3 -36 -20 -58t-49 -22zM354 -285q-13 2 -23 8t-21 16q17 21 27 40.5t10 38.5q0 27 -12 41t-27.5 20t-28.5 9q0 32 22.5 55
t56.5 23q30 0 54 -21.5t24 -73.5q0 -39 -19 -77t-63 -79z" />
    <glyph glyph-name="uni0146" unicode="&#x146;" horiz-adv-x="588" 
d="M161 -15q-35 0 -58 21t-23 57v313q-1 29 -7 41t-19 12q-5 0 -13 -2t-13 -10q-13 20 -13 43q0 31 21 51t61 20q47 0 75 -32t28 -98v-30l-17 -31q8 60 29.5 102.5t59.5 65.5t94 23q83 0 122 -50t39 -150v-185q1 -22 4.5 -59.5t16.5 -70.5q-14 -13 -33.5 -22t-45.5 -9
q-34 0 -56.5 19t-22.5 52v253q-1 73 -14 113.5t-57 40.5q-23 0 -42 -14t-32.5 -42.5t-21 -71.5t-7.5 -100q0 -49 0.5 -82t2.5 -56.5t6.5 -42.5t13.5 -39q-9 -8 -29.5 -19t-48.5 -11zM314 -285q-13 2 -23 8t-21 16q17 21 27 40.5t10 38.5q0 27 -12 41t-27.5 20t-28.5 9
q0 32 22.5 55t56.5 23q30 0 54 -21.5t24 -73.5q0 -39 -19 -77t-63 -79z" />
    <glyph glyph-name="Ncaron" unicode="&#x147;" horiz-adv-x="699" 
d="M120 -15q-15 0 -30 5t-27 13q13 34 16.5 74.5t3.5 68.5v406q0 45 -1.5 78t-5.5 64q8 9 28.5 13t41 3.5t26.5 -6.5q36 -51 81 -109.5t91 -118.5t88 -116t73 -102.5t44 -78.5l-36 440q-4 39 13 64t53 27q14 1 29.5 -3t27.5 -12q-11 -31 -13.5 -69t-2.5 -62l-1 -421
q0 -45 1.5 -77t5.5 -63q-7 -8 -25 -12.5t-37.5 -4.5t-31.5 6q-59 69 -106.5 126.5t-84.5 105.5t-65.5 87.5t-50.5 73t-38 61t-28 51.5l30 -432q3 -36 -20 -58t-49 -22zM387 753q-6 -3 -20 -4t-28.5 0t-20.5 4l-139 134q1 5 9.5 15.5t14.5 13.5l150 -79l149 79
q7 -3 15.5 -13.5t8.5 -15.5z" />
    <glyph glyph-name="ncaron" unicode="&#x148;" horiz-adv-x="588" 
d="M161 -15q-35 0 -58 21t-23 57v313q-1 29 -7 41t-19 12q-5 0 -13 -2t-13 -10q-13 20 -13 43q0 31 21 51t61 20q47 0 75 -32t28 -98v-30l-17 -31q8 60 29.5 102.5t59.5 65.5t94 23q83 0 122 -50t39 -150v-185q1 -22 4.5 -59.5t16.5 -70.5q-14 -13 -33.5 -22t-45.5 -9
q-34 0 -56.5 19t-22.5 52v253q-1 73 -14 113.5t-57 40.5q-23 0 -42 -14t-32.5 -42.5t-21 -71.5t-7.5 -100q0 -49 0.5 -82t2.5 -56.5t6.5 -42.5t13.5 -39q-9 -8 -29.5 -19t-48.5 -11zM184 752l127 -82l124 82q8 0 24 -5.5t17 -9.5l-131 -160q-6 -3 -20 -4t-28.5 0.5
t-20.5 3.5l-131 160q1 4 16 9.5t23 5.5z" />
    <glyph glyph-name="napostrophe" unicode="&#x149;" horiz-adv-x="726" 
d="M6 623l30 -193h57l36 193q-25 9 -59.5 9t-63.5 -9zM287 -15q-35 0 -58 21t-23 57v313q-1 29 -7 41t-19 12q-5 0 -13 -2t-13 -10q-13 20 -13 43q0 31 21 51t61 20q47 0 75 -32t28 -98v-30l-17 -31q8 60 29.5 102.5t59.5 65.5t94 23q83 0 122 -50t39 -150v-185
q1 -22 4.5 -59.5t16.5 -70.5q-14 -13 -33.5 -22t-45.5 -9q-34 0 -56.5 19t-22.5 52v253q-1 73 -14 113.5t-57 40.5q-23 0 -42 -14t-32.5 -42.5t-21 -71.5t-7.5 -100q0 -49 0.5 -82t2.5 -56.5t6.5 -42.5t13.5 -39q-9 -8 -29.5 -19t-48.5 -11z" />
    <glyph glyph-name="Omacron" unicode="&#x14c;" horiz-adv-x="666" 
d="M333 -14q-141 0 -213.5 91t-72.5 272t72.5 272t213.5 91t213.5 -91t72.5 -272t-72.5 -272t-213.5 -91zM333 33q70 0 101 75t31 241t-31 241t-101 75q-69 0 -100.5 -75t-31.5 -241t31.5 -241t100.5 -75zM192 840h284q9 -30 0 -61h-284q-9 31 0 61z" />
    <glyph glyph-name="omacron" unicode="&#x14d;" horiz-adv-x="562" 
d="M281 -14q-117 0 -182 72t-65 200q0 129 65 201t182 72t182 -72t65 -201q0 -128 -65 -200t-182 -72zM281 32q51 0 75 57t24 169q0 113 -24 170t-75 57q-52 0 -76 -57t-24 -170q0 -112 24 -169t76 -57zM140 662h284q9 -31 0 -61h-284q-9 30 0 61z" />
    <glyph glyph-name="Ohungarumlaut" unicode="&#x150;" horiz-adv-x="666" 
d="M333 -14q-141 0 -213.5 91t-72.5 272t72.5 272t213.5 91t213.5 -91t72.5 -272t-72.5 -272t-213.5 -91zM333 33q70 0 101 75t31 241t-31 241t-101 75q-69 0 -100.5 -75t-31.5 -241t31.5 -241t100.5 -75zM404 866l-171 -130q-7 1 -17 10.5t-12 12.5l104 167q14 -1 33 -10.5
t36.5 -23t26.5 -26.5zM564 863l-172 -130q-7 2 -16.5 11t-11.5 12l104 167q14 -1 33 -10.5t36.5 -23t26.5 -26.5z" />
    <glyph glyph-name="ohungarumlaut" unicode="&#x151;" horiz-adv-x="562" 
d="M281 -14q-117 0 -182 72t-65 200q0 129 65 201t182 72t182 -72t65 -201q0 -128 -65 -200t-182 -72zM281 32q51 0 75 57t24 169q0 113 -24 170t-75 57q-52 0 -76 -57t-24 -170q0 -112 24 -169t76 -57zM352 692l-173 -139q-7 2 -17 11t-12 12l116 166q20 -1 46 -15.5
t40 -34.5zM517 693l-173 -140q-7 2 -17 11.5t-12 12.5l117 165q20 -1 45 -15.5t40 -33.5z" />
    <glyph glyph-name="OE" unicode="&#x152;" horiz-adv-x="921" 
d="M546 280q-7 -65 -19.5 -119t-35 -93t-60.5 -60.5t-98 -21.5q-141 0 -213.5 91t-72.5 272t72.5 272t213.5 91q77 0 118.5 -30t62 -87t31.5 -139l-92 5q-4 79 -18 123t-39 62.5t-63 18.5q-69 0 -100.5 -75t-31.5 -241t31.5 -241t100.5 -75q59 0 93.5 56.5t40.5 189.5z
M530 0q-34 0 -57 18.5t-23 52.5v462q0 29 -3.5 62.5t-16.5 67.5q26 23 53 29t74 6h289q14 0 19 -16t2 -38.5t-12.5 -42t-23.5 -25.5q-52 24 -114.5 39t-127.5 17l1 -566q44 2 96 11t98 22t72 26q13 -8 19.5 -28t6.5 -42.5t-8.5 -38.5t-25.5 -16h-318zM564 324v74h237
q5 -19 4.5 -38.5t-4.5 -35.5h-237z" />
    <glyph glyph-name="oe" unicode="&#x153;" horiz-adv-x="873" 
d="M281 -14q-117 0 -182 72t-65 200q0 129 65 201t182 72q61 0 110 -26.5t73 -70.5l-17 1q22 41 73.5 68.5t116.5 27.5q58 0 104 -17t73.5 -50.5t27.5 -84.5q0 -74 -59.5 -113.5t-155.5 -39.5q-23 0 -47.5 1t-50.5 3q5 -59 23.5 -94t49.5 -50t72 -15q56 0 92 22t52 53
q11 -4 15.5 -17t-6.5 -41q-20 -49 -70 -75.5t-121 -26.5q-62 0 -113 26.5t-74 69.5h17q-25 -43 -74 -69.5t-111 -26.5zM281 32q51 0 75 57t24 169q0 113 -24 170t-75 57q-52 0 -76 -57t-24 -170q0 -112 24 -169t76 -57zM529 278q10 -1 17.5 -1.5t15.5 -0.5q36 0 66.5 12.5
t49 40.5t18.5 73q0 34 -9.5 51.5t-23.5 24.5t-30 7q-33 0 -57 -27t-36.5 -73.5t-10.5 -106.5z" />
    <glyph glyph-name="Racute" unicode="&#x154;" horiz-adv-x="630" 
d="M163 -15q-34 0 -57 19t-23 52v495q0 16 -1.5 38t-5.5 46t-13 46q32 15 78 23t113 8q143 0 219.5 -41.5t76.5 -139.5q0 -64 -32 -110t-89 -70.5t-133 -23.5l19 19q52 1 84 -10t52.5 -32t36.5 -49l41 -93q15 -36 28.5 -52.5t28.5 -17.5q5 0 11.5 2t12.5 6q5 -11 6.5 -20.5
t1.5 -17.5q0 -26 -14 -43t-33 -25t-35 -8q-43 0 -68.5 18t-43 52.5t-36.5 81.5l-28 76q-10 25 -21.5 46.5t-31 35t-53.5 13.5l-46 1l-11 50q16 -1 32 -2.5t32 -0.5q47 2 77 24t44.5 59t14.5 82q0 60 -29.5 101.5t-101.5 41.5h-23.5t-19.5 -1v-526q0 -16 1.5 -37t5.5 -42.5
t13 -42.5q-9 -8 -30 -19.5t-50 -11.5zM464 827l-200 -80q-7 3 -14.5 14.5t-6.5 15.5l145 134q13 -5 28.5 -19.5t29 -32t18.5 -32.5z" />
    <glyph glyph-name="racute" unicode="&#x155;" horiz-adv-x="473" 
d="M160 -11q-31 0 -55.5 20.5t-24.5 57.5v309q0 29 -6.5 41t-19.5 12q-5 0 -13 -2t-13 -10q-13 20 -13 43q0 31 21 51t61 20q48 0 76.5 -34t26.5 -105v-26l-12 10q14 79 49.5 117t93.5 38q57 0 93.5 -30.5t36.5 -84.5q0 -39 -24 -64.5t-60 -26.5q-44 0 -63 22
q11 20 14.5 34.5t3.5 34.5q0 25 -10 38.5t-31 13.5q-23 0 -40 -25.5t-26 -77.5t-9 -130q0 -47 0.5 -79.5t2.5 -55.5t6.5 -42t13.5 -39q-9 -8 -29.5 -18.5t-49.5 -11.5zM387 714l-162 -143q-12 1 -27 3t-21 6l90 160q16 3 42.5 -2t49.5 -12t28 -12z" />
    <glyph glyph-name="uni0156" unicode="&#x156;" horiz-adv-x="630" 
d="M163 -15q-34 0 -57 19t-23 52v495q0 16 -1.5 38t-5.5 46t-13 46q32 15 78 23t113 8q143 0 219.5 -41.5t76.5 -139.5q0 -64 -32 -110t-89 -70.5t-133 -23.5l19 19q52 1 84 -10t52.5 -32t36.5 -49l41 -93q15 -36 28.5 -52.5t28.5 -17.5q5 0 11.5 2t12.5 6q5 -11 6.5 -20.5
t1.5 -17.5q0 -26 -14 -43t-33 -25t-35 -8q-43 0 -68.5 18t-43 52.5t-36.5 81.5l-28 76q-10 25 -21.5 46.5t-31 35t-53.5 13.5l-46 1l-11 50q16 -1 32 -2.5t32 -0.5q47 2 77 24t44.5 59t14.5 82q0 60 -29.5 101.5t-101.5 41.5h-23.5t-19.5 -1v-526q0 -16 1.5 -37t5.5 -42.5
t13 -42.5q-9 -8 -30 -19.5t-50 -11.5zM345 -285q-13 2 -23 8t-21 16q17 21 27 40.5t10 38.5q0 27 -12 41t-27.5 20t-28.5 9q0 32 22.5 55t56.5 23q30 0 54 -21.5t24 -73.5q0 -39 -19 -77t-63 -79z" />
    <glyph glyph-name="uni0157" unicode="&#x157;" horiz-adv-x="473" 
d="M160 -11q-31 0 -55.5 20.5t-24.5 57.5v309q0 29 -6.5 41t-19.5 12q-5 0 -13 -2t-13 -10q-13 20 -13 43q0 31 21 51t61 20q48 0 76.5 -34t26.5 -105v-26l-12 10q14 79 49.5 117t93.5 38q57 0 93.5 -30.5t36.5 -84.5q0 -39 -24 -64.5t-60 -26.5q-44 0 -63 22
q11 20 14.5 34.5t3.5 34.5q0 25 -10 38.5t-31 13.5q-23 0 -40 -25.5t-26 -77.5t-9 -130q0 -47 0.5 -79.5t2.5 -55.5t6.5 -42t13.5 -39q-9 -8 -29.5 -18.5t-49.5 -11.5zM161 -285q-13 2 -23 8t-21 16q17 21 27 40.5t10 38.5q0 27 -12 41t-27.5 20t-28.5 9q0 32 22.5 55
t56.5 23q30 0 54 -21.5t24 -73.5q0 -39 -19 -77t-63 -79z" />
    <glyph glyph-name="Rcaron" unicode="&#x158;" horiz-adv-x="630" 
d="M163 -15q-34 0 -57 19t-23 52v495q0 16 -1.5 38t-5.5 46t-13 46q32 15 78 23t113 8q143 0 219.5 -41.5t76.5 -139.5q0 -64 -32 -110t-89 -70.5t-133 -23.5l19 19q52 1 84 -10t52.5 -32t36.5 -49l41 -93q15 -36 28.5 -52.5t28.5 -17.5q5 0 11.5 2t12.5 6q5 -11 6.5 -20.5
t1.5 -17.5q0 -26 -14 -43t-33 -25t-35 -8q-43 0 -68.5 18t-43 52.5t-36.5 81.5l-28 76q-10 25 -21.5 46.5t-31 35t-53.5 13.5l-46 1l-11 50q16 -1 32 -2.5t32 -0.5q47 2 77 24t44.5 59t14.5 82q0 60 -29.5 101.5t-101.5 41.5h-23.5t-19.5 -1v-526q0 -16 1.5 -37t5.5 -42.5
t13 -42.5q-9 -8 -30 -19.5t-50 -11.5zM344 753q-6 -3 -20 -4t-28.5 0t-20.5 4l-139 134q1 5 9.5 15.5t14.5 13.5l150 -79l149 79q7 -3 15.5 -13.5t8.5 -15.5z" />
    <glyph glyph-name="rcaron" unicode="&#x159;" horiz-adv-x="473" 
d="M160 -11q-31 0 -55.5 20.5t-24.5 57.5v309q0 29 -6.5 41t-19.5 12q-5 0 -13 -2t-13 -10q-13 20 -13 43q0 31 21 51t61 20q48 0 76.5 -34t26.5 -105v-26l-12 10q14 79 49.5 117t93.5 38q57 0 93.5 -30.5t36.5 -84.5q0 -39 -24 -64.5t-60 -26.5q-44 0 -63 22
q11 20 14.5 34.5t3.5 34.5q0 25 -10 38.5t-31 13.5q-23 0 -40 -25.5t-26 -77.5t-9 -130q0 -47 0.5 -79.5t2.5 -55.5t6.5 -42t13.5 -39q-9 -8 -29.5 -18.5t-49.5 -11.5zM89 752l127 -82l124 82q8 0 24 -5.5t17 -9.5l-131 -160q-6 -3 -20 -4t-28.5 0.5t-20.5 3.5l-131 160
q1 4 16 9.5t23 5.5z" />
    <glyph glyph-name="Sacute" unicode="&#x15a;" horiz-adv-x="568" 
d="M273 -15q-81 0 -134 18.5t-79 50.5t-26 72q0 23 10.5 42t35.5 28.5t69 2.5q-3 -12 -2.5 -26t2.5 -27q5 -26 21 -52t46.5 -43t76.5 -17q44 0 76 24.5t32 76.5q0 34 -15 59t-45.5 47t-75.5 47q-64 37 -110 70.5t-71 75t-25 99.5q0 65 33 104t87.5 57t118.5 18
q95 0 155 -28.5t60 -87.5q0 -25 -15.5 -44t-56.5 -20q-17 -2 -38 2q1 16 -1.5 31.5t-7.5 28.5q-5 19 -18.5 35t-36.5 26t-57 10q-20 0 -42 -7t-37 -25t-15 -51q0 -30 13 -55t46.5 -50.5t94.5 -59.5q47 -25 91.5 -56t73.5 -73.5t29 -103.5q0 -41 -16 -77t-49 -63.5t-82.5 -43
t-115.5 -15.5zM444 827l-200 -80q-7 3 -14.5 14.5t-6.5 15.5l145 134q13 -5 28.5 -19.5t29 -32t18.5 -32.5z" />
    <glyph glyph-name="sacute" unicode="&#x15b;" horiz-adv-x="477" 
d="M221 -14q-65 0 -107.5 15t-63.5 41t-21 60q0 18 9 36.5t31 29.5t61 4q-3 -14 -2.5 -27t4.5 -27q5 -30 30.5 -56.5t77.5 -26.5q36 0 61 14.5t25 45.5q0 26 -16.5 43.5t-43 31.5t-56.5 28q-38 18 -76.5 40.5t-63.5 57t-25 88.5q0 53 28 85.5t74 47.5t99 15q80 0 132 -24
t52 -73q0 -23 -14.5 -42.5t-51.5 -20.5q-10 -1 -18.5 0t-16.5 2q1 14 -0.5 30.5t-8.5 29.5q-8 23 -28 37t-51 14q-19 0 -35.5 -5.5t-27 -17.5t-10.5 -31q0 -26 17 -45.5t45 -34.5t59 -31q29 -14 58 -29.5t53.5 -35.5t39 -45.5t14.5 -60.5q0 -40 -23 -77.5t-74 -61.5
t-136 -24zM408 715l-162 -143q-12 1 -27 3t-21 6l90 160q16 3 42.5 -2t49.5 -12t28 -12z" />
    <glyph glyph-name="Scircumflex" unicode="&#x15c;" horiz-adv-x="568" 
d="M273 -15q-81 0 -134 18.5t-79 50.5t-26 72q0 23 10.5 42t35.5 28.5t69 2.5q-3 -12 -2.5 -26t2.5 -27q5 -26 21 -52t46.5 -43t76.5 -17q44 0 76 24.5t32 76.5q0 34 -15 59t-45.5 47t-75.5 47q-64 37 -110 70.5t-71 75t-25 99.5q0 65 33 104t87.5 57t118.5 18
q95 0 155 -28.5t60 -87.5q0 -25 -15.5 -44t-56.5 -20q-17 -2 -38 2q1 16 -1.5 31.5t-7.5 28.5q-5 19 -18.5 35t-36.5 26t-57 10q-20 0 -42 -7t-37 -25t-15 -51q0 -30 13 -55t46.5 -50.5t94.5 -59.5q47 -25 91.5 -56t73.5 -73.5t29 -103.5q0 -41 -16 -77t-49 -63.5t-82.5 -43
t-115.5 -15.5zM319 901l139 -134q0 -4 -8.5 -15t-15.5 -14l-149 79l-150 -79q-6 3 -14.5 14t-9.5 15l139 134q6 3 20.5 4t28.5 0.5t20 -4.5z" />
    <glyph glyph-name="scircumflex" unicode="&#x15d;" horiz-adv-x="477" 
d="M221 -14q-65 0 -107.5 15t-63.5 41t-21 60q0 18 9 36.5t31 29.5t61 4q-3 -14 -2.5 -27t4.5 -27q5 -30 30.5 -56.5t77.5 -26.5q36 0 61 14.5t25 45.5q0 26 -16.5 43.5t-43 31.5t-56.5 28q-38 18 -76.5 40.5t-63.5 57t-25 88.5q0 53 28 85.5t74 47.5t99 15q80 0 132 -24
t52 -73q0 -23 -14.5 -42.5t-51.5 -20.5q-10 -1 -18.5 0t-16.5 2q1 14 -0.5 30.5t-8.5 29.5q-8 23 -28 37t-51 14q-19 0 -35.5 -5.5t-27 -17.5t-10.5 -31q0 -26 17 -45.5t45 -34.5t59 -31q29 -14 58 -29.5t53.5 -35.5t39 -45.5t14.5 -60.5q0 -40 -23 -77.5t-74 -61.5
t-136 -24zM107 569q-8 0 -23 5.5t-16 9.5l131 160q6 3 20.5 4t28.5 0t20 -4l131 -160q-1 -4 -17 -9.5t-24 -5.5l-124 82z" />
    <glyph glyph-name="Scedilla" unicode="&#x15e;" horiz-adv-x="568" 
d="M273 -15q-81 0 -134 18.5t-79 50.5t-26 72q0 23 10.5 42t35.5 28.5t69 2.5q-3 -12 -2.5 -26t2.5 -27q5 -26 21 -52t46.5 -43t76.5 -17q44 0 76 24.5t32 76.5q0 34 -15 59t-45.5 47t-75.5 47q-64 37 -110 70.5t-71 75t-25 99.5q0 65 33 104t87.5 57t118.5 18
q95 0 155 -28.5t60 -87.5q0 -25 -15.5 -44t-56.5 -20q-17 -2 -38 2q1 16 -1.5 31.5t-7.5 28.5q-5 19 -18.5 35t-36.5 26t-57 10q-20 0 -42 -7t-37 -25t-15 -51q0 -30 13 -55t46.5 -50.5t94.5 -59.5q47 -25 91.5 -56t73.5 -73.5t29 -103.5q0 -41 -16 -77t-49 -63.5t-82.5 -43
t-115.5 -15.5zM313 17l-13 -74q51 1 82 -18.5t31 -56.5q0 -42 -32.5 -68.5t-93.5 -26.5q-45 0 -67.5 12t-32.5 23q-2 10 2.5 25t9.5 18q5 -4 18 -14t40 -10q20 0 30.5 11t10.5 30t-14.5 32.5t-45.5 9.5l20 107h55z" />
    <glyph glyph-name="scedilla" unicode="&#x15f;" horiz-adv-x="477" 
d="M221 -14q-65 0 -107.5 15t-63.5 41t-21 60q0 18 9 36.5t31 29.5t61 4q-3 -14 -2.5 -27t4.5 -27q5 -30 30.5 -56.5t77.5 -26.5q36 0 61 14.5t25 45.5q0 26 -16.5 43.5t-43 31.5t-56.5 28q-38 18 -76.5 40.5t-63.5 57t-25 88.5q0 53 28 85.5t74 47.5t99 15q80 0 132 -24
t52 -73q0 -23 -14.5 -42.5t-51.5 -20.5q-10 -1 -18.5 0t-16.5 2q1 14 -0.5 30.5t-8.5 29.5q-8 23 -28 37t-51 14q-19 0 -35.5 -5.5t-27 -17.5t-10.5 -31q0 -26 17 -45.5t45 -34.5t59 -31q29 -14 58 -29.5t53.5 -35.5t39 -45.5t14.5 -60.5q0 -40 -23 -77.5t-74 -61.5
t-136 -24zM267 17l-13 -74q51 1 82 -18.5t31 -56.5q0 -42 -32.5 -68.5t-93.5 -26.5q-45 0 -67.5 12t-32.5 23q-2 10 2.5 25t9.5 18q5 -4 18 -14t40 -10q20 0 30.5 11t10.5 30t-14.5 32.5t-45.5 9.5l20 107h55z" />
    <glyph glyph-name="Scaron" unicode="&#x160;" horiz-adv-x="568" 
d="M273 -15q-81 0 -134 18.5t-79 50.5t-26 72q0 23 10.5 42t35.5 28.5t69 2.5q-3 -12 -2.5 -26t2.5 -27q5 -26 21 -52t46.5 -43t76.5 -17q44 0 76 24.5t32 76.5q0 34 -15 59t-45.5 47t-75.5 47q-64 37 -110 70.5t-71 75t-25 99.5q0 65 33 104t87.5 57t118.5 18
q95 0 155 -28.5t60 -87.5q0 -25 -15.5 -44t-56.5 -20q-17 -2 -38 2q1 16 -1.5 31.5t-7.5 28.5q-5 19 -18.5 35t-36.5 26t-57 10q-20 0 -42 -7t-37 -25t-15 -51q0 -30 13 -55t46.5 -50.5t94.5 -59.5q47 -25 91.5 -56t73.5 -73.5t29 -103.5q0 -41 -16 -77t-49 -63.5t-82.5 -43
t-115.5 -15.5zM324 753q-6 -3 -20 -4t-28.5 0t-20.5 4l-139 134q1 5 9.5 15.5t14.5 13.5l150 -79l149 79q7 -3 15.5 -13.5t8.5 -15.5z" />
    <glyph glyph-name="scaron" unicode="&#x161;" horiz-adv-x="477" 
d="M221 -14q-65 0 -107.5 15t-63.5 41t-21 60q0 18 9 36.5t31 29.5t61 4q-3 -14 -2.5 -27t4.5 -27q5 -30 30.5 -56.5t77.5 -26.5q36 0 61 14.5t25 45.5q0 26 -16.5 43.5t-43 31.5t-56.5 28q-38 18 -76.5 40.5t-63.5 57t-25 88.5q0 53 28 85.5t74 47.5t99 15q80 0 132 -24
t52 -73q0 -23 -14.5 -42.5t-51.5 -20.5q-10 -1 -18.5 0t-16.5 2q1 14 -0.5 30.5t-8.5 29.5q-8 23 -28 37t-51 14q-19 0 -35.5 -5.5t-27 -17.5t-10.5 -31q0 -26 17 -45.5t45 -34.5t59 -31q29 -14 58 -29.5t53.5 -35.5t39 -45.5t14.5 -60.5q0 -40 -23 -77.5t-74 -61.5
t-136 -24zM110 753l127 -82l124 82q8 0 24 -5.5t17 -9.5l-131 -160q-6 -3 -20 -4t-28.5 0.5t-20.5 3.5l-131 160q1 4 16 9.5t23 5.5z" />
    <glyph glyph-name="uni0162" unicode="&#x162;" horiz-adv-x="557" 
d="M289 -15q-34 0 -57 19t-23 52v621l139 -12l1 -519q0 -28 3.5 -62.5t16.5 -67.5q-9 -8 -30 -19.5t-50 -11.5zM49 576q-14 6 -23.5 25.5t-12.5 42t2 38.5t19 16h490q14 0 19 -16t1.5 -38.5t-13 -42t-23.5 -25.5q-29 16 -68 33.5t-81 29.5t-80 12t-80 -12t-80.5 -29.5
t-69.5 -33.5zM323 17l-13 -74q51 1 82 -18.5t31 -56.5q0 -42 -32.5 -68.5t-93.5 -26.5q-45 0 -67.5 12t-32.5 23q-2 10 2.5 25t9.5 18q5 -4 18 -14t40 -10q20 0 30.5 11t10.5 30t-14.5 32.5t-45.5 9.5l20 107h55z" />
    <glyph glyph-name="uni0163" unicode="&#x163;" horiz-adv-x="355" 
d="M203 -10q-61 0 -93 38.5t-32 104.5v447q0 33 22.5 51.5t56.5 18.5q30 0 50 -11t28 -19q-13 -48 -16.5 -90t-3.5 -104v-281q0 -26 11.5 -39.5t33.5 -13.5q10 0 22.5 3t16.5 10q8 -10 11 -22t3 -21q0 -31 -29.5 -51.5t-80.5 -20.5zM3 451l1 33q1 17 11.5 24.5t24.5 7.5h174
q4 0 21.5 0.5t40 1t40 1t21.5 1.5l-1 -32q-1 -16 -11 -24.5t-24 -8.5h-238q-10 0 -30 -1t-30 -3zM225 17l-13 -74q51 1 82 -18.5t31 -56.5q0 -42 -32.5 -68.5t-93.5 -26.5q-45 0 -67.5 12t-32.5 23q-2 10 2.5 25t9.5 18q5 -4 18 -14t40 -10q20 0 30.5 11t10.5 30t-14.5 32.5
t-45.5 9.5l20 107h55z" />
    <glyph glyph-name="Tcaron" unicode="&#x164;" horiz-adv-x="557" 
d="M289 -15q-34 0 -57 19t-23 52v621l139 -12l1 -519q0 -28 3.5 -62.5t16.5 -67.5q-9 -8 -30 -19.5t-50 -11.5zM49 576q-14 6 -23.5 25.5t-12.5 42t2 38.5t19 16h490q14 0 19 -16t1.5 -38.5t-13 -42t-23.5 -25.5q-29 16 -68 33.5t-81 29.5t-80 12t-80 -12t-80.5 -29.5
t-69.5 -33.5zM314 753q-6 -3 -20 -4t-28.5 0t-20.5 4l-139 134q1 5 9.5 15.5t14.5 13.5l150 -79l149 79q7 -3 15.5 -13.5t8.5 -15.5z" />
    <glyph glyph-name="tcaron" unicode="&#x165;" horiz-adv-x="406" 
d="M203 -10q-61 0 -93 38.5t-32 104.5v447q0 33 22.5 51.5t56.5 18.5q30 0 50 -11t28 -19q-13 -48 -16.5 -90t-3.5 -104v-281q0 -26 11.5 -39.5t33.5 -13.5q10 0 22.5 3t16.5 10q8 -10 11 -22t3 -21q0 -31 -29.5 -51.5t-80.5 -20.5zM3 451l1 33q1 17 11.5 24.5t24.5 7.5h174
q4 0 21.5 0.5t40 1t40 1t21.5 1.5l-1 -32q-1 -16 -11 -24.5t-24 -8.5h-238q-10 0 -30 -1t-30 -3zM277 561q5 39 2 92t-20 96q29 10 63.5 9.5t59.5 -9.5q0 -50 -14 -100t-33 -88h-58z" />
    <glyph glyph-name="Utilde" unicode="&#x168;" horiz-adv-x="676" 
d="M603 641v-334q0 -160 -66 -240.5t-199 -80.5q-127 0 -192.5 77t-65.5 244v244q0 29 -3.5 62.5t-16.5 67.5q9 8 30 19t50 11q33 0 56 -18.5t23 -51.5v-341q0 -142 28.5 -204.5t90.5 -62.5q67 0 97 68.5t30 198.5v251q0 29 -3.5 62.5t-16.5 67.5q9 8 29.5 19t49.5 11
q33 0 56 -18.5t23 -51.5zM499 873q-7 -49 -30.5 -80.5t-63.5 -31.5q-25 0 -47.5 11t-44.5 22t-46 11q-29 0 -42.5 -11t-21.5 -25q-6 -1 -15 1.5t-15 7.5q5 64 35.5 87.5t64.5 23.5q26 0 48.5 -11t45.5 -22t48 -11q26 0 37 11.5t18 24.5q10 0 16.5 -1.5t12.5 -6.5z" />
    <glyph glyph-name="utilde" unicode="&#x169;" horiz-adv-x="584" 
d="M426 531q33 0 56 -20.5t23 -57.5l1 -313q0 -28 6.5 -40t19.5 -12q5 0 13 2t13 9q13 -20 13 -42q0 -31 -21 -51t-61 -20q-47 0 -75 32t-28 97v31l17 30q-8 -60 -29.5 -102.5t-58.5 -65.5t-92 -23q-80 0 -119 46t-39 155v184q0 23 -3.5 60t-16.5 71q14 11 33 20.5t46 9.5
q34 0 56.5 -18.5t22.5 -52.5v-252q0 -52 5.5 -88t20 -54t41.5 -18q23 0 41 14.5t31.5 44t20.5 73.5t7 102q0 48 -0.5 81t-2.5 56.5t-6.5 42.5t-13.5 40q9 8 29.5 18.5t49.5 10.5zM421 685q-6 -46 -27.5 -76t-59.5 -30q-23 0 -43.5 11t-40.5 22t-42 11q-27 0 -40 -12.5
t-21 -26.5q-5 -1 -13.5 2t-13.5 7q5 59 33.5 82t59.5 23q25 0 45.5 -11.5t41 -22.5t43.5 -11q25 0 35 12t17 28q9 0 15 -1.5t11 -6.5z" />
    <glyph glyph-name="Umacron" unicode="&#x16a;" horiz-adv-x="676" 
d="M603 641v-334q0 -160 -66 -240.5t-199 -80.5q-127 0 -192.5 77t-65.5 244v244q0 29 -3.5 62.5t-16.5 67.5q9 8 30 19t50 11q33 0 56 -18.5t23 -51.5v-341q0 -142 28.5 -204.5t90.5 -62.5q67 0 97 68.5t30 198.5v251q0 29 -3.5 62.5t-16.5 67.5q9 8 29.5 19t49.5 11
q33 0 56 -18.5t23 -51.5zM197 840h284q9 -30 0 -61h-284q-9 31 0 61z" />
    <glyph glyph-name="umacron" unicode="&#x16b;" horiz-adv-x="584" 
d="M426 531q33 0 56 -20.5t23 -57.5l1 -313q0 -28 6.5 -40t19.5 -12q5 0 13 2t13 9q13 -20 13 -42q0 -31 -21 -51t-61 -20q-47 0 -75 32t-28 97v31l17 30q-8 -60 -29.5 -102.5t-58.5 -65.5t-92 -23q-80 0 -119 46t-39 155v184q0 23 -3.5 60t-16.5 71q14 11 33 20.5t46 9.5
q34 0 56.5 -18.5t22.5 -52.5v-252q0 -52 5.5 -88t20 -54t41.5 -18q23 0 41 14.5t31.5 44t20.5 73.5t7 102q0 48 -0.5 81t-2.5 56.5t-6.5 42.5t-13.5 40q9 8 29.5 18.5t49.5 10.5zM132 662h284q9 -31 0 -61h-284q-9 30 0 61z" />
    <glyph glyph-name="Ubreve" unicode="&#x16c;" horiz-adv-x="676" 
d="M603 641v-334q0 -160 -66 -240.5t-199 -80.5q-127 0 -192.5 77t-65.5 244v244q0 29 -3.5 62.5t-16.5 67.5q9 8 30 19t50 11q33 0 56 -18.5t23 -51.5v-341q0 -142 28.5 -204.5t90.5 -62.5q67 0 97 68.5t30 198.5v251q0 29 -3.5 62.5t-16.5 67.5q9 8 29.5 19t49.5 11
q33 0 56 -18.5t23 -51.5zM481 900q-7 -40 -24 -75t-46 -56t-74 -21t-75 21.5t-46 56.5t-21 73q11 2 21 4.5t20 4.5q11 -40 40.5 -55.5t64.5 -15.5q37 0 65 17t39 54q10 -2 18.5 -4t17.5 -4z" />
    <glyph glyph-name="ubreve" unicode="&#x16d;" horiz-adv-x="584" 
d="M426 531q33 0 56 -20.5t23 -57.5l1 -313q0 -28 6.5 -40t19.5 -12q5 0 13 2t13 9q13 -20 13 -42q0 -31 -21 -51t-61 -20q-47 0 -75 32t-28 97v31l17 30q-8 -60 -29.5 -102.5t-58.5 -65.5t-92 -23q-80 0 -119 46t-39 155v184q0 23 -3.5 60t-16.5 71q14 11 33 20.5t46 9.5
q34 0 56.5 -18.5t22.5 -52.5v-252q0 -52 5.5 -88t20 -54t41.5 -18q23 0 41 14.5t31.5 44t20.5 73.5t7 102q0 48 -0.5 81t-2.5 56.5t-6.5 42.5t-13.5 40q9 8 29.5 18.5t49.5 10.5zM275 664q26 0 47 8.5t38.5 25.5t29.5 42q9 -2 18.5 -6t18.5 -9q-11 -41 -30 -75t-49 -54
t-76 -20q-48 0 -79.5 21t-49 55t-25.5 73q11 8 21 11t20 4q11 -27 28.5 -43.5t40 -24.5t47.5 -8z" />
    <glyph glyph-name="Uring" unicode="&#x16e;" horiz-adv-x="676" 
d="M603 641v-334q0 -160 -66 -240.5t-199 -80.5q-127 0 -192.5 77t-65.5 244v244q0 29 -3.5 62.5t-16.5 67.5q9 8 30 19t50 11q33 0 56 -18.5t23 -51.5v-341q0 -142 28.5 -204.5t90.5 -62.5q67 0 97 68.5t30 198.5v251q0 29 -3.5 62.5t-16.5 67.5q9 8 29.5 19t49.5 11
q33 0 56 -18.5t23 -51.5zM342 921q44 0 71.5 -24t27.5 -63q-1 -41 -29 -65.5t-74 -24.5q-44 0 -71.5 23.5t-27.5 62.5q0 41 28.5 66t74.5 25zM340 884q-17 0 -26.5 -13t-9.5 -39q0 -25 9.5 -38.5t26.5 -13.5q18 0 27 13.5t9 38.5q0 26 -9 39t-27 13z" />
    <glyph glyph-name="uring" unicode="&#x16f;" horiz-adv-x="584" 
d="M426 531q33 0 56 -20.5t23 -57.5l1 -313q0 -28 6.5 -40t19.5 -12q5 0 13 2t13 9q13 -20 13 -42q0 -31 -21 -51t-61 -20q-47 0 -75 32t-28 97v31l17 30q-8 -60 -29.5 -102.5t-58.5 -65.5t-92 -23q-80 0 -119 46t-39 155v184q0 23 -3.5 60t-16.5 71q14 11 33 20.5t46 9.5
q34 0 56.5 -18.5t22.5 -52.5v-252q0 -52 5.5 -88t20 -54t41.5 -18q23 0 41 14.5t31.5 44t20.5 73.5t7 102q0 48 -0.5 81t-2.5 56.5t-6.5 42.5t-13.5 40q9 8 29.5 18.5t49.5 10.5zM277 739q44 0 71.5 -24t27.5 -63q-1 -41 -29 -65.5t-74 -24.5q-44 0 -71.5 23.5t-27.5 62.5
q0 41 28.5 66t74.5 25zM275 702q-17 0 -26.5 -13t-9.5 -39q0 -25 9.5 -38.5t26.5 -13.5q18 0 27 13.5t9 38.5q0 26 -9 39t-27 13z" />
    <glyph glyph-name="Uhungarumlaut" unicode="&#x170;" horiz-adv-x="676" 
d="M603 641v-334q0 -160 -66 -240.5t-199 -80.5q-127 0 -192.5 77t-65.5 244v244q0 29 -3.5 62.5t-16.5 67.5q9 8 30 19t50 11q33 0 56 -18.5t23 -51.5v-341q0 -142 28.5 -204.5t90.5 -62.5q67 0 97 68.5t30 198.5v251q0 29 -3.5 62.5t-16.5 67.5q9 8 29.5 19t49.5 11
q33 0 56 -18.5t23 -51.5zM409 866l-171 -130q-7 1 -17 10.5t-12 12.5l104 167q14 -1 33 -10.5t36.5 -23t26.5 -26.5zM569 863l-172 -130q-7 2 -16.5 11t-11.5 12l104 167q14 -1 33 -10.5t36.5 -23t26.5 -26.5z" />
    <glyph glyph-name="uhungarumlaut" unicode="&#x171;" horiz-adv-x="584" 
d="M426 531q33 0 56 -20.5t23 -57.5l1 -313q0 -28 6.5 -40t19.5 -12q5 0 13 2t13 9q13 -20 13 -42q0 -31 -21 -51t-61 -20q-47 0 -75 32t-28 97v31l17 30q-8 -60 -29.5 -102.5t-58.5 -65.5t-92 -23q-80 0 -119 46t-39 155v184q0 23 -3.5 60t-16.5 71q14 11 33 20.5t46 9.5
q34 0 56.5 -18.5t22.5 -52.5v-252q0 -52 5.5 -88t20 -54t41.5 -18q23 0 41 14.5t31.5 44t20.5 73.5t7 102q0 48 -0.5 81t-2.5 56.5t-6.5 42.5t-13.5 40q9 8 29.5 18.5t49.5 10.5zM344 692l-173 -139q-7 2 -17 11t-12 12l116 166q20 -1 46 -15.5t40 -34.5zM509 693l-173 -140
q-7 2 -17 11.5t-12 12.5l117 165q20 -1 45 -15.5t40 -33.5z" />
    <glyph glyph-name="Uogonek" unicode="&#x172;" horiz-adv-x="676" 
d="M603 641v-334q0 -160 -66 -240.5t-199 -80.5q-127 0 -192.5 77t-65.5 244v244q0 29 -3.5 62.5t-16.5 67.5q9 8 30 19t50 11q33 0 56 -18.5t23 -51.5v-341q0 -142 28.5 -204.5t90.5 -62.5q67 0 97 68.5t30 198.5v251q0 29 -3.5 62.5t-16.5 67.5q9 8 29.5 19t49.5 11
q33 0 56 -18.5t23 -51.5zM388 -181q-20 0 -44 7t-41 24.5t-17 48.5q0 36 22.5 61t58.5 41.5t75 25.5l7 -23q-34 -18 -54 -39t-20 -50q0 -15 9 -29t37 -14q31 0 51.5 17t33.5 41q9 -5 13.5 -13t-0.5 -21q-11 -28 -44.5 -52.5t-86.5 -24.5z" />
    <glyph glyph-name="uogonek" unicode="&#x173;" horiz-adv-x="584" 
d="M426 531q33 0 56 -20.5t23 -57.5l1 -313q0 -28 6.5 -40t19.5 -12q5 0 13 2t13 9q13 -20 13 -42q0 -31 -21 -51t-61 -20q-47 0 -75 32t-28 97v31l17 30q-8 -60 -29.5 -102.5t-58.5 -65.5t-92 -23q-80 0 -119 46t-39 155v184q0 23 -3.5 60t-16.5 71q14 11 33 20.5t46 9.5
q34 0 56.5 -18.5t22.5 -52.5v-252q0 -52 5.5 -88t20 -54t41.5 -18q23 0 41 14.5t31.5 44t20.5 73.5t7 102q0 48 -0.5 81t-2.5 56.5t-6.5 42.5t-13.5 40q9 8 29.5 18.5t49.5 10.5zM466 -193q-20 0 -44 7t-41 24.5t-17 48.5q0 36 22.5 61t58.5 41.5t75 25.5l7 -23
q-34 -18 -54 -39t-20 -50q0 -15 9 -29t37 -14q31 0 51.5 17t33.5 41q9 -5 13.5 -13t-0.5 -21q-11 -28 -44.5 -52.5t-86.5 -24.5z" />
    <glyph glyph-name="Wcircumflex" unicode="&#x174;" horiz-adv-x="962" 
d="M858 709q41 0 60 -13.5t18 -43.5q0 -13 -4 -32t-10 -39l-159 -577q-27 -10 -51.5 -14.5t-41.5 -4.5q-31 0 -52.5 9t-26.5 29l-107 442l-116 -461q-28 -10 -51.5 -14.5t-38.5 -4.5q-37 0 -59 9t-27 29l-145 594q-3 13 -11.5 32.5t-21.5 32.5q10 11 29.5 20.5t53.5 9.5
q38 0 61 -13t28 -40l112 -561l106 441q6 28 3 47t-9 32q21 11 49 16.5t50 5.5q27 0 47 -9t24 -29l123 -503l96 516q2 12 4 23.5t2 22.5q0 12 -2.5 20t-7.5 14q15 5 32 9.5t43 4.5zM519 901l139 -134q0 -4 -8.5 -15t-15.5 -14l-149 79l-150 -79q-6 3 -14.5 14t-9.5 15
l139 134q6 3 20.5 4t28.5 0.5t20 -4.5z" />
    <glyph glyph-name="wcircumflex" unicode="&#x175;" horiz-adv-x="836" 
d="M236 -15q-24 0 -44 10t-28 35l-120 404q-4 12 -11.5 32t-20.5 33q9 11 27.5 21t50.5 10t53.5 -13.5t27.5 -40.5l89 -398l74 358q2 11 3.5 22.5t1.5 23.5t-2 20t-7 13q22 9 46.5 11.5t42.5 3.5q30 0 58 -10.5t35 -40.5l88 -401l75 358q2 12 4 23t2 23t-2.5 20t-6.5 13
q14 6 30 10.5t41 4.5q40 0 57.5 -13.5t17.5 -44.5q0 -13 -3 -32t-11 -39l-135 -396q-24 -10 -47 -15t-46 -5t-44.5 10t-27.5 35l-85 365l-84 -390q-25 -10 -49.5 -15t-49.5 -5zM287 568q-8 0 -23 5.5t-16 9.5l131 160q6 3 20.5 4t28.5 0t20 -4l131 -160q-1 -4 -17 -9.5
t-24 -5.5l-124 82z" />
    <glyph glyph-name="Ycircumflex" unicode="&#x176;" horiz-adv-x="600" 
d="M288 230q-23 0 -38 12t-25 29.5t-19 32.5l-151 291q-7 13 -20 33t-31 37q10 11 36 27t63 16q42 0 61.5 -21.5t35.5 -56.5l148 -322l-56 -31l151 336q11 23 11 44q0 11 -4 20.5t-10 16.5q15 6 33 10t46 4q34 0 48.5 -18t15.5 -41q0 -17 -9.5 -40.5t-23.5 -44.5l-189 -315z
M369 310v-164q0 -28 3.5 -62.5t16.5 -67.5q-8 -8 -29 -19.5t-50 -11.5q-34 0 -57 19t-23 52v228zM351 901l139 -134q0 -4 -8.5 -15t-15.5 -14l-149 79l-150 -79q-6 3 -14.5 14t-9.5 15l139 134q6 3 20.5 4t28.5 0.5t20 -4.5z" />
    <glyph glyph-name="ycircumflex" unicode="&#x177;" horiz-adv-x="558" 
d="M245 -224q-50 0 -94 9t-71 32t-27 64q0 33 26 53.5t68 20.5q44 0 62 -23q-15 -10 -22 -24t-7 -27q0 -18 7.5 -32.5t22.5 -23t38 -8.5q64 0 97 59.5t33 155.5q0 13 3 37t7 49t7 42l8 26q-13 -90 -55 -141.5t-126 -51.5q-79 0 -118 46t-39 155v176q0 23 -3.5 60t-16.5 71
q14 11 33 20.5t46 9.5q34 0 56.5 -18.5t22.5 -52.5v-244q0 -77 12.5 -118t52.5 -41q23 0 42 14.5t32.5 43t20.5 70.5t7 98q0 48 -0.5 81t-2.5 56t-6.5 42t-13.5 40q9 8 29.5 18.5t49.5 10.5q33 0 56 -20.5t23 -57.5l1 -400q0 -103 -34 -163.5t-92.5 -87t-134.5 -26.5z
M150 568q-8 0 -23 5.5t-16 9.5l131 160q6 3 20.5 4t28.5 0t20 -4l131 -160q-1 -4 -17 -9.5t-24 -5.5l-124 82z" />
    <glyph glyph-name="Ydieresis" unicode="&#x178;" horiz-adv-x="600" 
d="M288 230q-23 0 -38 12t-25 29.5t-19 32.5l-151 291q-7 13 -20 33t-31 37q10 11 36 27t63 16q42 0 61.5 -21.5t35.5 -56.5l148 -322l-56 -31l151 336q11 23 11 44q0 11 -4 20.5t-10 16.5q15 6 33 10t46 4q34 0 48.5 -18t15.5 -41q0 -17 -9.5 -40.5t-23.5 -44.5l-189 -315z
M369 310v-164q0 -28 3.5 -62.5t16.5 -67.5q-8 -8 -29 -19.5t-50 -11.5q-34 0 -57 19t-23 52v228zM214 756q-30 0 -50.5 20.5t-20.5 50.5q0 29 20.5 50t50.5 21q29 0 50 -21t21 -50q0 -30 -21 -50.5t-50 -20.5zM429 756q-30 0 -50.5 20.5t-20.5 50.5q0 29 20.5 50t50.5 21
q29 0 50 -21t21 -50q0 -30 -21 -50.5t-50 -20.5z" />
    <glyph glyph-name="Zacute" unicode="&#x179;" horiz-adv-x="597" 
d="M62 -7l-18 33q0 35 6 59t28 50l375 500l12 -39l-237 -19q-24 -1 -46 -9.5t-32 -25.5q-9 -17 -10.5 -30t2.5 -27q-38 7 -63 26q-17 11 -28 31t-11 45q0 50 41.5 83.5t134.5 30.5l203 -7q29 -1 59.5 1t55.5 10l17 -41q0 -34 -6.5 -57t-28.5 -50l-379 -490l-18 36l262 19
q34 2 55 14.5t29 25.5q10 14 11.5 28t-1.5 27q14 -2 20.5 -5t12.5 -6q20 -8 35 -22t23 -32.5t8 -42.5q0 -49 -38.5 -80.5t-118.5 -30.5l-264 7q-28 1 -46 -1t-45 -11zM454 827l-200 -80q-7 3 -14.5 14.5t-6.5 15.5l145 134q13 -5 28.5 -19.5t29 -32t18.5 -32.5z" />
    <glyph glyph-name="zacute" unicode="&#x17a;" horiz-adv-x="506" 
d="M46 -11l-16 29q0 29 5.5 49t24.5 40l301 335l22 -14l-189 -19q-19 -2 -34 -9.5t-25 -16.5q-10 -10 -15 -21.5t-4 -22.5q-9 2 -17.5 4.5t-16.5 6.5q-31 15 -45 40t-14 42q0 41 35.5 68.5t117.5 24.5l186 -7q22 -1 46.5 1t44.5 9l13 -35q0 -28 -4.5 -47t-24.5 -42
l-284 -325l-23 27l194 10q23 2 39.5 10t26.5 20q8 9 11 19.5t2 20.5q19 -4 33 -10q22 -10 35 -26t19 -33t6 -30q0 -40 -36.5 -67t-106.5 -26l-215 6q-21 1 -46 -1t-46 -10zM423 716l-162 -143q-12 1 -27 3t-21 6l90 160q16 3 42.5 -2t49.5 -12t28 -12z" />
    <glyph glyph-name="Zdotaccent" unicode="&#x17b;" horiz-adv-x="597" 
d="M62 -7l-18 33q0 35 6 59t28 50l375 500l12 -39l-237 -19q-24 -1 -46 -9.5t-32 -25.5q-9 -17 -10.5 -30t2.5 -27q-38 7 -63 26q-17 11 -28 31t-11 45q0 50 41.5 83.5t134.5 30.5l203 -7q29 -1 59.5 1t55.5 10l17 -41q0 -34 -6.5 -57t-28.5 -50l-379 -490l-18 36l262 19
q34 2 55 14.5t29 25.5q10 14 11.5 28t-1.5 27q14 -2 20.5 -5t12.5 -6q20 -8 35 -22t23 -32.5t8 -42.5q0 -49 -38.5 -80.5t-118.5 -30.5l-264 7q-28 1 -46 -1t-45 -11zM299 754q-29 0 -50 21t-21 50q0 30 21 50.5t50 20.5t50 -20.5t21 -50.5q0 -29 -21 -50t-50 -21z" />
    <glyph glyph-name="zdotaccent" unicode="&#x17c;" horiz-adv-x="506" 
d="M46 -11l-16 29q0 29 5.5 49t24.5 40l301 335l22 -14l-189 -19q-19 -2 -34 -9.5t-25 -16.5q-10 -10 -15 -21.5t-4 -22.5q-9 2 -17.5 4.5t-16.5 6.5q-31 15 -45 40t-14 42q0 41 35.5 68.5t117.5 24.5l186 -7q22 -1 46.5 1t44.5 9l13 -35q0 -28 -4.5 -47t-24.5 -42
l-284 -325l-23 27l194 10q23 2 39.5 10t26.5 20q8 9 11 19.5t2 20.5q19 -4 33 -10q22 -10 35 -26t19 -33t6 -30q0 -40 -36.5 -67t-106.5 -26l-215 6q-21 1 -46 -1t-46 -10zM252 576q-29 0 -50 20.5t-21 50.5q0 29 21 50t50 21t50 -21t21 -50q0 -30 -21 -50.5t-50 -20.5z" />
    <glyph glyph-name="Zcaron" unicode="&#x17d;" horiz-adv-x="597" 
d="M62 -7l-18 33q0 35 6 59t28 50l375 500l12 -39l-237 -19q-24 -1 -46 -9.5t-32 -25.5q-9 -17 -10.5 -30t2.5 -27q-38 7 -63 26q-17 11 -28 31t-11 45q0 50 41.5 83.5t134.5 30.5l203 -7q29 -1 59.5 1t55.5 10l17 -41q0 -34 -6.5 -57t-28.5 -50l-379 -490l-18 36l262 19
q34 2 55 14.5t29 25.5q10 14 11.5 28t-1.5 27q14 -2 20.5 -5t12.5 -6q20 -8 35 -22t23 -32.5t8 -42.5q0 -49 -38.5 -80.5t-118.5 -30.5l-264 7q-28 1 -46 -1t-45 -11zM334 753q-6 -3 -20 -4t-28.5 0t-20.5 4l-139 134q1 5 9.5 15.5t14.5 13.5l150 -79l149 79
q7 -3 15.5 -13.5t8.5 -15.5z" />
    <glyph glyph-name="zcaron" unicode="&#x17e;" horiz-adv-x="506" 
d="M46 -11l-16 29q0 29 5.5 49t24.5 40l301 335l22 -14l-189 -19q-19 -2 -34 -9.5t-25 -16.5q-10 -10 -15 -21.5t-4 -22.5q-9 2 -17.5 4.5t-16.5 6.5q-31 15 -45 40t-14 42q0 41 35.5 68.5t117.5 24.5l186 -7q22 -1 46.5 1t44.5 9l13 -35q0 -28 -4.5 -47t-24.5 -42
l-284 -325l-23 27l194 10q23 2 39.5 10t26.5 20q8 9 11 19.5t2 20.5q19 -4 33 -10q22 -10 35 -26t19 -33t6 -30q0 -40 -36.5 -67t-106.5 -26l-215 6q-21 1 -46 -1t-46 -10zM125 754l127 -82l124 82q8 0 24 -5.5t17 -9.5l-131 -160q-6 -3 -20 -4t-28.5 0.5t-20.5 3.5
l-131 160q1 4 16 9.5t23 5.5z" />
    <glyph glyph-name="uni018F" unicode="&#x18f;" horiz-adv-x="616" 
d="M278 712q137 0 215 -95t78 -271q0 -111 -33 -192t-97.5 -124.5t-159.5 -43.5q-66 0 -120 22t-85.5 65.5t-31.5 110.5q0 66 30.5 111.5t84.5 69.5t124 24q34 0 73.5 -1.5t79 -9t72.5 -24.5l-5 -41q-15 8 -34.5 13.5t-40 8.5t-39.5 3q-28 0 -62.5 -7t-65 -26t-50.5 -54.5
t-20 -92.5q0 -50 14 -77.5t36 -38.5t44 -11q45 0 76 36.5t47 105t16 162.5q0 83 -12 139t-35.5 89.5t-57.5 48.5t-78 15q-40 0 -73.5 -10t-58.5 -27.5t-39 -41.5q-9 4 -15 17.5t6 41.5q23 50 83 77.5t134 27.5z" />
    <glyph glyph-name="florin" unicode="&#x192;" horiz-adv-x="404" 
d="M130 -142q-34 0 -55 19t-19 52l30 603q3 45 14.5 83t35.5 67t62.5 45t94.5 16q75 0 114 -23t37 -65q-1 -29 -24 -47.5t-55 -18.5q-20 0 -36.5 5.5t-25.5 15.5q11 14 15.5 26t5.5 25q2 21 -6 30.5t-28 9.5q-30 0 -43 -27t-17 -71t-7 -96l-26 -488q-1 -22 0.5 -59.5
t12.5 -70.5q-14 -12 -34 -21.5t-46 -9.5zM14 451l3 33q2 17 12.5 24.5t24.5 7.5h180q4 0 20.5 0.5t37.5 1t37.5 1t20.5 1.5l-3 -32q-1 -16 -11.5 -24.5t-24.5 -8.5h-236q-10 0 -30.5 -1t-30.5 -3z" />
    <glyph glyph-name="Ohorn" unicode="&#x1a0;" horiz-adv-x="666" 
d="M333 -14q-141 0 -213.5 91t-72.5 272t72.5 272t213.5 91t213.5 -91t72.5 -272t-72.5 -272t-213.5 -91zM333 33q70 0 101 75t31 241t-31 241t-101 75q-69 0 -100.5 -75t-31.5 -241t31.5 -241t100.5 -75zM494 620l-17 43q34 12 46 29.5t12 36.5q0 17 -7.5 33t-15.5 25
q9 7 26 15t35.5 15t30.5 8q9 -10 18.5 -33.5t9.5 -49.5q0 -27 -19.5 -50.5t-50.5 -41t-68 -30.5z" />
    <glyph glyph-name="ohorn" unicode="&#x1a1;" horiz-adv-x="562" 
d="M281 -14q-117 0 -182 72t-65 200q0 129 65 201t182 72t182 -72t65 -201q0 -128 -65 -200t-182 -72zM281 32q51 0 75 57t24 169q0 113 -24 170t-75 57q-52 0 -76 -57t-24 -170q0 -112 24 -169t76 -57zM389 469l-17 43q34 12 46 29.5t12 36.5q0 17 -7.5 33t-15.5 25
q9 7 26 15t35.5 15t30.5 8q9 -10 18.5 -33.5t9.5 -49.5q0 -27 -19.5 -50.5t-50.5 -41t-68 -30.5z" />
    <glyph glyph-name="Uhorn" unicode="&#x1af;" horiz-adv-x="676" 
d="M603 641v-334q0 -160 -66 -240.5t-199 -80.5q-127 0 -192.5 77t-65.5 244v244q0 29 -3.5 62.5t-16.5 67.5q9 8 30 19t50 11q33 0 56 -18.5t23 -51.5v-341q0 -142 28.5 -204.5t90.5 -62.5q67 0 97 68.5t30 198.5v251q0 29 -3.5 62.5t-16.5 67.5q9 8 29.5 19t49.5 11
q33 0 56 -18.5t23 -51.5zM516 664l-17 43q34 12 46 29.5t12 36.5q0 17 -7.5 33t-15.5 25q9 7 26 15t35.5 15t30.5 8q9 -10 18.5 -33.5t9.5 -49.5q0 -27 -19.5 -50.5t-50.5 -41t-68 -30.5z" />
    <glyph glyph-name="uhorn" unicode="&#x1b0;" horiz-adv-x="584" 
d="M426 531q33 0 56 -20.5t23 -57.5l1 -313q0 -28 6.5 -40t19.5 -12q5 0 13 2t13 9q13 -20 13 -42q0 -31 -21 -51t-61 -20q-47 0 -75 32t-28 97v31l17 30q-8 -60 -29.5 -102.5t-58.5 -65.5t-92 -23q-80 0 -119 46t-39 155v184q0 23 -3.5 60t-16.5 71q14 11 33 20.5t46 9.5
q34 0 56.5 -18.5t22.5 -52.5v-252q0 -52 5.5 -88t20 -54t41.5 -18q23 0 41 14.5t31.5 44t20.5 73.5t7 102q0 48 -0.5 81t-2.5 56.5t-6.5 42.5t-13.5 40q9 8 29.5 18.5t49.5 10.5zM471 468l-17 43q34 12 46 29.5t12 36.5q0 17 -7.5 33t-15.5 25q9 7 26 15t35.5 15t30.5 8
q9 -10 18.5 -33.5t9.5 -49.5q0 -27 -19.5 -50.5t-50.5 -41t-68 -30.5z" />
    <glyph glyph-name="uni01CD" unicode="&#x1cd;" horiz-adv-x="628" 
d="M363 713q25 0 46.5 -9t28.5 -36l174 -586q4 -13 12 -32t21 -33q-9 -10 -28 -20.5t-54 -10.5q-32 0 -55 13.5t-29 40.5l-162 620l14 -3l-144 -577q-3 -12 -5 -23.5t-2 -22.5q0 -12 3 -20t8 -13q-15 -6 -32.5 -10.5t-43.5 -4.5q-40 0 -59 13.5t-19 44.5q0 13 3.5 31.5
t10.5 39.5l194 579q58 19 118 19zM181 277h332v-74h-332v74zM375 753q-6 -3 -20 -4t-28.5 0t-20.5 4l-139 134q1 5 9.5 15.5t14.5 13.5l150 -79l149 79q7 -3 15.5 -13.5t8.5 -15.5z" />
    <glyph glyph-name="uni01CE" unicode="&#x1ce;" horiz-adv-x="568" 
d="M467 -10q-52 0 -81.5 37.5t-29.5 133.5v38l24 -5q-10 -55 -38 -101.5t-72 -74.5t-104 -28q-57 0 -94.5 30t-37.5 88q0 48 26.5 81.5t67 54.5t81.5 33q40 11 75.5 15.5t63.5 5.5v25q0 81 -18 122t-65 41q-19 0 -34.5 -7.5t-24 -23.5t-8.5 -43q0 -20 7 -41t28 -33
q-12 -12 -31.5 -18t-41.5 -6q-49 0 -75.5 27t-26.5 66q0 60 58.5 92t156.5 32q112 0 164 -50t52 -167v-169q0 -53 33 -53q5 0 13.5 3t13.5 10q7 -10 10 -22t3 -21q0 -29 -25.5 -50.5t-69.5 -21.5zM238 79q19 2 39 15.5t37 37t27.5 54.5t10.5 68q-19 0 -39 -1.5t-38.5 -6.5
t-34.5 -14q-24 -13 -39.5 -36.5t-15.5 -53.5q0 -25 12.5 -45.5t40.5 -17.5zM146 752l127 -82l124 82q8 0 24 -5.5t17 -9.5l-131 -160q-6 -3 -20 -4t-28.5 0.5t-20.5 3.5l-131 160q1 4 16 9.5t23 5.5z" />
    <glyph glyph-name="uni01CF" unicode="&#x1cf;" horiz-adv-x="306" 
d="M163 -15q-34 0 -57 19t-23 52v495q0 29 -3.5 62.5t-16.5 67.5q9 8 30 19t50 11q34 0 57 -18.5t23 -51.5v-495q0 -28 3.5 -62.5t16.5 -67.5q-9 -8 -30 -19.5t-50 -11.5zM174 753q-6 -3 -20 -4t-28.5 0t-20.5 4l-139 134q1 5 9.5 15.5t14.5 13.5l150 -79l149 79
q7 -3 15.5 -13.5t8.5 -15.5z" />
    <glyph glyph-name="uni01D0" unicode="&#x1d0;" horiz-adv-x="274" 
d="M209 146q0 -28 3.5 -62.5t16.5 -67.5q-9 -8 -29.5 -19.5t-49.5 -11.5q-32 0 -54.5 19t-22.5 52v315q0 29 -3.5 63t-16.5 68q9 8 29 19t48 11q34 0 56 -18.5t22 -52.5zM1 752l127 -82l124 82q8 0 24 -5.5t17 -9.5l-131 -160q-6 -3 -20 -4t-28.5 0.5t-20.5 3.5l-131 160
q1 4 16 9.5t23 5.5z" />
    <glyph glyph-name="uni01D1" unicode="&#x1d1;" horiz-adv-x="666" 
d="M333 -14q-141 0 -213.5 91t-72.5 272t72.5 272t213.5 91t213.5 -91t72.5 -272t-72.5 -272t-213.5 -91zM333 33q70 0 101 75t31 241t-31 241t-101 75q-69 0 -100.5 -75t-31.5 -241t31.5 -241t100.5 -75zM368 753q-6 -3 -20 -4t-28.5 0t-20.5 4l-139 134q1 5 9.5 15.5
t14.5 13.5l150 -79l149 79q7 -3 15.5 -13.5t8.5 -15.5z" />
    <glyph glyph-name="uni01D2" unicode="&#x1d2;" horiz-adv-x="562" 
d="M281 -14q-117 0 -182 72t-65 200q0 129 65 201t182 72t182 -72t65 -201q0 -128 -65 -200t-182 -72zM281 32q51 0 75 57t24 169q0 113 -24 170t-75 57q-52 0 -76 -57t-24 -170q0 -112 24 -169t76 -57zM153 752l127 -82l124 82q8 0 24 -5.5t17 -9.5l-131 -160q-6 -3 -20 -4
t-28.5 0.5t-20.5 3.5l-131 160q1 4 16 9.5t23 5.5z" />
    <glyph glyph-name="uni01D3" unicode="&#x1d3;" horiz-adv-x="676" 
d="M603 641v-334q0 -160 -66 -240.5t-199 -80.5q-127 0 -192.5 77t-65.5 244v244q0 29 -3.5 62.5t-16.5 67.5q9 8 30 19t50 11q33 0 56 -18.5t23 -51.5v-341q0 -142 28.5 -204.5t90.5 -62.5q67 0 97 68.5t30 198.5v251q0 29 -3.5 62.5t-16.5 67.5q9 8 29.5 19t49.5 11
q33 0 56 -18.5t23 -51.5zM373 753q-6 -3 -20 -4t-28.5 0t-20.5 4l-139 134q1 5 9.5 15.5t14.5 13.5l150 -79l149 79q7 -3 15.5 -13.5t8.5 -15.5z" />
    <glyph glyph-name="uni01D4" unicode="&#x1d4;" horiz-adv-x="584" 
d="M426 531q33 0 56 -20.5t23 -57.5l1 -313q0 -28 6.5 -40t19.5 -12q5 0 13 2t13 9q13 -20 13 -42q0 -31 -21 -51t-61 -20q-47 0 -75 32t-28 97v31l17 30q-8 -60 -29.5 -102.5t-58.5 -65.5t-92 -23q-80 0 -119 46t-39 155v184q0 23 -3.5 60t-16.5 71q14 11 33 20.5t46 9.5
q34 0 56.5 -18.5t22.5 -52.5v-252q0 -52 5.5 -88t20 -54t41.5 -18q23 0 41 14.5t31.5 44t20.5 73.5t7 102q0 48 -0.5 81t-2.5 56.5t-6.5 42.5t-13.5 40q9 8 29.5 18.5t49.5 10.5zM145 752l127 -82l124 82q8 0 24 -5.5t17 -9.5l-131 -160q-6 -3 -20 -4t-28.5 0.5t-20.5 3.5
l-131 160q1 4 16 9.5t23 5.5z" />
    <glyph glyph-name="uni01D5" unicode="&#x1d5;" horiz-adv-x="676" 
d="M603 641v-334q0 -160 -66 -240.5t-199 -80.5q-127 0 -192.5 77t-65.5 244v244q0 29 -3.5 62.5t-16.5 67.5q9 8 30 19t50 11q33 0 56 -18.5t23 -51.5v-341q0 -142 28.5 -204.5t90.5 -62.5q67 0 97 68.5t30 198.5v251q0 29 -3.5 62.5t-16.5 67.5q9 8 29.5 19t49.5 11
q33 0 56 -18.5t23 -51.5zM231 756q-30 0 -50.5 20.5t-20.5 50.5q0 29 20.5 50t50.5 21q29 0 50 -21t21 -50q0 -30 -21 -50.5t-50 -20.5zM446 756q-30 0 -50.5 20.5t-20.5 50.5q0 29 20.5 50t50.5 21q29 0 50 -21t21 -50q0 -30 -21 -50.5t-50 -20.5zM197 1007h284
q9 -30 0 -61h-284q-9 31 0 61z" />
    <glyph glyph-name="uni01D6" unicode="&#x1d6;" horiz-adv-x="584" 
d="M426 531q33 0 56 -20.5t23 -57.5l1 -313q0 -28 6.5 -40t19.5 -12q5 0 13 2t13 9q13 -20 13 -42q0 -31 -21 -51t-61 -20q-47 0 -75 32t-28 97v31l17 30q-8 -60 -29.5 -102.5t-58.5 -65.5t-92 -23q-80 0 -119 46t-39 155v184q0 23 -3.5 60t-16.5 71q14 11 33 20.5t46 9.5
q34 0 56.5 -18.5t22.5 -52.5v-252q0 -52 5.5 -88t20 -54t41.5 -18q23 0 41 14.5t31.5 44t20.5 73.5t7 102q0 48 -0.5 81t-2.5 56.5t-6.5 42.5t-13.5 40q9 8 29.5 18.5t49.5 10.5zM179 585q-26 0 -44.5 18.5t-18.5 43.5q0 26 18.5 44t44.5 18t44 -18t18 -44q0 -25 -18 -43.5
t-44 -18.5zM369 585q-25 0 -43.5 18.5t-18.5 43.5q0 26 18.5 44t43.5 18q26 0 44.5 -18t18.5 -44q0 -25 -18.5 -43.5t-44.5 -18.5zM132 829h284q9 -31 0 -61h-284q-9 30 0 61z" />
    <glyph glyph-name="uni01D7" unicode="&#x1d7;" horiz-adv-x="676" 
d="M603 641v-334q0 -160 -66 -240.5t-199 -80.5q-127 0 -192.5 77t-65.5 244v244q0 29 -3.5 62.5t-16.5 67.5q9 8 30 19t50 11q33 0 56 -18.5t23 -51.5v-341q0 -142 28.5 -204.5t90.5 -62.5q67 0 97 68.5t30 198.5v251q0 29 -3.5 62.5t-16.5 67.5q9 8 29.5 19t49.5 11
q33 0 56 -18.5t23 -51.5zM231 756q-30 0 -50.5 20.5t-20.5 50.5q0 29 20.5 50t50.5 21q29 0 50 -21t21 -50q0 -30 -21 -50.5t-50 -20.5zM446 756q-30 0 -50.5 20.5t-20.5 50.5q0 29 20.5 50t50.5 21q29 0 50 -21t21 -50q0 -30 -21 -50.5t-50 -20.5zM493 994l-200 -80
q-7 3 -14.5 14.5t-6.5 15.5l145 134q13 -5 28.5 -19.5t29 -32t18.5 -32.5z" />
    <glyph glyph-name="uni01D8" unicode="&#x1d8;" horiz-adv-x="584" 
d="M426 531q33 0 56 -20.5t23 -57.5l1 -313q0 -28 6.5 -40t19.5 -12q5 0 13 2t13 9q13 -20 13 -42q0 -31 -21 -51t-61 -20q-47 0 -75 32t-28 97v31l17 30q-8 -60 -29.5 -102.5t-58.5 -65.5t-92 -23q-80 0 -119 46t-39 155v184q0 23 -3.5 60t-16.5 71q14 11 33 20.5t46 9.5
q34 0 56.5 -18.5t22.5 -52.5v-252q0 -52 5.5 -88t20 -54t41.5 -18q23 0 41 14.5t31.5 44t20.5 73.5t7 102q0 48 -0.5 81t-2.5 56.5t-6.5 42.5t-13.5 40q9 8 29.5 18.5t49.5 10.5zM179 585q-26 0 -44.5 18.5t-18.5 43.5q0 26 18.5 44t44.5 18t44 -18t18 -44q0 -25 -18 -43.5
t-44 -18.5zM369 585q-25 0 -43.5 18.5t-18.5 43.5q0 26 18.5 44t43.5 18q26 0 44.5 -18t18.5 -44q0 -25 -18.5 -43.5t-44.5 -18.5zM443 881l-162 -143q-12 1 -27 3t-21 6l90 160q16 3 42.5 -2t49.5 -12t28 -12z" />
    <glyph glyph-name="uni01D9" unicode="&#x1d9;" horiz-adv-x="676" 
d="M603 641v-334q0 -160 -66 -240.5t-199 -80.5q-127 0 -192.5 77t-65.5 244v244q0 29 -3.5 62.5t-16.5 67.5q9 8 30 19t50 11q33 0 56 -18.5t23 -51.5v-341q0 -142 28.5 -204.5t90.5 -62.5q67 0 97 68.5t30 198.5v251q0 29 -3.5 62.5t-16.5 67.5q9 8 29.5 19t49.5 11
q33 0 56 -18.5t23 -51.5zM231 756q-30 0 -50.5 20.5t-20.5 50.5q0 29 20.5 50t50.5 21q29 0 50 -21t21 -50q0 -30 -21 -50.5t-50 -20.5zM446 756q-30 0 -50.5 20.5t-20.5 50.5q0 29 20.5 50t50.5 21q29 0 50 -21t21 -50q0 -30 -21 -50.5t-50 -20.5zM373 920q-6 -3 -20 -4
t-28.5 0t-20.5 4l-139 134q1 5 9.5 15.5t14.5 13.5l150 -79l149 79q7 -3 15.5 -13.5t8.5 -15.5z" />
    <glyph glyph-name="uni01DA" unicode="&#x1da;" horiz-adv-x="584" 
d="M426 531q33 0 56 -20.5t23 -57.5l1 -313q0 -28 6.5 -40t19.5 -12q5 0 13 2t13 9q13 -20 13 -42q0 -31 -21 -51t-61 -20q-47 0 -75 32t-28 97v31l17 30q-8 -60 -29.5 -102.5t-58.5 -65.5t-92 -23q-80 0 -119 46t-39 155v184q0 23 -3.5 60t-16.5 71q14 11 33 20.5t46 9.5
q34 0 56.5 -18.5t22.5 -52.5v-252q0 -52 5.5 -88t20 -54t41.5 -18q23 0 41 14.5t31.5 44t20.5 73.5t7 102q0 48 -0.5 81t-2.5 56.5t-6.5 42.5t-13.5 40q9 8 29.5 18.5t49.5 10.5zM179 585q-26 0 -44.5 18.5t-18.5 43.5q0 26 18.5 44t44.5 18t44 -18t18 -44q0 -25 -18 -43.5
t-44 -18.5zM369 585q-25 0 -43.5 18.5t-18.5 43.5q0 26 18.5 44t43.5 18q26 0 44.5 -18t18.5 -44q0 -25 -18.5 -43.5t-44.5 -18.5zM145 919l127 -82l124 82q8 0 24 -5.5t17 -9.5l-131 -160q-6 -3 -20 -4t-28.5 0.5t-20.5 3.5l-131 160q1 4 16 9.5t23 5.5z" />
    <glyph glyph-name="uni01DB" unicode="&#x1db;" horiz-adv-x="676" 
d="M603 641v-334q0 -160 -66 -240.5t-199 -80.5q-127 0 -192.5 77t-65.5 244v244q0 29 -3.5 62.5t-16.5 67.5q9 8 30 19t50 11q33 0 56 -18.5t23 -51.5v-341q0 -142 28.5 -204.5t90.5 -62.5q67 0 97 68.5t30 198.5v251q0 29 -3.5 62.5t-16.5 67.5q9 8 29.5 19t49.5 11
q33 0 56 -18.5t23 -51.5zM231 756q-30 0 -50.5 20.5t-20.5 50.5q0 29 20.5 50t50.5 21q29 0 50 -21t21 -50q0 -30 -21 -50.5t-50 -20.5zM446 756q-30 0 -50.5 20.5t-20.5 50.5q0 29 20.5 50t50.5 21q29 0 50 -21t21 -50q0 -30 -21 -50.5t-50 -20.5zM181 994q6 15 19 32.5
t29 32t28 19.5l145 -134q1 -4 -6.5 -15.5t-14.5 -14.5z" />
    <glyph glyph-name="uni01DC" unicode="&#x1dc;" horiz-adv-x="584" 
d="M426 531q33 0 56 -20.5t23 -57.5l1 -313q0 -28 6.5 -40t19.5 -12q5 0 13 2t13 9q13 -20 13 -42q0 -31 -21 -51t-61 -20q-47 0 -75 32t-28 97v31l17 30q-8 -60 -29.5 -102.5t-58.5 -65.5t-92 -23q-80 0 -119 46t-39 155v184q0 23 -3.5 60t-16.5 71q14 11 33 20.5t46 9.5
q34 0 56.5 -18.5t22.5 -52.5v-252q0 -52 5.5 -88t20 -54t41.5 -18q23 0 41 14.5t31.5 44t20.5 73.5t7 102q0 48 -0.5 81t-2.5 56.5t-6.5 42.5t-13.5 40q9 8 29.5 18.5t49.5 10.5zM179 585q-26 0 -44.5 18.5t-18.5 43.5q0 26 18.5 44t44.5 18t44 -18t18 -44q0 -25 -18 -43.5
t-44 -18.5zM369 585q-25 0 -43.5 18.5t-18.5 43.5q0 26 18.5 44t43.5 18q26 0 44.5 -18t18.5 -44q0 -25 -18.5 -43.5t-44.5 -18.5zM111 881q6 5 28.5 12t49 12t42.5 2l90 -160q-6 -4 -21 -6t-27 -3z" />
    <glyph glyph-name="Gcaron" unicode="&#x1e6;" horiz-adv-x="656" 
d="M346 -14q-142 0 -220.5 95t-78.5 268t82 268t227 95q39 0 78 -8t71.5 -23t52 -37.5t19.5 -51.5q0 -31 -28 -56.5t-84 -24.5q-7 80 -34 117t-73 37q-82 0 -119.5 -79t-37.5 -237t36.5 -237t116.5 -79q36 0 58 18t34.5 47t17 62t4.5 62q0 26 -4 52t-16.5 48.5t-38.5 34.5
q10 21 33.5 31t49.5 10q35 0 61.5 -15.5t41.5 -46.5t15 -79q0 -56 -14 -100t-39.5 -76t-58.5 -53t-72 -31.5t-80 -10.5zM379 753q-6 -3 -20 -4t-28.5 0t-20.5 4l-139 134q1 5 9.5 15.5t14.5 13.5l150 -79l149 79q7 -3 15.5 -13.5t8.5 -15.5z" />
    <glyph glyph-name="gcaron" unicode="&#x1e7;" horiz-adv-x="547" 
d="M229 -224q-50 0 -94 11.5t-70.5 37t-26.5 66.5q0 38 26.5 61t67.5 23q45 0 63 -23q-15 -13 -22.5 -31t-7.5 -38q0 -18 7 -33t22 -24t39 -9q63 0 94.5 58t31.5 150v35.5t1 39.5q-17 -47 -54.5 -72.5t-93.5 -25.5q-52 0 -92.5 24t-63 78.5t-22.5 144.5q0 49 8.5 92t26.5 78
t46.5 60t69.5 38.5t95 13.5q44 0 83.5 -8t73.5 -22.5t58 -35.5v-421q0 -99 -34.5 -158t-94.5 -84.5t-137 -25.5zM254 65q26 0 45 12.5t32 36t20 58t7 77.5l1 215q-13 10 -32 15.5t-39 5.5q-33 0 -54 -17t-32.5 -49t-16.5 -78.5t-5 -105.5q0 -94 15.5 -132t58.5 -38zM158 758
l127 -82l124 82q8 0 24 -5.5t17 -9.5l-131 -160q-6 -3 -20 -4t-28.5 0.5t-20.5 3.5l-131 160q1 4 16 9.5t23 5.5z" />
    <glyph glyph-name="uni0218" unicode="&#x218;" horiz-adv-x="568" 
d="M273 -15q-81 0 -134 18.5t-79 50.5t-26 72q0 23 10.5 42t35.5 28.5t69 2.5q-3 -12 -2.5 -26t2.5 -27q5 -26 21 -52t46.5 -43t76.5 -17q44 0 76 24.5t32 76.5q0 34 -15 59t-45.5 47t-75.5 47q-64 37 -110 70.5t-71 75t-25 99.5q0 65 33 104t87.5 57t118.5 18
q95 0 155 -28.5t60 -87.5q0 -25 -15.5 -44t-56.5 -20q-17 -2 -38 2q1 16 -1.5 31.5t-7.5 28.5q-5 19 -18.5 35t-36.5 26t-57 10q-20 0 -42 -7t-37 -25t-15 -51q0 -30 13 -55t46.5 -50.5t94.5 -59.5q47 -25 91.5 -56t73.5 -73.5t29 -103.5q0 -41 -16 -77t-49 -63.5t-82.5 -43
t-115.5 -15.5zM286 -285q-13 2 -23 8t-21 16q17 21 27 40.5t10 38.5q0 27 -12 41t-27.5 20t-28.5 9q0 32 22.5 55t56.5 23q30 0 54 -21.5t24 -73.5q0 -39 -19 -77t-63 -79z" />
    <glyph glyph-name="uni0219" unicode="&#x219;" horiz-adv-x="477" 
d="M221 -14q-65 0 -107.5 15t-63.5 41t-21 60q0 18 9 36.5t31 29.5t61 4q-3 -14 -2.5 -27t4.5 -27q5 -30 30.5 -56.5t77.5 -26.5q36 0 61 14.5t25 45.5q0 26 -16.5 43.5t-43 31.5t-56.5 28q-38 18 -76.5 40.5t-63.5 57t-25 88.5q0 53 28 85.5t74 47.5t99 15q80 0 132 -24
t52 -73q0 -23 -14.5 -42.5t-51.5 -20.5q-10 -1 -18.5 0t-16.5 2q1 14 -0.5 30.5t-8.5 29.5q-8 23 -28 37t-51 14q-19 0 -35.5 -5.5t-27 -17.5t-10.5 -31q0 -26 17 -45.5t45 -34.5t59 -31q29 -14 58 -29.5t53.5 -35.5t39 -45.5t14.5 -60.5q0 -40 -23 -77.5t-74 -61.5
t-136 -24zM240 -285q-13 2 -23 8t-21 16q17 21 27 40.5t10 38.5q0 27 -12 41t-27.5 20t-28.5 9q0 32 22.5 55t56.5 23q30 0 54 -21.5t24 -73.5q0 -39 -19 -77t-63 -79z" />
    <glyph glyph-name="uni021A" unicode="&#x21a;" horiz-adv-x="557" 
d="M289 -15q-34 0 -57 19t-23 52v621l139 -12l1 -519q0 -28 3.5 -62.5t16.5 -67.5q-9 -8 -30 -19.5t-50 -11.5zM49 576q-14 6 -23.5 25.5t-12.5 42t2 38.5t19 16h490q14 0 19 -16t1.5 -38.5t-13 -42t-23.5 -25.5q-29 16 -68 33.5t-81 29.5t-80 12t-80 -12t-80.5 -29.5
t-69.5 -33.5zM296 -285q-13 2 -23 8t-21 16q17 21 27 40.5t10 38.5q0 27 -12 41t-27.5 20t-28.5 9q0 32 22.5 55t56.5 23q30 0 54 -21.5t24 -73.5q0 -39 -19 -77t-63 -79z" />
    <glyph glyph-name="uni021B" unicode="&#x21b;" horiz-adv-x="355" 
d="M203 -10q-61 0 -93 38.5t-32 104.5v447q0 33 22.5 51.5t56.5 18.5q30 0 50 -11t28 -19q-13 -48 -16.5 -90t-3.5 -104v-281q0 -26 11.5 -39.5t33.5 -13.5q10 0 22.5 3t16.5 10q8 -10 11 -22t3 -21q0 -31 -29.5 -51.5t-80.5 -20.5zM3 451l1 33q1 17 11.5 24.5t24.5 7.5h174
q4 0 21.5 0.5t40 1t40 1t21.5 1.5l-1 -32q-1 -16 -11 -24.5t-24 -8.5h-238q-10 0 -30 -1t-30 -3zM198 -285q-13 2 -23 8t-21 16q17 21 27 40.5t10 38.5q0 27 -12 41t-27.5 20t-28.5 9q0 32 22.5 55t56.5 23q30 0 54 -21.5t24 -73.5q0 -39 -19 -77t-63 -79z" />
    <glyph glyph-name="uni0237" unicode="&#x237;" horiz-adv-x="267" 
d="M20 -227q-67 0 -98.5 25.5t-31.5 62.5q0 26 17.5 47t53.5 21q19 0 30.5 -7t19.5 -24q-7 -11 -11.5 -23.5t-4.5 -23.5q0 -12 4 -20t11.5 -12t15.5 -4q24 0 33.5 27.5t11 71.5t1.5 94l1 362q0 23 -3.5 60t-16.5 71q14 13 34 21.5t43 8.5q33 0 55.5 -18.5t22.5 -52.5v-477
q0 -44 -10 -82t-32.5 -67t-58.5 -45t-87 -16z" />
    <glyph glyph-name="ascript" unicode="&#x251;" horiz-adv-x="592" 
d="M212 -14q-48 0 -81.5 18.5t-55 53t-31.5 81t-10 101.5q0 140 56 215t159 75q45 0 75.5 -14.5t44.5 -42.5q2 7 3.5 14t3 14.5t2.5 15.5q9 8 20.5 11t23.5 3q37 0 59.5 -19t22.5 -52l-1 -315q0 -26 9 -39t25 -13q5 0 13.5 2t12.5 9q7 -10 10 -22t3 -21q0 -31 -25.5 -50.5
t-63.5 -19.5q-58 0 -84.5 49.5t-26.5 133.5v46l21 -11q-7 -57 -22 -99t-38.5 -69.5t-54.5 -41t-70 -13.5zM254 60q30 0 51 22.5t34.5 60.5t20 84.5t6.5 95.5q0 27 -3 51.5t-11 44.5t-24.5 31.5t-43.5 11.5q-58 0 -80.5 -57.5t-22.5 -161.5q0 -46 3.5 -80.5t12 -57t22.5 -34
t35 -11.5z" />
    <glyph glyph-name="uni0259" unicode="&#x259;" horiz-adv-x="535" 
d="M245 531q117 0 186.5 -71.5t69.5 -203.5q0 -125 -66 -197.5t-190 -72.5q-58 0 -104.5 16.5t-74 50.5t-27.5 84q0 75 59.5 114.5t155.5 39.5q40 0 85.5 -2.5t98.5 -16.5l-5 -41q-20 2 -42.5 5t-55.5 4q-22 0 -48 -3t-49 -15t-37.5 -37.5t-14.5 -70.5q0 -33 9.5 -51t24 -25
t29.5 -7q50 0 77 55t27 152q0 78 -17 123.5t-49.5 64.5t-79.5 19q-56 0 -91.5 -21.5t-52.5 -53.5q-10 5 -15 18t6 41q20 48 70 75t121 27z" />
    <glyph glyph-name="uni210A" unicode="&#x261;" horiz-adv-x="547" 
d="M229 -224q-50 0 -94 11.5t-70.5 37t-26.5 66.5q0 38 26.5 61t67.5 23q45 0 63 -23q-15 -13 -22.5 -31t-7.5 -38q0 -18 7 -33t22 -24t39 -9q63 0 94.5 58t31.5 150v35.5t1 39.5q-17 -47 -54.5 -72.5t-93.5 -25.5q-52 0 -92.5 24t-63 78.5t-22.5 144.5q0 49 8.5 92t26.5 78
t46.5 60t69.5 38.5t95 13.5q44 0 83.5 -8t73.5 -22.5t58 -35.5v-421q0 -99 -34.5 -158t-94.5 -84.5t-137 -25.5zM254 65q26 0 45 12.5t32 36t20 58t7 77.5l1 215q-13 10 -32 15.5t-39 5.5q-33 0 -54 -17t-32.5 -49t-16.5 -78.5t-5 -105.5q0 -94 15.5 -132t58.5 -38z" />
    <glyph glyph-name="uni02BC" unicode="&#x2bc;" horiz-adv-x="600" 
d="M102 713l30 -193h57l36 193q-25 9 -59.5 9t-63.5 -9z" />
    <glyph glyph-name="circumflex" unicode="&#x2c6;" horiz-adv-x="600" 
d="M173 568q-8 0 -23 5.5t-16 9.5l131 160q6 3 20.5 4t28.5 0t20 -4l131 -160q-1 -4 -17 -9.5t-24 -5.5l-124 82z" />
    <glyph glyph-name="caron" unicode="&#x2c7;" horiz-adv-x="600" 
d="M173 752l127 -82l124 82q8 0 24 -5.5t17 -9.5l-131 -160q-6 -3 -20 -4t-28.5 0.5t-20.5 3.5l-131 160q1 4 16 9.5t23 5.5z" />
    <glyph glyph-name="breve" unicode="&#x2d8;" horiz-adv-x="600" 
d="M294 664q26 0 47 8.5t38.5 25.5t29.5 42q9 -2 18.5 -6t18.5 -9q-11 -41 -30 -75t-49 -54t-76 -20q-48 0 -79.5 21t-49 55t-25.5 73q11 8 21 11t20 4q11 -27 28.5 -43.5t40 -24.5t47.5 -8z" />
    <glyph glyph-name="dotaccent" unicode="&#x2d9;" horiz-adv-x="600" 
d="M299 574q-29 0 -50 20.5t-21 50.5q0 29 21 50t50 21t50 -21t21 -50q0 -30 -21 -50.5t-50 -20.5z" />
    <glyph glyph-name="ring" unicode="&#x2da;" horiz-adv-x="600" 
d="M302 739q44 0 71.5 -24t27.5 -63q-1 -41 -29 -65.5t-74 -24.5q-44 0 -71.5 23.5t-27.5 62.5q0 41 28.5 66t74.5 25zM300 702q-17 0 -26.5 -13t-9.5 -39q0 -25 9.5 -38.5t26.5 -13.5q18 0 27 13.5t9 38.5q0 26 -9 39t-27 13z" />
    <glyph glyph-name="ogonek" unicode="&#x2db;" horiz-adv-x="600" 
d="M302 -172q-20 0 -44 7t-41 24.5t-17 48.5q0 36 22.5 61t58.5 41.5t75 25.5l7 -23q-34 -18 -54 -39t-20 -50q0 -15 9 -29t37 -14q31 0 51.5 17t33.5 41q9 -5 13.5 -13t-0.5 -21q-11 -28 -44.5 -52.5t-86.5 -24.5z" />
    <glyph glyph-name="tilde" unicode="&#x2dc;" horiz-adv-x="600" 
d="M449 690q-6 -46 -27.5 -76t-59.5 -30q-23 0 -43.5 11t-40.5 22t-42 11q-27 0 -40 -12.5t-21 -26.5q-5 -1 -13.5 2t-13.5 7q5 59 33.5 82t59.5 23q25 0 45.5 -11.5t41 -22.5t43.5 -11q25 0 35 12t17 28q9 0 15 -1.5t11 -6.5z" />
    <glyph glyph-name="hungarumlaut" unicode="&#x2dd;" horiz-adv-x="600" 
d="M330 692l-173 -139q-7 2 -17 11t-12 12l116 166q20 -1 46 -15.5t40 -34.5zM495 693l-173 -140q-7 2 -17 11.5t-12 12.5l117 165q20 -1 45 -15.5t40 -33.5z" />
    <glyph glyph-name="gravecomb" unicode="&#x300;" 
d="M165 714q6 5 28.5 12t49 12t42.5 2l90 -160q-6 -4 -21 -6t-27 -3z" />
    <glyph glyph-name="acutecomb" unicode="&#x301;" 
d="M409 714l-162 -143q-12 1 -27 3t-21 6l90 160q16 3 42.5 -2t49.5 -12t28 -12z" />
    <glyph glyph-name="uni0302" unicode="&#x302;" 
d="M173 568q-8 0 -23 5.5t-16 9.5l131 160q6 3 20.5 4t28.5 0t20 -4l131 -160q-1 -4 -17 -9.5t-24 -5.5l-124 82z" />
    <glyph glyph-name="tildecomb" unicode="&#x303;" 
d="M449 690q-6 -46 -27.5 -76t-59.5 -30q-23 0 -43.5 11t-40.5 22t-42 11q-27 0 -40 -12.5t-21 -26.5q-5 -1 -13.5 2t-13.5 7q5 59 33.5 82t59.5 23q25 0 45.5 -11.5t41 -22.5t43.5 -11q25 0 35 12t17 28q9 0 15 -1.5t11 -6.5z" />
    <glyph glyph-name="uni0304" unicode="&#x304;" 
d="M123 662h284q9 -31 0 -61h-284q-9 30 0 61z" />
    <glyph glyph-name="uni0306" unicode="&#x306;" 
d="M294 664q26 0 47 8.5t38.5 25.5t29.5 42q9 -2 18.5 -6t18.5 -9q-11 -41 -30 -75t-49 -54t-76 -20q-48 0 -79.5 21t-49 55t-25.5 73q11 8 21 11t20 4q11 -27 28.5 -43.5t40 -24.5t47.5 -8z" />
    <glyph glyph-name="uni0307" unicode="&#x307;" 
d="M299 574q-29 0 -50 20.5t-21 50.5q0 29 21 50t50 21t50 -21t21 -50q0 -30 -21 -50.5t-50 -20.5z" />
    <glyph glyph-name="uni0308" unicode="&#x308;" 
d="M191 585q-26 0 -44.5 18.5t-18.5 43.5q0 26 18.5 44t44.5 18t44 -18t18 -44q0 -25 -18 -43.5t-44 -18.5zM381 585q-25 0 -43.5 18.5t-18.5 43.5q0 26 18.5 44t43.5 18q26 0 44.5 -18t18.5 -44q0 -25 -18.5 -43.5t-44.5 -18.5z" />
    <glyph glyph-name="hookabovecomb" unicode="&#x309;" 
d="M182 574l-7 36q26 9 35.5 18t9.5 22q0 12 -11.5 17t-26.5 6t-27 1l-2 48q31 2 66.5 -1.5t61 -18.5t25.5 -46q0 -33 -28.5 -53.5t-95.5 -28.5z" />
    <glyph glyph-name="uni030A" unicode="&#x30a;" 
d="M302 739q44 0 71.5 -24t27.5 -63q-1 -41 -29 -65.5t-74 -24.5q-44 0 -71.5 23.5t-27.5 62.5q0 41 28.5 66t74.5 25zM300 702q-17 0 -26.5 -13t-9.5 -39q0 -25 9.5 -38.5t26.5 -13.5q18 0 27 13.5t9 38.5q0 26 -9 39t-27 13z" />
    <glyph glyph-name="uni030B" unicode="&#x30b;" 
d="M330 692l-173 -139q-7 2 -17 11t-12 12l116 166q20 -1 46 -15.5t40 -34.5zM495 693l-173 -140q-7 2 -17 11.5t-12 12.5l117 165q20 -1 45 -15.5t40 -33.5z" />
    <glyph glyph-name="uni030C" unicode="&#x30c;" 
d="M173 752l127 -82l124 82q8 0 24 -5.5t17 -9.5l-131 -160q-6 -3 -20 -4t-28.5 0.5t-20.5 3.5l-131 160q1 4 16 9.5t23 5.5z" />
    <glyph glyph-name="uni0312" unicode="&#x312;" 
d="M280 817q13 -1 26.5 -7t23.5 -17q-17 -24 -22.5 -41.5t-5.5 -29.5q0 -29 19 -44t38 -20q0 -32 -22 -54.5t-55 -22.5q-17 0 -35 8t-30 27t-12 51t16.5 65.5t58.5 84.5z" />
    <glyph glyph-name="uni031B" unicode="&#x31b;" 
d="M180 483l-17 43q34 12 46 29.5t12 36.5q0 17 -7.5 33t-15.5 25q9 7 26 15t35.5 15t30.5 8q9 -10 18.5 -33.5t9.5 -49.5q0 -27 -19.5 -50.5t-50.5 -41t-68 -30.5z" />
    <glyph glyph-name="dotbelowcomb" unicode="&#x323;" 
d="M300 -190q-33 0 -55.5 22.5t-22.5 54.5q0 33 22.5 55.5t55.5 22.5q32 0 54.5 -22.5t22.5 -55.5q0 -32 -22.5 -54.5t-54.5 -22.5z" />
    <glyph glyph-name="uni0324" unicode="&#x324;" 
d="M189 -217q-33 0 -55.5 22.5t-22.5 54.5q0 33 22.5 55.5t55.5 22.5q32 0 54.5 -22.5t22.5 -55.5q0 -32 -22.5 -54.5t-54.5 -22.5zM412 -217q-33 0 -55.5 22.5t-22.5 54.5q0 33 22.5 55.5t55.5 22.5q32 0 54.5 -22.5t22.5 -55.5q0 -32 -22.5 -54.5t-54.5 -22.5z" />
    <glyph glyph-name="uni0326" unicode="&#x326;" 
d="M298 -285q-13 2 -23 8t-21 16q17 21 27 40.5t10 38.5q0 27 -12 41t-27.5 20t-28.5 9q0 32 22.5 55t56.5 23q30 0 54 -21.5t24 -73.5q0 -39 -19 -77t-63 -79z" />
    <glyph glyph-name="uni0327" unicode="&#x327;" 
d="M307 17l-13 -74q51 1 82 -18.5t31 -56.5q0 -42 -32.5 -68.5t-93.5 -26.5q-45 0 -67.5 12t-32.5 23q-2 10 2.5 25t9.5 18q5 -4 18 -14t40 -10q20 0 30.5 11t10.5 30t-14.5 32.5t-45.5 9.5l20 107h55z" />
    <glyph glyph-name="uni0328" unicode="&#x328;" 
d="M302 -172q-20 0 -44 7t-41 24.5t-17 48.5q0 36 22.5 61t58.5 41.5t75 25.5l7 -23q-34 -18 -54 -39t-20 -50q0 -15 9 -29t37 -14q31 0 51.5 17t33.5 41q9 -5 13.5 -13t-0.5 -21q-11 -28 -44.5 -52.5t-86.5 -24.5z" />
    <glyph glyph-name="uni032E" unicode="&#x32e;" 
d="M303 -145q26 0 47 8.5t36.5 25.5t23.5 42l36 -6q-7 -37 -24 -69.5t-47 -52t-76 -19.5q-48 0 -78.5 20.5t-46.5 53t-20 66.5l41 8q6 -27 22 -44t38.5 -25t47.5 -8z" />
    <glyph glyph-name="uni0331" unicode="&#x331;" 
d="M158 -60h284q9 -26 0 -52h-284q-9 26 0 52z" />
    <glyph glyph-name="uni0374" unicode="&#x374;" horiz-adv-x="162" 
d="M78 571q-12 1 -26 3t-22 6l11 183q27 2 61 -6.5t50 -19.5z" />
    <glyph glyph-name="uni0375" unicode="&#x375;" horiz-adv-x="162" 
d="M78 -85q-12 1 -26 3t-22 6l11 183q27 2 61 -6.5t50 -19.5z" />
    <glyph glyph-name="uni037A" unicode="&#x37a;" horiz-adv-x="301" 
d="M152 -224q-40 0 -58.5 23.5t-18.5 59.5q0 25 -1 40t-4 33q9 11 22.5 17t30.5 6q27 0 36.5 -17t6.5 -41l-3 -25q-1 -10 2.5 -20t19.5 -10q6 0 11 2t9 7q8 -10 8 -29q0 -22 -17.5 -34t-43.5 -12z" />
    <glyph glyph-name="uni037E" unicode="&#x37e;" horiz-adv-x="284" 
d="M143 355q-33 0 -55.5 22.5t-22.5 54.5q0 33 22.5 55.5t55.5 22.5q32 0 54.5 -22.5t22.5 -55.5q0 -32 -22.5 -54.5t-54.5 -22.5zM139 -110q-13 2 -23 8t-21 16q17 20 27 40t10 39q0 26 -12 40t-27.5 20.5t-28.5 9.5q0 32 22.5 55t56.5 23q30 0 54 -21.5t24 -73.5
q0 -39 -19 -77t-63 -79z" />
    <glyph glyph-name="tonos" unicode="&#x384;" horiz-adv-x="195" 
d="M96 571q-12 1 -26 3t-22 6l11 183q27 2 61 -6.5t50 -19.5z" />
    <glyph glyph-name="dieresistonos" unicode="&#x385;" horiz-adv-x="600" 
d="M307 589q-11 -2 -24 -1.5t-21 4.5l-11 176q12 5 32 6.5t40 -0.5t32 -9zM160 575q-28 0 -43.5 18t-15.5 43q0 26 15.5 43.5t43.5 17.5q27 0 41.5 -17.5t14.5 -43.5q0 -25 -14.5 -43t-41.5 -18zM423 573q-28 0 -43.5 18t-15.5 43q0 26 15.5 43.5t43.5 17.5q27 0 41.5 -17.5
t14.5 -43.5q0 -25 -14.5 -43t-41.5 -18z" />
    <glyph glyph-name="Alphatonos" unicode="&#x386;" horiz-adv-x="648" 
d="M363 713q25 0 46.5 -9t28.5 -36l174 -586q4 -13 12 -32t21 -33q-9 -10 -28 -20.5t-54 -10.5q-32 0 -55 13.5t-29 40.5l-162 620l14 -3l-144 -577q-3 -12 -5 -23.5t-2 -22.5q0 -12 3 -20t8 -13q-15 -6 -32.5 -10.5t-43.5 -4.5q-40 0 -59 13.5t-19 44.5q0 13 3.5 31.5
t10.5 39.5l194 579q58 19 118 19zM181 277h332v-74h-332v74zM95 513q-12 1 -26 3t-22 6l11 183q27 2 61 -6.5t50 -19.5z" />
    <glyph glyph-name="anoteleia" unicode="&#x387;" horiz-adv-x="283" 
d="M142 355q-33 0 -55.5 22.5t-22.5 54.5q0 33 22.5 55.5t55.5 22.5q32 0 54.5 -22.5t22.5 -55.5q0 -32 -22.5 -54.5t-54.5 -22.5z" />
    <glyph glyph-name="Epsilontonos" unicode="&#x388;" horiz-adv-x="654" 
d="M263 0q-34 0 -57 18.5t-23 52.5v462q0 29 -3.5 62.5t-16.5 67.5q26 23 53 29t74 6h289q14 0 19 -16t2 -38.5t-12.5 -42t-23.5 -25.5q-52 24 -114.5 39t-127.5 17l1 -566q44 2 96 11t98 22t72 26q13 -8 19.5 -28t6.5 -42.5t-8.5 -38.5t-25.5 -16h-318zM297 324v74h237
q5 -19 4.5 -38.5t-4.5 -35.5h-237zM58 515q-12 1 -26 3t-22 6l11 183q27 2 61 -6.5t50 -19.5z" />
    <glyph glyph-name="Etatonos" unicode="&#x389;" horiz-adv-x="801" 
d="M323 146q0 -28 3.5 -62.5t16.5 -67.5q-9 -8 -30 -19.5t-50 -11.5q-34 0 -57 19t-23 52v495q0 29 -3.5 62.5t-16.5 67.5q9 8 30 19t50 11q34 0 57 -18.5t23 -51.5v-495zM718 146q0 -28 3.5 -62.5t16.5 -67.5q-9 -8 -30 -19.5t-50 -11.5q-34 0 -57 19t-23 52v495
q0 29 -3.5 62.5t-16.5 67.5q9 8 30 19t50 11q34 0 57 -18.5t23 -51.5v-495zM269 401h351v-74h-351v74zM58 515q-12 1 -26 3t-22 6l11 183q27 2 61 -6.5t50 -19.5z" />
    <glyph glyph-name="Iotatonos" unicode="&#x38a;" horiz-adv-x="405" 
d="M262 -15q-34 0 -57 19t-23 52v495q0 29 -3.5 62.5t-16.5 67.5q9 8 30 19t50 11q34 0 57 -18.5t23 -51.5v-495q0 -28 3.5 -62.5t16.5 -67.5q-9 -8 -30 -19.5t-50 -11.5zM58 513q-12 1 -26 3t-22 6l11 183q27 2 61 -6.5t50 -19.5z" />
    <glyph glyph-name="Omicrontonos" unicode="&#x38c;" horiz-adv-x="727" 
d="M394 -14q-141 0 -213.5 91t-72.5 272t72.5 272t213.5 91t213.5 -91t72.5 -272t-72.5 -272t-213.5 -91zM394 33q70 0 101 75t31 241t-31 241t-101 75q-69 0 -100.5 -75t-31.5 -241t31.5 -241t100.5 -75zM58 515q-12 1 -26 3t-22 6l11 183q27 2 61 -6.5t50 -19.5z" />
    <glyph glyph-name="Upsilontonos" unicode="&#x38e;" horiz-adv-x="786" 
d="M465 -15q-34 0 -57 19t-23 52v166q0 35 -19 83t-46 99l-60 113q-21 40 -40 63t-41 23q-8 0 -14 -2t-12 -5q-8 19 -8 38q0 33 27 54.5t67 21.5q49 0 80 -27t61 -95l33 -75q30 -66 45.5 -120t21 -94.5t5.5 -66.5l-38 -1q0 15 5 37t13.5 48.5t19 54.5t21.5 54l64 152
q17 40 32 69t35 45t51 16q39 0 59.5 -21t20.5 -52q0 -16 -8 -38q-5 3 -14 5t-16 2q-27 0 -46 -22.5t-30 -45.5l-66 -130q-7 -15 -18 -36.5t-21 -46t-17 -48t-7 -43.5v-85q0 -28 3.5 -62.5t16.5 -67.5q-9 -8 -30 -19.5t-50 -11.5zM58 515q-12 1 -26 3t-22 6l11 183
q27 2 61 -6.5t50 -19.5z" />
    <glyph glyph-name="Omegatonos" unicode="&#x38f;" horiz-adv-x="781" 
d="M386 55l-32 5q-75 20 -131 64.5t-87 112.5t-31 158q0 106 38.5 175.5t107.5 104.5t160 35q92 0 160.5 -35t107 -104.5t38.5 -175.5q0 -90 -30.5 -158t-86.5 -112.5t-132 -64.5l-32 -5q68 53 97.5 142t29.5 198q0 94 -19.5 153t-53.5 87t-79 28q-44 0 -78.5 -28t-54 -87
t-19.5 -153q0 -67 14 -132t42.5 -118.5t70.5 -89.5zM135 0q-13 0 -24 15t-16 38t-2.5 47.5t16.5 43.5l276 -89l1 -55h-251zM437 0v55l277 89q14 -19 16.5 -43.5t-2.5 -47.5t-16 -38t-24 -15h-251zM58 513q-12 1 -26 3t-22 6l11 183q27 2 61 -6.5t50 -19.5z" />
    <glyph glyph-name="iotadieresistonos" unicode="&#x390;" horiz-adv-x="301" 
d="M190 -15q-64 0 -95 56.5t-31 147.5l-1 196q0 43 -3.5 68t-9.5 46q23 17 40.5 22.5t38.5 5.5q29 0 51.5 -20.5t17.5 -73.5l-11 -258q-4 -40 4.5 -59.5t36.5 -19.5q8 0 18 2.5t18 7.5q6 -7 9 -21.5t3 -25.5q0 -34 -25.5 -54t-60.5 -20zM151 596q-11 -2 -24 -1.5t-21 4.5
l-11 176q12 5 32 6.5t40 -0.5t32 -9zM4 582q-28 0 -43.5 18t-15.5 43q0 26 15.5 43.5t43.5 17.5q27 0 41.5 -17.5t14.5 -43.5q0 -25 -14.5 -43t-41.5 -18zM267 580q-28 0 -43.5 18t-15.5 43q0 26 15.5 43.5t43.5 17.5q27 0 41.5 -17.5t14.5 -43.5q0 -25 -14.5 -43t-41.5 -18
z" />
    <glyph glyph-name="Alpha" unicode="&#x391;" horiz-adv-x="648" 
d="M363 713q25 0 46.5 -9t28.5 -36l174 -586q4 -13 12 -32t21 -33q-9 -10 -28 -20.5t-54 -10.5q-32 0 -55 13.5t-29 40.5l-162 620l14 -3l-144 -577q-3 -12 -5 -23.5t-2 -22.5q0 -12 3 -20t8 -13q-15 -6 -32.5 -10.5t-43.5 -4.5q-40 0 -59 13.5t-19 44.5q0 13 3.5 31.5
t10.5 39.5l194 579q58 19 118 19zM181 277h332v-74h-332v74z" />
    <glyph glyph-name="Beta" unicode="&#x392;" horiz-adv-x="603" 
d="M163 0q-34 0 -57 18.5t-23 52.5v480q0 16 -1.5 38t-5.5 46t-13 46q32 15 78 23t110 8q130 0 203.5 -38.5t73.5 -129.5q0 -61 -34 -106t-94 -61q71 -10 116.5 -55t45.5 -123q0 -66 -34 -110.5t-97.5 -66.5t-154.5 -22h-113zM223 48h47q52 0 82.5 19.5t44 53.5t13.5 75
q0 61 -18 93.5t-49 45t-71 12.5h-65l-7 48h69q40 -1 64.5 16.5t35.5 49t11 71.5q0 59 -27.5 95.5t-99.5 36.5h-15.5h-14.5v-616z" />
    <glyph glyph-name="Gamma" unicode="&#x393;" horiz-adv-x="544" 
d="M163 -14q-34 0 -57 19t-23 52v474q0 29 -3.5 62.5t-16.5 67.5q26 23 53 30t74 7h308q14 0 19 -16.5t2 -39t-12.5 -42.5t-23.5 -26q-52 24 -116.5 39t-144.5 17l1 -484q0 -28 3.5 -62t16.5 -67q-9 -8 -30 -19.5t-50 -11.5z" />
    <glyph glyph-name="uni0394" unicode="&#x394;" horiz-adv-x="636" 
d="M124 -1q-55 0 -76 36.5t0 97.5l188 561q58 19 118 19q25 0 46 -9t29 -36l171 -572q4 -13 12 -32t21 -33q-9 -10 -28 -20.5t-54 -10.5zM161 31l-40 53h404l-55 -44l-162 620l14 -3z" />
    <glyph glyph-name="Epsilon" unicode="&#x395;" horiz-adv-x="554" 
d="M163 0q-34 0 -57 18.5t-23 52.5v462q0 29 -3.5 62.5t-16.5 67.5q26 23 53 29t74 6h289q14 0 19 -16t2 -38.5t-12.5 -42t-23.5 -25.5q-52 24 -114.5 39t-127.5 17l1 -566q44 2 96 11t98 22t72 26q13 -8 19.5 -28t6.5 -42.5t-8.5 -38.5t-25.5 -16h-318zM197 324v74h237
q5 -19 4.5 -38.5t-4.5 -35.5h-237z" />
    <glyph glyph-name="Zeta" unicode="&#x396;" horiz-adv-x="597" 
d="M62 -7l-18 33q0 35 6 59t28 50l375 500l12 -39l-237 -19q-24 -1 -46 -9.5t-32 -25.5q-9 -17 -10.5 -30t2.5 -27q-38 7 -63 26q-17 11 -28 31t-11 45q0 50 41.5 83.5t134.5 30.5l203 -7q29 -1 59.5 1t55.5 10l17 -41q0 -34 -6.5 -57t-28.5 -50l-379 -490l-18 36l262 19
q34 2 55 14.5t29 25.5q10 14 11.5 28t-1.5 27q14 -2 20.5 -5t12.5 -6q20 -8 35 -22t23 -32.5t8 -42.5q0 -49 -38.5 -80.5t-118.5 -30.5l-264 7q-28 1 -46 -1t-45 -11z" />
    <glyph glyph-name="Eta" unicode="&#x397;" horiz-adv-x="701" 
d="M223 146q0 -28 3.5 -62.5t16.5 -67.5q-9 -8 -30 -19.5t-50 -11.5q-34 0 -57 19t-23 52v495q0 29 -3.5 62.5t-16.5 67.5q9 8 30 19t50 11q34 0 57 -18.5t23 -51.5v-495zM618 146q0 -28 3.5 -62.5t16.5 -67.5q-9 -8 -30 -19.5t-50 -11.5q-34 0 -57 19t-23 52v495
q0 29 -3.5 62.5t-16.5 67.5q9 8 30 19t50 11q34 0 57 -18.5t23 -51.5v-495zM169 401h351v-74h-351v74z" />
    <glyph glyph-name="Theta" unicode="&#x398;" horiz-adv-x="666" 
d="M247 319q-7 38 0 74h164q4 -19 3.5 -38.5t-3.5 -35.5h-164zM333 -14q-141 0 -213.5 91t-72.5 272t72.5 272t213.5 91t213.5 -91t72.5 -272t-72.5 -272t-213.5 -91zM334 33q69 0 100 75t31 241t-31 241t-100 75q-70 0 -101.5 -75t-31.5 -241t31.5 -241t101.5 -75z" />
    <glyph glyph-name="Iota" unicode="&#x399;" horiz-adv-x="306" 
d="M163 -15q-34 0 -57 19t-23 52v495q0 29 -3.5 62.5t-16.5 67.5q9 8 30 19t50 11q34 0 57 -18.5t23 -51.5v-495q0 -28 3.5 -62.5t16.5 -67.5q-9 -8 -30 -19.5t-50 -11.5z" />
    <glyph glyph-name="Kappa" unicode="&#x39a;" horiz-adv-x="621" 
d="M516 -20q-43 0 -69.5 24t-43 59t-28.5 69l-27 82q-6 16 -14 33.5t-20.5 32.5t-31 24t-44.5 9h-29l-1 48q10 2 19.5 4t17.5 5q42 13 73 41t51 63t30 72t10 68t-6.5 51.5t-11.5 28.5q15 6 28 9t29 3q21 0 43.5 -7.5t37.5 -29t15 -64.5q0 -48 -24 -98.5t-76.5 -93.5
t-136.5 -71l2 11q71 -3 107 -27t55 -68l44 -102q18 -38 29.5 -52.5t28.5 -16.5q6 -1 11.5 1t12.5 6q8 -22 8 -38q0 -31 -24 -53.5t-65 -22.5zM163 -15q-34 0 -57 19t-23 52v495q0 29 -3.5 62.5t-16.5 67.5q9 8 30 19t50 11q34 0 56.5 -18.5t22.5 -51.5l1 -495
q0 -28 3.5 -62.5t16.5 -67.5q-9 -8 -30 -19.5t-50 -11.5z" />
    <glyph glyph-name="Lambda" unicode="&#x39b;" horiz-adv-x="662" 
d="M110 -14q-41 0 -59.5 13.5t-18.5 43.5q0 14 3.5 32t10.5 39l210 580q28 11 52 15t41 4q73 0 86 -38l196 -594q5 -13 12.5 -32t20.5 -33q-10 -10 -29 -20t-54 -10q-74 0 -89 53l-182 652h39l-167 -612q-3 -11 -5 -22.5t-2 -22.5q0 -13 3 -21t7 -13q-15 -6 -32 -10t-43 -4z
" />
    <glyph glyph-name="Mu" unicode="&#x39c;" horiz-adv-x="840" 
d="M757 146q0 -28 3.5 -62.5t16.5 -67.5q-9 -8 -30 -19.5t-50 -11.5q-32 0 -53.5 19t-21.5 52l-1 496l21 49l-186 -523q-38 -13 -68.5 -14.5t-59.5 9.5q-34 74 -70.5 163t-70 183t-60.5 182l17 -28l1 -428q0 -28 3.5 -68.5t16.5 -74.5q-9 -8 -22 -12.5t-27 -4.5
q-25 0 -35.5 15t-10.5 40v514q0 45 -1 77t-6 63q9 8 32.5 12.5t64.5 4.5q26 0 43 -6t30 -19q49 -133 97 -265t95 -256l-21 3q20 57 43.5 126t48 141.5t47 140.5t38.5 122q26 9 50.5 11t38.5 2q32 0 57.5 -8.5t29.5 -19.5v-537z" />
    <glyph glyph-name="Nu" unicode="&#x39d;" horiz-adv-x="676" 
d="M120 -15q-15 0 -30 5t-27 13q13 34 16.5 74.5t3.5 68.5v406q0 45 -1.5 78t-5.5 64q8 9 28.5 13t41 3.5t26.5 -6.5q36 -51 81 -109.5t91 -118.5t88 -116t73 -102.5t44 -78.5l-36 440q-4 39 13 64t53 27q14 1 29.5 -3t27.5 -12q-11 -31 -13.5 -69t-2.5 -62l-1 -421
q0 -45 1.5 -77t5.5 -63q-7 -8 -25 -12.5t-37.5 -4.5t-31.5 6q-59 69 -106.5 126.5t-84.5 105.5t-65.5 87.5t-50.5 73t-38 61t-28 51.5l30 -432q3 -36 -20 -58t-49 -22z" />
    <glyph glyph-name="Xi" unicode="&#x39e;" horiz-adv-x="561" 
d="M71 563q-15 7 -25 29t-13.5 47t2 43t20.5 18h451q15 0 20.5 -18t2 -43t-13.5 -47t-25 -29q-45 18 -98.5 34t-110.5 16t-111 -15.5t-99 -34.5zM51 0q-14 0 -18.5 18t-1.5 43t12.5 47t22.5 29q42 -19 99.5 -34.5t115.5 -15.5q46 0 84 7.5t70 19t60 23.5q14 -7 23 -29
t12 -47t-1.5 -43t-18.5 -18h-459zM117 315q-16 42 0 82h331q8 -21 7 -43t-7 -39h-331z" />
    <glyph glyph-name="Omicron" unicode="&#x39f;" horiz-adv-x="666" 
d="M333 -14q-141 0 -213.5 91t-72.5 272t72.5 272t213.5 91t213.5 -91t72.5 -272t-72.5 -272t-213.5 -91zM333 33q70 0 101 75t31 241t-31 241t-101 75q-69 0 -100.5 -75t-31.5 -241t31.5 -241t100.5 -75z" />
    <glyph glyph-name="Pi" unicode="&#x3a0;" horiz-adv-x="692" 
d="M163 -15q-34 0 -57 19t-23 52v495q0 29 -3.5 62.5t-16.5 67.5q25 14 59 16.5t65 2.5h318q31 0 65 -2.5t59 -16.5q-13 -34 -16.5 -67.5t-3.5 -62.5v-405q0 -28 3.5 -62.5t16.5 -67.5q-9 -8 -30 -19.5t-50 -11.5q-34 0 -57 19t-23 52v571h-246v-481q0 -28 3.5 -62.5
t16.5 -67.5q-9 -8 -30 -19.5t-50 -11.5z" />
    <glyph glyph-name="Rho" unicode="&#x3a1;" horiz-adv-x="586" 
d="M163 -15q-34 0 -57 19t-23 52v495q0 16 -1.5 38t-5.5 46t-13 46q32 15 78 23t108 8q146 0 225.5 -48t79.5 -159q0 -112 -80 -173.5t-228 -61.5h-20t-21 1l-7 48q10 -1 19.5 -1.5t21.5 -0.5q62 0 97 23t50 63t15 92q0 50 -14 88t-46.5 59.5t-88.5 21.5h-15.5t-13.5 -1
v-525q0 -16 1.5 -37t5.5 -42.5t13 -42.5q-9 -8 -30 -19.5t-50 -11.5z" />
    <glyph glyph-name="Sigma" unicode="&#x3a3;" horiz-adv-x="558" 
d="M76 -1v0q-22 10 -35 26t-15 40l235 305l2 -47l-253 302q0 12 9.5 29t23 30.5t23.5 13.5h426q14 0 19 -16t2 -38t-12.5 -41t-23.5 -25q-65 25 -149 38.5t-166 15.5v21l221 -273l-264 -340l-19 56q83 -22 157 -20t136.5 17.5t108.5 32.5q14 -6 20.5 -26t5 -43t-11 -40
t-28.5 -17z" />
    <glyph glyph-name="Tau" unicode="&#x3a4;" horiz-adv-x="557" 
d="M289 -15q-34 0 -57 19t-23 52v621l139 -12l1 -519q0 -28 3.5 -62.5t16.5 -67.5q-9 -8 -30 -19.5t-50 -11.5zM49 576q-14 6 -23.5 25.5t-12.5 42t2 38.5t19 16h490q14 0 19 -16t1.5 -38.5t-13 -42t-23.5 -25.5q-29 16 -68 33.5t-81 29.5t-80 12t-80 -12t-80.5 -29.5
t-69.5 -33.5z" />
    <glyph glyph-name="Upsilon" unicode="&#x3a5;" horiz-adv-x="664" 
d="M343 -15q-34 0 -57 19t-23 52v166q0 35 -19 83t-46 99l-60 113q-21 40 -40 63t-41 23q-8 0 -14 -2t-12 -5q-8 19 -8 38q0 33 27 54.5t67 21.5q49 0 80 -27t61 -95l33 -75q30 -66 45.5 -120t21 -94.5t5.5 -66.5l-38 -1q0 15 5 37t13.5 48.5t19 54.5t21.5 54l64 152
q17 40 32 69t35 45t51 16q39 0 59.5 -21t20.5 -52q0 -16 -8 -38q-5 3 -14 5t-16 2q-27 0 -46 -22.5t-30 -45.5l-66 -130q-7 -15 -18 -36.5t-21 -46t-17 -48t-7 -43.5v-85q0 -28 3.5 -62.5t16.5 -67.5q-9 -8 -30 -19.5t-50 -11.5z" />
    <glyph glyph-name="Phi" unicode="&#x3a6;" horiz-adv-x="848" 
d="M424 86q-125 0 -209.5 29.5t-127.5 88t-43 145.5q0 131 96.5 197t283.5 66q125 0 209.5 -29.5t127.5 -88t43 -145.5q0 -130 -96 -196.5t-284 -66.5zM389 137h70q49 0 91 23t68 70t26 119q0 73 -26 119.5t-67.5 68.5t-88.5 23l-70 1q-48 1 -91 -21.5t-69.5 -69.5
t-26.5 -121t26.5 -121t68.5 -69t89 -22zM434 -32q-32 0 -53.5 20.5t-21.5 54.5v518q0 29 -3 65t-15 71q8 8 27.5 19.5t46.5 11.5q32 0 53.5 -19t21.5 -54v-518q0 -30 3 -65.5t16 -70.5q-9 -9 -28.5 -21t-46.5 -12z" />
    <glyph glyph-name="Chi" unicode="&#x3a7;" horiz-adv-x="640" 
d="M514 -14q-53 0 -82.5 32.5t-58.5 87.5l-101 194l-134 251q-10 17 -18.5 25.5t-19.5 8.5t-20.5 -8t-11.5 -19q-16 8 -27.5 24.5t-11.5 39.5q0 32 23 58.5t80 26.5q55 0 86 -30.5t61 -89.5l83 -165l151 -280q9 -17 20 -25.5t21 -8.5q9 0 18 8.5t11 18.5q16 -7 28 -23.5
t12 -38.5q0 -33 -29.5 -60t-79.5 -27zM95 -14q-34 0 -51 20.5t-21 63.5q36 10 59.5 32t44.5 51l156 219l58 -56l-177 -289q-11 -18 -26.5 -29.5t-42.5 -11.5zM350 327l-45 55l162 284q9 17 24.5 29t43.5 12q34 0 51.5 -20t21.5 -64q-37 -10 -60.5 -32t-43.5 -50z" />
    <glyph glyph-name="Psi" unicode="&#x3a8;" horiz-adv-x="902" 
d="M482 197l4 58q63 0 98.5 20t51.5 62t18 107l4 114q2 53 18 86.5t43.5 49.5t63.5 16q47 0 71.5 -22t24.5 -54q0 -16 -8 -38q-7 3 -14.5 5t-16.5 2q-11 0 -20 -6t-14 -21t-6 -42l-3 -101q-2 -60 -22.5 -104.5t-60 -73.5t-97.5 -43.5t-135 -14.5zM420 197q-76 0 -134.5 14.5
t-98 43.5t-60 73.5t-22.5 104.5l-3 101q-1 27 -6 42t-13.5 21t-20.5 6q-9 0 -16.5 -2t-14.5 -5q-8 22 -8 38q0 32 25 54t71 22q37 0 64 -16t43 -49.5t18 -86.5l4 -114q3 -65 18.5 -107t51.5 -62t98 -20zM461 -15q-34 0 -57 19t-23 52v495q0 29 -3.5 62.5t-16.5 67.5
q9 8 30 19t50 11q34 0 57 -18.5t23 -51.5v-495q0 -28 3.5 -62.5t16.5 -67.5q-9 -8 -30 -19.5t-50 -11.5z" />
    <glyph glyph-name="uni03A9" unicode="&#x3a9;" horiz-adv-x="679" 
d="M344 55l-32 5q-75 20 -131 64.5t-87 112.5t-31 158q0 106 38.5 175.5t107.5 104.5t160 35q92 0 160.5 -35t107 -104.5t38.5 -175.5q0 -90 -30.5 -158t-86.5 -112.5t-132 -64.5l-32 -5q68 53 97.5 142t29.5 198q0 94 -19.5 153t-53.5 87t-79 28q-44 0 -78.5 -28t-54 -87
t-19.5 -153q0 -67 14 -132t42.5 -118.5t70.5 -89.5zM93 0q-13 0 -24 15t-16 38t-2.5 47.5t16.5 43.5l276 -89l1 -55h-251zM395 0v55l277 89q14 -19 16.5 -43.5t-2.5 -47.5t-16 -38t-24 -15h-251z" />
    <glyph glyph-name="Iotadieresis" unicode="&#x3aa;" horiz-adv-x="306" 
d="M163 -15q-34 0 -57 19t-23 52v495q0 29 -3.5 62.5t-16.5 67.5q9 8 30 19t50 11q34 0 57 -18.5t23 -51.5v-495q0 -28 3.5 -62.5t16.5 -67.5q-9 -8 -30 -19.5t-50 -11.5zM32 756q-30 0 -50.5 20.5t-20.5 50.5q0 29 20.5 50t50.5 21q29 0 50 -21t21 -50q0 -30 -21 -50.5
t-50 -20.5zM247 756q-30 0 -50.5 20.5t-20.5 50.5q0 29 20.5 50t50.5 21q29 0 50 -21t21 -50q0 -30 -21 -50.5t-50 -20.5z" />
    <glyph glyph-name="Upsilondieresis" unicode="&#x3ab;" horiz-adv-x="664" 
d="M343 -15q-34 0 -57 19t-23 52v166q0 35 -19 83t-46 99l-60 113q-21 40 -40 63t-41 23q-8 0 -14 -2t-12 -5q-8 19 -8 38q0 33 27 54.5t67 21.5q49 0 80 -27t61 -95l33 -75q30 -66 45.5 -120t21 -94.5t5.5 -66.5l-38 -1q0 15 5 37t13.5 48.5t19 54.5t21.5 54l64 152
q17 40 32 69t35 45t51 16q39 0 59.5 -21t20.5 -52q0 -16 -8 -38q-5 3 -14 5t-16 2q-27 0 -46 -22.5t-30 -45.5l-66 -130q-7 -15 -18 -36.5t-21 -46t-17 -48t-7 -43.5v-85q0 -28 3.5 -62.5t16.5 -67.5q-9 -8 -30 -19.5t-50 -11.5zM224 758q-30 0 -50.5 20.5t-20.5 50.5
q0 29 20.5 50t50.5 21q29 0 50 -21t21 -50q0 -30 -21 -50.5t-50 -20.5zM439 758q-30 0 -50.5 20.5t-20.5 50.5q0 29 20.5 50t50.5 21q29 0 50 -21t21 -50q0 -30 -21 -50.5t-50 -20.5z" />
    <glyph glyph-name="alphatonos" unicode="&#x3ac;" horiz-adv-x="614" 
d="M231 -15q-37 0 -72 16.5t-63.5 49.5t-45 82t-16.5 114q0 74 27 139t78.5 105t122.5 40q42 0 73.5 -18.5t52 -44.5t27.5 -51l-17 -65q-1 38 -28 68.5t-71 30.5q-36 0 -61 -19t-41 -49t-23 -64.5t-7 -66.5q0 -50 11.5 -89t33 -60.5t51.5 -21.5q22 0 38.5 11t29 31.5t22 50
t17 67.5t13.5 83l12 88q5 32 7 61t0 46q8 4 21 6t25 2q34 0 60 -16.5t36.5 -46t-2.5 -70.5l-65 -204q0 -44 17.5 -69t45.5 -25q18 0 30.5 5t24.5 15q12 -19 12 -44q0 -39 -27 -63t-69 -24q-50 0 -79 43t-33 120h4q-15 -48 -38.5 -85t-56.5 -57.5t-77 -20.5zM301 571
q-12 1 -26 3t-22 6l11 183q27 2 61 -6.5t50 -19.5z" />
    <glyph glyph-name="epsilontonos" unicode="&#x3ad;" horiz-adv-x="516" 
d="M269 -18q-103 0 -163.5 38t-60.5 102q0 54 38 90.5t98 53.5l-1 -12q-56 13 -92 47t-36 75q0 48 29.5 82.5t82.5 53.5t124 19q94 0 146 -26t52 -71q0 -31 -24 -49.5t-63 -18.5q-22 0 -41.5 5t-28.5 12q14 11 21 26t7 28q0 23 -19 35.5t-45 12.5q-48 0 -74.5 -28.5
t-26.5 -79.5q0 -25 14 -53.5t42 -44.5l-2 -28q-22 -10 -39.5 -35t-17.5 -54q0 -40 33.5 -66t92.5 -26q38 0 70.5 10t57 29.5t37.5 47.5q8 -6 12 -15.5t4 -20.5q0 -46 -33.5 -77t-85.5 -46.5t-108 -15.5zM317 222q-28 0 -55.5 5t-52.5 15l19 41q31 8 65.5 14.5t73.5 9.5
q15 -16 15 -31q0 -22 -17.5 -38t-47.5 -16zM286 571q-12 1 -26 3t-22 6l11 183q27 2 61 -6.5t50 -19.5z" />
    <glyph glyph-name="etatonos" unicode="&#x3ae;" horiz-adv-x="590" 
d="M477 -224q-30 0 -46 17.5t-21.5 46t-4.5 60.5l11 417q1 42 -7 66t-23 34.5t-35 10.5q-29 0 -50.5 -15t-36 -39.5t-22 -55t-7.5 -60.5v-132q0 -38 3 -64t10 -49q-13 -10 -31.5 -19t-43.5 -9q-36 0 -55.5 28.5t-15.5 81.5l19 217q0 40 -5 63t-17 32.5t-34 9.5
q-12 0 -21 -2.5t-17 -7.5q-5 8 -8.5 20.5t-3.5 23.5q0 32 23.5 54.5t62.5 22.5q31 0 57.5 -17t43.5 -56t17 -107l-18 5q21 63 50 102.5t64 57.5t73 18q23 0 49 -8t48.5 -31t36.5 -68t14 -119v-302q0 -32 0.5 -70.5t3.5 -73t10 -55.5q-9 -9 -29.5 -18.5t-43.5 -9.5zM360 571
q-12 1 -26 3t-22 6l11 183q27 2 61 -6.5t50 -19.5z" />
    <glyph glyph-name="iotatonos" unicode="&#x3af;" horiz-adv-x="301" 
d="M190 -15q-64 0 -95 56.5t-31 147.5l-1 196q0 43 -3.5 68t-9.5 46q23 17 40.5 22.5t38.5 5.5q29 0 51.5 -20.5t17.5 -73.5l-11 -258q-4 -40 4.5 -59.5t36.5 -19.5q8 0 18 2.5t18 7.5q6 -7 9 -21.5t3 -25.5q0 -34 -25.5 -54t-60.5 -20zM158 578q-12 1 -26 3t-22 6l11 183
q27 2 61 -6.5t50 -19.5z" />
    <glyph glyph-name="upsilondieresistonos" unicode="&#x3b0;" horiz-adv-x="612" 
d="M312 -15q-64 0 -112.5 24.5t-75.5 68.5t-27 103q0 54 8 103t8 89q0 23 -7.5 33.5t-24.5 10.5q-10 0 -19 -2.5t-17 -7.5q-10 17 -10 36q0 38 26 61.5t69 23.5q54 0 83.5 -38t29.5 -108q0 -26 -4 -64t-8 -80t-4 -80q0 -62 24.5 -94.5t60.5 -32.5q45 0 75.5 57.5t30.5 168.5
q0 95 -14 161t-34 97q12 10 32 10q40 0 75 -35.5t57.5 -96t22.5 -135.5q0 -84 -32 -145.5t-87.5 -94.5t-125.5 -33zM321 589q-11 -2 -24 -1.5t-21 4.5l-11 176q12 5 32 6.5t40 -0.5t32 -9zM174 575q-28 0 -43.5 18t-15.5 43q0 26 15.5 43.5t43.5 17.5q27 0 41.5 -17.5
t14.5 -43.5q0 -25 -14.5 -43t-41.5 -18zM437 573q-28 0 -43.5 18t-15.5 43q0 26 15.5 43.5t43.5 17.5q27 0 41.5 -17.5t14.5 -43.5q0 -25 -14.5 -43t-41.5 -18z" />
    <glyph glyph-name="alpha" unicode="&#x3b1;" horiz-adv-x="614" 
d="M231 -15q-37 0 -72 16.5t-63.5 49.5t-45 82t-16.5 114q0 74 27 139t78.5 105t122.5 40q42 0 73.5 -18.5t52 -44.5t27.5 -51l-17 -65q-1 38 -28 68.5t-71 30.5q-36 0 -61 -19t-41 -49t-23 -64.5t-7 -66.5q0 -50 11.5 -89t33 -60.5t51.5 -21.5q22 0 38.5 11t29 31.5t22 50
t17 67.5t13.5 83l12 88q5 32 7 61t0 46q8 4 21 6t25 2q34 0 60 -16.5t36.5 -46t-2.5 -70.5l-65 -204q0 -44 17.5 -69t45.5 -25q18 0 30.5 5t24.5 15q12 -19 12 -44q0 -39 -27 -63t-69 -24q-50 0 -79 43t-33 120h4q-15 -48 -38.5 -85t-56.5 -57.5t-77 -20.5z" />
    <glyph glyph-name="beta" unicode="&#x3b2;" horiz-adv-x="574" 
d="M139 -224q-35 0 -51 18.5t-20 51.5t-4 75v548q0 77 19 128.5t51.5 81t72 42t79.5 12.5q55 0 102 -18t76 -53.5t29 -90.5q0 -52 -37 -102t-95 -83l-51 10q12 16 22.5 39t16.5 54.5t6 70.5q0 34 -8.5 62t-26 45.5t-45.5 17.5q-25 0 -44 -17t-30 -49t-11 -78v-574
q0 -46 2 -90.5t12 -72.5q-7 -9 -25.5 -18.5t-39.5 -9.5zM317 -15q-55 0 -102 21t-70 54l14 35q13 -8 30 -16t38 -13.5t46 -5.5q41 0 69.5 17t44 48t15.5 72q0 46 -14.5 88.5t-54.5 68.5q-14 -14 -33.5 -24t-37.5 -10q-19 0 -30 12.5t-11 34.5q0 6 1 13t3 13q11 4 36 8t63 1
l14 -3q66 -7 111 -36.5t68 -74t23 -97.5q0 -48 -24 -95.5t-73.5 -79t-125.5 -31.5z" />
    <glyph glyph-name="gamma" unicode="&#x3b3;" horiz-adv-x="572" 
d="M303 -24l-63 4l-132 372q-13 35 -26 50t-31 15q-7 0 -15.5 -2.5t-15.5 -7.5q-5 8 -7.5 17.5t-2.5 22.5q0 33 26 56.5t63 23.5q52 0 83 -40t49 -129l62 -309l-27 1q26 27 49 75.5t41 106.5t28.5 114t10.5 98q0 26 -2.5 41t-7.5 24q14 8 33.5 13t39.5 5q37 0 58 -22.5
t21 -60.5q0 -32 -14 -80t-37 -102t-52.5 -106t-61.5 -92zM264 -224q-39 0 -54.5 15t-15.5 53q0 34 8.5 71t23 69.5t32.5 54.5l63 -13q-3 -46 -3.5 -88t2 -76.5t7.5 -58.5q-8 -11 -26.5 -19t-36.5 -8z" />
    <glyph glyph-name="delta" unicode="&#x3b4;" horiz-adv-x="551" 
d="M273 -15q-111 0 -175 64.5t-64 175.5q0 75 35 129t99.5 82t152.5 26l22 -31q-55 5 -93.5 -16.5t-59 -66.5t-20.5 -112q0 -91 28 -147.5t74 -56.5q45 0 72.5 54t27.5 142q0 69 -27.5 113t-81.5 75l-46 26q-64 37 -96.5 77.5t-32.5 83.5q0 60 50 95t140 35q60 0 106 -13
t72.5 -36t26.5 -53t-25 -52t-58 -21q-15 30 -45 51.5t-66 33.5t-72 12q-22 0 -33 -5.5t-11 -17.5q0 -13 11.5 -22.5t35.5 -26.5l106 -72q85 -58 133 -122t48 -148q0 -78 -28.5 -135.5t-81 -89t-124.5 -31.5z" />
    <glyph glyph-name="epsilon" unicode="&#x3b5;" horiz-adv-x="516" 
d="M269 -18q-103 0 -163.5 38t-60.5 102q0 54 38 90.5t98 53.5l-1 -12q-56 13 -92 47t-36 75q0 48 29.5 82.5t82.5 53.5t124 19q94 0 146 -26t52 -71q0 -31 -24 -49.5t-63 -18.5q-22 0 -41.5 5t-28.5 12q14 11 21 26t7 28q0 23 -19 35.5t-45 12.5q-48 0 -74.5 -28.5
t-26.5 -79.5q0 -25 14 -53.5t42 -44.5l-2 -28q-22 -10 -39.5 -35t-17.5 -54q0 -40 33.5 -66t92.5 -26q38 0 70.5 10t57 29.5t37.5 47.5q8 -6 12 -15.5t4 -20.5q0 -46 -33.5 -77t-85.5 -46.5t-108 -15.5zM317 222q-28 0 -55.5 5t-52.5 15l19 41q31 8 65.5 14.5t73.5 9.5
q15 -16 15 -31q0 -22 -17.5 -38t-47.5 -16z" />
    <glyph glyph-name="zeta" unicode="&#x3b6;" horiz-adv-x="449" 
d="M318 -188q-45 0 -69 34q19 10 32 20t20.5 23t7.5 30q0 19 -5.5 32.5t-19 23.5t-39.5 17l-27 8q-45 14 -78.5 33t-56 44.5t-33.5 56.5t-11 68q0 44 16.5 90t54.5 99.5t102 119.5t158 151l-11 -34q-51 -21 -105.5 -36t-98.5 -15q-35 0 -60 11t-38.5 31t-13.5 48
q0 30 23 53.5t53 23.5q10 -23 26 -37.5t41.5 -21.5t60.5 -7q32 0 55.5 5t42.5 12q20 7 35.5 12.5t29.5 5.5q25 0 37.5 -13t12.5 -39l-62 -55q-46 -41 -81.5 -81.5t-60.5 -80t-41 -78t-23.5 -76t-7.5 -75.5q0 -35 7.5 -62.5t22.5 -49t40 -37.5t59 -28l18 -6q25 -8 43.5 -18.5
t31 -24t18.5 -29.5t6 -35q0 -26 -13 -52t-37.5 -43.5t-61.5 -17.5z" />
    <glyph glyph-name="eta" unicode="&#x3b7;" horiz-adv-x="590" 
d="M477 -224q-30 0 -46 17.5t-21.5 46t-4.5 60.5l11 417q1 42 -7 66t-23 34.5t-35 10.5q-29 0 -50.5 -15t-36 -39.5t-22 -55t-7.5 -60.5v-132q0 -38 3 -64t10 -49q-13 -10 -31.5 -19t-43.5 -9q-36 0 -55.5 28.5t-15.5 81.5l19 217q0 40 -5 63t-17 32.5t-34 9.5
q-12 0 -21 -2.5t-17 -7.5q-5 8 -8.5 20.5t-3.5 23.5q0 32 23.5 54.5t62.5 22.5q31 0 57.5 -17t43.5 -56t17 -107l-18 5q21 63 50 102.5t64 57.5t73 18q23 0 49 -8t48.5 -31t36.5 -68t14 -119v-302q0 -32 0.5 -70.5t3.5 -73t10 -55.5q-9 -9 -29.5 -18.5t-43.5 -9.5z" />
    <glyph glyph-name="theta" unicode="&#x3b8;" horiz-adv-x="602" 
d="M307 733q72 0 127 -44.5t86.5 -128t31.5 -201.5q0 -175 -66 -274t-185 -99t-185 99t-66 274q0 118 32.5 201.5t90.5 128t134 44.5zM301 683q-39 0 -62.5 -32.5t-34.5 -97.5t-13 -163q41 -3 76.5 -3.5t70 1.5t72.5 7q-1 96 -12 160t-34.5 96t-62.5 32zM301 36
q53 0 79.5 72.5t29.5 215.5q-37 1 -71 1.5t-69.5 0t-78.5 -3.5q3 -142 30 -214t80 -72z" />
    <glyph glyph-name="iota" unicode="&#x3b9;" horiz-adv-x="301" 
d="M190 -15q-64 0 -95 56.5t-31 147.5l-1 196q0 43 -3.5 68t-9.5 46q23 17 40.5 22.5t38.5 5.5q29 0 51.5 -20.5t17.5 -73.5l-11 -258q-4 -40 4.5 -59.5t36.5 -19.5q8 0 18 2.5t18 7.5q6 -7 9 -21.5t3 -25.5q0 -34 -25.5 -54t-60.5 -20z" />
    <glyph glyph-name="kappa" unicode="&#x3ba;" horiz-adv-x="593" 
d="M144 -15q-38 0 -57 28.5t-19 81.5v290q0 43 -3.5 68t-9.5 46q17 15 37 21.5t36 6.5q30 0 52.5 -20.5t18.5 -73.5l-24 -340l-12 12q8 52 29.5 97.5t39.5 70.5l67 94q29 41 51.5 77.5t47 59.5t59.5 23q29 0 55 -19.5t26 -56.5q0 -10 -3 -24.5t-9 -25.5q-7 3 -14.5 3.5
t-15.5 0.5q-22 0 -47 -14.5t-49.5 -37t-46.5 -45.5l-78 -92q-18 -21 -33.5 -48.5t-25 -53.5t-9.5 -43q0 -19 2 -31t6 -27q-13 -10 -30.5 -19t-40.5 -9zM477 -15q-37 0 -63.5 20.5t-45.5 54t-36 72.5l-67 156l49 58l91 -152q35 -58 63 -78.5t55 -20.5q9 0 17 3.5t13 6.5
q2 -3 6 -13t4 -27t-9.5 -35.5t-28.5 -31.5t-48 -13z" />
    </font>
</defs>
</svg>
