<?xml version="1.0" standalone="no"?>
<!DOCTYPE svg PUBLIC "-//W3C//DTD SVG 1.1//EN" "http://www.w3.org/Graphics/SVG/1.1/DTD/svg11.dtd" >
<svg xmlns="http://www.w3.org/2000/svg" xmlns:xlink="http://www.w3.org/1999/xlink" version="1.1">
<metadata>
Created by FontForge 20170731 at Mon Feb 20 16:25:06 2023
 By Aleksey,,,
Copyright 2020 The Arima Project Authors (https://github.com/NDISCOVER/Arima-Font)
</metadata>
<defs>
<font id="Arima-Light" horiz-adv-x="0" >
  <font-face 
    font-family="Arima Light"
    font-weight="300"
    font-stretch="normal"
    units-per-em="1000"
    panose-1="0 0 0 0 0 0 0 0 0 0"
    ascent="800"
    descent="-200"
    x-height="508"
    cap-height="699"
    bbox="-1052 -533 2429 1008"
    underline-thickness="50"
    underline-position="-175"
    unicode-range="U+000D-FB02"
  />
<missing-glyph horiz-adv-x="500" 
d="M50 -430v1270h400v-1270h-400zM100 -380h300v1170h-300v-1170z" />
    <glyph glyph-name="fi" unicode="fi" horiz-adv-x="576" 
d="M141 -10q-15 0 -24 9.5t-9 25.5l-1 509q0 35 7.5 71t28.5 67t60.5 50t105.5 19q50 0 89.5 -10.5t63 -31.5t23.5 -53q0 -28 -18 -45.5t-36 -17.5q-14 0 -21 7q14 16 17 30t3 22q0 25 -18 39.5t-45 21t-57 6.5q-46 0 -75 -13.5t-44 -38t-20 -58.5t-5 -74v-422q0 -27 2 -54
t7 -45q-5 -5 -13.5 -9.5t-20.5 -4.5zM29 466l1 19q1 9 6 14t12 5h198q4 0 12.5 0.5t19 1t19 1t12.5 0.5l-1 -19q-1 -9 -6 -14t-12 -5h-201q-10 0 -30 -0.5t-30 -2.5zM486 103q0 -31 2 -56t8 -43q-5 -4 -13.5 -9t-21.5 -5q-14 0 -23.5 9.5t-9.5 25.5l-1 380q0 31 -2.5 56
t-7.5 42q4 5 12.5 9.5t21.5 4.5q15 0 24 -9t9 -26z" />
    <glyph glyph-name="fl" unicode="fl" horiz-adv-x="607" 
d="M141 -10q-15 0 -24 9.5t-9 25.5l-1 540q0 33 8 64.5t29 56.5t57 40t93 15q98 0 147.5 -41.5t49.5 -110.5v-498q0 -25 10 -39t29 -14q12 0 23 6t17 17q6 -7 8 -14t2 -13q0 -20 -19 -32t-45 -12q-39 0 -61.5 26t-22.5 73v492q0 49 -17.5 77t-48 39.5t-69.5 11.5
q-44 0 -70 -12t-39 -33t-17.5 -48.5t-4.5 -59.5v-453q0 -27 2 -54t7 -45q-5 -5 -13.5 -9.5t-20.5 -4.5zM29 466l1 19q1 9 6 14t12 5h198q5 0 17.5 0.5t25 1.5t17.5 1l-1 -19q-1 -9 -5.5 -14t-11.5 -5h-199q-10 0 -30 -0.5t-30 -2.5z" />
    <glyph glyph-name=".notdef" horiz-adv-x="500" 
d="M50 -430v1270h400v-1270h-400zM100 -380h300v1170h-300v-1170z" />
    <glyph glyph-name=".null" 
 />
    <glyph glyph-name="nonmarkingreturn" horiz-adv-x="333" 
 />
    <glyph glyph-name="CR" unicode="&#xd;" horiz-adv-x="600" 
 />
    <glyph glyph-name="space" unicode=" " horiz-adv-x="255" 
 />
    <glyph glyph-name="exclam" unicode="!" horiz-adv-x="285" 
d="M107 718l13 -545h47l11 545q-17 5 -35 5t-36 -5zM142 -13q-18 0 -31.5 14t-13.5 32q0 19 13.5 32.5t31.5 13.5q19 0 32.5 -13.5t13.5 -32.5q0 -18 -13.5 -32t-32.5 -14z" />
    <glyph glyph-name="quotedbl" unicode="&#x22;" horiz-adv-x="252" 
d="M154 726l12 -137h32l14 137q-13 4 -28.5 4t-29.5 -4zM40 726l12 -137h32l14 137q-13 4 -28.5 4t-29.5 -4z" />
    <glyph glyph-name="numbersign" unicode="#" horiz-adv-x="662" 
d="M189 0h-47l126 691h47zM389 0h-47l126 691h47zM58 464h583l-6 -40h-583zM26 264h583l-6 -40h-583z" />
    <glyph glyph-name="dollar" unicode="$" horiz-adv-x="550" 
d="M288 -90q-17 0 -17 22l-2 750q0 63 -6 87q3 3 7 5.5t11 2.5q17 0 17 -22l2 -750q0 -63 6 -87q-3 -3 -7.5 -5.5t-10.5 -2.5zM275 -13q-76 0 -124 21t-71 55.5t-23 74.5q0 18 5.5 30.5t18.5 18.5t35 2q-2 -8 -3 -17t-1 -21q2 -41 22.5 -70.5t57.5 -44.5t87 -15q71 0 115 32
t44 97q0 42 -19.5 72t-57 56.5t-92.5 55.5q-55 31 -97.5 59.5t-66 64.5t-23.5 87q0 57 27.5 91.5t74 50.5t101.5 16q86 0 139.5 -33.5t53.5 -92.5q0 -16 -6 -26t-23 -14q-11 -4 -28 0q3 9 3.5 18t-1.5 17q-1 33 -20.5 54.5t-51.5 32.5t-72 11q-34 0 -66 -10t-52.5 -33.5
t-20.5 -64.5q0 -44 22 -73.5t59 -53t82 -47.5q57 -30 100.5 -61.5t69 -71t25.5 -92.5q0 -32 -11 -63t-36.5 -56.5t-68.5 -41t-107 -15.5z" />
    <glyph glyph-name="percent" unicode="%" horiz-adv-x="997" 
d="M212 315q-80 0 -122.5 48t-42.5 147q0 98 42.5 145.5t122.5 47.5q81 0 123 -47.5t42 -145.5q0 -99 -42 -147t-123 -48zM213 340q53 0 82 41t29 129t-29 128t-82 40q-54 0 -83 -40t-29 -128t29 -129t83 -41zM689 703q11 2 21.5 -2t14.5 -16l-418 -698q-24 -2 -35 17z
M785 -9q-80 0 -122.5 48t-42.5 147q0 98 42.5 146t122.5 48q81 0 123 -48t42 -146q0 -99 -42 -147t-123 -48zM786 17q53 0 82 41t29 128q0 88 -29 128t-82 40q-54 0 -83 -40t-29 -128q0 -87 29 -128t83 -41z" />
    <glyph glyph-name="ampersand" unicode="&#x26;" horiz-adv-x="824" 
d="M373 -15q-73 0 -130 24.5t-97 67t-60.5 97t-20.5 114.5q0 70 28.5 121.5t77 80t108.5 28.5q53 0 86 -20.5t49.5 -53.5t16.5 -69q0 -48 -23.5 -82.5t-61 -61t-80.5 -51.5l-1 11q30 8 70.5 30.5t86.5 55t93 72.5t92 84t83 90t64 90q9 0 17.5 -3.5t13.5 -11t4 -19t-11 -25.5
q-46 -70 -112 -133t-140.5 -114.5t-147.5 -88.5t-133 -55l-6 26q42 26 73.5 51.5t49.5 56.5t18 71q0 46 -25 80t-79 34q-38 0 -71.5 -21.5t-54 -63.5t-20.5 -104q0 -51 16 -100t47.5 -87.5t77.5 -61.5t106 -23q73 0 135.5 35t101 100.5t38.5 156.5q0 62 -20.5 123.5t-58 111
t-89 78t-113.5 25.5q0 23 11.5 34t41.5 11q59 0 109.5 -34.5t88 -91.5t58.5 -123.5t21 -130.5q0 -73 -25.5 -133.5t-70.5 -105t-104 -68.5t-128 -24z" />
    <glyph glyph-name="quotesingle" unicode="'" horiz-adv-x="138" 
d="M40 726l12 -137h32l14 137q-13 4 -28.5 4t-29.5 -4z" />
    <glyph glyph-name="parenleft" unicode="(" horiz-adv-x="417" 
d="M353 -172q-21 0 -51.5 16.5t-62.5 51t-60 89t-45.5 129.5t-17.5 173t17.5 173t45.5 129.5t60.5 89.5t62.5 51.5t51 16.5q17 0 20.5 -6.5t3.5 -13.5q-44 -19 -80.5 -60.5t-63 -99.5t-41.5 -129t-15 -151q1 -78 15.5 -149.5t41.5 -130t63.5 -99.5t79.5 -59q0 -7 -3.5 -14
t-20.5 -7z" />
    <glyph glyph-name="parenright" unicode=")" horiz-adv-x="417" 
d="M64 -172q-16 0 -20 7t-4 14q43 18 79.5 59t63.5 99.5t42 130t15 149.5q0 80 -14.5 151t-41.5 129t-63.5 99.5t-80.5 60.5q0 7 4 13.5t20 6.5q21 0 51.5 -16.5t62.5 -51.5t60 -89.5t45.5 -129.5t17.5 -173t-17.5 -173t-45 -129.5t-60 -89t-63 -51t-51.5 -16.5z" />
    <glyph glyph-name="asterisk" unicode="*" horiz-adv-x="509" 
d="M34 531q0 20 13.5 37.5t43.5 17.5q39 0 71 -28.5t50.5 -72t18.5 -86.5q0 -31 -10 -61t-29.5 -49t-47.5 -19q-21 0 -37.5 14t-16.5 38q0 29 22.5 53.5t59.5 40t81 15.5t80 -15.5t57.5 -39.5t21.5 -50q0 -22 -16.5 -37.5t-40.5 -15.5q-25 0 -42 17t-26 43t-9 52
q0 33 12 67.5t33 64t46.5 48t51.5 18.5t39.5 -16.5t13.5 -39.5q0 -31 -22.5 -46.5t-57.5 -15.5q-37 0 -72 15.5t-63.5 42t-45.5 58t-17 63.5q0 29 15 45t45 16t44.5 -17t14.5 -45q0 -34 -16.5 -64.5t-44.5 -56t-63 -40t-71 -14.5q-35 0 -60.5 15.5t-25.5 47.5zM65 530
q0 -19 16 -28t39 -9q42 0 81 22.5t64 57t25 68.5q0 39 -33 39q-16 0 -22.5 -9.5t-6.5 -25.5q0 -28 14.5 -55.5t38.5 -50t53.5 -36t60.5 -13.5q22 0 37.5 8.5t15.5 27.5q0 13 -7.5 21.5t-20.5 8.5q-21 0 -40.5 -16.5t-36 -43t-26.5 -55.5t-10 -56q0 -16 5 -36t16 -34.5
t28 -14.5q12 0 21 7.5t9 19.5q0 18 -18 36t-48 30.5t-66 12.5t-66.5 -12.5t-49 -31.5t-18.5 -38q0 -11 8 -19.5t19 -8.5q17 0 29.5 15.5t19 39.5t6.5 48q0 38 -15.5 75t-40 61.5t-50.5 24.5q-15 0 -23 -9t-8 -21z" />
    <glyph glyph-name="plus" unicode="+" horiz-adv-x="555" 
d="M81 372h393q8 -21 0 -42h-393q-8 21 0 42zM298 548v-394q-21 -7 -41 1l-1 393q21 8 42 0z" />
    <glyph glyph-name="comma" unicode="," horiz-adv-x="258" 
d="M114 -95q-9 2 -15 6.5t-10 9.5q15 16 22 31t7 32t-6 26t-14.5 14.5t-17.5 8.5q0 14 12.5 30t35.5 16q16 0 33 -12t17 -48q0 -24 -13.5 -53t-50.5 -61z" />
    <glyph glyph-name="hyphen" unicode="-" horiz-adv-x="399" 
d="M53 278h292v-42h-292v42z" />
    <glyph glyph-name="period" unicode="." horiz-adv-x="251" 
d="M126 -13q-19 0 -32.5 14t-13.5 32q0 19 13.5 32.5t32.5 13.5t32 -13.5t13 -32.5q0 -18 -13 -32t-32 -14z" />
    <glyph glyph-name="slash" unicode="/" horiz-adv-x="422" 
d="M66 -142h-60l323 873h61z" />
    <glyph glyph-name="zero" unicode="0" horiz-adv-x="617" 
d="M308 -13q-115 0 -177 88t-62 270q0 183 62 270.5t177 87.5t177 -87.5t62 -270.5q0 -182 -62 -270t-177 -88zM308 21q84 0 129 78t45 246q0 169 -45 247t-129 78q-83 0 -128.5 -78t-45.5 -247q0 -168 45.5 -246t128.5 -78z" />
    <glyph glyph-name="one" unicode="1" horiz-adv-x="414" 
d="M281 103q0 -30 2 -55.5t7 -43.5q-4 -4 -12.5 -9t-21.5 -5q-14 0 -23.5 9.5t-9.5 25.5l-1 559q0 16 -0.5 29.5t-2.5 24.5q-17 -17 -40 -37t-46.5 -37.5t-42 -29t-25.5 -11.5q-13 0 -19 5t-7.5 11.5t-1.5 13v9.5q3 1 18.5 11t38 25.5t47 32.5t46 33t34.5 26q5 3 11.5 4.5
t13.5 1.5q15 0 24 -8.5t9 -25.5z" />
    <glyph glyph-name="two" unicode="2" horiz-adv-x="541" 
d="M61 0q-8 5 -11 17t-1 24q51 41 102 84.5t97.5 88.5t82.5 91.5t57 96t21 102.5q0 45 -16.5 83t-50 61t-85.5 23q-40 0 -68 -15t-44 -37.5t-23.5 -46t-8.5 -40.5q-17 0 -27.5 5.5t-15 15.5t-4.5 20q0 27 22.5 57t66 51.5t106.5 21.5q54 0 102.5 -20t78.5 -63.5t30 -113.5
q0 -50 -16.5 -96.5t-45 -89.5t-65.5 -82t-79 -74.5t-84.5 -67t-81.5 -59.5q38 1 79 2t83 3t84 5t81 5.5t74 5.5q6 -3 9 -12t2.5 -19t-3.5 -18t-10 -9h-438z" />
    <glyph glyph-name="three" unicode="3" horiz-adv-x="548" 
d="M254 -12q-65 0 -107 15t-65.5 36t-32.5 42t-9 32q0 10 4 18t14 13.5t25 5.5q3 -17 10.5 -38.5t25 -42.5t49 -35t83.5 -14q85 0 130 43t45 115q0 64 -34.5 101t-91 54t-120.5 18l1 33q71 2 120 23t75 56.5t26 79.5q0 53 -35 90.5t-107 37.5q-42 0 -71 -13.5t-45.5 -34
t-24.5 -42.5t-9 -39q-17 0 -26 4.5t-13.5 12.5t-4.5 17q0 17 11.5 39t35.5 42t62 33t91 13q36 0 71.5 -7.5t65 -26t47.5 -49.5t18 -78q0 -69 -45 -112t-121 -61q55 -11 97.5 -32.5t67.5 -59t25 -95.5q0 -63 -30 -106t-84 -65.5t-124 -22.5z" />
    <glyph glyph-name="four" unicode="4" horiz-adv-x="589" 
d="M452 103q0 -30 2 -55.5t8 -43.5q-5 -4 -13.5 -9t-21.5 -5q-14 0 -23.5 9.5t-9.5 25.5l-2 605l-301 -401h326q33 0 67 2t66 7q8 -11 7 -25.5t-9 -22.5h-495q-9 6 -12.5 13.5t-2 15.5t5.5 13l339 451q4 5 13.5 10t20.5 5q15 0 24 -9.5t9 -25.5z" />
    <glyph glyph-name="five" unicode="5" horiz-adv-x="557" 
d="M264 -12q-62 0 -106 21.5t-67 53.5t-23 62q0 17 12.5 27t31.5 9q1 -17 8.5 -40.5t24.5 -46t45.5 -37.5t70.5 -15q92 0 132.5 52.5t40.5 141.5q0 56 -20.5 95.5t-58 60.5t-87.5 21q-35 0 -67 -8t-54.5 -17t-30.5 -12q-12 0 -16 6.5t-4 14.5l13 286q0 13 8.5 20t20.5 7
q60 0 114 0.5t104 1.5t98 3q4 -7 2.5 -17.5t-5 -20t-10.5 -16.5q-69 0 -141.5 0.5t-142.5 2.5l-12 -245q32 11 64.5 20t75.5 9q99 0 156.5 -55.5t57.5 -151.5q0 -65 -19 -110t-52 -72t-75.5 -39t-88.5 -12z" />
    <glyph glyph-name="six" unicode="6" horiz-adv-x="575" 
d="M302 -12q-43 0 -85 14.5t-75 49t-53 96.5t-20 156q0 141 29 228.5t86.5 129t144.5 41.5q33 0 66 -9.5t55.5 -24t22.5 -33.5q0 -8 -4 -15t-10 -11t-10 -4q-32 37 -61.5 50t-58.5 13q-53 0 -89 -22.5t-57.5 -61t-32 -86.5t-14.5 -99t-4 -99q0 -59 9.5 -110t29.5 -90t53 -60
t79 -21q55 0 88.5 29.5t48.5 76t15 96.5q0 79 -37.5 124.5t-104.5 45.5q-46 0 -83.5 -20.5t-65 -54.5t-41.5 -77l-18 30q8 26 26 53t45 51t63 38.5t82 14.5q56 0 101 -22.5t71 -68.5t26 -115q0 -70 -26 -122.5t-74.5 -81.5t-116.5 -29z" />
    <glyph glyph-name="seven" unicode="7" horiz-adv-x="503" 
d="M238 0q-14 -5 -28.5 -5t-29.5 6q2 50 13.5 118.5t32 143.5t48 147.5t59.5 134t67 100.5q-87 -4 -175.5 -4.5t-177.5 -0.5q-5 5 -7.5 15.5t-1.5 21.5t6 16q49 -1 96.5 -1.5t95.5 -0.5h214q10 -5 11 -21t-8 -27q-37 -48 -70 -113t-60 -137.5t-46 -145t-29 -136.5t-10 -111z
" />
    <glyph glyph-name="eight" unicode="8" horiz-adv-x="589" 
d="M269 367l26 -13q-21 -8 -49.5 -22t-56 -36.5t-45.5 -54.5t-18 -76q0 -52 24.5 -84.5t63 -48t80.5 -15.5q45 0 84 16.5t63 47.5t24 74q0 39 -18.5 69t-49.5 54t-68 43.5t-74 36.5q-43 19 -81.5 44t-62 60.5t-23.5 84.5q0 24 10.5 51t34 51t62.5 39t96 15q71 0 116.5 -21.5
t68 -56.5t22.5 -76q0 -40 -19.5 -76t-57 -63t-89.5 -43l-27 15q49 24 78 52t41 58t12 58q0 36 -18.5 63.5t-50.5 43t-74 15.5q-37 0 -70 -13.5t-53 -41t-20 -69.5t18.5 -70.5t53.5 -49t80 -41.5t85.5 -44t72.5 -50t50.5 -59t18.5 -72q0 -29 -12 -60t-39.5 -57t-72.5 -42
t-112 -16t-111.5 16t-71 42t-37.5 56.5t-11 59.5q0 52 27.5 95t74.5 72.5t105 38.5z" />
    <glyph glyph-name="nine" unicode="9" horiz-adv-x="578" 
d="M255 -13q-42 0 -76.5 10t-56.5 25.5t-31 33.5q-4 11 -1.5 21t9.5 16.5t15 6.5q38 -47 73.5 -62.5t67.5 -15.5q52 0 87 21.5t55.5 58.5t31 84.5t14 100t3.5 103.5q0 59 -8 110.5t-27 90t-51 60t-80 21.5q-53 0 -86 -28.5t-48 -73t-15 -92.5q0 -83 36.5 -130.5t103.5 -47.5
q44 0 81 20t64 54.5t39 76.5l18 -30q-8 -25 -25 -52.5t-43.5 -51.5t-61.5 -38.5t-80 -14.5q-55 0 -99 23.5t-69.5 71.5t-25.5 119q0 68 25.5 118.5t73.5 78.5t114 28q46 0 87 -15t72.5 -50t49.5 -96.5t18 -154.5q0 -146 -28.5 -233.5t-84.5 -127t-141 -39.5z" />
    <glyph glyph-name="colon" unicode=":" horiz-adv-x="243" 
d="M122 333q-19 0 -32.5 14t-13.5 32q0 19 13.5 32.5t32.5 13.5t32 -13.5t13 -32.5q0 -18 -13 -32t-32 -14zM122 -13q-19 0 -32.5 14t-13.5 32q0 19 13.5 32.5t32.5 13.5t32 -13.5t13 -32.5q0 -18 -13 -32t-32 -14z" />
    <glyph glyph-name="semicolon" unicode=";" horiz-adv-x="250" 
d="M129 333q-19 0 -32.5 14t-13.5 32q0 19 13.5 32.5t32.5 13.5t32 -13.5t13 -32.5q0 -18 -13 -32t-32 -14zM110 -95q-9 2 -15 6.5t-10 9.5q15 16 22 31t7 32t-6 26t-14.5 14.5t-17.5 8.5q0 14 12.5 30t35.5 16q16 0 33 -12t17 -48q0 -24 -13.5 -53t-50.5 -61z" />
    <glyph glyph-name="less" unicode="&#x3c;" horiz-adv-x="483" 
d="M42 340q-8 11 0 22l364 173q10 5 17.5 -6t1.5 -33l-326 -145l326 -145q6 -20 -1 -32t-18 -7z" />
    <glyph glyph-name="equal" unicode="=" horiz-adv-x="553" 
d="M80 473h393q8 -21 0 -41h-393q-8 20 0 41zM80 267h393q8 -21 0 -42h-393q-8 21 0 42z" />
    <glyph glyph-name="greater" unicode="&#x3e;" horiz-adv-x="484" 
d="M441 340l-364 -173q-11 -5 -17.5 7t-1.5 32l326 145l-326 145q-6 22 2 33t17 6l364 -173q8 -11 0 -22z" />
    <glyph glyph-name="question" unicode="?" horiz-adv-x="496" 
d="M173 173v149q32 0 69 12t69.5 36.5t53 61.5t20.5 88q0 50 -18.5 90.5t-56.5 63.5t-96 23q-41 0 -68.5 -14t-43.5 -34.5t-23.5 -43t-8.5 -39.5q-17 0 -27.5 4.5t-15 13t-4.5 18.5q0 27 22 56.5t66.5 51t108.5 21.5q43 0 83.5 -11.5t73 -35.5t52 -64t19.5 -97
q0 -51 -18 -92t-50 -71t-72.5 -48.5t-86.5 -24.5v-114h-48zM182 -13q-18 0 -32 14t-14 32q0 19 14 32.5t32 13.5q19 0 32.5 -13.5t13.5 -32.5q0 -18 -13.5 -32t-32.5 -14z" />
    <glyph glyph-name="at" unicode="@" horiz-adv-x="846" 
d="M357 -98q-29 -2 -67 10t-76.5 38.5t-71.5 69.5t-53 102.5t-20 136.5q0 71 21.5 139t66 123t115 88t167.5 33q80 0 137 -22.5t95.5 -60.5t61 -86t32.5 -97.5t10 -95.5q0 -84 -22 -137.5t-54.5 -79t-67.5 -25.5q-23 0 -44 12t-34 33.5t-13 50.5l4 90l19 17
q-6 -46 -24.5 -89.5t-52.5 -72t-87 -28.5q-49 0 -77 20t-41.5 50t-18 62t-4.5 56q0 109 44.5 173t132.5 64q48 0 78.5 -16t47.5 -41.5t24 -56t7 -59.5l-1 -153q0 -32 11.5 -54t36.5 -22q37 0 65.5 49.5t29.5 157.5q0 41 -7.5 86t-27 87.5t-53 76.5t-84 54.5t-121.5 20.5
q-84 0 -143.5 -28.5t-97.5 -77.5t-56 -110t-18 -127q0 -82 24 -145t63.5 -104.5t86 -60.5t91.5 -15q9 -16 0.5 -25.5t-34.5 -10.5zM398 82q43 0 74 28.5t48.5 77.5t17.5 111q0 35 -8 68.5t-31 55t-69 21.5q-66 0 -101.5 -50.5t-35.5 -153.5q0 -21 3 -48t13.5 -52.5
t31.5 -41.5t57 -16z" />
    <glyph glyph-name="A" unicode="A" horiz-adv-x="580" 
d="M304 703q13 0 23.5 -5.5t14.5 -18.5l211 -634q4 -11 9 -21.5t11 -18.5q-5 -6 -13 -10.5t-21 -4.5q-14 0 -25 6.5t-14 18.5l-214 664l13 -1l-202 -635q-1 -6 -3 -13.5t-2 -14.5q0 -5 1 -10.5t3 -8.5q-7 -2 -14.5 -4t-17.5 -2q-17 0 -26 7.5t-8 21.5q0 7 2.5 17t5.5 20
l218 637q24 10 48 10zM144 265h312v-39h-312v39z" />
    <glyph glyph-name="B" unicode="B" horiz-adv-x="571" 
d="M137 0q-16 0 -25.5 9.5t-10.5 25.5v552q0 8 -0.5 26.5t-3 39.5t-6.5 32q10 6 37.5 12t88.5 6q125 0 189 -39t64 -130q0 -62 -30.5 -107t-91.5 -64q78 -12 117.5 -57t39.5 -122q0 -71 -32.5 -111.5t-94.5 -56.5t-151 -16h-90zM161 33h72q66 0 112 13t71 46t25 92
q0 63 -25.5 98t-72 49t-110.5 14h-82l-7 32h114q41 -1 74.5 15.5t54 51t20.5 87.5q0 75 -46 108.5t-150 33.5q-17 0 -29.5 -1t-20.5 -2v-637z" />
    <glyph glyph-name="C" unicode="C" horiz-adv-x="588" 
d="M534 107q0 -21 -16.5 -42.5t-46.5 -39t-68.5 -28t-80.5 -10.5q-122 0 -190 92t-68 266q0 176 68.5 267t192.5 91q40 0 74.5 -7.5t60 -20.5t40 -30t14.5 -35q0 -14 -13 -24.5t-35 -7.5q-8 44 -45 68t-96 24q-94 0 -145 -82t-51 -243t50.5 -242.5t144.5 -81.5q37 0 70 13.5
t58 39.5t33 63q13 1 23.5 -1.5t18 -9t7.5 -19.5z" />
    <glyph glyph-name="D" unicode="D" horiz-adv-x="636" 
d="M135 0q-16 0 -25 9.5t-9 25.5l-2 552q0 30 -1.5 60.5t-6.5 48.5q26 3 63.5 4t74.5 1.5t64 0.5q133 0 206 -87t73 -267q0 -184 -72.5 -266t-204.5 -82h-160zM159 33h134q69 0 116.5 31.5t72.5 100t25 180.5q0 168 -55.5 246t-158.5 78h-135z" />
    <glyph glyph-name="E" unicode="E" horiz-adv-x="531" 
d="M136 0q-15 0 -24.5 9.5t-9.5 25.5l-1 547q0 30 -2.5 53t-7.5 40q9 10 19 13t28 3h307q8 0 10.5 -7t1 -16.5t-6 -18t-11.5 -10.5q-69 6 -137.5 10t-142.5 5l2 -618q49 1 100.5 3.5t100.5 6t93 7.5q7 -3 10 -12t3 -18t-3.5 -16t-11.5 -7h-317zM149 346v39h268q3 -10 3 -20
t-3 -19h-268z" />
    <glyph glyph-name="F" unicode="F" horiz-adv-x="513" 
d="M136 -10q-15 0 -24.5 9.5t-9.5 25.5l-1 557q0 30 -2.5 53t-7.5 40q9 10 19 13t28 3h307q8 0 10.5 -7t1 -16.5t-6 -18t-11.5 -10.5q-69 6 -137.5 10t-142.5 5l2 -551q0 -30 2 -55.5t8 -43.5q-5 -4 -13.5 -9t-21.5 -5zM149 340v39h267q3 -11 2.5 -20.5t-2.5 -18.5h-267z
" />
    <glyph glyph-name="G" unicode="G" horiz-adv-x="614" 
d="M332 -13q-130 0 -199 91.5t-69 266.5t70 266.5t197 91.5q38 0 71.5 -7.5t59.5 -20.5t40.5 -29.5t14.5 -33.5q0 -16 -12.5 -26.5t-35.5 -7.5q-8 44 -45.5 68t-90.5 24q-101 0 -152.5 -82t-51.5 -243t51.5 -242.5t153.5 -81.5q52 0 84 20t48.5 51.5t22 65.5t5.5 63
q0 44 -9.5 73t-27 45t-43.5 19q2 14 14 20.5t28 6.5q25 0 47.5 -14.5t36.5 -48.5t14 -94q0 -31 -6 -64.5t-21 -65t-40.5 -56.5t-63.5 -40t-91 -15z" />
    <glyph glyph-name="H" unicode="H" horiz-adv-x="672" 
d="M161 103q0 -30 2 -55.5t8 -43.5q-5 -4 -13.5 -9t-21.5 -5q-15 0 -24.5 9.5t-9.5 25.5l-1 562q0 30 -2.5 55t-7.5 43q4 5 13 9.5t21 4.5q15 0 25.5 -9t10.5 -26v-561zM572 103q0 -30 2 -55.5t8 -43.5q-5 -4 -13.5 -9t-21.5 -5q-15 0 -24.5 9.5t-9.5 25.5l-1 562
q0 30 -2 55t-8 43q4 5 13 9.5t22 4.5q15 0 25 -9t10 -26v-561zM140 386h395v-39h-395v39z" />
    <glyph glyph-name="I" unicode="I" horiz-adv-x="261" 
d="M136 -10q-15 0 -24.5 9.5t-9.5 25.5l-1 562q0 30 -2.5 55t-7.5 43q4 5 13 9.5t21 4.5q15 0 25.5 -9t10.5 -26v-561q0 -30 2 -55.5t8 -43.5q-5 -4 -13.5 -9t-21.5 -5z" />
    <glyph glyph-name="J" unicode="J" horiz-adv-x="441" 
d="M185 -13q-47 0 -77 15.5t-44.5 39.5t-14.5 51q0 18 9.5 33t30.5 15q7 0 11 -2t7 -6q-3 -9 -4.5 -17t-1.5 -16q0 -28 13.5 -45.5t32.5 -25.5t36 -8q42 0 64 18.5t30 52t8 77.5v453q0 12 0.5 24t2.5 22q-27 -1 -54 0.5t-58 3.5q-17 2 -34 -5t-17 -33q0 -18 8 -28.5
t20 -17.5q-5 -5 -13 -6.5t-15 -1.5q-18 0 -33.5 16.5t-15.5 43.5q0 26 19 44.5t57 18.5q12 0 33 -1.5t45 -2.5t45 -2q24 -1 42 1t32 4q-2 -15 -3 -32t-1 -38v-461q0 -31 -6.5 -63.5t-23 -59.5t-48.5 -44t-82 -17z" />
    <glyph glyph-name="K" unicode="K" horiz-adv-x="572" 
d="M500 -10q-20 0 -35.5 11t-27.5 29t-19 38l-47 151q-9 21 -19.5 41t-29 35.5t-50.5 24.5t-83 9h-37l-1 32q9 1 20 1.5t20 0.5q55 4 97.5 28.5t71 62t43 79.5t14.5 81q0 31 -6.5 49t-11.5 26q8 5 15 8.5t15 3.5q11 0 22 -8t18.5 -26t7.5 -50q0 -51 -22 -105.5t-69.5 -99.5
t-126.5 -69l5 11q74 -5 110 -38.5t52 -83.5l49 -145q10 -27 20.5 -37t22.5 -11q5 0 14.5 2.5t16.5 11.5q6 -10 6 -21q0 -20 -18 -31t-37 -11zM136 -10q-15 0 -24.5 9.5t-9.5 25.5l-1 562q0 30 -2.5 55t-7.5 43q4 5 13 9.5t21 4.5q15 0 24.5 -9t9.5 -26l2 -561q0 -30 2 -55.5
t8 -43.5q-5 -4 -13.5 -9t-21.5 -5z" />
    <glyph glyph-name="L" unicode="L" horiz-adv-x="470" 
d="M159 664l2 -626q45 0 91 3t90.5 6.5t85.5 7.5q6 -3 9 -12t3 -19t-3 -17t-12 -7h-289q-15 0 -24.5 9.5t-9.5 25.5l-1 552q0 30 -2.5 55t-7.5 43q4 5 13 9.5t21 4.5q15 0 24.5 -9t9.5 -26z" />
    <glyph glyph-name="M" unicode="M" horiz-adv-x="850" 
d="M750 103q0 -30 2 -55.5t7 -43.5q-4 -4 -12.5 -9t-21.5 -5q-15 0 -24 9.5t-9 25.5l-2 596l11 12l-249 -513q-16 -7 -30 -7.5t-27 6.5q-44 80 -88.5 164t-88 170t-86.5 168l8 -3l1 -515q0 -30 2 -57.5t8 -44.5q-4 -5 -10.5 -8t-15.5 -3q-12 0 -18 8.5t-6 22.5l-1 567
q0 34 -1.5 59t-4.5 42q4 4 13 7t25 3q10 0 17.5 -3t12.5 -10q68 -132 136.5 -263.5t136.5 -260.5l-12 -3q31 64 63.5 131.5t65 136.5t64.5 136t62 130q9 4 18.5 5t15.5 1q15 0 25 -6t11 -17z" />
    <glyph glyph-name="N" unicode="N" horiz-adv-x="676" 
d="M121 -10q-9 0 -16 3t-13 8q6 18 8 45t2 57l-1 477q0 34 -1.5 63t-5.5 46q7 6 17.5 7.5t20 0t11.5 -4.5q31 -44 71.5 -105t85 -129l89 -136t83 -129t67.5 -106l-11 518q-1 33 2 56t11 32q6 3 13 3.5t15 -1.5q3 -8 6 -22.5t3 -28.5l1 -542q0 -34 0.5 -59t2.5 -42
q-3 -5 -11.5 -7t-17 -2t-14.5 2q-28 36 -62 84t-71 102.5t-74 111.5t-71.5 112t-65 103.5t-53.5 85.5l10 -565q1 -17 -8.5 -27.5t-22.5 -10.5z" />
    <glyph glyph-name="O" unicode="O" horiz-adv-x="646" 
d="M323 -13q-124 0 -191.5 88t-67.5 270q0 183 67.5 270.5t191.5 87.5t191.5 -87.5t67.5 -270.5q0 -182 -67.5 -270t-191.5 -88zM323 21q93 0 143.5 78t50.5 246q0 169 -50.5 247t-143.5 78t-143.5 -78t-50.5 -247q0 -168 50.5 -246t143.5 -78z" />
    <glyph glyph-name="P" unicode="P" horiz-adv-x="549" 
d="M137 -10q-16 0 -25.5 9.5t-10.5 25.5v562q0 8 -0.5 26.5t-3 39.5t-6.5 32q10 6 37.5 12t86.5 6q146 0 213.5 -49.5t67.5 -152.5q0 -113 -76.5 -167.5t-229.5 -54.5h-23.5t-21.5 1l-7 32q10 -1 21.5 -1.5t36.5 -0.5q81 0 133 20.5t77 62t25 104.5q0 60 -23 98.5t-71.5 57
t-126.5 18.5q-16 0 -29 -0.5t-20 -2.5v-567q0 -8 0.5 -26.5t3 -38t6.5 -32.5q-4 -4 -12.5 -9t-21.5 -5z" />
    <glyph glyph-name="Q" unicode="Q" horiz-adv-x="648" 
d="M502 -143q-40 -1 -79.5 13t-77.5 36.5t-72.5 48t-65.5 48.5q-44 33 -76 80t-49.5 111.5t-17.5 150.5q0 183 68.5 270.5t191.5 87.5t191.5 -87.5t68.5 -270.5q0 -120 -31.5 -199.5t-89.5 -119t-139 -39.5q-12 0 -26 1.5t-25 4.5q29 -22 62 -42t68 -33t69 -12
q46 0 76.5 20.5t29.5 56.5q19 1 30 -10.5t11 -27.5q0 -40 -31.5 -64t-85.5 -24zM323 21q93 0 143.5 78t50.5 247q0 168 -50.5 246t-142.5 78q-95 0 -144 -80.5t-49 -250.5q0 -105 21.5 -176t64 -106.5t106.5 -35.5z" />
    <glyph glyph-name="R" unicode="R" horiz-adv-x="588" 
d="M137 -10q-16 0 -25.5 9.5t-10.5 25.5v562q0 8 -0.5 26.5t-3 39.5t-6.5 32q10 6 39.5 12t90.5 6q141 0 207 -44.5t66 -146.5q0 -55 -23.5 -97t-66 -67.5t-96.5 -31.5l1 12q38 0 62 -16t40 -41t29 -55l52 -128q12 -27 21.5 -37.5t22.5 -11.5q5 0 14 3t16 12q4 -6 5 -11
t1 -10q0 -15 -9.5 -24.5t-21.5 -14t-22 -4.5q-19 0 -34.5 10t-27 28t-21.5 42l-53 134q-10 25 -22.5 48t-37.5 37.5t-73 14.5h-98l-8 33q21 -1 47 -1h61q49 0 89.5 20.5t64.5 58.5t24 91q0 88 -49.5 127t-158.5 39q-22 0 -37 -1t-24 -3v-567q0 -8 0.5 -26.5t3 -38t6.5 -32.5
q-4 -4 -12.5 -9t-21.5 -5z" />
    <glyph glyph-name="S" unicode="S" horiz-adv-x="550" 
d="M275 -13q-76 0 -124 21t-71 55.5t-23 74.5q0 18 5.5 30.5t18.5 18.5t35 2q-2 -8 -3 -17t-1 -21q2 -41 22.5 -70.5t57.5 -44.5t87 -15q71 0 115 32t44 97q0 42 -19.5 72t-57 56.5t-92.5 55.5q-55 31 -97.5 59.5t-66 64.5t-23.5 87q0 57 27.5 91.5t74 50.5t101.5 16
q86 0 139.5 -33.5t53.5 -92.5q0 -16 -6 -26t-23 -14q-11 -4 -28 0q3 9 3.5 18t-1.5 17q-1 33 -20.5 54.5t-51.5 32.5t-72 11q-34 0 -66 -10t-52.5 -33.5t-20.5 -64.5q0 -44 22 -73.5t59 -53t82 -47.5q57 -30 100.5 -61.5t69 -71t25.5 -92.5q0 -32 -11 -63t-36.5 -56.5
t-68.5 -41t-107 -15.5z" />
    <glyph glyph-name="T" unicode="T" horiz-adv-x="518" 
d="M265 -10q-15 0 -24.5 9.5t-9.5 25.5l-2 651l60 -2l1 -571q0 -30 2 -55.5t8 -43.5q-5 -4 -13.5 -9t-21.5 -5zM37 639q-7 2 -12 10.5t-6.5 18t1.5 16.5t10 7h458q8 0 10.5 -7t1 -16.5t-6.5 -18t-11 -10.5q-35 4 -73 9t-76.5 8t-76.5 3q-36 0 -73.5 -3t-74.5 -8t-71 -9z" />
    <glyph glyph-name="U" unicode="U" horiz-adv-x="651" 
d="M562 664v-359q0 -157 -60 -237.5t-177 -80.5q-116 0 -173 77t-57 241v282q0 30 -2 55t-7 43q4 5 12.5 9.5t21.5 4.5q15 0 24.5 -9t9.5 -26v-361q0 -146 41.5 -214t129.5 -68q90 0 134.5 71.5t44.5 210.5v284q0 30 -2 55t-8 43q5 5 13 9.5t21 4.5q15 0 24.5 -9t9.5 -26z
" />
    <glyph glyph-name="V" unicode="V" horiz-adv-x="569" 
d="M281 -10q-34 0 -41 23l-208 636q-3 11 -8.5 22t-11.5 18q6 6 15 10t22 4q31 0 38 -24l211 -673h-21l199 645q2 6 3.5 14t1.5 14q0 5 -0.5 10t-3.5 9q7 3 14 4t16 1q19 0 28.5 -7t8.5 -21q0 -7 -2.5 -17.5t-5.5 -19.5l-214 -637q-12 -6 -22.5 -8.5t-18.5 -2.5z" />
    <glyph glyph-name="W" unicode="W" horiz-adv-x="907" 
d="M848 702q19 0 28.5 -7t8.5 -21q0 -7 -2.5 -17.5t-5.5 -19.5l-180 -636q-11 -6 -21.5 -8.5t-18.5 -2.5q-15 0 -26 6t-14 17l-157 532l-162 -544q-12 -6 -22.5 -8.5t-17.5 -2.5q-17 0 -28 6t-14 17l-173 636q-3 11 -9 22t-12 18q6 6 15 10t22 4q15 0 25.5 -6t13.5 -18
l166 -635l160 541q4 14 2.5 23t-3.5 15q8 5 20 7.5t20 2.5q10 0 18 -2.5t11 -8.5l171 -578l154 606q2 6 3.5 14t1.5 14q0 5 -0.5 10t-3.5 9q7 3 14 4t16 1z" />
    <glyph glyph-name="X" unicode="X" horiz-adv-x="592" 
d="M511 -9q-35 0 -57 22t-38 53l-144 270l-144 268q-11 20 -21.5 29.5t-24.5 9.5q-16 0 -23 -9t-6 -21q-12 3 -19.5 12t-7.5 23q0 18 16 34t48 16q36 0 58.5 -22t37.5 -52l130 -244l159 -294q10 -17 21 -28.5t26 -11.5t21.5 10.5t5.5 20.5q13 -3 20.5 -12t7.5 -23
q0 -19 -18 -35t-48 -16zM62 -7q-14 0 -22.5 8.5t-10.5 29.5q14 6 29.5 23t35.5 46l190 277l28 -33l-218 -332q-6 -9 -13.5 -14t-18.5 -5zM314 342l-24 31l192 310q6 8 13.5 13.5t18.5 5.5q15 0 23 -9t10 -29q-17 -9 -33 -27t-33 -43z" />
    <glyph glyph-name="Y" unicode="Y" horiz-adv-x="536" 
d="M268 228q-10 1 -16 4.5t-10.5 10t-7.5 11.5l-189 389q-5 10 -13.5 21t-15.5 19q6 6 17 12.5t26 6.5q17 0 25.5 -8.5t15.5 -22.5l188 -403l-26 -9l183 385q10 21 10 32q0 6 -1 11.5t-4 9.5q7 3 14 4t18 1q15 0 23 -9t9 -23q0 -7 -4 -17.5t-11 -21.5l-203 -392zM298 265
l1 -162q0 -30 2 -55.5t8 -43.5q-5 -4 -13.5 -9t-21.5 -5q-15 0 -24.5 9.5t-9.5 25.5v234z" />
    <glyph glyph-name="Z" unicode="Z" horiz-adv-x="565" 
d="M63 -6l-13 20q0 16 6 31t17 30l387 582l12 -12l-282 -5q-42 0 -62.5 -15.5t-23.5 -38.5q-2 -23 6.5 -39t27.5 -30q-14 -5 -32 0q-23 3 -37.5 28.5t-14.5 53.5q0 39 32.5 66.5t98.5 26.5l181 -2q46 0 76 1t49 6l17 -18q0 -20 -5 -36t-16 -30l-393 -585l-5 19l293 5
q55 0 76.5 18.5t24.5 42.5q4 26 -6.5 46.5t-24.5 31.5q9 2 13 2.5t10 0.5q20 -3 33 -18.5t20 -36t7 -39.5q0 -42 -32.5 -71.5t-102.5 -29.5l-222 2q-30 1 -58 0t-57 -7z" />
    <glyph glyph-name="bracketleft" unicode="[" horiz-adv-x="327" 
d="M96 732h136v-34h-80v-827h80v-34h-136v895z" />
    <glyph glyph-name="backslash" unicode="\" horiz-adv-x="437" 
d="M379 -142l-324 873h60l324 -873h-60z" />
    <glyph glyph-name="bracketright" unicode="]" horiz-adv-x="327" 
d="M208 732v-895h-136v34h80v827h-80v34h136z" />
    <glyph glyph-name="asciicircum" unicode="^" horiz-adv-x="538" 
d="M104 268q-5 0 -16 3t-12 7l171 161q6 1 14 1.5t16 0t14 -1.5l171 -161q-3 -4 -13 -7t-15 -3l-165 123z" />
    <glyph glyph-name="underscore" unicode="_" horiz-adv-x="377" 
d="M-30 -67l437 -2v-37l-437 2v37z" />
    <glyph glyph-name="grave" unicode="`" horiz-adv-x="600" 
d="M182 696q7 5 17.5 8.5t23.5 6t24 1.5l91 -145q-3 -4 -14 -5.5t-17 -0.5z" />
    <glyph glyph-name="a" unicode="a" horiz-adv-x="543" 
d="M471 -10q-39 0 -58.5 27t-19.5 80v107l16 -10q-19 -62 -55.5 -108.5t-83.5 -71.5t-99 -25q-59 0 -90.5 32t-31.5 83q0 39 19.5 70t56 53.5t86.5 36.5q43 11 90.5 14.5t88.5 0.5v26q0 89 -33 134.5t-110 45.5q-26 0 -53.5 -7.5t-45.5 -25t-18 -51.5q0 -19 11 -41t35 -29
q-8 -11 -19 -14.5t-20 -3.5q-30 0 -48 27t-18 58q0 59 50 89t133 30q101 0 148.5 -53.5t47.5 -161.5v-211q0 -53 37 -53q9 0 19 6t16 17q5 -7 7.5 -14t2.5 -13q0 -19 -18 -31.5t-43 -12.5zM195 32q33 1 67 19.5t63 49.5t47.5 70t18.5 81q-24 2 -55.5 0t-61.5 -7t-53 -13
q-51 -17 -79.5 -46t-28.5 -72q0 -31 18.5 -57t63.5 -25z" />
    <glyph glyph-name="b" unicode="b" horiz-adv-x="536" 
d="M270 -13q-29 0 -64.5 6t-68.5 20.5t-57 41.5v639q0 17 9.5 26t23.5 9t23 -4.5t13 -9.5q-3 -14 -5.5 -37.5t-3 -46t-0.5 -36.5l-1 -212q13 37 38 67.5t60.5 48.5t78.5 18q55 0 93.5 -25.5t58.5 -78.5t20 -137q0 -59 -12 -111.5t-38 -92t-67.5 -62.5t-100.5 -23zM269 22
q51 2 81.5 25.5t47.5 61t22.5 81.5t5.5 86q0 106 -30.5 154t-86.5 48q-48 0 -80.5 -25t-52.5 -63.5t-28.5 -81.5t-8.5 -80v-160q9 -13 30 -23.5t47.5 -16.5t52.5 -6z" />
    <glyph glyph-name="c" unicode="c" horiz-adv-x="503" 
d="M271 -13q-104 0 -163.5 66t-59.5 195q0 125 61 197t172 72q78 0 121 -34.5t43 -91.5q0 -33 -15.5 -53t-40.5 -20q-11 0 -21 3.5t-18 14.5q19 4 27 20t8 39q0 31 -15.5 51.5t-40.5 30t-55 9.5q-71 0 -117 -57.5t-46 -172.5q0 -84 24.5 -133.5t64 -70t85.5 -20.5
q36 0 67 11.5t53.5 36t31.5 62.5q9 -4 13.5 -14t-4.5 -34q-17 -53 -64 -80t-111 -27z" />
    <glyph glyph-name="d" unicode="d" horiz-adv-x="557" 
d="M217 -13q-54 0 -87.5 23.5t-51 60.5t-24 78.5t-6.5 77.5q0 135 53.5 212.5t154.5 77.5q54 0 91 -22.5t53 -64.5l-1 167q0 39 -2 68.5t-8 49.5q5 5 13.5 9.5t21.5 4.5q15 0 25 -9t10 -26l-1 -603q0 -28 8.5 -39.5t22.5 -11.5q5 0 13.5 3t12.5 13q6 -7 8.5 -14t2.5 -13
q0 -17 -15 -27t-38 -10q-36 0 -53.5 28t-17.5 80v105l22 19q-6 -48 -21.5 -90.5t-41 -75.5t-61 -52t-83.5 -19zM230 28q39 0 70.5 20.5t53.5 57.5t33.5 86t11.5 104q0 32 -6 64t-20.5 59t-42 43t-69.5 16q-70 0 -110 -62t-40 -187q0 -33 4 -68t16 -65.5t36 -49t63 -18.5z
" />
    <glyph glyph-name="e" unicode="e" horiz-adv-x="505" 
d="M274 -13q-105 0 -165.5 66t-60.5 195q0 124 59.5 196.5t172.5 72.5q52 0 91 -16t61 -47.5t22 -77.5q0 -75 -61 -113t-170 -38q-43 0 -78 3.5t-70 10.5l1 29q27 -5 64 -8t70 -4q40 0 73.5 7t57.5 21.5t37 39t13 58.5q0 41 -17 63t-43 31t-54 9q-74 0 -120 -57t-46 -173
q0 -85 24 -133.5t64 -69t87 -20.5q53 0 96 22.5t57 68.5q9 -4 13.5 -14t-5.5 -33q-19 -44 -66 -66.5t-107 -22.5z" />
    <glyph glyph-name="f" unicode="f" horiz-adv-x="381" 
d="M141 -10q-15 0 -24 9.5t-9 25.5l-1 540q0 30 6 61t23 57t48 42t79 16q55 0 90 -22t35 -63q0 -31 -18 -48t-34 -17q-6 0 -11.5 1.5t-9.5 5.5q13 16 16 29.5t3 23.5q0 32 -20.5 45t-52.5 13q-42 0 -62.5 -22t-26.5 -57.5t-6 -73.5v-453q0 -28 2 -54.5t7 -44.5
q-5 -5 -13.5 -9.5t-20.5 -4.5zM29 466l1 19q1 9 6 14t12 5h198q4 0 13.5 0.5t21 1t21 1t13.5 0.5l-1 -19q-1 -9 -5.5 -14t-11.5 -5h-208q-10 0 -30 -0.5t-30 -2.5z" />
    <glyph glyph-name="g" unicode="g" horiz-adv-x="534" 
d="M214 -236q-44 0 -81 13t-59.5 40.5t-22.5 68.5q0 32 15.5 51t36.5 19t31 -13q-15 -9 -21 -24t-6 -33q0 -31 14.5 -51t39.5 -29.5t55 -9.5q95 0 138 64t43 192v31.5v34.5q-18 -58 -63.5 -91.5t-109.5 -33.5q-54 0 -94 26.5t-61 83t-21 145.5q0 33 5 70t18.5 72.5t38 64.5
t64 45.5t96.5 16.5q29 0 63 -5.5t67 -19.5t56 -41v-406q0 -105 -31.5 -166.5t-86 -88t-124.5 -26.5zM237 31q46 0 76.5 20.5t49 53t26.5 70.5t8 73l1 193q-19 22 -55 32.5t-78 10.5q-50 0 -81 -22.5t-47 -58.5t-21 -78.5t-5 -82.5q0 -111 31.5 -161t94.5 -50z" />
    <glyph glyph-name="h" unicode="h" horiz-adv-x="559" 
d="M123 -10q-15 0 -24.5 10t-9.5 27l-1 667q0 17 8.5 26t22.5 9q14 1 24 -4t15 -10q-6 -19 -8 -47t-3 -77l-1 -252l-15 -14q5 60 30.5 103t66 66t88.5 23q83 0 121.5 -53.5t38.5 -157.5l1 -203q0 -28 2 -54.5t7 -44.5q-5 -5 -13.5 -9.5t-20.5 -4.5q-15 0 -24 9.5t-9 25.5
l-1 276q0 88 -26.5 133.5t-89.5 45.5q-25 0 -52 -12t-50.5 -39.5t-38 -72.5t-14.5 -112v-106t1 -66.5t3 -40.5t6 -27q-4 -4 -12.5 -9t-21.5 -5z" />
    <glyph glyph-name="i" unicode="i" horiz-adv-x="255" 
d="M124 613q-18 0 -32 13.5t-14 31.5q0 19 14 32.5t32 13.5q19 0 32.5 -13.5t13.5 -32.5q0 -18 -13.5 -31.5t-32.5 -13.5zM158 103q0 -30 2 -55.5t8 -43.5q-5 -4 -13.5 -9t-21.5 -5q-14 0 -23.5 9.5t-9.5 25.5l-1 380q0 29 -2 55t-8 43q4 5 12.5 9.5t21.5 4.5q15 0 24 -9
t9 -26z" />
    <glyph glyph-name="j" unicode="j" horiz-adv-x="258" 
d="M30 -234q-49 0 -74.5 21t-25.5 56q0 15 9 28t28 13q6 0 9.5 -1.5t5.5 -6.5q-2 -7 -3.5 -14.5t-1.5 -14.5q0 -20 8.5 -31t21 -14.5t23.5 -3.5q32 0 48 19t21.5 51.5t5.5 75.5l1 460q0 28 -2 54.5t-8 44.5q6 6 14.5 10t19.5 4q15 0 24 -9t9 -26l1 -547q0 -29 -5 -58.5
t-19.5 -54.5t-41 -40.5t-68.5 -15.5zM131 616q-18 0 -31.5 13.5t-13.5 31.5t13.5 31.5t31.5 13.5q19 0 32 -13.5t13 -31.5t-13 -31.5t-32 -13.5z" />
    <glyph glyph-name="k" unicode="k" horiz-adv-x="543" 
d="M122 -10q-18 0 -25.5 10.5t-7.5 26.5l-1 667q0 17 10 26t25 9q13 0 21.5 -4.5t12.5 -9.5q-3 -14 -4.5 -28.5t-2.5 -29.5t-1.5 -31.5t-1.5 -35.5l-1 -260l-5 6q13 54 42.5 94.5t72 63.5t95.5 23q59 0 91 -30.5t32 -84.5q0 -41 -19.5 -73.5t-50.5 -55.5t-67 -40
q9 -5 15.5 -13.5t12.5 -19.5l72 -127q9 -16 17 -23.5t20 -7.5q5 0 13.5 2.5t15.5 11.5q5 -5 6.5 -11t1.5 -12q0 -20 -18 -31.5t-37 -11.5q-22 0 -40 14t-28 36l-94 177q-38 -14 -77 -25.5t-70 -19.5v-75.5t1.5 -44.5t3.5 -26.5t5 -21.5q-5 -5 -13 -9.5t-22 -4.5zM147 202
q49 15 97 32.5t86.5 40.5t61.5 53.5t23 70.5q0 42 -22.5 60.5t-57.5 18.5q-57 0 -99 -35t-65.5 -97t-23.5 -144z" />
    <glyph glyph-name="l" unicode="l" horiz-adv-x="262" 
d="M170 -10q-39 0 -61.5 26t-22.5 73v605q0 17 9.5 26t25.5 9q13 0 21.5 -4.5t12.5 -9.5q-6 -21 -8 -67t-2 -128v-429q0 -25 10 -39t29 -14q12 0 23.5 6t16.5 17q6 -7 8 -14t2 -13q0 -20 -19 -32t-45 -12z" />
    <glyph glyph-name="m" unicode="m" horiz-adv-x="872" 
d="M790 103q0 -28 2 -54.5t8 -44.5q-6 -5 -14 -9.5t-20 -4.5q-15 0 -24.5 9.5t-9.5 25.5l-1 276q0 57 -9.5 97t-33 61t-65.5 21q-22 0 -46.5 -11.5t-46 -37t-36 -68t-16.5 -104.5l1 -156q0 -28 2 -54.5t8 -44.5q-6 -5 -14 -9.5t-20 -4.5q-14 0 -23.5 9.5t-9.5 25.5l-1 276
q0 88 -23.5 133.5t-85.5 45.5q-24 0 -49 -12.5t-46 -40.5t-34.5 -75t-13.5 -116v-102.5t1 -64.5t3 -38.5t6 -26.5q-4 -4 -12.5 -9t-21.5 -5q-15 0 -24.5 10t-9.5 27l-1 388q0 26 -9.5 39.5t-27.5 13.5q-10 0 -19 -6t-14 -18q-10 13 -10 27q0 21 16.5 33t38.5 12
q36 0 57.5 -25t21.5 -74v-80l-9 13q14 77 61 122t110 45q73 0 109.5 -44t41.5 -126l-12 3q8 51 32.5 88.5t60.5 58t80 20.5q79 0 115.5 -53.5t36.5 -157.5v-203z" />
    <glyph glyph-name="n" unicode="n" horiz-adv-x="569" 
d="M132 -10q-16 0 -25.5 10t-9.5 27v390q-1 28 -7.5 39.5t-21.5 11.5q-6 0 -14 -3t-13 -14q-11 14 -11 28q0 16 14 26.5t38 10.5q35 0 52 -23.5t17 -69.5v-84l-14 -14q5 60 31 103t67 66t90 23q83 0 122 -53.5t39 -157.5v-203q1 -28 3 -54.5t8 -44.5q-6 -5 -14 -9.5
t-21 -4.5q-15 0 -25 9.5t-10 25.5v276q-1 88 -27 132.5t-90 44.5q-24 0 -51 -11.5t-50.5 -38.5t-38.5 -72.5t-15 -111.5q0 -65 0.5 -106t1 -66.5t3 -40.5t6.5 -27q-5 -4 -13.5 -9t-20.5 -5z" />
    <glyph glyph-name="o" unicode="o" horiz-adv-x="542" 
d="M271 -13q-106 0 -164.5 70t-58.5 195t58.5 195t164.5 70q105 0 164 -70t59 -195t-59 -195t-164 -70zM271 20q76 0 117.5 61t41.5 171q0 111 -41.5 171.5t-117.5 60.5t-118 -60.5t-42 -171.5q0 -110 42 -171t118 -61z" />
    <glyph glyph-name="p" unicode="p" horiz-adv-x="555" 
d="M337 517q55 0 89 -23.5t51.5 -61t23.5 -78.5t6 -76q0 -136 -54 -213.5t-155 -77.5q-53 0 -90 23.5t-53 64.5v-151q0 -21 1 -47.5t3.5 -50.5t5.5 -38q-4 -4 -12.5 -9t-21.5 -5q-16 0 -25.5 9.5t-9.5 25.5l1 607q0 28 -6.5 39t-22.5 11q-6 0 -14 -2.5t-13 -13.5q-5 8 -8 15
t-3 13q0 16 14.5 26t37.5 10q38 0 54.5 -28t16.5 -79v-108l-23 -18q7 47 22 89.5t40.5 75.5t61.5 52t83 19zM325 477q-40 0 -71 -20.5t-53 -57t-33.5 -84.5t-11.5 -103q0 -34 5.5 -67.5t19.5 -60t39.5 -42t66.5 -15.5q75 0 116 62t41 188q0 31 -4 66t-16 65.5t-35.5 49.5
t-63.5 19z" />
    <glyph glyph-name="q" unicode="q" horiz-adv-x="537" 
d="M421 -226q-13 0 -21 4.5t-13 9.5q5 17 7 41t2.5 54.5t0.5 66.5v175q-12 -39 -37 -70.5t-60.5 -50t-78.5 -18.5q-54 0 -93 27t-59.5 83t-20.5 142q0 35 6.5 73.5t21 75t39 66t61 47t86.5 17.5q65 0 116 -19t79 -48v-641q0 -15 -9.5 -25t-26.5 -10zM234 26q36 0 63.5 17.5
t46.5 45t31 60.5t17.5 65.5t5.5 57.5v167q-15 15 -52.5 29t-80.5 14q-41 0 -69 -17t-45 -44.5t-25.5 -60.5t-11.5 -66t-3 -59q0 -108 31 -158.5t92 -50.5z" />
    <glyph glyph-name="r" unicode="r" horiz-adv-x="429" 
d="M131 -9q-14 0 -24 10t-10 27v389q0 28 -7 39.5t-22 11.5q-6 0 -14 -3t-13 -14q-11 14 -11 28q0 16 14 26.5t38 10.5q34 0 51.5 -24.5t16.5 -73.5v-81l-12 -3q8 90 47 136.5t98 46.5q49 0 79.5 -25.5t30.5 -74.5q0 -30 -15.5 -49.5t-34.5 -21.5q-17 -1 -25 7
q13 18 16 32.5t3 29.5q0 34 -17 49.5t-47 15.5q-28 0 -55 -22t-44.5 -73.5t-17.5 -140.5v-105.5t1 -66.5t3 -40t6 -27q-5 -4 -13.5 -9t-21.5 -5z" />
    <glyph glyph-name="s" unicode="s" horiz-adv-x="465" 
d="M225 -13q-65 0 -106 17t-59.5 45.5t-18.5 61.5q0 16 5 28t17 18.5t32 2.5q-3 -9 -4 -17.5t0 -20.5q1 -49 38.5 -75t98.5 -26t100 22t39 64q0 34 -22 54.5t-56 36t-71 32.5q-39 19 -74.5 38.5t-58 49.5t-22.5 78q0 44 24 71t63 39t85 12q82 0 126.5 -27t44.5 -74
q0 -15 -6 -25.5t-21 -14.5q-6 -2 -12.5 -2t-14.5 2q3 9 3.5 18t-1.5 17q-3 37 -35 55t-87 18q-29 0 -55 -7t-42 -23.5t-16 -43.5q0 -35 18.5 -57.5t49 -38.5t64.5 -32q30 -14 60.5 -28t56.5 -31.5t41.5 -41.5t15.5 -59q0 -31 -17.5 -62t-60.5 -52.5t-122 -21.5z" />
    <glyph glyph-name="t" unicode="t" horiz-adv-x="333" 
d="M193 -11q-42 0 -67 26t-25 73v514q0 17 10 26t26 9q13 0 21 -5t13 -9q-7 -21 -8.5 -67t-1.5 -129l-1 -336q0 -25 12.5 -40t37.5 -15q15 0 29.5 6t20.5 18q5 -7 7.5 -14t2.5 -13q0 -20 -22.5 -32t-54.5 -12zM27 466l1 19q1 9 6 14t12 5h171q4 0 14 0.5t21.5 1t21.5 1
t14 0.5l-1 -19q-1 -9 -5.5 -14t-11.5 -5h-183q-10 0 -30 -0.5t-30 -2.5z" />
    <glyph glyph-name="u" unicode="u" horiz-adv-x="560" 
d="M429 517q15 0 24.5 -9.5t9.5 -27.5l1 -390q0 -28 6.5 -39t22.5 -11q5 0 13 2.5t13 13.5q11 -14 11 -28q0 -16 -13.5 -26t-37.5 -10q-36 0 -53 23t-17 69v85l14 14q-5 -61 -30.5 -104.5t-65 -67.5t-88.5 -24q-79 0 -117 48t-39 166v203q0 28 -2.5 54.5t-7.5 44.5
q6 5 14 9.5t20 4.5q15 0 24.5 -9t9.5 -26l1 -275q0 -68 11 -108t35.5 -57t65.5 -17q24 0 50 12t49 40t37.5 73.5t14.5 113.5v106t-1 66t-3.5 40t-5.5 27q4 5 12.5 9.5t21.5 4.5z" />
    <glyph glyph-name="v" unicode="v" horiz-adv-x="477" 
d="M238 -10q-13 0 -23.5 6t-14.5 19l-167 439q-2 7 -7.5 20t-12.5 19q6 7 14.5 11t21.5 4t23 -6t13 -19l166 -468h-12l155 441q2 6 3.5 13.5t1.5 13.5t-0.5 11t-3.5 9q7 3 13.5 4t15.5 1q18 0 27.5 -7.5t8.5 -21.5q0 -7 -2.5 -17t-5.5 -19l-173 -442q-21 -11 -41 -11z" />
    <glyph glyph-name="w" unicode="w" horiz-adv-x="761" 
d="M216 -10q-13 0 -22.5 6t-14.5 19l-141 439q-2 7 -8 20t-12 19q6 7 14.5 11t20.5 4q14 0 24 -6t13 -19l134 -448l117 421q2 5 3.5 13t1.5 14t-0.5 11t-3.5 9q9 3 20 5.5t21 2.5q12 0 21.5 -3.5t14.5 -13.5l128 -459l125 421q2 6 3.5 13.5t1.5 13.5t-0.5 11t-3.5 9
q7 3 13.5 4t16.5 1q18 0 27 -7.5t8 -21.5q0 -7 -2 -17t-6 -19l-147 -442q-11 -5 -21 -8t-20 -3q-12 0 -24 6t-15 19l-120 428l-123 -442q-11 -5 -22 -8t-22 -3z" />
    <glyph glyph-name="x" unicode="x" horiz-adv-x="493" 
d="M419 -14q-22 0 -38.5 10t-28.5 26.5t-25 38.5l-106 186l-101 176q-12 21 -22.5 30.5t-23.5 9.5q-15 0 -22 -9.5t-6 -21.5q-13 3 -20.5 12t-7.5 22q0 19 16.5 35t47.5 16q22 0 38 -9.5t28.5 -26t24.5 -38.5l93 -167l114 -196q10 -17 21.5 -28.5t25.5 -11.5q15 0 21.5 10.5
t5.5 20.5q12 -2 20 -11.5t8 -23.5q0 -17 -16.5 -33.5t-46.5 -16.5zM64 -13q-12 0 -22 8.5t-12 28.5q15 7 30.5 24t36.5 46l132 186l26 -36l-160 -238q-5 -8 -13 -13.5t-18 -5.5zM267 249l-26 34l147 215q6 8 13.5 13.5t18.5 5.5q15 0 23.5 -8.5t11.5 -28.5q-19 -9 -34.5 -28
t-33.5 -43z" />
    <glyph glyph-name="y" unicode="y" horiz-adv-x="542" 
d="M238 -236q-40 0 -77.5 10.5t-61.5 34.5t-24 64q0 26 13 44.5t35 18.5q20 0 30 -13q-15 -8 -19 -22t-4 -23q0 -31 17 -49t41.5 -25.5t48.5 -7.5q90 0 130 64t40 194q0 19 1 40.5t2 43.5t2 42l11 13q-8 -93 -57.5 -147.5t-133.5 -54.5q-72 0 -110 47.5t-39 165.5v200
q0 30 -2.5 55.5t-7.5 43.5q6 5 14 9.5t20 4.5q15 0 24.5 -9t9.5 -26l1 -273q0 -96 24 -138.5t79 -42.5q29 0 57 12.5t51.5 40.5t37.5 75t14 115v103t-1 64t-3.5 38.5t-5.5 26.5q4 5 12.5 9.5t21.5 4.5q15 0 24.5 -9.5t9.5 -27.5l1 -432q0 -107 -29.5 -169t-80.5 -88.5
t-116 -26.5z" />
    <glyph glyph-name="z" unicode="z" horiz-adv-x="484" 
d="M48 -6l-10 16q0 13 4.5 25t13.5 23l326 413l10 -11l-233 -5q-34 0 -50 -14.5t-19 -31.5q-2 -16 3 -28.5t15 -21.5q-4 -3 -9 -3.5t-11 0.5q-25 4 -37.5 25.5t-12.5 41.5q0 35 28.5 60t86.5 24l170 -2q33 0 56 0.5t37 4.5l11 -14q0 -16 -3 -29.5t-16 -30.5l-316 -402
l-10 14l241 3q42 0 60 18.5t21 40.5q2 17 -4 32.5t-16 23.5q13 3 22 1q19 -2 29.5 -15.5t14.5 -30t4 -29.5q0 -41 -31 -67.5t-85 -26.5l-194 2q-22 0 -47.5 -1t-48.5 -5z" />
    <glyph glyph-name="braceleft" unicode="{" horiz-adv-x="365" 
d="M264 -173q-61 0 -100.5 34.5t-39.5 108.5q0 41 8 95t8 107q0 46 -15 66.5t-52 35.5v28q40 16 53.5 40t13.5 66q0 56 -8 105.5t-8 88.5q0 75 39.5 109.5t100.5 34.5q25 0 44 -4.5t24 -8.5q3 -1 3.5 -6.5t-1.5 -11t-8 -7.5q-10 2 -21.5 3.5t-22.5 1.5q-46 0 -73 -25.5
t-27 -79.5q0 -36 8.5 -87.5t8.5 -104.5q0 -63 -15.5 -90.5t-35.5 -34.5v-6q22 -7 36.5 -36.5t14.5 -86.5q0 -33 -4 -68.5t-8.5 -69t-4.5 -57.5q0 -53 27 -80t73 -27q11 0 22.5 1.5t21.5 3.5q6 -1 8 -6.5t1.5 -11t-3.5 -7.5q-5 -4 -24 -8.5t-44 -4.5z" />
    <glyph glyph-name="bar" unicode="|" horiz-adv-x="265" 
d="M104 -137v867h57v-867h-57z" />
    <glyph glyph-name="braceright" unicode="}" horiz-adv-x="365" 
d="M101 -173q-24 0 -43.5 4.5t-24.5 8.5q-3 2 -3.5 7.5t2 11t7.5 6.5q10 -2 21.5 -3.5t22.5 -1.5q46 0 73 27t27 80q0 24 -4 57.5t-8.5 69t-4.5 68.5q0 57 14.5 86.5t36.5 36.5v6q-20 7 -35.5 34.5t-15.5 90.5q0 53 8.5 104.5t8.5 87.5q0 54 -27 79.5t-73 25.5
q-11 0 -22.5 -1.5t-21.5 -3.5q-5 2 -7.5 7.5t-2 11t3.5 6.5q5 4 24.5 8.5t43.5 4.5q62 0 101 -34.5t39 -109.5q0 -39 -8 -88.5t-8 -105.5q0 -42 14 -66t53 -40v-28q-36 -15 -51.5 -35.5t-15.5 -66.5q0 -53 8 -107t8 -95q0 -74 -39 -108.5t-101 -34.5z" />
    <glyph glyph-name="asciitilde" unicode="~" horiz-adv-x="516" 
d="M441 387q-6 -34 -28.5 -57.5t-57.5 -23.5q-32 0 -55.5 8t-44 19t-42 19t-48.5 8q-23 0 -39.5 -12.5t-23.5 -33.5q-7 -1 -14.5 2.5t-13.5 7.5q6 29 20 46t34.5 25t41.5 8q31 0 54.5 -8t44.5 -19t43 -19t51 -8q23 0 32.5 14t17.5 33q18 0 28 -9z" />
    <glyph glyph-name="uni00A0" unicode="&#xa0;" horiz-adv-x="255" 
 />
    <glyph glyph-name="exclamdown" unicode="&#xa1;" horiz-adv-x="281" 
d="M105 -215q17 -5 35.5 -5t35.5 5l-11 544h-47zM140 515q19 0 32.5 -13.5t13.5 -31.5q0 -19 -13.5 -32.5t-32.5 -13.5q-18 0 -32 13.5t-14 32.5q0 18 14 31.5t32 13.5z" />
    <glyph glyph-name="cent" unicode="&#xa2;" horiz-adv-x="504" 
d="M360 -47q-16 -5 -21 17l-150 669q-6 30 -12.5 51.5t-11.5 32.5q2 4 5.5 7t9.5 4q16 5 22 -17l150 -669q6 -30 12.5 -51.5t11.5 -32.5q-3 -3 -6 -6.5t-10 -4.5zM274 86q-104 0 -164 66t-60 194q0 125 61 197.5t172 72.5q78 0 121.5 -35t43.5 -91q0 -33 -15.5 -53.5
t-41.5 -20.5q-10 0 -20.5 4t-17.5 14q18 4 26.5 20.5t8.5 38.5q0 32 -16 52.5t-41 29.5t-54 9q-71 0 -117.5 -57t-46.5 -172q0 -84 24.5 -133.5t64.5 -70.5t85 -21q36 0 67 11.5t54 36t31 63.5q10 -4 14 -14.5t-4 -33.5q-18 -53 -64.5 -80t-110.5 -27z" />
    <glyph glyph-name="sterling" unicode="&#xa3;" horiz-adv-x="509" 
d="M168 504q0 -41 5 -78.5t9.5 -76t4.5 -83.5q0 -50 -10.5 -89t-34 -74t-61.5 -71q98 0 192.5 7t188.5 21q4 -4 5.5 -11.5t1.5 -16.5q0 -12 -5.5 -22t-16.5 -10h-406v26q33 48 52.5 84t28.5 69.5t9 75.5q0 36 -5 77.5l-10 83t-5 73.5q0 64 16 105.5t43 64.5t60.5 32t69.5 9
q63 0 98 -29.5t35 -65.5q0 -22 -9.5 -29t-19.5 -7q-9 0 -15 3q0 47 -28 71.5t-65 24.5q-33 0 -62.5 -12.5t-47.5 -47.5t-18 -104zM30 292l1 19q1 9 6 14t12 5h239h14t22.5 0.5t22.5 1t14 0.5l-1 -19q-1 -8 -5.5 -13.5t-12.5 -5.5h-252q-10 0 -30 -0.5t-30 -1.5z" />
    <glyph glyph-name="currency" unicode="&#xa4;" horiz-adv-x="554" 
d="M278 172q-55 0 -100.5 26.5t-72.5 71t-27 100.5q0 55 26.5 99.5t71.5 70t99 25.5q55 0 100.5 -26t72 -70.5t26.5 -99.5t-26.5 -100t-71 -71t-98.5 -26zM276 212q42 0 76 21t54.5 56.5t20.5 79.5t-20.5 79.5t-54.5 56t-75 20.5q-42 0 -76.5 -20.5t-55 -56t-20.5 -79.5
t20.5 -79.5t55 -56.5t75.5 -21zM147 478l-28 26q-22 21 -38.5 36t-27.5 21q0 5 2 10t7 11q8 7 15.5 5.5t13.5 -8.5l80 -78zM409 474l-23 24l26 28q21 22 36 39t22 27q5 0 10 -1.5t10 -7.5q7 -7 5.5 -14.5t-7.5 -14.5zM463 157l-81 79l24 23l29 -26q21 -21 38.5 -36t27.5 -22
q-1 -5 -2.5 -9.5t-6.5 -10.5q-8 -7 -15.5 -5.5t-13.5 7.5zM84 145q-5 1 -10 2.5t-10 6.5q-8 7 -6.5 14.5t7.5 14.5l79 80l24 -24l-27 -28q-21 -22 -36 -38.5t-21 -27.5z" />
    <glyph glyph-name="yen" unicode="&#xa5;" horiz-adv-x="532" 
d="M91 258l1 18q1 9 6 14.5t11 5.5h248h11.5t19.5 0.5t22.5 0.5t19.5 0.5t11 0.5l-1 -19q-1 -8 -5.5 -13.5t-11.5 -5.5h-272q-10 0 -30 -0.5t-30 -1.5zM91 198l1 19q1 9 6 14t11 5h248h11.5t19.5 0.5t22.5 0.5t19.5 0.5t11 1.5l-1 -19q-1 -9 -5.5 -14t-11.5 -5h-272
q-10 0 -30 -1t-30 -2zM268 228q-10 1 -16 4.5t-10.5 10t-7.5 11.5l-189 389q-5 10 -13.5 21t-15.5 19q6 6 17 12.5t26 6.5q17 0 25.5 -8.5t15.5 -22.5l188 -403l-26 -9l183 385q10 21 10 32q0 6 -1 11.5t-4 9.5q7 3 14 4t18 1q15 0 23 -9t9 -23q0 -7 -4 -17.5t-11 -21.5
l-203 -392zM298 265l1 -162q0 -30 2 -55.5t8 -43.5q-5 -4 -13.5 -9t-21.5 -5q-15 0 -24.5 9.5t-9.5 25.5v234z" />
    <glyph glyph-name="brokenbar" unicode="&#xa6;" horiz-adv-x="265" 
d="M104 -137v351h57v-351h-57zM104 378v351h57v-351h-57z" />
    <glyph glyph-name="section" unicode="&#xa7;" horiz-adv-x="464" 
d="M225 -92q-66 0 -106.5 17t-59 45.5t-18.5 61.5q0 17 5 28.5t16.5 17.5t31.5 3q-3 -9 -4 -17.5t0 -20.5q2 -49 39 -75t99 -26q61 0 100 22t39 64q0 35 -22 55.5t-56 35.5t-71 32q-39 19 -74.5 38.5t-58 49.5t-22.5 78q0 53 29 82.5t75 41.5q-43 23 -73.5 54t-30.5 86
q0 45 23.5 71.5t63 38.5t85.5 12q82 0 126 -27t44 -74q0 -14 -5.5 -25t-20.5 -14q-6 -3 -12.5 -2.5t-13.5 1.5q2 9 2.5 18t-1.5 17q-2 37 -34.5 55t-87.5 18q-30 0 -56 -7t-42 -23t-16 -44q0 -35 18.5 -57.5t49 -38.5t64.5 -32q31 -14 61.5 -28.5t56 -31.5t41 -41t15.5 -59
q0 -25 -11 -51.5t-37.5 -47t-76.5 -28.5q33 -15 61.5 -33t46 -43t17.5 -62q0 -30 -17.5 -61.5t-60 -52.5t-121.5 -21zM251 205q30 -2 56.5 6.5t43 29t16.5 51.5t-20.5 51.5t-53 36.5t-69.5 34q-47 3 -76.5 -17.5t-29.5 -65.5q0 -33 19.5 -56t50 -38.5t63.5 -31.5z" />
    <glyph glyph-name="dieresis" unicode="&#xa8;" horiz-adv-x="600" 
d="M212 586q-16 0 -29 13t-13 29q0 17 13 29.5t29 12.5q17 0 29.5 -12.5t12.5 -29.5q0 -16 -12.5 -29t-29.5 -13zM380 586q-16 0 -28.5 13t-12.5 29q0 17 12.5 29.5t28.5 12.5q17 0 29.5 -12.5t12.5 -29.5q0 -16 -12.5 -29t-29.5 -13z" />
    <glyph glyph-name="copyright" unicode="&#xa9;" horiz-adv-x="828" 
d="M415 -12q-75 0 -140 28t-114 77t-77 114.5t-28 139.5q0 75 28 139t77 113t114 76.5t140 27.5q74 0 139 -27.5t114 -77t77 -113.5t28 -138t-28 -139.5t-77 -114.5t-114 -77t-139 -28zM419 125q-85 0 -133.5 57t-48.5 165q0 109 49 165.5t135 56.5q38 0 68 -8t48 -21.5
t18 -28.5q0 -8 -9.5 -15.5t-24.5 -6.5q-6 27 -32 41.5t-68 14.5q-65 0 -100.5 -50t-35.5 -148q0 -97 35 -147t100 -50q40 0 73.5 17.5t42.5 52.5q12 1 22 -3.5t10 -16.5q0 -18 -20.5 -35.5t-54.5 -28.5t-74 -11zM414 20q68 0 126.5 25.5t103.5 70.5t70 104.5t25 126.5
q0 68 -25 126.5t-70 103t-103.5 70t-126.5 25.5q-67 0 -126 -25.5t-104 -70t-70 -103t-25 -126.5t25 -127.5t70 -104.5t104 -70t126 -25z" />
    <glyph glyph-name="ordfeminine" unicode="&#xaa;" horiz-adv-x="372" 
d="M322 360q-14 0 -25.5 5.5t-19 15t-10 23.5t2.5 31l1 72l7 -11q-12 -42 -36.5 -73t-56.5 -47.5t-68 -16.5q-40 0 -61.5 21.5t-21.5 54.5q0 27 13.5 48t38.5 36.5t58 23.5q29 8 61.5 10.5t60.5 0.5v17q0 58 -22.5 87t-74.5 29q-17 0 -34.5 -5t-29.5 -16t-12 -32
q0 -13 7 -27.5t22 -19.5q-5 -7 -13 -10t-14 -3q-21 0 -33.5 18.5t-12.5 39.5q0 40 34 59.5t91 19.5q70 0 103 -35t33 -108v-137q0 -34 24 -34q5 0 12.5 3.5t10.5 9.5q5 -5 6 -10t1 -9q0 -14 -12.5 -22.5t-29.5 -8.5zM135 393q29 0 59.5 20.5t51 52.5t20.5 68q-25 1 -58 -1.5
t-57 -11.5q-33 -11 -51.5 -30t-18.5 -47q0 -19 12 -35.5t42 -15.5z" />
    <glyph glyph-name="guillemotleft" unicode="&#xab;" horiz-adv-x="647" 
d="M590 439l-277 -196v-5l279 -194l-23 -28l-314 203q-2 5 -2.5 13t0 17t2.5 13l315 206zM368 439l-277 -196v-5l279 -194l-23 -28l-314 203q-2 5 -2.5 13t0 17t2.5 13l315 206z" />
    <glyph glyph-name="logicalnot" unicode="&#xac;" horiz-adv-x="562" 
d="M76 340q-8 20 0 41h394v-41h-394zM430 229v141h40v-141q-20 -9 -40 0z" />
    <glyph glyph-name="uni00AD" unicode="&#xad;" horiz-adv-x="399" 
d="M53 278h292v-42h-292v42z" />
    <glyph glyph-name="registered" unicode="&#xae;" horiz-adv-x="828" 
d="M415 -12q-75 0 -140 28t-114 77.5t-77 114.5t-28 139q0 75 28 139t77 113t114 76.5t140 27.5q74 0 139 -27.5t114 -77t77 -113.5t28 -138t-28 -139t-77 -114.5t-114 -77.5t-139 -28zM414 20q68 0 126.5 25.5t103.5 70.5t70 104t25 127q0 67 -25 126t-70 103.5t-103.5 70
t-126.5 25.5q-67 0 -126 -25.5t-104 -70t-70 -103t-25 -126.5t25 -127.5t70 -104.5t104 -70t126 -25zM298 124q-11 0 -17.5 6t-7.5 17v361q0 5 -0.5 17t-2 25.5t-4.5 21.5q7 3 28 7.5t65 4.5q105 0 153 -29t48 -96q0 -52 -38 -85.5t-96 -38.5v7q40 1 60 -21t34 -51l38 -82
q9 -16 16.5 -23t16.5 -7q4 0 10.5 2t11.5 8q4 -8 4 -16q0 -13 -13 -20.5t-26 -7.5q-14 0 -25.5 7t-20.5 19t-17 27l-38 85q-7 17 -16.5 31.5t-27.5 22.5t-51 8l-74 1l-6 24q15 0 35 -0.5t46 -0.5q35 1 64.5 13.5t47 36.5t17.5 58q0 54 -35.5 79t-116.5 25q-14 0 -25 -0.5
t-17 -1.5v-362q0 -10 1.5 -30.5t6.5 -32.5q-4 -2 -10.5 -5.5t-17.5 -3.5z" />
    <glyph glyph-name="macron" unicode="&#xaf;" horiz-adv-x="600" 
d="M166 636h248q7 -18 0 -36h-248q-7 18 0 36z" />
    <glyph glyph-name="degree" unicode="&#xb0;" horiz-adv-x="366" 
d="M183 470q-33 0 -61 15.5t-44 42.5t-16 59t16 58.5t44 42t61 15.5q34 0 61.5 -15.5t44 -41.5t16.5 -59q0 -32 -16.5 -59t-44 -42.5t-61.5 -15.5zM183 506q33 0 57 24t24 57t-24 56.5t-57 23.5t-56.5 -23.5t-23.5 -56.5t23.5 -57t56.5 -24z" />
    <glyph glyph-name="plusminus" unicode="&#xb1;" horiz-adv-x="577" 
d="M92 387h393q8 -21 0 -42h-393q-8 21 0 42zM309 513v-294q-21 -7 -41 1l-1 293q21 8 42 0zM92 162h393q8 -21 0 -41h-393q-8 20 0 41z" />
    <glyph glyph-name="uni00B2" unicode="&#xb2;" horiz-adv-x="371" 
d="M42 239q-6 5 -8 13.5t-1 19.5q30 23 63.5 49.5t65 55.5t56.5 61t40.5 67t15.5 72q0 40 -24 70.5t-74 30.5q-35 0 -55 -17t-28.5 -40t-10.5 -40q-13 0 -22 5.5t-12.5 13.5t-3.5 16q0 19 16 39.5t46.5 34t73.5 13.5q39 0 72 -13t53.5 -41t20.5 -73q0 -40 -16.5 -78
t-44 -71.5t-61.5 -62.5t-68.5 -53t-63.5 -43q31 1 67 3t72.5 5.5t70.5 7.5t61 8q4 -3 6.5 -11t2 -17.5t-3 -16.5t-8.5 -8h-298z" />
    <glyph glyph-name="uni00B3" unicode="&#xb3;" horiz-adv-x="391" 
d="M188 231q-46 0 -75 9.5t-45 23t-22 27.5t-6 21t3 14t11 12t21 5q2 -11 7 -26t16 -29t32.5 -23.5t54.5 -9.5q56 0 85 28t29 73q0 42 -23.5 66.5t-61 35t-80.5 11.5v24q49 2 82 16.5t49.5 38t16.5 50.5q0 35 -22 57.5t-68 22.5q-37 0 -58 -14.5t-29.5 -34.5t-10.5 -37
q-14 0 -22 4.5t-10.5 10.5t-2.5 12q0 17 14 36.5t44.5 33.5t78.5 14q24 0 48.5 -5t45.5 -17t33.5 -33t12.5 -51q0 -45 -30.5 -74t-81.5 -41q55 -10 92 -38t37 -83q0 -62 -46 -96t-119 -34z" />
    <glyph glyph-name="acute" unicode="&#xb4;" horiz-adv-x="600" 
d="M377 696l-125 -135q-7 -1 -17.5 0.5t-13.5 5.5l91 145q11 1 23.5 -1.5t23.5 -6t18 -8.5z" />
    <glyph glyph-name="uni00B5" unicode="&#xb5;" horiz-adv-x="567" 
d="M243 -13q-79 0 -117 48t-39 166l-1 203q0 28 -2 54.5t-7 44.5q6 5 14 9.5t20 4.5q15 0 24.5 -9t9.5 -26v-275q0 -68 11 -108t36 -57t66 -17q24 0 50 12t49 40t37.5 73.5t14.5 113.5v106t-1 66t-3.5 40t-6.5 27q5 5 13.5 9.5t21.5 4.5q14 0 23.5 -9.5t9.5 -27.5l1 -390
q0 -28 7 -39t22 -11q6 0 14 2.5t13 13.5q11 -14 11 -28q0 -16 -14 -26t-37 -10q-36 0 -53 23t-17 69v85l14 14q-5 -61 -30.5 -104.5t-65.5 -67.5t-88 -24zM121 -225q-15 0 -25 9.5t-10 25.5l1 431l54 -168v-156q0 -21 2 -46t5 -47t8 -35q-5 -4 -13.5 -9t-21.5 -5z" />
    <glyph glyph-name="paragraph" unicode="&#xb6;" horiz-adv-x="678" 
d="M567 -195q-14 0 -27 11.5t-22 33.5t-9 52v525q0 82 -22 135.5t-67.5 80t-115.5 26.5q-60 0 -98 -18t-59 -47t-29 -62t-8 -64q0 -67 27 -108.5t72 -56t97 -2.5l-4 -37q-45 -9 -90 -1t-81.5 33t-58.5 68t-22 103q0 24 5.5 53.5t20 60t43 56t73.5 41t112 15.5
q131 0 197.5 -67.5t66.5 -206.5v-487q0 -36 5 -60.5t14 -37t21 -15.5q-4 -12 -15 -18t-26 -6zM324 -10q-15 0 -24 9.5t-9 25.5l-2 402q0 30 -2 55.5t-8 43.5q5 4 13.5 9t20.5 5q14 0 22.5 -9t8.5 -27l2 -401q0 -30 2 -55.5t8 -43.5q-4 -4 -12 -9t-20 -5z" />
    <glyph glyph-name="periodcentered" unicode="&#xb7;" horiz-adv-x="251" 
d="M126 214q-19 0 -32.5 13.5t-13.5 32.5q0 18 13.5 31.5t32.5 13.5t32 -13.5t13 -31.5q0 -19 -13 -32.5t-32 -13.5z" />
    <glyph glyph-name="cedilla" unicode="&#xb8;" horiz-adv-x="600" 
d="M307 5l-10 -50q42 0 65.5 -19.5t23.5 -52.5q0 -37 -27 -59.5t-70 -22.5q-34 0 -53.5 9.5t-30.5 20.5q-1 7 3.5 15.5t8.5 11.5q7 -5 20.5 -13.5t40.5 -8.5q24 0 38.5 11.5t14.5 34.5q0 21 -15.5 35.5t-60.5 10.5l15 77h37z" />
    <glyph glyph-name="uni00B9" unicode="&#xb9;" horiz-adv-x="300" 
d="M191 234q-11 0 -18.5 7.5t-7.5 20.5l-1 360v18t-2 16q-16 -13 -38 -30t-41 -30.5t-26 -13.5q-8 0 -12 4t-5.5 9.5t-2 10.5t-0.5 7q2 2 12.5 9t25.5 17.5t32 21.5t31.5 21.5t24.5 16.5q4 2 8.5 3t10.5 1q13 0 21 -7.5t8 -21.5l1 -358q-1 -19 1 -38t6 -33q-3 -3 -10 -7
t-18 -4z" />
    <glyph glyph-name="ordmasculine" unicode="&#xba;" horiz-adv-x="371" 
d="M185 358q-72 0 -112 46.5t-40 130.5q0 83 40 129.5t112 46.5t112.5 -46t40.5 -130t-40.5 -130.5t-112.5 -46.5zM185 382q51 0 78.5 40t27.5 113t-27.5 112t-78.5 39q-50 0 -77.5 -39t-27.5 -112t27.5 -113t77.5 -40z" />
    <glyph glyph-name="guillemotright" unicode="&#xbb;" horiz-adv-x="647" 
d="M278 439l21 29l315 -206q1 -4 2 -13t0.5 -17t-2.5 -13l-314 -203l-23 28l279 194v5zM56 439l21 29l315 -206q1 -4 2 -13t0.5 -17t-2.5 -13l-315 -203l-22 28l279 194v5z" />
    <glyph glyph-name="onequarter" unicode="&#xbc;" horiz-adv-x="936" 
d="M191 234q-11 0 -18.5 7.5t-7.5 20.5l-1 360v18t-2 16q-16 -13 -38 -30t-41 -30.5t-26 -13.5q-8 0 -12 4t-5.5 9.5t-2 10.5t-0.5 7q2 2 12.5 9t25.5 17.5t32 21.5t31.5 21.5t24.5 16.5q4 2 8.5 3t10.5 1q13 0 21 -7.5t8 -21.5l1 -358q-1 -19 1 -38t6 -33q-3 -3 -10 -7
t-18 -4zM599 703q12 2 22.5 -2t14.5 -16l-418 -698q-12 -1 -21 3t-15 14zM841 76q0 -19 2 -38t5 -33q-2 -4 -9.5 -8t-17.5 -4q-12 0 -19.5 8t-7.5 20l-1 390l-197 -257h216q23 0 47.5 1.5t47.5 6.5q6 -9 5 -21.5t-8 -19.5h-336q-12 5 -13.5 15.5t4.5 17.5l226 297q4 4 11 8
t17 4q11 0 19 -7.5t8 -21.5z" />
    <glyph glyph-name="onehalf" unicode="&#xbd;" horiz-adv-x="913" 
d="M191 234q-11 0 -18.5 7.5t-7.5 20.5l-1 360v18t-2 16q-16 -13 -38 -30t-41 -30.5t-26 -13.5q-8 0 -12 4t-5.5 9.5t-2 10.5t-0.5 7q2 2 12.5 9t25.5 17.5t32 21.5t31.5 21.5t24.5 16.5q4 2 8.5 3t10.5 1q13 0 21 -7.5t8 -21.5l1 -358q-1 -19 1 -38t6 -33q-3 -3 -10 -7
t-18 -4zM599 703q12 2 22.5 -2t14.5 -16l-418 -698q-12 -1 -21 3t-15 14zM575 0q-6 4 -8.5 13t-0.5 20q30 23 63.5 49.5t65 55.5t56.5 61t40 67t15 72q0 40 -23.5 70.5t-73.5 30.5q-35 0 -55.5 -17t-28.5 -40t-10 -40q-14 0 -22.5 5t-12.5 13.5t-4 16.5q0 19 16.5 39.5
t47 34t73.5 13.5q39 0 72 -13t53.5 -41t20.5 -73q0 -40 -16.5 -78t-44.5 -71.5t-61.5 -62.5t-68 -53t-63.5 -43q31 1 67 3t72.5 5.5t70.5 7.5t61 8q4 -3 6 -11t2 -17.5t-2.5 -16.5t-8.5 -8h-298z" />
    <glyph glyph-name="threequarters" unicode="&#xbe;" horiz-adv-x="1027" 
d="M188 231q-46 0 -75 9.5t-45 23t-22 27.5t-6 21t3 14t11 12t21 5q2 -11 7 -26t16 -29t32.5 -23.5t54.5 -9.5q56 0 85 28t29 73q0 42 -23.5 66.5t-61 35t-80.5 11.5v24q49 2 82 16.5t49.5 38t16.5 50.5q0 35 -22 57.5t-68 22.5q-37 0 -58 -14.5t-29.5 -34.5t-10.5 -37
q-14 0 -22 4.5t-10.5 10.5t-2.5 12q0 17 14 36.5t44.5 33.5t78.5 14q24 0 48.5 -5t45.5 -17t33.5 -33t12.5 -51q0 -45 -30.5 -74t-81.5 -41q55 -10 92 -38t37 -83q0 -62 -46 -96t-119 -34zM690 703q12 2 22.5 -2t14.5 -16l-418 -698q-12 -1 -21 3t-15 14zM933 76
q0 -19 2 -38t5 -33q-2 -4 -9.5 -8t-17.5 -4q-12 0 -19.5 8t-7.5 20l-1 390l-197 -257h216q23 0 47.5 1.5t47.5 6.5q6 -9 5 -21.5t-8 -19.5h-336q-12 5 -13.5 15.5t4.5 17.5l226 297q4 4 11 8t17 4q11 0 19 -7.5t8 -21.5z" />
    <glyph glyph-name="questiondown" unicode="&#xbf;" horiz-adv-x="477" 
d="M317 341v-148q-32 0 -69 -12.5t-69.5 -36.5t-53 -61.5t-20.5 -88.5q0 -49 18.5 -89.5t56.5 -64t96 -23.5q41 0 68.5 14t43.5 35t23.5 43.5t8.5 39.5q17 0 27 -4.5t15 -12.5t5 -20q0 -26 -22 -56t-66 -51t-109 -21q-43 0 -83.5 11t-73.5 35.5t-52 64.5t-19 96q0 51 18 92
t49.5 71.5t72.5 49t87 24.5v113h48zM308 527q19 0 32.5 -13.5t13.5 -32.5q0 -18 -13.5 -31.5t-32.5 -13.5q-18 0 -32 13.5t-14 31.5q0 19 14 32.5t32 13.5z" />
    <glyph glyph-name="Agrave" unicode="&#xc0;" horiz-adv-x="580" 
d="M304 703q13 0 23.5 -5.5t14.5 -18.5l211 -634q4 -11 9 -21.5t11 -18.5q-5 -6 -13 -10.5t-21 -4.5q-14 0 -25 6.5t-14 18.5l-214 664l13 -1l-202 -635q-1 -6 -3 -13.5t-2 -14.5q0 -5 1 -10.5t3 -8.5q-7 -2 -14.5 -4t-17.5 -2q-17 0 -26 7.5t-8 21.5q0 7 2.5 17t5.5 20
l218 637q24 10 48 10zM144 265h312v-39h-312v39zM149 814q5 10 12.5 19t16 16.5t16.5 10.5l134 -107q-1 -4 -5.5 -11.5t-9.5 -9.5z" />
    <glyph glyph-name="Aacute" unicode="&#xc1;" horiz-adv-x="580" 
d="M304 703q13 0 23.5 -5.5t14.5 -18.5l211 -634q4 -11 9 -21.5t11 -18.5q-5 -6 -13 -10.5t-21 -4.5q-14 0 -25 6.5t-14 18.5l-214 664l13 -1l-202 -635q-1 -6 -3 -13.5t-2 -14.5q0 -5 1 -10.5t3 -8.5q-7 -2 -14.5 -4t-17.5 -2q-17 0 -26 7.5t-8 21.5q0 7 2.5 17t5.5 20
l218 637q24 10 48 10zM144 265h312v-39h-312v39zM440 814l-164 -82q-4 2 -9 9.5t-6 11.5l133 107q9 -3 18 -10.5t16 -16.5t12 -19z" />
    <glyph glyph-name="Acircumflex" unicode="&#xc2;" horiz-adv-x="580" 
d="M304 703q13 0 23.5 -5.5t14.5 -18.5l211 -634q4 -11 9 -21.5t11 -18.5q-5 -6 -13 -10.5t-21 -4.5q-14 0 -25 6.5t-14 18.5l-214 664l13 -1l-202 -635q-1 -6 -3 -13.5t-2 -14.5q0 -5 1 -10.5t3 -8.5q-7 -2 -14.5 -4t-17.5 -2q-17 0 -26 7.5t-8 21.5q0 7 2.5 17t5.5 20
l218 637q24 10 48 10zM144 265h312v-39h-312v39zM317 856l121 -107q-1 -4 -7 -10.5t-11 -8.5l-125 78l-126 -78q-4 2 -10 8.5t-8 10.5l121 107q6 2 14.5 2.5t16.5 0t14 -2.5z" />
    <glyph glyph-name="Atilde" unicode="&#xc3;" horiz-adv-x="580" 
d="M304 703q13 0 23.5 -5.5t14.5 -18.5l211 -634q4 -11 9 -21.5t11 -18.5q-5 -6 -13 -10.5t-21 -4.5q-14 0 -25 6.5t-14 18.5l-214 664l13 -1l-202 -635q-1 -6 -3 -13.5t-2 -14.5q0 -5 1 -10.5t3 -8.5q-7 -2 -14.5 -4t-17.5 -2q-17 0 -26 7.5t-8 21.5q0 7 2.5 17t5.5 20
l218 637q24 10 48 10zM144 265h312v-39h-312v39zM434 823q-7 -32 -27.5 -52t-50.5 -20q-24 0 -44.5 10.5t-39 20.5t-39.5 10q-22 0 -35.5 -10t-20.5 -30q-5 -1 -11 2t-11 8q8 40 30 57.5t51 17.5q26 0 45.5 -10t38.5 -20.5t42 -10.5q22 0 31.5 10t17.5 26q8 0 13 -2t10 -7z
" />
    <glyph glyph-name="Adieresis" unicode="&#xc4;" horiz-adv-x="580" 
d="M304 703q13 0 23.5 -5.5t14.5 -18.5l211 -634q4 -11 9 -21.5t11 -18.5q-5 -6 -13 -10.5t-21 -4.5q-14 0 -25 6.5t-14 18.5l-214 664l13 -1l-202 -635q-1 -6 -3 -13.5t-2 -14.5q0 -5 1 -10.5t3 -8.5q-7 -2 -14.5 -4t-17.5 -2q-17 0 -26 7.5t-8 21.5q0 7 2.5 17t5.5 20
l218 637q24 10 48 10zM144 265h312v-39h-312v39zM211 759q-18 0 -31 13t-13 30q0 19 13 31.5t31 12.5t31 -12.5t13 -31.5q0 -17 -13 -30t-31 -13zM385 759q-17 0 -30 13t-13 30q0 19 13 31.5t30 12.5q19 0 31.5 -12.5t12.5 -31.5q0 -17 -12.5 -30t-31.5 -13z" />
    <glyph glyph-name="Aring" unicode="&#xc5;" horiz-adv-x="580" 
d="M304 703q13 0 23.5 -5.5t14.5 -18.5l211 -634q4 -11 9 -21.5t11 -18.5q-5 -6 -13 -10.5t-21 -4.5q-14 0 -25 6.5t-14 18.5l-214 664l13 -1l-202 -635q-1 -6 -3 -13.5t-2 -14.5q0 -5 1 -10.5t3 -8.5q-7 -2 -14.5 -4t-17.5 -2q-17 0 -26 7.5t-8 21.5q0 7 2.5 17t5.5 20
l218 637q24 10 48 10zM144 265h312v-39h-312v39zM300 901q38 0 61.5 -21.5t23.5 -57.5q-1 -38 -25 -60.5t-64 -22.5q-38 0 -61.5 22t-23.5 57q0 38 25 60.5t64 22.5zM298 875q-23 0 -37 -14.5t-14 -40.5q0 -25 14 -40t37 -15q24 0 37.5 15t13.5 40q0 26 -13.5 40.5
t-37.5 14.5z" />
    <glyph glyph-name="AE" unicode="&#xc6;" horiz-adv-x="822" 
d="M65 -10q-16 0 -26 8.5t-9 23.5q0 17 9 34l338 629q11 1 26.5 2.5t31 2.5t28.5 1h279q7 0 10 -7t1.5 -16.5t-6.5 -18t-11 -10.5q-68 6 -138.5 10t-141.5 5l1 -618q50 1 101 3.5t100.5 6t93.5 7.5q6 -3 9.5 -12t3.5 -18t-3.5 -16t-11.5 -7h-318q-15 0 -24 9.5t-9 25.5
l-2 547v22.5t-2 21.5l-298 -583q-3 -6 -4.5 -13.5t-1.5 -14.5q0 -5 1.5 -10.5t3.5 -8.5l-14 -4t-17 -2zM183 226v39h232v-39h-232zM445 346v39h269q2 -10 2 -20t-2 -19h-269z" />
    <glyph glyph-name="Ccedilla" unicode="&#xc7;" horiz-adv-x="588" 
d="M534 107q0 -21 -16.5 -42.5t-46.5 -39t-68.5 -28t-80.5 -10.5q-122 0 -190 92t-68 266q0 176 68.5 267t192.5 91q40 0 74.5 -7.5t60 -20.5t40 -30t14.5 -35q0 -14 -13 -24.5t-35 -7.5q-8 44 -45 68t-96 24q-94 0 -145 -82t-51 -243t50.5 -242.5t144.5 -81.5q37 0 70 13.5
t58 39.5t33 63q13 1 23.5 -1.5t18 -9t7.5 -19.5zM333 5l-10 -50q42 0 65.5 -19.5t23.5 -52.5q0 -37 -27 -59.5t-70 -22.5q-34 0 -53.5 9.5t-30.5 20.5q-1 7 3.5 15.5t8.5 11.5q7 -5 20.5 -13.5t40.5 -8.5q24 0 38.5 11.5t14.5 34.5q0 21 -15.5 35.5t-60.5 10.5l15 77h37z
" />
    <glyph glyph-name="Egrave" unicode="&#xc8;" horiz-adv-x="531" 
d="M136 0q-15 0 -24.5 9.5t-9.5 25.5l-1 547q0 30 -2.5 53t-7.5 40q9 10 19 13t28 3h307q8 0 10.5 -7t1 -16.5t-6 -18t-11.5 -10.5q-69 6 -137.5 10t-142.5 5l2 -618q49 1 100.5 3.5t100.5 6t93 7.5q7 -3 10 -12t3 -18t-3.5 -16t-11.5 -7h-317zM149 346v39h268q3 -10 3 -20
t-3 -19h-268zM130 814q5 10 12.5 19t16 16.5t16.5 10.5l134 -107q-1 -4 -5.5 -11.5t-9.5 -9.5z" />
    <glyph glyph-name="Eacute" unicode="&#xc9;" horiz-adv-x="531" 
d="M136 0q-15 0 -24.5 9.5t-9.5 25.5l-1 547q0 30 -2.5 53t-7.5 40q9 10 19 13t28 3h307q8 0 10.5 -7t1 -16.5t-6 -18t-11.5 -10.5q-69 6 -137.5 10t-142.5 5l2 -618q49 1 100.5 3.5t100.5 6t93 7.5q7 -3 10 -12t3 -18t-3.5 -16t-11.5 -7h-317zM149 346v39h268q3 -10 3 -20
t-3 -19h-268zM421 814l-164 -82q-4 2 -9 9.5t-6 11.5l133 107q9 -3 18 -10.5t16 -16.5t12 -19z" />
    <glyph glyph-name="Ecircumflex" unicode="&#xca;" horiz-adv-x="531" 
d="M136 0q-15 0 -24.5 9.5t-9.5 25.5l-1 547q0 30 -2.5 53t-7.5 40q9 10 19 13t28 3h307q8 0 10.5 -7t1 -16.5t-6 -18t-11.5 -10.5q-69 6 -137.5 10t-142.5 5l2 -618q49 1 100.5 3.5t100.5 6t93 7.5q7 -3 10 -12t3 -18t-3.5 -16t-11.5 -7h-317zM149 346v39h268q3 -10 3 -20
t-3 -19h-268zM298 856l121 -107q-1 -4 -7 -10.5t-11 -8.5l-125 78l-126 -78q-4 2 -10 8.5t-8 10.5l121 107q6 2 14.5 2.5t16.5 0t14 -2.5z" />
    <glyph glyph-name="Edieresis" unicode="&#xcb;" horiz-adv-x="531" 
d="M136 0q-15 0 -24.5 9.5t-9.5 25.5l-1 547q0 30 -2.5 53t-7.5 40q9 10 19 13t28 3h307q8 0 10.5 -7t1 -16.5t-6 -18t-11.5 -10.5q-69 6 -137.5 10t-142.5 5l2 -618q49 1 100.5 3.5t100.5 6t93 7.5q7 -3 10 -12t3 -18t-3.5 -16t-11.5 -7h-317zM149 346v39h268q3 -10 3 -20
t-3 -19h-268zM192 759q-18 0 -31 13t-13 30q0 19 13 31.5t31 12.5t31 -12.5t13 -31.5q0 -17 -13 -30t-31 -13zM366 759q-17 0 -30 13t-13 30q0 19 13 31.5t30 12.5q19 0 31.5 -12.5t12.5 -31.5q0 -17 -12.5 -30t-31.5 -13z" />
    <glyph glyph-name="Igrave" unicode="&#xcc;" horiz-adv-x="261" 
d="M136 -10q-15 0 -24.5 9.5t-9.5 25.5l-1 562q0 30 -2.5 55t-7.5 43q4 5 13 9.5t21 4.5q15 0 25.5 -9t10.5 -26v-561q0 -30 2 -55.5t8 -43.5q-5 -4 -13.5 -9t-21.5 -5zM-23 814q5 10 12.5 19t16 16.5t16.5 10.5l134 -107q-1 -4 -5.5 -11.5t-9.5 -9.5z" />
    <glyph glyph-name="Iacute" unicode="&#xcd;" horiz-adv-x="261" 
d="M136 -10q-15 0 -24.5 9.5t-9.5 25.5l-1 562q0 30 -2.5 55t-7.5 43q4 5 13 9.5t21 4.5q15 0 25.5 -9t10.5 -26v-561q0 -30 2 -55.5t8 -43.5q-5 -4 -13.5 -9t-21.5 -5zM269 814l-164 -82q-4 2 -9 9.5t-6 11.5l133 107q9 -3 18 -10.5t16 -16.5t12 -19z" />
    <glyph glyph-name="Icircumflex" unicode="&#xce;" horiz-adv-x="261" 
d="M136 -10q-15 0 -24.5 9.5t-9.5 25.5l-1 562q0 30 -2.5 55t-7.5 43q4 5 13 9.5t21 4.5q15 0 25.5 -9t10.5 -26v-561q0 -30 2 -55.5t8 -43.5q-5 -4 -13.5 -9t-21.5 -5zM145 856l121 -107q-1 -4 -7 -10.5t-11 -8.5l-125 78l-126 -78q-4 2 -10 8.5t-8 10.5l121 107
q6 2 14.5 2.5t16.5 0t14 -2.5z" />
    <glyph glyph-name="Idieresis" unicode="&#xcf;" horiz-adv-x="261" 
d="M136 -10q-15 0 -24.5 9.5t-9.5 25.5l-1 562q0 30 -2.5 55t-7.5 43q4 5 13 9.5t21 4.5q15 0 25.5 -9t10.5 -26v-561q0 -30 2 -55.5t8 -43.5q-5 -4 -13.5 -9t-21.5 -5zM40 759q-18 0 -31 13t-13 30q0 19 13 31.5t31 12.5t31 -12.5t13 -31.5q0 -17 -13 -30t-31 -13zM214 759
q-17 0 -30 13t-13 30q0 19 13 31.5t30 12.5q19 0 31.5 -12.5t12.5 -31.5q0 -17 -12.5 -30t-31.5 -13z" />
    <glyph glyph-name="Eth" unicode="&#xd0;" horiz-adv-x="629" 
d="M25 365h293q7 -16 0 -32h-293q-6 16 0 32zM135 0q-16 0 -25 9.5t-9 25.5l-2 552q0 30 -1.5 60.5t-6.5 48.5q26 3 63.5 4t74.5 1.5t64 0.5q133 0 206 -87t73 -267q0 -184 -72.5 -266t-204.5 -82h-160zM159 33h134q69 0 116.5 31.5t72.5 100t25 180.5q0 168 -55.5 246
t-158.5 78h-135z" />
    <glyph glyph-name="Ntilde" unicode="&#xd1;" horiz-adv-x="676" 
d="M121 -10q-9 0 -16 3t-13 8q6 18 8 45t2 57l-1 477q0 34 -1.5 63t-5.5 46q7 6 17.5 7.5t20 0t11.5 -4.5q31 -44 71.5 -105t85 -129l89 -136t83 -129t67.5 -106l-11 518q-1 33 2 56t11 32q6 3 13 3.5t15 -1.5q3 -8 6 -22.5t3 -28.5l1 -542q0 -34 0.5 -59t2.5 -42
q-3 -5 -11.5 -7t-17 -2t-14.5 2q-28 36 -62 84t-71 102.5t-74 111.5t-71.5 112t-65 103.5t-53.5 85.5l10 -565q1 -17 -8.5 -27.5t-22.5 -10.5zM475 823q-7 -32 -27.5 -52t-50.5 -20q-24 0 -44.5 10.5t-39 20.5t-39.5 10q-22 0 -35.5 -10t-20.5 -30q-5 -1 -11 2t-11 8
q8 40 30 57.5t51 17.5q26 0 45.5 -10t38.5 -20.5t42 -10.5q22 0 31.5 10t17.5 26q8 0 13 -2t10 -7z" />
    <glyph glyph-name="Ograve" unicode="&#xd2;" horiz-adv-x="646" 
d="M323 -13q-124 0 -191.5 88t-67.5 270q0 183 67.5 270.5t191.5 87.5t191.5 -87.5t67.5 -270.5q0 -182 -67.5 -270t-191.5 -88zM323 21q93 0 143.5 78t50.5 246q0 169 -50.5 247t-143.5 78t-143.5 -78t-50.5 -247q0 -168 50.5 -246t143.5 -78zM220 814q5 10 12.5 19
t16 16.5t16.5 10.5l134 -107q-1 -4 -5.5 -11.5t-9.5 -9.5z" />
    <glyph glyph-name="Oacute" unicode="&#xd3;" horiz-adv-x="646" 
d="M323 -13q-124 0 -191.5 88t-67.5 270q0 183 67.5 270.5t191.5 87.5t191.5 -87.5t67.5 -270.5q0 -182 -67.5 -270t-191.5 -88zM323 21q93 0 143.5 78t50.5 246q0 169 -50.5 247t-143.5 78t-143.5 -78t-50.5 -247q0 -168 50.5 -246t143.5 -78zM467 814l-164 -82
q-4 2 -9 9.5t-6 11.5l133 107q9 -3 18 -10.5t16 -16.5t12 -19z" />
    <glyph glyph-name="Ocircumflex" unicode="&#xd4;" horiz-adv-x="646" 
d="M323 -13q-124 0 -191.5 88t-67.5 270q0 183 67.5 270.5t191.5 87.5t191.5 -87.5t67.5 -270.5q0 -182 -67.5 -270t-191.5 -88zM323 21q93 0 143.5 78t50.5 246q0 169 -50.5 247t-143.5 78t-143.5 -78t-50.5 -247q0 -168 50.5 -246t143.5 -78zM344 856l121 -107
q-1 -4 -7 -10.5t-11 -8.5l-125 78l-126 -78q-4 2 -10 8.5t-8 10.5l121 107q6 2 14.5 2.5t16.5 0t14 -2.5z" />
    <glyph glyph-name="Otilde" unicode="&#xd5;" horiz-adv-x="646" 
d="M323 -13q-124 0 -191.5 88t-67.5 270q0 183 67.5 270.5t191.5 87.5t191.5 -87.5t67.5 -270.5q0 -182 -67.5 -270t-191.5 -88zM323 21q93 0 143.5 78t50.5 246q0 169 -50.5 247t-143.5 78t-143.5 -78t-50.5 -247q0 -168 50.5 -246t143.5 -78zM461 823q-7 -32 -27.5 -52
t-50.5 -20q-24 0 -44.5 10.5t-39 20.5t-39.5 10q-22 0 -35.5 -10t-20.5 -30q-5 -1 -11 2t-11 8q8 40 30 57.5t51 17.5q26 0 45.5 -10t38.5 -20.5t42 -10.5q22 0 31.5 10t17.5 26q8 0 13 -2t10 -7z" />
    <glyph glyph-name="Odieresis" unicode="&#xd6;" horiz-adv-x="646" 
d="M323 -13q-124 0 -191.5 88t-67.5 270q0 183 67.5 270.5t191.5 87.5t191.5 -87.5t67.5 -270.5q0 -182 -67.5 -270t-191.5 -88zM323 21q93 0 143.5 78t50.5 246q0 169 -50.5 247t-143.5 78t-143.5 -78t-50.5 -247q0 -168 50.5 -246t143.5 -78zM238 759q-18 0 -31 13t-13 30
q0 19 13 31.5t31 12.5t31 -12.5t13 -31.5q0 -17 -13 -30t-31 -13zM412 759q-17 0 -30 13t-13 30q0 19 13 31.5t30 12.5q19 0 31.5 -12.5t12.5 -31.5q0 -17 -12.5 -30t-31.5 -13z" />
    <glyph glyph-name="multiply" unicode="&#xd7;" horiz-adv-x="491" 
d="M107 519l306 -307q-8 -20 -29 -29l-306 307q9 20 29 29zM413 491l-307 -308q-20 10 -28 29l306 308q21 -9 29 -29z" />
    <glyph glyph-name="Oslash" unicode="&#xd8;" horiz-adv-x="630" 
d="M86 2l415 707q19 0 27 -16l-414 -707q-19 0 -28 16zM323 -13q-124 0 -191.5 88t-67.5 270q0 183 67.5 270.5t191.5 87.5t191.5 -87.5t67.5 -270.5q0 -182 -67.5 -270t-191.5 -88zM323 21q93 0 143.5 78t50.5 246q0 169 -50.5 247t-143.5 78t-143.5 -78t-50.5 -247
q0 -168 50.5 -246t143.5 -78z" />
    <glyph glyph-name="Ugrave" unicode="&#xd9;" horiz-adv-x="651" 
d="M562 664v-359q0 -157 -60 -237.5t-177 -80.5q-116 0 -173 77t-57 241v282q0 30 -2 55t-7 43q4 5 12.5 9.5t21.5 4.5q15 0 24.5 -9t9.5 -26v-361q0 -146 41.5 -214t129.5 -68q90 0 134.5 71.5t44.5 210.5v284q0 30 -2 55t-8 43q5 5 13 9.5t21 4.5q15 0 24.5 -9t9.5 -26z
M179 814q5 10 12.5 19t16 16.5t16.5 10.5l134 -107q-1 -4 -5.5 -11.5t-9.5 -9.5z" />
    <glyph glyph-name="Uacute" unicode="&#xda;" horiz-adv-x="651" 
d="M562 664v-359q0 -157 -60 -237.5t-177 -80.5q-116 0 -173 77t-57 241v282q0 30 -2 55t-7 43q4 5 12.5 9.5t21.5 4.5q15 0 24.5 -9t9.5 -26v-361q0 -146 41.5 -214t129.5 -68q90 0 134.5 71.5t44.5 210.5v284q0 30 -2 55t-8 43q5 5 13 9.5t21 4.5q15 0 24.5 -9t9.5 -26z
M470 814l-164 -82q-4 2 -9 9.5t-6 11.5l133 107q9 -3 18 -10.5t16 -16.5t12 -19z" />
    <glyph glyph-name="Ucircumflex" unicode="&#xdb;" horiz-adv-x="651" 
d="M562 664v-359q0 -157 -60 -237.5t-177 -80.5q-116 0 -173 77t-57 241v282q0 30 -2 55t-7 43q4 5 12.5 9.5t21.5 4.5q15 0 24.5 -9t9.5 -26v-361q0 -146 41.5 -214t129.5 -68q90 0 134.5 71.5t44.5 210.5v284q0 30 -2 55t-8 43q5 5 13 9.5t21 4.5q15 0 24.5 -9t9.5 -26z
M346 856l121 -107q-1 -4 -7 -10.5t-11 -8.5l-125 78l-126 -78q-4 2 -10 8.5t-8 10.5l121 107q6 2 14.5 2.5t16.5 0t14 -2.5z" />
    <glyph glyph-name="Udieresis" unicode="&#xdc;" horiz-adv-x="651" 
d="M562 664v-359q0 -157 -60 -237.5t-177 -80.5q-116 0 -173 77t-57 241v282q0 30 -2 55t-7 43q4 5 12.5 9.5t21.5 4.5q15 0 24.5 -9t9.5 -26v-361q0 -146 41.5 -214t129.5 -68q90 0 134.5 71.5t44.5 210.5v284q0 30 -2 55t-8 43q5 5 13 9.5t21 4.5q15 0 24.5 -9t9.5 -26z
M241 759q-18 0 -31 13t-13 30q0 19 13 31.5t31 12.5t31 -12.5t13 -31.5q0 -17 -13 -30t-31 -13zM415 759q-17 0 -30 13t-13 30q0 19 13 31.5t30 12.5q19 0 31.5 -12.5t12.5 -31.5q0 -17 -12.5 -30t-31.5 -13z" />
    <glyph glyph-name="Yacute" unicode="&#xdd;" horiz-adv-x="536" 
d="M268 228q-10 1 -16 4.5t-10.5 10t-7.5 11.5l-189 389q-5 10 -13.5 21t-15.5 19q6 6 17 12.5t26 6.5q17 0 25.5 -8.5t15.5 -22.5l188 -403l-26 -9l183 385q10 21 10 32q0 6 -1 11.5t-4 9.5q7 3 14 4t18 1q15 0 23 -9t9 -23q0 -7 -4 -17.5t-11 -21.5l-203 -392zM298 265
l1 -162q0 -30 2 -55.5t8 -43.5q-5 -4 -13.5 -9t-21.5 -5q-15 0 -24.5 9.5t-9.5 25.5v234zM428 814l-164 -82q-4 2 -9 9.5t-6 11.5l133 107q9 -3 18 -10.5t16 -16.5t12 -19z" />
    <glyph glyph-name="Thorn" unicode="&#xde;" horiz-adv-x="548" 
d="M190 149h-23.5t-21.5 1l-7 32q10 -1 21.5 -1.5t36.5 -0.5q81 0 133 20.5t77 62t25 104.5q0 60 -23 98.5t-71.5 57t-126.5 18.5q-7 0 -21.5 0.5t-28 0t-19.5 -1.5l1 32h20.5t29 0.5t23.5 0.5q146 0 213 -49.5t67 -152.5q0 -113 -76 -167.5t-229 -54.5zM136 -10
q-15 0 -24.5 9.5t-9.5 25.5l-1 562q0 30 -2.5 55t-7.5 43q4 5 13 9.5t21 4.5q15 0 24.5 -9t9.5 -26l2 -561q0 -30 2 -55.5t8 -43.5q-5 -4 -13.5 -9t-21.5 -5z" />
    <glyph glyph-name="germandbls" unicode="&#xdf;" horiz-adv-x="597" 
d="M119 -9q-15 0 -22.5 9.5t-7.5 27.5l-1 413q0 153 56.5 220.5t162.5 67.5q79 0 122.5 -35t43.5 -103q0 -41 -13.5 -68t-33.5 -46t-40.5 -34t-34 -30.5t-13.5 -38.5q0 -33 29.5 -54.5t71.5 -45.5q30 -16 56.5 -35.5t44 -46t17.5 -66.5q0 -33 -16 -64.5t-53 -52.5t-102 -21
q-55 0 -89 16.5t-49.5 44.5t-15.5 62q0 9 2 18.5t8 17.5t20 10q6 1 10 0.5t8 -1.5q-2 -7 -3.5 -18t-1.5 -22q0 -33 14.5 -53t39 -29.5t52.5 -9.5q50 0 82 24t32 69q0 32 -15.5 52.5t-38.5 35t-47 26.5q-38 21 -64 40t-38.5 40.5t-12.5 49.5q0 32 15 54.5t37 40t44.5 35
t37 41t14.5 59.5q0 35 -15.5 58t-43 35.5t-64.5 12.5q-50 0 -81 -20t-48 -55t-23 -81.5t-6 -99.5v-190t0.5 -119.5t1.5 -68.5t3 -35.5t5 -22.5q-3 -3 -13 -8.5t-24 -5.5z" />
    <glyph glyph-name="agrave" unicode="&#xe0;" horiz-adv-x="543" 
d="M471 -10q-39 0 -58.5 27t-19.5 80v107l16 -10q-19 -62 -55.5 -108.5t-83.5 -71.5t-99 -25q-59 0 -90.5 32t-31.5 83q0 39 19.5 70t56 53.5t86.5 36.5q43 11 90.5 14.5t88.5 0.5v26q0 89 -33 134.5t-110 45.5q-26 0 -53.5 -7.5t-45.5 -25t-18 -51.5q0 -19 11 -41t35 -29
q-8 -11 -19 -14.5t-20 -3.5q-30 0 -48 27t-18 58q0 59 50 89t133 30q101 0 148.5 -53.5t47.5 -161.5v-211q0 -53 37 -53q9 0 19 6t16 17q5 -7 7.5 -14t2.5 -13q0 -19 -18 -31.5t-43 -12.5zM195 32q33 1 67 19.5t63 49.5t47.5 70t18.5 81q-24 2 -55.5 0t-61.5 -7t-53 -13
q-51 -17 -79.5 -46t-28.5 -72q0 -31 18.5 -57t63.5 -25zM123 696q7 5 17.5 8.5t23.5 6t24 1.5l91 -145q-2 -4 -13 -5.5t-18 -0.5z" />
    <glyph glyph-name="aacute" unicode="&#xe1;" horiz-adv-x="543" 
d="M471 -10q-39 0 -58.5 27t-19.5 80v107l16 -10q-19 -62 -55.5 -108.5t-83.5 -71.5t-99 -25q-59 0 -90.5 32t-31.5 83q0 39 19.5 70t56 53.5t86.5 36.5q43 11 90.5 14.5t88.5 0.5v26q0 89 -33 134.5t-110 45.5q-26 0 -53.5 -7.5t-45.5 -25t-18 -51.5q0 -19 11 -41t35 -29
q-8 -11 -19 -14.5t-20 -3.5q-30 0 -48 27t-18 58q0 59 50 89t133 30q101 0 148.5 -53.5t47.5 -161.5v-211q0 -53 37 -53q9 0 19 6t16 17q5 -7 7.5 -14t2.5 -13q0 -19 -18 -31.5t-43 -12.5zM195 32q33 1 67 19.5t63 49.5t47.5 70t18.5 81q-24 2 -55.5 0t-61.5 -7t-53 -13
q-51 -17 -79.5 -46t-28.5 -72q0 -31 18.5 -57t63.5 -25zM387 696l-125 -135q-7 -1 -17.5 0.5t-13.5 5.5l91 145q11 1 23.5 -1.5t23.5 -6t18 -8.5z" />
    <glyph glyph-name="acircumflex" unicode="&#xe2;" horiz-adv-x="543" 
d="M471 -10q-39 0 -58.5 27t-19.5 80v107l16 -10q-19 -62 -55.5 -108.5t-83.5 -71.5t-99 -25q-59 0 -90.5 32t-31.5 83q0 39 19.5 70t56 53.5t86.5 36.5q43 11 90.5 14.5t88.5 0.5v26q0 89 -33 134.5t-110 45.5q-26 0 -53.5 -7.5t-45.5 -25t-18 -51.5q0 -19 11 -41t35 -29
q-8 -11 -19 -14.5t-20 -3.5q-30 0 -48 27t-18 58q0 59 50 89t133 30q101 0 148.5 -53.5t47.5 -161.5v-211q0 -53 37 -53q9 0 19 6t16 17q5 -7 7.5 -14t2.5 -13q0 -19 -18 -31.5t-43 -12.5zM195 32q33 1 67 19.5t63 49.5t47.5 70t18.5 81q-24 2 -55.5 0t-61.5 -7t-53 -13
q-51 -17 -79.5 -46t-28.5 -72q0 -31 18.5 -57t63.5 -25zM149 559q-6 0 -16.5 3t-12.5 7l115 129q6 2 14.5 2.5t16.5 0t14 -2.5l115 -129q-3 -4 -13 -7t-15 -3l-109 90z" />
    <glyph glyph-name="atilde" unicode="&#xe3;" horiz-adv-x="543" 
d="M471 -10q-39 0 -58.5 27t-19.5 80v107l16 -10q-19 -62 -55.5 -108.5t-83.5 -71.5t-99 -25q-59 0 -90.5 32t-31.5 83q0 39 19.5 70t56 53.5t86.5 36.5q43 11 90.5 14.5t88.5 0.5v26q0 89 -33 134.5t-110 45.5q-26 0 -53.5 -7.5t-45.5 -25t-18 -51.5q0 -19 11 -41t35 -29
q-8 -11 -19 -14.5t-20 -3.5q-30 0 -48 27t-18 58q0 59 50 89t133 30q101 0 148.5 -53.5t47.5 -161.5v-211q0 -53 37 -53q9 0 19 6t16 17q5 -7 7.5 -14t2.5 -13q0 -19 -18 -31.5t-43 -12.5zM195 32q33 1 67 19.5t63 49.5t47.5 70t18.5 81q-24 2 -55.5 0t-61.5 -7t-53 -13
q-51 -17 -79.5 -46t-28.5 -72q0 -31 18.5 -57t63.5 -25zM397 660q-6 -33 -26 -55.5t-52 -22.5q-26 0 -44.5 12t-35.5 24.5t-41 12.5q-21 0 -37 -12t-22 -32q-5 -1 -11 2t-10 7q7 41 31.5 59t52.5 18q27 0 45.5 -12.5t36.5 -24.5t41 -12q22 0 32.5 13t17.5 32q8 0 13 -2t9 -7
z" />
    <glyph glyph-name="adieresis" unicode="&#xe4;" horiz-adv-x="543" 
d="M471 -10q-39 0 -58.5 27t-19.5 80v107l16 -10q-19 -62 -55.5 -108.5t-83.5 -71.5t-99 -25q-59 0 -90.5 32t-31.5 83q0 39 19.5 70t56 53.5t86.5 36.5q43 11 90.5 14.5t88.5 0.5v26q0 89 -33 134.5t-110 45.5q-26 0 -53.5 -7.5t-45.5 -25t-18 -51.5q0 -19 11 -41t35 -29
q-8 -11 -19 -14.5t-20 -3.5q-30 0 -48 27t-18 58q0 59 50 89t133 30q101 0 148.5 -53.5t47.5 -161.5v-211q0 -53 37 -53q9 0 19 6t16 17q5 -7 7.5 -14t2.5 -13q0 -19 -18 -31.5t-43 -12.5zM195 32q33 1 67 19.5t63 49.5t47.5 70t18.5 81q-24 2 -55.5 0t-61.5 -7t-53 -13
q-51 -17 -79.5 -46t-28.5 -72q0 -31 18.5 -57t63.5 -25zM177 586q-16 0 -29 13t-13 29q0 17 13 29.5t29 12.5q17 0 29.5 -12.5t12.5 -29.5q0 -16 -12.5 -29t-29.5 -13zM345 586q-16 0 -28.5 13t-12.5 29q0 17 12.5 29.5t28.5 12.5q17 0 29.5 -12.5t12.5 -29.5
q0 -16 -12.5 -29t-29.5 -13z" />
    <glyph glyph-name="aring" unicode="&#xe5;" horiz-adv-x="543" 
d="M471 -10q-39 0 -58.5 27t-19.5 80v107l16 -10q-19 -62 -55.5 -108.5t-83.5 -71.5t-99 -25q-59 0 -90.5 32t-31.5 83q0 39 19.5 70t56 53.5t86.5 36.5q43 11 90.5 14.5t88.5 0.5v26q0 89 -33 134.5t-110 45.5q-26 0 -53.5 -7.5t-45.5 -25t-18 -51.5q0 -19 11 -41t35 -29
q-8 -11 -19 -14.5t-20 -3.5q-30 0 -48 27t-18 58q0 59 50 89t133 30q101 0 148.5 -53.5t47.5 -161.5v-211q0 -53 37 -53q9 0 19 6t16 17q5 -7 7.5 -14t2.5 -13q0 -19 -18 -31.5t-43 -12.5zM195 32q33 1 67 19.5t63 49.5t47.5 70t18.5 81q-24 2 -55.5 0t-61.5 -7t-53 -13
q-51 -17 -79.5 -46t-28.5 -72q0 -31 18.5 -57t63.5 -25zM263 715q38 0 61.5 -21.5t23.5 -57.5q-1 -38 -25 -60.5t-64 -22.5q-38 0 -61.5 22t-23.5 57q0 38 25 60.5t64 22.5zM261 689q-23 0 -37 -14.5t-14 -40.5q0 -25 14 -40t37 -15q24 0 37.5 15t13.5 40q0 26 -13.5 40.5
t-37.5 14.5z" />
    <glyph glyph-name="ae" unicode="&#xe6;" horiz-adv-x="849" 
d="M171 -11q-59 0 -90.5 32t-31.5 83q0 39 19.5 70t56 53.5t86.5 36.5q43 11 91 14.5t89 0.5v26q0 89 -33 134.5t-109 45.5q-27 0 -55 -7.5t-46 -25t-18 -51.5q0 -19 11 -41t35 -29q-8 -11 -19 -14.5t-20 -3.5q-30 0 -48 27t-18 58q0 59 50 89t134 30q74 0 117.5 -31.5
t60.5 -93.5l-9 1q25 60 75.5 92t124.5 32q52 0 90.5 -16t61 -47.5t22.5 -77.5q0 -75 -61 -113t-171 -38q-32 0 -59 2t-52 6q4 -77 28.5 -121t63.5 -62t83 -18q53 0 96 22.5t57 68.5q9 -4 13.5 -14t-5.5 -33q-19 -44 -66 -66.5t-107 -22.5q-89 0 -146 48t-74 140l7 -1
q-22 -57 -58 -98.5t-81.5 -64t-94.5 -22.5zM195 32q32 1 65.5 18.5t62 46.5t47.5 66.5t22 78.5v13.5v10.5l10 -15q-25 3 -58.5 1.5t-66 -6.5t-56.5 -14q-51 -17 -79.5 -46t-28.5 -72q0 -31 18.5 -57t63.5 -25zM553 256q41 0 74.5 7t57.5 21.5t37 39t13 58.5q0 41 -17 63
t-43 31t-54 9q-73 0 -118.5 -55t-47.5 -166q22 -3 49.5 -5.5t48.5 -2.5z" />
    <glyph glyph-name="ccedilla" unicode="&#xe7;" horiz-adv-x="503" 
d="M271 -13q-104 0 -163.5 66t-59.5 195q0 125 61 197t172 72q78 0 121 -34.5t43 -91.5q0 -33 -15.5 -53t-40.5 -20q-11 0 -21 3.5t-18 14.5q19 4 27 20t8 39q0 31 -15.5 51.5t-40.5 30t-55 9.5q-71 0 -117 -57.5t-46 -172.5q0 -84 24.5 -133.5t64 -70t85.5 -20.5
q36 0 67 11.5t53.5 36t31.5 62.5q9 -4 13.5 -14t-4.5 -34q-17 -53 -64 -80t-111 -27zM289 5l-10 -50q42 0 65.5 -19.5t23.5 -52.5q0 -37 -27 -59.5t-70 -22.5q-34 0 -53.5 9.5t-30.5 20.5q-1 7 3.5 15.5t8.5 11.5q7 -5 20.5 -13.5t40.5 -8.5q24 0 38.5 11.5t14.5 34.5
q0 21 -15.5 35.5t-60.5 10.5l15 77h37z" />
    <glyph glyph-name="egrave" unicode="&#xe8;" horiz-adv-x="505" 
d="M274 -13q-105 0 -165.5 66t-60.5 195q0 124 59.5 196.5t172.5 72.5q52 0 91 -16t61 -47.5t22 -77.5q0 -75 -61 -113t-170 -38q-43 0 -78 3.5t-70 10.5l1 29q27 -5 64 -8t70 -4q40 0 73.5 7t57.5 21.5t37 39t13 58.5q0 41 -17 63t-43 31t-54 9q-74 0 -120 -57t-46 -173
q0 -85 24 -133.5t64 -69t87 -20.5q53 0 96 22.5t57 68.5q9 -4 13.5 -14t-5.5 -33q-19 -44 -66 -66.5t-107 -22.5zM133 696q7 5 18 8.5t24 6t24 1.5l90 -145q-2 -4 -13 -5.5t-18 -0.5z" />
    <glyph glyph-name="eacute" unicode="&#xe9;" horiz-adv-x="505" 
d="M274 -13q-105 0 -165.5 66t-60.5 195q0 124 59.5 196.5t172.5 72.5q52 0 91 -16t61 -47.5t22 -77.5q0 -75 -61 -113t-170 -38q-43 0 -78 3.5t-70 10.5l1 29q27 -5 64 -8t70 -4q40 0 73.5 7t57.5 21.5t37 39t13 58.5q0 41 -17 63t-43 31t-54 9q-74 0 -120 -57t-46 -173
q0 -85 24 -133.5t64 -69t87 -20.5q53 0 96 22.5t57 68.5q9 -4 13.5 -14t-5.5 -33q-19 -44 -66 -66.5t-107 -22.5zM398 696l-125 -135q-7 -1 -17.5 0.5t-13.5 5.5l91 145q11 1 23.5 -1.5t23.5 -6t18 -8.5z" />
    <glyph glyph-name="ecircumflex" unicode="&#xea;" horiz-adv-x="505" 
d="M274 -13q-105 0 -165.5 66t-60.5 195q0 124 59.5 196.5t172.5 72.5q52 0 91 -16t61 -47.5t22 -77.5q0 -75 -61 -113t-170 -38q-43 0 -78 3.5t-70 10.5l1 29q27 -5 64 -8t70 -4q40 0 73.5 7t57.5 21.5t37 39t13 58.5q0 41 -17 63t-43 31t-54 9q-74 0 -120 -57t-46 -173
q0 -85 24 -133.5t64 -69t87 -20.5q53 0 96 22.5t57 68.5q9 -4 13.5 -14t-5.5 -33q-19 -44 -66 -66.5t-107 -22.5zM159 559q-6 0 -16.5 3t-12.5 7l115 129q6 2 14.5 2.5t16.5 0t14 -2.5l115 -129q-3 -4 -13 -7t-15 -3l-109 90z" />
    <glyph glyph-name="edieresis" unicode="&#xeb;" horiz-adv-x="505" 
d="M274 -13q-105 0 -165.5 66t-60.5 195q0 124 59.5 196.5t172.5 72.5q52 0 91 -16t61 -47.5t22 -77.5q0 -75 -61 -113t-170 -38q-43 0 -78 3.5t-70 10.5l1 29q27 -5 64 -8t70 -4q40 0 73.5 7t57.5 21.5t37 39t13 58.5q0 41 -17 63t-43 31t-54 9q-74 0 -120 -57t-46 -173
q0 -85 24 -133.5t64 -69t87 -20.5q53 0 96 22.5t57 68.5q9 -4 13.5 -14t-5.5 -33q-19 -44 -66 -66.5t-107 -22.5zM187 586q-16 0 -29 13t-13 29q0 17 13 29.5t29 12.5q17 0 29.5 -12.5t12.5 -29.5q0 -16 -12.5 -29t-29.5 -13zM355 586q-16 0 -28.5 13t-12.5 29
q0 17 12.5 29.5t28.5 12.5q17 0 29.5 -12.5t12.5 -29.5q0 -16 -12.5 -29t-29.5 -13z" />
    <glyph glyph-name="igrave" unicode="&#xec;" horiz-adv-x="237" 
d="M146 103q0 -30 2 -55.5t8 -43.5q-5 -4 -13.5 -9t-21.5 -5q-14 0 -23.5 9.5t-9.5 25.5l-1 380q0 29 -2 55t-8 43q5 5 13 9.5t21 4.5q15 0 24 -9t9 -26zM-24 696q7 5 17.5 8.5t23.5 6t24 1.5l91 -145q-3 -4 -14 -5.5t-18 -0.5z" />
    <glyph glyph-name="iacute" unicode="&#xed;" horiz-adv-x="237" 
d="M146 103q0 -30 2 -55.5t8 -43.5q-5 -4 -13.5 -9t-21.5 -5q-14 0 -23.5 9.5t-9.5 25.5l-1 380q0 29 -2 55t-8 43q5 5 13 9.5t21 4.5q15 0 24 -9t9 -26zM240 696l-125 -135q-7 -1 -17.5 0.5t-13.5 5.5l91 145q11 1 23.5 -1.5t23.5 -6t18 -8.5z" />
    <glyph glyph-name="icircumflex" unicode="&#xee;" horiz-adv-x="237" 
d="M146 103q0 -30 2 -55.5t8 -43.5q-5 -4 -13.5 -9t-21.5 -5q-14 0 -23.5 9.5t-9.5 25.5l-1 380q0 29 -2 55t-8 43q5 5 13 9.5t21 4.5q15 0 24 -9t9 -26zM1 559q-6 0 -16.5 3t-12.5 7l115 129q6 2 14.5 2.5t16.5 0t14 -2.5l115 -129q-3 -4 -13 -7t-15 -3l-109 90z" />
    <glyph glyph-name="idieresis" unicode="&#xef;" horiz-adv-x="237" 
d="M146 103q0 -30 2 -55.5t8 -43.5q-5 -4 -13.5 -9t-21.5 -5q-14 0 -23.5 9.5t-9.5 25.5l-1 380q0 29 -2 55t-8 43q5 5 13 9.5t21 4.5q15 0 24 -9t9 -26zM30 586q-16 0 -29 13t-13 29q0 17 13 29.5t29 12.5q17 0 29.5 -12.5t12.5 -29.5q0 -16 -12.5 -29t-29.5 -13zM198 586
q-16 0 -28.5 13t-12.5 29q0 17 12.5 29.5t28.5 12.5q17 0 29.5 -12.5t12.5 -29.5q0 -16 -12.5 -29t-29.5 -13z" />
    <glyph glyph-name="eth" unicode="&#xf0;" horiz-adv-x="511" 
d="M248 -13q-65 0 -104.5 24.5t-60 62.5t-28 81t-7.5 81q0 75 24 133.5t70 92.5t113 34q41 0 74.5 -12.5t55 -37t26.5 -60.5l-14 -10q-3 66 -24.5 122.5t-55 98.5t-73 65t-76.5 23q-8 0 -15 -0.5t-9 -0.5q-1 11 3 21t13.5 17.5t22.5 7.5q67 0 119.5 -35.5t88 -96.5t54 -141
t18.5 -170q0 -84 -21 -152.5t-68 -108t-126 -39.5zM249 28q54 0 86.5 31t48 85.5t15.5 124.5q0 33 -6 67t-21 61t-41 44t-67 17q-48 0 -82.5 -26.5t-52.5 -74t-18 -111.5q0 -39 6 -77.5t20.5 -70.5t41.5 -51t70 -19zM215 583l210 116q15 -7 16 -28l-211 -116q-15 10 -15 28z
" />
    <glyph glyph-name="ntilde" unicode="&#xf1;" horiz-adv-x="569" 
d="M132 -10q-16 0 -25.5 10t-9.5 27v390q-1 28 -7.5 39.5t-21.5 11.5q-6 0 -14 -3t-13 -14q-11 14 -11 28q0 16 14 26.5t38 10.5q35 0 52 -23.5t17 -69.5v-84l-14 -14q5 60 31 103t67 66t90 23q83 0 122 -53.5t39 -157.5v-203q1 -28 3 -54.5t8 -44.5q-6 -5 -14 -9.5
t-21 -4.5q-15 0 -25 9.5t-10 25.5v276q-1 88 -27 132.5t-90 44.5q-24 0 -51 -11.5t-50.5 -38.5t-38.5 -72.5t-15 -111.5q0 -65 0.5 -106t1 -66.5t3 -40.5t6.5 -27q-5 -4 -13.5 -9t-20.5 -5zM429 660q-6 -33 -26 -55.5t-52 -22.5q-26 0 -44.5 12t-35.5 24.5t-41 12.5
q-21 0 -37 -12t-22 -32q-5 -1 -11 2t-10 7q7 41 31.5 59t52.5 18q27 0 45.5 -12.5t36.5 -24.5t41 -12q22 0 32.5 13t17.5 32q8 0 13 -2t9 -7z" />
    <glyph glyph-name="ograve" unicode="&#xf2;" horiz-adv-x="542" 
d="M271 -13q-106 0 -164.5 70t-58.5 195t58.5 195t164.5 70q105 0 164 -70t59 -195t-59 -195t-164 -70zM271 20q76 0 117.5 61t41.5 171q0 111 -41.5 171.5t-117.5 60.5t-118 -60.5t-42 -171.5q0 -110 42 -171t118 -61zM135 696q7 5 17.5 8.5t23.5 6t24 1.5l91 -145
q-2 -4 -13 -5.5t-18 -0.5z" />
    <glyph glyph-name="oacute" unicode="&#xf3;" horiz-adv-x="542" 
d="M271 -13q-106 0 -164.5 70t-58.5 195t58.5 195t164.5 70q105 0 164 -70t59 -195t-59 -195t-164 -70zM271 20q76 0 117.5 61t41.5 171q0 111 -41.5 171.5t-117.5 60.5t-118 -60.5t-42 -171.5q0 -110 42 -171t118 -61zM399 696l-125 -135q-7 -1 -17.5 0.5t-13.5 5.5l91 145
q11 1 23.5 -1.5t23.5 -6t18 -8.5z" />
    <glyph glyph-name="ocircumflex" unicode="&#xf4;" horiz-adv-x="542" 
d="M271 -13q-106 0 -164.5 70t-58.5 195t58.5 195t164.5 70q105 0 164 -70t59 -195t-59 -195t-164 -70zM271 20q76 0 117.5 61t41.5 171q0 111 -41.5 171.5t-117.5 60.5t-118 -60.5t-42 -171.5q0 -110 42 -171t118 -61zM161 559q-6 0 -16.5 3t-12.5 7l115 129q6 2 14.5 2.5
t16.5 0t14 -2.5l115 -129q-3 -4 -13 -7t-15 -3l-109 90z" />
    <glyph glyph-name="otilde" unicode="&#xf5;" horiz-adv-x="542" 
d="M271 -13q-106 0 -164.5 70t-58.5 195t58.5 195t164.5 70q105 0 164 -70t59 -195t-59 -195t-164 -70zM271 20q76 0 117.5 61t41.5 171q0 111 -41.5 171.5t-117.5 60.5t-118 -60.5t-42 -171.5q0 -110 42 -171t118 -61zM409 660q-6 -33 -26 -55.5t-52 -22.5q-26 0 -44.5 12
t-35.5 24.5t-41 12.5q-21 0 -37 -12t-22 -32q-5 -1 -11 2t-10 7q7 41 31.5 59t52.5 18q27 0 45.5 -12.5t36.5 -24.5t41 -12q22 0 32.5 13t17.5 32q8 0 13 -2t9 -7z" />
    <glyph glyph-name="odieresis" unicode="&#xf6;" horiz-adv-x="542" 
d="M271 -13q-106 0 -164.5 70t-58.5 195t58.5 195t164.5 70q105 0 164 -70t59 -195t-59 -195t-164 -70zM271 20q76 0 117.5 61t41.5 171q0 111 -41.5 171.5t-117.5 60.5t-118 -60.5t-42 -171.5q0 -110 42 -171t118 -61zM189 586q-16 0 -29 13t-13 29q0 17 13 29.5t29 12.5
q17 0 29.5 -12.5t12.5 -29.5q0 -16 -12.5 -29t-29.5 -13zM357 586q-16 0 -28.5 13t-12.5 29q0 17 12.5 29.5t28.5 12.5q17 0 29.5 -12.5t12.5 -29.5q0 -16 -12.5 -29t-29.5 -13z" />
    <glyph glyph-name="divide" unicode="&#xf7;" horiz-adv-x="553" 
d="M80 372h393q8 -21 0 -42h-393q-8 21 0 42zM277 474q-16 0 -27.5 11.5t-11.5 27.5t11.5 27.5t27.5 11.5t27.5 -11.5t11.5 -27.5t-11.5 -27.5t-27.5 -11.5zM277 151q-16 0 -27.5 11.5t-11.5 26.5q0 17 11.5 28t27.5 11t27.5 -11t11.5 -28q0 -15 -11.5 -26.5t-27.5 -11.5z
" />
    <glyph glyph-name="oslash" unicode="&#xf8;" horiz-adv-x="542" 
d="M442 500l-22 -36q35 -34 54.5 -87.5t19.5 -124.5q0 -125 -59 -195t-164 -70q-71 0 -122 33l-20 -33q-19 1 -27 15l22 37q-76 69 -76 213q0 125 58.5 195t164.5 70q72 0 123 -34l20 33q19 0 28 -16zM111 252q0 -53 11.5 -93.5t32.5 -69.5l214 354q-19 20 -43.5 30.5
t-54.5 10.5q-76 0 -118 -60.5t-42 -171.5zM271 20q76 0 117.5 61t41.5 171q0 51 -11 91.5t-32 67.5l-213 -352q38 -39 97 -39z" />
    <glyph glyph-name="ugrave" unicode="&#xf9;" horiz-adv-x="560" 
d="M429 517q15 0 24.5 -9.5t9.5 -27.5l1 -390q0 -28 6.5 -39t22.5 -11q5 0 13 2.5t13 13.5q11 -14 11 -28q0 -16 -13.5 -26t-37.5 -10q-36 0 -53 23t-17 69v85l14 14q-5 -61 -30.5 -104.5t-65 -67.5t-88.5 -24q-79 0 -117 48t-39 166v203q0 28 -2.5 54.5t-7.5 44.5
q6 5 14 9.5t20 4.5q15 0 24.5 -9t9.5 -26l1 -275q0 -68 11 -108t35.5 -57t65.5 -17q24 0 50 12t49 40t37.5 73.5t14.5 113.5v106t-1 66t-3.5 40t-5.5 27q4 5 12.5 9.5t21.5 4.5zM131 696q7 5 18 8.5t24 6t24 1.5l90 -145q-2 -4 -13 -5.5t-18 -0.5z" />
    <glyph glyph-name="uacute" unicode="&#xfa;" horiz-adv-x="560" 
d="M429 517q15 0 24.5 -9.5t9.5 -27.5l1 -390q0 -28 6.5 -39t22.5 -11q5 0 13 2.5t13 13.5q11 -14 11 -28q0 -16 -13.5 -26t-37.5 -10q-36 0 -53 23t-17 69v85l14 14q-5 -61 -30.5 -104.5t-65 -67.5t-88.5 -24q-79 0 -117 48t-39 166v203q0 28 -2.5 54.5t-7.5 44.5
q6 5 14 9.5t20 4.5q15 0 24.5 -9t9.5 -26l1 -275q0 -68 11 -108t35.5 -57t65.5 -17q24 0 50 12t49 40t37.5 73.5t14.5 113.5v106t-1 66t-3.5 40t-5.5 27q4 5 12.5 9.5t21.5 4.5zM396 696l-125 -135q-7 -1 -17.5 0.5t-13.5 5.5l91 145q11 1 23.5 -1.5t23.5 -6t18 -8.5z" />
    <glyph glyph-name="ucircumflex" unicode="&#xfb;" horiz-adv-x="560" 
d="M429 517q15 0 24.5 -9.5t9.5 -27.5l1 -390q0 -28 6.5 -39t22.5 -11q5 0 13 2.5t13 13.5q11 -14 11 -28q0 -16 -13.5 -26t-37.5 -10q-36 0 -53 23t-17 69v85l14 14q-5 -61 -30.5 -104.5t-65 -67.5t-88.5 -24q-79 0 -117 48t-39 166v203q0 28 -2.5 54.5t-7.5 44.5
q6 5 14 9.5t20 4.5q15 0 24.5 -9t9.5 -26l1 -275q0 -68 11 -108t35.5 -57t65.5 -17q24 0 50 12t49 40t37.5 73.5t14.5 113.5v106t-1 66t-3.5 40t-5.5 27q4 5 12.5 9.5t21.5 4.5zM157 559q-6 0 -16.5 3t-12.5 7l115 129q6 2 14.5 2.5t16.5 0t14 -2.5l115 -129q-3 -4 -13 -7
t-15 -3l-109 90z" />
    <glyph glyph-name="udieresis" unicode="&#xfc;" horiz-adv-x="560" 
d="M429 517q15 0 24.5 -9.5t9.5 -27.5l1 -390q0 -28 6.5 -39t22.5 -11q5 0 13 2.5t13 13.5q11 -14 11 -28q0 -16 -13.5 -26t-37.5 -10q-36 0 -53 23t-17 69v85l14 14q-5 -61 -30.5 -104.5t-65 -67.5t-88.5 -24q-79 0 -117 48t-39 166v203q0 28 -2.5 54.5t-7.5 44.5
q6 5 14 9.5t20 4.5q15 0 24.5 -9t9.5 -26l1 -275q0 -68 11 -108t35.5 -57t65.5 -17q24 0 50 12t49 40t37.5 73.5t14.5 113.5v106t-1 66t-3.5 40t-5.5 27q4 5 12.5 9.5t21.5 4.5zM185 586q-16 0 -29 13t-13 29q0 17 13 29.5t29 12.5q17 0 29.5 -12.5t12.5 -29.5
q0 -16 -12.5 -29t-29.5 -13zM353 586q-16 0 -28.5 13t-12.5 29q0 17 12.5 29.5t28.5 12.5q17 0 29.5 -12.5t12.5 -29.5q0 -16 -12.5 -29t-29.5 -13z" />
    <glyph glyph-name="yacute" unicode="&#xfd;" horiz-adv-x="542" 
d="M238 -236q-40 0 -77.5 10.5t-61.5 34.5t-24 64q0 26 13 44.5t35 18.5q20 0 30 -13q-15 -8 -19 -22t-4 -23q0 -31 17 -49t41.5 -25.5t48.5 -7.5q90 0 130 64t40 194q0 19 1 40.5t2 43.5t2 42l11 13q-8 -93 -57.5 -147.5t-133.5 -54.5q-72 0 -110 47.5t-39 165.5v200
q0 30 -2.5 55.5t-7.5 43.5q6 5 14 9.5t20 4.5q15 0 24.5 -9t9.5 -26l1 -273q0 -96 24 -138.5t79 -42.5q29 0 57 12.5t51.5 40.5t37.5 75t14 115v103t-1 64t-3.5 38.5t-5.5 26.5q4 5 12.5 9.5t21.5 4.5q15 0 24.5 -9.5t9.5 -27.5l1 -432q0 -107 -29.5 -169t-80.5 -88.5
t-116 -26.5zM406 696l-125 -135q-7 -1 -17.5 0.5t-13.5 5.5l91 145q11 1 23.5 -1.5t23.5 -6t18 -8.5z" />
    <glyph glyph-name="thorn" unicode="&#xfe;" horiz-adv-x="547" 
d="M124 -226q-16 0 -26 9.5t-10 25.5v885q0 17 8.5 26t22.5 9q13 1 23 -4t15 -10q-5 -19 -7.5 -47t-3.5 -77v-292l-23 -18q6 47 21.5 89.5t41 75.5t61 52t83.5 19q55 0 88.5 -23.5t51 -61t23.5 -78.5t6 -76q0 -135 -54 -211.5t-154 -76.5q-53 0 -90 22t-53 63v-151
q0 -21 1 -47.5t3.5 -50.5t5.5 -38q-5 -4 -13.5 -9t-20.5 -5zM279 29q75 0 116.5 61.5t41.5 186.5q0 31 -4 66t-16 65.5t-36 49.5t-64 19t-71 -20.5t-53 -57t-33.5 -84.5t-11.5 -103q0 -34 5.5 -67t19.5 -59t40 -41.5t66 -15.5z" />
    <glyph glyph-name="ydieresis" unicode="&#xff;" horiz-adv-x="542" 
d="M238 -236q-40 0 -77.5 10.5t-61.5 34.5t-24 64q0 26 13 44.5t35 18.5q20 0 30 -13q-15 -8 -19 -22t-4 -23q0 -31 17 -49t41.5 -25.5t48.5 -7.5q90 0 130 64t40 194q0 19 1 40.5t2 43.5t2 42l11 13q-8 -93 -57.5 -147.5t-133.5 -54.5q-72 0 -110 47.5t-39 165.5v200
q0 30 -2.5 55.5t-7.5 43.5q6 5 14 9.5t20 4.5q15 0 24.5 -9t9.5 -26l1 -273q0 -96 24 -138.5t79 -42.5q29 0 57 12.5t51.5 40.5t37.5 75t14 115v103t-1 64t-3.5 38.5t-5.5 26.5q4 5 12.5 9.5t21.5 4.5q15 0 24.5 -9.5t9.5 -27.5l1 -432q0 -107 -29.5 -169t-80.5 -88.5
t-116 -26.5zM196 586q-16 0 -29 13t-13 29q0 17 13 29.5t29 12.5q17 0 29.5 -12.5t12.5 -29.5q0 -16 -12.5 -29t-29.5 -13zM364 586q-16 0 -28.5 13t-12.5 29q0 17 12.5 29.5t28.5 12.5q17 0 29.5 -12.5t12.5 -29.5q0 -16 -12.5 -29t-29.5 -13z" />
    <glyph glyph-name="Amacron" unicode="&#x100;" horiz-adv-x="580" 
d="M304 703q13 0 23.5 -5.5t14.5 -18.5l211 -634q4 -11 9 -21.5t11 -18.5q-5 -6 -13 -10.5t-21 -4.5q-14 0 -25 6.5t-14 18.5l-214 664l13 -1l-202 -635q-1 -6 -3 -13.5t-2 -14.5q0 -5 1 -10.5t3 -8.5q-7 -2 -14.5 -4t-17.5 -2q-17 0 -26 7.5t-8 21.5q0 7 2.5 17t5.5 20
l218 637q24 10 48 10zM144 265h312v-39h-312v39zM172 807h248q7 -19 0 -38h-248q-7 19 0 38z" />
    <glyph glyph-name="amacron" unicode="&#x101;" horiz-adv-x="543" 
d="M471 -10q-39 0 -58.5 27t-19.5 80v107l16 -10q-19 -62 -55.5 -108.5t-83.5 -71.5t-99 -25q-59 0 -90.5 32t-31.5 83q0 39 19.5 70t56 53.5t86.5 36.5q43 11 90.5 14.5t88.5 0.5v26q0 89 -33 134.5t-110 45.5q-26 0 -53.5 -7.5t-45.5 -25t-18 -51.5q0 -19 11 -41t35 -29
q-8 -11 -19 -14.5t-20 -3.5q-30 0 -48 27t-18 58q0 59 50 89t133 30q101 0 148.5 -53.5t47.5 -161.5v-211q0 -53 37 -53q9 0 19 6t16 17q5 -7 7.5 -14t2.5 -13q0 -19 -18 -31.5t-43 -12.5zM195 32q33 1 67 19.5t63 49.5t47.5 70t18.5 81q-24 2 -55.5 0t-61.5 -7t-53 -13
q-51 -17 -79.5 -46t-28.5 -72q0 -31 18.5 -57t63.5 -25zM134 636h248q7 -18 0 -36h-248q-7 18 0 36z" />
    <glyph glyph-name="Abreve" unicode="&#x102;" horiz-adv-x="580" 
d="M304 703q13 0 23.5 -5.5t14.5 -18.5l211 -634q4 -11 9 -21.5t11 -18.5q-5 -6 -13 -10.5t-21 -4.5q-14 0 -25 6.5t-14 18.5l-214 664l13 -1l-202 -635q-1 -6 -3 -13.5t-2 -14.5q0 -5 1 -10.5t3 -8.5q-7 -2 -14.5 -4t-17.5 -2q-17 0 -26 7.5t-8 21.5q0 7 2.5 17t5.5 20
l218 637q24 10 48 10zM144 265h312v-39h-312v39zM423 832q-10 -28 -27.5 -50.5t-42.5 -35.5t-59 -13t-58.5 13.5t-40.5 35.5t-25 46q8 4 16 7.5t15 7.5q13 -29 38 -46t61 -17q37 0 60 18.5t34 43.5q8 -3 14.5 -5.5t14.5 -4.5z" />
    <glyph glyph-name="abreve" unicode="&#x103;" horiz-adv-x="543" 
d="M471 -10q-39 0 -58.5 27t-19.5 80v107l16 -10q-19 -62 -55.5 -108.5t-83.5 -71.5t-99 -25q-59 0 -90.5 32t-31.5 83q0 39 19.5 70t56 53.5t86.5 36.5q43 11 90.5 14.5t88.5 0.5v26q0 89 -33 134.5t-110 45.5q-26 0 -53.5 -7.5t-45.5 -25t-18 -51.5q0 -19 11 -41t35 -29
q-8 -11 -19 -14.5t-20 -3.5q-30 0 -48 27t-18 58q0 59 50 89t133 30q101 0 148.5 -53.5t47.5 -161.5v-211q0 -53 37 -53q9 0 19 6t16 17q5 -7 7.5 -14t2.5 -13q0 -19 -18 -31.5t-43 -12.5zM195 32q33 1 67 19.5t63 49.5t47.5 70t18.5 81q-24 2 -55.5 0t-61.5 -7t-53 -13
q-51 -17 -79.5 -46t-28.5 -72q0 -31 18.5 -57t63.5 -25zM260 611q33 0 54 13t34 31.5t19 34.5q8 -2 15 -3.5t15 -4.5q-8 -31 -26 -57.5t-45.5 -42.5t-66.5 -16q-46 0 -75.5 18.5t-45.5 44.5t-22 50q7 6 14.5 8.5t15.5 3.5q7 -17 21.5 -36t37 -31.5t55.5 -12.5z" />
    <glyph glyph-name="Aogonek" unicode="&#x104;" horiz-adv-x="580" 
d="M304 703q13 0 23.5 -5.5t14.5 -18.5l211 -634q4 -11 9 -21.5t11 -18.5q-5 -6 -13 -10.5t-21 -4.5q-14 0 -25 6.5t-14 18.5l-214 664l13 -1l-202 -635q-1 -6 -3 -13.5t-2 -14.5q0 -5 1 -10.5t3 -8.5q-7 -2 -14.5 -4t-17.5 -2q-17 0 -26 7.5t-8 21.5q0 7 2.5 17t5.5 20
l218 637q24 10 48 10zM144 265h312v-39h-312v39zM522 -175q-21 0 -41 7.5t-33 24.5t-13 44q0 30 17 52t44 37t56 23l9 -17q-37 -18 -58 -38t-21 -50q0 -22 12.5 -36.5t38.5 -14.5q32 0 53.5 18t30.5 35q6 -4 8.5 -9.5t0.5 -13.5q-13 -28 -41 -45t-63 -17z" />
    <glyph glyph-name="aogonek" unicode="&#x105;" horiz-adv-x="543" 
d="M471 -10q-39 0 -58.5 27t-19.5 80v107l16 -10q-19 -62 -55.5 -108.5t-83.5 -71.5t-99 -25q-59 0 -90.5 32t-31.5 83q0 39 19.5 70t56 53.5t86.5 36.5q43 11 90.5 14.5t88.5 0.5v26q0 89 -33 134.5t-110 45.5q-26 0 -53.5 -7.5t-45.5 -25t-18 -51.5q0 -19 11 -41t35 -29
q-8 -11 -19 -14.5t-20 -3.5q-30 0 -48 27t-18 58q0 59 50 89t133 30q101 0 148.5 -53.5t47.5 -161.5v-211q0 -53 37 -53q9 0 19 6t16 17q5 -7 7.5 -14t2.5 -13q0 -19 -18 -31.5t-43 -12.5zM195 32q33 1 67 19.5t63 49.5t47.5 70t18.5 81q-24 2 -55.5 0t-61.5 -7t-53 -13
q-51 -17 -79.5 -46t-28.5 -72q0 -31 18.5 -57t63.5 -25zM464 -174q-21 0 -41 7.5t-33 24.5t-13 44q0 30 17 52t44 37t56 23l9 -17q-37 -18 -58 -38t-21 -50q0 -22 12.5 -36.5t38.5 -14.5q32 0 53.5 18t30.5 35q6 -4 8.5 -9.5t0.5 -13.5q-13 -28 -41 -45t-63 -17z" />
    <glyph glyph-name="Cacute" unicode="&#x106;" horiz-adv-x="588" 
d="M534 107q0 -21 -16.5 -42.5t-46.5 -39t-68.5 -28t-80.5 -10.5q-122 0 -190 92t-68 266q0 176 68.5 267t192.5 91q40 0 74.5 -7.5t60 -20.5t40 -30t14.5 -35q0 -14 -13 -24.5t-35 -7.5q-8 44 -45 68t-96 24q-94 0 -145 -82t-51 -243t50.5 -242.5t144.5 -81.5q37 0 70 13.5
t58 39.5t33 63q13 1 23.5 -1.5t18 -9t7.5 -19.5zM468 814l-164 -82q-4 2 -9 9.5t-6 11.5l133 107q9 -3 18 -10.5t16 -16.5t12 -19z" />
    <glyph glyph-name="cacute" unicode="&#x107;" horiz-adv-x="503" 
d="M271 -13q-104 0 -163.5 66t-59.5 195q0 125 61 197t172 72q78 0 121 -34.5t43 -91.5q0 -33 -15.5 -53t-40.5 -20q-11 0 -21 3.5t-18 14.5q19 4 27 20t8 39q0 31 -15.5 51.5t-40.5 30t-55 9.5q-71 0 -117 -57.5t-46 -172.5q0 -84 24.5 -133.5t64 -70t85.5 -20.5
q36 0 67 11.5t53.5 36t31.5 62.5q9 -4 13.5 -14t-4.5 -34q-17 -53 -64 -80t-111 -27zM401 696l-125 -135q-7 -1 -17.5 0.5t-13.5 5.5l91 145q11 1 23.5 -1.5t23.5 -6t18 -8.5z" />
    <glyph glyph-name="Ccircumflex" unicode="&#x108;" horiz-adv-x="588" 
d="M534 107q0 -21 -16.5 -42.5t-46.5 -39t-68.5 -28t-80.5 -10.5q-122 0 -190 92t-68 266q0 176 68.5 267t192.5 91q40 0 74.5 -7.5t60 -20.5t40 -30t14.5 -35q0 -14 -13 -24.5t-35 -7.5q-8 44 -45 68t-96 24q-94 0 -145 -82t-51 -243t50.5 -242.5t144.5 -81.5q37 0 70 13.5
t58 39.5t33 63q13 1 23.5 -1.5t18 -9t7.5 -19.5zM345 856l121 -107q-1 -4 -7 -10.5t-11 -8.5l-125 78l-126 -78q-4 2 -10 8.5t-8 10.5l121 107q6 2 14.5 2.5t16.5 0t14 -2.5z" />
    <glyph glyph-name="ccircumflex" unicode="&#x109;" horiz-adv-x="503" 
d="M271 -13q-104 0 -163.5 66t-59.5 195q0 125 61 197t172 72q78 0 121 -34.5t43 -91.5q0 -33 -15.5 -53t-40.5 -20q-11 0 -21 3.5t-18 14.5q19 4 27 20t8 39q0 31 -15.5 51.5t-40.5 30t-55 9.5q-71 0 -117 -57.5t-46 -172.5q0 -84 24.5 -133.5t64 -70t85.5 -20.5
q36 0 67 11.5t53.5 36t31.5 62.5q9 -4 13.5 -14t-4.5 -34q-17 -53 -64 -80t-111 -27zM163 559q-6 0 -16.5 3t-12.5 7l115 129q6 2 14.5 2.5t16.5 0t14 -2.5l115 -129q-3 -4 -13 -7t-15 -3l-109 90z" />
    <glyph glyph-name="Cdotaccent" unicode="&#x10a;" horiz-adv-x="588" 
d="M534 107q0 -21 -16.5 -42.5t-46.5 -39t-68.5 -28t-80.5 -10.5q-122 0 -190 92t-68 266q0 176 68.5 267t192.5 91q40 0 74.5 -7.5t60 -20.5t40 -30t14.5 -35q0 -14 -13 -24.5t-35 -7.5q-8 44 -45 68t-96 24q-94 0 -145 -82t-51 -243t50.5 -242.5t144.5 -81.5q37 0 70 13.5
t58 39.5t33 63q13 1 23.5 -1.5t18 -9t7.5 -19.5zM324 752q-17 0 -30.5 13.5t-13.5 30.5q0 18 13.5 31t30.5 13q18 0 31 -13t13 -31q0 -17 -13 -30.5t-31 -13.5z" />
    <glyph glyph-name="cdotaccent" unicode="&#x10b;" horiz-adv-x="503" 
d="M271 -13q-104 0 -163.5 66t-59.5 195q0 125 61 197t172 72q78 0 121 -34.5t43 -91.5q0 -33 -15.5 -53t-40.5 -20q-11 0 -21 3.5t-18 14.5q19 4 27 20t8 39q0 31 -15.5 51.5t-40.5 30t-55 9.5q-71 0 -117 -57.5t-46 -172.5q0 -84 24.5 -133.5t64 -70t85.5 -20.5
q36 0 67 11.5t53.5 36t31.5 62.5q9 -4 13.5 -14t-4.5 -34q-17 -53 -64 -80t-111 -27zM272 573q-18 0 -31 13.5t-13 30.5q0 18 13 31t31 13t30.5 -13t12.5 -31q0 -17 -12.5 -30.5t-30.5 -13.5z" />
    <glyph glyph-name="Ccaron" unicode="&#x10c;" horiz-adv-x="588" 
d="M534 107q0 -21 -16.5 -42.5t-46.5 -39t-68.5 -28t-80.5 -10.5q-122 0 -190 92t-68 266q0 176 68.5 267t192.5 91q40 0 74.5 -7.5t60 -20.5t40 -30t14.5 -35q0 -14 -13 -24.5t-35 -7.5q-8 44 -45 68t-96 24q-94 0 -145 -82t-51 -243t50.5 -242.5t144.5 -81.5q37 0 70 13.5
t58 39.5t33 63q13 1 23.5 -1.5t18 -9t7.5 -19.5zM345 737q-6 -2 -14 -2.5t-16 0t-14 2.5l-122 106q2 5 8 11.5t10 8.5l126 -78l125 78q5 -2 11 -8.5t7 -11.5z" />
    <glyph glyph-name="ccaron" unicode="&#x10d;" horiz-adv-x="503" 
d="M271 -13q-104 0 -163.5 66t-59.5 195q0 125 61 197t172 72q78 0 121 -34.5t43 -91.5q0 -33 -15.5 -53t-40.5 -20q-11 0 -21 3.5t-18 14.5q19 4 27 20t8 39q0 31 -15.5 51.5t-40.5 30t-55 9.5q-71 0 -117 -57.5t-46 -172.5q0 -84 24.5 -133.5t64 -70t85.5 -20.5
q36 0 67 11.5t53.5 36t31.5 62.5q9 -4 13.5 -14t-4.5 -34q-17 -53 -64 -80t-111 -27zM164 704l109 -89l109 89q6 0 15.5 -2.5t13.5 -6.5l-116 -130q-6 -1 -14 -2t-16 0t-14 2l-116 130q2 4 13 6.5t16 2.5z" />
    <glyph glyph-name="Dcaron" unicode="&#x10e;" horiz-adv-x="636" 
d="M135 0q-16 0 -25 9.5t-9 25.5l-2 552q0 30 -1.5 60.5t-6.5 48.5q26 3 63.5 4t74.5 1.5t64 0.5q133 0 206 -87t73 -267q0 -184 -72.5 -266t-204.5 -82h-160zM159 33h134q69 0 116.5 31.5t72.5 100t25 180.5q0 168 -55.5 246t-158.5 78h-135zM328 737q-6 -2 -14 -2.5t-16 0
t-14 2.5l-122 106q2 5 8 11.5t10 8.5l126 -78l125 78q5 -2 11 -8.5t7 -11.5z" />
    <glyph glyph-name="dcaron" unicode="&#x10f;" horiz-adv-x="593" 
d="M217 -13q-54 0 -87.5 23.5t-51 60.5t-24 78.5t-6.5 77.5q0 135 53.5 212.5t154.5 77.5q54 0 91 -22.5t53 -64.5l-1 167q0 39 -2 68.5t-8 49.5q5 5 13.5 9.5t21.5 4.5q15 0 25 -9t10 -26l-1 -603q0 -28 8.5 -39.5t22.5 -11.5q5 0 13.5 3t12.5 13q6 -7 8.5 -14t2.5 -13
q0 -17 -15 -27t-38 -10q-36 0 -53.5 28t-17.5 80v105l22 19q-6 -48 -21.5 -90.5t-41 -75.5t-61 -52t-83.5 -19zM230 28q39 0 70.5 20.5t53.5 57.5t33.5 86t11.5 104q0 32 -6 64t-20.5 59t-42 43t-69.5 16q-70 0 -110 -62t-40 -187q0 -33 4 -68t16 -65.5t36 -49t63 -18.5z
M531 596q3 31 1 66.5t-10 69.5q13 4 29 4t29 -4q1 -35 -4 -70t-13 -66h-32z" />
    <glyph glyph-name="Dcroat" unicode="&#x110;" horiz-adv-x="629" 
d="M25 365h293q7 -16 0 -32h-293q-6 16 0 32zM135 0q-16 0 -25 9.5t-9 25.5l-2 552q0 30 -1.5 60.5t-6.5 48.5q26 3 63.5 4t74.5 1.5t64 0.5q133 0 206 -87t73 -267q0 -184 -72.5 -266t-204.5 -82h-160zM159 33h134q69 0 116.5 31.5t72.5 100t25 180.5q0 168 -55.5 246
t-158.5 78h-135z" />
    <glyph glyph-name="dcroat" unicode="&#x111;" horiz-adv-x="560" 
d="M284 617h248q6 -16 0 -32h-248q-7 16 0 32zM217 -13q-54 0 -87.5 23.5t-51 60.5t-24 78.5t-6.5 77.5q0 135 53.5 212.5t154.5 77.5q54 0 91 -22.5t53 -64.5l-1 167q0 39 -2 68.5t-8 49.5q5 5 13.5 9.5t21.5 4.5q15 0 25 -9t10 -26l-1 -603q0 -28 8.5 -39.5t22.5 -11.5
q5 0 13.5 3t12.5 13q6 -7 8.5 -14t2.5 -13q0 -17 -15 -27t-38 -10q-36 0 -53.5 28t-17.5 80v105l22 19q-6 -48 -21.5 -90.5t-41 -75.5t-61 -52t-83.5 -19zM230 28q39 0 70.5 20.5t53.5 57.5t33.5 86t11.5 104q0 32 -6 64t-20.5 59t-42 43t-69.5 16q-70 0 -110 -62t-40 -187
q0 -33 4 -68t16 -65.5t36 -49t63 -18.5z" />
    <glyph glyph-name="Emacron" unicode="&#x112;" horiz-adv-x="531" 
d="M136 0q-15 0 -24.5 9.5t-9.5 25.5l-1 547q0 30 -2.5 53t-7.5 40q9 10 19 13t28 3h307q8 0 10.5 -7t1 -16.5t-6 -18t-11.5 -10.5q-69 6 -137.5 10t-142.5 5l2 -618q49 1 100.5 3.5t100.5 6t93 7.5q7 -3 10 -12t3 -18t-3.5 -16t-11.5 -7h-317zM149 346v39h268q3 -10 3 -20
t-3 -19h-268zM153 807h248q7 -19 0 -38h-248q-7 19 0 38z" />
    <glyph glyph-name="emacron" unicode="&#x113;" horiz-adv-x="505" 
d="M274 -13q-105 0 -165.5 66t-60.5 195q0 124 59.5 196.5t172.5 72.5q52 0 91 -16t61 -47.5t22 -77.5q0 -75 -61 -113t-170 -38q-43 0 -78 3.5t-70 10.5l1 29q27 -5 64 -8t70 -4q40 0 73.5 7t57.5 21.5t37 39t13 58.5q0 41 -17 63t-43 31t-54 9q-74 0 -120 -57t-46 -173
q0 -85 24 -133.5t64 -69t87 -20.5q53 0 96 22.5t57 68.5q9 -4 13.5 -14t-5.5 -33q-19 -44 -66 -66.5t-107 -22.5zM145 636h248q7 -18 0 -36h-248q-7 18 0 36z" />
    <glyph glyph-name="Ebreve" unicode="&#x114;" horiz-adv-x="531" 
d="M136 0q-15 0 -24.5 9.5t-9.5 25.5l-1 547q0 30 -2.5 53t-7.5 40q9 10 19 13t28 3h307q8 0 10.5 -7t1 -16.5t-6 -18t-11.5 -10.5q-69 6 -137.5 10t-142.5 5l2 -618q49 1 100.5 3.5t100.5 6t93 7.5q7 -3 10 -12t3 -18t-3.5 -16t-11.5 -7h-317zM149 346v39h268q3 -10 3 -20
t-3 -19h-268zM404 832q-10 -28 -27.5 -50.5t-42.5 -35.5t-59 -13t-58.5 13.5t-40.5 35.5t-25 46q8 4 16 7.5t15 7.5q13 -29 38 -46t61 -17q37 0 60 18.5t34 43.5q8 -3 14.5 -5.5t14.5 -4.5z" />
    <glyph glyph-name="ebreve" unicode="&#x115;" horiz-adv-x="505" 
d="M274 -13q-105 0 -165.5 66t-60.5 195q0 124 59.5 196.5t172.5 72.5q52 0 91 -16t61 -47.5t22 -77.5q0 -75 -61 -113t-170 -38q-43 0 -78 3.5t-70 10.5l1 29q27 -5 64 -8t70 -4q40 0 73.5 7t57.5 21.5t37 39t13 58.5q0 41 -17 63t-43 31t-54 9q-74 0 -120 -57t-46 -173
q0 -85 24 -133.5t64 -69t87 -20.5q53 0 96 22.5t57 68.5q9 -4 13.5 -14t-5.5 -33q-19 -44 -66 -66.5t-107 -22.5zM270 611q33 0 54 13t34 31.5t19 34.5q8 -2 15 -3.5t15 -4.5q-8 -31 -26 -57.5t-45.5 -42.5t-66.5 -16q-46 0 -75.5 18.5t-45.5 44.5t-22 50q7 6 14.5 8.5
t15.5 3.5q7 -17 21.5 -36t37 -31.5t55.5 -12.5z" />
    <glyph glyph-name="Edotaccent" unicode="&#x116;" horiz-adv-x="531" 
d="M136 0q-15 0 -24.5 9.5t-9.5 25.5l-1 547q0 30 -2.5 53t-7.5 40q9 10 19 13t28 3h307q8 0 10.5 -7t1 -16.5t-6 -18t-11.5 -10.5q-69 6 -137.5 10t-142.5 5l2 -618q49 1 100.5 3.5t100.5 6t93 7.5q7 -3 10 -12t3 -18t-3.5 -16t-11.5 -7h-317zM149 346v39h268q3 -10 3 -20
t-3 -19h-268zM277 752q-17 0 -30.5 13.5t-13.5 30.5q0 18 13.5 31t30.5 13q18 0 31 -13t13 -31q0 -17 -13 -30.5t-31 -13.5z" />
    <glyph glyph-name="edotaccent" unicode="&#x117;" horiz-adv-x="505" 
d="M274 -13q-105 0 -165.5 66t-60.5 195q0 124 59.5 196.5t172.5 72.5q52 0 91 -16t61 -47.5t22 -77.5q0 -75 -61 -113t-170 -38q-43 0 -78 3.5t-70 10.5l1 29q27 -5 64 -8t70 -4q40 0 73.5 7t57.5 21.5t37 39t13 58.5q0 41 -17 63t-43 31t-54 9q-74 0 -120 -57t-46 -173
q0 -85 24 -133.5t64 -69t87 -20.5q53 0 96 22.5t57 68.5q9 -4 13.5 -14t-5.5 -33q-19 -44 -66 -66.5t-107 -22.5zM268 573q-18 0 -31 13.5t-13 30.5q0 18 13 31t31 13t30.5 -13t12.5 -31q0 -17 -12.5 -30.5t-30.5 -13.5z" />
    <glyph glyph-name="Eogonek" unicode="&#x118;" horiz-adv-x="531" 
d="M136 0q-15 0 -24.5 9.5t-9.5 25.5l-1 547q0 30 -2.5 53t-7.5 40q9 10 19 13t28 3h307q8 0 10.5 -7t1 -16.5t-6 -18t-11.5 -10.5q-69 6 -137.5 10t-142.5 5l2 -618q49 1 100.5 3.5t100.5 6t93 7.5q7 -3 10 -12t3 -18t-3.5 -16t-11.5 -7h-317zM149 346v39h268q3 -10 3 -20
t-3 -19h-268zM378 -170q-21 0 -41 7.5t-33 24.5t-13 44q0 30 17 52t44 37t56 23l9 -17q-37 -18 -58 -38t-21 -50q0 -22 12.5 -36.5t38.5 -14.5q32 0 53.5 18t30.5 35q6 -4 8.5 -9.5t0.5 -13.5q-13 -28 -41 -45t-63 -17z" />
    <glyph glyph-name="eogonek" unicode="&#x119;" horiz-adv-x="505" 
d="M274 -13q-105 0 -165.5 66t-60.5 195q0 124 59.5 196.5t172.5 72.5q52 0 91 -16t61 -47.5t22 -77.5q0 -75 -61 -113t-170 -38q-43 0 -78 3.5t-70 10.5l1 29q27 -5 64 -8t70 -4q40 0 73.5 7t57.5 21.5t37 39t13 58.5q0 41 -17 63t-43 31t-54 9q-74 0 -120 -57t-46 -173
q0 -85 24 -133.5t64 -69t87 -20.5q53 0 96 22.5t57 68.5q9 -4 13.5 -14t-5.5 -33q-19 -44 -66 -66.5t-107 -22.5zM352 -156q-21 0 -41 7.5t-33 24.5t-13 44q0 30 17 52t44 37t56 23l9 -17q-37 -18 -58 -38t-21 -50q0 -22 12.5 -36.5t38.5 -14.5q32 0 53.5 18t30.5 35
q6 -4 8.5 -9.5t0.5 -13.5q-13 -28 -41 -45t-63 -17z" />
    <glyph glyph-name="Ecaron" unicode="&#x11a;" horiz-adv-x="531" 
d="M136 0q-15 0 -24.5 9.5t-9.5 25.5l-1 547q0 30 -2.5 53t-7.5 40q9 10 19 13t28 3h307q8 0 10.5 -7t1 -16.5t-6 -18t-11.5 -10.5q-69 6 -137.5 10t-142.5 5l2 -618q49 1 100.5 3.5t100.5 6t93 7.5q7 -3 10 -12t3 -18t-3.5 -16t-11.5 -7h-317zM149 346v39h268q3 -10 3 -20
t-3 -19h-268zM299 737q-6 -2 -14 -2.5t-16 0t-14 2.5l-122 106q2 5 8 11.5t10 8.5l126 -78l125 78q5 -2 11 -8.5t7 -11.5z" />
    <glyph glyph-name="ecaron" unicode="&#x11b;" horiz-adv-x="505" 
d="M274 -13q-105 0 -165.5 66t-60.5 195q0 124 59.5 196.5t172.5 72.5q52 0 91 -16t61 -47.5t22 -77.5q0 -75 -61 -113t-170 -38q-43 0 -78 3.5t-70 10.5l1 29q27 -5 64 -8t70 -4q40 0 73.5 7t57.5 21.5t37 39t13 58.5q0 41 -17 63t-43 31t-54 9q-74 0 -120 -57t-46 -173
q0 -85 24 -133.5t64 -69t87 -20.5q53 0 96 22.5t57 68.5q9 -4 13.5 -14t-5.5 -33q-19 -44 -66 -66.5t-107 -22.5zM160 704l110 -89l108 89q6 0 16 -2.5t13 -6.5l-116 -130q-6 -1 -13.5 -2t-16 0t-14.5 2l-116 130q2 4 13 6.5t16 2.5z" />
    <glyph glyph-name="Gcircumflex" unicode="&#x11c;" horiz-adv-x="614" 
d="M332 -13q-130 0 -199 91.5t-69 266.5t70 266.5t197 91.5q38 0 71.5 -7.5t59.5 -20.5t40.5 -29.5t14.5 -33.5q0 -16 -12.5 -26.5t-35.5 -7.5q-8 44 -45.5 68t-90.5 24q-101 0 -152.5 -82t-51.5 -243t51.5 -242.5t153.5 -81.5q52 0 84 20t48.5 51.5t22 65.5t5.5 63
q0 44 -9.5 73t-27 45t-43.5 19q2 14 14 20.5t28 6.5q25 0 47.5 -14.5t36.5 -48.5t14 -94q0 -31 -6 -64.5t-21 -65t-40.5 -56.5t-63.5 -40t-91 -15zM349 856l121 -107q-1 -4 -7 -10.5t-11 -8.5l-125 78l-126 -78q-4 2 -10 8.5t-8 10.5l121 107q6 2 14.5 2.5t16.5 0t14 -2.5z
" />
    <glyph glyph-name="gcircumflex" unicode="&#x11d;" horiz-adv-x="534" 
d="M214 -236q-44 0 -81 13t-59.5 40.5t-22.5 68.5q0 32 15.5 51t36.5 19t31 -13q-15 -9 -21 -24t-6 -33q0 -31 14.5 -51t39.5 -29.5t55 -9.5q95 0 138 64t43 192v31.5v34.5q-18 -58 -63.5 -91.5t-109.5 -33.5q-54 0 -94 26.5t-61 83t-21 145.5q0 33 5 70t18.5 72.5t38 64.5
t64 45.5t96.5 16.5q29 0 63 -5.5t67 -19.5t56 -41v-406q0 -105 -31.5 -166.5t-86 -88t-124.5 -26.5zM237 31q46 0 76.5 20.5t49 53t26.5 70.5t8 73l1 193q-19 22 -55 32.5t-78 10.5q-50 0 -81 -22.5t-47 -58.5t-21 -78.5t-5 -82.5q0 -111 31.5 -161t94.5 -50zM161 561
q-6 0 -16.5 3t-12.5 7l115 129q6 2 14.5 2.5t16.5 0t14 -2.5l115 -129q-3 -4 -13 -7t-15 -3l-109 90z" />
    <glyph glyph-name="Gbreve" unicode="&#x11e;" horiz-adv-x="614" 
d="M332 -13q-130 0 -199 91.5t-69 266.5t70 266.5t197 91.5q38 0 71.5 -7.5t59.5 -20.5t40.5 -29.5t14.5 -33.5q0 -16 -12.5 -26.5t-35.5 -7.5q-8 44 -45.5 68t-90.5 24q-101 0 -152.5 -82t-51.5 -243t51.5 -242.5t153.5 -81.5q52 0 84 20t48.5 51.5t22 65.5t5.5 63
q0 44 -9.5 73t-27 45t-43.5 19q2 14 14 20.5t28 6.5q25 0 47.5 -14.5t36.5 -48.5t14 -94q0 -31 -6 -64.5t-21 -65t-40.5 -56.5t-63.5 -40t-91 -15zM455 832q-10 -28 -27.5 -50.5t-42.5 -35.5t-59 -13t-58.5 13.5t-40.5 35.5t-25 46q8 4 16 7.5t15 7.5q13 -29 38 -46t61 -17
q37 0 60 18.5t34 43.5q8 -3 14.5 -5.5t14.5 -4.5z" />
    <glyph glyph-name="gbreve" unicode="&#x11f;" horiz-adv-x="534" 
d="M214 -236q-44 0 -81 13t-59.5 40.5t-22.5 68.5q0 32 15.5 51t36.5 19t31 -13q-15 -9 -21 -24t-6 -33q0 -31 14.5 -51t39.5 -29.5t55 -9.5q95 0 138 64t43 192v31.5v34.5q-18 -58 -63.5 -91.5t-109.5 -33.5q-54 0 -94 26.5t-61 83t-21 145.5q0 33 5 70t18.5 72.5t38 64.5
t64 45.5t96.5 16.5q29 0 63 -5.5t67 -19.5t56 -41v-406q0 -105 -31.5 -166.5t-86 -88t-124.5 -26.5zM237 31q46 0 76.5 20.5t49 53t26.5 70.5t8 73l1 193q-19 22 -55 32.5t-78 10.5q-50 0 -81 -22.5t-47 -58.5t-21 -78.5t-5 -82.5q0 -111 31.5 -161t94.5 -50zM272 613
q33 0 54 13t34 31.5t19 34.5q8 -2 15 -3.5t15 -4.5q-8 -31 -26 -57.5t-45.5 -42.5t-66.5 -16q-46 0 -75.5 18.5t-45.5 44.5t-22 50q7 6 14.5 8.5t15.5 3.5q7 -17 21.5 -36t37 -31.5t55.5 -12.5z" />
    <glyph glyph-name="Gdotaccent" unicode="&#x120;" horiz-adv-x="614" 
d="M332 -13q-130 0 -199 91.5t-69 266.5t70 266.5t197 91.5q38 0 71.5 -7.5t59.5 -20.5t40.5 -29.5t14.5 -33.5q0 -16 -12.5 -26.5t-35.5 -7.5q-8 44 -45.5 68t-90.5 24q-101 0 -152.5 -82t-51.5 -243t51.5 -242.5t153.5 -81.5q52 0 84 20t48.5 51.5t22 65.5t5.5 63
q0 44 -9.5 73t-27 45t-43.5 19q2 14 14 20.5t28 6.5q25 0 47.5 -14.5t36.5 -48.5t14 -94q0 -31 -6 -64.5t-21 -65t-40.5 -56.5t-63.5 -40t-91 -15zM328 752q-17 0 -30.5 13.5t-13.5 30.5q0 18 13.5 31t30.5 13q18 0 31 -13t13 -31q0 -17 -13 -30.5t-31 -13.5z" />
    <glyph glyph-name="gdotaccent" unicode="&#x121;" horiz-adv-x="534" 
d="M214 -236q-44 0 -81 13t-59.5 40.5t-22.5 68.5q0 32 15.5 51t36.5 19t31 -13q-15 -9 -21 -24t-6 -33q0 -31 14.5 -51t39.5 -29.5t55 -9.5q95 0 138 64t43 192v31.5v34.5q-18 -58 -63.5 -91.5t-109.5 -33.5q-54 0 -94 26.5t-61 83t-21 145.5q0 33 5 70t18.5 72.5t38 64.5
t64 45.5t96.5 16.5q29 0 63 -5.5t67 -19.5t56 -41v-406q0 -105 -31.5 -166.5t-86 -88t-124.5 -26.5zM237 31q46 0 76.5 20.5t49 53t26.5 70.5t8 73l1 193q-19 22 -55 32.5t-78 10.5q-50 0 -81 -22.5t-47 -58.5t-21 -78.5t-5 -82.5q0 -111 31.5 -161t94.5 -50zM269 575
q-18 0 -31 13.5t-13 30.5q0 18 13 31t31 13t30.5 -13t12.5 -31q0 -17 -12.5 -30.5t-30.5 -13.5z" />
    <glyph glyph-name="uni0122" unicode="&#x122;" horiz-adv-x="614" 
d="M332 -13q-130 0 -199 91.5t-69 266.5t70 266.5t197 91.5q38 0 71.5 -7.5t59.5 -20.5t40.5 -29.5t14.5 -33.5q0 -16 -12.5 -26.5t-35.5 -7.5q-8 44 -45.5 68t-90.5 24q-101 0 -152.5 -82t-51.5 -243t51.5 -242.5t153.5 -81.5q52 0 84 20t48.5 51.5t22 65.5t5.5 63
q0 44 -9.5 73t-27 45t-43.5 19q2 14 14 20.5t28 6.5q25 0 47.5 -14.5t36.5 -48.5t14 -94q0 -31 -6 -64.5t-21 -65t-40.5 -56.5t-63.5 -40t-91 -15zM320 -208q-8 2 -14 6.5t-11 9.5q15 16 22 31.5t7 31.5q0 17 -5.5 26.5t-14 14.5t-18.5 8q0 15 12.5 30.5t35.5 15.5
q17 0 33.5 -12t16.5 -48q0 -24 -13 -53t-51 -61z" />
    <glyph glyph-name="uni0123" unicode="&#x123;" horiz-adv-x="534" 
d="M214 -236q-44 0 -81 13t-59.5 40.5t-22.5 68.5q0 32 15.5 51t36.5 19t31 -13q-15 -9 -21 -24t-6 -33q0 -31 14.5 -51t39.5 -29.5t55 -9.5q95 0 138 64t43 192v31.5v34.5q-18 -58 -63.5 -91.5t-109.5 -33.5q-54 0 -94 26.5t-61 83t-21 145.5q0 33 5 70t18.5 72.5t38 64.5
t64 45.5t96.5 16.5q29 0 63 -5.5t67 -19.5t56 -41v-406q0 -105 -31.5 -166.5t-86 -88t-124.5 -26.5zM237 31q46 0 76.5 20.5t49 53t26.5 70.5t8 73l1 193q-19 22 -55 32.5t-78 10.5q-50 0 -81 -22.5t-47 -58.5t-21 -78.5t-5 -82.5q0 -111 31.5 -161t94.5 -50zM280 731
q9 -2 15 -5.5t10 -9.5q-14 -21 -20 -39t-6 -32q0 -19 8.5 -26t21.5 -10q0 -14 -11 -27t-30 -13q-10 0 -20 4.5t-17 16t-7 30.5q0 21 11.5 47t44.5 64z" />
    <glyph glyph-name="Hcircumflex" unicode="&#x124;" horiz-adv-x="672" 
d="M161 103q0 -30 2 -55.5t8 -43.5q-5 -4 -13.5 -9t-21.5 -5q-15 0 -24.5 9.5t-9.5 25.5l-1 562q0 30 -2.5 55t-7.5 43q4 5 13 9.5t21 4.5q15 0 25.5 -9t10.5 -26v-561zM572 103q0 -30 2 -55.5t8 -43.5q-5 -4 -13.5 -9t-21.5 -5q-15 0 -24.5 9.5t-9.5 25.5l-1 562
q0 30 -2 55t-8 43q4 5 13 9.5t22 4.5q15 0 25 -9t10 -26v-561zM140 386h395v-39h-395v39zM357 856l121 -107q-1 -4 -7 -10.5t-11 -8.5l-125 78l-126 -78q-4 2 -10 8.5t-8 10.5l121 107q6 2 14.5 2.5t16.5 0t14 -2.5z" />
    <glyph glyph-name="hcircumflex" unicode="&#x125;" horiz-adv-x="559" 
d="M123 -10q-15 0 -24.5 10t-9.5 27l-1 667q0 17 8.5 26t22.5 9q14 1 24 -4t15 -10q-6 -19 -8 -47t-3 -77l-1 -252l-15 -14q5 60 30.5 103t66 66t88.5 23q83 0 121.5 -53.5t38.5 -157.5l1 -203q0 -28 2 -54.5t7 -44.5q-5 -5 -13.5 -9.5t-20.5 -4.5q-15 0 -24 9.5t-9 25.5
l-1 276q0 88 -26.5 133.5t-89.5 45.5q-25 0 -52 -12t-50.5 -39.5t-38 -72.5t-14.5 -112v-106t1 -66.5t3 -40.5t6 -27q-4 -4 -12.5 -9t-21.5 -5zM15 730q-6 0 -16.5 3t-12.5 7l115 129q6 2 14.5 2.5t16.5 0t14 -2.5l115 -129q-3 -4 -13 -7t-15 -3l-109 90z" />
    <glyph glyph-name="Hbar" unicode="&#x126;" horiz-adv-x="672" 
d="M50 575h570q7 -16 0 -32h-570q-7 16 0 32zM161 103q0 -30 2 -55.5t8 -43.5q-5 -4 -13.5 -9t-21.5 -5q-15 0 -24.5 9.5t-9.5 25.5l-1 562q0 30 -2.5 55t-7.5 43q4 5 13 9.5t21 4.5q15 0 25.5 -9t10.5 -26v-561zM572 103q0 -30 2 -55.5t8 -43.5q-5 -4 -13.5 -9t-21.5 -5
q-15 0 -24.5 9.5t-9.5 25.5l-1 562q0 30 -2 55t-8 43q4 5 13 9.5t22 4.5q15 0 25 -9t10 -26v-561zM140 386h395v-39h-395v39z" />
    <glyph glyph-name="hbar" unicode="&#x127;" horiz-adv-x="566" 
d="M21 614h251q7 -16 0 -32h-251q-6 16 0 32zM123 -10q-15 0 -24.5 10t-9.5 27l-1 667q0 17 8.5 26t22.5 9q14 1 24 -4t15 -10q-6 -19 -8 -47t-3 -77l-1 -252l-15 -14q5 60 30.5 103t66 66t88.5 23q83 0 121.5 -53.5t38.5 -157.5l1 -203q0 -28 2 -54.5t7 -44.5
q-5 -5 -13.5 -9.5t-20.5 -4.5q-15 0 -24 9.5t-9 25.5l-1 276q0 88 -26.5 133.5t-89.5 45.5q-25 0 -52 -12t-50.5 -39.5t-38 -72.5t-14.5 -112v-106t1 -66.5t3 -40.5t6 -27q-4 -4 -12.5 -9t-21.5 -5z" />
    <glyph glyph-name="Itilde" unicode="&#x128;" horiz-adv-x="261" 
d="M136 -10q-15 0 -24.5 9.5t-9.5 25.5l-1 562q0 30 -2.5 55t-7.5 43q4 5 13 9.5t21 4.5q15 0 25.5 -9t10.5 -26v-561q0 -30 2 -55.5t8 -43.5q-5 -4 -13.5 -9t-21.5 -5zM262 823q-7 -32 -27.5 -52t-50.5 -20q-24 0 -44.5 10.5t-39 20.5t-39.5 10q-22 0 -35.5 -10t-20.5 -30
q-5 -1 -11 2t-11 8q8 40 30 57.5t51 17.5q26 0 45.5 -10t38.5 -20.5t42 -10.5q22 0 31.5 10t17.5 26q8 0 13 -2t10 -7z" />
    <glyph glyph-name="itilde" unicode="&#x129;" horiz-adv-x="237" 
d="M146 103q0 -30 2 -55.5t8 -43.5q-5 -4 -13.5 -9t-21.5 -5q-14 0 -23.5 9.5t-9.5 25.5l-1 380q0 29 -2 55t-8 43q5 5 13 9.5t21 4.5q15 0 24 -9t9 -26zM250 660q-6 -33 -26 -55.5t-52 -22.5q-26 0 -44.5 12t-35.5 24.5t-41 12.5q-21 0 -37 -12t-22 -32q-5 -1 -11 2t-10 7
q7 41 31.5 59t52.5 18q27 0 45.5 -12.5t36.5 -24.5t41 -12q22 0 32.5 13t17.5 32q8 0 13 -2t9 -7z" />
    <glyph glyph-name="Imacron" unicode="&#x12a;" horiz-adv-x="261" 
d="M136 -10q-15 0 -24.5 9.5t-9.5 25.5l-1 562q0 30 -2.5 55t-7.5 43q4 5 13 9.5t21 4.5q15 0 25.5 -9t10.5 -26v-561q0 -30 2 -55.5t8 -43.5q-5 -4 -13.5 -9t-21.5 -5zM0 807h248q7 -19 0 -38h-248q-7 19 0 38z" />
    <glyph glyph-name="imacron" unicode="&#x12b;" horiz-adv-x="237" 
d="M146 103q0 -30 2 -55.5t8 -43.5q-5 -4 -13.5 -9t-21.5 -5q-14 0 -23.5 9.5t-9.5 25.5l-1 380q0 29 -2 55t-8 43q5 5 13 9.5t21 4.5q15 0 24 -9t9 -26zM-13 636h248q7 -18 0 -36h-248q-7 18 0 36z" />
    <glyph glyph-name="Iogonek" unicode="&#x12e;" horiz-adv-x="261" 
d="M136 -10q-15 0 -24.5 9.5t-9.5 25.5l-1 562q0 30 -2.5 55t-7.5 43q4 5 13 9.5t21 4.5q15 0 25.5 -9t10.5 -26v-561q0 -30 2 -55.5t8 -43.5q-5 -4 -13.5 -9t-21.5 -5zM125 -172q-21 0 -41 7.5t-33 24.5t-13 44q0 30 17 52t44 37t56 23l9 -17q-37 -18 -58 -38t-21 -50
q0 -22 12.5 -36.5t38.5 -14.5q32 0 53.5 18t30.5 35q6 -4 8.5 -9.5t0.5 -13.5q-13 -28 -41 -45t-63 -17z" />
    <glyph glyph-name="iogonek" unicode="&#x12f;" horiz-adv-x="255" 
d="M124 613q-18 0 -32 13.5t-14 31.5q0 19 14 32.5t32 13.5q19 0 32.5 -13.5t13.5 -32.5q0 -18 -13.5 -31.5t-32.5 -13.5zM158 103q0 -30 2 -55.5t8 -43.5q-5 -4 -13.5 -9t-21.5 -5q-14 0 -23.5 9.5t-9.5 25.5l-1 380q0 29 -2 55t-8 43q4 5 12.5 9.5t21.5 4.5q15 0 24 -9
t9 -26zM119 -168q-21 0 -41 7.5t-33 24.5t-13 44q0 30 17 52t44 37t56 23l9 -17q-37 -18 -58 -38t-21 -50q0 -22 12.5 -36.5t38.5 -14.5q32 0 53.5 18t30.5 35q6 -4 8.5 -9.5t0.5 -13.5q-13 -28 -41 -45t-63 -17z" />
    <glyph glyph-name="Idotaccent" unicode="&#x130;" horiz-adv-x="261" 
d="M136 -10q-15 0 -24.5 9.5t-9.5 25.5l-1 562q0 30 -2.5 55t-7.5 43q4 5 13 9.5t21 4.5q15 0 25.5 -9t10.5 -26v-561q0 -30 2 -55.5t8 -43.5q-5 -4 -13.5 -9t-21.5 -5zM124 752q-17 0 -30.5 13.5t-13.5 30.5q0 18 13.5 31t30.5 13q18 0 31 -13t13 -31q0 -17 -13 -30.5
t-31 -13.5z" />
    <glyph glyph-name="dotlessi" unicode="&#x131;" horiz-adv-x="237" 
d="M146 103q0 -30 2 -55.5t8 -43.5q-5 -4 -13.5 -9t-21.5 -5q-14 0 -23.5 9.5t-9.5 25.5l-1 380q0 29 -2 55t-8 43q5 5 13 9.5t21 4.5q15 0 24 -9t9 -26z" />
    <glyph glyph-name="Jcircumflex" unicode="&#x134;" horiz-adv-x="441" 
d="M185 -13q-47 0 -77 15.5t-44.5 39.5t-14.5 51q0 18 9.5 33t30.5 15q7 0 11 -2t7 -6q-3 -9 -4.5 -17t-1.5 -16q0 -28 13.5 -45.5t32.5 -25.5t36 -8q42 0 64 18.5t30 52t8 77.5v453q0 12 0.5 24t2.5 22q-27 -1 -54 0.5t-58 3.5q-17 2 -34 -5t-17 -33q0 -18 8 -28.5
t20 -17.5q-5 -5 -13 -6.5t-15 -1.5q-18 0 -33.5 16.5t-15.5 43.5q0 26 19 44.5t57 18.5q12 0 33 -1.5t45 -2.5t45 -2q24 -1 42 1t32 4q-2 -15 -3 -32t-1 -38v-461q0 -31 -6.5 -63.5t-23 -59.5t-48.5 -44t-82 -17zM244 856l121 -107q-1 -4 -7 -10.5t-11 -8.5l-125 78
l-126 -78q-4 2 -10 8.5t-8 10.5l121 107q6 2 14.5 2.5t16.5 0t14 -2.5z" />
    <glyph glyph-name="jcircumflex" unicode="&#x135;" horiz-adv-x="246" 
d="M30 -234q-49 0 -74.5 21t-25.5 56q0 15 9 28t28 13q6 0 9.5 -1.5t5.5 -6.5q-2 -7 -3.5 -14.5t-1.5 -14.5q0 -20 8.5 -31t21 -14.5t23.5 -3.5q32 0 48 19t21.5 51.5t5.5 75.5l1 460q0 28 -2 54.5t-8 44.5q6 6 14.5 10t19.5 4q15 0 24 -9t9 -26l1 -547q0 -29 -5 -58.5
t-19.5 -54.5t-41 -40.5t-68.5 -15.5zM20 559q-6 0 -16.5 3t-12.5 7l115 129q6 2 14.5 2.5t16.5 0t14 -2.5l115 -129q-3 -4 -13 -7t-15 -3l-109 90z" />
    <glyph glyph-name="uni0136" unicode="&#x136;" horiz-adv-x="572" 
d="M500 -10q-20 0 -35.5 11t-27.5 29t-19 38l-47 151q-9 21 -19.5 41t-29 35.5t-50.5 24.5t-83 9h-37l-1 32q9 1 20 1.5t20 0.5q55 4 97.5 28.5t71 62t43 79.5t14.5 81q0 31 -6.5 49t-11.5 26q8 5 15 8.5t15 3.5q11 0 22 -8t18.5 -26t7.5 -50q0 -51 -22 -105.5t-69.5 -99.5
t-126.5 -69l5 11q74 -5 110 -38.5t52 -83.5l49 -145q10 -27 20.5 -37t22.5 -11q5 0 14.5 2.5t16.5 11.5q6 -10 6 -21q0 -20 -18 -31t-37 -11zM136 -10q-15 0 -24.5 9.5t-9.5 25.5l-1 562q0 30 -2.5 55t-7.5 43q4 5 13 9.5t21 4.5q15 0 24.5 -9t9.5 -26l2 -561q0 -30 2 -55.5
t8 -43.5q-5 -4 -13.5 -9t-21.5 -5zM287 -208q-8 2 -14 6.5t-11 9.5q15 16 22 31.5t7 31.5q0 17 -5.5 26.5t-14 14.5t-18.5 8q0 15 12.5 30.5t35.5 15.5q17 0 33.5 -12t16.5 -48q0 -24 -13 -53t-51 -61z" />
    <glyph glyph-name="uni0137" unicode="&#x137;" horiz-adv-x="543" 
d="M122 -10q-18 0 -25.5 10.5t-7.5 26.5l-1 667q0 17 10 26t25 9q13 0 21.5 -4.5t12.5 -9.5q-3 -14 -4.5 -28.5t-2.5 -29.5t-1.5 -31.5t-1.5 -35.5l-1 -260l-5 6q13 54 42.5 94.5t72 63.5t95.5 23q59 0 91 -30.5t32 -84.5q0 -41 -19.5 -73.5t-50.5 -55.5t-67 -40
q9 -5 15.5 -13.5t12.5 -19.5l72 -127q9 -16 17 -23.5t20 -7.5q5 0 13.5 2.5t15.5 11.5q5 -5 6.5 -11t1.5 -12q0 -20 -18 -31.5t-37 -11.5q-22 0 -40 14t-28 36l-94 177q-38 -14 -77 -25.5t-70 -19.5v-75.5t1.5 -44.5t3.5 -26.5t5 -21.5q-5 -5 -13 -9.5t-22 -4.5zM147 202
q49 15 97 32.5t86.5 40.5t61.5 53.5t23 70.5q0 42 -22.5 60.5t-57.5 18.5q-57 0 -99 -35t-65.5 -97t-23.5 -144zM262 -208q-8 2 -14 6.5t-11 9.5q15 16 22 31.5t7 31.5q0 17 -5.5 26.5t-14 14.5t-18.5 8q0 15 12.5 30.5t35.5 15.5q17 0 33.5 -12t16.5 -48q0 -24 -13 -53
t-51 -61z" />
    <glyph glyph-name="kgreenlandic" unicode="&#x138;" horiz-adv-x="572" 
d="M478 -10q-25 0 -46 18t-30 47l-27 94q-7 26 -21 46.5t-43.5 32.5t-85.5 12h-84l-1 32q17 1 40 1.5t39 1.5q61 3 102.5 27t63.5 60.5t22 73.5q0 23 -5.5 42.5t-10.5 26.5q7 7 14.5 9.5t15.5 2.5q11 0 21.5 -9t17 -26t6.5 -41q0 -43 -21.5 -81.5t-62 -66t-99.5 -37.5l5 10
q42 2 70 -11t45.5 -37t26.5 -57l22 -76q9 -29 20 -38t22 -9q9 0 17.5 3.5t13.5 10.5q3 -5 4 -10.5t1 -9.5q0 -20 -16 -31t-36 -11zM125 -10q-15 0 -25 9.5t-10 25.5v379q0 30 -2 55.5t-8 43.5q5 5 14 9.5t22 4.5q15 0 24.5 -9t9.5 -26v-379q0 -30 2 -55.5t8 -43.5
q-5 -4 -13.5 -9t-21.5 -5z" />
    <glyph glyph-name="Lacute" unicode="&#x139;" horiz-adv-x="470" 
d="M159 664l2 -626q45 0 91 3t90.5 6.5t85.5 7.5q6 -3 9 -12t3 -19t-3 -17t-12 -7h-289q-15 0 -24.5 9.5t-9.5 25.5l-1 552q0 30 -2.5 55t-7.5 43q4 5 13 9.5t21 4.5q15 0 24.5 -9t9.5 -26zM288 814l-164 -82q-4 2 -9 9.5t-6 11.5l133 107q9 -3 18 -10.5t16 -16.5t12 -19z
" />
    <glyph glyph-name="lacute" unicode="&#x13a;" horiz-adv-x="262" 
d="M170 -10q-39 0 -61.5 26t-22.5 73v605q0 17 9.5 26t25.5 9q13 0 21.5 -4.5t12.5 -9.5q-6 -21 -8 -67t-2 -128v-429q0 -25 10 -39t29 -14q12 0 23.5 6t16.5 17q6 -7 8 -14t2 -13q0 -20 -19 -32t-45 -12zM262 898l-125 -135q-7 -1 -17.5 0.5t-13.5 5.5l91 145
q11 1 23.5 -1.5t23.5 -6t18 -8.5z" />
    <glyph glyph-name="uni013B" unicode="&#x13b;" horiz-adv-x="470" 
d="M159 664l2 -626q45 0 91 3t90.5 6.5t85.5 7.5q6 -3 9 -12t3 -19t-3 -17t-12 -7h-289q-15 0 -24.5 9.5t-9.5 25.5l-1 552q0 30 -2.5 55t-7.5 43q4 5 13 9.5t21 4.5q15 0 24.5 -9t9.5 -26zM258 -208q-8 2 -14 6.5t-11 9.5q15 16 22 31.5t7 31.5q0 17 -5.5 26.5t-14 14.5
t-18.5 8q0 15 12.5 30.5t35.5 15.5q17 0 33.5 -12t16.5 -48q0 -24 -13 -53t-51 -61z" />
    <glyph glyph-name="uni013C" unicode="&#x13c;" horiz-adv-x="262" 
d="M170 -10q-39 0 -61.5 26t-22.5 73v605q0 17 9.5 26t25.5 9q13 0 21.5 -4.5t12.5 -9.5q-6 -21 -8 -67t-2 -128v-429q0 -25 10 -39t29 -14q12 0 23.5 6t16.5 17q6 -7 8 -14t2 -13q0 -20 -19 -32t-45 -12zM152 -208q-8 2 -14 6.5t-11 9.5q15 16 22 31.5t7 31.5
q0 17 -5.5 26.5t-14 14.5t-18.5 8q0 15 12.5 30.5t35.5 15.5q17 0 33.5 -12t16.5 -48q0 -24 -13 -53t-51 -61z" />
    <glyph glyph-name="Lcaron" unicode="&#x13d;" horiz-adv-x="470" 
d="M159 664l2 -626q45 0 91 3t90.5 6.5t85.5 7.5q6 -3 9 -12t3 -19t-3 -17t-12 -7h-289q-15 0 -24.5 9.5t-9.5 25.5l-1 552q0 30 -2.5 55t-7.5 43q4 5 13 9.5t21 4.5q15 0 24.5 -9t9.5 -26zM271 595q3 31 1 66.5t-10 69.5q13 4 29 4t29 -4q1 -35 -4 -70t-13 -66h-32z" />
    <glyph glyph-name="lcaron" unicode="&#x13e;" horiz-adv-x="301" 
d="M170 -10q-39 0 -61.5 26t-22.5 73v605q0 17 9.5 26t25.5 9q13 0 21.5 -4.5t12.5 -9.5q-6 -21 -8 -67t-2 -128v-429q0 -25 10 -39t29 -14q12 0 23.5 6t16.5 17q6 -7 8 -14t2 -13q0 -20 -19 -32t-45 -12zM225 596q3 31 1 66.5t-10 69.5q13 4 29 4t29 -4q1 -35 -4 -70
t-13 -66h-32z" />
    <glyph glyph-name="Ldot" unicode="&#x13f;" horiz-adv-x="470" 
d="M159 664l2 -626q45 0 91 3t90.5 6.5t85.5 7.5q6 -3 9 -12t3 -19t-3 -17t-12 -7h-289q-15 0 -24.5 9.5t-9.5 25.5l-1 552q0 30 -2.5 55t-7.5 43q4 5 13 9.5t21 4.5q15 0 24.5 -9t9.5 -26zM353 270q-19 0 -32.5 13.5t-13.5 32.5q0 18 13.5 31.5t32.5 13.5t32 -13.5
t13 -31.5q0 -19 -13 -32.5t-32 -13.5z" />
    <glyph glyph-name="ldot" unicode="&#x140;" horiz-adv-x="262" 
d="M170 -10q-39 0 -61.5 26t-22.5 73v605q0 17 9.5 26t25.5 9q13 0 21.5 -4.5t12.5 -9.5q-6 -21 -8 -67t-2 -128v-429q0 -25 10 -39t29 -14q12 0 23.5 6t16.5 17q6 -7 8 -14t2 -13q0 -20 -19 -32t-45 -12zM281 290q-19 0 -32.5 13.5t-13.5 32.5q0 18 13.5 31.5t32.5 13.5
t32 -13.5t13 -31.5q0 -19 -13 -32.5t-32 -13.5z" />
    <glyph glyph-name="Lslash" unicode="&#x141;" horiz-adv-x="470" 
d="M27 180l248 248q18 -5 23 -23l-249 -247q-18 4 -22 22zM159 664l2 -626q45 0 91 3t90.5 6.5t85.5 7.5q6 -3 9 -12t3 -19t-3 -17t-12 -7h-289q-15 0 -24.5 9.5t-9.5 25.5l-1 552q0 30 -2.5 55t-7.5 43q4 5 13 9.5t21 4.5q15 0 24.5 -9t9.5 -26z" />
    <glyph glyph-name="lslash" unicode="&#x142;" horiz-adv-x="262" 
d="M3 176l207 282l26 -19l-207 -281zM170 -10q-39 0 -61.5 26t-22.5 73v605q0 17 9.5 26t25.5 9q13 0 21.5 -4.5t12.5 -9.5q-6 -21 -8 -67t-2 -128v-429q0 -25 10 -39t29 -14q12 0 23.5 6t16.5 17q6 -7 8 -14t2 -13q0 -20 -19 -32t-45 -12z" />
    <glyph glyph-name="Nacute" unicode="&#x143;" horiz-adv-x="676" 
d="M121 -10q-9 0 -16 3t-13 8q6 18 8 45t2 57l-1 477q0 34 -1.5 63t-5.5 46q7 6 17.5 7.5t20 0t11.5 -4.5q31 -44 71.5 -105t85 -129l89 -136t83 -129t67.5 -106l-11 518q-1 33 2 56t11 32q6 3 13 3.5t15 -1.5q3 -8 6 -22.5t3 -28.5l1 -542q0 -34 0.5 -59t2.5 -42
q-3 -5 -11.5 -7t-17 -2t-14.5 2q-28 36 -62 84t-71 102.5t-74 111.5t-71.5 112t-65 103.5t-53.5 85.5l10 -565q1 -17 -8.5 -27.5t-22.5 -10.5zM482 814l-164 -82q-4 2 -9 9.5t-6 11.5l133 107q9 -3 18 -10.5t16 -16.5t12 -19z" />
    <glyph glyph-name="nacute" unicode="&#x144;" horiz-adv-x="569" 
d="M132 -10q-16 0 -25.5 10t-9.5 27v390q-1 28 -7.5 39.5t-21.5 11.5q-6 0 -14 -3t-13 -14q-11 14 -11 28q0 16 14 26.5t38 10.5q35 0 52 -23.5t17 -69.5v-84l-14 -14q5 60 31 103t67 66t90 23q83 0 122 -53.5t39 -157.5v-203q1 -28 3 -54.5t8 -44.5q-6 -5 -14 -9.5
t-21 -4.5q-15 0 -25 9.5t-10 25.5v276q-1 88 -27 132.5t-90 44.5q-24 0 -51 -11.5t-50.5 -38.5t-38.5 -72.5t-15 -111.5q0 -65 0.5 -106t1 -66.5t3 -40.5t6.5 -27q-5 -4 -13.5 -9t-20.5 -5zM419 696l-125 -135q-7 -1 -17.5 0.5t-13.5 5.5l91 145q11 1 23.5 -1.5t23.5 -6
t18 -8.5z" />
    <glyph glyph-name="uni0145" unicode="&#x145;" horiz-adv-x="676" 
d="M121 -10q-9 0 -16 3t-13 8q6 18 8 45t2 57l-1 477q0 34 -1.5 63t-5.5 46q7 6 17.5 7.5t20 0t11.5 -4.5q31 -44 71.5 -105t85 -129l89 -136t83 -129t67.5 -106l-11 518q-1 33 2 56t11 32q6 3 13 3.5t15 -1.5q3 -8 6 -22.5t3 -28.5l1 -542q0 -34 0.5 -59t2.5 -42
q-3 -5 -11.5 -7t-17 -2t-14.5 2q-28 36 -62 84t-71 102.5t-74 111.5t-71.5 112t-65 103.5t-53.5 85.5l10 -565q1 -17 -8.5 -27.5t-22.5 -10.5zM330 -208q-8 2 -14 6.5t-11 9.5q15 16 22 31.5t7 31.5q0 17 -5.5 26.5t-14 14.5t-18.5 8q0 15 12.5 30.5t35.5 15.5
q17 0 33.5 -12t16.5 -48q0 -24 -13 -53t-51 -61z" />
    <glyph glyph-name="uni0146" unicode="&#x146;" horiz-adv-x="569" 
d="M132 -10q-16 0 -25.5 10t-9.5 27v390q-1 28 -7.5 39.5t-21.5 11.5q-6 0 -14 -3t-13 -14q-11 14 -11 28q0 16 14 26.5t38 10.5q35 0 52 -23.5t17 -69.5v-84l-14 -14q5 60 31 103t67 66t90 23q83 0 122 -53.5t39 -157.5v-203q1 -28 3 -54.5t8 -44.5q-6 -5 -14 -9.5
t-21 -4.5q-15 0 -25 9.5t-10 25.5v276q-1 88 -27 132.5t-90 44.5q-24 0 -51 -11.5t-50.5 -38.5t-38.5 -72.5t-15 -111.5q0 -65 0.5 -106t1 -66.5t3 -40.5t6.5 -27q-5 -4 -13.5 -9t-20.5 -5zM282 -208q-8 2 -14 6.5t-11 9.5q15 16 22 31.5t7 31.5q0 17 -5.5 26.5t-14 14.5
t-18.5 8q0 15 12.5 30.5t35.5 15.5q17 0 33.5 -12t16.5 -48q0 -24 -13 -53t-51 -61z" />
    <glyph glyph-name="Ncaron" unicode="&#x147;" horiz-adv-x="676" 
d="M121 -10q-9 0 -16 3t-13 8q6 18 8 45t2 57l-1 477q0 34 -1.5 63t-5.5 46q7 6 17.5 7.5t20 0t11.5 -4.5q31 -44 71.5 -105t85 -129l89 -136t83 -129t67.5 -106l-11 518q-1 33 2 56t11 32q6 3 13 3.5t15 -1.5q3 -8 6 -22.5t3 -28.5l1 -542q0 -34 0.5 -59t2.5 -42
q-3 -5 -11.5 -7t-17 -2t-14.5 2q-28 36 -62 84t-71 102.5t-74 111.5t-71.5 112t-65 103.5t-53.5 85.5l10 -565q1 -17 -8.5 -27.5t-22.5 -10.5zM359 737q-6 -2 -14 -2.5t-16 0t-14 2.5l-122 106q2 5 8 11.5t10 8.5l126 -78l125 78q5 -2 11 -8.5t7 -11.5z" />
    <glyph glyph-name="ncaron" unicode="&#x148;" horiz-adv-x="569" 
d="M132 -10q-16 0 -25.5 10t-9.5 27v390q-1 28 -7.5 39.5t-21.5 11.5q-6 0 -14 -3t-13 -14q-11 14 -11 28q0 16 14 26.5t38 10.5q35 0 52 -23.5t17 -69.5v-84l-14 -14q5 60 31 103t67 66t90 23q83 0 122 -53.5t39 -157.5v-203q1 -28 3 -54.5t8 -44.5q-6 -5 -14 -9.5
t-21 -4.5q-15 0 -25 9.5t-10 25.5v276q-1 88 -27 132.5t-90 44.5q-24 0 -51 -11.5t-50.5 -38.5t-38.5 -72.5t-15 -111.5q0 -65 0.5 -106t1 -66.5t3 -40.5t6.5 -27q-5 -4 -13.5 -9t-20.5 -5zM182 704l109 -89l109 89q6 0 15.5 -2.5t12.5 -6.5l-115 -130q-6 -1 -14 -2t-16 0
t-14 2l-116 130q2 4 13 6.5t16 2.5z" />
    <glyph glyph-name="napostrophe" unicode="&#x149;" horiz-adv-x="656" 
d="M9 599l12 -138h32l14 138q-13 3 -28.5 3t-29.5 -3zM188 -10q-16 0 -25.5 10t-9.5 27v390q-1 28 -7.5 39.5t-21.5 11.5q-6 0 -14 -3t-13 -14q-11 14 -11 28q0 16 14 26.5t38 10.5q35 0 52 -23.5t17 -69.5v-84l-14 -14q5 60 31 103t67 66t90 23q83 0 122 -53.5t39 -157.5
v-203q1 -28 3 -54.5t8 -44.5q-6 -5 -14 -9.5t-21 -4.5q-15 0 -25 9.5t-10 25.5v276q-1 88 -27 132.5t-90 44.5q-24 0 -51 -11.5t-50.5 -38.5t-38.5 -72.5t-15 -111.5q0 -65 0.5 -106t1 -66.5t3 -40.5t6.5 -27q-5 -4 -13.5 -9t-20.5 -5z" />
    <glyph glyph-name="Omacron" unicode="&#x14c;" horiz-adv-x="646" 
d="M323 -13q-124 0 -191.5 88t-67.5 270q0 183 67.5 270.5t191.5 87.5t191.5 -87.5t67.5 -270.5q0 -182 -67.5 -270t-191.5 -88zM323 21q93 0 143.5 78t50.5 246q0 169 -50.5 247t-143.5 78t-143.5 -78t-50.5 -247q0 -168 50.5 -246t143.5 -78zM198 807h248q7 -19 0 -38
h-248q-7 19 0 38z" />
    <glyph glyph-name="omacron" unicode="&#x14d;" horiz-adv-x="542" 
d="M271 -13q-106 0 -164.5 70t-58.5 195t58.5 195t164.5 70q105 0 164 -70t59 -195t-59 -195t-164 -70zM271 20q76 0 117.5 61t41.5 171q0 111 -41.5 171.5t-117.5 60.5t-118 -60.5t-42 -171.5q0 -110 42 -171t118 -61zM146 636h248q7 -18 0 -36h-248q-7 18 0 36z" />
    <glyph glyph-name="Ohungarumlaut" unicode="&#x150;" horiz-adv-x="646" 
d="M323 -13q-124 0 -191.5 88t-67.5 270q0 183 67.5 270.5t191.5 87.5t191.5 -87.5t67.5 -270.5q0 -182 -67.5 -270t-191.5 -88zM323 21q93 0 143.5 78t50.5 246q0 169 -50.5 247t-143.5 78t-143.5 -78t-50.5 -247q0 -168 50.5 -246t143.5 -78zM400 841l-139 -111
q-6 1 -12 7t-8 10l105 128q9 -2 19 -6.5t19.5 -12t15.5 -15.5zM521 838l-140 -111q-5 2 -11 8t-8 10l105 128q10 -2 19.5 -6.5t19 -12t15.5 -16.5z" />
    <glyph glyph-name="ohungarumlaut" unicode="&#x151;" horiz-adv-x="542" 
d="M271 -13q-106 0 -164.5 70t-58.5 195t58.5 195t164.5 70q105 0 164 -70t59 -195t-59 -195t-164 -70zM271 20q76 0 117.5 61t41.5 171q0 111 -41.5 171.5t-117.5 60.5t-118 -60.5t-42 -171.5q0 -110 42 -171t118 -61zM349 693l-148 -152q-6 2 -12.5 7t-9.5 9l115 163
q14 -1 29 -8t26 -19zM485 694l-148 -153q-5 2 -12 7.5t-10 8.5l116 163q14 -1 28.5 -8t25.5 -18z" />
    <glyph glyph-name="OE" unicode="&#x152;" horiz-adv-x="883" 
d="M494 108q-13 -28 -29 -50.5t-36.5 -38t-46.5 -24t-59 -8.5q-124 0 -191.5 88t-67.5 270q0 183 67.5 270.5t191.5 87.5q43 0 74 -12t53.5 -35.5t39.5 -58.5l-27 -29q-14 38 -34.5 60t-46.5 32t-59 10q-93 0 -143.5 -78t-50.5 -247q0 -168 50.5 -246t143.5 -78
q51 0 88 27.5t59 88.5zM488 0q-15 0 -24.5 9.5t-9.5 25.5l-2 547q0 30 -2 53t-8 40q10 10 20 13t28 3h307q7 0 10 -7t1.5 -16.5t-6.5 -18t-11 -10.5q-70 6 -138 10t-142 5l2 -618q49 1 100 3.5t100.5 6t93.5 7.5q6 -3 9.5 -12t3.5 -18t-3.5 -16t-11.5 -7h-317zM500 346v39
h269q3 -10 2.5 -20t-2.5 -19h-269z" />
    <glyph glyph-name="oe" unicode="&#x153;" horiz-adv-x="888" 
d="M271 -13q-106 0 -164.5 70t-58.5 195t58.5 195t164.5 70q72 0 124 -37.5t73 -104.5l-9 1q21 65 73.5 103t130.5 38q52 0 90.5 -16t60.5 -47.5t22 -77.5q0 -75 -60.5 -113t-170.5 -38q-32 0 -59.5 2t-51.5 6q3 -77 27.5 -121t63.5 -62t84 -18q53 0 96 22.5t57 68.5
q9 -4 13 -14t-5 -33q-19 -44 -66 -66.5t-108 -22.5q-72 0 -124.5 35.5t-73.5 102.5h9q-22 -65 -73 -101.5t-123 -36.5zM271 20q76 0 117.5 61t41.5 171q0 111 -41.5 171.5t-117.5 60.5t-118 -60.5t-42 -171.5q0 -110 42 -171t118 -61zM494 264q24 -3 52 -5.5t50 -2.5
q56 0 96 13.5t61 41.5t21 71q0 41 -17 63t-43 31t-54 9q-48 0 -85.5 -25t-58.5 -74t-22 -122z" />
    <glyph glyph-name="Racute" unicode="&#x154;" horiz-adv-x="588" 
d="M137 -10q-16 0 -25.5 9.5t-10.5 25.5v562q0 8 -0.5 26.5t-3 39.5t-6.5 32q10 6 39.5 12t90.5 6q141 0 207 -44.5t66 -146.5q0 -55 -23.5 -97t-66 -67.5t-96.5 -31.5l1 12q38 0 62 -16t40 -41t29 -55l52 -128q12 -27 21.5 -37.5t22.5 -11.5q5 0 14 3t16 12q4 -6 5 -11
t1 -10q0 -15 -9.5 -24.5t-21.5 -14t-22 -4.5q-19 0 -34.5 10t-27 28t-21.5 42l-53 134q-10 25 -22.5 48t-37.5 37.5t-73 14.5h-98l-8 33q21 -1 47 -1h61q49 0 89.5 20.5t64.5 58.5t24 91q0 88 -49.5 127t-158.5 39q-22 0 -37 -1t-24 -3v-567q0 -8 0.5 -26.5t3 -38t6.5 -32.5
q-4 -4 -12.5 -9t-21.5 -5zM412 814l-164 -82q-4 2 -9 9.5t-6 11.5l133 107q9 -3 18 -10.5t16 -16.5t12 -19z" />
    <glyph glyph-name="racute" unicode="&#x155;" horiz-adv-x="429" 
d="M131 -9q-14 0 -24 10t-10 27v389q0 28 -7 39.5t-22 11.5q-6 0 -14 -3t-13 -14q-11 14 -11 28q0 16 14 26.5t38 10.5q34 0 51.5 -24.5t16.5 -73.5v-81l-12 -3q8 90 47 136.5t98 46.5q49 0 79.5 -25.5t30.5 -74.5q0 -30 -15.5 -49.5t-34.5 -21.5q-17 -1 -25 7
q13 18 16 32.5t3 29.5q0 34 -17 49.5t-47 15.5q-28 0 -55 -22t-44.5 -73.5t-17.5 -140.5v-105.5t1 -66.5t3 -40t6 -27q-5 -4 -13.5 -9t-21.5 -5zM323 696l-125 -135q-7 -1 -17.5 0.5t-13.5 5.5l91 145q11 1 23.5 -1.5t23.5 -6t18 -8.5z" />
    <glyph glyph-name="uni0156" unicode="&#x156;" horiz-adv-x="588" 
d="M137 -10q-16 0 -25.5 9.5t-10.5 25.5v562q0 8 -0.5 26.5t-3 39.5t-6.5 32q10 6 39.5 12t90.5 6q141 0 207 -44.5t66 -146.5q0 -55 -23.5 -97t-66 -67.5t-96.5 -31.5l1 12q38 0 62 -16t40 -41t29 -55l52 -128q12 -27 21.5 -37.5t22.5 -11.5q5 0 14 3t16 12q4 -6 5 -11
t1 -10q0 -15 -9.5 -24.5t-21.5 -14t-22 -4.5q-19 0 -34.5 10t-27 28t-21.5 42l-53 134q-10 25 -22.5 48t-37.5 37.5t-73 14.5h-98l-8 33q21 -1 47 -1h61q49 0 89.5 20.5t64.5 58.5t24 91q0 88 -49.5 127t-158.5 39q-22 0 -37 -1t-24 -3v-567q0 -8 0.5 -26.5t3 -38t6.5 -32.5
q-4 -4 -12.5 -9t-21.5 -5zM293 -208q-8 2 -14 6.5t-11 9.5q15 16 22 31.5t7 31.5q0 17 -5.5 26.5t-14 14.5t-18.5 8q0 15 12.5 30.5t35.5 15.5q17 0 33.5 -12t16.5 -48q0 -24 -13 -53t-51 -61z" />
    <glyph glyph-name="uni0157" unicode="&#x157;" horiz-adv-x="429" 
d="M131 -9q-14 0 -24 10t-10 27v389q0 28 -7 39.5t-22 11.5q-6 0 -14 -3t-13 -14q-11 14 -11 28q0 16 14 26.5t38 10.5q34 0 51.5 -24.5t16.5 -73.5v-81l-12 -3q8 90 47 136.5t98 46.5q49 0 79.5 -25.5t30.5 -74.5q0 -30 -15.5 -49.5t-34.5 -21.5q-17 -1 -25 7
q13 18 16 32.5t3 29.5q0 34 -17 49.5t-47 15.5q-28 0 -55 -22t-44.5 -73.5t-17.5 -140.5v-105.5t1 -66.5t3 -40t6 -27q-5 -4 -13.5 -9t-21.5 -5zM121 -208q-8 2 -14 6.5t-11 9.5q15 16 22 31.5t7 31.5q0 17 -5.5 26.5t-14 14.5t-18.5 8q0 15 12.5 30.5t35.5 15.5
q17 0 33.5 -12t16.5 -48q0 -24 -13 -53t-51 -61z" />
    <glyph glyph-name="Rcaron" unicode="&#x158;" horiz-adv-x="588" 
d="M137 -10q-16 0 -25.5 9.5t-10.5 25.5v562q0 8 -0.5 26.5t-3 39.5t-6.5 32q10 6 39.5 12t90.5 6q141 0 207 -44.5t66 -146.5q0 -55 -23.5 -97t-66 -67.5t-96.5 -31.5l1 12q38 0 62 -16t40 -41t29 -55l52 -128q12 -27 21.5 -37.5t22.5 -11.5q5 0 14 3t16 12q4 -6 5 -11
t1 -10q0 -15 -9.5 -24.5t-21.5 -14t-22 -4.5q-19 0 -34.5 10t-27 28t-21.5 42l-53 134q-10 25 -22.5 48t-37.5 37.5t-73 14.5h-98l-8 33q21 -1 47 -1h61q49 0 89.5 20.5t64.5 58.5t24 91q0 88 -49.5 127t-158.5 39q-22 0 -37 -1t-24 -3v-567q0 -8 0.5 -26.5t3 -38t6.5 -32.5
q-4 -4 -12.5 -9t-21.5 -5zM289 737q-6 -2 -14 -2.5t-16 0t-14 2.5l-122 106q2 5 8 11.5t10 8.5l126 -78l125 78q5 -2 11 -8.5t7 -11.5z" />
    <glyph glyph-name="rcaron" unicode="&#x159;" horiz-adv-x="429" 
d="M131 -9q-14 0 -24 10t-10 27v389q0 28 -7 39.5t-22 11.5q-6 0 -14 -3t-13 -14q-11 14 -11 28q0 16 14 26.5t38 10.5q34 0 51.5 -24.5t16.5 -73.5v-81l-12 -3q8 90 47 136.5t98 46.5q49 0 79.5 -25.5t30.5 -74.5q0 -30 -15.5 -49.5t-34.5 -21.5q-17 -1 -25 7
q13 18 16 32.5t3 29.5q0 34 -17 49.5t-47 15.5q-28 0 -55 -22t-44.5 -73.5t-17.5 -140.5v-105.5t1 -66.5t3 -40t6 -27q-5 -4 -13.5 -9t-21.5 -5zM85 704l110 -89l108 89q6 0 16 -2.5t13 -6.5l-116 -130q-6 -1 -13.5 -2t-16 0t-14.5 2l-115 130q1 4 12 6.5t16 2.5z" />
    <glyph glyph-name="Sacute" unicode="&#x15a;" horiz-adv-x="550" 
d="M275 -13q-76 0 -124 21t-71 55.5t-23 74.5q0 18 5.5 30.5t18.5 18.5t35 2q-2 -8 -3 -17t-1 -21q2 -41 22.5 -70.5t57.5 -44.5t87 -15q71 0 115 32t44 97q0 42 -19.5 72t-57 56.5t-92.5 55.5q-55 31 -97.5 59.5t-66 64.5t-23.5 87q0 57 27.5 91.5t74 50.5t101.5 16
q86 0 139.5 -33.5t53.5 -92.5q0 -16 -6 -26t-23 -14q-11 -4 -28 0q3 9 3.5 18t-1.5 17q-1 33 -20.5 54.5t-51.5 32.5t-72 11q-34 0 -66 -10t-52.5 -33.5t-20.5 -64.5q0 -44 22 -73.5t59 -53t82 -47.5q57 -30 100.5 -61.5t69 -71t25.5 -92.5q0 -32 -11 -63t-36.5 -56.5
t-68.5 -41t-107 -15.5zM421 814l-164 -82q-4 2 -9 9.5t-6 11.5l133 107q9 -3 18 -10.5t16 -16.5t12 -19z" />
    <glyph glyph-name="sacute" unicode="&#x15b;" horiz-adv-x="465" 
d="M225 -13q-65 0 -106 17t-59.5 45.5t-18.5 61.5q0 16 5 28t17 18.5t32 2.5q-3 -9 -4 -17.5t0 -20.5q1 -49 38.5 -75t98.5 -26t100 22t39 64q0 34 -22 54.5t-56 36t-71 32.5q-39 19 -74.5 38.5t-58 49.5t-22.5 78q0 44 24 71t63 39t85 12q82 0 126.5 -27t44.5 -74
q0 -15 -6 -25.5t-21 -14.5q-6 -2 -12.5 -2t-14.5 2q3 9 3.5 18t-1.5 17q-3 37 -35 55t-87 18q-29 0 -55 -7t-42 -23.5t-16 -43.5q0 -35 18.5 -57.5t49 -38.5t64.5 -32q30 -14 60.5 -28t56.5 -31.5t41.5 -41.5t15.5 -59q0 -31 -17.5 -62t-60.5 -52.5t-122 -21.5zM361 696
l-125 -135q-7 -1 -17.5 0.5t-13.5 5.5l91 145q11 1 23.5 -1.5t23.5 -6t18 -8.5z" />
    <glyph glyph-name="Scircumflex" unicode="&#x15c;" horiz-adv-x="550" 
d="M275 -13q-76 0 -124 21t-71 55.5t-23 74.5q0 18 5.5 30.5t18.5 18.5t35 2q-2 -8 -3 -17t-1 -21q2 -41 22.5 -70.5t57.5 -44.5t87 -15q71 0 115 32t44 97q0 42 -19.5 72t-57 56.5t-92.5 55.5q-55 31 -97.5 59.5t-66 64.5t-23.5 87q0 57 27.5 91.5t74 50.5t101.5 16
q86 0 139.5 -33.5t53.5 -92.5q0 -16 -6 -26t-23 -14q-11 -4 -28 0q3 9 3.5 18t-1.5 17q-1 33 -20.5 54.5t-51.5 32.5t-72 11q-34 0 -66 -10t-52.5 -33.5t-20.5 -64.5q0 -44 22 -73.5t59 -53t82 -47.5q57 -30 100.5 -61.5t69 -71t25.5 -92.5q0 -32 -11 -63t-36.5 -56.5
t-68.5 -41t-107 -15.5zM297 856l121 -107q-1 -4 -7 -10.5t-11 -8.5l-125 78l-126 -78q-4 2 -10 8.5t-8 10.5l121 107q6 2 14.5 2.5t16.5 0t14 -2.5z" />
    <glyph glyph-name="scircumflex" unicode="&#x15d;" horiz-adv-x="465" 
d="M225 -13q-65 0 -106 17t-59.5 45.5t-18.5 61.5q0 16 5 28t17 18.5t32 2.5q-3 -9 -4 -17.5t0 -20.5q1 -49 38.5 -75t98.5 -26t100 22t39 64q0 34 -22 54.5t-56 36t-71 32.5q-39 19 -74.5 38.5t-58 49.5t-22.5 78q0 44 24 71t63 39t85 12q82 0 126.5 -27t44.5 -74
q0 -15 -6 -25.5t-21 -14.5q-6 -2 -12.5 -2t-14.5 2q3 9 3.5 18t-1.5 17q-3 37 -35 55t-87 18q-29 0 -55 -7t-42 -23.5t-16 -43.5q0 -35 18.5 -57.5t49 -38.5t64.5 -32q30 -14 60.5 -28t56.5 -31.5t41.5 -41.5t15.5 -59q0 -31 -17.5 -62t-60.5 -52.5t-122 -21.5zM122 559
q-6 0 -16.5 3t-12.5 7l115 129q6 2 14.5 2.5t16.5 0t14 -2.5l115 -129q-3 -4 -13 -7t-15 -3l-109 90z" />
    <glyph glyph-name="Scedilla" unicode="&#x15e;" horiz-adv-x="550" 
d="M275 -13q-76 0 -124 21t-71 55.5t-23 74.5q0 18 5.5 30.5t18.5 18.5t35 2q-2 -8 -3 -17t-1 -21q2 -41 22.5 -70.5t57.5 -44.5t87 -15q71 0 115 32t44 97q0 42 -19.5 72t-57 56.5t-92.5 55.5q-55 31 -97.5 59.5t-66 64.5t-23.5 87q0 57 27.5 91.5t74 50.5t101.5 16
q86 0 139.5 -33.5t53.5 -92.5q0 -16 -6 -26t-23 -14q-11 -4 -28 0q3 9 3.5 18t-1.5 17q-1 33 -20.5 54.5t-51.5 32.5t-72 11q-34 0 -66 -10t-52.5 -33.5t-20.5 -64.5q0 -44 22 -73.5t59 -53t82 -47.5q57 -30 100.5 -61.5t69 -71t25.5 -92.5q0 -32 -11 -63t-36.5 -56.5
t-68.5 -41t-107 -15.5zM293 5l-10 -50q42 0 65.5 -19.5t23.5 -52.5q0 -37 -27 -59.5t-70 -22.5q-34 0 -53.5 9.5t-30.5 20.5q-1 7 3.5 15.5t8.5 11.5q7 -5 20.5 -13.5t40.5 -8.5q24 0 38.5 11.5t14.5 34.5q0 21 -15.5 35.5t-60.5 10.5l15 77h37z" />
    <glyph glyph-name="scedilla" unicode="&#x15f;" horiz-adv-x="465" 
d="M225 -13q-65 0 -106 17t-59.5 45.5t-18.5 61.5q0 16 5 28t17 18.5t32 2.5q-3 -9 -4 -17.5t0 -20.5q1 -49 38.5 -75t98.5 -26t100 22t39 64q0 34 -22 54.5t-56 36t-71 32.5q-39 19 -74.5 38.5t-58 49.5t-22.5 78q0 44 24 71t63 39t85 12q82 0 126.5 -27t44.5 -74
q0 -15 -6 -25.5t-21 -14.5q-6 -2 -12.5 -2t-14.5 2q3 9 3.5 18t-1.5 17q-3 37 -35 55t-87 18q-29 0 -55 -7t-42 -23.5t-16 -43.5q0 -35 18.5 -57.5t49 -38.5t64.5 -32q30 -14 60.5 -28t56.5 -31.5t41.5 -41.5t15.5 -59q0 -31 -17.5 -62t-60.5 -52.5t-122 -21.5zM249 5
l-10 -50q42 0 65.5 -19.5t23.5 -52.5q0 -37 -27 -59.5t-70 -22.5q-34 0 -53.5 9.5t-30.5 20.5q-1 7 3.5 15.5t8.5 11.5q7 -5 20.5 -13.5t40.5 -8.5q24 0 38.5 11.5t14.5 34.5q0 21 -15.5 35.5t-60.5 10.5l15 77h37z" />
    <glyph glyph-name="Scaron" unicode="&#x160;" horiz-adv-x="550" 
d="M275 -13q-76 0 -124 21t-71 55.5t-23 74.5q0 18 5.5 30.5t18.5 18.5t35 2q-2 -8 -3 -17t-1 -21q2 -41 22.5 -70.5t57.5 -44.5t87 -15q71 0 115 32t44 97q0 42 -19.5 72t-57 56.5t-92.5 55.5q-55 31 -97.5 59.5t-66 64.5t-23.5 87q0 57 27.5 91.5t74 50.5t101.5 16
q86 0 139.5 -33.5t53.5 -92.5q0 -16 -6 -26t-23 -14q-11 -4 -28 0q3 9 3.5 18t-1.5 17q-1 33 -20.5 54.5t-51.5 32.5t-72 11q-34 0 -66 -10t-52.5 -33.5t-20.5 -64.5q0 -44 22 -73.5t59 -53t82 -47.5q57 -30 100.5 -61.5t69 -71t25.5 -92.5q0 -32 -11 -63t-36.5 -56.5
t-68.5 -41t-107 -15.5zM298 737q-6 -2 -14 -2.5t-16 0t-14 2.5l-122 106q2 5 8 11.5t10 8.5l126 -78l125 78q5 -2 11 -8.5t7 -11.5z" />
    <glyph glyph-name="scaron" unicode="&#x161;" horiz-adv-x="465" 
d="M225 -13q-65 0 -106 17t-59.5 45.5t-18.5 61.5q0 16 5 28t17 18.5t32 2.5q-3 -9 -4 -17.5t0 -20.5q1 -49 38.5 -75t98.5 -26t100 22t39 64q0 34 -22 54.5t-56 36t-71 32.5q-39 19 -74.5 38.5t-58 49.5t-22.5 78q0 44 24 71t63 39t85 12q82 0 126.5 -27t44.5 -74
q0 -15 -6 -25.5t-21 -14.5q-6 -2 -12.5 -2t-14.5 2q3 9 3.5 18t-1.5 17q-3 37 -35 55t-87 18q-29 0 -55 -7t-42 -23.5t-16 -43.5q0 -35 18.5 -57.5t49 -38.5t64.5 -32q30 -14 60.5 -28t56.5 -31.5t41.5 -41.5t15.5 -59q0 -31 -17.5 -62t-60.5 -52.5t-122 -21.5zM123 705
l110 -90l108 90q6 0 16 -2.5t13 -7.5l-116 -129q-6 -2 -13.5 -2.5t-16 0t-14.5 2.5l-116 129q2 5 13 7.5t16 2.5z" />
    <glyph glyph-name="uni0162" unicode="&#x162;" horiz-adv-x="518" 
d="M265 -10q-15 0 -24.5 9.5t-9.5 25.5l-2 651l60 -2l1 -571q0 -30 2 -55.5t8 -43.5q-5 -4 -13.5 -9t-21.5 -5zM37 639q-7 2 -12 10.5t-6.5 18t1.5 16.5t10 7h458q8 0 10.5 -7t1 -16.5t-6.5 -18t-11 -10.5q-35 4 -73 9t-76.5 8t-76.5 3q-36 0 -73.5 -3t-74.5 -8t-71 -9z
M286 5l-10 -50q42 0 65.5 -19.5t23.5 -52.5q0 -37 -27 -59.5t-70 -22.5q-34 0 -53.5 9.5t-30.5 20.5q-1 7 3.5 15.5t8.5 11.5q7 -5 20.5 -13.5t40.5 -8.5q24 0 38.5 11.5t14.5 34.5q0 21 -15.5 35.5t-60.5 10.5l15 77h37z" />
    <glyph glyph-name="uni0163" unicode="&#x163;" horiz-adv-x="333" 
d="M193 -11q-42 0 -67 26t-25 73v514q0 17 10 26t26 9q13 0 21 -5t13 -9q-7 -21 -8.5 -67t-1.5 -129l-1 -336q0 -25 12.5 -40t37.5 -15q15 0 29.5 6t20.5 18q5 -7 7.5 -14t2.5 -13q0 -20 -22.5 -32t-54.5 -12zM27 466l1 19q1 9 6 14t12 5h171q4 0 14 0.5t21.5 1t21.5 1
t14 0.5l-1 -19q-1 -9 -5.5 -14t-11.5 -5h-183q-10 0 -30 -0.5t-30 -2.5zM204 5l-10 -50q42 0 65.5 -19.5t23.5 -52.5q0 -37 -27 -59.5t-70 -22.5q-34 0 -53.5 9.5t-30.5 20.5q-1 7 3.5 15.5t8.5 11.5q7 -5 20.5 -13.5t40.5 -8.5q24 0 38.5 11.5t14.5 34.5q0 21 -15.5 35.5
t-60.5 10.5l15 77h37z" />
    <glyph glyph-name="Tcaron" unicode="&#x164;" horiz-adv-x="518" 
d="M265 -10q-15 0 -24.5 9.5t-9.5 25.5l-2 651l60 -2l1 -571q0 -30 2 -55.5t8 -43.5q-5 -4 -13.5 -9t-21.5 -5zM37 639q-7 2 -12 10.5t-6.5 18t1.5 16.5t10 7h458q8 0 10.5 -7t1 -16.5t-6.5 -18t-11 -10.5q-35 4 -73 9t-76.5 8t-76.5 3q-36 0 -73.5 -3t-74.5 -8t-71 -9z
M281 737q-6 -2 -14 -2.5t-16 0t-14 2.5l-122 106q2 5 8 11.5t10 8.5l126 -78l125 78q5 -2 11 -8.5t7 -11.5z" />
    <glyph glyph-name="tcaron" unicode="&#x165;" horiz-adv-x="347" 
d="M193 -11q-42 0 -67 26t-25 73v514q0 17 10 26t26 9q13 0 21 -5t13 -9q-7 -21 -8.5 -67t-1.5 -129l-1 -336q0 -25 12.5 -40t37.5 -15q15 0 29.5 6t20.5 18q5 -7 7.5 -14t2.5 -13q0 -20 -22.5 -32t-54.5 -12zM27 466l1 19q1 9 6 14t12 5h171q4 0 14 0.5t21.5 1t21.5 1
t14 0.5l-1 -19q-1 -9 -5.5 -14t-11.5 -5h-183q-10 0 -30 -0.5t-30 -2.5zM225 557q3 31 1 66.5t-10 69.5q13 4 29 4t29 -4q1 -35 -4 -70t-13 -66h-32z" />
    <glyph glyph-name="Utilde" unicode="&#x168;" horiz-adv-x="651" 
d="M562 664v-359q0 -157 -60 -237.5t-177 -80.5q-116 0 -173 77t-57 241v282q0 30 -2 55t-7 43q4 5 12.5 9.5t21.5 4.5q15 0 24.5 -9t9.5 -26v-361q0 -146 41.5 -214t129.5 -68q90 0 134.5 71.5t44.5 210.5v284q0 30 -2 55t-8 43q5 5 13 9.5t21 4.5q15 0 24.5 -9t9.5 -26z
M463 823q-7 -32 -27.5 -52t-50.5 -20q-24 0 -44.5 10.5t-39 20.5t-39.5 10q-22 0 -35.5 -10t-20.5 -30q-5 -1 -11 2t-11 8q8 40 30 57.5t51 17.5q26 0 45.5 -10t38.5 -20.5t42 -10.5q22 0 31.5 10t17.5 26q8 0 13 -2t10 -7z" />
    <glyph glyph-name="utilde" unicode="&#x169;" horiz-adv-x="560" 
d="M429 517q15 0 24.5 -9.5t9.5 -27.5l1 -390q0 -28 6.5 -39t22.5 -11q5 0 13 2.5t13 13.5q11 -14 11 -28q0 -16 -13.5 -26t-37.5 -10q-36 0 -53 23t-17 69v85l14 14q-5 -61 -30.5 -104.5t-65 -67.5t-88.5 -24q-79 0 -117 48t-39 166v203q0 28 -2.5 54.5t-7.5 44.5
q6 5 14 9.5t20 4.5q15 0 24.5 -9t9.5 -26l1 -275q0 -68 11 -108t35.5 -57t65.5 -17q24 0 50 12t49 40t37.5 73.5t14.5 113.5v106t-1 66t-3.5 40t-5.5 27q4 5 12.5 9.5t21.5 4.5zM406 660q-6 -33 -26 -55.5t-52 -22.5q-26 0 -44.5 12t-35.5 24.5t-41 12.5q-21 0 -37 -12
t-22 -32q-5 -1 -11 2t-10 7q7 41 31.5 59t52.5 18q27 0 45.5 -12.5t36.5 -24.5t41 -12q22 0 32.5 13t17.5 32q8 0 13 -2t9 -7z" />
    <glyph glyph-name="Umacron" unicode="&#x16a;" horiz-adv-x="651" 
d="M562 664v-359q0 -157 -60 -237.5t-177 -80.5q-116 0 -173 77t-57 241v282q0 30 -2 55t-7 43q4 5 12.5 9.5t21.5 4.5q15 0 24.5 -9t9.5 -26v-361q0 -146 41.5 -214t129.5 -68q90 0 134.5 71.5t44.5 210.5v284q0 30 -2 55t-8 43q5 5 13 9.5t21 4.5q15 0 24.5 -9t9.5 -26z
M201 807h248q7 -19 0 -38h-248q-7 19 0 38z" />
    <glyph glyph-name="umacron" unicode="&#x16b;" horiz-adv-x="560" 
d="M429 517q15 0 24.5 -9.5t9.5 -27.5l1 -390q0 -28 6.5 -39t22.5 -11q5 0 13 2.5t13 13.5q11 -14 11 -28q0 -16 -13.5 -26t-37.5 -10q-36 0 -53 23t-17 69v85l14 14q-5 -61 -30.5 -104.5t-65 -67.5t-88.5 -24q-79 0 -117 48t-39 166v203q0 28 -2.5 54.5t-7.5 44.5
q6 5 14 9.5t20 4.5q15 0 24.5 -9t9.5 -26l1 -275q0 -68 11 -108t35.5 -57t65.5 -17q24 0 50 12t49 40t37.5 73.5t14.5 113.5v106t-1 66t-3.5 40t-5.5 27q4 5 12.5 9.5t21.5 4.5zM143 636h248q7 -18 0 -36h-248q-7 18 0 36z" />
    <glyph glyph-name="Ubreve" unicode="&#x16c;" horiz-adv-x="651" 
d="M562 664v-359q0 -157 -60 -237.5t-177 -80.5q-116 0 -173 77t-57 241v282q0 30 -2 55t-7 43q4 5 12.5 9.5t21.5 4.5q15 0 24.5 -9t9.5 -26v-361q0 -146 41.5 -214t129.5 -68q90 0 134.5 71.5t44.5 210.5v284q0 30 -2 55t-8 43q5 5 13 9.5t21 4.5q15 0 24.5 -9t9.5 -26z
M452 832q-10 -28 -27.5 -50.5t-42.5 -35.5t-59 -13t-58.5 13.5t-40.5 35.5t-25 46q8 4 16 7.5t15 7.5q13 -29 38 -46t61 -17q37 0 60 18.5t34 43.5q8 -3 14.5 -5.5t14.5 -4.5z" />
    <glyph glyph-name="ubreve" unicode="&#x16d;" horiz-adv-x="560" 
d="M429 517q15 0 24.5 -9.5t9.5 -27.5l1 -390q0 -28 6.5 -39t22.5 -11q5 0 13 2.5t13 13.5q11 -14 11 -28q0 -16 -13.5 -26t-37.5 -10q-36 0 -53 23t-17 69v85l14 14q-5 -61 -30.5 -104.5t-65 -67.5t-88.5 -24q-79 0 -117 48t-39 166v203q0 28 -2.5 54.5t-7.5 44.5
q6 5 14 9.5t20 4.5q15 0 24.5 -9t9.5 -26l1 -275q0 -68 11 -108t35.5 -57t65.5 -17q24 0 50 12t49 40t37.5 73.5t14.5 113.5v106t-1 66t-3.5 40t-5.5 27q4 5 12.5 9.5t21.5 4.5zM268 611q33 0 54 13t34 31.5t19 34.5q8 -2 15 -3.5t15 -4.5q-8 -31 -26 -57.5t-45.5 -42.5
t-66.5 -16q-46 0 -75.5 18.5t-45.5 44.5t-22 50q7 6 14.5 8.5t15.5 3.5q7 -17 21.5 -36t37 -31.5t55.5 -12.5z" />
    <glyph glyph-name="Uring" unicode="&#x16e;" horiz-adv-x="651" 
d="M562 664v-359q0 -157 -60 -237.5t-177 -80.5q-116 0 -173 77t-57 241v282q0 30 -2 55t-7 43q4 5 12.5 9.5t21.5 4.5q15 0 24.5 -9t9.5 -26v-361q0 -146 41.5 -214t129.5 -68q90 0 134.5 71.5t44.5 210.5v284q0 30 -2 55t-8 43q5 5 13 9.5t21 4.5q15 0 24.5 -9t9.5 -26z
M330 901q38 0 61.5 -21.5t23.5 -57.5q-1 -38 -25 -60.5t-64 -22.5q-38 0 -61.5 22t-23.5 57q0 38 25 60.5t64 22.5zM328 875q-23 0 -37 -14.5t-14 -40.5q0 -25 14 -40t37 -15q24 0 37.5 15t13.5 40q0 26 -13.5 40.5t-37.5 14.5z" />
    <glyph glyph-name="uring" unicode="&#x16f;" horiz-adv-x="560" 
d="M429 517q15 0 24.5 -9.5t9.5 -27.5l1 -390q0 -28 6.5 -39t22.5 -11q5 0 13 2.5t13 13.5q11 -14 11 -28q0 -16 -13.5 -26t-37.5 -10q-36 0 -53 23t-17 69v85l14 14q-5 -61 -30.5 -104.5t-65 -67.5t-88.5 -24q-79 0 -117 48t-39 166v203q0 28 -2.5 54.5t-7.5 44.5
q6 5 14 9.5t20 4.5q15 0 24.5 -9t9.5 -26l1 -275q0 -68 11 -108t35.5 -57t65.5 -17q24 0 50 12t49 40t37.5 73.5t14.5 113.5v106t-1 66t-3.5 40t-5.5 27q4 5 12.5 9.5t21.5 4.5zM271 715q38 0 61.5 -21.5t23.5 -57.5q-1 -38 -25 -60.5t-64 -22.5q-38 0 -61.5 22t-23.5 57
q0 38 25 60.5t64 22.5zM269 689q-23 0 -37 -14.5t-14 -40.5q0 -25 14 -40t37 -15q24 0 37.5 15t13.5 40q0 26 -13.5 40.5t-37.5 14.5z" />
    <glyph glyph-name="Uhungarumlaut" unicode="&#x170;" horiz-adv-x="651" 
d="M562 664v-359q0 -157 -60 -237.5t-177 -80.5q-116 0 -173 77t-57 241v282q0 30 -2 55t-7 43q4 5 12.5 9.5t21.5 4.5q15 0 24.5 -9t9.5 -26v-361q0 -146 41.5 -214t129.5 -68q90 0 134.5 71.5t44.5 210.5v284q0 30 -2 55t-8 43q5 5 13 9.5t21 4.5q15 0 24.5 -9t9.5 -26z
M403 841l-139 -111q-6 1 -12 7t-8 10l105 128q9 -2 19 -6.5t19.5 -12t15.5 -15.5zM524 838l-140 -111q-5 2 -11 8t-8 10l105 128q10 -2 19.5 -6.5t19 -12t15.5 -16.5z" />
    <glyph glyph-name="uhungarumlaut" unicode="&#x171;" horiz-adv-x="560" 
d="M429 517q15 0 24.5 -9.5t9.5 -27.5l1 -390q0 -28 6.5 -39t22.5 -11q5 0 13 2.5t13 13.5q11 -14 11 -28q0 -16 -13.5 -26t-37.5 -10q-36 0 -53 23t-17 69v85l14 14q-5 -61 -30.5 -104.5t-65 -67.5t-88.5 -24q-79 0 -117 48t-39 166v203q0 28 -2.5 54.5t-7.5 44.5
q6 5 14 9.5t20 4.5q15 0 24.5 -9t9.5 -26l1 -275q0 -68 11 -108t35.5 -57t65.5 -17q24 0 50 12t49 40t37.5 73.5t14.5 113.5v106t-1 66t-3.5 40t-5.5 27q4 5 12.5 9.5t21.5 4.5zM345 693l-148 -152q-6 2 -12.5 7t-9.5 9l115 163q14 -1 29 -8t26 -19zM481 694l-148 -153
q-5 2 -12 7.5t-10 8.5l116 163q14 -1 28.5 -8t25.5 -18z" />
    <glyph glyph-name="Uogonek" unicode="&#x172;" horiz-adv-x="651" 
d="M562 664v-359q0 -157 -60 -237.5t-177 -80.5q-116 0 -173 77t-57 241v282q0 30 -2 55t-7 43q4 5 12.5 9.5t21.5 4.5q15 0 24.5 -9t9.5 -26v-361q0 -146 41.5 -214t129.5 -68q90 0 134.5 71.5t44.5 210.5v284q0 30 -2 55t-8 43q5 5 13 9.5t21 4.5q15 0 24.5 -9t9.5 -26z
M380 -167q-21 0 -41 7.5t-33 24.5t-13 44q0 30 17 52t44 37t56 23l9 -17q-37 -18 -58 -38t-21 -50q0 -22 12.5 -36.5t38.5 -14.5q32 0 53.5 18t30.5 35q6 -4 8.5 -9.5t0.5 -13.5q-13 -28 -41 -45t-63 -17z" />
    <glyph glyph-name="uogonek" unicode="&#x173;" horiz-adv-x="560" 
d="M429 517q15 0 24.5 -9.5t9.5 -27.5l1 -390q0 -28 6.5 -39t22.5 -11q5 0 13 2.5t13 13.5q11 -14 11 -28q0 -16 -13.5 -26t-37.5 -10q-36 0 -53 23t-17 69v85l14 14q-5 -61 -30.5 -104.5t-65 -67.5t-88.5 -24q-79 0 -117 48t-39 166v203q0 28 -2.5 54.5t-7.5 44.5
q6 5 14 9.5t20 4.5q15 0 24.5 -9t9.5 -26l1 -275q0 -68 11 -108t35.5 -57t65.5 -17q24 0 50 12t49 40t37.5 73.5t14.5 113.5v106t-1 66t-3.5 40t-5.5 27q4 5 12.5 9.5t21.5 4.5zM475 -169q-21 0 -41 7.5t-33 24.5t-13 44q0 30 17 52t44 37t56 23l9 -17q-37 -18 -58 -38
t-21 -50q0 -22 12.5 -36.5t38.5 -14.5q32 0 53.5 18t30.5 35q6 -4 8.5 -9.5t0.5 -13.5q-13 -28 -41 -45t-63 -17z" />
    <glyph glyph-name="Wcircumflex" unicode="&#x174;" horiz-adv-x="907" 
d="M848 702q19 0 28.5 -7t8.5 -21q0 -7 -2.5 -17.5t-5.5 -19.5l-180 -636q-11 -6 -21.5 -8.5t-18.5 -2.5q-15 0 -26 6t-14 17l-157 532l-162 -544q-12 -6 -22.5 -8.5t-17.5 -2.5q-17 0 -28 6t-14 17l-173 636q-3 11 -9 22t-12 18q6 6 15 10t22 4q15 0 25.5 -6t13.5 -18
l166 -635l160 541q4 14 2.5 23t-3.5 15q8 5 20 7.5t20 2.5q10 0 18 -2.5t11 -8.5l171 -578l154 606q2 6 3.5 14t1.5 14q0 5 -0.5 10t-3.5 9q7 3 14 4t16 1zM478 856l121 -107q-1 -4 -7 -10.5t-11 -8.5l-125 78l-126 -78q-4 2 -10 8.5t-8 10.5l121 107q6 2 14.5 2.5t16.5 0
t14 -2.5z" />
    <glyph glyph-name="wcircumflex" unicode="&#x175;" horiz-adv-x="761" 
d="M216 -10q-13 0 -22.5 6t-14.5 19l-141 439q-2 7 -8 20t-12 19q6 7 14.5 11t20.5 4q14 0 24 -6t13 -19l134 -448l117 421q2 5 3.5 13t1.5 14t-0.5 11t-3.5 9q9 3 20 5.5t21 2.5q12 0 21.5 -3.5t14.5 -13.5l128 -459l125 421q2 6 3.5 13.5t1.5 13.5t-0.5 11t-3.5 9
q7 3 13.5 4t16.5 1q18 0 27 -7.5t8 -21.5q0 -7 -2 -17t-6 -19l-147 -442q-11 -5 -21 -8t-20 -3q-12 0 -24 6t-15 19l-120 428l-123 -442q-11 -5 -22 -8t-22 -3zM269 559q-6 0 -16.5 3t-12.5 7l115 129q6 2 14.5 2.5t16.5 0t14 -2.5l115 -129q-3 -4 -13 -7t-15 -3l-109 90z
" />
    <glyph glyph-name="Ycircumflex" unicode="&#x176;" horiz-adv-x="536" 
d="M268 228q-10 1 -16 4.5t-10.5 10t-7.5 11.5l-189 389q-5 10 -13.5 21t-15.5 19q6 6 17 12.5t26 6.5q17 0 25.5 -8.5t15.5 -22.5l188 -403l-26 -9l183 385q10 21 10 32q0 6 -1 11.5t-4 9.5q7 3 14 4t18 1q15 0 23 -9t9 -23q0 -7 -4 -17.5t-11 -21.5l-203 -392zM298 265
l1 -162q0 -30 2 -55.5t8 -43.5q-5 -4 -13.5 -9t-21.5 -5q-15 0 -24.5 9.5t-9.5 25.5v234zM305 856l121 -107q-1 -4 -7 -10.5t-11 -8.5l-125 78l-126 -78q-4 2 -10 8.5t-8 10.5l121 107q6 2 14.5 2.5t16.5 0t14 -2.5z" />
    <glyph glyph-name="ycircumflex" unicode="&#x177;" horiz-adv-x="542" 
d="M238 -236q-40 0 -77.5 10.5t-61.5 34.5t-24 64q0 26 13 44.5t35 18.5q20 0 30 -13q-15 -8 -19 -22t-4 -23q0 -31 17 -49t41.5 -25.5t48.5 -7.5q90 0 130 64t40 194q0 19 1 40.5t2 43.5t2 42l11 13q-8 -93 -57.5 -147.5t-133.5 -54.5q-72 0 -110 47.5t-39 165.5v200
q0 30 -2.5 55.5t-7.5 43.5q6 5 14 9.5t20 4.5q15 0 24.5 -9t9.5 -26l1 -273q0 -96 24 -138.5t79 -42.5q29 0 57 12.5t51.5 40.5t37.5 75t14 115v103t-1 64t-3.5 38.5t-5.5 26.5q4 5 12.5 9.5t21.5 4.5q15 0 24.5 -9.5t9.5 -27.5l1 -432q0 -107 -29.5 -169t-80.5 -88.5
t-116 -26.5zM167 559q-6 0 -16.5 3t-12.5 7l115 129q6 2 14.5 2.5t16.5 0t14 -2.5l115 -129q-3 -4 -13 -7t-15 -3l-109 90z" />
    <glyph glyph-name="Ydieresis" unicode="&#x178;" horiz-adv-x="536" 
d="M268 228q-10 1 -16 4.5t-10.5 10t-7.5 11.5l-189 389q-5 10 -13.5 21t-15.5 19q6 6 17 12.5t26 6.5q17 0 25.5 -8.5t15.5 -22.5l188 -403l-26 -9l183 385q10 21 10 32q0 6 -1 11.5t-4 9.5q7 3 14 4t18 1q15 0 23 -9t9 -23q0 -7 -4 -17.5t-11 -21.5l-203 -392zM298 265
l1 -162q0 -30 2 -55.5t8 -43.5q-5 -4 -13.5 -9t-21.5 -5q-15 0 -24.5 9.5t-9.5 25.5v234zM199 759q-18 0 -31 13t-13 30q0 19 13 31.5t31 12.5t31 -12.5t13 -31.5q0 -17 -13 -30t-31 -13zM373 759q-17 0 -30 13t-13 30q0 19 13 31.5t30 12.5q19 0 31.5 -12.5t12.5 -31.5
q0 -17 -12.5 -30t-31.5 -13z" />
    <glyph glyph-name="Zacute" unicode="&#x179;" horiz-adv-x="565" 
d="M63 -6l-13 20q0 16 6 31t17 30l387 582l12 -12l-282 -5q-42 0 -62.5 -15.5t-23.5 -38.5q-2 -23 6.5 -39t27.5 -30q-14 -5 -32 0q-23 3 -37.5 28.5t-14.5 53.5q0 39 32.5 66.5t98.5 26.5l181 -2q46 0 76 1t49 6l17 -18q0 -20 -5 -36t-16 -30l-393 -585l-5 19l293 5
q55 0 76.5 18.5t24.5 42.5q4 26 -6.5 46.5t-24.5 31.5q9 2 13 2.5t10 0.5q20 -3 33 -18.5t20 -36t7 -39.5q0 -42 -32.5 -71.5t-102.5 -29.5l-222 2q-30 1 -58 0t-57 -7zM432 814l-164 -82q-4 2 -9 9.5t-6 11.5l133 107q9 -3 18 -10.5t16 -16.5t12 -19z" />
    <glyph glyph-name="zacute" unicode="&#x17a;" horiz-adv-x="484" 
d="M48 -6l-10 16q0 13 4.5 25t13.5 23l326 413l10 -11l-233 -5q-34 0 -50 -14.5t-19 -31.5q-2 -16 3 -28.5t15 -21.5q-4 -3 -9 -3.5t-11 0.5q-25 4 -37.5 25.5t-12.5 41.5q0 35 28.5 60t86.5 24l170 -2q33 0 56 0.5t37 4.5l11 -14q0 -16 -3 -29.5t-16 -30.5l-316 -402
l-10 14l241 3q42 0 60 18.5t21 40.5q2 17 -4 32.5t-16 23.5q13 3 22 1q19 -2 29.5 -15.5t14.5 -30t4 -29.5q0 -41 -31 -67.5t-85 -26.5l-194 2q-22 0 -47.5 -1t-48.5 -5zM371 697l-125 -135q-7 -1 -17.5 0.5t-13.5 5.5l91 145q11 1 23.5 -1.5t23.5 -6t18 -8.5z" />
    <glyph glyph-name="Zdotaccent" unicode="&#x17b;" horiz-adv-x="565" 
d="M63 -6l-13 20q0 16 6 31t17 30l387 582l12 -12l-282 -5q-42 0 -62.5 -15.5t-23.5 -38.5q-2 -23 6.5 -39t27.5 -30q-14 -5 -32 0q-23 3 -37.5 28.5t-14.5 53.5q0 39 32.5 66.5t98.5 26.5l181 -2q46 0 76 1t49 6l17 -18q0 -20 -5 -36t-16 -30l-393 -585l-5 19l293 5
q55 0 76.5 18.5t24.5 42.5q4 26 -6.5 46.5t-24.5 31.5q9 2 13 2.5t10 0.5q20 -3 33 -18.5t20 -36t7 -39.5q0 -42 -32.5 -71.5t-102.5 -29.5l-222 2q-30 1 -58 0t-57 -7zM287 752q-17 0 -30.5 13.5t-13.5 30.5q0 18 13.5 31t30.5 13q18 0 31 -13t13 -31q0 -17 -13 -30.5
t-31 -13.5z" />
    <glyph glyph-name="zdotaccent" unicode="&#x17c;" horiz-adv-x="484" 
d="M48 -6l-10 16q0 13 4.5 25t13.5 23l326 413l10 -11l-233 -5q-34 0 -50 -14.5t-19 -31.5q-2 -16 3 -28.5t15 -21.5q-4 -3 -9 -3.5t-11 0.5q-25 4 -37.5 25.5t-12.5 41.5q0 35 28.5 60t86.5 24l170 -2q33 0 56 0.5t37 4.5l11 -14q0 -16 -3 -29.5t-16 -30.5l-316 -402
l-10 14l241 3q42 0 60 18.5t21 40.5q2 17 -4 32.5t-16 23.5q13 3 22 1q19 -2 29.5 -15.5t14.5 -30t4 -29.5q0 -41 -31 -67.5t-85 -26.5l-194 2q-22 0 -47.5 -1t-48.5 -5zM241 574q-18 0 -31 13.5t-13 30.5q0 18 13 31t31 13t30.5 -13t12.5 -31q0 -17 -12.5 -30.5
t-30.5 -13.5z" />
    <glyph glyph-name="Zcaron" unicode="&#x17d;" horiz-adv-x="565" 
d="M63 -6l-13 20q0 16 6 31t17 30l387 582l12 -12l-282 -5q-42 0 -62.5 -15.5t-23.5 -38.5q-2 -23 6.5 -39t27.5 -30q-14 -5 -32 0q-23 3 -37.5 28.5t-14.5 53.5q0 39 32.5 66.5t98.5 26.5l181 -2q46 0 76 1t49 6l17 -18q0 -20 -5 -36t-16 -30l-393 -585l-5 19l293 5
q55 0 76.5 18.5t24.5 42.5q4 26 -6.5 46.5t-24.5 31.5q9 2 13 2.5t10 0.5q20 -3 33 -18.5t20 -36t7 -39.5q0 -42 -32.5 -71.5t-102.5 -29.5l-222 2q-30 1 -58 0t-57 -7zM309 737q-6 -2 -14 -2.5t-16 0t-14 2.5l-122 106q2 5 8 11.5t10 8.5l126 -78l125 78q5 -2 11 -8.5
t7 -11.5z" />
    <glyph glyph-name="zcaron" unicode="&#x17e;" horiz-adv-x="484" 
d="M48 -6l-10 16q0 13 4.5 25t13.5 23l326 413l10 -11l-233 -5q-34 0 -50 -14.5t-19 -31.5q-2 -16 3 -28.5t15 -21.5q-4 -3 -9 -3.5t-11 0.5q-25 4 -37.5 25.5t-12.5 41.5q0 35 28.5 60t86.5 24l170 -2q33 0 56 0.5t37 4.5l11 -14q0 -16 -3 -29.5t-16 -30.5l-316 -402
l-10 14l241 3q42 0 60 18.5t21 40.5q2 17 -4 32.5t-16 23.5q13 3 22 1q19 -2 29.5 -15.5t14.5 -30t4 -29.5q0 -41 -31 -67.5t-85 -26.5l-194 2q-22 0 -47.5 -1t-48.5 -5zM134 705l109 -89l109 89q6 0 15.5 -2.5t12.5 -7.5l-115 -129q-6 -2 -14 -2.5t-16 0.5t-14 2l-116 129
q2 5 13 7.5t16 2.5z" />
    <glyph glyph-name="uni018F" unicode="&#x18f;" horiz-adv-x="601" 
d="M277 703q126 0 197 -90t71 -266q0 -111 -31 -191.5t-92 -124.5t-151 -44q-63 0 -111.5 21.5t-76 63t-27.5 102.5q0 66 28.5 110t82 66t127.5 22q44 0 83 -2t74.5 -6t66.5 -11l-1 -29q-26 5 -62 8.5t-73.5 5.5t-67.5 2q-42 0 -77.5 -9.5t-62 -30.5t-41 -53.5t-14.5 -79.5
q0 -58 23.5 -89.5t59 -45t72.5 -13.5q63 0 109.5 36t72.5 107.5t26 178.5q0 91 -17 152.5t-47.5 98t-70 52t-83.5 15.5q-41 0 -79 -11.5t-66 -35t-40 -60.5q-9 4 -13.5 14t5.5 33q23 52 79 78t127 26z" />
    <glyph glyph-name="florin" unicode="&#x192;" horiz-adv-x="375" 
d="M106 -184q-15 0 -23.5 9.5t-7.5 25.5l36 714q1 30 9 61t26 57t50 42t81 16q54 0 87.5 -22t31.5 -63q-1 -31 -19.5 -48t-34.5 -17q-7 0 -12.5 1.5t-8.5 5.5q13 16 17 29.5t5 23.5q2 32 -18 45t-52 13q-42 0 -63.5 -22t-29 -57.5t-10.5 -73.5l-34 -628q-1 -27 0 -54t5 -44
q-6 -6 -14.5 -10t-20.5 -4zM29 466l1 19q2 9 7 14t12 5h198q4 0 13.5 0.5t21 1t21 1t13.5 0.5l-2 -19q-1 -9 -5.5 -14t-12.5 -5h-207q-10 0 -30 -0.5t-30 -2.5z" />
    <glyph glyph-name="Ohorn" unicode="&#x1a0;" horiz-adv-x="646" 
d="M323 -13q-124 0 -191.5 88t-67.5 270q0 183 67.5 270.5t191.5 87.5t191.5 -87.5t67.5 -270.5q0 -182 -67.5 -270t-191.5 -88zM323 21q93 0 143.5 78t50.5 246q0 169 -50.5 247t-143.5 78t-143.5 -78t-50.5 -247q0 -168 50.5 -246t143.5 -78zM494 608l-11 28q29 10 41 24
t12 33q0 10 -4.5 23t-15.5 26q6 4 14 9t18 10t17 6q12 -12 18.5 -30.5t6.5 -35.5q0 -23 -12.5 -41t-33.5 -30.5t-50 -21.5z" />
    <glyph glyph-name="ohorn" unicode="&#x1a1;" horiz-adv-x="542" 
d="M271 -13q-106 0 -164.5 70t-58.5 195t58.5 195t164.5 70q105 0 164 -70t59 -195t-59 -195t-164 -70zM271 20q76 0 117.5 61t41.5 171q0 111 -41.5 171.5t-117.5 60.5t-118 -60.5t-42 -171.5q0 -110 42 -171t118 -61zM363 470l-11 28q28 11 40 24.5t12 32.5q0 10 -4 23
t-15 26q5 5 13.5 9.5t18 9.5t17.5 6q12 -12 18 -30.5t6 -35.5q0 -22 -12 -40t-33 -31t-50 -22z" />
    <glyph glyph-name="Uhorn" unicode="&#x1af;" horiz-adv-x="651" 
d="M562 664v-359q0 -157 -60 -237.5t-177 -80.5q-116 0 -173 77t-57 241v282q0 30 -2 55t-7 43q4 5 12.5 9.5t21.5 4.5q15 0 24.5 -9t9.5 -26v-361q0 -146 41.5 -214t129.5 -68q90 0 134.5 71.5t44.5 210.5v284q0 30 -2 55t-8 43q5 5 13 9.5t21 4.5q15 0 24.5 -9t9.5 -26z
M525 668l-11 28q29 11 41 25t12 33q0 10 -4.5 23t-15.5 25q6 5 14 10t17.5 9.5t17.5 6.5q12 -12 18 -31t6 -35q0 -23 -12 -41t-33 -30.5t-50 -22.5z" />
    <glyph glyph-name="uhorn" unicode="&#x1b0;" horiz-adv-x="560" 
d="M429 517q15 0 24.5 -9.5t9.5 -27.5l1 -390q0 -28 6.5 -39t22.5 -11q5 0 13 2.5t13 13.5q11 -14 11 -28q0 -16 -13.5 -26t-37.5 -10q-36 0 -53 23t-17 69v85l14 14q-5 -61 -30.5 -104.5t-65 -67.5t-88.5 -24q-79 0 -117 48t-39 166v203q0 28 -2.5 54.5t-7.5 44.5
q6 5 14 9.5t20 4.5q15 0 24.5 -9t9.5 -26l1 -275q0 -68 11 -108t35.5 -57t65.5 -17q24 0 50 12t49 40t37.5 73.5t14.5 113.5v106t-1 66t-3.5 40t-5.5 27q4 5 12.5 9.5t21.5 4.5zM440 469l-12 29q29 10 41 24t12 33q0 10 -4 23t-15 26q5 4 13.5 9t18 9.5t17.5 6.5
q12 -12 18 -31t6 -35q0 -23 -12 -41t-33 -30.5t-50 -22.5z" />
    <glyph glyph-name="uni01CD" unicode="&#x1cd;" horiz-adv-x="580" 
d="M304 703q13 0 23.5 -5.5t14.5 -18.5l211 -634q4 -11 9 -21.5t11 -18.5q-5 -6 -13 -10.5t-21 -4.5q-14 0 -25 6.5t-14 18.5l-214 664l13 -1l-202 -635q-1 -6 -3 -13.5t-2 -14.5q0 -5 1 -10.5t3 -8.5q-7 -2 -14.5 -4t-17.5 -2q-17 0 -26 7.5t-8 21.5q0 7 2.5 17t5.5 20
l218 637q24 10 48 10zM144 265h312v-39h-312v39zM318 737q-6 -2 -14 -2.5t-16 0t-14 2.5l-122 106q2 5 8 11.5t10 8.5l126 -78l125 78q5 -2 11 -8.5t7 -11.5z" />
    <glyph glyph-name="uni01CE" unicode="&#x1ce;" horiz-adv-x="543" 
d="M471 -10q-39 0 -58.5 27t-19.5 80v107l16 -10q-19 -62 -55.5 -108.5t-83.5 -71.5t-99 -25q-59 0 -90.5 32t-31.5 83q0 39 19.5 70t56 53.5t86.5 36.5q43 11 90.5 14.5t88.5 0.5v26q0 89 -33 134.5t-110 45.5q-26 0 -53.5 -7.5t-45.5 -25t-18 -51.5q0 -19 11 -41t35 -29
q-8 -11 -19 -14.5t-20 -3.5q-30 0 -48 27t-18 58q0 59 50 89t133 30q101 0 148.5 -53.5t47.5 -161.5v-211q0 -53 37 -53q9 0 19 6t16 17q5 -7 7.5 -14t2.5 -13q0 -19 -18 -31.5t-43 -12.5zM195 32q33 1 67 19.5t63 49.5t47.5 70t18.5 81q-24 2 -55.5 0t-61.5 -7t-53 -13
q-51 -17 -79.5 -46t-28.5 -72q0 -31 18.5 -57t63.5 -25zM150 704l109 -89l109 89q6 0 15.5 -2.5t12.5 -6.5l-115 -130q-6 -1 -14 -2t-16 0t-14 2l-116 130q2 4 13 6.5t16 2.5z" />
    <glyph glyph-name="uni01CF" unicode="&#x1cf;" horiz-adv-x="261" 
d="M136 -10q-15 0 -24.5 9.5t-9.5 25.5l-1 562q0 30 -2.5 55t-7.5 43q4 5 13 9.5t21 4.5q15 0 25.5 -9t10.5 -26v-561q0 -30 2 -55.5t8 -43.5q-5 -4 -13.5 -9t-21.5 -5zM146 737q-6 -2 -14 -2.5t-16 0t-14 2.5l-122 106q2 5 8 11.5t10 8.5l126 -78l125 78q5 -2 11 -8.5
t7 -11.5z" />
    <glyph glyph-name="uni01D0" unicode="&#x1d0;" horiz-adv-x="237" 
d="M146 103q0 -30 2 -55.5t8 -43.5q-5 -4 -13.5 -9t-21.5 -5q-14 0 -23.5 9.5t-9.5 25.5l-1 380q0 29 -2 55t-8 43q5 5 13 9.5t21 4.5q15 0 24 -9t9 -26zM2 704l110 -89l109 89q5 0 15 -2.5t13 -6.5l-116 -130q-6 -1 -13.5 -2t-16 0t-14.5 2l-115 130q1 4 12 6.5t16 2.5z
" />
    <glyph glyph-name="uni01D1" unicode="&#x1d1;" horiz-adv-x="646" 
d="M323 -13q-124 0 -191.5 88t-67.5 270q0 183 67.5 270.5t191.5 87.5t191.5 -87.5t67.5 -270.5q0 -182 -67.5 -270t-191.5 -88zM323 21q93 0 143.5 78t50.5 246q0 169 -50.5 247t-143.5 78t-143.5 -78t-50.5 -247q0 -168 50.5 -246t143.5 -78zM344 737q-6 -2 -14 -2.5
t-16 0t-14 2.5l-122 106q2 5 8 11.5t10 8.5l126 -78l125 78q5 -2 11 -8.5t7 -11.5z" />
    <glyph glyph-name="uni01D2" unicode="&#x1d2;" horiz-adv-x="542" 
d="M271 -13q-106 0 -164.5 70t-58.5 195t58.5 195t164.5 70q105 0 164 -70t59 -195t-59 -195t-164 -70zM271 20q76 0 117.5 61t41.5 171q0 111 -41.5 171.5t-117.5 60.5t-118 -60.5t-42 -171.5q0 -110 42 -171t118 -61zM162 704l109 -89l109 89q6 0 15.5 -2.5t12.5 -6.5
l-115 -130q-6 -1 -14 -2t-16 0t-14 2l-116 130q2 4 13 6.5t16 2.5z" />
    <glyph glyph-name="uni01D3" unicode="&#x1d3;" horiz-adv-x="651" 
d="M562 664v-359q0 -157 -60 -237.5t-177 -80.5q-116 0 -173 77t-57 241v282q0 30 -2 55t-7 43q4 5 12.5 9.5t21.5 4.5q15 0 24.5 -9t9.5 -26v-361q0 -146 41.5 -214t129.5 -68q90 0 134.5 71.5t44.5 210.5v284q0 30 -2 55t-8 43q5 5 13 9.5t21 4.5q15 0 24.5 -9t9.5 -26z
M347 737q-6 -2 -14 -2.5t-16 0t-14 2.5l-122 106q2 5 8 11.5t10 8.5l126 -78l125 78q5 -2 11 -8.5t7 -11.5z" />
    <glyph glyph-name="uni01D4" unicode="&#x1d4;" horiz-adv-x="560" 
d="M429 517q15 0 24.5 -9.5t9.5 -27.5l1 -390q0 -28 6.5 -39t22.5 -11q5 0 13 2.5t13 13.5q11 -14 11 -28q0 -16 -13.5 -26t-37.5 -10q-36 0 -53 23t-17 69v85l14 14q-5 -61 -30.5 -104.5t-65 -67.5t-88.5 -24q-79 0 -117 48t-39 166v203q0 28 -2.5 54.5t-7.5 44.5
q6 5 14 9.5t20 4.5q15 0 24.5 -9t9.5 -26l1 -275q0 -68 11 -108t35.5 -57t65.5 -17q24 0 50 12t49 40t37.5 73.5t14.5 113.5v106t-1 66t-3.5 40t-5.5 27q4 5 12.5 9.5t21.5 4.5zM158 704l110 -89l108 89q6 0 16 -2.5t13 -6.5l-116 -130q-6 -1 -13.5 -2t-16 0t-14.5 2
l-116 130q2 4 13 6.5t16 2.5z" />
    <glyph glyph-name="uni01D5" unicode="&#x1d5;" horiz-adv-x="651" 
d="M562 664v-359q0 -157 -60 -237.5t-177 -80.5q-116 0 -173 77t-57 241v282q0 30 -2 55t-7 43q4 5 12.5 9.5t21.5 4.5q15 0 24.5 -9t9.5 -26v-361q0 -146 41.5 -214t129.5 -68q90 0 134.5 71.5t44.5 210.5v284q0 30 -2 55t-8 43q5 5 13 9.5t21 4.5q15 0 24.5 -9t9.5 -26z
M241 759q-18 0 -31 13t-13 30q0 19 13 31.5t31 12.5t31 -12.5t13 -31.5q0 -17 -13 -30t-31 -13zM415 759q-17 0 -30 13t-13 30q0 19 13 31.5t30 12.5q19 0 31.5 -12.5t12.5 -31.5q0 -17 -12.5 -30t-31.5 -13zM201 934h248q7 -19 0 -38h-248q-7 19 0 38z" />
    <glyph glyph-name="uni01D6" unicode="&#x1d6;" horiz-adv-x="560" 
d="M429 517q15 0 24.5 -9.5t9.5 -27.5l1 -390q0 -28 6.5 -39t22.5 -11q5 0 13 2.5t13 13.5q11 -14 11 -28q0 -16 -13.5 -26t-37.5 -10q-36 0 -53 23t-17 69v85l14 14q-5 -61 -30.5 -104.5t-65 -67.5t-88.5 -24q-79 0 -117 48t-39 166v203q0 28 -2.5 54.5t-7.5 44.5
q6 5 14 9.5t20 4.5q15 0 24.5 -9t9.5 -26l1 -275q0 -68 11 -108t35.5 -57t65.5 -17q24 0 50 12t49 40t37.5 73.5t14.5 113.5v106t-1 66t-3.5 40t-5.5 27q4 5 12.5 9.5t21.5 4.5zM185 586q-16 0 -29 13t-13 29q0 17 13 29.5t29 12.5q17 0 29.5 -12.5t12.5 -29.5
q0 -16 -12.5 -29t-29.5 -13zM353 586q-16 0 -28.5 13t-12.5 29q0 17 12.5 29.5t28.5 12.5q17 0 29.5 -12.5t12.5 -29.5q0 -16 -12.5 -29t-29.5 -13zM143 763h248q7 -18 0 -36h-248q-7 18 0 36z" />
    <glyph glyph-name="uni01D7" unicode="&#x1d7;" horiz-adv-x="651" 
d="M562 664v-359q0 -157 -60 -237.5t-177 -80.5q-116 0 -173 77t-57 241v282q0 30 -2 55t-7 43q4 5 12.5 9.5t21.5 4.5q15 0 24.5 -9t9.5 -26v-361q0 -146 41.5 -214t129.5 -68q90 0 134.5 71.5t44.5 210.5v284q0 30 -2 55t-8 43q5 5 13 9.5t21 4.5q15 0 24.5 -9t9.5 -26z
M241 759q-18 0 -31 13t-13 30q0 19 13 31.5t31 12.5t31 -12.5t13 -31.5q0 -17 -13 -30t-31 -13zM415 759q-17 0 -30 13t-13 30q0 19 13 31.5t30 12.5q19 0 31.5 -12.5t12.5 -31.5q0 -17 -12.5 -30t-31.5 -13zM470 941l-164 -82q-4 2 -9 9.5t-6 11.5l133 107q9 -3 18 -10.5
t16 -16.5t12 -19z" />
    <glyph glyph-name="uni01D8" unicode="&#x1d8;" horiz-adv-x="560" 
d="M429 517q15 0 24.5 -9.5t9.5 -27.5l1 -390q0 -28 6.5 -39t22.5 -11q5 0 13 2.5t13 13.5q11 -14 11 -28q0 -16 -13.5 -26t-37.5 -10q-36 0 -53 23t-17 69v85l14 14q-5 -61 -30.5 -104.5t-65 -67.5t-88.5 -24q-79 0 -117 48t-39 166v203q0 28 -2.5 54.5t-7.5 44.5
q6 5 14 9.5t20 4.5q15 0 24.5 -9t9.5 -26l1 -275q0 -68 11 -108t35.5 -57t65.5 -17q24 0 50 12t49 40t37.5 73.5t14.5 113.5v106t-1 66t-3.5 40t-5.5 27q4 5 12.5 9.5t21.5 4.5zM185 586q-16 0 -29 13t-13 29q0 17 13 29.5t29 12.5q17 0 29.5 -12.5t12.5 -29.5
q0 -16 -12.5 -29t-29.5 -13zM353 586q-16 0 -28.5 13t-12.5 29q0 17 12.5 29.5t28.5 12.5q17 0 29.5 -12.5t12.5 -29.5q0 -16 -12.5 -29t-29.5 -13zM396 823l-125 -135q-7 -1 -17.5 0.5t-13.5 5.5l91 145q11 1 23.5 -1.5t23.5 -6t18 -8.5z" />
    <glyph glyph-name="uni01D9" unicode="&#x1d9;" horiz-adv-x="651" 
d="M562 664v-359q0 -157 -60 -237.5t-177 -80.5q-116 0 -173 77t-57 241v282q0 30 -2 55t-7 43q4 5 12.5 9.5t21.5 4.5q15 0 24.5 -9t9.5 -26v-361q0 -146 41.5 -214t129.5 -68q90 0 134.5 71.5t44.5 210.5v284q0 30 -2 55t-8 43q5 5 13 9.5t21 4.5q15 0 24.5 -9t9.5 -26z
M241 759q-18 0 -31 13t-13 30q0 19 13 31.5t31 12.5t31 -12.5t13 -31.5q0 -17 -13 -30t-31 -13zM415 759q-17 0 -30 13t-13 30q0 19 13 31.5t30 12.5q19 0 31.5 -12.5t12.5 -31.5q0 -17 -12.5 -30t-31.5 -13zM347 864q-6 -2 -14 -2.5t-16 0t-14 2.5l-122 106q2 5 8 11.5
t10 8.5l126 -78l125 78q5 -2 11 -8.5t7 -11.5z" />
    <glyph glyph-name="uni01DA" unicode="&#x1da;" horiz-adv-x="560" 
d="M429 517q15 0 24.5 -9.5t9.5 -27.5l1 -390q0 -28 6.5 -39t22.5 -11q5 0 13 2.5t13 13.5q11 -14 11 -28q0 -16 -13.5 -26t-37.5 -10q-36 0 -53 23t-17 69v85l14 14q-5 -61 -30.5 -104.5t-65 -67.5t-88.5 -24q-79 0 -117 48t-39 166v203q0 28 -2.5 54.5t-7.5 44.5
q6 5 14 9.5t20 4.5q15 0 24.5 -9t9.5 -26l1 -275q0 -68 11 -108t35.5 -57t65.5 -17q24 0 50 12t49 40t37.5 73.5t14.5 113.5v106t-1 66t-3.5 40t-5.5 27q4 5 12.5 9.5t21.5 4.5zM186 586q-17 0 -29.5 13t-12.5 29q0 17 12.5 29.5t29.5 12.5t29 -12.5t12 -29.5q0 -16 -12 -29
t-29 -13zM354 586q-17 0 -29.5 13t-12.5 29q0 17 12.5 29.5t29.5 12.5t29 -12.5t12 -29.5q0 -16 -12 -29t-29 -13zM158 831l110 -89l108 89q6 0 16 -2.5t13 -7.5l-116 -129q-6 -1 -13.5 -2t-16 0t-14.5 2l-116 129q2 5 13 7.5t16 2.5z" />
    <glyph glyph-name="uni01DB" unicode="&#x1db;" horiz-adv-x="651" 
d="M562 664v-359q0 -157 -60 -237.5t-177 -80.5q-116 0 -173 77t-57 241v282q0 30 -2 55t-7 43q4 5 12.5 9.5t21.5 4.5q15 0 24.5 -9t9.5 -26v-361q0 -146 41.5 -214t129.5 -68q90 0 134.5 71.5t44.5 210.5v284q0 30 -2 55t-8 43q5 5 13 9.5t21 4.5q15 0 24.5 -9t9.5 -26z
M241 759q-18 0 -31 13t-13 30q0 19 13 31.5t31 12.5t31 -12.5t13 -31.5q0 -17 -13 -30t-31 -13zM415 759q-17 0 -30 13t-13 30q0 19 13 31.5t30 12.5q19 0 31.5 -12.5t12.5 -31.5q0 -17 -12.5 -30t-31.5 -13zM179 941q5 10 12.5 19t16 16.5t16.5 10.5l134 -107
q-1 -4 -5.5 -11.5t-9.5 -9.5z" />
    <glyph glyph-name="uni01DC" unicode="&#x1dc;" horiz-adv-x="560" 
d="M429 517q15 0 24.5 -9.5t9.5 -27.5l1 -390q0 -28 6.5 -39t22.5 -11q5 0 13 2.5t13 13.5q11 -14 11 -28q0 -16 -13.5 -26t-37.5 -10q-36 0 -53 23t-17 69v85l14 14q-5 -61 -30.5 -104.5t-65 -67.5t-88.5 -24q-79 0 -117 48t-39 166v203q0 28 -2.5 54.5t-7.5 44.5
q6 5 14 9.5t20 4.5q15 0 24.5 -9t9.5 -26l1 -275q0 -68 11 -108t35.5 -57t65.5 -17q24 0 50 12t49 40t37.5 73.5t14.5 113.5v106t-1 66t-3.5 40t-5.5 27q4 5 12.5 9.5t21.5 4.5zM186 586q-17 0 -29.5 13t-12.5 29q0 17 12.5 29.5t29.5 12.5t29 -12.5t12 -29.5q0 -16 -12 -29
t-29 -13zM354 586q-17 0 -29.5 13t-12.5 29q0 17 12.5 29.5t29.5 12.5t29 -12.5t12 -29.5q0 -16 -12 -29t-29 -13zM131 823q7 5 18 8.5t24 6t24 1.5l90 -145q-2 -4 -13 -5.5t-18 -0.5z" />
    <glyph glyph-name="Gcaron" unicode="&#x1e6;" horiz-adv-x="614" 
d="M332 -13q-130 0 -199 91.5t-69 266.5t70 266.5t197 91.5q38 0 71.5 -7.5t59.5 -20.5t40.5 -29.5t14.5 -33.5q0 -16 -12.5 -26.5t-35.5 -7.5q-8 44 -45.5 68t-90.5 24q-101 0 -152.5 -82t-51.5 -243t51.5 -242.5t153.5 -81.5q52 0 84 20t48.5 51.5t22 65.5t5.5 63
q0 44 -9.5 73t-27 45t-43.5 19q2 14 14 20.5t28 6.5q25 0 47.5 -14.5t36.5 -48.5t14 -94q0 -31 -6 -64.5t-21 -65t-40.5 -56.5t-63.5 -40t-91 -15zM349 737q-6 -2 -14 -2.5t-16 0t-14 2.5l-122 106q2 5 8 11.5t10 8.5l126 -78l125 78q5 -2 11 -8.5t7 -11.5z" />
    <glyph glyph-name="gcaron" unicode="&#x1e7;" horiz-adv-x="534" 
d="M214 -236q-44 0 -81 13t-59.5 40.5t-22.5 68.5q0 32 15.5 51t36.5 19t31 -13q-15 -9 -21 -24t-6 -33q0 -31 14.5 -51t39.5 -29.5t55 -9.5q95 0 138 64t43 192v31.5v34.5q-18 -58 -63.5 -91.5t-109.5 -33.5q-54 0 -94 26.5t-61 83t-21 145.5q0 33 5 70t18.5 72.5t38 64.5
t64 45.5t96.5 16.5q29 0 63 -5.5t67 -19.5t56 -41v-406q0 -105 -31.5 -166.5t-86 -88t-124.5 -26.5zM237 31q46 0 76.5 20.5t49 53t26.5 70.5t8 73l1 193q-19 22 -55 32.5t-78 10.5q-50 0 -81 -22.5t-47 -58.5t-21 -78.5t-5 -82.5q0 -111 31.5 -161t94.5 -50zM162 706
l109 -89l109 89q6 0 15.5 -2.5t12.5 -7.5l-115 -129q-6 -2 -14 -2.5t-16 0.5t-14 2l-116 129q2 5 13 7.5t16 2.5z" />
    <glyph glyph-name="uni0218" unicode="&#x218;" horiz-adv-x="550" 
d="M275 -13q-76 0 -124 21t-71 55.5t-23 74.5q0 18 5.5 30.5t18.5 18.5t35 2q-2 -8 -3 -17t-1 -21q2 -41 22.5 -70.5t57.5 -44.5t87 -15q71 0 115 32t44 97q0 42 -19.5 72t-57 56.5t-92.5 55.5q-55 31 -97.5 59.5t-66 64.5t-23.5 87q0 57 27.5 91.5t74 50.5t101.5 16
q86 0 139.5 -33.5t53.5 -92.5q0 -16 -6 -26t-23 -14q-11 -4 -28 0q3 9 3.5 18t-1.5 17q-1 33 -20.5 54.5t-51.5 32.5t-72 11q-34 0 -66 -10t-52.5 -33.5t-20.5 -64.5q0 -44 22 -73.5t59 -53t82 -47.5q57 -30 100.5 -61.5t69 -71t25.5 -92.5q0 -32 -11 -63t-36.5 -56.5
t-68.5 -41t-107 -15.5zM267 -208q-8 2 -14 6.5t-11 9.5q15 16 22 31.5t7 31.5q0 17 -5.5 26.5t-14 14.5t-18.5 8q0 15 12.5 30.5t35.5 15.5q17 0 33.5 -12t16.5 -48q0 -24 -13 -53t-51 -61z" />
    <glyph glyph-name="uni0219" unicode="&#x219;" horiz-adv-x="465" 
d="M225 -13q-65 0 -106 17t-59.5 45.5t-18.5 61.5q0 16 5 28t17 18.5t32 2.5q-3 -9 -4 -17.5t0 -20.5q1 -49 38.5 -75t98.5 -26t100 22t39 64q0 34 -22 54.5t-56 36t-71 32.5q-39 19 -74.5 38.5t-58 49.5t-22.5 78q0 44 24 71t63 39t85 12q82 0 126.5 -27t44.5 -74
q0 -15 -6 -25.5t-21 -14.5q-6 -2 -12.5 -2t-14.5 2q3 9 3.5 18t-1.5 17q-3 37 -35 55t-87 18q-29 0 -55 -7t-42 -23.5t-16 -43.5q0 -35 18.5 -57.5t49 -38.5t64.5 -32q30 -14 60.5 -28t56.5 -31.5t41.5 -41.5t15.5 -59q0 -31 -17.5 -62t-60.5 -52.5t-122 -21.5zM224 -208
q-8 2 -14 6.5t-11 9.5q15 16 22 31.5t7 31.5q0 17 -5.5 26.5t-14 14.5t-18.5 8q0 15 12.5 30.5t35.5 15.5q17 0 33.5 -12t16.5 -48q0 -24 -13 -53t-51 -61z" />
    <glyph glyph-name="uni021A" unicode="&#x21a;" horiz-adv-x="518" 
d="M265 -10q-15 0 -24.5 9.5t-9.5 25.5l-2 651l60 -2l1 -571q0 -30 2 -55.5t8 -43.5q-5 -4 -13.5 -9t-21.5 -5zM37 639q-7 2 -12 10.5t-6.5 18t1.5 16.5t10 7h458q8 0 10.5 -7t1 -16.5t-6.5 -18t-11 -10.5q-35 4 -73 9t-76.5 8t-76.5 3q-36 0 -73.5 -3t-74.5 -8t-71 -9z
M260 -208q-8 2 -14 6.5t-11 9.5q15 16 22 31.5t7 31.5q0 17 -5.5 26.5t-14 14.5t-18.5 8q0 15 12.5 30.5t35.5 15.5q17 0 33.5 -12t16.5 -48q0 -24 -13 -53t-51 -61z" />
    <glyph glyph-name="uni021B" unicode="&#x21b;" horiz-adv-x="333" 
d="M193 -11q-42 0 -67 26t-25 73v514q0 17 10 26t26 9q13 0 21 -5t13 -9q-7 -21 -8.5 -67t-1.5 -129l-1 -336q0 -25 12.5 -40t37.5 -15q15 0 29.5 6t20.5 18q5 -7 7.5 -14t2.5 -13q0 -20 -22.5 -32t-54.5 -12zM27 466l1 19q1 9 6 14t12 5h171q4 0 14 0.5t21.5 1t21.5 1
t14 0.5l-1 -19q-1 -9 -5.5 -14t-11.5 -5h-183q-10 0 -30 -0.5t-30 -2.5zM178 -208q-8 2 -14 6.5t-11 9.5q15 16 22 31.5t7 31.5q0 17 -5.5 26.5t-14 14.5t-18.5 8q0 15 12.5 30.5t35.5 15.5q17 0 33.5 -12t16.5 -48q0 -24 -13 -53t-51 -61z" />
    <glyph glyph-name="uni0237" unicode="&#x237;" horiz-adv-x="246" 
d="M30 -234q-49 0 -74.5 21t-25.5 56q0 15 9 28t28 13q6 0 9.5 -1.5t5.5 -6.5q-2 -7 -3.5 -14.5t-1.5 -14.5q0 -20 8.5 -31t21 -14.5t23.5 -3.5q32 0 48 19t21.5 51.5t5.5 75.5l1 460q0 28 -2 54.5t-8 44.5q6 6 14.5 10t19.5 4q15 0 24 -9t9 -26l1 -547q0 -29 -5 -58.5
t-19.5 -54.5t-41 -40.5t-68.5 -15.5z" />
    <glyph glyph-name="ascript" unicode="&#x251;" horiz-adv-x="557" 
d="M217 -13q-54 0 -87.5 23.5t-51 60.5t-24 78.5t-6.5 77.5q0 134 53.5 211t156.5 77q52 0 89 -21t53 -61q1 13 1.5 28t0.5 28t-1 18q4 5 9 7t12 2q19 0 28 -10.5t9 -25.5l-1 -389q0 -28 8.5 -39.5t22.5 -11.5q5 0 13.5 3t12.5 13q6 -7 8.5 -14t2.5 -13q0 -17 -15 -27
t-38 -10q-36 0 -53.5 28t-17.5 80v105l22 19q-6 -48 -21.5 -90.5t-41 -75.5t-61 -52t-83.5 -19zM230 28q39 0 70.5 20.5t53.5 57.5t33.5 84.5t11.5 102.5q0 31 -5 63t-19 59.5t-40.5 44t-68.5 16.5q-75 0 -115 -61t-40 -185q0 -33 4 -68t16 -66t36 -49.5t63 -18.5z" />
    <glyph glyph-name="uni0259" unicode="&#x259;" horiz-adv-x="507" 
d="M233 517q106 0 166 -65.5t60 -194.5q0 -125 -59 -197.5t-173 -72.5q-51 0 -90 16.5t-61 48t-22 76.5q0 76 60.5 114t170.5 38q42 0 77 -3.5t70 -11.5l-1 -29q-26 5 -63.5 8.5t-69.5 3.5q-41 0 -74.5 -6.5t-57.5 -21t-37 -38.5t-13 -60q0 -40 17 -62t43.5 -31.5t53.5 -9.5
q74 0 120 57.5t46 172.5q0 85 -24 134t-63.5 69.5t-87.5 20.5q-53 0 -95.5 -22.5t-57.5 -69.5q-9 4 -13.5 14t5.5 33q19 45 66 67t107 22z" />
    <glyph glyph-name="uni210A" unicode="&#x261;" horiz-adv-x="534" 
d="M214 -236q-44 0 -81 13t-59.5 40.5t-22.5 68.5q0 32 15.5 51t36.5 19t31 -13q-15 -9 -21 -24t-6 -33q0 -31 14.5 -51t39.5 -29.5t55 -9.5q95 0 138 64t43 192v31.5v34.5q-18 -58 -63.5 -91.5t-109.5 -33.5q-54 0 -94 26.5t-61 83t-21 145.5q0 33 5 70t18.5 72.5t38 64.5
t64 45.5t96.5 16.5q29 0 63 -5.5t67 -19.5t56 -41v-406q0 -105 -31.5 -166.5t-86 -88t-124.5 -26.5zM237 31q46 0 76.5 20.5t49 53t26.5 70.5t8 73l1 193q-19 22 -55 32.5t-78 10.5q-50 0 -81 -22.5t-47 -58.5t-21 -78.5t-5 -82.5q0 -111 31.5 -161t94.5 -50z" />
    <glyph glyph-name="uni02BC" unicode="&#x2bc;" horiz-adv-x="600" 
d="M246 674l12 -138h32l14 138q-13 3 -28.5 3t-29.5 -3z" />
    <glyph glyph-name="circumflex" unicode="&#x2c6;" horiz-adv-x="600" 
d="M191 559q-6 0 -16.5 3t-12.5 7l115 129q6 2 14.5 2.5t16.5 0t14 -2.5l115 -129q-3 -4 -13 -7t-15 -3l-109 90z" />
    <glyph glyph-name="caron" unicode="&#x2c7;" horiz-adv-x="600" 
d="M191 704l109 -89l109 89q5 0 15 -2.5t13 -6.5l-115 -130q-6 -1 -14 -2t-16.5 0t-14.5 2l-115 130q2 4 12.5 6.5t16.5 2.5z" />
    <glyph glyph-name="breve" unicode="&#x2d8;" horiz-adv-x="600" 
d="M298 611q33 0 54 13t34 31.5t19 34.5q8 -2 15 -3.5t15 -4.5q-8 -31 -26 -57.5t-45.5 -42.5t-66.5 -16q-46 0 -75.5 18.5t-45.5 44.5t-22 50q7 6 14.5 8.5t15.5 3.5q7 -17 21.5 -36t37 -31.5t55.5 -12.5z" />
    <glyph glyph-name="dotaccent" unicode="&#x2d9;" horiz-adv-x="600" 
d="M298 573q-18 0 -31 13.5t-13 30.5q0 18 13 31t31 13t30.5 -13t12.5 -31q0 -17 -12.5 -30.5t-30.5 -13.5z" />
    <glyph glyph-name="ring" unicode="&#x2da;" horiz-adv-x="600" 
d="M302 715q38 0 61.5 -21.5t23.5 -57.5q-1 -38 -25 -60.5t-64 -22.5q-38 0 -61.5 22t-23.5 57q0 38 25 60.5t64 22.5zM300 689q-23 0 -37 -14.5t-14 -40.5q0 -25 14 -40t37 -15q24 0 37.5 15t13.5 40q0 26 -13.5 40.5t-37.5 14.5z" />
    <glyph glyph-name="ogonek" unicode="&#x2db;" horiz-adv-x="600" 
d="M306 -169q-21 0 -41 7.5t-33 24.5t-13 44q0 30 17 52t44 37t56 23l9 -17q-37 -18 -58 -38t-21 -50q0 -22 12.5 -36.5t38.5 -14.5q32 0 53.5 18t30.5 35q6 -4 8.5 -9.5t0.5 -13.5q-13 -28 -41 -45t-63 -17z" />
    <glyph glyph-name="tilde" unicode="&#x2dc;" horiz-adv-x="600" 
d="M436 661q-6 -33 -26 -55.5t-52 -22.5q-26 0 -44.5 12t-35.5 24.5t-41 12.5q-21 0 -37 -12t-22 -32q-5 -1 -11 2t-10 7q7 41 31.5 59t52.5 18q27 0 45.5 -12.5t36.5 -24.5t41 -12q22 0 32.5 13t17.5 32q8 0 13 -2t9 -7z" />
    <glyph glyph-name="hungarumlaut" unicode="&#x2dd;" horiz-adv-x="600" 
d="M320 693l-148 -152q-6 2 -12.5 7t-9.5 9l115 163q14 -1 29 -8t26 -19zM456 694l-148 -153q-5 2 -12 7.5t-10 8.5l116 163q14 -1 28.5 -8t25.5 -18z" />
    <glyph glyph-name="gravecomb" unicode="&#x300;" 
d="M182 696q7 5 17.5 8.5t23.5 6t24 1.5l91 -145q-3 -4 -14 -5.5t-17 -0.5z" />
    <glyph glyph-name="acutecomb" unicode="&#x301;" 
d="M377 696l-125 -135q-7 -1 -17.5 0.5t-13.5 5.5l91 145q11 1 23.5 -1.5t23.5 -6t18 -8.5z" />
    <glyph glyph-name="uni0302" unicode="&#x302;" 
d="M191 559q-6 0 -16.5 3t-12.5 7l115 129q6 2 14.5 2.5t16.5 0t14 -2.5l115 -129q-3 -4 -13 -7t-15 -3l-109 90z" />
    <glyph glyph-name="tildecomb" unicode="&#x303;" 
d="M436 661q-6 -33 -26 -55.5t-52 -22.5q-26 0 -44.5 12t-35.5 24.5t-41 12.5q-21 0 -37 -12t-22 -32q-5 -1 -11 2t-10 7q7 41 31.5 59t52.5 18q27 0 45.5 -12.5t36.5 -24.5t41 -12q22 0 32.5 13t17.5 32q8 0 13 -2t9 -7z" />
    <glyph glyph-name="uni0304" unicode="&#x304;" 
d="M166 636h248q7 -18 0 -36h-248q-7 18 0 36z" />
    <glyph glyph-name="uni0306" unicode="&#x306;" 
d="M298 611q33 0 54 13t34 31.5t19 34.5q8 -2 15 -3.5t15 -4.5q-8 -31 -26 -57.5t-45.5 -42.5t-66.5 -16q-46 0 -75.5 18.5t-45.5 44.5t-22 50q7 6 14.5 8.5t15.5 3.5q7 -17 21.5 -36t37 -31.5t55.5 -12.5z" />
    <glyph glyph-name="uni0307" unicode="&#x307;" 
d="M298 573q-18 0 -31 13.5t-13 30.5q0 18 13 31t31 13t30.5 -13t12.5 -31q0 -17 -12.5 -30.5t-30.5 -13.5z" />
    <glyph glyph-name="uni0308" unicode="&#x308;" 
d="M212 586q-16 0 -29 13t-13 29q0 17 13 29.5t29 12.5q17 0 29.5 -12.5t12.5 -29.5q0 -16 -12.5 -29t-29.5 -13zM380 586q-16 0 -28.5 13t-12.5 29q0 17 12.5 29.5t28.5 12.5q17 0 29.5 -12.5t12.5 -29.5q0 -16 -12.5 -29t-29.5 -13z" />
    <glyph glyph-name="hookabovecomb" unicode="&#x309;" 
d="M194 542l-9 25q27 7 40 16t13 24q0 13 -12 20t-28 9t-30 2l-2 34q28 1 55.5 -4t46.5 -18.5t19 -39.5q0 -25 -21 -42.5t-72 -25.5z" />
    <glyph glyph-name="uni030A" unicode="&#x30a;" 
d="M302 715q38 0 61.5 -21.5t23.5 -57.5q-1 -38 -25 -60.5t-64 -22.5q-38 0 -61.5 22t-23.5 57q0 38 25 60.5t64 22.5zM300 689q-23 0 -37 -14.5t-14 -40.5q0 -25 14 -40t37 -15q24 0 37.5 15t13.5 40q0 26 -13.5 40.5t-37.5 14.5z" />
    <glyph glyph-name="uni030B" unicode="&#x30b;" 
d="M320 693l-148 -152q-6 2 -12.5 7t-9.5 9l115 163q14 -1 29 -8t26 -19zM456 694l-148 -153q-5 2 -12 7.5t-10 8.5l116 163q14 -1 28.5 -8t25.5 -18z" />
    <glyph glyph-name="uni030C" unicode="&#x30c;" 
d="M191 704l109 -89l109 89q5 0 15 -2.5t13 -6.5l-115 -130q-6 -1 -14 -2t-16.5 0t-14.5 2l-115 130q2 4 12.5 6.5t16.5 2.5z" />
    <glyph glyph-name="uni0312" unicode="&#x312;" 
d="M280 731q9 -2 15 -5.5t10 -9.5q-14 -21 -20 -39t-6 -32q0 -19 8.5 -26t21.5 -10q0 -14 -11 -27t-30 -13q-10 0 -20 4.5t-17 16t-7 30.5q0 21 11.5 47t44.5 64z" />
    <glyph glyph-name="uni031B" unicode="&#x31b;" 
d="M178 481l-11 28q29 11 41 24.5t12 32.5q0 10 -4.5 23t-15.5 26q6 5 14 9.5t17.5 9.5t17.5 6q12 -12 18 -30.5t6 -35.5q0 -22 -12 -40t-33 -31t-50 -22z" />
    <glyph glyph-name="dotbelowcomb" unicode="&#x323;" 
d="M300 -134q-18 0 -32 14t-14 32q0 19 14 32.5t32 13.5q19 0 32.5 -13.5t13.5 -32.5q0 -18 -13.5 -32t-32.5 -14z" />
    <glyph glyph-name="uni0324" unicode="&#x324;" 
d="M212 -154q-19 0 -32.5 13.5t-13.5 31.5q0 20 13.5 33t32.5 13t32 -13t13 -33q0 -18 -13 -31.5t-32 -13.5zM389 -154q-19 0 -32.5 13.5t-13.5 31.5q0 20 13.5 33t32.5 13q18 0 31.5 -13t13.5 -33q0 -18 -13.5 -31.5t-31.5 -13.5z" />
    <glyph glyph-name="uni0326" unicode="&#x326;" 
d="M289 -208q-8 2 -14 6.5t-11 9.5q15 16 22 31.5t7 31.5q0 17 -5.5 26.5t-14 14.5t-18.5 8q0 15 12.5 30.5t35.5 15.5q17 0 33.5 -12t16.5 -48q0 -24 -13 -53t-51 -61z" />
    <glyph glyph-name="uni0327" unicode="&#x327;" 
d="M307 5l-10 -50q42 0 65.5 -19.5t23.5 -52.5q0 -37 -27 -59.5t-70 -22.5q-34 0 -53.5 9.5t-30.5 20.5q-1 7 3.5 15.5t8.5 11.5q7 -5 20.5 -13.5t40.5 -8.5q24 0 38.5 11.5t14.5 34.5q0 21 -15.5 35.5t-60.5 10.5l15 77h37z" />
    <glyph glyph-name="uni0328" unicode="&#x328;" 
d="M306 -169q-21 0 -41 7.5t-33 24.5t-13 44q0 30 17 52t44 37t56 23l9 -17q-37 -18 -58 -38t-21 -50q0 -22 12.5 -36.5t38.5 -14.5q32 0 53.5 18t30.5 35q6 -4 8.5 -9.5t0.5 -13.5q-13 -28 -41 -45t-63 -17z" />
    <glyph glyph-name="uni032E" unicode="&#x32e;" 
d="M303 -127q33 0 54 13t33.5 31t18.5 33l29 -5q-7 -30 -25 -56t-47 -42t-68 -16q-44 0 -72.5 18t-44 44t-20.5 49l30 10q6 -18 20 -36t37 -30.5t55 -12.5z" />
    <glyph glyph-name="uni0331" unicode="&#x331;" 
d="M176 -69h248q7 -17 0 -34h-248q-7 17 0 34z" />
    <glyph glyph-name="uni0374" unicode="&#x374;" horiz-adv-x="151" 
d="M62 561q-6 -1 -16 0.5t-14 5.5l40 173q16 0 31 -4t25 -12z" />
    <glyph glyph-name="uni0375" unicode="&#x375;" horiz-adv-x="151" 
d="M62 -107q-6 -1 -16 0.5t-14 5.5l40 173q16 0 31 -4t25 -12z" />
    <glyph glyph-name="uni037A" unicode="&#x37a;" horiz-adv-x="301" 
d="M158 -228q-34 0 -47 21t-13 57q0 29 -1 50t-4 35q5 5 11.5 8.5t16.5 3.5q13 0 18 -8.5t4 -23.5v-58q-1 -24 4 -36.5t20 -12.5q7 0 14 4.5t11 15.5q9 -10 9 -24q0 -15 -13.5 -23.5t-29.5 -8.5z" />
    <glyph glyph-name="uni037E" unicode="&#x37e;" horiz-adv-x="250" 
d="M129 333q-19 0 -32.5 14t-13.5 32q0 19 13.5 32.5t32.5 13.5t32 -13.5t13 -32.5q0 -18 -13 -32t-32 -14zM110 -95q-9 2 -15 6.5t-10 9.5q15 16 22 31t7 32t-6 26t-14.5 14.5t-17.5 8.5q0 14 12.5 30t35.5 16q16 0 33 -12t17 -48q0 -24 -13.5 -53t-50.5 -61z" />
    <glyph glyph-name="tonos" unicode="&#x384;" horiz-adv-x="204" 
d="M89 561q-6 -1 -16 0.5t-14 5.5l40 173q16 0 31 -4t25 -12z" />
    <glyph glyph-name="dieresistonos" unicode="&#x385;" horiz-adv-x="396" 
d="M203 589q-6 -1 -15.5 -0.5t-13.5 4.5l12 163q10 2 20 1.5t20 -2t17 -6.5zM102 584q-18 0 -28 13t-10 29q0 18 10 30.5t28 12.5t27.5 -12.5t9.5 -30.5q0 -16 -9.5 -29t-27.5 -13zM290 583q-19 0 -29 13t-10 30t10 30t29 13q18 0 27.5 -13t9.5 -30t-9.5 -30t-27.5 -13z" />
    <glyph glyph-name="Alphatonos" unicode="&#x386;" horiz-adv-x="585" 
d="M304 703q13 0 23.5 -5.5t14.5 -18.5l211 -634q4 -11 9 -21.5t11 -18.5q-5 -6 -13 -10.5t-21 -4.5q-14 0 -25 6.5t-14 18.5l-214 664l13 -1l-202 -635q-1 -6 -3 -13.5t-2 -14.5q0 -5 1 -10.5t3 -8.5q-7 -2 -14.5 -4t-17.5 -2q-17 0 -26 7.5t-8 21.5q0 7 2.5 17t5.5 20
l218 637q24 10 48 10zM144 265h312v-39h-312v39zM110 519q-6 -1 -16 0.5t-14 5.5l41 173q15 0 30.5 -4t25.5 -12z" />
    <glyph glyph-name="anoteleia" unicode="&#x387;" horiz-adv-x="243" 
d="M122 333q-19 0 -32.5 14t-13.5 32q0 19 13.5 32.5t32.5 13.5t32 -13.5t13 -32.5q0 -18 -13 -32t-32 -14z" />
    <glyph glyph-name="Epsilontonos" unicode="&#x388;" horiz-adv-x="600" 
d="M205 0q-15 0 -24.5 9.5t-9.5 25.5l-1 547q0 30 -2.5 53t-7.5 40q9 10 19 13t28 3h307q8 0 10.5 -7t1 -16.5t-6 -18t-11.5 -10.5q-69 6 -137.5 10t-142.5 5l2 -618q49 1 100.5 3.5t100.5 6t93 7.5q7 -3 10 -12t3 -18t-3.5 -16t-11.5 -7h-317zM218 346v39h268q3 -10 3 -20
t-3 -19h-268zM47 520q-6 -1 -16 0.5t-14 5.5l41 173q15 0 30.5 -4t25.5 -12z" />
    <glyph glyph-name="Etatonos" unicode="&#x389;" horiz-adv-x="741" 
d="M230 103q0 -30 2 -55.5t8 -43.5q-5 -4 -13.5 -9t-21.5 -5q-15 0 -24.5 9.5t-9.5 25.5l-1 562q0 30 -2.5 55t-7.5 43q4 5 13 9.5t21 4.5q15 0 25.5 -9t10.5 -26v-561zM641 103q0 -30 2 -55.5t8 -43.5q-5 -4 -13.5 -9t-21.5 -5q-15 0 -24.5 9.5t-9.5 25.5l-1 562
q0 30 -2 55t-8 43q4 5 13 9.5t22 4.5q15 0 25 -9t10 -26v-561zM209 386h395v-39h-395v39zM47 519q-6 -1 -16 0.5t-14 5.5l41 173q15 0 30.5 -4t25.5 -12z" />
    <glyph glyph-name="Iotatonos" unicode="&#x38a;" horiz-adv-x="330" 
d="M204 -10q-15 0 -24.5 9.5t-9.5 25.5l-1 562q0 30 -2.5 55t-7.5 43q4 5 13 9.5t21 4.5q15 0 25.5 -9t10.5 -26v-561q0 -30 2 -55.5t8 -43.5q-5 -4 -13.5 -9t-21.5 -5zM47 519q-6 -1 -16 0.5t-14 5.5l41 173q15 0 30.5 -4t25.5 -12z" />
    <glyph glyph-name="Omicrontonos" unicode="&#x38c;" horiz-adv-x="674" 
d="M352 -13q-124 0 -191.5 88t-67.5 270q0 183 67.5 270.5t191.5 87.5t191.5 -87.5t67.5 -270.5q0 -182 -67.5 -270t-191.5 -88zM352 21q93 0 143.5 78t50.5 246q0 169 -50.5 247t-143.5 78t-143.5 -78t-50.5 -247q0 -168 50.5 -246t143.5 -78zM47 520q-6 -1 -16 0.5
t-14 5.5l41 173q15 0 30.5 -4t25.5 -12z" />
    <glyph glyph-name="Upsilontonos" unicode="&#x38e;" horiz-adv-x="717" 
d="M427 -10q-15 0 -24.5 9.5t-9.5 25.5v137q0 42 -16.5 92.5t-46.5 123.5l-81 190q-15 35 -29 57.5t-36 22.5q-10 0 -17.5 -4t-11.5 -13q-11 9 -11 23q0 17 16 31t42 14q37 0 57.5 -25.5t40.5 -74.5l73 -182q23 -56 36 -94t18.5 -68t5.5 -62l-18 -1q0 26 8 57.5t19.5 64.5
t23.5 61.5t20 48.5l73 172q14 31 26 54t28.5 35.5t40.5 12.5q26 0 40 -13.5t14 -30.5q0 -13 -11 -23q-4 9 -12 13t-18 4q-23 0 -37.5 -21t-29.5 -54l-72 -161q-7 -16 -20 -45.5t-26.5 -65t-22 -71.5t-8.5 -66v-65q0 -28 2.5 -52.5t8.5 -42.5q-5 -4 -13.5 -9t-21.5 -5z
M47 520q-6 -1 -16 0.5t-14 5.5l41 173q15 0 30.5 -4t25.5 -12z" />
    <glyph glyph-name="Omegatonos" unicode="&#x38f;" horiz-adv-x="734" 
d="M330 35l-9 -19q-60 25 -111.5 77t-82 125.5t-30.5 161.5q0 103 35.5 175t98.5 110t145 38q83 0 146 -38t98 -110t35 -175q0 -88 -27 -161t-77.5 -125.5t-119.5 -77.5l-9 19q81 47 124.5 136.5t43.5 208.5q0 93 -27.5 157.5t-75.5 98.5t-111 34q-62 0 -110.5 -34
t-76 -98.5t-27.5 -157.5q0 -78 23.5 -144.5t62 -117.5t82.5 -83zM110 0q-8 0 -13.5 6t-8 15t-2 19t6.5 18l237 -27v-31h-220zM423 0v31l236 27q6 -8 7 -18t-2 -19t-8.5 -15t-13.5 -6h-219zM47 519q-6 -1 -16 0.5t-14 5.5l41 173q15 0 30.5 -4t25.5 -12z" />
    <glyph glyph-name="iotadieresistonos" unicode="&#x390;" horiz-adv-x="279" 
d="M178 -13q-43 0 -63 32t-20 84l-1 305q0 34 -2 57t-5 38q8 6 15.5 9.5t18.5 3.5q14 0 23.5 -9.5t8.5 -31.5l-3 -377q-1 -32 9 -46t30 -14q13 0 21.5 5.5t15.5 16.5q5 -6 7.5 -13.5t2.5 -14.5q0 -21 -18.5 -33t-39.5 -12zM132 591q-6 -1 -15.5 -0.5t-13.5 4.5l12 163
q10 2 20 1.5t20 -2t17 -6.5zM31 586q-18 0 -28 13t-10 29q0 18 10 30.5t28 12.5t27.5 -12.5t9.5 -30.5q0 -16 -9.5 -29t-27.5 -13zM219 585q-19 0 -29 13t-10 30t10 30t29 13q18 0 27.5 -13t9.5 -30t-9.5 -30t-27.5 -13z" />
    <glyph glyph-name="Alpha" unicode="&#x391;" horiz-adv-x="585" 
d="M304 703q13 0 23.5 -5.5t14.5 -18.5l211 -634q4 -11 9 -21.5t11 -18.5q-5 -6 -13 -10.5t-21 -4.5q-14 0 -25 6.5t-14 18.5l-214 664l13 -1l-202 -635q-1 -6 -3 -13.5t-2 -14.5q0 -5 1 -10.5t3 -8.5q-7 -2 -14.5 -4t-17.5 -2q-17 0 -26 7.5t-8 21.5q0 7 2.5 17t5.5 20
l218 637q24 10 48 10zM144 265h312v-39h-312v39z" />
    <glyph glyph-name="Beta" unicode="&#x392;" horiz-adv-x="564" 
d="M137 0q-16 0 -25.5 9.5t-10.5 25.5v552q0 8 -0.5 26.5t-3 39.5t-6.5 32q10 6 37.5 12t88.5 6q125 0 189 -39t64 -130q0 -62 -30.5 -107t-91.5 -64q78 -12 117.5 -57t39.5 -122q0 -71 -32.5 -111.5t-94.5 -56.5t-151 -16h-90zM161 33h72q66 0 112 13t71 46t25 92
q0 63 -25.5 98t-72 49t-110.5 14h-82l-7 32h114q41 -1 74.5 15.5t54 51t20.5 87.5q0 75 -46 108.5t-150 33.5q-17 0 -29.5 -1t-20.5 -2v-637z" />
    <glyph glyph-name="Gamma" unicode="&#x393;" horiz-adv-x="505" 
d="M136 -10q-15 0 -24.5 9.5t-9.5 26.5l-1 555q0 30 -2.5 53t-7.5 41q9 9 19 12.5t28 3.5h326q8 0 10.5 -7t1 -16t-5.5 -18t-11 -12q-72 7 -146.5 11t-153.5 4l2 -550q0 -30 2 -55.5t8 -42.5q-5 -5 -13.5 -10t-21.5 -5z" />
    <glyph glyph-name="uni0394" unicode="&#x394;" horiz-adv-x="599" 
d="M67 0q-22 0 -31.5 15.5t-2.5 39.5l229 635q23 11 47 11q14 0 24.5 -6t14.5 -19l218 -622q4 -10 9.5 -21t11.5 -18q-6 -6 -15 -10.5t-22 -4.5h-483zM85 18l-17 24h467l-21 -22l-221 650l10 -1z" />
    <glyph glyph-name="Epsilon" unicode="&#x395;" horiz-adv-x="531" 
d="M136 0q-15 0 -24.5 9.5t-9.5 25.5l-1 547q0 30 -2.5 53t-7.5 40q9 10 19 13t28 3h307q8 0 10.5 -7t1 -16.5t-6 -18t-11.5 -10.5q-69 6 -137.5 10t-142.5 5l2 -618q49 1 100.5 3.5t100.5 6t93 7.5q7 -3 10 -12t3 -18t-3.5 -16t-11.5 -7h-317zM149 346v39h268q3 -10 3 -20
t-3 -19h-268z" />
    <glyph glyph-name="Zeta" unicode="&#x396;" horiz-adv-x="565" 
d="M63 -6l-13 20q0 16 6 31t17 30l387 582l12 -12l-282 -5q-42 0 -62.5 -15.5t-23.5 -38.5q-2 -23 6.5 -39t27.5 -30q-14 -5 -32 0q-23 3 -37.5 28.5t-14.5 53.5q0 39 32.5 66.5t98.5 26.5l181 -2q46 0 76 1t49 6l17 -18q0 -20 -5 -36t-16 -30l-393 -585l-5 19l293 5
q55 0 76.5 18.5t24.5 42.5q4 26 -6.5 46.5t-24.5 31.5q9 2 13 2.5t10 0.5q20 -3 33 -18.5t20 -36t7 -39.5q0 -42 -32.5 -71.5t-102.5 -29.5l-222 2q-30 1 -58 0t-57 -7z" />
    <glyph glyph-name="Eta" unicode="&#x397;" horiz-adv-x="672" 
d="M161 103q0 -30 2 -55.5t8 -43.5q-5 -4 -13.5 -9t-21.5 -5q-15 0 -24.5 9.5t-9.5 25.5l-1 562q0 30 -2.5 55t-7.5 43q4 5 13 9.5t21 4.5q15 0 25.5 -9t10.5 -26v-561zM572 103q0 -30 2 -55.5t8 -43.5q-5 -4 -13.5 -9t-21.5 -5q-15 0 -24.5 9.5t-9.5 25.5l-1 562
q0 30 -2 55t-8 43q4 5 13 9.5t22 4.5q15 0 25 -9t10 -26v-561zM140 386h395v-39h-395v39z" />
    <glyph glyph-name="Theta" unicode="&#x398;" horiz-adv-x="646" 
d="M212 328q-9 20 0 39h219q5 -10 4.5 -20.5t-3.5 -18.5h-220zM323 -13q-124 0 -191.5 88t-67.5 270q0 183 67.5 270.5t191.5 87.5t191.5 -87.5t67.5 -270.5q0 -182 -67.5 -270t-191.5 -88zM323 21q93 0 143.5 78t50.5 246q0 169 -50.5 247t-143.5 78t-143.5 -78t-50.5 -247
q0 -168 50.5 -246t143.5 -78z" />
    <glyph glyph-name="Iota" unicode="&#x399;" horiz-adv-x="261" 
d="M136 -10q-15 0 -24.5 9.5t-9.5 25.5l-1 562q0 30 -2.5 55t-7.5 43q4 5 13 9.5t21 4.5q15 0 25.5 -9t10.5 -26v-561q0 -30 2 -55.5t8 -43.5q-5 -4 -13.5 -9t-21.5 -5z" />
    <glyph glyph-name="Kappa" unicode="&#x39a;" horiz-adv-x="572" 
d="M500 -11q-20 0 -35.5 11t-27.5 29.5t-19 38.5l-47 151q-9 21 -19.5 41t-29 35.5t-50.5 24.5t-83 9h-37l-1 32q9 1 20 1.5t20 0.5q55 4 97.5 28.5t71 62t43 79.5t14.5 81q0 31 -6.5 49t-11.5 26q8 5 15 8.5t15 3.5q11 0 22 -8t18.5 -26t7.5 -50q0 -51 -22 -105.5
t-69.5 -99.5t-126.5 -69l5 11q74 -5 110 -38.5t52 -83.5l49 -145q10 -28 20.5 -38t22.5 -11q5 0 14.5 2.5t16.5 11.5q6 -10 6 -21q0 -20 -18 -31t-37 -11zM136 -10q-15 0 -24.5 9.5t-9.5 25.5l-1 562q0 30 -2.5 55t-7.5 43q4 5 13 9.5t21 4.5q15 0 24.5 -9t9.5 -26l2 -561
q0 -30 2 -55.5t8 -43.5q-5 -4 -13.5 -9t-21.5 -5z" />
    <glyph glyph-name="Lambda" unicode="&#x39b;" horiz-adv-x="604" 
d="M61 -13q-18 0 -27 7.5t-9 21.5q0 7 2 17t6 20l233 637q12 6 22.5 8.5t18.5 2.5q34 0 42 -23l227 -636q4 -11 9 -21.5t12 -18.5q-7 -6 -15.5 -10.5t-21.5 -4.5q-31 0 -39 25l-230 672h21l-219 -644q-2 -6 -4 -13.5t-2 -14.5q0 -6 1.5 -11t2.5 -8q-7 -3 -13.5 -4.5
t-16.5 -1.5z" />
    <glyph glyph-name="Mu" unicode="&#x39c;" horiz-adv-x="847" 
d="M747 103q0 -30 2 -55.5t8 -43.5q-5 -4 -13.5 -9t-21.5 -5q-15 0 -24 9.5t-9 25.5l-1 596l10 12l-249 -513q-16 -7 -30 -7.5t-27 6.5q-44 80 -88.5 164t-88 170t-86.5 168l8 -3l1 -515q0 -30 2 -57.5t8 -44.5q-4 -5 -10.5 -8t-15.5 -3q-12 0 -17.5 8.5t-5.5 22.5l-2 567
q0 34 -1.5 59t-4.5 42q4 4 13 7t25 3q10 0 17.5 -3t12.5 -10q68 -132 136.5 -263.5t136.5 -260.5l-12 -3q31 64 63.5 131.5t65 136.5t64.5 136t62 130q9 4 18.5 5t15.5 1q15 0 25 -6t11 -17z" />
    <glyph glyph-name="Nu" unicode="&#x39d;" horiz-adv-x="657" 
d="M121 -10q-9 0 -16 3t-13 8q6 18 8 45t2 57l-1 477q0 34 -1.5 63t-5.5 46q7 6 17.5 7.5t20 0t11.5 -4.5q31 -44 71.5 -105t85 -129l89 -136t83 -129t67.5 -106l-11 518q-1 33 2 56t11 32q6 3 13 3.5t15 -1.5q3 -8 6 -22.5t3 -28.5l1 -542q0 -34 0.5 -59t2.5 -42
q-3 -5 -11.5 -7t-17 -2t-14.5 2q-28 36 -62 84t-71 102.5t-74 111.5t-71.5 112t-65 103.5t-53.5 85.5l10 -565q1 -17 -8.5 -27.5t-22.5 -10.5z" />
    <glyph glyph-name="Xi" unicode="&#x39e;" horiz-adv-x="533" 
d="M64 635q-6 4 -10.5 13t-5.5 19t1.5 17t9.5 7h416q7 0 10 -7.5t1.5 -17.5t-6.5 -19t-12 -12q-46 5 -93.5 9.5t-96.5 4.5q-72 0 -129 -6t-85 -8zM61 0q-9 0 -12 7.5t-1.5 18t6 19t11.5 11.5q47 -5 97.5 -9.5t102.5 -4.5q44 0 84.5 2t71.5 5.5t48 6.5q7 -3 11.5 -11.5t6 -19
t-1.5 -18t-12 -7.5h-412zM127 344q-8 20 0 41h294q4 -11 3.5 -21.5t-3.5 -19.5h-294z" />
    <glyph glyph-name="Omicron" unicode="&#x39f;" horiz-adv-x="646" 
d="M323 -13q-124 0 -191.5 88t-67.5 270q0 183 67.5 270.5t191.5 87.5t191.5 -87.5t67.5 -270.5q0 -182 -67.5 -270t-191.5 -88zM323 21q93 0 143.5 78t50.5 246q0 169 -50.5 247t-143.5 78t-143.5 -78t-50.5 -247q0 -168 50.5 -246t143.5 -78z" />
    <glyph glyph-name="Pi" unicode="&#x3a0;" horiz-adv-x="663" 
d="M136 -13q-15 0 -24.5 9.5t-9.5 25.5l-1 565q0 30 -2.5 55t-7.5 43q13 5 29 5.5t28 0.5h367q12 0 28 -0.5t29 -5.5q-6 -18 -8 -43t-2 -55l-1 -487q0 -30 2 -55.5t8 -43.5q-5 -4 -13.5 -9t-21.5 -5q-15 0 -24.5 9.5t-9.5 25.5v631h-341v-553q0 -30 2 -55.5t8 -43.5
q-5 -4 -13.5 -9t-21.5 -5z" />
    <glyph glyph-name="Rho" unicode="&#x3a1;" horiz-adv-x="549" 
d="M137 -10q-16 0 -25.5 9.5t-10.5 25.5v562q0 8 -0.5 26.5t-3 39.5t-6.5 32q10 6 37.5 12t86.5 6q146 0 213.5 -49.5t67.5 -152.5q0 -113 -76.5 -167.5t-229.5 -54.5h-23.5t-21.5 1l-7 32q10 -1 21.5 -1.5t36.5 -0.5q81 0 133 20.5t77 62t25 104.5q0 60 -23 98.5t-71.5 57
t-126.5 18.5q-16 0 -29 -0.5t-20 -2.5v-567q0 -8 0.5 -26.5t3 -38t6.5 -32.5q-4 -4 -12.5 -9t-21.5 -5z" />
    <glyph glyph-name="Sigma" unicode="&#x3a3;" horiz-adv-x="489" 
d="M76 0v0q-11 2 -18 13t-6 23l209 328l4 -34l-225 323q-1 7 3.5 16t11.5 15.5t13 6.5h352q7 0 10 -7t1.5 -16.5t-6.5 -17.5t-12 -11q-74 7 -154 10.5t-159 4.5l1 14l212 -309l-218 -339l-10 24q61 -6 120.5 -5t116.5 5t108 9q6 -2 9.5 -11t3 -18.5t-4 -16.5t-12.5 -7h-350z
" />
    <glyph glyph-name="Tau" unicode="&#x3a4;" horiz-adv-x="518" 
d="M265 -10q-15 0 -24.5 9.5t-9.5 25.5l-2 651l60 -2l1 -571q0 -30 2 -55.5t8 -43.5q-5 -4 -13.5 -9t-21.5 -5zM37 639q-7 2 -12 10.5t-6.5 18t1.5 16.5t10 7h458q8 0 10.5 -7t1 -16.5t-6.5 -18t-11 -10.5q-35 4 -73 9t-76.5 8t-76.5 3q-36 0 -73.5 -3t-74.5 -8t-71 -9z" />
    <glyph glyph-name="Upsilon" unicode="&#x3a5;" horiz-adv-x="605" 
d="M315 -10q-15 0 -24.5 9.5t-9.5 25.5v137q0 42 -16.5 92.5t-46.5 123.5l-81 190q-15 35 -29 57.5t-36 22.5q-10 0 -17.5 -4t-11.5 -13q-11 9 -11 23q0 17 16 31t42 14q37 0 57.5 -25.5t40.5 -74.5l73 -182q23 -56 36 -94t18.5 -68t5.5 -62l-18 -1q0 26 8 57.5t19.5 64.5
t23.5 61.5t20 48.5l73 172q14 31 26 54t28.5 35.5t40.5 12.5q26 0 40 -13.5t14 -30.5q0 -13 -11 -23q-4 9 -12 13t-18 4q-23 0 -37.5 -21t-29.5 -54l-72 -161q-7 -16 -20 -45.5t-26.5 -65t-22 -71.5t-8.5 -66v-65q0 -28 2.5 -52.5t8.5 -42.5q-5 -4 -13.5 -9t-21.5 -5z" />
    <glyph glyph-name="Phi" unicode="&#x3a6;" horiz-adv-x="792" 
d="M397 102q-108 0 -186 27t-120.5 83t-42.5 141q0 124 91 187t257 63q108 0 186 -27t119.5 -83t41.5 -140q0 -126 -91 -188t-255 -63zM386 136h23q78 0 138 23.5t95 71.5t35 122t-35 121.5t-95.5 71t-138.5 23.5h-22q-78 0 -139.5 -23t-96.5 -71t-35 -122q0 -75 35 -123
t96.5 -71t139.5 -23zM401 -14q-14 0 -23 9.5t-9 26.5l-2 568q0 29 -2 55.5t-7 44.5q4 4 12 9t21 5q14 0 24 -9t10 -27v-568q0 -30 2 -56t7 -44q-4 -4 -12.5 -9t-20.5 -5z" />
    <glyph glyph-name="Chi" unicode="&#x3a7;" horiz-adv-x="592" 
d="M511 -9q-35 0 -57 22t-38 53l-144 270l-144 268q-11 20 -21.5 29.5t-24.5 9.5q-16 0 -23 -9t-6 -21q-12 3 -19.5 12t-7.5 23q0 18 16 34t48 16q36 0 58.5 -22t37.5 -52l130 -244l159 -294q10 -17 21 -28.5t26 -11.5t21.5 10.5t5.5 20.5q13 -3 20.5 -12t7.5 -23
q0 -19 -18 -35t-48 -16zM62 -7q-14 0 -22.5 8.5t-10.5 29.5q14 6 29.5 23t35.5 46l190 277l28 -33l-218 -332q-6 -9 -13.5 -14t-18.5 -5zM314 342l-24 31l192 310q6 8 13.5 13.5t18.5 5.5q15 0 23 -9t10 -29q-17 -9 -33 -27t-33 -43z" />
    <glyph glyph-name="Psi" unicode="&#x3a8;" horiz-adv-x="811" 
d="M418 207l1 36q78 0 130 23.5t78.5 73t27.5 127.5l1 131q0 39 13 62t31.5 33t37.5 10q23 0 39 -11t16 -32q0 -11 -6 -21q-7 9 -15.5 11.5t-14.5 2.5q-10 0 -19.5 -5t-15.5 -20.5t-6 -47.5l-1 -117q0 -73 -23.5 -122.5t-64 -78.5t-94.5 -42t-115 -13zM400 207
q-61 0 -115 13t-95 42t-64 78.5t-24 122.5l-1 117q0 32 -6 47.5t-15.5 20.5t-18.5 5q-8 0 -16 -3t-15 -11q-6 10 -6 21q0 21 16.5 32t39.5 11q19 0 37 -10t31 -33t13 -62l1 -131q1 -77 27.5 -126.5t79 -73.5t129.5 -24zM413 -10q-15 0 -24 9.5t-9 25.5l-2 562q0 30 -2 55
t-8 43q5 5 13.5 9.5t21.5 4.5q15 0 25 -9t10 -26v-561q0 -30 2 -55.5t8 -43.5q-4 -4 -13 -9t-22 -5z" />
    <glyph glyph-name="uni03A9" unicode="&#x3a9;" horiz-adv-x="634" 
d="M312 35l-9 -19q-60 25 -111.5 77t-82 125.5t-30.5 161.5q0 103 35.5 175t98.5 110t145 38q83 0 146 -38t98 -110t35 -175q0 -88 -27 -161t-77.5 -125.5t-119.5 -77.5l-9 19q81 47 124.5 136.5t43.5 208.5q0 93 -27.5 157.5t-75.5 98.5t-111 34q-62 0 -110.5 -34
t-76 -98.5t-27.5 -157.5q0 -78 23.5 -144.5t62 -117.5t82.5 -83zM92 0q-8 0 -13.5 6t-8 15t-2 19t6.5 18l237 -27v-31h-220zM405 0v31l236 27q6 -8 7 -18t-2 -19t-8.5 -15t-13.5 -6h-219z" />
    <glyph glyph-name="Iotadieresis" unicode="&#x3aa;" horiz-adv-x="261" 
d="M136 -10q-15 0 -24.5 9.5t-9.5 25.5l-1 562q0 30 -2.5 55t-7.5 43q4 5 13 9.5t21 4.5q15 0 25.5 -9t10.5 -26v-561q0 -30 2 -55.5t8 -43.5q-5 -4 -13.5 -9t-21.5 -5zM40 759q-18 0 -31 13t-13 30q0 19 13 31.5t31 12.5t31 -12.5t13 -31.5q0 -17 -13 -30t-31 -13zM214 759
q-17 0 -30 13t-13 30q0 19 13 31.5t30 12.5q19 0 31.5 -12.5t12.5 -31.5q0 -17 -12.5 -30t-31.5 -13z" />
    <glyph glyph-name="Upsilondieresis" unicode="&#x3ab;" horiz-adv-x="605" 
d="M315 -10q-15 0 -24.5 9.5t-9.5 25.5v137q0 42 -16.5 92.5t-46.5 123.5l-81 190q-15 35 -29 57.5t-36 22.5q-10 0 -17.5 -4t-11.5 -13q-11 9 -11 23q0 17 16 31t42 14q37 0 57.5 -25.5t40.5 -74.5l73 -182q23 -56 36 -94t18.5 -68t5.5 -62l-18 -1q0 26 8 57.5t19.5 64.5
t23.5 61.5t20 48.5l73 172q14 31 26 54t28.5 35.5t40.5 12.5q26 0 40 -13.5t14 -30.5q0 -13 -11 -23q-4 9 -12 13t-18 4q-23 0 -37.5 -21t-29.5 -54l-72 -161q-7 -16 -20 -45.5t-26.5 -65t-22 -71.5t-8.5 -66v-65q0 -28 2.5 -52.5t8.5 -42.5q-5 -4 -13.5 -9t-21.5 -5z
M226 760q-18 0 -31 13t-13 30q0 19 13 31.5t31 12.5t31 -12.5t13 -31.5q0 -17 -13 -30t-31 -13zM400 760q-17 0 -30 13t-13 30q0 19 13 31.5t30 12.5q19 0 31.5 -12.5t12.5 -31.5q0 -17 -12.5 -30t-31.5 -13z" />
    <glyph glyph-name="alphatonos" unicode="&#x3ac;" horiz-adv-x="591" 
d="M228 -13q-30 0 -61.5 13.5t-58.5 42.5t-43.5 76.5t-16.5 115.5q0 76 26.5 140.5t76 103t115.5 38.5q42 0 75 -16.5t57.5 -49t40.5 -82.5l-15 -43q-15 67 -53 107.5t-93 40.5q-46 0 -79 -22t-53.5 -58t-30 -77.5t-9.5 -79.5q0 -55 14 -101.5t43.5 -74t75.5 -27.5
q36 0 62.5 16.5t45 43.5t31 60t20.5 66.5t12 61.5l32 163q3 20 4.5 34t-0.5 28q3 2 9.5 3.5t12.5 1.5q16 0 26 -8.5t13 -21.5t-2 -30l-51 -216q2 -94 16 -146t53 -52q17 0 29.5 6t19.5 20q10 -9 10 -26q0 -20 -18 -35.5t-49 -15.5q-47 0 -73 45.5t-27 148.5l6 -6
q-12 -49 -36.5 -92t-63 -69.5t-93.5 -26.5zM295 561q-6 -1 -16 0.5t-14 5.5l40 173q16 0 31 -4t25 -12z" />
    <glyph glyph-name="epsilontonos" unicode="&#x3ad;" horiz-adv-x="482" 
d="M256 -14q-97 0 -152 37.5t-55 100.5q0 46 33 82t96 53l9 -12q-54 9 -88 46t-34 79q0 43 25.5 75.5t71 51t105.5 18.5q86 0 128.5 -26.5t42.5 -67.5q0 -25 -14.5 -41.5t-36.5 -16.5q-9 0 -18.5 3.5t-15.5 8.5q17 11 23 22.5t6 24.5q0 25 -31 42.5t-86 17.5
q-63 0 -101 -30.5t-38 -78.5q0 -43 30.5 -72t73.5 -38l1 -20q-55 -8 -87.5 -38.5t-32.5 -70.5q0 -51 44.5 -78t111.5 -27q40 0 77 8t65.5 29t41.5 58q8 -4 11.5 -10t3.5 -13q0 -32 -26.5 -58.5t-74 -42.5t-109.5 -16zM309 230q-32 0 -57.5 3.5t-45.5 7.5l5 27q36 3 68 5.5
t65 4.5q7 -7 7 -16q0 -12 -10.5 -22t-31.5 -10zM273 561q-6 -1 -16 0.5t-14 5.5l40 173q16 0 31 -4t25 -12z" />
    <glyph glyph-name="etatonos" unicode="&#x3ae;" horiz-adv-x="575" 
d="M478 -228q-16 0 -23.5 9.5t-10 25.5t-2.5 37l3 488q1 43 -7.5 73.5t-28.5 47t-57 16.5q-41 0 -74 -23.5t-56.5 -59t-35.5 -72t-12 -63.5v-176q0 -29 2.5 -45.5t6.5 -28.5q-6 -5 -14 -9.5t-19 -4.5q-20 0 -27.5 18t-6.5 51l6 218q0 59 -1 102t-10 66.5t-34 23.5
q-14 0 -23 -6t-14 -14q-4 5 -7 12t-3 14q0 21 18 32.5t40 11.5q27 0 46.5 -16.5t28.5 -59.5t5 -122l-14 6q23 68 57.5 110.5t73.5 62.5t77 20q29 0 54 -8.5t44 -30t29 -59.5t10 -96v-431q0 -19 0.5 -39.5t3 -38.5t6.5 -28q-3 -4 -12 -9t-19 -5zM332 561q-6 -1 -16 0.5
t-14 5.5l40 173q16 0 31 -4t25 -12z" />
    <glyph glyph-name="iotatonos" unicode="&#x3af;" horiz-adv-x="279" 
d="M178 -13q-43 0 -63 32t-20 84l-1 305q0 34 -2 57t-5 38q8 6 15.5 9.5t18.5 3.5q14 0 23.5 -9.5t8.5 -31.5l-3 -377q-1 -32 9 -46t30 -14q13 0 21.5 5.5t15.5 16.5q5 -6 7.5 -13.5t2.5 -14.5q0 -21 -18.5 -33t-39.5 -12zM139 563q-6 -1 -16 0.5t-14 5.5l40 173q16 0 31 -4
t25 -12z" />
    <glyph glyph-name="upsilondieresistonos" unicode="&#x3b0;" horiz-adv-x="586" 
d="M294 -13q-56 0 -97.5 22t-63 63t-21.5 98q0 60 8 117t8 113q0 32 -8 49t-32 17q-13 0 -22 -7t-14 -15q-9 11 -9 25q0 22 18.5 34.5t41.5 12.5q44 0 63 -32.5t19 -82.5q0 -35 -4 -73t-8 -79.5t-4 -84.5q0 -69 33.5 -106.5t91.5 -37.5q75 0 116.5 62t41.5 179q0 89 -21 155
t-52 89q4 10 20 10q25 0 51.5 -32t44.5 -90.5t18 -135.5q0 -84 -27 -144.5t-76 -93t-116 -32.5zM292 589q-6 -1 -15.5 -0.5t-13.5 4.5l12 163q10 2 20 1.5t20 -2t17 -6.5zM191 584q-18 0 -28 13t-10 29q0 18 10 30.5t28 12.5t27.5 -12.5t9.5 -30.5q0 -16 -9.5 -29t-27.5 -13
zM379 583q-19 0 -29 13t-10 30t10 30t29 13q18 0 27.5 -13t9.5 -30t-9.5 -30t-27.5 -13z" />
    <glyph glyph-name="alpha" unicode="&#x3b1;" horiz-adv-x="591" 
d="M228 -13q-30 0 -61.5 13.5t-58.5 42.5t-43.5 76.5t-16.5 115.5q0 76 26.5 140.5t76 103t115.5 38.5q42 0 75 -16.5t57.5 -49t40.5 -82.5l-15 -43q-15 67 -53 107.5t-93 40.5q-46 0 -79 -22t-53.5 -58t-30 -77.5t-9.5 -79.5q0 -55 14 -101.5t43.5 -74t75.5 -27.5
q36 0 62.5 16.5t45 43.5t31 60t20.5 66.5t12 61.5l32 163q3 20 4.5 34t-0.5 28q3 2 9.5 3.5t12.5 1.5q16 0 26 -8.5t13 -21.5t-2 -30l-51 -216q2 -94 16 -146t53 -52q17 0 29.5 6t19.5 20q10 -9 10 -26q0 -20 -18 -35.5t-49 -15.5q-47 0 -73 45.5t-27 148.5l6 -6
q-12 -49 -36.5 -92t-63 -69.5t-93.5 -26.5z" />
    <glyph glyph-name="beta" unicode="&#x3b2;" horiz-adv-x="552" 
d="M123 -228q-17 0 -24.5 9.5t-9.5 27t-2 41.5v651q0 63 16.5 107t44 70.5t62 38.5t69.5 12q48 0 87.5 -18.5t63.5 -54.5t24 -88q0 -57 -32 -107.5t-89 -80.5l-46 8q28 12 52 37t38.5 60.5t14.5 80.5q0 32 -11.5 61.5t-36.5 49t-67 19.5q-34 0 -65 -17.5t-50.5 -58
t-19.5 -110.5v-628q0 -28 2 -54.5t8 -41.5q-3 -4 -11 -9t-18 -5zM299 -13q-63 0 -104.5 20.5t-68.5 51.5l4 40q15 -16 36 -33t51 -28.5t69 -11.5q46 0 81.5 21t56 57.5t20.5 83.5q0 67 -38.5 115t-103.5 59q-17 -10 -34 -16t-37 -6q-16 0 -24.5 7t-8.5 20q0 5 1 9t2 9
q24 6 50 8.5t55 0.5l3 -2q61 -6 104.5 -33t67 -70t23.5 -98q0 -48 -21.5 -95t-66.5 -78t-117 -31z" />
    <glyph glyph-name="gamma" unicode="&#x3b3;" horiz-adv-x="524" 
d="M272 -33l-17 6l-155 441q-10 29 -21.5 40t-26.5 11q-13 0 -21.5 -7t-13.5 -16q-4 4 -7.5 10t-3.5 15q0 14 14.5 31.5t46.5 17.5q28 0 50.5 -21.5t35.5 -68.5l130 -416l-20 15q30 44 56 98.5t46.5 114t32.5 121t12 119.5q0 11 -1 19t-4 11q6 3 14 5.5t17 2.5
q19 0 26.5 -11t7.5 -25q0 -53 -12.5 -112t-33 -117t-45.5 -110t-52 -91zM263 -225q-20 0 -28 11t-8 39q0 25 3.5 60t10.5 69t15 58l34 -2q-3 -45 -4 -89.5t1 -80.5t6 -52q-5 -6 -13 -9.5t-17 -3.5z" />
    <glyph glyph-name="delta" unicode="&#x3b4;" horiz-adv-x="525" 
d="M269 -13q-104 0 -162.5 67t-58.5 184q0 74 32.5 131.5t88.5 90t128 31.5l21 -26q-64 1 -111.5 -25.5t-73 -77t-25.5 -121.5q0 -102 43 -161.5t117 -59.5q75 0 117.5 59.5t42.5 162.5q0 75 -31.5 127.5t-94.5 85.5l-84 45q-54 29 -81 59t-27 64q0 49 41.5 77.5t112.5 28.5
q54 0 98.5 -14.5t70.5 -39.5t26 -56q0 -16 -11.5 -27t-28.5 -11q-5 33 -29 56.5t-61 37t-82 13.5q-42 0 -66.5 -14t-24.5 -41q0 -21 17 -37.5t59 -40.5l99 -58q75 -44 116 -106.5t41 -145.5q0 -80 -26.5 -138t-75 -89t-117.5 -31z" />
    <glyph glyph-name="epsilon" unicode="&#x3b5;" horiz-adv-x="482" 
d="M256 -14q-97 0 -152 37.5t-55 100.5q0 46 33 82t96 53l9 -12q-54 9 -88 46t-34 79q0 43 25.5 75.5t71 51t105.5 18.5q86 0 128.5 -26.5t42.5 -67.5q0 -25 -14.5 -41.5t-36.5 -16.5q-9 0 -18.5 3.5t-15.5 8.5q17 11 23 22.5t6 24.5q0 25 -31 42.5t-86 17.5
q-63 0 -101 -30.5t-38 -78.5q0 -43 30.5 -72t73.5 -38l1 -20q-55 -8 -87.5 -38.5t-32.5 -70.5q0 -51 44.5 -78t111.5 -27q40 0 77 8t65.5 29t41.5 58q8 -4 11.5 -10t3.5 -13q0 -32 -26.5 -58.5t-74 -42.5t-109.5 -16zM309 230q-32 0 -57.5 3.5t-45.5 7.5l5 27q36 3 68 5.5
t65 4.5q7 -7 7 -16q0 -12 -10.5 -22t-31.5 -10z" />
    <glyph glyph-name="zeta" unicode="&#x3b6;" horiz-adv-x="409" 
d="M328 -187q-26 0 -34 18q10 4 23 11.5t22.5 22t9.5 36.5q0 25 -13 40.5t-33 24.5t-43 16l-43 15q-18 6 -43.5 18t-49.5 33.5t-39.5 56t-15.5 85.5q0 52 21.5 114.5t61.5 128t95.5 128t123.5 113.5l-8 -23q-32 -15 -75 -27.5t-87 -12.5q-39 0 -66.5 13t-43 34.5t-15.5 45.5
q0 13 8.5 23t22.5 12q7 -19 19 -37.5t36.5 -30.5t65.5 -12q27 0 53.5 5t50.5 14q31 12 46 23t31 11t23.5 -9.5t8.5 -22.5l-44 -32q-38 -25 -75.5 -64.5t-71.5 -86.5t-61 -99t-42.5 -103t-15.5 -98q0 -46 12.5 -76t31 -49t39 -29.5t38.5 -16.5l37 -13q14 -5 34 -13t39 -21
t31 -31.5t12 -44.5q0 -25 -10.5 -45.5t-27.5 -32.5t-39 -12z" />
    <glyph glyph-name="eta" unicode="&#x3b7;" horiz-adv-x="575" 
d="M478 -228q-16 0 -23.5 9.5t-10 25.5t-2.5 37l3 488q1 43 -7.5 73.5t-28.5 47t-57 16.5q-41 0 -74 -23.5t-56.5 -59t-35.5 -72t-12 -63.5v-176q0 -29 2.5 -45.5t6.5 -28.5q-6 -5 -14 -9.5t-19 -4.5q-20 0 -27.5 18t-6.5 51l6 218q0 59 -1 102t-10 66.5t-34 23.5
q-14 0 -23 -6t-14 -14q-4 5 -7 12t-3 14q0 21 18 32.5t40 11.5q27 0 46.5 -16.5t28.5 -59.5t5 -122l-14 6q23 68 57.5 110.5t73.5 62.5t77 20q29 0 54 -8.5t44 -30t29 -59.5t10 -96v-431q0 -19 0.5 -39.5t3 -38.5t6.5 -28q-3 -4 -12 -9t-19 -5z" />
    <glyph glyph-name="theta" unicode="&#x3b8;" horiz-adv-x="580" 
d="M295 729q66 0 117 -44t81 -126.5t30 -199.5q0 -175 -60.5 -273.5t-168.5 -98.5q-109 0 -169 98.5t-60 273.5q0 117 28.5 199.5t80.5 126.5t121 44zM292 695q-49 0 -86.5 -36.5t-58.5 -109t-22 -181.5q66 -1 119 -1.5t105 0.5t112 4q0 108 -22 180t-60 108t-87 36zM294 21
q77 0 120 78.5t47 232.5q-58 0 -108.5 0.5t-104 0t-123.5 -1.5q4 -153 48 -231.5t121 -78.5z" />
    <glyph glyph-name="iota" unicode="&#x3b9;" horiz-adv-x="279" 
d="M178 -13q-43 0 -63 32t-20 84l-1 305q0 34 -2 57t-5 38q8 6 15.5 9.5t18.5 3.5q14 0 23.5 -9.5t8.5 -31.5l-3 -377q-1 -32 9 -46t30 -14q13 0 21.5 5.5t15.5 16.5q5 -6 7.5 -13.5t2.5 -14.5q0 -21 -18.5 -33t-39.5 -12z" />
    <glyph glyph-name="kappa" unicode="&#x3ba;" horiz-adv-x="540" 
d="M111 -10q-17 0 -25 12t-8 34v372q0 34 -2.5 57t-5.5 38q6 6 14.5 9.5t17.5 3.5q15 0 24.5 -9.5t8.5 -31.5l-7 -392l-13 -3q2 29 18 59t32 52l131 184q28 37 50 68t43.5 50t47.5 19q16 0 26.5 -10t10.5 -24q0 -7 -3 -14t-6 -11q-4 2 -7.5 3.5t-9.5 1.5q-17 0 -39 -18.5
t-46 -48t-49 -62.5l-123 -169q-15 -18 -27.5 -39t-19.5 -42.5t-7 -41.5q0 -10 2 -18l4 -16q-5 -4 -13 -8.5t-19 -4.5zM463 -10q-19 0 -35 9.5t-30.5 28.5t-28.5 46l-116 216l27 35l124 -214q20 -35 37.5 -53t36.5 -18q14 0 21 8.5t11 15.5q4 -4 7.5 -10t3.5 -15
q0 -11 -6.5 -22t-19 -19t-32.5 -8z" />
    <glyph glyph-name="lambda" unicode="&#x3bb;" horiz-adv-x="519" 
d="M479 -13q-21 0 -36 10.5t-26.5 32t-23.5 52.5l-182 491q-13 38 -24 61.5t-23 33.5t-28 10q-17 0 -31 -7.5t-20 -16.5q-3 3 -5.5 9t-2.5 13q0 23 20 37.5t47 14.5q29 0 46.5 -16.5t31 -47t28.5 -72.5l188 -482q14 -34 25.5 -53.5t31.5 -19.5q13 0 21 7.5t13 15.5
q3 -4 6 -10.5t3 -15.5t-6 -20.5t-19 -19t-34 -7.5zM77 -13q-14 0 -22.5 6t-11.5 13.5t-3 13.5q0 12 10.5 42.5t28.5 74.5t40.5 94t45.5 100.5t43 96t35 77.5l28 -29q-11 -28 -27.5 -69.5t-35.5 -89t-38 -96t-35 -91t-25 -73t-9 -44.5q0 -4 0.5 -9.5t2.5 -9.5q-3 -3 -10.5 -5
t-16.5 -2z" />
    <glyph glyph-name="uni03BC" unicode="&#x3bc;" horiz-adv-x="592" 
d="M148 -228q-23 0 -35.5 26.5t-17.5 83.5t-2.5 148t7.5 221l-3 177q-2 30 -3.5 48t-4.5 27q5 5 14 9t21 4q18 0 24.5 -12.5t6.5 -31.5q0 -29 -1 -62.5t-2 -68t-2 -68.5t-1 -65q0 -42 11.5 -81t38.5 -64t74 -25q44 0 76 29t49 77.5t17 104.5q0 99 -1 163.5t-8 90.5
q8 6 16 9.5t18 3.5q19 0 26.5 -16t5.5 -42l-11 -256q0 -28 2.5 -57t9 -53.5t17.5 -39t29 -14.5q17 0 28 11t18 27.5t9 30.5q5 -2 10 -7.5t5 -20.5q0 -23 -11 -44.5t-28.5 -34.5t-40.5 -13q-30 0 -48.5 21t-27 57t-9.5 82h5q-12 -47 -33.5 -83t-53.5 -56.5t-73 -20.5
q-53 0 -83.5 24t-43.5 60t-16 73h8q1 -73 2 -137.5t7.5 -112.5t21.5 -72q5 -10 11 -15t10 -8q-4 -10 -14 -18.5t-24 -8.5z" />
    <glyph glyph-name="nu" unicode="&#x3bd;" horiz-adv-x="531" 
d="M249 -6l-149 420q-10 28 -20 39.5t-26 11.5q-14 0 -23 -7t-14 -16q-4 4 -7.5 10t-3.5 15q0 14 14.5 31.5t46.5 17.5q28 0 50 -20t36 -70l126 -395l-23 4q14 4 31 27t34 58.5t33 78.5q19 49 33 102t22 101t8 81q0 10 -1 18.5t-3 11.5q5 3 13 5t17 2q19 0 27 -11t8 -25
q0 -37 -10 -84.5t-25.5 -98.5t-35 -98t-38.5 -83q-22 -41 -42.5 -69.5t-39.5 -42.5t-38 -14z" />
    </font>
</defs>
</svg>
