<?xml version="1.0" standalone="no"?>
<!DOCTYPE svg PUBLIC "-//W3C//DTD SVG 1.1//EN" "http://www.w3.org/Graphics/SVG/1.1/DTD/svg11.dtd" >
<svg xmlns="http://www.w3.org/2000/svg" xmlns:xlink="http://www.w3.org/1999/xlink" version="1.1">
<metadata>
Created by FontForge 20170731 at Mon Feb 20 16:25:06 2023
 By Aleksey,,,
Copyright 2020 The Arima Project Authors (https://github.com/NDISCOVER/Arima-Font)
</metadata>
<defs>
<font id="Arima-Regular" horiz-adv-x="0" >
  <font-face 
    font-family="Arima"
    font-weight="400"
    font-stretch="normal"
    units-per-em="1000"
    panose-1="0 0 0 0 0 0 0 0 0 0"
    ascent="800"
    descent="-200"
    x-height="514"
    cap-height="702"
    bbox="-1103 -535 2499 1024"
    underline-thickness="50"
    underline-position="-175"
    unicode-range="U+000D-FB02"
  />
<missing-glyph horiz-adv-x="500" 
d="M50 -430v1270h400v-1270h-400zM100 -380h300v1170h-300v-1170z" />
    <glyph glyph-name="fi" unicode="fi" horiz-adv-x="580" 
d="M146 -11q-20 0 -33 12t-13 32l-1 498q0 38 9 75.5t31.5 68t63.5 48.5t108 18q54 0 95.5 -10.5t65 -31t23.5 -51.5q0 -28 -20 -46t-42 -18t-32 11q13 15 16 28.5t3 23.5q0 22 -16 35t-40.5 19t-52.5 6q-44 0 -70.5 -14t-40 -39.5t-17.5 -60t-4 -75.5v-404q0 -26 2.5 -55.5
t9.5 -51.5q-7 -7 -18.5 -12.5t-26.5 -5.5zM24 462l1 23q1 11 7.5 16.5t15.5 5.5h193q4 0 14 0.5t21.5 1t21 1t13.5 0.5l-1 -22q-1 -11 -7 -17t-15 -6h-204q-10 0 -30 -0.5t-30 -2.5zM496 114q0 -30 2.5 -57.5t10.5 -49.5q-6 -5 -17.5 -11.5t-28.5 -6.5q-19 0 -32 12t-13 32
l-1 363q0 30 -2.5 57.5t-10.5 49.5q6 5 17.5 11.5t28.5 6.5q20 0 32.5 -11.5t12.5 -32.5z" />
    <glyph glyph-name="fl" unicode="fl" horiz-adv-x="614" 
d="M146 -11q-20 0 -33 12t-13 32l-1 523q0 37 9.5 70t31.5 59t60.5 41t97.5 15q102 0 154 -40.5t52 -109.5v-486q0 -25 9.5 -39t28.5 -14q11 0 21.5 5t15.5 16q7 -8 9 -16.5t2 -14.5q0 -23 -21 -37.5t-50 -14.5q-44 0 -69.5 29.5t-25.5 81.5v483q0 46 -15.5 73t-43.5 38.5
t-65 11.5q-42 0 -66.5 -13t-36 -35.5t-15 -52t-3.5 -63.5v-429q0 -26 2.5 -55.5t9.5 -51.5q-7 -7 -18.5 -12.5t-26.5 -5.5zM24 462l1 23q1 11 7.5 16.5t15.5 5.5h193q5 0 19 0.5t28 1.5t19 1l-1 -22q-1 -11 -7 -17t-15 -6h-200q-10 0 -30 -0.5t-30 -2.5z" />
    <glyph glyph-name=".notdef" horiz-adv-x="500" 
d="M50 -430v1270h400v-1270h-400zM100 -380h300v1170h-300v-1170z" />
    <glyph glyph-name=".null" 
 />
    <glyph glyph-name="nonmarkingreturn" horiz-adv-x="333" 
 />
    <glyph glyph-name="CR" unicode="&#xd;" horiz-adv-x="600" 
 />
    <glyph glyph-name="space" unicode=" " horiz-adv-x="240" 
 />
    <glyph glyph-name="exclam" unicode="!" horiz-adv-x="298" 
d="M102 718l19 -537h59l16 537q-23 7 -47 7.5t-47 -7.5zM148 -13q-22 0 -38 16t-16 38q0 23 16 38.5t38 15.5q23 0 38.5 -15.5t15.5 -38.5q0 -22 -15.5 -38t-38.5 -16z" />
    <glyph glyph-name="quotedbl" unicode="&#x22;" horiz-adv-x="281" 
d="M166 726l17 -152h38l20 152q-16 5 -36.5 5t-38.5 -5zM40 726l17 -152h38l20 152q-16 5 -36.5 5t-38.5 -5z" />
    <glyph glyph-name="numbersign" unicode="#" horiz-adv-x="650" 
d="M189 0h-58l126 693h58zM389 0h-58l126 693h58zM53 469h583l-7 -50h-583zM21 269h583l-7 -50h-583z" />
    <glyph glyph-name="dollar" unicode="$" horiz-adv-x="555" 
d="M290 -92q-19 0 -19 22l-2 754q0 63 -6 87q4 3 8 5.5t12 2.5q18 0 18 -22l2 -754q0 -63 6 -87q-3 -3 -7.5 -5.5t-11.5 -2.5zM275 -13q-78 0 -127.5 20t-73 54t-23.5 74q0 19 7 33.5t23 21t44 2.5q-3 -9 -3.5 -19.5t0.5 -22.5q2 -38 21.5 -66t55 -44t84.5 -16
q64 0 104.5 30.5t40.5 91.5q0 40 -18.5 68.5t-54 54t-87.5 53.5q-57 33 -100.5 62.5t-67.5 67t-24 90.5q0 59 29 94.5t77.5 52.5t105.5 17q89 0 144 -32.5t55 -91.5q0 -18 -8.5 -30.5t-31.5 -15.5q-13 -4 -31 0q3 11 2.5 22t-2.5 20q-3 29 -20.5 49t-47.5 31t-68 11
q-30 0 -59.5 -9.5t-49 -31.5t-19.5 -61q0 -40 20 -68.5t56 -52.5t85 -51q54 -28 98 -59.5t70.5 -71.5t26.5 -96q0 -34 -12 -66.5t-40 -58t-72.5 -41t-108.5 -15.5z" />
    <glyph glyph-name="percent" unicode="%" horiz-adv-x="1026" 
d="M220 315q-85 0 -129.5 48.5t-44.5 147.5q0 98 44.5 146.5t129.5 48.5q86 0 130 -48.5t44 -146.5q0 -99 -44 -147.5t-130 -48.5zM221 343q50 0 75.5 40.5t25.5 127.5t-25.5 126.5t-75.5 39.5t-76 -39.5t-26 -126.5t26 -127.5t76 -40.5zM684 706q14 2 28 -2.5t20 -18.5
l-392 -698q-29 -4 -46 18zM806 -9q-85 0 -129.5 48.5t-44.5 147.5q0 98 44.5 146.5t129.5 48.5q86 0 130 -48.5t44 -146.5q0 -99 -44 -147.5t-130 -48.5zM807 20q50 0 75.5 40t25.5 127t-25.5 126.5t-75.5 39.5t-76 -39.5t-26 -126.5t26 -127t76 -40z" />
    <glyph glyph-name="ampersand" unicode="&#x26;" horiz-adv-x="847" 
d="M383 -15q-75 0 -134.5 24t-101 65.5t-63.5 97t-22 117.5q0 69 28.5 121.5t80 82.5t117.5 30q55 0 90 -20t52.5 -52.5t17.5 -70.5q0 -47 -23.5 -82.5t-59.5 -62.5t-75 -50v12q27 7 65.5 30t84 57.5t93.5 77t93.5 88.5t84 92.5t63.5 89.5q10 0 20.5 -5t17.5 -15t5.5 -26
t-16.5 -37q-45 -66 -110.5 -127.5t-141 -113t-151.5 -89t-140 -56.5l-8 30q39 26 68 52t45.5 57t16.5 70q0 44 -22.5 76.5t-71.5 32.5q-35 0 -66.5 -21t-50.5 -62.5t-19 -101.5q0 -52 15.5 -100.5t46.5 -86t75.5 -60t102.5 -22.5q71 0 132.5 34.5t99.5 99t38 153.5
q0 63 -21.5 123.5t-61 107.5t-92.5 74t-117 25q0 27 14 42t52 15q62 0 114.5 -34.5t91 -91.5t60 -124t21.5 -132q0 -73 -26 -134.5t-72 -106.5t-107 -69t-133 -24z" />
    <glyph glyph-name="quotesingle" unicode="'" horiz-adv-x="155" 
d="M40 726l17 -152h38l20 152q-16 5 -36.5 5t-38.5 -5z" />
    <glyph glyph-name="parenleft" unicode="(" horiz-adv-x="427" 
d="M358 -172q-23 0 -54.5 16.5t-64.5 51t-62 89t-46.5 129.5t-17.5 173t17.5 173t46.5 129.5t62.5 89.5t64.5 51.5t54 16.5q19 0 24 -8t5 -14q-45 -25 -80.5 -68t-60 -99.5t-37.5 -125t-13 -145.5q1 -76 14 -145t38.5 -126.5t60.5 -99.5t78 -66q0 -6 -5 -14t-24 -8z" />
    <glyph glyph-name="parenright" unicode=")" horiz-adv-x="427" 
d="M69 -172q-18 0 -23.5 8t-5.5 14q43 24 78 66t60 99.5t38.5 126.5t13.5 145q0 77 -12.5 145.5t-37.5 125t-60.5 99.5t-79.5 68q0 6 5.5 14t23.5 8q22 0 53.5 -16.5t64.5 -51.5t62 -89.5t47 -129.5t18 -173t-18 -173t-46.5 -129.5t-62 -89t-65 -51t-53.5 -16.5z" />
    <glyph glyph-name="asterisk" unicode="*" horiz-adv-x="507" 
d="M31 533q0 21 13.5 38.5t44.5 17.5q40 0 72.5 -28.5t51.5 -71.5t19 -86q0 -31 -10.5 -61.5t-31 -49.5t-49.5 -19q-21 0 -38 13t-17 39q0 29 23 54.5t60.5 41.5t81.5 16q45 0 81 -16t57.5 -40.5t21.5 -51.5q0 -23 -16.5 -38t-40.5 -15q-26 0 -43.5 17.5t-27 44t-9.5 52.5
q0 33 12.5 67.5t33.5 63.5t47 47.5t53 18.5q26 0 40 -16t14 -40q0 -32 -23 -48t-59 -16q-37 0 -72.5 16t-64 42t-45.5 58t-17 64q0 28 15 44.5t46 16.5q32 0 46.5 -17.5t14.5 -45.5q0 -33 -16.5 -64t-44.5 -56.5t-63 -40t-72 -14.5q-36 0 -62 16t-26 47zM68 532
q0 -17 15 -25.5t37 -8.5q41 0 79 22.5t62.5 56t24.5 67.5q0 35 -29 35q-15 0 -21 -8.5t-6 -22.5q0 -28 14 -55t37.5 -49t52.5 -35.5t59 -13.5q21 0 36 8t15 26q0 12 -7 19.5t-19 7.5q-20 0 -39 -16.5t-35.5 -41.5t-26.5 -53.5t-10 -54.5q0 -16 5 -35.5t15.5 -34t26.5 -14.5
q12 0 19.5 7t7.5 17q0 18 -17.5 35.5t-47 29.5t-64.5 12q-34 0 -64 -12t-48 -30.5t-18 -37.5q0 -10 7 -17.5t17 -7.5q16 0 28 15.5t18.5 39t6.5 46.5q0 37 -15.5 73t-39.5 59.5t-49 23.5q-13 0 -20 -8t-7 -19z" />
    <glyph glyph-name="plus" unicode="+" horiz-adv-x="553" 
d="M79 374h395q10 -24 0 -49h-395q-9 25 0 49zM301 548v-396q-25 -8 -49 0l-1 396q25 9 50 0z" />
    <glyph glyph-name="comma" unicode="," horiz-adv-x="273" 
d="M125 -99q-10 2 -17 7t-13 11q15 17 23 33.5t8 34.5q0 19 -7.5 29.5t-18 16t-20.5 8.5q0 19 15 36.5t41 17.5q20 0 38.5 -14.5t18.5 -54.5q0 -28 -14.5 -59.5t-53.5 -65.5z" />
    <glyph glyph-name="hyphen" unicode="-" horiz-adv-x="399" 
d="M48 283h302v-52h-302v52z" />
    <glyph glyph-name="period" unicode="." horiz-adv-x="268" 
d="M134 -13q-22 0 -38 16t-16 38q0 23 16 38.5t38 15.5q23 0 38.5 -15.5t15.5 -38.5q0 -22 -15.5 -38t-38.5 -16z" />
    <glyph glyph-name="slash" unicode="/" horiz-adv-x="444" 
d="M85 -142h-80l324 873h81z" />
    <glyph glyph-name="zero" unicode="0" horiz-adv-x="623" 
d="M311 -13q-119 0 -182.5 88.5t-63.5 270.5t63.5 271t182.5 89q120 0 183 -89t63 -271t-63 -270.5t-183 -88.5zM311 24q78 0 118 77.5t40 244.5q0 168 -40 245.5t-118 77.5q-76 0 -116.5 -77.5t-40.5 -245.5q0 -167 40.5 -244.5t116.5 -77.5z" />
    <glyph glyph-name="one" unicode="1" horiz-adv-x="427" 
d="M301 114q0 -29 2 -57t10 -50q-5 -5 -17 -11.5t-29 -6.5q-19 0 -31.5 12t-12.5 32l-1 541q0 15 -0.5 27.5t-2.5 24.5q-16 -17 -37.5 -37t-44 -37.5t-40.5 -29t-27 -11.5q-15 0 -23 6.5t-10.5 15.5t-2 17.5t0.5 11.5q2 1 18.5 11t39.5 26.5t49 34t47.5 33t32.5 23.5
q6 4 14.5 6.5t17.5 2.5q20 0 32.5 -11.5t12.5 -32.5z" />
    <glyph glyph-name="two" unicode="2" horiz-adv-x="547" 
d="M60 0q-9 6 -13 20t0 29q41 36 88.5 76t93.5 84t84.5 92t61 100.5t22.5 108.5q0 43 -14.5 79t-45 58.5t-77.5 22.5q-39 0 -65 -16t-41 -39.5t-21.5 -49.5t-7.5 -46q-25 0 -39 8t-19.5 20.5t-5.5 25.5q0 29 24 59.5t69.5 52t110.5 21.5q58 0 107.5 -20.5t79.5 -64
t30 -112.5q0 -53 -18 -102t-48.5 -93t-69 -83t-81 -72.5t-83 -62t-74.5 -51.5q36 1 77 3t84 5.5t85.5 8.5t80.5 9.5t69 9.5q7 -4 11 -17t3.5 -27.5t-5 -25t-13.5 -11.5h-440z" />
    <glyph glyph-name="three" unicode="3" horiz-adv-x="553" 
d="M256 -12q-68 0 -111.5 14.5t-67.5 35t-33 41t-9 32.5q0 11 5.5 21.5t18 18t34.5 7.5q3 -17 9.5 -39.5t22.5 -44.5t46.5 -36.5t79.5 -14.5q78 0 120.5 42.5t42.5 112.5q0 64 -34 100.5t-89.5 53t-117.5 17.5v37q73 2 120.5 24.5t71.5 58t24 77.5q0 53 -31 88.5t-97 35.5
q-40 0 -66.5 -13.5t-42 -34.5t-22.5 -44t-8 -41q-24 0 -36.5 6t-17.5 16t-5 19q0 20 12 42t37 41.5t64 32t92 12.5q36 0 73 -8t68 -26t50 -49.5t19 -79.5q0 -67 -46 -111.5t-122 -62.5q56 -11 99 -32.5t68.5 -58t25.5 -93.5q0 -64 -31 -107.5t-87 -66.5t-129 -23z" />
    <glyph glyph-name="four" unicode="4" horiz-adv-x="598" 
d="M463 114q0 -29 2.5 -57t10.5 -50q-6 -5 -17.5 -11.5t-28.5 -6.5q-20 0 -32.5 12t-12.5 32l-2 586l-285 -387h318q36 0 72.5 2.5t71.5 9.5q8 -14 7 -31.5t-11 -28.5h-498q-12 4 -17.5 13t-5 19.5t5.5 18.5l331 445q5 8 18 14.5t27 6.5q20 0 32.5 -12t12.5 -33z" />
    <glyph glyph-name="five" unicode="5" horiz-adv-x="561" 
d="M267 -12q-65 0 -110.5 22.5t-69 55.5t-23.5 64q0 22 15.5 35t42.5 11q1 -20 7.5 -45t22.5 -48.5t43 -39t68 -15.5q83 0 120 51t37 135q0 52 -19 90.5t-54.5 59.5t-85.5 21q-33 0 -63.5 -6.5t-52.5 -14t-30 -10.5q-12 0 -17 7t-5 16l13 281q0 15 10.5 24.5t26.5 9.5
q66 0 121 0.5t104 2t95 4.5q5 -10 3.5 -25t-7.5 -28t-16 -20q-66 0 -137 0.5t-139 4.5l-11 -228q31 10 62.5 17t69.5 7q103 0 162 -55.5t59 -151.5q0 -65 -20.5 -109.5t-54.5 -71.5t-77.5 -39t-89.5 -12z" />
    <glyph glyph-name="six" unicode="6" horiz-adv-x="580" 
d="M302 -12q-45 0 -87.5 14.5t-76 49t-53.5 97.5t-20 159q0 137 29 224.5t88.5 130t151.5 42.5q34 0 68.5 -9t58 -25t23.5 -38q0 -10 -6 -19.5t-13 -15.5t-12 -7q-32 43 -62 58.5t-59 15.5q-49 0 -81.5 -21t-52 -57.5t-29.5 -83.5t-13.5 -98t-3.5 -101q0 -58 8 -108.5
t25.5 -89.5t47 -60.5t72.5 -21.5q51 0 80.5 28.5t43 74.5t13.5 95q0 76 -32.5 120t-95.5 44q-42 0 -76.5 -19t-59.5 -53t-37 -79l-24 31q8 27 25 55t42.5 52.5t61 39.5t82.5 15q56 0 101.5 -23t72.5 -69t27 -116q0 -69 -26.5 -121.5t-77 -81.5t-123.5 -29z" />
    <glyph glyph-name="seven" unicode="7" horiz-adv-x="505" 
d="M249 0q-19 -5 -39 -5t-40 6q3 50 15 117t32 140.5t47 144.5t58.5 131t65.5 98q-83 -6 -168 -6.5t-172 -0.5q-6 6 -9.5 20t-2.5 29t6 22q50 -2 97.5 -2.5t96.5 -0.5h220q9 -8 10 -27.5t-11 -34.5q-36 -47 -67.5 -110.5t-57.5 -135t-44 -142.5t-27.5 -134t-9.5 -109z" />
    <glyph glyph-name="eight" unicode="8" horiz-adv-x="599" 
d="M267 363l26 -13q-19 -8 -43.5 -22t-48.5 -35.5t-39.5 -52.5t-15.5 -73q0 -52 22.5 -84t58 -47t74.5 -15q42 0 77 16t56 46t21 70q0 37 -16.5 66t-45.5 52t-64 42.5t-72 36.5q-42 20 -81 46t-64 62.5t-25 87.5q0 26 11 53.5t35 52t64.5 39.5t98.5 15q74 0 121.5 -22.5
t70.5 -58t23 -76.5q0 -40 -20 -76.5t-58.5 -63t-91.5 -39.5l-28 16q45 23 70 50.5t35 57t10 56.5q0 36 -17 63t-45.5 42t-66.5 15q-34 0 -63.5 -13.5t-47.5 -40t-18 -66.5q0 -43 18.5 -72t51 -49t72.5 -39q42 -19 82.5 -41.5t74 -50t53.5 -61t20 -75.5q0 -29 -12.5 -60
t-40.5 -57t-74.5 -42t-115.5 -16q-70 0 -116 16t-73.5 42t-39 56.5t-11.5 59.5q0 51 27.5 94t74.5 72t106 36z" />
    <glyph glyph-name="nine" unicode="9" horiz-adv-x="586" 
d="M257 -13q-43 0 -79.5 9.5t-60.5 26t-31 38.5q-3 13 1.5 25t13 19.5t15.5 8.5q39 -51 74 -69t69 -18q48 0 79.5 20t50.5 56t28.5 82t12.5 98.5t3 105.5q0 58 -6.5 109t-23 89.5t-45.5 60.5t-73 22q-49 0 -79 -28t-43 -72t-13 -92q0 -79 32 -124.5t94 -45.5q40 0 74 19
t59 53t36 79l24 -32q-8 -26 -24.5 -54t-41.5 -52.5t-60 -40t-80 -15.5q-55 0 -100 24t-71 72t-26 119q0 67 25.5 118t75.5 79.5t121 28.5q48 0 90 -15.5t74 -51.5t50 -98t18 -156q0 -141 -28.5 -229t-86.5 -128.5t-148 -40.5z" />
    <glyph glyph-name="colon" unicode=":" horiz-adv-x="253" 
d="M127 339q-22 0 -38 16t-16 38q0 23 16 38.5t38 15.5q23 0 38.5 -15.5t15.5 -38.5q0 -22 -15.5 -38t-38.5 -16zM127 -13q-22 0 -38 16t-16 38q0 23 16 38.5t38 15.5q23 0 38.5 -15.5t15.5 -38.5q0 -22 -15.5 -38t-38.5 -16z" />
    <glyph glyph-name="semicolon" unicode=";" horiz-adv-x="259" 
d="M132 339q-22 0 -38 16t-16 38q0 23 16 38.5t38 15.5q23 0 38.5 -15.5t15.5 -38.5q0 -22 -15.5 -38t-38.5 -16zM118 -99q-10 2 -17 7t-13 11q15 17 23 33.5t8 34.5q0 19 -7.5 29.5t-18 16t-20.5 8.5q0 19 15 36.5t41 17.5q20 0 38.5 -14.5t18.5 -54.5q0 -28 -14.5 -59.5
t-53.5 -65.5z" />
    <glyph glyph-name="less" unicode="&#x3c;" horiz-adv-x="487" 
d="M43 340q-8 11 0 22l362 174q12 6 21.5 -6.5t2.5 -39.5l-315 -139l315 -139q7 -24 -1 -38.5t-23 -7.5z" />
    <glyph glyph-name="equal" unicode="=" horiz-adv-x="550" 
d="M77 473h395q10 -24 0 -49h-395q-9 25 0 49zM77 270h395q10 -25 0 -50h-395q-9 25 0 50z" />
    <glyph glyph-name="greater" unicode="&#x3e;" horiz-adv-x="488" 
d="M444 340l-362 -174q-14 -7 -22.5 7.5t-1.5 38.5l315 139l-315 139q-7 27 2.5 39.5t21.5 6.5l362 -174q8 -11 0 -22z" />
    <glyph glyph-name="question" unicode="?" horiz-adv-x="504" 
d="M172 181v151q33 1 69 12.5t66.5 35.5t49 60t18.5 85q0 47 -16.5 85.5t-51.5 61t-88 22.5q-39 0 -65 -14t-40.5 -35.5t-21 -45.5t-7.5 -43q-25 0 -39 5.5t-19.5 16.5t-5.5 23q0 30 23 60t69.5 50t112.5 20q45 0 87 -11t75.5 -35t52.5 -63.5t19 -95.5q0 -54 -19 -95
t-51.5 -70t-72.5 -46t-83 -22v-112h-62zM190 -13q-22 0 -38 16t-16 38q0 23 16 38.5t38 15.5t38 -15.5t16 -38.5q0 -22 -16 -38t-38 -16z" />
    <glyph glyph-name="at" unicode="@" horiz-adv-x="858" 
d="M362 -101q-31 -2 -70.5 10t-80 39t-74.5 70t-55 103t-21 138q0 72 22.5 141t69 125t120.5 89.5t176 33.5q80 0 138 -23t98 -61.5t63.5 -87t34 -98.5t10.5 -97q0 -85 -22.5 -138.5t-57 -79t-73.5 -25.5q-25 0 -48 12.5t-37.5 35t-14.5 51.5l8 91l20 13q-6 -47 -24.5 -90.5
t-51.5 -71.5t-84 -28q-50 0 -79 20t-43 50t-18.5 62t-4.5 57q0 110 45.5 174.5t135.5 64.5q50 0 82 -16.5t49.5 -42t24.5 -57t7 -60.5l-1 -141q0 -33 11.5 -57.5t36.5 -24.5q36 0 62.5 48.5t27.5 153.5q0 41 -7.5 85.5t-27.5 87t-54 76.5t-84 54t-120 20q-84 0 -143.5 -28.5
t-97.5 -77t-56 -109.5t-18 -127q0 -81 24 -143t63 -103.5t86 -60t95 -13.5q11 -19 0.5 -31t-42.5 -13zM406 85q40 0 69 28t45.5 77t16.5 110q0 37 -8 70t-29.5 53t-64.5 20q-63 0 -97.5 -50t-34.5 -152q0 -22 3 -48.5t13 -51t30.5 -40.5t56.5 -16z" />
    <glyph glyph-name="A" unicode="A" horiz-adv-x="592" 
d="M319 706q17 0 30.5 -6.5t17.5 -23.5l201 -621q4 -12 10 -24.5t14 -22.5q-6 -7 -17 -13t-30 -6q-18 0 -32.5 8t-17.5 25l-201 652l13 -1l-186 -620q-2 -8 -4 -16.5t-2 -16.5q0 -7 1.5 -13t4.5 -10q-9 -3 -19 -5.5t-25 -2.5q-22 0 -34 9t-11 28q0 8 3 20.5t6 24.5l212 622
q33 13 66 13zM154 268h317v-48h-317v48z" />
    <glyph glyph-name="B" unicode="B" horiz-adv-x="579" 
d="M144 0q-21 0 -34 12t-14 33v532q0 10 -0.5 30t-3.5 41.5t-9 35.5q16 8 48.5 15t94.5 7q126 0 192.5 -39.5t66.5 -130.5q0 -61 -31.5 -106t-91.5 -63q76 -12 117 -57t41 -122q0 -70 -33 -111.5t-95.5 -59t-151.5 -17.5h-96zM177 37h66q62 0 104 15t64 48t22 87
q0 63 -23.5 97t-66 47.5t-100.5 13.5h-77l-7 37h102q40 -1 71.5 15.5t49.5 50.5t18 83q0 71 -41.5 105t-136.5 34q-15 0 -26 -0.5t-19 -1.5v-631z" />
    <glyph glyph-name="C" unicode="C" horiz-adv-x="596" 
d="M547 113q0 -25 -18 -48t-49.5 -40.5t-72 -27.5t-83.5 -10q-125 0 -195 92.5t-70 266.5q0 175 71 267.5t199 92.5q40 0 76 -8t63.5 -21.5t43.5 -32t16 -39.5q0 -18 -17 -32.5t-48 -11.5q-8 53 -42.5 80.5t-90.5 27.5q-89 0 -135.5 -81.5t-46.5 -241.5t46 -241t134 -81
q36 0 67.5 14.5t54 43.5t30.5 71q17 2 32 -1.5t25 -12.5t10 -26z" />
    <glyph glyph-name="D" unicode="D" horiz-adv-x="641" 
d="M141 0q-21 0 -33.5 12t-12.5 32l-2 533q0 30 -1 64t-9 56q27 3 65 4.5t76.5 2t66.5 0.5q139 0 214.5 -87.5t75.5 -265.5q0 -185 -75 -268t-211 -83h-154zM174 37h117q66 0 111 30.5t68 98.5t23 180q0 167 -51.5 243.5t-150.5 76.5h-118z" />
    <glyph glyph-name="E" unicode="E" horiz-adv-x="537" 
d="M143 0q-20 0 -33 12t-13 33l-1 524q0 30 -2.5 55.5t-10.5 47.5q14 13 28.5 17t40.5 4h302q9 0 12.5 -9.5t1.5 -22.5t-8 -24t-14 -15q-65 11 -132 18t-138 8l1 -604q48 1 99.5 5.5t100 10.5t87.5 12q8 -5 12.5 -16.5t4.5 -24t-5 -22t-15 -9.5h-318zM161 340v48h261
q3 -12 3 -24.5t-3 -23.5h-261z" />
    <glyph glyph-name="F" unicode="F" horiz-adv-x="518" 
d="M143 -11q-20 0 -33 12t-13 32l-1 536q0 30 -2.5 55.5t-10.5 47.5q14 13 28.5 17t40.5 4h302q9 0 12.5 -9.5t1.5 -22.5t-8 -24t-14 -15q-65 11 -132 18t-138 8l1 -534q0 -29 2.5 -57t10.5 -50q-6 -5 -18 -11.5t-29 -6.5zM161 335v49h260q3 -13 2.5 -25.5t-2.5 -23.5h-260z
" />
    <glyph glyph-name="G" unicode="G" horiz-adv-x="625" 
d="M336 -13q-134 0 -205.5 92.5t-71.5 266.5t73.5 267t205.5 93q38 0 73 -8t62.5 -21.5t43.5 -31.5t16 -38t-17 -34.5t-48 -11.5q-8 53 -42.5 80.5t-85.5 27.5q-96 0 -144 -81.5t-48 -241.5t47.5 -241t143.5 -81q48 0 77.5 19.5t45 50.5t20.5 64.5t5 62.5q0 39 -8 67.5
t-24 46.5t-42 23q4 16 19 23t34 7q27 0 50.5 -14.5t38 -47.5t14.5 -90q0 -38 -8.5 -74.5t-26 -68t-45 -55t-66 -37.5t-87.5 -14z" />
    <glyph glyph-name="H" unicode="H" horiz-adv-x="680" 
d="M177 114q0 -29 2.5 -57t10.5 -50q-6 -5 -18 -11.5t-29 -6.5q-20 0 -33 12t-13 32l-1 544q0 30 -2.5 57.5t-10.5 49.5q6 6 18 12t29 6q20 0 33.5 -11.5t13.5 -32.5v-544zM584 114q0 -29 2.5 -57t10.5 -50q-6 -5 -18 -11.5t-29 -6.5q-20 0 -33 12t-13 32l-1 544
q0 30 -2.5 57.5t-10.5 49.5q6 6 18 12t29 6q20 0 33.5 -11.5t13.5 -32.5v-544zM148 390h383v-48h-383v48z" />
    <glyph glyph-name="I" unicode="I" horiz-adv-x="273" 
d="M143 -11q-20 0 -33 12t-13 32l-1 544q0 30 -2.5 57.5t-10.5 49.5q6 6 18 12t29 6q20 0 33.5 -11.5t13.5 -32.5v-544q0 -29 2.5 -57t10.5 -50q-6 -5 -18 -11.5t-29 -6.5z" />
    <glyph glyph-name="J" unicode="J" horiz-adv-x="456" 
d="M192 -13q-51 0 -83.5 15.5t-47.5 40.5t-15 53q0 22 12 40t38 18q11 0 17.5 -3t11.5 -11q-4 -10 -6.5 -20t-2.5 -20q0 -26 12 -42.5t29 -25t34 -8.5q39 0 58.5 19.5t27 53t7.5 75.5v442q0 14 0.5 27.5t3.5 23.5q-24 0 -50.5 1t-52.5 3q-17 1 -34 -6.5t-17 -32.5
q0 -19 8.5 -31t20.5 -19q-6 -6 -16 -8t-19 -2q-21 0 -39.5 17.5t-18.5 48.5q0 30 22 50t65 20q15 0 36 -1.5t46 -2.5t48 -2q25 -1 45.5 1t36.5 3q-2 -13 -3 -30.5t-1 -41.5v-453q0 -36 -7.5 -70t-26 -61.5t-52.5 -44t-87 -16.5z" />
    <glyph glyph-name="K" unicode="K" horiz-adv-x="585" 
d="M504 -12q-26 0 -44.5 14.5t-31.5 37t-21 45.5l-42 133q-8 20 -18 39t-27 34.5t-45.5 24.5t-72.5 9h-35l-1 36q9 1 20 2t19 2q52 6 91.5 31.5t65.5 62.5t39.5 77.5t13.5 77.5q0 31 -6.5 49.5t-11.5 26.5q10 6 18.5 9t18.5 3q14 0 28 -7.5t23 -26.5t9 -54q0 -51 -22 -104
t-71 -97.5t-130 -69.5l5 11q73 -5 109 -36t53 -79l47 -134q13 -29 23.5 -40t24.5 -12q5 -1 13 1.5t15 10.5q7 -13 7 -25q0 -23 -19.5 -37.5t-44.5 -14.5zM143 -11q-20 0 -33 12t-13 32l-1 544q0 30 -2.5 57.5t-10.5 49.5q6 6 18 12t29 6q20 0 33 -11.5t13 -32.5l1 -544
q0 -29 2.5 -57t10.5 -50q-6 -5 -18 -11.5t-29 -6.5z" />
    <glyph glyph-name="L" unicode="L" horiz-adv-x="480" 
d="M176 658l1 -610q45 0 91 4t90 10t80 13q8 -4 12 -16.5t4 -26t-4.5 -23t-15.5 -9.5h-291q-20 0 -33 12t-13 33l-1 532q0 30 -2.5 57.5t-10.5 49.5q6 6 18 12t29 6q20 0 33 -11.5t13 -32.5z" />
    <glyph glyph-name="M" unicode="M" horiz-adv-x="850" 
d="M755 114q0 -29 2 -57t10 -50q-6 -5 -17.5 -11.5t-29.5 -6.5q-19 0 -31 12t-12 32l-2 570l13 22l-232 -516q-22 -8 -40 -9t-36 7q-41 78 -83.5 163.5t-83.5 173.5t-79 172l10 -10l1 -492q0 -29 2.5 -60t10.5 -53q-6 -5 -14 -8.5t-19 -3.5q-15 0 -22 10t-7 27l-1 553
q0 37 -1.5 63.5t-4.5 47.5q5 6 18 9t35 3q15 0 25 -3.5t17 -12.5q63 -132 126 -263.5t125 -259.5l-14 -1q28 61 58 129t60.5 138t60 137.5t55.5 127.5q14 5 27.5 6.5t21.5 1.5q19 0 33.5 -6.5t15.5 -17.5z" />
    <glyph glyph-name="N" unicode="N" horiz-adv-x="682" 
d="M121 -11q-11 0 -20 3.5t-16 8.5q7 23 9.5 53.5t2.5 59.5l-1 458q0 37 -1.5 67t-5.5 51q7 7 20.5 9t26 1t15.5 -5q32 -46 73.5 -106t86.5 -126t89 -131t80.5 -122t60.5 -99l-17 498q-2 34 5 57.5t22 31.5q8 2 17.5 1.5t18.5 -4.5q-1 -14 0.5 -34.5t1.5 -37.5v-510
q0 -37 1 -64t4 -48q-5 -5 -16 -8t-22 -3t-19 4q-36 44 -73.5 94.5t-74.5 103.5t-71.5 105t-66 101.5t-58 92.5t-46.5 77l15 -530q1 -22 -12 -35.5t-29 -13.5z" />
    <glyph glyph-name="O" unicode="O" horiz-adv-x="651" 
d="M325 -13q-128 0 -197 88.5t-69 270.5t69 271t197 89q129 0 198 -89t69 -271t-69 -270.5t-198 -88.5zM325 24q88 0 133 77.5t45 244.5q0 168 -45 245.5t-133 77.5q-86 0 -131.5 -77.5t-45.5 -245.5q0 -167 45.5 -244.5t131.5 -77.5z" />
    <glyph glyph-name="P" unicode="P" horiz-adv-x="559" 
d="M144 -11q-21 0 -34 12t-14 32v544q0 10 -0.5 30t-3.5 41.5t-9 35.5q16 8 48.5 15t92.5 7q146 0 216.5 -49.5t70.5 -154.5q0 -113 -77.5 -169.5t-228.5 -56.5h-23t-21 1l-7 37q10 -1 21 -1.5t32 -0.5q76 0 123.5 21t70 62.5t22.5 101.5q0 57 -20.5 95.5t-65 57.5
t-116.5 19q-14 0 -25.5 -0.5t-18.5 -1.5v-556q0 -10 1 -29.5t4 -39.5t8 -35q-6 -5 -17.5 -11.5t-28.5 -6.5z" />
    <glyph glyph-name="Q" unicode="Q" horiz-adv-x="656" 
d="M514 -149q-37 -1 -76.5 12t-78 33.5t-74 45.5t-67.5 48q-47 36 -83 84.5t-56 115t-20 156.5q0 182 71 271t197 89q127 0 197.5 -89t70.5 -271q0 -118 -32.5 -198t-92.5 -120.5t-143 -40.5q-13 0 -27 1.5t-25 4.5q27 -21 58.5 -39t65.5 -29t67 -10q47 0 80 18.5t35 53.5
q23 0 36 -14t13 -34q0 -39 -30.5 -63.5t-85.5 -24.5zM326 24q86 0 132 77t46 246q0 167 -45.5 244.5t-131.5 77.5q-89 0 -132.5 -82t-43.5 -252q0 -99 18.5 -168.5t57 -106t99.5 -36.5z" />
    <glyph glyph-name="R" unicode="R" horiz-adv-x="599" 
d="M144 -11q-21 0 -34 12t-14 32v544q0 10 -0.5 30t-3.5 41.5t-9 35.5q16 8 50 15t97 7q141 0 210 -44t69 -145q0 -58 -26 -101t-72 -68t-106 -29l6 14q41 0 67.5 -14.5t43.5 -38.5t30 -54l50 -118q12 -30 23 -42t24 -13q5 0 13.5 2.5t15.5 10.5q4 -7 5 -13.5t1 -12.5
q0 -17 -10.5 -28.5t-24.5 -17t-25 -5.5q-26 0 -44 12t-31 34.5t-26 52.5l-46 118q-10 25 -22 48t-35.5 37t-68.5 14l-84 1l-9 37q19 -1 43 -1.5t54 -0.5q48 1 85.5 22t59 58.5t21.5 88.5q0 81 -44 120.5t-143 39.5q-20 0 -34 -0.5t-23 -2.5v-556q0 -10 1 -29.5t4 -39.5
t8 -35q-6 -5 -17.5 -11.5t-28.5 -6.5z" />
    <glyph glyph-name="S" unicode="S" horiz-adv-x="555" 
d="M275 -13q-78 0 -127.5 20t-73 54t-23.5 74q0 19 7 33.5t23 21t44 2.5q-3 -9 -3.5 -19.5t0.5 -22.5q2 -38 21.5 -66t55 -44t84.5 -16q64 0 104.5 30.5t40.5 91.5q0 40 -18.5 68.5t-54 54t-87.5 53.5q-57 33 -100.5 62.5t-67.5 67t-24 90.5q0 59 29 94.5t77.5 52.5
t105.5 17q89 0 144 -32.5t55 -91.5q0 -18 -8.5 -30.5t-31.5 -15.5q-13 -4 -31 0q3 11 2.5 22t-2.5 20q-3 29 -20.5 49t-47.5 31t-68 11q-30 0 -59.5 -9.5t-49 -31.5t-19.5 -61q0 -40 20 -68.5t56 -52.5t85 -51q54 -28 98 -59.5t70.5 -71.5t26.5 -96q0 -34 -12 -66.5t-40 -58
t-72.5 -41t-108.5 -15.5z" />
    <glyph glyph-name="T" unicode="T" horiz-adv-x="528" 
d="M271 -11q-20 0 -33 12t-13 32l-1 643l80 -5l1 -557q0 -29 2.5 -57t10.5 -50q-6 -5 -18 -11.5t-29 -6.5zM40 622q-9 4 -15 15t-8 24t1.5 22.5t12.5 9.5h467q9 0 12.5 -9.5t1 -22.5t-8.5 -24t-14 -15q-34 8 -72 16t-77.5 13.5t-77.5 5.5q-37 0 -75.5 -5.5t-75.5 -13.5
t-71 -16z" />
    <glyph glyph-name="U" unicode="U" horiz-adv-x="658" 
d="M573 658v-353q0 -157 -61.5 -237.5t-183.5 -80.5q-119 0 -178 77t-59 241v272q0 30 -2.5 57.5t-9.5 49.5q6 6 17.5 12t28.5 6q20 0 33 -11.5t13 -32.5v-356q0 -145 38 -211.5t119 -66.5q84 0 125 71t41 207v275q0 30 -2.5 57.5t-10.5 49.5q6 6 17.5 12t28.5 6
q20 0 33 -11.5t13 -32.5z" />
    <glyph glyph-name="V" unicode="V" horiz-adv-x="580" 
d="M286 -11q-45 0 -54 26l-199 626q-3 11 -9 24.5t-15 21.5q8 8 19.5 13.5t30.5 5.5q43 0 51 -32l198 -668h-26l186 637q2 7 4 16t2 16t-1.5 13t-4.5 10q9 4 18.5 6t23.5 2q24 0 36 -9t11 -27q0 -9 -2.5 -21.5t-6.5 -24.5l-208 -622q-16 -7 -30 -10t-24 -3z" />
    <glyph glyph-name="W" unicode="W" horiz-adv-x="922" 
d="M851 704q24 0 36 -9t11 -27q0 -9 -3 -21.5t-6 -24.5l-174 -620q-16 -7 -30 -10t-25 -3q-19 0 -32.5 6.5t-17.5 19.5l-144 509l-150 -522q-16 -7 -29.5 -10t-23.5 -3q-22 0 -36 6.5t-17 19.5l-166 626q-3 11 -9.5 24.5t-14.5 21.5q7 8 19 13.5t30 5.5q21 0 34.5 -8
t17.5 -24l152 -616l146 515q4 18 2.5 29.5t-5.5 19.5q12 6 28 9.5t28 3.5q14 0 25.5 -4.5t14.5 -13.5l159 -558l138 582q2 8 4 16.5t2 15.5q0 8 -1.5 13.5t-4.5 10.5q9 3 18.5 5t23.5 2z" />
    <glyph glyph-name="X" unicode="X" horiz-adv-x="604" 
d="M512 -10q-40 0 -64 24.5t-43 61.5l-133 250l-142 264q-10 19 -20 28.5t-23 9.5q-15 0 -22.5 -9t-7.5 -21q-13 5 -21.5 16t-8.5 27q0 22 18 41t56 19q41 0 65.5 -24.5t44.5 -62.5l117 -223l157 -290q10 -17 21 -28t24 -11q14 0 21 10t7 20q14 -4 22.5 -15t8.5 -27
q0 -22 -21 -41t-56 -19zM71 -9q-20 0 -30.5 12t-13.5 38q20 7 37.5 25.5t38.5 47.5l181 262l36 -40l-208 -320q-7 -11 -16.5 -18t-24.5 -7zM324 338l-30 38l184 302q7 11 16.5 18t24.5 7q20 0 30.5 -12t13.5 -38q-22 -9 -40 -28t-36 -45z" />
    <glyph glyph-name="Y" unicode="Y" horiz-adv-x="553" 
d="M273 228q-13 1 -21.5 7t-14.5 15t-11 17l-179 364q-5 10 -14.5 23.5t-19.5 23.5q7 8 22 17t36 9q23 0 34.5 -12t20.5 -32l178 -382l-34 -14l175 372q10 22 10 35q0 7 -2 13.5t-5 11.5q9 4 18.5 6t25.5 2q20 0 29.5 -11.5t10.5 -27.5q0 -10 -5.5 -24t-14.5 -28l-199 -371z
M317 277v-163q0 -29 2.5 -57t10.5 -50q-6 -5 -17.5 -11.5t-28.5 -6.5q-20 0 -33 12t-13 32l-1 233z" />
    <glyph glyph-name="Z" unicode="Z" horiz-adv-x="573" 
d="M63 -6l-15 23q0 21 6 38.5t20 35.5l384 560l12 -19l-270 -9q-37 0 -58 -13.5t-26 -35.5q-4 -21 2 -36t21 -29q-20 -2 -40 6q-21 5 -35 29t-14 52q0 42 35 71t108 28l187 -4q42 0 72 1t50 7l17 -24q0 -24 -5.5 -41.5t-18.5 -35.5l-390 -560l-8 24l285 8q49 1 70.5 18
t25.5 38q6 23 -1.5 41.5t-18.5 30.5q11 1 15.5 0.5t10.5 -1.5q20 -4 33.5 -19t20.5 -35t7 -40q0 -45 -34 -74.5t-106 -29.5l-234 3q-29 1 -54.5 -0.5t-53.5 -7.5z" />
    <glyph glyph-name="bracketleft" unicode="[" horiz-adv-x="340" 
d="M93 734h154v-42h-79v-816h79v-41h-154v899z" />
    <glyph glyph-name="backslash" unicode="\" horiz-adv-x="470" 
d="M382 -142l-325 873h81l324 -873h-80z" />
    <glyph glyph-name="bracketright" unicode="]" horiz-adv-x="340" 
d="M228 734v-899h-154v41h79v816h-79v42h154z" />
    <glyph glyph-name="asciicircum" unicode="^" horiz-adv-x="540" 
d="M104 262q-6 1 -18 4.5t-13 7.5l171 162q6 2 16 2.5t20 0t16 -2.5l171 -162q-2 -4 -13.5 -8t-17.5 -4l-166 117z" />
    <glyph glyph-name="underscore" unicode="_" horiz-adv-x="380" 
d="M-30 -67l440 -2v-45l-440 2v45z" />
    <glyph glyph-name="grave" unicode="`" horiz-adv-x="600" 
d="M177 701q7 5 21 9.5t30.5 7.5t28.5 2l91 -150q-4 -4 -16 -5.5t-20 -1.5z" />
    <glyph glyph-name="a" unicode="a" horiz-adv-x="550" 
d="M470 -10q-43 0 -65 29.5t-22 94.5v89l19 -9q-17 -60 -51.5 -106.5t-80.5 -72.5t-100 -26q-59 0 -92 31.5t-33 84.5q0 41 21.5 73t59 54t85.5 35q42 11 86.5 15t81.5 2v26q0 87 -29 131t-98 44q-24 0 -48.5 -7.5t-40 -24.5t-15.5 -49q0 -20 10 -41.5t33 -29.5
q-9 -11 -22 -15.5t-26 -4.5q-35 0 -55 27t-20 61q0 59 52 89.5t139 30.5q104 0 152.5 -53t48.5 -163v-200q0 -53 36 -53q8 0 18 5t15 16q6 -8 8.5 -16.5t2.5 -14.5q0 -22 -20 -37t-50 -15zM206 45q29 0 59.5 17.5t56.5 46.5t42.5 66t16.5 77q-23 2 -51.5 0t-55.5 -7t-48 -13
q-44 -16 -69 -43.5t-25 -66.5q0 -30 17 -54.5t57 -22.5z" />
    <glyph glyph-name="b" unicode="b" horiz-adv-x="541" 
d="M272 -13q-33 0 -70 6.5t-70.5 21t-57.5 39.5v632q0 21 12.5 32.5t31.5 11.5q18 0 30.5 -6.5t18.5 -11.5q-5 -21 -8 -49t-4 -54t-1 -43v-171q12 36 36 64.5t58 45t76 16.5q54 0 92.5 -25.5t59.5 -79t21 -140.5q0 -61 -12.5 -113.5t-39.5 -92t-70 -61.5t-103 -22zM269 27
q46 1 74 23.5t43.5 59t21 80t5.5 86.5q0 103 -26.5 150t-77.5 47q-43 0 -72.5 -22.5t-48 -58.5t-26.5 -78t-8 -81v-167q9 -11 27.5 -20t41.5 -14t46 -5z" />
    <glyph glyph-name="c" unicode="c" horiz-adv-x="505" 
d="M276 -13q-109 0 -170.5 67.5t-61.5 196.5q0 125 62.5 197.5t176.5 72.5q83 0 126.5 -35.5t43.5 -91.5q0 -35 -18 -56t-48 -21q-13 0 -26 4t-21 15q17 7 25 24t8 40q0 30 -13.5 49t-35.5 28t-48 9q-65 0 -106 -56.5t-41 -166.5q0 -81 23 -130t61 -70t84 -21q36 0 66 11.5
t51.5 35t29.5 58.5q10 -4 14 -15.5t-4 -36.5q-16 -53 -64 -80.5t-114 -27.5z" />
    <glyph glyph-name="d" unicode="d" horiz-adv-x="566" 
d="M216 -13q-53 0 -86.5 22t-52 58.5t-26 79t-7.5 83.5q0 137 54 214t156 77q52 0 87.5 -21t50.5 -59l-1 134q0 38 -2.5 73.5t-10.5 63.5q6 5 17.5 11.5t28.5 6.5q20 0 33.5 -11.5t13.5 -32.5l-1 -581q0 -27 8.5 -39t22.5 -12q6 0 14 2.5t13 12.5q6 -8 8.5 -16.5t2.5 -15.5
q0 -20 -17.5 -32.5t-44.5 -12.5q-42 0 -62 33.5t-20 94.5v89l22 11q-7 -50 -22 -92.5t-40 -74t-59.5 -49t-79.5 -17.5zM236 36q37 0 65.5 21.5t48.5 58.5t30 85.5t10 102.5q0 30 -5 60.5t-18 55t-37.5 39.5t-62.5 15q-66 0 -102 -61t-36 -180q0 -37 4 -72t15 -63t32.5 -45
t55.5 -17z" />
    <glyph glyph-name="e" unicode="e" horiz-adv-x="511" 
d="M278 -13q-108 0 -171 67.5t-63 196.5q0 125 61.5 197.5t176.5 72.5q54 0 95 -16.5t64.5 -48.5t23.5 -79q0 -75 -60.5 -113.5t-166.5 -38.5q-42 0 -80 3.5t-77 11.5l2 33q25 -5 58.5 -8t65.5 -4q35 0 66.5 6t55.5 20t37.5 38.5t13.5 61.5q0 39 -15 60t-38 29.5t-48 8.5
q-67 0 -108.5 -56.5t-41.5 -167.5q0 -83 22.5 -130.5t60.5 -68t85 -20.5q54 0 95 22.5t55 64.5q10 -4 14.5 -14.5t-5.5 -35.5q-19 -45 -67 -68.5t-111 -23.5z" />
    <glyph glyph-name="f" unicode="f" horiz-adv-x="388" 
d="M146 -11q-20 0 -33 12t-13 32l-1 523q0 34 7.5 67t25.5 59.5t51 42.5t83 16q60 0 96.5 -22t36.5 -63q0 -31 -19 -48t-39 -17q-10 0 -18.5 2.5t-13.5 7.5q12 15 15.5 28.5t3.5 24.5q0 29 -17.5 41t-46.5 12q-39 0 -57 -23.5t-23 -61t-5 -79.5v-429q0 -26 2.5 -55.5
t9.5 -51.5q-7 -7 -18.5 -12.5t-26.5 -5.5zM24 462l1 23q1 11 7.5 16.5t15.5 5.5h193q4 0 15.5 0.5t25.5 1t25.5 1t15.5 0.5l-1 -22q-1 -11 -7 -17t-16 -6h-215q-10 0 -30 -0.5t-30 -2.5z" />
    <glyph glyph-name="g" unicode="g" horiz-adv-x="537" 
d="M218 -233q-45 0 -84 13t-62.5 39.5t-23.5 67.5q0 34 18.5 54t43.5 20q28 0 40 -15q-15 -11 -21.5 -26.5t-6.5 -34.5q0 -28 12.5 -46.5t35 -28t51.5 -9.5q86 0 126 63t40 181v32.5v35.5q-18 -55 -61 -86t-105 -31q-54 0 -94 25.5t-61.5 81.5t-21.5 145q0 38 6 76.5
t20.5 74t40.5 63t65.5 43.5t95.5 16q34 0 69.5 -6t68.5 -20.5t56 -39.5v-410q0 -104 -32 -165t-88 -87t-128 -26zM242 40q40 0 67.5 18.5t44.5 48.5t25 67t8 74l1 199q-18 19 -49.5 28t-67.5 9q-46 0 -74 -21t-43 -56t-20 -78.5t-5 -88.5q0 -107 27.5 -153.5t85.5 -46.5z
" />
    <glyph glyph-name="h" unicode="h" horiz-adv-x="562" 
d="M129 -11q-20 0 -33 13t-13 35l-1 649q0 21 11 32t29 12q19 1 33 -6t20 -12q-8 -27 -10.5 -63.5t-3.5 -92.5l-1 -209l-17 -18q5 60 29.5 103t63.5 66t89 23q83 0 121.5 -53t38.5 -155l1 -199q0 -26 2.5 -55.5t9.5 -51.5q-7 -7 -18.5 -12.5t-27.5 -5.5q-20 0 -32.5 12
t-12.5 32l-1 270q0 85 -23 129.5t-81 44.5q-24 0 -49 -13t-46 -40.5t-33.5 -72.5t-12.5 -110v-99t1.5 -64t4 -41t8.5 -30q-6 -5 -17.5 -11.5t-28.5 -6.5z" />
    <glyph glyph-name="i" unicode="i" horiz-adv-x="260" 
d="M127 603q-22 0 -38 16t-16 38q0 23 16 38.5t38 15.5q23 0 38.5 -15.5t15.5 -38.5q0 -22 -15.5 -38t-38.5 -16zM171 114q0 -29 2.5 -57t10.5 -50q-6 -5 -17.5 -11.5t-28.5 -6.5q-19 0 -32 12t-13 32l-1 363q0 29 -2.5 57t-10.5 50q6 5 17.5 11.5t28.5 6.5q20 0 32.5 -11.5
t12.5 -32.5z" />
    <glyph glyph-name="j" unicode="j" horiz-adv-x="260" 
d="M28 -232q-55 0 -81.5 22t-26.5 58q0 17 11 32.5t34 15.5q10 0 15.5 -3t9.5 -11q-4 -8 -6 -17t-2 -17q0 -18 7.5 -28t18.5 -13.5t21 -3.5q30 0 44 21t18.5 56.5t4.5 80.5l1 434q0 27 -2.5 56t-9.5 52q8 7 19.5 12.5t25.5 5.5q20 0 32.5 -11.5t12.5 -33.5l1 -529
q0 -32 -6.5 -64t-23 -58t-45.5 -41.5t-73 -15.5zM132 608q-21 0 -37 16t-16 37q0 22 16 37.5t37 15.5q22 0 37.5 -15.5t15.5 -37.5q0 -21 -15.5 -37t-37.5 -16z" />
    <glyph glyph-name="k" unicode="k" horiz-adv-x="546" 
d="M127 -11q-26 0 -35 13.5t-9 34.5l-1 649q0 21 13 32.5t33 11.5q18 0 29.5 -6.5t16.5 -11.5q-5 -22 -7 -41.5t-3 -37.5t-1.5 -37t-1.5 -41l-1 -212l-6 8q14 51 42 89t69 59.5t93 21.5q61 0 92.5 -31.5t31.5 -82.5q0 -41 -20 -73.5t-51.5 -56.5t-67.5 -41q11 -5 19.5 -15
t17.5 -24l59 -106q11 -17 18.5 -25.5t21.5 -8.5q5 0 13 2.5t15 10.5q6 -7 8.5 -14t2.5 -15q0 -23 -20.5 -37.5t-46.5 -14.5q-25 0 -45.5 15t-32.5 43l-86 170q-33 -12 -66 -21.5t-60 -16.5q0 -44 0.5 -72.5t2 -45.5t4 -29t7.5 -25q-7 -6 -18 -12t-30 -6zM161 215
q44 13 86.5 29.5t77.5 39t55.5 51.5t20.5 67q0 39 -19.5 55.5t-50.5 16.5q-51 0 -89 -33.5t-59.5 -92t-21.5 -133.5z" />
    <glyph glyph-name="l" unicode="l" horiz-adv-x="270" 
d="M175 -10q-45 0 -70 29.5t-25 81.5v585q0 21 13 32.5t34 11.5q17 0 28.5 -6.5t17.5 -11.5q-9 -28 -11 -73t-2 -122v-412q0 -25 9.5 -39t28.5 -14q11 0 21.5 5t15.5 16q6 -8 8.5 -16.5t2.5 -14.5q0 -23 -21.5 -37.5t-49.5 -14.5z" />
    <glyph glyph-name="m" unicode="m" horiz-adv-x="872" 
d="M795 114q0 -26 2.5 -55.5t10.5 -51.5q-8 -7 -19 -12.5t-27 -5.5q-20 0 -33 12t-13 32v270q0 53 -8 92t-28.5 60.5t-58.5 21.5q-22 0 -45 -12.5t-42.5 -38.5t-32.5 -69t-14 -103l1 -140q0 -26 2.5 -55.5t9.5 -51.5q-7 -7 -18 -12.5t-27 -5.5q-19 0 -31.5 12t-12.5 32
l-1 270q0 85 -20.5 129.5t-77.5 44.5q-23 0 -46 -13t-41.5 -41.5t-30.5 -74.5t-12 -113v-96.5t1.5 -62t4 -39.5t8.5 -30q-6 -5 -17 -11.5t-29 -6.5q-20 0 -33 13t-13 35l-1 368q0 26 -9 39.5t-26 13.5q-9 0 -17.5 -5.5t-13.5 -15.5q-11 14 -11 31q0 24 18 38t44 14
q40 0 63 -27.5t23 -83.5v-67l-9 15q14 75 59 119.5t111 44.5q72 0 108 -42.5t42 -123.5l-12 4q8 49 31.5 85.5t59 56.5t79.5 20q79 0 115.5 -53t36.5 -155v-199z" />
    <glyph glyph-name="n" unicode="n" horiz-adv-x="574" 
d="M139 -11q-21 0 -34 13t-13 35v369q-1 29 -7 40.5t-21 11.5q-5 0 -13 -3t-13 -13q-12 15 -12 32q0 20 16 33t44 13q38 0 58 -25.5t20 -77.5v-70l-15 -18q6 60 30.5 103t65 66t91.5 23q83 0 122 -53t39 -155v-199q1 -26 3.5 -55.5t9.5 -51.5q-8 -7 -19 -12.5t-27 -5.5
q-20 0 -33.5 12t-13.5 32v270q-1 84 -23.5 127.5t-80.5 43.5q-25 0 -49.5 -12t-45.5 -39.5t-34 -72.5t-13 -109q0 -60 0.5 -99t1.5 -64t4 -41t8 -30q-6 -5 -17.5 -11.5t-28.5 -6.5z" />
    <glyph glyph-name="o" unicode="o" horiz-adv-x="547" 
d="M273 -13q-108 0 -168.5 70.5t-60.5 196.5t60.5 196.5t168.5 70.5q109 0 169.5 -70.5t60.5 -196.5t-60.5 -196.5t-169.5 -70.5zM273 23q70 0 107 60t37 171t-37 170.5t-107 59.5q-69 0 -106.5 -59.5t-37.5 -170.5t37.5 -171t106.5 -60z" />
    <glyph glyph-name="p" unicode="p" horiz-adv-x="563" 
d="M346 521q54 0 88 -23t52.5 -59.5t25.5 -79t7 -81.5q0 -138 -55.5 -214.5t-155.5 -76.5q-51 0 -86.5 21t-50.5 59v-122q0 -21 1 -49t4.5 -55.5t7.5 -46.5q-6 -5 -17.5 -11.5t-28.5 -6.5q-20 0 -33.5 11.5t-13.5 32.5l1 584q0 28 -6 39.5t-22 11.5q-5 0 -13 -2.5t-13 -12.5
q-6 9 -9 17t-3 15q0 20 16.5 32.5t43.5 12.5q43 0 62 -33.5t19 -93.5v-91l-22 -11q7 50 22 92.5t40 74t59.5 49t79.5 17.5zM326 472q-37 0 -65.5 -21t-48.5 -57.5t-30 -83.5t-10 -99q0 -36 5 -68t18 -56.5t36 -38.5t59 -14q70 0 107 61t37 182q0 34 -4 69t-15 63t-32 45.5
t-57 17.5z" />
    <glyph glyph-name="q" unicode="q" horiz-adv-x="540" 
d="M420 -224q-17 -1 -28 5.5t-18 12.5q7 23 9.5 51.5t3 61.5t0.5 68v140q-12 -37 -36 -66.5t-58 -46t-75 -16.5q-54 0 -93 26.5t-60 83t-21 143.5q0 39 7 79t22.5 76.5t41 65t63 45t88.5 16.5q66 0 119 -19t82 -48v-634q0 -19 -12.5 -31.5t-34.5 -12.5zM237 34q33 0 58 16
t42.5 42t28.5 57t16.5 63.5t5.5 58.5v172q-15 14 -47.5 25.5t-70.5 11.5q-37 0 -62 -15t-40.5 -40.5t-24 -57.5t-11.5 -66t-3 -65q1 -102 27.5 -152t80.5 -50z" />
    <glyph glyph-name="r" unicode="r" horiz-adv-x="441" 
d="M138 -9q-18 0 -32 12.5t-14 34.5v368q0 29 -6.5 40.5t-21.5 11.5q-5 0 -13 -3t-13 -13q-12 15 -12 32q0 20 16 33t44 13q38 0 58 -27t19 -82v-66h-12q10 87 48 131.5t97 44.5q51 0 83 -27t32 -77q0 -33 -18 -54t-41 -22q-24 -1 -35 10q12 19 15.5 33.5t3.5 30.5
q0 32 -15 47t-43 15q-27 0 -51.5 -23t-39.5 -74.5t-15 -138.5v-98t1.5 -63.5t4 -40.5t7.5 -30q-6 -6 -17.5 -12t-29.5 -6z" />
    <glyph glyph-name="s" unicode="s" horiz-adv-x="468" 
d="M224 -13q-65 0 -106.5 16.5t-60.5 44t-19 60.5q0 17 6 31t20.5 21.5t39.5 2.5q-3 -10 -3.5 -19.5t1.5 -22.5q2 -44 36 -70t93 -26q55 0 90 20t35 59q0 32 -20.5 51.5t-52.5 34.5t-67 32q-39 18 -75 38.5t-59.5 51.5t-23.5 81q0 46 25 74.5t66 41.5t89 13q82 0 128 -26.5
t46 -73.5q0 -17 -8 -30t-29 -16q-7 -2 -14 -1.5t-15 1.5q2 10 2 21.5t-3 20.5q-4 33 -33 50t-77 17q-27 0 -50.5 -6.5t-38 -22t-14.5 -40.5q0 -33 18 -54.5t48 -37t63 -31.5q30 -14 60 -28.5t55.5 -33t40.5 -42.5t15 -59q0 -33 -18.5 -66t-64 -55t-125.5 -22z" />
    <glyph glyph-name="t" unicode="t" horiz-adv-x="339" 
d="M196 -11q-48 0 -74.5 29.5t-26.5 81.5v496q0 21 13 32.5t34 11.5q18 0 29 -6.5t17 -11.5q-9 -28 -11 -73t-2 -122v-322q0 -25 12 -39.5t36 -14.5q14 0 28 5t19 16q6 -8 8.5 -16.5t2.5 -15.5q0 -22 -24 -36.5t-61 -14.5zM21 462l1 23q1 11 7.5 16.5t14.5 5.5h172
q4 0 16 0.5t26.5 1t26.5 1t16 0.5l-1 -22q-1 -11 -7 -17t-15 -6h-197q-10 0 -30 -0.5t-30 -2.5z" />
    <glyph glyph-name="u" unicode="u" horiz-adv-x="566" 
d="M428 521q20 0 33 -12.5t13 -35.5l1 -370q0 -28 6.5 -39.5t21.5 -11.5q5 0 13 3t13 12q12 -15 12 -31q0 -20 -15.5 -33t-44.5 -13q-38 0 -58 25.5t-20 76.5v71l15 18q-6 -61 -30.5 -104t-63.5 -66.5t-89 -23.5q-80 0 -118 47t-39 163v198q0 27 -2.5 56t-10.5 52
q9 6 19.5 12t27.5 6q20 0 32.5 -11.5t12.5 -33.5l1 -269q0 -63 9.5 -102t31.5 -56.5t59 -17.5q24 0 48 13t44.5 41t33 73.5t12.5 110.5q0 60 -0.5 99t-1.5 63.5t-4 41t-8 30.5q6 5 17.5 11.5t28.5 6.5z" />
    <glyph glyph-name="v" unicode="v" horiz-adv-x="487" 
d="M240 -11q-16 0 -29 7t-18 23l-158 430q-3 8 -9 23t-14 23q7 7 18 13t29 6t31 -8t17 -25l151 -460l-13 1l139 429q2 7 3.5 15.5t1.5 16.5q0 7 -0.5 13t-4.5 10q9 4 18 6t22 2q24 0 35.5 -9t10.5 -28q0 -8 -2.5 -20.5t-6.5 -24.5l-167 -430q-28 -13 -54 -13z" />
    <glyph glyph-name="w" unicode="w" horiz-adv-x="781" 
d="M221 -11q-15 0 -27.5 7t-18.5 23l-135 430q-3 8 -9.5 23t-14.5 23q7 7 18.5 13t28.5 6q19 0 31.5 -8t16.5 -25l123 -435l105 405q2 6 3.5 15t1.5 17q0 7 -1 13t-4 10q12 5 27 7.5t27 2.5q16 0 30.5 -5.5t20.5 -20.5l117 -444l112 405q2 7 3.5 15.5t1.5 16.5q0 7 -1 13
t-4 10q9 4 18 6t22 2q24 0 35.5 -9t10.5 -28q0 -8 -2.5 -20.5t-6.5 -24.5l-145 -430q-14 -6 -27 -9.5t-27 -3.5q-15 0 -29.5 7t-18.5 23l-110 412l-113 -429q-15 -6 -29.5 -9.5t-29.5 -3.5z" />
    <glyph glyph-name="x" unicode="x" horiz-adv-x="501" 
d="M418 -14q-25 0 -43 11t-31.5 30.5t-28.5 45.5l-96 170l-96 167q-12 20 -22 29.5t-22 9.5q-14 0 -21.5 -9t-7.5 -21q-14 4 -23 15t-9 27q0 22 19 41t56 19q25 0 41.5 -10t30.5 -29.5t29 -47.5l84 -151l108 -187q10 -17 21.5 -27.5t24.5 -10.5q12 0 19.5 10t7.5 20
q13 -4 22.5 -15t9.5 -28q0 -21 -19 -40t-54 -19zM73 -13q-16 0 -29.5 11t-16.5 38q23 7 41 25.5t38 47.5l121 171l32 -45l-145 -224q-7 -10 -17 -17t-24 -7zM278 247l-33 43l135 205q6 11 16 18.5t26 7.5q20 0 31.5 -12t14.5 -38q-24 -9 -42 -29t-36 -45z" />
    <glyph glyph-name="y" unicode="y" horiz-adv-x="546" 
d="M240 -233q-43 0 -82 10.5t-64 34t-25 63.5q0 28 16.5 47t43.5 19t39 -15q-15 -9 -20 -23t-5 -24q0 -28 14.5 -45t36.5 -25t46 -8q83 0 121.5 63t38.5 184q0 17 1 39.5t3 45t3 42.5l11 16q-10 -92 -57.5 -146t-130.5 -54q-75 0 -113 47.5t-39 162.5v194q0 28 -2.5 56.5
t-10.5 51.5q9 6 19.5 12t27.5 6q20 0 32.5 -11.5t12.5 -33.5l1 -265q0 -91 21 -133t72 -42q28 0 53.5 13t46.5 41t33 73.5t12 110.5q0 59 -0.5 97t-1.5 62t-4 40t-8 30q6 5 17.5 11.5t28.5 6.5q20 0 33 -12.5t13 -35.5l1 -424q0 -105 -30.5 -167t-83.5 -88.5t-121 -26.5z
" />
    <glyph glyph-name="z" unicode="z" horiz-adv-x="490" 
d="M48 -7l-12 19q0 17 4.5 31t16.5 28l320 393l12 -12l-221 -9q-30 -1 -45.5 -13.5t-20.5 -27.5q-4 -14 -1.5 -26.5t9.5 -21.5q-5 -2 -11 -2t-13 2q-26 7 -39 29.5t-13 42.5q0 36 30.5 61.5t94.5 24.5l174 -4q31 0 54 1t39 6l11 -20q0 -19 -3 -34t-18 -33l-308 -382l-13 17
l228 5q37 1 55 16.5t22 35.5q4 15 0.5 29t-11.5 22q15 1 25 -1q20 -5 31 -19t15.5 -30.5t4.5 -29.5q0 -41 -32.5 -67.5t-90.5 -26.5l-200 3q-21 0 -46.5 -1t-47.5 -6z" />
    <glyph glyph-name="braceleft" unicode="{" horiz-adv-x="382" 
d="M270 -174q-67 0 -109 34.5t-42 109.5q0 41 8 95t8 107q0 45 -15 65.5t-52 34.5v32q39 15 53 38.5t14 65.5q0 56 -8 105.5t-8 87.5q0 76 42 110.5t109 34.5q29 0 50.5 -5t27.5 -10q4 -1 4.5 -8t-2 -13t-8.5 -8q-11 3 -23 4.5t-24 1.5q-45 0 -70.5 -23.5t-25.5 -76.5
q0 -36 8.5 -87.5t8.5 -104.5q0 -63 -15.5 -90.5t-35.5 -34.5v-6q22 -7 36.5 -36.5t14.5 -86.5q0 -33 -4.5 -68.5t-8.5 -69t-4 -58.5q0 -51 25.5 -77t70.5 -26q12 0 24 2t23 5q6 -1 8.5 -7.5t2 -13.5t-4.5 -9q-6 -4 -27.5 -9t-50.5 -5z" />
    <glyph glyph-name="bar" unicode="|" horiz-adv-x="290" 
d="M107 -137v867h76v-867h-76z" />
    <glyph glyph-name="braceright" unicode="}" horiz-adv-x="382" 
d="M111 -174q-28 0 -49.5 5t-28.5 9q-3 2 -3.5 9t2 13.5t7.5 7.5q11 -3 23.5 -5t24.5 -2q45 0 70.5 26t25.5 77q0 25 -4 58.5t-8.5 69t-4.5 68.5q0 57 14.5 86.5t36.5 36.5v6q-20 7 -35.5 34.5t-15.5 90.5q0 53 8.5 104.5t8.5 87.5q0 53 -25.5 76.5t-70.5 23.5
q-12 0 -24.5 -1.5t-23.5 -4.5q-5 2 -7.5 8t-2 13t3.5 8q7 5 28.5 10t49.5 5q69 0 110 -34.5t41 -110.5q0 -38 -8 -87.5t-8 -105.5q0 -42 14.5 -65.5t52.5 -38.5v-32q-35 -14 -51 -34.5t-16 -65.5q0 -53 8 -107t8 -95q0 -75 -41 -109.5t-110 -34.5z" />
    <glyph glyph-name="asciitilde" unicode="~" horiz-adv-x="512" 
d="M441 387q-6 -38 -30 -64t-61 -26q-30 0 -53 8.5t-43 20t-41.5 19.5t-47.5 8q-25 0 -41.5 -13t-23.5 -34q-7 -1 -15.5 3t-14.5 8q5 32 20.5 51t37 27.5t43.5 8.5q29 0 52 -8t43.5 -19.5t42.5 -19.5t49 -8q25 0 35.5 14t18.5 33q19 0 29 -9z" />
    <glyph glyph-name="uni00A0" unicode="&#xa0;" horiz-adv-x="240" 
 />
    <glyph glyph-name="exclamdown" unicode="&#xa1;" horiz-adv-x="290" 
d="M98 -211q23 -7 47 -7t47 7l-16 537h-59zM145 520q22 0 37.5 -16t15.5 -38t-15.5 -38.5t-37.5 -16.5q-23 0 -39 16.5t-16 38.5t16 38t39 16z" />
    <glyph glyph-name="cent" unicode="&#xa2;" horiz-adv-x="508" 
d="M378 -52q-18 -5 -23 16l-173 680q-7 29 -14 50.5t-13 32.5q3 4 6.5 7t10.5 5q17 5 24 -16l173 -680q6 -29 13.5 -50.5t12.5 -32.5l-6.5 -6.5t-10.5 -5.5zM278 85q-109 0 -170.5 67.5t-61.5 196.5q0 125 62.5 197t177.5 72q82 0 125.5 -35.5t43.5 -90.5q0 -35 -18 -56.5
t-48 -21.5q-13 0 -26 4.5t-21 15.5q17 7 25 23.5t8 40.5q0 30 -13.5 49t-35.5 27.5t-48 8.5q-65 0 -106 -56t-41 -166q0 -82 23 -130.5t61 -69.5t84 -21q36 0 66 11.5t51.5 35t29.5 58.5q10 -4 14.5 -15.5t-4.5 -36.5q-16 -53 -64 -80.5t-114 -27.5z" />
    <glyph glyph-name="sterling" unicode="&#xa3;" horiz-adv-x="509" 
d="M184 508q0 -42 5 -79.5t9.5 -76t4.5 -82.5q0 -53 -12 -94t-37.5 -74.5t-67.5 -64.5q100 0 193.5 12t185.5 36q5 -7 7 -18t2 -23q0 -16 -7 -30t-23 -14h-406v29q33 47 52 81.5t27.5 67t8.5 72.5q0 36 -5 77t-10 81.5t-5 73.5q0 67 17.5 110t46.5 66.5t64 32.5t71 9
q67 0 102.5 -29t35.5 -65q0 -27 -12.5 -35.5t-26.5 -8.5q-10 0 -17 2q0 50 -26 75.5t-62 25.5q-30 0 -56 -12t-42.5 -45.5t-16.5 -99.5zM28 287l1 22q1 11 7.5 17t15.5 6h227q4 0 16.5 0.5t28 1t28 1t16.5 0.5l-1 -23q-1 -10 -7.5 -16.5t-15.5 -6.5h-256q-10 0 -30 -0.5
t-30 -1.5z" />
    <glyph glyph-name="currency" unicode="&#xa4;" horiz-adv-x="571" 
d="M286 158q-57 0 -104.5 27t-76 74t-28.5 106q0 58 28 104.5t75.5 73.5t104.5 27q58 0 105 -27t75 -73.5t28 -105.5q0 -58 -28 -105t-75 -74t-104 -27zM285 207q41 0 74.5 20.5t53.5 56t20 80.5t-20 80.5t-53.5 56t-74.5 20.5q-40 0 -74 -20.5t-54 -56t-20 -80.5t20 -80.5
t54 -56t74 -20.5zM149 477l-28 25q-22 21 -38.5 36t-27.5 21q1 6 3.5 11.5t8.5 11.5q8 8 16 7.5t15 -7.5l79 -78zM427 472l-29 28l27 28q20 22 35 39t22 27q5 -1 10.5 -3t11.5 -8q8 -9 7.5 -17t-7.5 -15zM474 145l-80 77l28 28l28 -25q21 -21 38.5 -36t27.5 -22
q-1 -6 -3 -11t-8 -11q-8 -8 -16 -7.5t-15 7.5zM89 133q-5 2 -10.5 4t-11.5 7q-8 9 -8 16.5t7 14.5l78 80l29 -29l-27 -27q-21 -22 -36 -38.5t-21 -27.5z" />
    <glyph glyph-name="yen" unicode="&#xa5;" horiz-adv-x="550" 
d="M88 239l1 22q1 11 7.5 17t14.5 6h242h14t25.5 0.5t29.5 0.5t25.5 0.5t13.5 1.5l-1 -23q-1 -10 -7 -16t-15 -6h-290q-10 0 -30 -1t-30 -2zM88 216l1 22q1 11 7.5 17t14.5 6h242h14t25.5 0.5t29.5 0.5t25.5 0.5t13.5 1.5l-1 -23q-1 -10 -7 -16.5t-15 -6.5h-290
q-10 0 -30 -0.5t-30 -1.5zM273 228q-13 1 -21.5 7t-14.5 15t-11 17l-179 364q-5 10 -14.5 23.5t-19.5 23.5q7 8 22 17t36 9q23 0 34.5 -12t20.5 -32l178 -382l-34 -14l175 372q10 22 10 35q0 7 -2 13.5t-5 11.5q9 4 18.5 6t25.5 2q20 0 29.5 -11.5t10.5 -27.5
q0 -10 -5.5 -24t-14.5 -28l-199 -371zM317 277v-163q0 -29 2.5 -57t10.5 -50q-6 -5 -17.5 -11.5t-28.5 -6.5q-20 0 -33 12t-13 32l-1 233z" />
    <glyph glyph-name="brokenbar" unicode="&#xa6;" horiz-adv-x="290" 
d="M107 -137v356h76v-356h-76zM107 373v356h76v-356h-76z" />
    <glyph glyph-name="section" unicode="&#xa7;" horiz-adv-x="467" 
d="M224 -99q-66 0 -107 16.5t-60 44t-19 61.5q0 17 6 30.5t20 20.5t39 3q-3 -10 -3.5 -20t0.5 -22q3 -44 37 -70.5t93 -26.5q56 0 91.5 20t35.5 60q0 32 -20.5 52t-53 35t-68.5 31q-38 19 -74 39t-59.5 51t-23.5 81q0 53 29 83.5t75 42.5q-43 24 -73.5 56t-30.5 88
q0 47 25 75t66 41t88 13q82 0 128 -26.5t46 -74.5q0 -16 -8 -29t-28 -16q-7 -2 -14 -1.5t-14 1.5q2 11 1.5 21.5t-3.5 20.5q-3 33 -32.5 50t-78.5 17q-27 0 -50.5 -6.5t-38.5 -21.5t-15 -41q0 -33 18 -55t48 -37.5t64 -31.5q30 -14 60 -28.5t55 -32.5t41 -42.5t16 -59.5
q0 -25 -11 -52t-37.5 -48.5t-74.5 -30.5q33 -15 60.5 -33.5t45 -43.5t17.5 -62q0 -33 -19 -66t-64 -54.5t-125 -21.5zM256 209q27 -1 49.5 7t37 26.5t14.5 45.5q0 29 -19.5 48.5t-50 35.5t-65.5 32q-41 2 -66.5 -17t-25.5 -58q0 -31 18.5 -52.5t47.5 -37t60 -30.5z" />
    <glyph glyph-name="dieresis" unicode="&#xa8;" horiz-adv-x="600" 
d="M207 586q-19 0 -33.5 14t-14.5 33q0 20 14.5 33.5t33.5 13.5t33 -14t14 -33t-14 -33t-33 -14zM380 586q-18 0 -32 14t-14 33q0 20 14 33.5t32 13.5q20 0 34 -14t14 -33t-14 -33t-34 -14z" />
    <glyph glyph-name="copyright" unicode="&#xa9;" horiz-adv-x="822" 
d="M412 -12q-75 0 -140 28t-114 77.5t-77 115t-28 139.5q0 75 28 139.5t77 113.5t114 77t140 28q74 0 139 -28t114 -77.5t77 -114t28 -138.5t-28 -139.5t-77 -115t-114 -77.5t-139 -28zM414 127q-85 0 -133.5 57t-48.5 164q0 108 49.5 164.5t136.5 56.5q37 0 68 -8t50 -22.5
t19 -32.5q0 -11 -11.5 -21t-32.5 -9q-5 33 -29 50t-63 17q-61 0 -93 -49t-32 -146q0 -96 31.5 -145.5t91.5 -49.5q38 0 68.5 20t38.5 59q17 3 30.5 -3.5t13.5 -23.5q0 -21 -22 -39t-57 -28.5t-75 -10.5zM411 25q67 0 124.5 25t101.5 69.5t69 103t25 125.5t-25 125t-69 102
t-101.5 69t-124.5 25t-124.5 -25t-102 -69t-69 -102t-24.5 -124q0 -68 24.5 -127t69 -103t102 -69t124.5 -25z" />
    <glyph glyph-name="ordfeminine" unicode="&#xaa;" horiz-adv-x="382" 
d="M325 361q-15 0 -28.5 6.5t-22.5 18t-11.5 28t5.5 36.5l3 60l5 -14q-10 -39 -33.5 -70t-55 -48.5t-69.5 -17.5q-40 0 -63.5 21t-23.5 56q0 29 15.5 50.5t41.5 36t58 22.5q29 8 59 10.5t56 1.5v17q0 56 -19.5 84t-66.5 28q-16 0 -31.5 -5t-25.5 -16t-10 -30q0 -13 6 -27
t21 -21q-6 -7 -15.5 -10.5t-18.5 -3.5q-25 0 -39.5 18.5t-14.5 40.5q0 40 36 60.5t97 20.5q74 0 108 -34.5t34 -108.5v-127q0 -34 24 -34q4 0 11 3t10 8q5 -6 6.5 -12t1.5 -10q0 -17 -14 -27.5t-36 -10.5zM145 404q26 1 53 19t45.5 47.5t18.5 63.5q-24 1 -53.5 -1.5
t-51.5 -11.5q-29 -10 -45 -27.5t-16 -42.5q0 -18 11 -33t38 -14z" />
    <glyph glyph-name="guillemotleft" unicode="&#xab;" horiz-adv-x="672" 
d="M620 439l-274 -196v-5l275 -192l-26 -33l-327 201q-2 5 -2.5 15.5t0 21.5t2.5 15l328 208zM382 439l-274 -196v-5l275 -192l-26 -33l-327 201q-2 5 -2.5 15.5t0 21.5t2.5 15l328 208z" />
    <glyph glyph-name="logicalnot" unicode="&#xac;" horiz-adv-x="554" 
d="M71 337q-9 24 0 49h396v-49h-396zM420 229v148h47v-148q-24 -10 -47 0z" />
    <glyph glyph-name="uni00AD" unicode="&#xad;" horiz-adv-x="399" 
d="M48 283h302v-52h-302v52z" />
    <glyph glyph-name="registered" unicode="&#xae;" horiz-adv-x="822" 
d="M412 -12q-75 0 -140 28t-114 77.5t-77 115t-28 139.5q0 75 28 139.5t77 113.5t114 77t140 28q74 0 139 -28t114 -77.5t77 -114t28 -138.5t-28 -139.5t-77 -115t-114 -77.5t-139 -28zM411 25q66 0 124 25t102 69.5t69 103t25 125.5q0 66 -25 124.5t-69 102.5t-102 69
t-124 25q-67 0 -124.5 -25t-102 -69t-69 -102t-24.5 -125t24.5 -126t69 -103t102 -69t124.5 -25zM299 124q-14 0 -22.5 8t-9.5 22v343q0 6 -0.5 18.5t-2.5 26.5t-6 24q11 5 34.5 9.5t67.5 4.5q102 0 150.5 -28t48.5 -93q0 -54 -40 -87.5t-102 -36.5l3 9q43 1 64 -19t35 -48
l35 -74q10 -18 17.5 -26t16.5 -8q4 -1 10 1t11 7q4 -10 4 -18q0 -15 -13.5 -24.5t-30.5 -9.5t-30 9t-22.5 23.5t-18.5 32.5l-32 73q-8 19 -17.5 32.5t-26 21t-45.5 7.5l-62 1l-7 27q14 -1 31.5 -1.5t39.5 -0.5q34 1 61 14t42.5 36t15.5 55q0 48 -31 73.5t-105 25.5h-22
t-15 -1v-349q0 -13 1.5 -33t6.5 -34q-3 -3 -12 -8t-22 -5z" />
    <glyph glyph-name="macron" unicode="&#xaf;" horiz-adv-x="600" 
d="M155 643h257q8 -22 0 -43h-257q-8 21 0 43z" />
    <glyph glyph-name="degree" unicode="&#xb0;" horiz-adv-x="369" 
d="M185 465q-35 0 -63.5 16t-45.5 43.5t-17 61.5q0 33 17 60t46 43.5t63 16.5q35 0 63.5 -16.5t45 -43.5t16.5 -60q0 -34 -16.5 -61.5t-45 -43.5t-63.5 -16zM185 508q31 0 53.5 23t22.5 55t-22.5 54t-53.5 22t-53.5 -22t-22.5 -54t22.5 -55t53.5 -23z" />
    <glyph glyph-name="plusminus" unicode="&#xb1;" horiz-adv-x="577" 
d="M91 397h395q10 -25 0 -49h-395q-9 24 0 49zM313 520v-296q-25 -8 -49 1l-1 295q25 9 50 0zM91 169h395q10 -25 0 -49h-395q-9 24 0 49z" />
    <glyph glyph-name="uni00B2" unicode="&#xb2;" horiz-adv-x="386" 
d="M42 236q-6 6 -9 17t0 24q23 18 54.5 41.5t63.5 52.5t59.5 62.5t44.5 71t17 79.5q0 36 -21.5 65t-67.5 29q-35 0 -53.5 -18.5t-26 -44t-9.5 -46.5q-20 0 -32 7.5t-16.5 18t-4.5 20.5q0 22 17.5 43t50.5 34.5t79 13.5q42 0 77 -13.5t56 -41.5t21 -72q0 -43 -18.5 -83.5
t-48.5 -75t-65.5 -63t-69.5 -49.5t-59 -35q30 1 67 4.5t75.5 8.5t72.5 11.5t58 12.5q6 -4 9 -15.5t2.5 -24.5t-4 -23t-11.5 -11h-308z" />
    <glyph glyph-name="uni00B3" unicode="&#xb3;" horiz-adv-x="403" 
d="M192 228q-49 0 -80 9t-47.5 22.5t-23 27t-6.5 21.5q0 9 4 18t14.5 15.5t29.5 6.5q2 -11 6 -27t14.5 -31t31 -25t53.5 -10q51 0 79 27.5t28 71.5q0 42 -24 66t-61.5 35t-80.5 11v27q51 3 84 18.5t48.5 39.5t15.5 50q0 34 -19.5 55.5t-62.5 21.5q-35 0 -55 -15t-27.5 -36
t-8.5 -40q-21 0 -31.5 5.5t-13.5 14t-3 14.5q0 20 15.5 39.5t47.5 32.5t81 13q25 0 51 -5.5t48.5 -17.5t36.5 -33t14 -53q0 -44 -32.5 -74t-83.5 -42q57 -10 95.5 -37.5t38.5 -82.5q0 -62 -48.5 -97.5t-127.5 -35.5z" />
    <glyph glyph-name="acute" unicode="&#xb4;" horiz-adv-x="600" 
d="M385 701l-134 -138q-8 0 -20 1.5t-16 5.5l91 150q12 1 28.5 -2t30.5 -7.5t20 -9.5z" />
    <glyph glyph-name="uni00B5" unicode="&#xb5;" horiz-adv-x="573" 
d="M239 -13q-79 0 -117.5 47t-38.5 163l-1 198q0 27 -2.5 56t-9.5 52q8 6 19 12t27 6q20 0 33 -11.5t13 -33.5v-269q0 -63 9.5 -102t31.5 -56.5t60 -17.5q24 0 47.5 13t44 41t33 73.5t12.5 110.5v99t-1.5 63.5t-4 41t-8.5 30.5q6 5 17.5 11.5t29.5 6.5q19 0 32 -12.5
t13 -35.5l1 -370q0 -28 7 -39.5t21 -11.5q6 0 14 3t13 12q11 -15 11 -31q0 -20 -15.5 -33t-43.5 -13q-39 0 -58.5 25.5t-19.5 76.5v71l14 18q-5 -61 -29.5 -104t-64 -66.5t-89.5 -23.5zM129 -222q-21 0 -34 11.5t-13 32.5l1 443l71 -201v-131q0 -21 2.5 -47t7 -50t11.5 -40
q-6 -6 -17.5 -12t-28.5 -6z" />
    <glyph glyph-name="paragraph" unicode="&#xb6;" horiz-adv-x="711" 
d="M591 -195q-15 0 -30 11.5t-25 33.5t-10 52v520q0 80 -22.5 134.5t-67.5 82t-114 27.5q-58 0 -95.5 -17.5t-58.5 -46.5t-29.5 -62.5t-8.5 -64.5q0 -67 26 -108t69.5 -55.5t94.5 -2.5l-4 -41q-48 -10 -95.5 -1.5t-85.5 34t-61.5 69t-23.5 104.5q0 25 6 55.5t21.5 61.5
t46 57t78.5 42t120 16q138 0 210.5 -70t72.5 -210v-472q0 -35 5 -62t14 -42.5t22 -18.5q-6 -13 -21.5 -19.5t-33.5 -6.5zM344 -11q-20 0 -32.5 12t-12.5 32l-1 386q0 30 -2.5 58t-10.5 50q6 5 17.5 11.5t28.5 6.5q18 0 29.5 -11.5t11.5 -33.5l1 -386q0 -29 2.5 -57t10.5 -50
q-5 -5 -16 -11.5t-26 -6.5z" />
    <glyph glyph-name="periodcentered" unicode="&#xb7;" horiz-adv-x="268" 
d="M134 216q-22 0 -38 16t-16 38t16 38t38 16q23 0 38.5 -16t15.5 -38t-15.5 -38t-38.5 -16z" />
    <glyph glyph-name="cedilla" unicode="&#xb8;" horiz-adv-x="600" 
d="M307 8l-11 -56q45 0 70 -19.5t25 -53.5q0 -38 -28.5 -62t-75.5 -24q-37 0 -57.5 10.5t-30.5 21.5q-2 8 2.5 18t9.5 13q6 -5 19.5 -14t40.5 -9q23 0 36.5 11.5t13.5 33.5q0 21 -15.5 35t-56.5 10l16 85h42z" />
    <glyph glyph-name="uni00B9" unicode="&#xb9;" horiz-adv-x="316" 
d="M203 231q-15 0 -25 9.5t-10 26.5l-1 345v17.5t-2 14.5q-15 -13 -36 -30.5t-39.5 -31t-27.5 -13.5q-11 0 -16.5 6t-8 14t-3 15t-0.5 9q2 1 13.5 8.5t28 18.5t34.5 22.5t33 22t23 15.5q5 2 11.5 4t14.5 2q17 0 27.5 -10t10.5 -28l1 -344q-1 -19 1.5 -39.5t7.5 -38.5
q-4 -4 -13.5 -9.5t-23.5 -5.5z" />
    <glyph glyph-name="ordmasculine" unicode="&#xba;" horiz-adv-x="380" 
d="M189 358q-75 0 -117 47t-42 131t42 131t117 47q76 0 118 -47t42 -131t-42 -131t-118 -47zM190 385q46 0 70.5 39t24.5 112q0 74 -24.5 112t-70.5 38q-47 0 -71 -38t-24 -112q0 -73 24 -112t71 -39z" />
    <glyph glyph-name="guillemotright" unicode="&#xbb;" horiz-adv-x="672" 
d="M290 439l24 35l329 -208q1 -4 2 -15t0.5 -21.5t-2.5 -15.5l-328 -201l-25 33l274 192v5zM52 439l25 35l328 -208q1 -4 2 -15t0.5 -21.5t-2.5 -15.5l-328 -201l-25 33l274 192v5z" />
    <glyph glyph-name="onequarter" unicode="&#xbc;" horiz-adv-x="969" 
d="M203 231q-15 0 -25 9.5t-10 26.5l-1 345v17.5t-2 14.5q-15 -13 -36 -30.5t-39.5 -31t-27.5 -13.5q-11 0 -16.5 6t-8 14t-3 15t-0.5 9q2 1 13.5 8.5t28 18.5t34.5 22.5t33 22t23 15.5q5 2 11.5 4t14.5 2q17 0 27.5 -10t10.5 -28l1 -344q-1 -19 1.5 -39.5t7.5 -38.5
q-4 -4 -13.5 -9.5t-23.5 -5.5zM597 706q15 2 28.5 -2.5t20.5 -18.5l-392 -698q-14 -2 -26 2.5t-21 15.5zM875 86q0 -19 2 -39.5t7 -39.5q-3 -4 -13 -9.5t-24 -5.5q-15 0 -25 10t-10 27l-1 375l-191 -246h216q26 0 52.5 2t52.5 8q7 -12 5.5 -26.5t-8.5 -25.5h-348
q-15 5 -18.5 18t3.5 23l225 294q5 6 15 11t22 5q16 0 26.5 -9.5t10.5 -27.5z" />
    <glyph glyph-name="onehalf" unicode="&#xbd;" horiz-adv-x="943" 
d="M203 231q-15 0 -25 9.5t-10 26.5l-1 345v17.5t-2 14.5q-15 -13 -36 -30.5t-39.5 -31t-27.5 -13.5q-11 0 -16.5 6t-8 14t-3 15t-0.5 9q2 1 13.5 8.5t28 18.5t34.5 22.5t33 22t23 15.5q5 2 11.5 4t14.5 2q17 0 27.5 -10t10.5 -28l1 -344q-1 -19 1.5 -39.5t7.5 -38.5
q-4 -4 -13.5 -9.5t-23.5 -5.5zM597 706q15 2 28.5 -2.5t20.5 -18.5l-392 -698q-14 -2 -26 2.5t-21 15.5zM592 0q-7 5 -10 16t0 24q24 19 55.5 42.5t63.5 52t59.5 62.5t44 71.5t16.5 79.5q0 36 -21 65t-67 29q-35 0 -54 -18.5t-26.5 -44t-8.5 -46.5q-21 0 -32.5 7t-16.5 18
t-5 21q0 22 18 43t51 34t79 13q42 0 76.5 -13t56 -41t21.5 -72q0 -43 -18.5 -83.5t-49 -75t-66 -63t-69 -49.5t-58.5 -35q29 0 66 3.5t75.5 9t73 12t57.5 12.5q6 -4 9 -16t3 -25t-3.5 -22.5t-11.5 -10.5h-308z" />
    <glyph glyph-name="threequarters" unicode="&#xbe;" horiz-adv-x="1056" 
d="M192 228q-49 0 -80 9t-47.5 22.5t-23 27t-6.5 21.5q0 9 4 18t14.5 15.5t29.5 6.5q2 -11 6 -27t14.5 -31t31 -25t53.5 -10q51 0 79 27.5t28 71.5q0 42 -24 66t-61.5 35t-80.5 11v27q51 3 84 18.5t48.5 39.5t15.5 50q0 34 -19.5 55.5t-62.5 21.5q-35 0 -55 -15t-27.5 -36
t-8.5 -40q-21 0 -31.5 5.5t-13.5 14t-3 14.5q0 20 15.5 39.5t47.5 32.5t81 13q25 0 51 -5.5t48.5 -17.5t36.5 -33t14 -53q0 -44 -32.5 -74t-83.5 -42q57 -10 95.5 -37.5t38.5 -82.5q0 -62 -48.5 -97.5t-127.5 -35.5zM684 706q15 2 28.5 -2.5t20.5 -18.5l-392 -698
q-14 -2 -26 2.5t-21 15.5zM962 86q0 -19 2 -39.5t7 -39.5q-3 -4 -13 -9.5t-24 -5.5q-15 0 -25 10t-10 27l-1 375l-191 -246h216q26 0 52.5 2t52.5 8q7 -12 5.5 -26.5t-8.5 -25.5h-348q-15 5 -18.5 18t3.5 23l225 294q5 6 15 11t22 5q16 0 26.5 -9.5t10.5 -27.5z" />
    <glyph glyph-name="questiondown" unicode="&#xbf;" horiz-adv-x="485" 
d="M328 336v-152q-33 0 -68.5 -12t-66 -36t-49.5 -60t-19 -85q0 -46 17 -85t51.5 -61.5t88.5 -22.5q39 0 64.5 14t40 35.5t21.5 45.5t8 44q25 0 38.5 -6t19.5 -16t6 -24q0 -29 -23.5 -59.5t-69.5 -50.5t-112 -20q-46 0 -88 11t-75.5 35t-52.5 64t-19 96q0 53 19 94
t51.5 70.5t73 46.5t82.5 21v113h62zM310 529q23 0 39 -15.5t16 -38.5q0 -22 -16 -38t-39 -16q-21 0 -37 16t-16 38q0 23 16 38.5t37 15.5z" />
    <glyph glyph-name="Agrave" unicode="&#xc0;" horiz-adv-x="592" 
d="M319 706q17 0 30.5 -6.5t17.5 -23.5l201 -621q4 -12 10 -24.5t14 -22.5q-6 -7 -17 -13t-30 -6q-18 0 -32.5 8t-17.5 25l-201 652l13 -1l-186 -620q-2 -8 -4 -16.5t-2 -16.5q0 -7 1.5 -13t4.5 -10q-9 -3 -19 -5.5t-25 -2.5q-22 0 -34 9t-11 28q0 8 3 20.5t6 24.5l212 622
q33 13 66 13zM154 268h317v-48h-317v48zM159 818q5 11 14 22t19.5 20.5t19.5 13.5l136 -114q0 -4 -5 -13t-11 -11z" />
    <glyph glyph-name="Aacute" unicode="&#xc1;" horiz-adv-x="592" 
d="M319 706q17 0 30.5 -6.5t17.5 -23.5l201 -621q4 -12 10 -24.5t14 -22.5q-6 -7 -17 -13t-30 -6q-18 0 -32.5 8t-17.5 25l-201 652l13 -1l-186 -620q-2 -8 -4 -16.5t-2 -16.5q0 -7 1.5 -13t4.5 -10q-9 -3 -19 -5.5t-25 -2.5q-22 0 -34 9t-11 28q0 8 3 20.5t6 24.5l212 622
q33 13 66 13zM154 268h317v-48h-317v48zM454 818l-173 -82q-5 2 -10.5 11t-5.5 13l136 114q10 -4 20.5 -13.5t19.5 -20.5t13 -22z" />
    <glyph glyph-name="Acircumflex" unicode="&#xc2;" horiz-adv-x="592" 
d="M319 706q17 0 30.5 -6.5t17.5 -23.5l201 -621q4 -12 10 -24.5t14 -22.5q-6 -7 -17 -13t-30 -6q-18 0 -32.5 8t-17.5 25l-201 652l13 -1l-186 -620q-2 -8 -4 -16.5t-2 -16.5q0 -7 1.5 -13t4.5 -10q-9 -3 -19 -5.5t-25 -2.5q-22 0 -34 9t-11 28q0 8 3 20.5t6 24.5l212 622
q33 13 66 13zM154 268h317v-48h-317v48zM331 868l126 -114q-1 -4 -7.5 -12t-12.5 -10l-131 78l-132 -78q-5 2 -11.5 10t-8.5 12l126 114q6 2 16 2.5t19.5 0t15.5 -2.5z" />
    <glyph glyph-name="Atilde" unicode="&#xc3;" horiz-adv-x="592" 
d="M319 706q17 0 30.5 -6.5t17.5 -23.5l201 -621q4 -12 10 -24.5t14 -22.5q-6 -7 -17 -13t-30 -6q-18 0 -32.5 8t-17.5 25l-201 652l13 -1l-186 -620q-2 -8 -4 -16.5t-2 -16.5q0 -7 1.5 -13t4.5 -10q-9 -3 -19 -5.5t-25 -2.5q-22 0 -34 9t-11 28q0 8 3 20.5t6 24.5l212 622
q33 13 66 13zM154 268h317v-48h-317v48zM451 836q-7 -36 -28 -59t-54 -23q-24 0 -45 10.5t-40.5 21t-41.5 10.5q-24 0 -37.5 -10.5t-20.5 -29.5q-5 -1 -12 2t-12 8q7 47 31.5 66t54.5 19q26 0 46.5 -10.5t40.5 -21t44 -10.5q22 0 32 10.5t18 25.5q9 0 14 -2t10 -7z" />
    <glyph glyph-name="Adieresis" unicode="&#xc4;" horiz-adv-x="592" 
d="M319 706q17 0 30.5 -6.5t17.5 -23.5l201 -621q4 -12 10 -24.5t14 -22.5q-6 -7 -17 -13t-30 -6q-18 0 -32.5 8t-17.5 25l-201 652l13 -1l-186 -620q-2 -8 -4 -16.5t-2 -16.5q0 -7 1.5 -13t4.5 -10q-9 -3 -19 -5.5t-25 -2.5q-22 0 -34 9t-11 28q0 8 3 20.5t6 24.5l212 622
q33 13 66 13zM154 268h317v-48h-317v48zM217 758q-21 0 -36 15t-15 36t15 36t36 15t36 -15t15 -36t-15 -36t-36 -15zM402 758q-21 0 -36 15t-15 36t15 36t36 15t36 -15t15 -36t-15 -36t-36 -15z" />
    <glyph glyph-name="Aring" unicode="&#xc5;" horiz-adv-x="592" 
d="M319 706q17 0 30.5 -6.5t17.5 -23.5l201 -621q4 -12 10 -24.5t14 -22.5q-6 -7 -17 -13t-30 -6q-18 0 -32.5 8t-17.5 25l-201 652l13 -1l-186 -620q-2 -8 -4 -16.5t-2 -16.5q0 -7 1.5 -13t4.5 -10q-9 -3 -19 -5.5t-25 -2.5q-22 0 -34 9t-11 28q0 8 3 20.5t6 24.5l212 622
q33 13 66 13zM154 268h317v-48h-317v48zM312 906q40 0 64.5 -22t24.5 -59q-1 -39 -26 -61.5t-67 -22.5q-40 0 -64.5 22t-24.5 58q0 39 26 62t67 23zM310 877q-21 0 -34 -14t-13 -40q0 -25 13 -39.5t34 -14.5q22 0 34.5 14.5t12.5 39.5q0 26 -12.5 40t-34.5 14z" />
    <glyph glyph-name="AE" unicode="&#xc6;" horiz-adv-x="836" 
d="M80 -11q-23 0 -36 11t-12 30q0 19 12 41l325 611q14 3 34.5 5.5t41.5 4t38 1.5h279q10 0 13 -9.5t1 -22.5t-8 -24t-14 -15q-63 11 -131.5 18t-138.5 8l1 -604q49 1 100 5.5t99.5 10.5t87.5 12q9 -5 13 -16.5t4 -24t-5 -22t-15 -9.5h-318q-20 0 -32.5 12t-12.5 33l-2 524
v25.5t-3 25.5l-279 -567q-3 -8 -4.5 -16.5t-1.5 -16.5q0 -7 1.5 -13t4.5 -10q-9 -3 -18.5 -5.5t-23.5 -2.5zM196 220v48h231v-48h-231zM470 340v48h260q3 -12 3 -24.5t-3 -23.5h-260z" />
    <glyph glyph-name="Ccedilla" unicode="&#xc7;" horiz-adv-x="596" 
d="M547 113q0 -25 -18 -48t-49.5 -40.5t-72 -27.5t-83.5 -10q-125 0 -195 92.5t-70 266.5q0 175 71 267.5t199 92.5q40 0 76 -8t63.5 -21.5t43.5 -32t16 -39.5q0 -18 -17 -32.5t-48 -11.5q-8 53 -42.5 80.5t-90.5 27.5q-89 0 -135.5 -81.5t-46.5 -241.5t46 -241t134 -81
q36 0 67.5 14.5t54 43.5t30.5 71q17 2 32 -1.5t25 -12.5t10 -26zM335 8l-11 -56q45 0 70 -19.5t25 -53.5q0 -38 -28.5 -62t-75.5 -24q-37 0 -57.5 10.5t-30.5 21.5q-2 8 2.5 18t9.5 13q6 -5 19.5 -14t40.5 -9q23 0 36.5 11.5t13.5 33.5q0 21 -15.5 35t-56.5 10l16 85h42z
" />
    <glyph glyph-name="Egrave" unicode="&#xc8;" horiz-adv-x="537" 
d="M143 0q-20 0 -33 12t-13 33l-1 524q0 30 -2.5 55.5t-10.5 47.5q14 13 28.5 17t40.5 4h302q9 0 12.5 -9.5t1.5 -22.5t-8 -24t-14 -15q-65 11 -132 18t-138 8l1 -604q48 1 99.5 5.5t100 10.5t87.5 12q8 -5 12.5 -16.5t4.5 -24t-5 -22t-15 -9.5h-318zM161 340v48h261
q3 -12 3 -24.5t-3 -23.5h-261zM129 818q5 11 14 22t19.5 20.5t19.5 13.5l136 -114q0 -4 -5 -13t-11 -11z" />
    <glyph glyph-name="Eacute" unicode="&#xc9;" horiz-adv-x="537" 
d="M143 0q-20 0 -33 12t-13 33l-1 524q0 30 -2.5 55.5t-10.5 47.5q14 13 28.5 17t40.5 4h302q9 0 12.5 -9.5t1.5 -22.5t-8 -24t-14 -15q-65 11 -132 18t-138 8l1 -604q48 1 99.5 5.5t100 10.5t87.5 12q8 -5 12.5 -16.5t4.5 -24t-5 -22t-15 -9.5h-318zM161 340v48h261
q3 -12 3 -24.5t-3 -23.5h-261zM424 818l-173 -82q-5 2 -10.5 11t-5.5 13l136 114q10 -4 20.5 -13.5t19.5 -20.5t13 -22z" />
    <glyph glyph-name="Ecircumflex" unicode="&#xca;" horiz-adv-x="537" 
d="M143 0q-20 0 -33 12t-13 33l-1 524q0 30 -2.5 55.5t-10.5 47.5q14 13 28.5 17t40.5 4h302q9 0 12.5 -9.5t1.5 -22.5t-8 -24t-14 -15q-65 11 -132 18t-138 8l1 -604q48 1 99.5 5.5t100 10.5t87.5 12q8 -5 12.5 -16.5t4.5 -24t-5 -22t-15 -9.5h-318zM161 340v48h261
q3 -12 3 -24.5t-3 -23.5h-261zM301 868l126 -114q-1 -4 -7.5 -12t-12.5 -10l-131 78l-132 -78q-5 2 -11.5 10t-8.5 12l126 114q6 2 16 2.5t19.5 0t15.5 -2.5z" />
    <glyph glyph-name="Edieresis" unicode="&#xcb;" horiz-adv-x="537" 
d="M143 0q-20 0 -33 12t-13 33l-1 524q0 30 -2.5 55.5t-10.5 47.5q14 13 28.5 17t40.5 4h302q9 0 12.5 -9.5t1.5 -22.5t-8 -24t-14 -15q-65 11 -132 18t-138 8l1 -604q48 1 99.5 5.5t100 10.5t87.5 12q8 -5 12.5 -16.5t4.5 -24t-5 -22t-15 -9.5h-318zM161 340v48h261
q3 -12 3 -24.5t-3 -23.5h-261zM187 758q-21 0 -36 15t-15 36t15 36t36 15t36 -15t15 -36t-15 -36t-36 -15zM372 758q-21 0 -36 15t-15 36t15 36t36 15t36 -15t15 -36t-15 -36t-36 -15z" />
    <glyph glyph-name="Igrave" unicode="&#xcc;" horiz-adv-x="273" 
d="M143 -11q-20 0 -33 12t-13 32l-1 544q0 30 -2.5 57.5t-10.5 49.5q6 6 18 12t29 6q20 0 33.5 -11.5t13.5 -32.5v-544q0 -29 2.5 -57t10.5 -50q-6 -5 -18 -11.5t-29 -6.5zM-21 818q5 11 14 22t19.5 20.5t19.5 13.5l136 -114q0 -4 -5 -13t-11 -11z" />
    <glyph glyph-name="Iacute" unicode="&#xcd;" horiz-adv-x="273" 
d="M143 -11q-20 0 -33 12t-13 32l-1 544q0 30 -2.5 57.5t-10.5 49.5q6 6 18 12t29 6q20 0 33.5 -11.5t13.5 -32.5v-544q0 -29 2.5 -57t10.5 -50q-6 -5 -18 -11.5t-29 -6.5zM275 818l-173 -82q-5 2 -10.5 11t-5.5 13l136 114q10 -4 20.5 -13.5t19.5 -20.5t13 -22z" />
    <glyph glyph-name="Icircumflex" unicode="&#xce;" horiz-adv-x="273" 
d="M143 -11q-20 0 -33 12t-13 32l-1 544q0 30 -2.5 57.5t-10.5 49.5q6 6 18 12t29 6q20 0 33.5 -11.5t13.5 -32.5v-544q0 -29 2.5 -57t10.5 -50q-6 -5 -18 -11.5t-29 -6.5zM151 868l126 -114q-1 -4 -7.5 -12t-12.5 -10l-131 78l-132 -78q-5 2 -11.5 10t-8.5 12l126 114
q6 2 16 2.5t19.5 0t15.5 -2.5z" />
    <glyph glyph-name="Idieresis" unicode="&#xcf;" horiz-adv-x="273" 
d="M143 -11q-20 0 -33 12t-13 32l-1 544q0 30 -2.5 57.5t-10.5 49.5q6 6 18 12t29 6q20 0 33.5 -11.5t13.5 -32.5v-544q0 -29 2.5 -57t10.5 -50q-6 -5 -18 -11.5t-29 -6.5zM38 758q-21 0 -36 15t-15 36t15 36t36 15t36 -15t15 -36t-15 -36t-36 -15zM223 758q-21 0 -36 15
t-15 36t15 36t36 15t36 -15t15 -36t-15 -36t-36 -15z" />
    <glyph glyph-name="Eth" unicode="&#xd0;" horiz-adv-x="637" 
d="M24 367h300q7 -18 0 -37h-300q-7 19 0 37zM141 0q-21 0 -33.5 12t-12.5 32l-2 533q0 30 -1 64t-9 56q27 3 65 4.5t76.5 2t66.5 0.5q139 0 214.5 -87.5t75.5 -265.5q0 -185 -75 -268t-211 -83h-154zM174 37h117q66 0 111 30.5t68 98.5t23 180q0 167 -51.5 243.5
t-150.5 76.5h-118z" />
    <glyph glyph-name="Ntilde" unicode="&#xd1;" horiz-adv-x="682" 
d="M121 -11q-11 0 -20 3.5t-16 8.5q7 23 9.5 53.5t2.5 59.5l-1 458q0 37 -1.5 67t-5.5 51q7 7 20.5 9t26 1t15.5 -5q32 -46 73.5 -106t86.5 -126t89 -131t80.5 -122t60.5 -99l-17 498q-2 34 5 57.5t22 31.5q8 2 17.5 1.5t18.5 -4.5q-1 -14 0.5 -34.5t1.5 -37.5v-510
q0 -37 1 -64t4 -48q-5 -5 -16 -8t-22 -3t-19 4q-36 44 -73.5 94.5t-74.5 103.5t-71.5 105t-66 101.5t-58 92.5t-46.5 77l15 -530q1 -22 -12 -35.5t-29 -13.5zM485 836q-7 -36 -28 -59t-54 -23q-24 0 -45 10.5t-40.5 21t-41.5 10.5q-24 0 -37.5 -10.5t-20.5 -29.5
q-5 -1 -12 2t-12 8q7 47 31.5 66t54.5 19q26 0 46.5 -10.5t40.5 -21t44 -10.5q22 0 32 10.5t18 25.5q9 0 14 -2t10 -7z" />
    <glyph glyph-name="Ograve" unicode="&#xd2;" horiz-adv-x="651" 
d="M325 -13q-128 0 -197 88.5t-69 270.5t69 271t197 89q129 0 198 -89t69 -271t-69 -270.5t-198 -88.5zM325 24q88 0 133 77.5t45 244.5q0 168 -45 245.5t-133 77.5q-86 0 -131.5 -77.5t-45.5 -245.5q0 -167 45.5 -244.5t131.5 -77.5zM209 818q5 11 14 22t19.5 20.5
t19.5 13.5l136 -114q0 -4 -5 -13t-11 -11z" />
    <glyph glyph-name="Oacute" unicode="&#xd3;" horiz-adv-x="651" 
d="M325 -13q-128 0 -197 88.5t-69 270.5t69 271t197 89q129 0 198 -89t69 -271t-69 -270.5t-198 -88.5zM325 24q88 0 133 77.5t45 244.5q0 168 -45 245.5t-133 77.5q-86 0 -131.5 -77.5t-45.5 -245.5q0 -167 45.5 -244.5t131.5 -77.5zM472 818l-173 -82q-5 2 -10.5 11
t-5.5 13l136 114q10 -4 20.5 -13.5t19.5 -20.5t13 -22z" />
    <glyph glyph-name="Ocircumflex" unicode="&#xd4;" horiz-adv-x="651" 
d="M325 -13q-128 0 -197 88.5t-69 270.5t69 271t197 89q129 0 198 -89t69 -271t-69 -270.5t-198 -88.5zM325 24q88 0 133 77.5t45 244.5q0 168 -45 245.5t-133 77.5q-86 0 -131.5 -77.5t-45.5 -245.5q0 -167 45.5 -244.5t131.5 -77.5zM349 868l126 -114q-1 -4 -7.5 -12
t-12.5 -10l-131 78l-132 -78q-5 2 -11.5 10t-8.5 12l126 114q6 2 16 2.5t19.5 0t15.5 -2.5z" />
    <glyph glyph-name="Otilde" unicode="&#xd5;" horiz-adv-x="651" 
d="M325 -13q-128 0 -197 88.5t-69 270.5t69 271t197 89q129 0 198 -89t69 -271t-69 -270.5t-198 -88.5zM325 24q88 0 133 77.5t45 244.5q0 168 -45 245.5t-133 77.5q-86 0 -131.5 -77.5t-45.5 -245.5q0 -167 45.5 -244.5t131.5 -77.5zM469 836q-7 -36 -28 -59t-54 -23
q-24 0 -45 10.5t-40.5 21t-41.5 10.5q-24 0 -37.5 -10.5t-20.5 -29.5q-5 -1 -12 2t-12 8q7 47 31.5 66t54.5 19q26 0 46.5 -10.5t40.5 -21t44 -10.5q22 0 32 10.5t18 25.5q9 0 14 -2t10 -7z" />
    <glyph glyph-name="Odieresis" unicode="&#xd6;" horiz-adv-x="651" 
d="M325 -13q-128 0 -197 88.5t-69 270.5t69 271t197 89q129 0 198 -89t69 -271t-69 -270.5t-198 -88.5zM325 24q88 0 133 77.5t45 244.5q0 168 -45 245.5t-133 77.5q-86 0 -131.5 -77.5t-45.5 -245.5q0 -167 45.5 -244.5t131.5 -77.5zM235 758q-21 0 -36 15t-15 36t15 36
t36 15t36 -15t15 -36t-15 -36t-36 -15zM420 758q-21 0 -36 15t-15 36t15 36t36 15t36 -15t15 -36t-15 -36t-36 -15z" />
    <glyph glyph-name="multiply" unicode="&#xd7;" horiz-adv-x="494" 
d="M111 521l307 -308q-10 -23 -34 -35l-308 308q11 24 35 35zM418 487l-308 -309q-24 12 -34 35l308 309q24 -11 34 -35z" />
    <glyph glyph-name="Oslash" unicode="&#xd8;" horiz-adv-x="638" 
d="M85 4l420 711q21 0 31 -19l-419 -710q-22 0 -32 18zM325 -13q-128 0 -197 88.5t-69 270.5t69 271t197 89q129 0 198 -89t69 -271t-69 -270.5t-198 -88.5zM325 24q88 0 133 77.5t45 244.5q0 168 -45 245.5t-133 77.5q-86 0 -131.5 -77.5t-45.5 -245.5q0 -167 45.5 -244.5
t131.5 -77.5z" />
    <glyph glyph-name="Ugrave" unicode="&#xd9;" horiz-adv-x="658" 
d="M573 658v-353q0 -157 -61.5 -237.5t-183.5 -80.5q-119 0 -178 77t-59 241v272q0 30 -2.5 57.5t-9.5 49.5q6 6 17.5 12t28.5 6q20 0 33 -11.5t13 -32.5v-356q0 -145 38 -211.5t119 -66.5q84 0 125 71t41 207v275q0 30 -2.5 57.5t-10.5 49.5q6 6 17.5 12t28.5 6
q20 0 33 -11.5t13 -32.5zM180 818q5 11 14 22t19.5 20.5t19.5 13.5l136 -114q0 -4 -5 -13t-11 -11z" />
    <glyph glyph-name="Uacute" unicode="&#xda;" horiz-adv-x="658" 
d="M573 658v-353q0 -157 -61.5 -237.5t-183.5 -80.5q-119 0 -178 77t-59 241v272q0 30 -2.5 57.5t-9.5 49.5q6 6 17.5 12t28.5 6q20 0 33 -11.5t13 -32.5v-356q0 -145 38 -211.5t119 -66.5q84 0 125 71t41 207v275q0 30 -2.5 57.5t-10.5 49.5q6 6 17.5 12t28.5 6
q20 0 33 -11.5t13 -32.5zM475 818l-173 -82q-5 2 -10.5 11t-5.5 13l136 114q10 -4 20.5 -13.5t19.5 -20.5t13 -22z" />
    <glyph glyph-name="Ucircumflex" unicode="&#xdb;" horiz-adv-x="658" 
d="M573 658v-353q0 -157 -61.5 -237.5t-183.5 -80.5q-119 0 -178 77t-59 241v272q0 30 -2.5 57.5t-9.5 49.5q6 6 17.5 12t28.5 6q20 0 33 -11.5t13 -32.5v-356q0 -145 38 -211.5t119 -66.5q84 0 125 71t41 207v275q0 30 -2.5 57.5t-10.5 49.5q6 6 17.5 12t28.5 6
q20 0 33 -11.5t13 -32.5zM352 868l126 -114q-1 -4 -7.5 -12t-12.5 -10l-131 78l-132 -78q-5 2 -11.5 10t-8.5 12l126 114q6 2 16 2.5t19.5 0t15.5 -2.5z" />
    <glyph glyph-name="Udieresis" unicode="&#xdc;" horiz-adv-x="658" 
d="M573 658v-353q0 -157 -61.5 -237.5t-183.5 -80.5q-119 0 -178 77t-59 241v272q0 30 -2.5 57.5t-9.5 49.5q6 6 17.5 12t28.5 6q20 0 33 -11.5t13 -32.5v-356q0 -145 38 -211.5t119 -66.5q84 0 125 71t41 207v275q0 30 -2.5 57.5t-10.5 49.5q6 6 17.5 12t28.5 6
q20 0 33 -11.5t13 -32.5zM238 758q-21 0 -36 15t-15 36t15 36t36 15t36 -15t15 -36t-15 -36t-36 -15zM423 758q-21 0 -36 15t-15 36t15 36t36 15t36 -15t15 -36t-15 -36t-36 -15z" />
    <glyph glyph-name="Yacute" unicode="&#xdd;" horiz-adv-x="553" 
d="M273 228q-13 1 -21.5 7t-14.5 15t-11 17l-179 364q-5 10 -14.5 23.5t-19.5 23.5q7 8 22 17t36 9q23 0 34.5 -12t20.5 -32l178 -382l-34 -14l175 372q10 22 10 35q0 7 -2 13.5t-5 11.5q9 4 18.5 6t25.5 2q20 0 29.5 -11.5t10.5 -27.5q0 -10 -5.5 -24t-14.5 -28l-199 -371z
M317 277v-163q0 -29 2.5 -57t10.5 -50q-6 -5 -17.5 -11.5t-28.5 -6.5q-20 0 -33 12t-13 32l-1 233zM440 818l-173 -82q-5 2 -10.5 11t-5.5 13l136 114q10 -4 20.5 -13.5t19.5 -20.5t13 -22z" />
    <glyph glyph-name="Thorn" unicode="&#xde;" horiz-adv-x="558" 
d="M205 146h-23t-21 1l-7 37q10 -1 21 -1.5t32 -0.5q76 0 123.5 21t70 62.5t22.5 101.5q0 57 -20.5 95.5t-65 57.5t-116.5 19q-6 0 -20 0.5t-27 0.5t-19 -1l1 35q6 1 19 1t27.5 0.5t21.5 0.5q146 0 216 -49.5t70 -154.5q0 -113 -77 -169.5t-228 -56.5zM143 -11q-20 0 -33 12
t-13 32l-1 544q0 30 -2.5 57.5t-10.5 49.5q6 6 18 12t29 6q20 0 33 -11.5t13 -32.5l1 -544q0 -29 2.5 -57t10.5 -50q-6 -5 -18 -11.5t-29 -6.5z" />
    <glyph glyph-name="germandbls" unicode="&#xdf;" horiz-adv-x="602" 
d="M126 -9q-19 0 -31 12t-12 35l-1 392q0 158 59.5 229t170.5 71q84 0 128.5 -37t44.5 -104q0 -39 -13 -65.5t-31.5 -45.5t-37.5 -34.5t-32 -31t-13 -36.5q0 -32 29 -52.5t69 -44.5q28 -16 53 -35.5t41.5 -46t16.5 -65.5q0 -35 -17 -68t-55.5 -54.5t-104.5 -21.5
q-54 0 -88 15.5t-49.5 42.5t-15.5 60q0 9 2.5 20.5t10 20.5t23.5 10q6 1 10.5 0.5t8.5 -1.5q-2 -7 -3 -17.5t-1 -20.5q0 -30 12.5 -49.5t34 -29t48.5 -9.5q45 0 73 23.5t28 63.5q0 30 -14 50t-35 33.5t-43 25.5q-36 19 -61 37.5t-38.5 40.5t-13.5 52q0 35 15.5 58.5t38 42
t45 36.5t37.5 41.5t15 56.5q0 32 -14.5 55t-41 35.5t-64.5 12.5q-49 0 -78.5 -20.5t-45 -56t-20.5 -82t-5 -97.5v-184.5t0.5 -116t1.5 -67t4 -36.5t7 -25q-4 -4 -17.5 -11t-30.5 -7z" />
    <glyph glyph-name="agrave" unicode="&#xe0;" horiz-adv-x="550" 
d="M470 -10q-43 0 -65 29.5t-22 94.5v89l19 -9q-17 -60 -51.5 -106.5t-80.5 -72.5t-100 -26q-59 0 -92 31.5t-33 84.5q0 41 21.5 73t59 54t85.5 35q42 11 86.5 15t81.5 2v26q0 87 -29 131t-98 44q-24 0 -48.5 -7.5t-40 -24.5t-15.5 -49q0 -20 10 -41.5t33 -29.5
q-9 -11 -22 -15.5t-26 -4.5q-35 0 -55 27t-20 61q0 59 52 89.5t139 30.5q104 0 152.5 -53t48.5 -163v-200q0 -53 36 -53q8 0 18 5t15 16q6 -8 8.5 -16.5t2.5 -14.5q0 -22 -20 -37t-50 -15zM206 45q29 0 59.5 17.5t56.5 46.5t42.5 66t16.5 77q-23 2 -51.5 0t-55.5 -7t-48 -13
q-44 -16 -69 -43.5t-25 -66.5q0 -30 17 -54.5t57 -22.5zM120 701q7 5 20.5 9.5t30 7.5t29.5 2l90 -150q-3 -4 -15 -5.5t-20 -1.5z" />
    <glyph glyph-name="aacute" unicode="&#xe1;" horiz-adv-x="550" 
d="M470 -10q-43 0 -65 29.5t-22 94.5v89l19 -9q-17 -60 -51.5 -106.5t-80.5 -72.5t-100 -26q-59 0 -92 31.5t-33 84.5q0 41 21.5 73t59 54t85.5 35q42 11 86.5 15t81.5 2v26q0 87 -29 131t-98 44q-24 0 -48.5 -7.5t-40 -24.5t-15.5 -49q0 -20 10 -41.5t33 -29.5
q-9 -11 -22 -15.5t-26 -4.5q-35 0 -55 27t-20 61q0 59 52 89.5t139 30.5q104 0 152.5 -53t48.5 -163v-200q0 -53 36 -53q8 0 18 5t15 16q6 -8 8.5 -16.5t2.5 -14.5q0 -22 -20 -37t-50 -15zM206 45q29 0 59.5 17.5t56.5 46.5t42.5 66t16.5 77q-23 2 -51.5 0t-55.5 -7t-48 -13
q-44 -16 -69 -43.5t-25 -66.5q0 -30 17 -54.5t57 -22.5zM402 701l-134 -138q-8 0 -20 1.5t-16 5.5l91 150q12 1 28.5 -2t30.5 -7.5t20 -9.5z" />
    <glyph glyph-name="acircumflex" unicode="&#xe2;" horiz-adv-x="550" 
d="M470 -10q-43 0 -65 29.5t-22 94.5v89l19 -9q-17 -60 -51.5 -106.5t-80.5 -72.5t-100 -26q-59 0 -92 31.5t-33 84.5q0 41 21.5 73t59 54t85.5 35q42 11 86.5 15t81.5 2v26q0 87 -29 131t-98 44q-24 0 -48.5 -7.5t-40 -24.5t-15.5 -49q0 -20 10 -41.5t33 -29.5
q-9 -11 -22 -15.5t-26 -4.5q-35 0 -55 27t-20 61q0 59 52 89.5t139 30.5q104 0 152.5 -53t48.5 -163v-200q0 -53 36 -53q8 0 18 5t15 16q6 -8 8.5 -16.5t2.5 -14.5q0 -22 -20 -37t-50 -15zM206 45q29 0 59.5 17.5t56.5 46.5t42.5 66t16.5 77q-23 2 -51.5 0t-55.5 -7t-48 -13
q-44 -16 -69 -43.5t-25 -66.5q0 -30 17 -54.5t57 -22.5zM147 562q-6 0 -18 3.5t-14 7.5l120 137q6 2 16 3t19.5 0t15.5 -3l120 -137q-3 -4 -14.5 -7.5t-17.5 -3.5l-113 87z" />
    <glyph glyph-name="atilde" unicode="&#xe3;" horiz-adv-x="550" 
d="M470 -10q-43 0 -65 29.5t-22 94.5v89l19 -9q-17 -60 -51.5 -106.5t-80.5 -72.5t-100 -26q-59 0 -92 31.5t-33 84.5q0 41 21.5 73t59 54t85.5 35q42 11 86.5 15t81.5 2v26q0 87 -29 131t-98 44q-24 0 -48.5 -7.5t-40 -24.5t-15.5 -49q0 -20 10 -41.5t33 -29.5
q-9 -11 -22 -15.5t-26 -4.5q-35 0 -55 27t-20 61q0 59 52 89.5t139 30.5q104 0 152.5 -53t48.5 -163v-200q0 -53 36 -53q8 0 18 5t15 16q6 -8 8.5 -16.5t2.5 -14.5q0 -22 -20 -37t-50 -15zM206 45q29 0 59.5 17.5t56.5 46.5t42.5 66t16.5 77q-23 2 -51.5 0t-55.5 -7t-48 -13
q-44 -16 -69 -43.5t-25 -66.5q0 -30 17 -54.5t57 -22.5zM403 667q-6 -37 -26.5 -61.5t-53.5 -24.5q-25 0 -44 12t-37 24t-41 12t-38 -12t-22 -31q-5 -1 -11.5 2t-11.5 7q7 46 32.5 65.5t54.5 19.5q27 0 45.5 -12.5t37.5 -24t42 -11.5t33.5 12.5t17.5 31.5q7 0 12.5 -2
t9.5 -7z" />
    <glyph glyph-name="adieresis" unicode="&#xe4;" horiz-adv-x="550" 
d="M470 -10q-43 0 -65 29.5t-22 94.5v89l19 -9q-17 -60 -51.5 -106.5t-80.5 -72.5t-100 -26q-59 0 -92 31.5t-33 84.5q0 41 21.5 73t59 54t85.5 35q42 11 86.5 15t81.5 2v26q0 87 -29 131t-98 44q-24 0 -48.5 -7.5t-40 -24.5t-15.5 -49q0 -20 10 -41.5t33 -29.5
q-9 -11 -22 -15.5t-26 -4.5q-35 0 -55 27t-20 61q0 59 52 89.5t139 30.5q104 0 152.5 -53t48.5 -163v-200q0 -53 36 -53q8 0 18 5t15 16q6 -8 8.5 -16.5t2.5 -14.5q0 -22 -20 -37t-50 -15zM206 45q29 0 59.5 17.5t56.5 46.5t42.5 66t16.5 77q-23 2 -51.5 0t-55.5 -7t-48 -13
q-44 -16 -69 -43.5t-25 -66.5q0 -30 17 -54.5t57 -22.5zM178 586q-19 0 -33.5 14t-14.5 33q0 20 14.5 33.5t33.5 13.5t33 -14t14 -33t-14 -33t-33 -14zM351 586q-18 0 -32 14t-14 33q0 20 14 33.5t32 13.5q20 0 34 -14t14 -33t-14 -33t-34 -14z" />
    <glyph glyph-name="aring" unicode="&#xe5;" horiz-adv-x="550" 
d="M470 -10q-43 0 -65 29.5t-22 94.5v89l19 -9q-17 -60 -51.5 -106.5t-80.5 -72.5t-100 -26q-59 0 -92 31.5t-33 84.5q0 41 21.5 73t59 54t85.5 35q42 11 86.5 15t81.5 2v26q0 87 -29 131t-98 44q-24 0 -48.5 -7.5t-40 -24.5t-15.5 -49q0 -20 10 -41.5t33 -29.5
q-9 -11 -22 -15.5t-26 -4.5q-35 0 -55 27t-20 61q0 59 52 89.5t139 30.5q104 0 152.5 -53t48.5 -163v-200q0 -53 36 -53q8 0 18 5t15 16q6 -8 8.5 -16.5t2.5 -14.5q0 -22 -20 -37t-50 -15zM206 45q29 0 59.5 17.5t56.5 46.5t42.5 66t16.5 77q-23 2 -51.5 0t-55.5 -7t-48 -13
q-44 -16 -69 -43.5t-25 -66.5q0 -30 17 -54.5t57 -22.5zM267 721q40 0 64.5 -22t24.5 -59q-1 -39 -26 -61.5t-67 -22.5q-40 0 -64.5 22t-24.5 58q0 39 26 62t67 23zM265 692q-21 0 -34 -14t-13 -40q0 -25 13 -39.5t34 -14.5q22 0 34.5 14.5t12.5 39.5q0 26 -12.5 40
t-34.5 14z" />
    <glyph glyph-name="ae" unicode="&#xe6;" horiz-adv-x="849" 
d="M170 -11q-59 0 -92 31.5t-33 84.5q0 41 21.5 73t59 54t85.5 35q42 11 86.5 15t83.5 2v26q0 87 -29.5 131t-97.5 44q-25 0 -50 -7.5t-40.5 -24.5t-15.5 -49q0 -20 10 -41.5t33 -29.5q-9 -11 -22 -15.5t-26 -4.5q-35 0 -55 27t-20 61q0 59 52 89.5t141 30.5
q70 0 112.5 -28.5t61.5 -83.5l-12 1q27 53 77 82t121 29q53 0 94 -16.5t64.5 -48.5t23.5 -79q0 -75 -60.5 -113.5t-166.5 -38.5q-30 0 -56.5 2t-51.5 5q4 -72 27 -113.5t60 -59t80 -17.5q54 0 95 22.5t55 64.5q10 -4 14.5 -14.5t-5.5 -35.5q-19 -45 -67 -68.5t-111 -23.5
q-90 0 -149 47.5t-77 138.5l8 -1q-20 -55 -54.5 -96t-79 -64t-94.5 -23zM206 45q29 0 59 16.5t55.5 44.5t42.5 63.5t19 75.5v13.5v10.5l13 -17q-25 2 -56 0.5t-61 -6.5t-52 -14q-44 -16 -69 -43.5t-25 -66.5q0 -30 17 -54.5t57 -22.5zM545 261q36 0 67 6t55 20t37.5 38.5
t13.5 61.5q0 39 -15 60t-38 29.5t-48 8.5q-66 0 -107 -55t-43 -163q18 -2 39.5 -4t38.5 -2z" />
    <glyph glyph-name="ccedilla" unicode="&#xe7;" horiz-adv-x="505" 
d="M276 -13q-109 0 -170.5 67.5t-61.5 196.5q0 125 62.5 197.5t176.5 72.5q83 0 126.5 -35.5t43.5 -91.5q0 -35 -18 -56t-48 -21q-13 0 -26 4t-21 15q17 7 25 24t8 40q0 30 -13.5 49t-35.5 28t-48 9q-65 0 -106 -56.5t-41 -166.5q0 -81 23 -130t61 -70t84 -21q36 0 66 11.5
t51.5 35t29.5 58.5q10 -4 14 -15.5t-4 -36.5q-16 -53 -64 -80.5t-114 -27.5zM294 8l-11 -56q45 0 70 -19.5t25 -53.5q0 -38 -28.5 -62t-75.5 -24q-37 0 -57.5 10.5t-30.5 21.5q-2 8 2.5 18t9.5 13q6 -5 19.5 -14t40.5 -9q23 0 36.5 11.5t13.5 33.5q0 21 -15.5 35t-56.5 10
l16 85h42z" />
    <glyph glyph-name="egrave" unicode="&#xe8;" horiz-adv-x="511" 
d="M278 -13q-108 0 -171 67.5t-63 196.5q0 125 61.5 197.5t176.5 72.5q54 0 95 -16.5t64.5 -48.5t23.5 -79q0 -75 -60.5 -113.5t-166.5 -38.5q-42 0 -80 3.5t-77 11.5l2 33q25 -5 58.5 -8t65.5 -4q35 0 66.5 6t55.5 20t37.5 38.5t13.5 61.5q0 39 -15 60t-38 29.5t-48 8.5
q-67 0 -108.5 -56.5t-41.5 -167.5q0 -83 22.5 -130.5t60.5 -68t85 -20.5q54 0 95 22.5t55 64.5q10 -4 14.5 -14.5t-5.5 -35.5q-19 -45 -67 -68.5t-111 -23.5zM127 701q7 5 21 9.5t30.5 7.5t28.5 2l90 -150q-3 -4 -15 -5.5t-20 -1.5z" />
    <glyph glyph-name="eacute" unicode="&#xe9;" horiz-adv-x="511" 
d="M278 -13q-108 0 -171 67.5t-63 196.5q0 125 61.5 197.5t176.5 72.5q54 0 95 -16.5t64.5 -48.5t23.5 -79q0 -75 -60.5 -113.5t-166.5 -38.5q-42 0 -80 3.5t-77 11.5l2 33q25 -5 58.5 -8t65.5 -4q35 0 66.5 6t55.5 20t37.5 38.5t13.5 61.5q0 39 -15 60t-38 29.5t-48 8.5
q-67 0 -108.5 -56.5t-41.5 -167.5q0 -83 22.5 -130.5t60.5 -68t85 -20.5q54 0 95 22.5t55 64.5q10 -4 14.5 -14.5t-5.5 -35.5q-19 -45 -67 -68.5t-111 -23.5zM409 701l-134 -138q-8 0 -20 1.5t-16 5.5l91 150q12 1 28.5 -2t30.5 -7.5t20 -9.5z" />
    <glyph glyph-name="ecircumflex" unicode="&#xea;" horiz-adv-x="511" 
d="M278 -13q-108 0 -171 67.5t-63 196.5q0 125 61.5 197.5t176.5 72.5q54 0 95 -16.5t64.5 -48.5t23.5 -79q0 -75 -60.5 -113.5t-166.5 -38.5q-42 0 -80 3.5t-77 11.5l2 33q25 -5 58.5 -8t65.5 -4q35 0 66.5 6t55.5 20t37.5 38.5t13.5 61.5q0 39 -15 60t-38 29.5t-48 8.5
q-67 0 -108.5 -56.5t-41.5 -167.5q0 -83 22.5 -130.5t60.5 -68t85 -20.5q54 0 95 22.5t55 64.5q10 -4 14.5 -14.5t-5.5 -35.5q-19 -45 -67 -68.5t-111 -23.5zM154 562q-6 0 -18 3.5t-14 7.5l120 137q6 2 16 3t19.5 0t15.5 -3l120 -137q-3 -4 -14.5 -7.5t-17.5 -3.5l-113 87z
" />
    <glyph glyph-name="edieresis" unicode="&#xeb;" horiz-adv-x="511" 
d="M278 -13q-108 0 -171 67.5t-63 196.5q0 125 61.5 197.5t176.5 72.5q54 0 95 -16.5t64.5 -48.5t23.5 -79q0 -75 -60.5 -113.5t-166.5 -38.5q-42 0 -80 3.5t-77 11.5l2 33q25 -5 58.5 -8t65.5 -4q35 0 66.5 6t55.5 20t37.5 38.5t13.5 61.5q0 39 -15 60t-38 29.5t-48 8.5
q-67 0 -108.5 -56.5t-41.5 -167.5q0 -83 22.5 -130.5t60.5 -68t85 -20.5q54 0 95 22.5t55 64.5q10 -4 14.5 -14.5t-5.5 -35.5q-19 -45 -67 -68.5t-111 -23.5zM185 586q-19 0 -33.5 14t-14.5 33q0 20 14.5 33.5t33.5 13.5t33 -14t14 -33t-14 -33t-33 -14zM358 586
q-18 0 -32 14t-14 33q0 20 14 33.5t32 13.5q20 0 34 -14t14 -33t-14 -33t-34 -14z" />
    <glyph glyph-name="igrave" unicode="&#xec;" horiz-adv-x="247" 
d="M163 114q0 -29 2.5 -57t9.5 -50q-6 -5 -17.5 -11.5t-28.5 -6.5q-19 0 -32 12t-13 32l-1 363q0 29 -2.5 57t-9.5 50q6 5 17 11.5t28 6.5q20 0 32.5 -11.5t12.5 -32.5zM-27 701q7 5 21 9.5t30.5 7.5t28.5 2l91 -150q-4 -4 -16 -5.5t-20 -1.5z" />
    <glyph glyph-name="iacute" unicode="&#xed;" horiz-adv-x="247" 
d="M163 114q0 -29 2.5 -57t9.5 -50q-6 -5 -17.5 -11.5t-28.5 -6.5q-19 0 -32 12t-13 32l-1 363q0 29 -2.5 57t-9.5 50q6 5 17 11.5t28 6.5q20 0 32.5 -11.5t12.5 -32.5zM255 701l-134 -138q-8 0 -20 1.5t-16 5.5l91 150q12 1 28.5 -2t30.5 -7.5t20 -9.5z" />
    <glyph glyph-name="icircumflex" unicode="&#xee;" horiz-adv-x="247" 
d="M163 114q0 -29 2.5 -57t9.5 -50q-6 -5 -17.5 -11.5t-28.5 -6.5q-19 0 -32 12t-13 32l-1 363q0 29 -2.5 57t-9.5 50q6 5 17 11.5t28 6.5q20 0 32.5 -11.5t12.5 -32.5zM0 562q-6 0 -18 3.5t-14 7.5l120 137q6 2 16 3t19.5 0t15.5 -3l120 -137q-3 -4 -14.5 -7.5t-17.5 -3.5
l-113 87z" />
    <glyph glyph-name="idieresis" unicode="&#xef;" horiz-adv-x="247" 
d="M163 114q0 -29 2.5 -57t9.5 -50q-6 -5 -17.5 -11.5t-28.5 -6.5q-19 0 -32 12t-13 32l-1 363q0 29 -2.5 57t-9.5 50q6 5 17 11.5t28 6.5q20 0 32.5 -11.5t12.5 -32.5zM32 586q-19 0 -33.5 14t-14.5 33q0 20 14.5 33.5t33.5 13.5t33 -14t14 -33t-14 -33t-33 -14zM205 586
q-18 0 -32 14t-14 33q0 20 14 33.5t32 13.5q20 0 34 -14t14 -33t-14 -33t-34 -14z" />
    <glyph glyph-name="eth" unicode="&#xf0;" horiz-adv-x="521" 
d="M252 -13q-65 0 -106 23t-63 60t-30.5 81t-8.5 87q0 76 24.5 134.5t71 92.5t113.5 34q41 0 73.5 -12.5t53.5 -35.5t26 -55l-16 -2q-2 61 -23.5 112t-54.5 89.5t-71.5 59t-73.5 20.5q-8 0 -14.5 -0.5t-9.5 -0.5q0 13 5 26t17 22t31 9q67 0 119.5 -35t88.5 -96t54.5 -141
t18.5 -170q0 -85 -23 -154t-72.5 -108.5t-129.5 -39.5zM254 36q49 0 78.5 28.5t43.5 81.5t14 125q0 34 -5.5 66.5t-19 58.5t-36.5 41.5t-60 15.5q-46 0 -77 -26.5t-47 -72.5t-16 -108q0 -41 5.5 -78.5t19 -67t38 -47t62.5 -17.5zM214 584l216 123q18 -9 19 -33l-217 -122
q-17 11 -18 32z" />
    <glyph glyph-name="ntilde" unicode="&#xf1;" horiz-adv-x="574" 
d="M139 -11q-21 0 -34 13t-13 35v369q-1 29 -7 40.5t-21 11.5q-5 0 -13 -3t-13 -13q-12 15 -12 32q0 20 16 33t44 13q38 0 58 -25.5t20 -77.5v-70l-15 -18q6 60 30.5 103t65 66t91.5 23q83 0 122 -53t39 -155v-199q1 -26 3.5 -55.5t9.5 -51.5q-8 -7 -19 -12.5t-27 -5.5
q-20 0 -33.5 12t-13.5 32v270q-1 84 -23.5 127.5t-80.5 43.5q-25 0 -49.5 -12t-45.5 -39.5t-34 -72.5t-13 -109q0 -60 0.5 -99t1.5 -64t4 -41t8 -30q-6 -5 -17.5 -11.5t-28.5 -6.5zM437 667q-6 -37 -26.5 -61.5t-53.5 -24.5q-25 0 -44 12t-37 24t-41 12t-38 -12t-22 -31
q-5 -1 -11.5 2t-11.5 7q7 46 32.5 65.5t54.5 19.5q27 0 45.5 -12.5t37.5 -24t42 -11.5t33.5 12.5t17.5 31.5q7 0 12.5 -2t9.5 -7z" />
    <glyph glyph-name="ograve" unicode="&#xf2;" horiz-adv-x="547" 
d="M273 -13q-108 0 -168.5 70.5t-60.5 196.5t60.5 196.5t168.5 70.5q109 0 169.5 -70.5t60.5 -196.5t-60.5 -196.5t-169.5 -70.5zM273 23q70 0 107 60t37 171t-37 170.5t-107 59.5q-69 0 -106.5 -59.5t-37.5 -170.5t37.5 -171t106.5 -60zM131 701q6 5 20 9.5t30.5 7.5
t28.5 2l91 -150q-3 -4 -15 -5.5t-21 -1.5z" />
    <glyph glyph-name="oacute" unicode="&#xf3;" horiz-adv-x="547" 
d="M273 -13q-108 0 -168.5 70.5t-60.5 196.5t60.5 196.5t168.5 70.5q109 0 169.5 -70.5t60.5 -196.5t-60.5 -196.5t-169.5 -70.5zM273 23q70 0 107 60t37 171t-37 170.5t-107 59.5q-69 0 -106.5 -59.5t-37.5 -170.5t37.5 -171t106.5 -60zM412 701l-134 -138q-8 0 -20 1.5
t-16 5.5l91 150q12 1 28.5 -2t30.5 -7.5t20 -9.5z" />
    <glyph glyph-name="ocircumflex" unicode="&#xf4;" horiz-adv-x="547" 
d="M273 -13q-108 0 -168.5 70.5t-60.5 196.5t60.5 196.5t168.5 70.5q109 0 169.5 -70.5t60.5 -196.5t-60.5 -196.5t-169.5 -70.5zM273 23q70 0 107 60t37 171t-37 170.5t-107 59.5q-69 0 -106.5 -59.5t-37.5 -170.5t37.5 -171t106.5 -60zM158 562q-6 0 -18 3.5t-14 7.5
l120 137q6 2 16 3t19.5 0t15.5 -3l120 -137q-3 -4 -14.5 -7.5t-17.5 -3.5l-113 87z" />
    <glyph glyph-name="otilde" unicode="&#xf5;" horiz-adv-x="547" 
d="M273 -13q-108 0 -168.5 70.5t-60.5 196.5t60.5 196.5t168.5 70.5q109 0 169.5 -70.5t60.5 -196.5t-60.5 -196.5t-169.5 -70.5zM273 23q70 0 107 60t37 171t-37 170.5t-107 59.5q-69 0 -106.5 -59.5t-37.5 -170.5t37.5 -171t106.5 -60zM414 667q-6 -37 -26.5 -61.5
t-53.5 -24.5q-25 0 -44 12t-37 24t-41 12t-38 -12t-22 -31q-5 -1 -11.5 2t-11.5 7q7 46 32.5 65.5t54.5 19.5q27 0 45.5 -12.5t37.5 -24t42 -11.5t33.5 12.5t17.5 31.5q7 0 12.5 -2t9.5 -7z" />
    <glyph glyph-name="odieresis" unicode="&#xf6;" horiz-adv-x="547" 
d="M273 -13q-108 0 -168.5 70.5t-60.5 196.5t60.5 196.5t168.5 70.5q109 0 169.5 -70.5t60.5 -196.5t-60.5 -196.5t-169.5 -70.5zM273 23q70 0 107 60t37 171t-37 170.5t-107 59.5q-69 0 -106.5 -59.5t-37.5 -170.5t37.5 -171t106.5 -60zM189 586q-19 0 -33.5 14t-14.5 33
q0 20 14.5 33.5t33.5 13.5t33 -14t14 -33t-14 -33t-33 -14zM362 586q-18 0 -32 14t-14 33q0 20 14 33.5t32 13.5q20 0 34 -14t14 -33t-14 -33t-34 -14z" />
    <glyph glyph-name="divide" unicode="&#xf7;" horiz-adv-x="550" 
d="M77 374h395q10 -24 0 -49h-395q-9 25 0 49zM275 471q-17 0 -29.5 12.5t-12.5 29.5q0 19 12.5 31t29.5 12q18 0 30.5 -12t12.5 -31q0 -17 -12.5 -29.5t-30.5 -12.5zM275 144q-17 0 -29.5 12.5t-12.5 29.5q0 18 12.5 30t29.5 12q18 0 30.5 -12t12.5 -30q0 -17 -12.5 -29.5
t-30.5 -12.5z" />
    <glyph glyph-name="oslash" unicode="&#xf8;" horiz-adv-x="547" 
d="M449 501l-21 -35q36 -34 55.5 -87.5t19.5 -124.5q0 -126 -60.5 -196.5t-169.5 -70.5q-70 0 -121 31l-21 -34q-23 1 -32 18l23 37q-78 70 -78 215q0 126 60.5 196.5t168.5 70.5q73 0 125 -33l19 31q22 0 32 -18zM129 254q0 -47 9 -84t26 -64l202 331q-17 24 -40 35.5
t-53 11.5q-69 0 -106.5 -59.5t-37.5 -170.5zM273 23q70 0 107 60t37 171q0 44 -8.5 80t-24.5 62l-202 -329q35 -44 91 -44z" />
    <glyph glyph-name="ugrave" unicode="&#xf9;" horiz-adv-x="566" 
d="M428 521q20 0 33 -12.5t13 -35.5l1 -370q0 -28 6.5 -39.5t21.5 -11.5q5 0 13 3t13 12q12 -15 12 -31q0 -20 -15.5 -33t-44.5 -13q-38 0 -58 25.5t-20 76.5v71l15 18q-6 -61 -30.5 -104t-63.5 -66.5t-89 -23.5q-80 0 -118 47t-39 163v198q0 27 -2.5 56t-10.5 52
q9 6 19.5 12t27.5 6q20 0 32.5 -11.5t12.5 -33.5l1 -269q0 -63 9.5 -102t31.5 -56.5t59 -17.5q24 0 48 13t44.5 41t33 73.5t12.5 110.5q0 60 -0.5 99t-1.5 63.5t-4 41t-8 30.5q6 5 17.5 11.5t28.5 6.5zM126 701q7 5 20.5 9.5t30 7.5t29.5 2l90 -150q-3 -4 -15 -5.5t-20 -1.5
z" />
    <glyph glyph-name="uacute" unicode="&#xfa;" horiz-adv-x="566" 
d="M428 521q20 0 33 -12.5t13 -35.5l1 -370q0 -28 6.5 -39.5t21.5 -11.5q5 0 13 3t13 12q12 -15 12 -31q0 -20 -15.5 -33t-44.5 -13q-38 0 -58 25.5t-20 76.5v71l15 18q-6 -61 -30.5 -104t-63.5 -66.5t-89 -23.5q-80 0 -118 47t-39 163v198q0 27 -2.5 56t-10.5 52
q9 6 19.5 12t27.5 6q20 0 32.5 -11.5t12.5 -33.5l1 -269q0 -63 9.5 -102t31.5 -56.5t59 -17.5q24 0 48 13t44.5 41t33 73.5t12.5 110.5q0 60 -0.5 99t-1.5 63.5t-4 41t-8 30.5q6 5 17.5 11.5t28.5 6.5zM408 701l-134 -138q-8 0 -20 1.5t-16 5.5l91 150q12 1 28.5 -2
t30.5 -7.5t20 -9.5z" />
    <glyph glyph-name="ucircumflex" unicode="&#xfb;" horiz-adv-x="566" 
d="M428 521q20 0 33 -12.5t13 -35.5l1 -370q0 -28 6.5 -39.5t21.5 -11.5q5 0 13 3t13 12q12 -15 12 -31q0 -20 -15.5 -33t-44.5 -13q-38 0 -58 25.5t-20 76.5v71l15 18q-6 -61 -30.5 -104t-63.5 -66.5t-89 -23.5q-80 0 -118 47t-39 163v198q0 27 -2.5 56t-10.5 52
q9 6 19.5 12t27.5 6q20 0 32.5 -11.5t12.5 -33.5l1 -269q0 -63 9.5 -102t31.5 -56.5t59 -17.5q24 0 48 13t44.5 41t33 73.5t12.5 110.5q0 60 -0.5 99t-1.5 63.5t-4 41t-8 30.5q6 5 17.5 11.5t28.5 6.5zM153 562q-6 0 -18 3.5t-14 7.5l120 137q6 2 16 3t19.5 0t15.5 -3
l120 -137q-3 -4 -14.5 -7.5t-17.5 -3.5l-113 87z" />
    <glyph glyph-name="udieresis" unicode="&#xfc;" horiz-adv-x="566" 
d="M428 521q20 0 33 -12.5t13 -35.5l1 -370q0 -28 6.5 -39.5t21.5 -11.5q5 0 13 3t13 12q12 -15 12 -31q0 -20 -15.5 -33t-44.5 -13q-38 0 -58 25.5t-20 76.5v71l15 18q-6 -61 -30.5 -104t-63.5 -66.5t-89 -23.5q-80 0 -118 47t-39 163v198q0 27 -2.5 56t-10.5 52
q9 6 19.5 12t27.5 6q20 0 32.5 -11.5t12.5 -33.5l1 -269q0 -63 9.5 -102t31.5 -56.5t59 -17.5q24 0 48 13t44.5 41t33 73.5t12.5 110.5q0 60 -0.5 99t-1.5 63.5t-4 41t-8 30.5q6 5 17.5 11.5t28.5 6.5zM184 586q-19 0 -33.5 14t-14.5 33q0 20 14.5 33.5t33.5 13.5t33 -14
t14 -33t-14 -33t-33 -14zM357 586q-18 0 -32 14t-14 33q0 20 14 33.5t32 13.5q20 0 34 -14t14 -33t-14 -33t-34 -14z" />
    <glyph glyph-name="yacute" unicode="&#xfd;" horiz-adv-x="546" 
d="M240 -233q-43 0 -82 10.5t-64 34t-25 63.5q0 28 16.5 47t43.5 19t39 -15q-15 -9 -20 -23t-5 -24q0 -28 14.5 -45t36.5 -25t46 -8q83 0 121.5 63t38.5 184q0 17 1 39.5t3 45t3 42.5l11 16q-10 -92 -57.5 -146t-130.5 -54q-75 0 -113 47.5t-39 162.5v194q0 28 -2.5 56.5
t-10.5 51.5q9 6 19.5 12t27.5 6q20 0 32.5 -11.5t12.5 -33.5l1 -265q0 -91 21 -133t72 -42q28 0 53.5 13t46.5 41t33 73.5t12 110.5q0 59 -0.5 97t-1.5 62t-4 40t-8 30q6 5 17.5 11.5t28.5 6.5q20 0 33 -12.5t13 -35.5l1 -424q0 -105 -30.5 -167t-83.5 -88.5t-121 -26.5z
M417 701l-134 -138q-8 0 -20 1.5t-16 5.5l91 150q12 1 28.5 -2t30.5 -7.5t20 -9.5z" />
    <glyph glyph-name="thorn" unicode="&#xfe;" horiz-adv-x="553" 
d="M129 -224q-21 0 -34 11.5t-13 32.5v866q0 21 10.5 32t28.5 12t32 -6t21 -12q-8 -27 -11 -63.5t-4 -92.5v-257l-23 -11q6 50 21.5 92.5t40.5 74t59.5 49t79.5 17.5q53 0 87 -23t52.5 -59.5t25.5 -79t7 -81.5q0 -138 -55 -213.5t-156 -75.5q-50 0 -85.5 20t-50.5 58v-122
q0 -21 1 -49t4 -55.5t8 -46.5q-6 -5 -17.5 -11.5t-28.5 -6.5zM280 36q71 0 107.5 60.5t36.5 180.5q0 34 -4 69t-14.5 63t-32 45.5t-57.5 17.5q-37 0 -65.5 -21t-48 -57.5t-30 -83.5t-10.5 -99q0 -36 5.5 -67.5t18 -55.5t36 -38t58.5 -14z" />
    <glyph glyph-name="ydieresis" unicode="&#xff;" horiz-adv-x="546" 
d="M240 -233q-43 0 -82 10.5t-64 34t-25 63.5q0 28 16.5 47t43.5 19t39 -15q-15 -9 -20 -23t-5 -24q0 -28 14.5 -45t36.5 -25t46 -8q83 0 121.5 63t38.5 184q0 17 1 39.5t3 45t3 42.5l11 16q-10 -92 -57.5 -146t-130.5 -54q-75 0 -113 47.5t-39 162.5v194q0 28 -2.5 56.5
t-10.5 51.5q9 6 19.5 12t27.5 6q20 0 32.5 -11.5t12.5 -33.5l1 -265q0 -91 21 -133t72 -42q28 0 53.5 13t46.5 41t33 73.5t12 110.5q0 59 -0.5 97t-1.5 62t-4 40t-8 30q6 5 17.5 11.5t28.5 6.5q20 0 33 -12.5t13 -35.5l1 -424q0 -105 -30.5 -167t-83.5 -88.5t-121 -26.5z
M194 586q-19 0 -33.5 14t-14.5 33q0 20 14.5 33.5t33.5 13.5t33 -14t14 -33t-14 -33t-33 -14zM367 586q-18 0 -32 14t-14 33q0 20 14 33.5t32 13.5q20 0 34 -14t14 -33t-14 -33t-34 -14z" />
    <glyph glyph-name="Amacron" unicode="&#x100;" horiz-adv-x="592" 
d="M319 706q17 0 30.5 -6.5t17.5 -23.5l201 -621q4 -12 10 -24.5t14 -22.5q-6 -7 -17 -13t-30 -6q-18 0 -32.5 8t-17.5 25l-201 652l13 -1l-186 -620q-2 -8 -4 -16.5t-2 -16.5q0 -7 1.5 -13t4.5 -10q-9 -3 -19 -5.5t-25 -2.5q-22 0 -34 9t-11 28q0 8 3 20.5t6 24.5l212 622
q33 13 66 13zM154 268h317v-48h-317v48zM179 816h257q8 -22 0 -44h-257q-8 22 0 44z" />
    <glyph glyph-name="amacron" unicode="&#x101;" horiz-adv-x="550" 
d="M470 -10q-43 0 -65 29.5t-22 94.5v89l19 -9q-17 -60 -51.5 -106.5t-80.5 -72.5t-100 -26q-59 0 -92 31.5t-33 84.5q0 41 21.5 73t59 54t85.5 35q42 11 86.5 15t81.5 2v26q0 87 -29 131t-98 44q-24 0 -48.5 -7.5t-40 -24.5t-15.5 -49q0 -20 10 -41.5t33 -29.5
q-9 -11 -22 -15.5t-26 -4.5q-35 0 -55 27t-20 61q0 59 52 89.5t139 30.5q104 0 152.5 -53t48.5 -163v-200q0 -53 36 -53q8 0 18 5t15 16q6 -8 8.5 -16.5t2.5 -14.5q0 -22 -20 -37t-50 -15zM206 45q29 0 59.5 17.5t56.5 46.5t42.5 66t16.5 77q-23 2 -51.5 0t-55.5 -7t-48 -13
q-44 -16 -69 -43.5t-25 -66.5q0 -30 17 -54.5t57 -22.5zM134 643h257q8 -22 0 -43h-257q-8 21 0 43z" />
    <glyph glyph-name="Abreve" unicode="&#x102;" horiz-adv-x="592" 
d="M319 706q17 0 30.5 -6.5t17.5 -23.5l201 -621q4 -12 10 -24.5t14 -22.5q-6 -7 -17 -13t-30 -6q-18 0 -32.5 8t-17.5 25l-201 652l13 -1l-186 -620q-2 -8 -4 -16.5t-2 -16.5q0 -7 1.5 -13t4.5 -10q-9 -3 -19 -5.5t-25 -2.5q-22 0 -34 9t-11 28q0 8 3 20.5t6 24.5l212 622
q33 13 66 13zM154 268h317v-48h-317v48zM439 850q-9 -31 -26.5 -57t-43.5 -41t-63 -15t-63 15.5t-42 41t-24 53.5q9 3 17.5 6.5t16.5 6.5q12 -32 38.5 -48.5t61.5 -16.5q37 0 61.5 18t35.5 46q9 -2 16 -4.5t15 -4.5z" />
    <glyph glyph-name="abreve" unicode="&#x103;" horiz-adv-x="550" 
d="M470 -10q-43 0 -65 29.5t-22 94.5v89l19 -9q-17 -60 -51.5 -106.5t-80.5 -72.5t-100 -26q-59 0 -92 31.5t-33 84.5q0 41 21.5 73t59 54t85.5 35q42 11 86.5 15t81.5 2v26q0 87 -29 131t-98 44q-24 0 -48.5 -7.5t-40 -24.5t-15.5 -49q0 -20 10 -41.5t33 -29.5
q-9 -11 -22 -15.5t-26 -4.5q-35 0 -55 27t-20 61q0 59 52 89.5t139 30.5q104 0 152.5 -53t48.5 -163v-200q0 -53 36 -53q8 0 18 5t15 16q6 -8 8.5 -16.5t2.5 -14.5q0 -22 -20 -37t-50 -15zM206 45q29 0 59.5 17.5t56.5 46.5t42.5 66t16.5 77q-23 2 -51.5 0t-55.5 -7t-48 -13
q-44 -16 -69 -43.5t-25 -66.5q0 -30 17 -54.5t57 -22.5zM264 625q31 0 52 12t35.5 30t21.5 36l16 -4t16 -6q-9 -33 -27 -61.5t-46.5 -46t-69.5 -17.5q-46 0 -76 19.5t-46.5 47.5t-23.5 56q9 6 17 9t16 4q9 -20 24 -38t37.5 -29.5t53.5 -11.5z" />
    <glyph glyph-name="Aogonek" unicode="&#x104;" horiz-adv-x="592" 
d="M319 706q17 0 30.5 -6.5t17.5 -23.5l201 -621q4 -12 10 -24.5t14 -22.5q-6 -7 -17 -13t-30 -6q-18 0 -32.5 8t-17.5 25l-201 652l13 -1l-186 -620q-2 -8 -4 -16.5t-2 -16.5q0 -7 1.5 -13t4.5 -10q-9 -3 -19 -5.5t-25 -2.5q-22 0 -34 9t-11 28q0 8 3 20.5t6 24.5l212 622
q33 13 66 13zM154 268h317v-48h-317v48zM532 -178q-21 0 -42 7.5t-35 24.5t-14 45q0 32 18.5 54.5t47.5 38t61 24.5l9 -19q-37 -18 -57.5 -38t-20.5 -51q0 -19 11.5 -33.5t38.5 -14.5q32 0 53 17.5t31 36.5q7 -4 10 -10t0 -16q-12 -28 -41.5 -47t-69.5 -19z" />
    <glyph glyph-name="aogonek" unicode="&#x105;" horiz-adv-x="550" 
d="M470 -10q-43 0 -65 29.5t-22 94.5v89l19 -9q-17 -60 -51.5 -106.5t-80.5 -72.5t-100 -26q-59 0 -92 31.5t-33 84.5q0 41 21.5 73t59 54t85.5 35q42 11 86.5 15t81.5 2v26q0 87 -29 131t-98 44q-24 0 -48.5 -7.5t-40 -24.5t-15.5 -49q0 -20 10 -41.5t33 -29.5
q-9 -11 -22 -15.5t-26 -4.5q-35 0 -55 27t-20 61q0 59 52 89.5t139 30.5q104 0 152.5 -53t48.5 -163v-200q0 -53 36 -53q8 0 18 5t15 16q6 -8 8.5 -16.5t2.5 -14.5q0 -22 -20 -37t-50 -15zM206 45q29 0 59.5 17.5t56.5 46.5t42.5 66t16.5 77q-23 2 -51.5 0t-55.5 -7t-48 -13
q-44 -16 -69 -43.5t-25 -66.5q0 -30 17 -54.5t57 -22.5zM463 -176q-21 0 -42 7.5t-35 24.5t-14 45q0 32 18.5 54.5t47.5 38t61 24.5l9 -19q-37 -18 -57.5 -38t-20.5 -51q0 -19 11.5 -33.5t38.5 -14.5q32 0 53 17.5t31 36.5q7 -4 10 -10t0 -16q-12 -28 -41.5 -47t-69.5 -19z
" />
    <glyph glyph-name="Cacute" unicode="&#x106;" horiz-adv-x="596" 
d="M547 113q0 -25 -18 -48t-49.5 -40.5t-72 -27.5t-83.5 -10q-125 0 -195 92.5t-70 266.5q0 175 71 267.5t199 92.5q40 0 76 -8t63.5 -21.5t43.5 -32t16 -39.5q0 -18 -17 -32.5t-48 -11.5q-8 53 -42.5 80.5t-90.5 27.5q-89 0 -135.5 -81.5t-46.5 -241.5t46 -241t134 -81
q36 0 67.5 14.5t54 43.5t30.5 71q17 2 32 -1.5t25 -12.5t10 -26zM474 818l-173 -82q-5 2 -10.5 11t-5.5 13l136 114q10 -4 20.5 -13.5t19.5 -20.5t13 -22z" />
    <glyph glyph-name="cacute" unicode="&#x107;" horiz-adv-x="505" 
d="M276 -13q-109 0 -170.5 67.5t-61.5 196.5q0 125 62.5 197.5t176.5 72.5q83 0 126.5 -35.5t43.5 -91.5q0 -35 -18 -56t-48 -21q-13 0 -26 4t-21 15q17 7 25 24t8 40q0 30 -13.5 49t-35.5 28t-48 9q-65 0 -106 -56.5t-41 -166.5q0 -81 23 -130t61 -70t84 -21q36 0 66 11.5
t51.5 35t29.5 58.5q10 -4 14 -15.5t-4 -36.5q-16 -53 -64 -80.5t-114 -27.5zM413 701l-134 -138q-8 0 -20 1.5t-16 5.5l91 150q12 1 28.5 -2t30.5 -7.5t20 -9.5z" />
    <glyph glyph-name="Ccircumflex" unicode="&#x108;" horiz-adv-x="596" 
d="M547 113q0 -25 -18 -48t-49.5 -40.5t-72 -27.5t-83.5 -10q-125 0 -195 92.5t-70 266.5q0 175 71 267.5t199 92.5q40 0 76 -8t63.5 -21.5t43.5 -32t16 -39.5q0 -18 -17 -32.5t-48 -11.5q-8 53 -42.5 80.5t-90.5 27.5q-89 0 -135.5 -81.5t-46.5 -241.5t46 -241t134 -81
q36 0 67.5 14.5t54 43.5t30.5 71q17 2 32 -1.5t25 -12.5t10 -26zM350 868l126 -114q-1 -4 -7.5 -12t-12.5 -10l-131 78l-132 -78q-5 2 -11.5 10t-8.5 12l126 114q6 2 16 2.5t19.5 0t15.5 -2.5z" />
    <glyph glyph-name="ccircumflex" unicode="&#x109;" horiz-adv-x="505" 
d="M276 -13q-109 0 -170.5 67.5t-61.5 196.5q0 125 62.5 197.5t176.5 72.5q83 0 126.5 -35.5t43.5 -91.5q0 -35 -18 -56t-48 -21q-13 0 -26 4t-21 15q17 7 25 24t8 40q0 30 -13.5 49t-35.5 28t-48 9q-65 0 -106 -56.5t-41 -166.5q0 -81 23 -130t61 -70t84 -21q36 0 66 11.5
t51.5 35t29.5 58.5q10 -4 14 -15.5t-4 -36.5q-16 -53 -64 -80.5t-114 -27.5zM158 562q-6 0 -18 3.5t-14 7.5l120 137q6 2 16 3t19.5 0t15.5 -3l120 -137q-3 -4 -14.5 -7.5t-17.5 -3.5l-113 87z" />
    <glyph glyph-name="Cdotaccent" unicode="&#x10a;" horiz-adv-x="596" 
d="M547 113q0 -25 -18 -48t-49.5 -40.5t-72 -27.5t-83.5 -10q-125 0 -195 92.5t-70 266.5q0 175 71 267.5t199 92.5q40 0 76 -8t63.5 -21.5t43.5 -32t16 -39.5q0 -18 -17 -32.5t-48 -11.5q-8 53 -42.5 80.5t-90.5 27.5q-89 0 -135.5 -81.5t-46.5 -241.5t46 -241t134 -81
q36 0 67.5 14.5t54 43.5t30.5 71q17 2 32 -1.5t25 -12.5t10 -26zM327 753q-20 0 -35.5 15t-15.5 36t15.5 36t35.5 15q21 0 36.5 -15t15.5 -36t-15.5 -36t-36.5 -15z" />
    <glyph glyph-name="cdotaccent" unicode="&#x10b;" horiz-adv-x="505" 
d="M276 -13q-109 0 -170.5 67.5t-61.5 196.5q0 125 62.5 197.5t176.5 72.5q83 0 126.5 -35.5t43.5 -91.5q0 -35 -18 -56t-48 -21q-13 0 -26 4t-21 15q17 7 25 24t8 40q0 30 -13.5 49t-35.5 28t-48 9q-65 0 -106 -56.5t-41 -166.5q0 -81 23 -130t61 -70t84 -21q36 0 66 11.5
t51.5 35t29.5 58.5q10 -4 14 -15.5t-4 -36.5q-16 -53 -64 -80.5t-114 -27.5zM273 573q-20 0 -35.5 15.5t-15.5 36.5t15.5 36t35.5 15q21 0 36 -15t15 -36t-15 -36.5t-36 -15.5z" />
    <glyph glyph-name="Ccaron" unicode="&#x10c;" horiz-adv-x="596" 
d="M547 113q0 -25 -18 -48t-49.5 -40.5t-72 -27.5t-83.5 -10q-125 0 -195 92.5t-70 266.5q0 175 71 267.5t199 92.5q40 0 76 -8t63.5 -21.5t43.5 -32t16 -39.5q0 -18 -17 -32.5t-48 -11.5q-8 53 -42.5 80.5t-90.5 27.5q-89 0 -135.5 -81.5t-46.5 -241.5t46 -241t134 -81
q36 0 67.5 14.5t54 43.5t30.5 71q17 2 32 -1.5t25 -12.5t10 -26zM352 741q-6 -2 -15.5 -2.5t-19.5 0t-16 2.5l-126 114q1 5 8 12.5t12 9.5l132 -78l131 78q6 -2 12.5 -9.5t7.5 -12.5z" />
    <glyph glyph-name="ccaron" unicode="&#x10d;" horiz-adv-x="505" 
d="M276 -13q-109 0 -170.5 67.5t-61.5 196.5q0 125 62.5 197.5t176.5 72.5q83 0 126.5 -35.5t43.5 -91.5q0 -35 -18 -56t-48 -21q-13 0 -26 4t-21 15q17 7 25 24t8 40q0 30 -13.5 49t-35.5 28t-48 9q-65 0 -106 -56.5t-41 -166.5q0 -81 23 -130t61 -70t84 -21q36 0 66 11.5
t51.5 35t29.5 58.5q10 -4 14 -15.5t-4 -36.5q-16 -53 -64 -80.5t-114 -27.5zM160 717l114 -87l113 87q6 0 17.5 -3.5t14.5 -7.5l-120 -138q-6 -2 -15.5 -2.5t-19.5 0.5t-16 2l-119 138q1 4 13 7.5t18 3.5z" />
    <glyph glyph-name="Dcaron" unicode="&#x10e;" horiz-adv-x="641" 
d="M141 0q-21 0 -33.5 12t-12.5 32l-2 533q0 30 -1 64t-9 56q27 3 65 4.5t76.5 2t66.5 0.5q139 0 214.5 -87.5t75.5 -265.5q0 -185 -75 -268t-211 -83h-154zM174 37h117q66 0 111 30.5t68 98.5t23 180q0 167 -51.5 243.5t-150.5 76.5h-118zM334 741q-6 -2 -15.5 -2.5
t-19.5 0t-16 2.5l-126 114q1 5 8 12.5t12 9.5l132 -78l131 78q6 -2 12.5 -9.5t7.5 -12.5z" />
    <glyph glyph-name="dcaron" unicode="&#x10f;" horiz-adv-x="616" 
d="M216 -13q-53 0 -86.5 22t-52 58.5t-26 79t-7.5 83.5q0 137 54 214t156 77q52 0 87.5 -21t50.5 -59l-1 134q0 38 -2.5 73.5t-10.5 63.5q6 5 17.5 11.5t28.5 6.5q20 0 33.5 -11.5t13.5 -32.5l-1 -581q0 -27 8.5 -39t22.5 -12q6 0 14 2.5t13 12.5q6 -8 8.5 -16.5t2.5 -15.5
q0 -20 -17.5 -32.5t-44.5 -12.5q-42 0 -62 33.5t-20 94.5v89l22 11q-7 -50 -22 -92.5t-40 -74t-59.5 -49t-79.5 -17.5zM236 36q37 0 65.5 21.5t48.5 58.5t30 85.5t10 102.5q0 30 -5 60.5t-18 55t-37.5 39.5t-62.5 15q-66 0 -102 -61t-36 -180q0 -37 4 -72t15 -63t32.5 -45
t55.5 -17zM540 589q4 33 1.5 73t-12.5 77q17 6 38 5.5t37 -5.5q1 -39 -6.5 -78t-18.5 -72h-39z" />
    <glyph glyph-name="Dcroat" unicode="&#x110;" horiz-adv-x="637" 
d="M24 367h300q7 -18 0 -37h-300q-7 19 0 37zM141 0q-21 0 -33.5 12t-12.5 32l-2 533q0 30 -1 64t-9 56q27 3 65 4.5t76.5 2t66.5 0.5q139 0 214.5 -87.5t75.5 -265.5q0 -185 -75 -268t-211 -83h-154zM174 37h117q66 0 111 30.5t68 98.5t23 180q0 167 -51.5 243.5
t-150.5 76.5h-118z" />
    <glyph glyph-name="dcroat" unicode="&#x111;" horiz-adv-x="568" 
d="M280 619h262q6 -18 0 -37h-262q-7 19 0 37zM216 -13q-53 0 -86.5 22t-52 58.5t-26 79t-7.5 83.5q0 137 54 214t156 77q52 0 87.5 -21t50.5 -59l-1 134q0 38 -2.5 73.5t-10.5 63.5q6 5 17.5 11.5t28.5 6.5q20 0 33.5 -11.5t13.5 -32.5l-1 -581q0 -27 8.5 -39t22.5 -12
q6 0 14 2.5t13 12.5q6 -8 8.5 -16.5t2.5 -15.5q0 -20 -17.5 -32.5t-44.5 -12.5q-42 0 -62 33.5t-20 94.5v89l22 11q-7 -50 -22 -92.5t-40 -74t-59.5 -49t-79.5 -17.5zM236 36q37 0 65.5 21.5t48.5 58.5t30 85.5t10 102.5q0 30 -5 60.5t-18 55t-37.5 39.5t-62.5 15
q-66 0 -102 -61t-36 -180q0 -37 4 -72t15 -63t32.5 -45t55.5 -17z" />
    <glyph glyph-name="Emacron" unicode="&#x112;" horiz-adv-x="537" 
d="M143 0q-20 0 -33 12t-13 33l-1 524q0 30 -2.5 55.5t-10.5 47.5q14 13 28.5 17t40.5 4h302q9 0 12.5 -9.5t1.5 -22.5t-8 -24t-14 -15q-65 11 -132 18t-138 8l1 -604q48 1 99.5 5.5t100 10.5t87.5 12q8 -5 12.5 -16.5t4.5 -24t-5 -22t-15 -9.5h-318zM161 340v48h261
q3 -12 3 -24.5t-3 -23.5h-261zM149 816h257q8 -22 0 -44h-257q-8 22 0 44z" />
    <glyph glyph-name="emacron" unicode="&#x113;" horiz-adv-x="511" 
d="M278 -13q-108 0 -171 67.5t-63 196.5q0 125 61.5 197.5t176.5 72.5q54 0 95 -16.5t64.5 -48.5t23.5 -79q0 -75 -60.5 -113.5t-166.5 -38.5q-42 0 -80 3.5t-77 11.5l2 33q25 -5 58.5 -8t65.5 -4q35 0 66.5 6t55.5 20t37.5 38.5t13.5 61.5q0 39 -15 60t-38 29.5t-48 8.5
q-67 0 -108.5 -56.5t-41.5 -167.5q0 -83 22.5 -130.5t60.5 -68t85 -20.5q54 0 95 22.5t55 64.5q10 -4 14.5 -14.5t-5.5 -35.5q-19 -45 -67 -68.5t-111 -23.5zM141 643h257q8 -22 0 -43h-257q-8 21 0 43z" />
    <glyph glyph-name="Ebreve" unicode="&#x114;" horiz-adv-x="537" 
d="M143 0q-20 0 -33 12t-13 33l-1 524q0 30 -2.5 55.5t-10.5 47.5q14 13 28.5 17t40.5 4h302q9 0 12.5 -9.5t1.5 -22.5t-8 -24t-14 -15q-65 11 -132 18t-138 8l1 -604q48 1 99.5 5.5t100 10.5t87.5 12q8 -5 12.5 -16.5t4.5 -24t-5 -22t-15 -9.5h-318zM161 340v48h261
q3 -12 3 -24.5t-3 -23.5h-261zM409 850q-9 -31 -26.5 -57t-43.5 -41t-63 -15t-63 15.5t-42 41t-24 53.5q9 3 17.5 6.5t16.5 6.5q12 -32 38.5 -48.5t61.5 -16.5q37 0 61.5 18t35.5 46q9 -2 16 -4.5t15 -4.5z" />
    <glyph glyph-name="ebreve" unicode="&#x115;" horiz-adv-x="511" 
d="M278 -13q-108 0 -171 67.5t-63 196.5q0 125 61.5 197.5t176.5 72.5q54 0 95 -16.5t64.5 -48.5t23.5 -79q0 -75 -60.5 -113.5t-166.5 -38.5q-42 0 -80 3.5t-77 11.5l2 33q25 -5 58.5 -8t65.5 -4q35 0 66.5 6t55.5 20t37.5 38.5t13.5 61.5q0 39 -15 60t-38 29.5t-48 8.5
q-67 0 -108.5 -56.5t-41.5 -167.5q0 -83 22.5 -130.5t60.5 -68t85 -20.5q54 0 95 22.5t55 64.5q10 -4 14.5 -14.5t-5.5 -35.5q-19 -45 -67 -68.5t-111 -23.5zM271 625q31 0 52 12t35.5 30t21.5 36l16 -4t16 -6q-9 -33 -27 -61.5t-46.5 -46t-69.5 -17.5q-46 0 -76 19.5
t-46.5 47.5t-23.5 56q9 6 17 9t16 4q9 -20 24 -38t37.5 -29.5t53.5 -11.5z" />
    <glyph glyph-name="Edotaccent" unicode="&#x116;" horiz-adv-x="537" 
d="M143 0q-20 0 -33 12t-13 33l-1 524q0 30 -2.5 55.5t-10.5 47.5q14 13 28.5 17t40.5 4h302q9 0 12.5 -9.5t1.5 -22.5t-8 -24t-14 -15q-65 11 -132 18t-138 8l1 -604q48 1 99.5 5.5t100 10.5t87.5 12q8 -5 12.5 -16.5t4.5 -24t-5 -22t-15 -9.5h-318zM161 340v48h261
q3 -12 3 -24.5t-3 -23.5h-261zM277 753q-20 0 -35.5 15t-15.5 36t15.5 36t35.5 15q21 0 36.5 -15t15.5 -36t-15.5 -36t-36.5 -15z" />
    <glyph glyph-name="edotaccent" unicode="&#x117;" horiz-adv-x="511" 
d="M278 -13q-108 0 -171 67.5t-63 196.5q0 125 61.5 197.5t176.5 72.5q54 0 95 -16.5t64.5 -48.5t23.5 -79q0 -75 -60.5 -113.5t-166.5 -38.5q-42 0 -80 3.5t-77 11.5l2 33q25 -5 58.5 -8t65.5 -4q35 0 66.5 6t55.5 20t37.5 38.5t13.5 61.5q0 39 -15 60t-38 29.5t-48 8.5
q-67 0 -108.5 -56.5t-41.5 -167.5q0 -83 22.5 -130.5t60.5 -68t85 -20.5q54 0 95 22.5t55 64.5q10 -4 14.5 -14.5t-5.5 -35.5q-19 -45 -67 -68.5t-111 -23.5zM268 573q-20 0 -35.5 15.5t-15.5 36.5t15.5 36t35.5 15q21 0 36 -15t15 -36t-15 -36.5t-36 -15.5z" />
    <glyph glyph-name="Eogonek" unicode="&#x118;" horiz-adv-x="537" 
d="M143 0q-20 0 -33 12t-13 33l-1 524q0 30 -2.5 55.5t-10.5 47.5q14 13 28.5 17t40.5 4h302q9 0 12.5 -9.5t1.5 -22.5t-8 -24t-14 -15q-65 11 -132 18t-138 8l1 -604q48 1 99.5 5.5t100 10.5t87.5 12q8 -5 12.5 -16.5t4.5 -24t-5 -22t-15 -9.5h-318zM161 340v48h261
q3 -12 3 -24.5t-3 -23.5h-261zM387 -174q-21 0 -42 7.5t-35 24.5t-14 45q0 32 18.5 54.5t47.5 38t61 24.5l9 -19q-37 -18 -57.5 -38t-20.5 -51q0 -19 11.5 -33.5t38.5 -14.5q32 0 53 17.5t31 36.5q7 -4 10 -10t0 -16q-12 -28 -41.5 -47t-69.5 -19z" />
    <glyph glyph-name="eogonek" unicode="&#x119;" horiz-adv-x="511" 
d="M278 -13q-108 0 -171 67.5t-63 196.5q0 125 61.5 197.5t176.5 72.5q54 0 95 -16.5t64.5 -48.5t23.5 -79q0 -75 -60.5 -113.5t-166.5 -38.5q-42 0 -80 3.5t-77 11.5l2 33q25 -5 58.5 -8t65.5 -4q35 0 66.5 6t55.5 20t37.5 38.5t13.5 61.5q0 39 -15 60t-38 29.5t-48 8.5
q-67 0 -108.5 -56.5t-41.5 -167.5q0 -83 22.5 -130.5t60.5 -68t85 -20.5q54 0 95 22.5t55 64.5q10 -4 14.5 -14.5t-5.5 -35.5q-19 -45 -67 -68.5t-111 -23.5zM353 -159q-21 0 -42 7.5t-35 24.5t-14 45q0 32 18.5 54.5t47.5 38t61 24.5l9 -19q-37 -18 -57.5 -38t-20.5 -51
q0 -19 11.5 -33.5t38.5 -14.5q32 0 53 17.5t31 36.5q7 -4 10 -10t0 -16q-12 -28 -41.5 -47t-69.5 -19z" />
    <glyph glyph-name="Ecaron" unicode="&#x11a;" horiz-adv-x="537" 
d="M143 0q-20 0 -33 12t-13 33l-1 524q0 30 -2.5 55.5t-10.5 47.5q14 13 28.5 17t40.5 4h302q9 0 12.5 -9.5t1.5 -22.5t-8 -24t-14 -15q-65 11 -132 18t-138 8l1 -604q48 1 99.5 5.5t100 10.5t87.5 12q8 -5 12.5 -16.5t4.5 -24t-5 -22t-15 -9.5h-318zM161 340v48h261
q3 -12 3 -24.5t-3 -23.5h-261zM303 741q-6 -2 -15.5 -2.5t-19.5 0t-16 2.5l-126 114q1 5 8 12.5t12 9.5l132 -78l131 78q6 -2 12.5 -9.5t7.5 -12.5z" />
    <glyph glyph-name="ecaron" unicode="&#x11b;" horiz-adv-x="511" 
d="M278 -13q-108 0 -171 67.5t-63 196.5q0 125 61.5 197.5t176.5 72.5q54 0 95 -16.5t64.5 -48.5t23.5 -79q0 -75 -60.5 -113.5t-166.5 -38.5q-42 0 -80 3.5t-77 11.5l2 33q25 -5 58.5 -8t65.5 -4q35 0 66.5 6t55.5 20t37.5 38.5t13.5 61.5q0 39 -15 60t-38 29.5t-48 8.5
q-67 0 -108.5 -56.5t-41.5 -167.5q0 -83 22.5 -130.5t60.5 -68t85 -20.5q54 0 95 22.5t55 64.5q10 -4 14.5 -14.5t-5.5 -35.5q-19 -45 -67 -68.5t-111 -23.5zM156 717l114 -87l113 87q6 0 17.5 -3.5t13.5 -7.5l-119 -138q-6 -2 -15.5 -2.5t-19.5 0.5t-16 2l-120 138
q2 4 14 7.5t18 3.5z" />
    <glyph glyph-name="Gcircumflex" unicode="&#x11c;" horiz-adv-x="625" 
d="M336 -13q-134 0 -205.5 92.5t-71.5 266.5t73.5 267t205.5 93q38 0 73 -8t62.5 -21.5t43.5 -31.5t16 -38t-17 -34.5t-48 -11.5q-8 53 -42.5 80.5t-85.5 27.5q-96 0 -144 -81.5t-48 -241.5t47.5 -241t143.5 -81q48 0 77.5 19.5t45 50.5t20.5 64.5t5 62.5q0 39 -8 67.5
t-24 46.5t-42 23q4 16 19 23t34 7q27 0 50.5 -14.5t38 -47.5t14.5 -90q0 -38 -8.5 -74.5t-26 -68t-45 -55t-66 -37.5t-87.5 -14zM355 868l126 -114q-1 -4 -7.5 -12t-12.5 -10l-131 78l-132 -78q-5 2 -11.5 10t-8.5 12l126 114q6 2 16 2.5t19.5 0t15.5 -2.5z" />
    <glyph glyph-name="gcircumflex" unicode="&#x11d;" horiz-adv-x="537" 
d="M218 -233q-45 0 -84 13t-62.5 39.5t-23.5 67.5q0 34 18.5 54t43.5 20q28 0 40 -15q-15 -11 -21.5 -26.5t-6.5 -34.5q0 -28 12.5 -46.5t35 -28t51.5 -9.5q86 0 126 63t40 181v32.5v35.5q-18 -55 -61 -86t-105 -31q-54 0 -94 25.5t-61.5 81.5t-21.5 145q0 38 6 76.5
t20.5 74t40.5 63t65.5 43.5t95.5 16q34 0 69.5 -6t68.5 -20.5t56 -39.5v-410q0 -104 -32 -165t-88 -87t-128 -26zM242 40q40 0 67.5 18.5t44.5 48.5t25 67t8 74l1 199q-18 19 -49.5 28t-67.5 9q-46 0 -74 -21t-43 -56t-20 -78.5t-5 -88.5q0 -107 27.5 -153.5t85.5 -46.5z
M159 565q-6 0 -18 3.5t-14 7.5l120 137q6 2 16 3t19.5 0t15.5 -3l120 -137q-3 -4 -14.5 -7.5t-17.5 -3.5l-113 87z" />
    <glyph glyph-name="Gbreve" unicode="&#x11e;" horiz-adv-x="625" 
d="M336 -13q-134 0 -205.5 92.5t-71.5 266.5t73.5 267t205.5 93q38 0 73 -8t62.5 -21.5t43.5 -31.5t16 -38t-17 -34.5t-48 -11.5q-8 53 -42.5 80.5t-85.5 27.5q-96 0 -144 -81.5t-48 -241.5t47.5 -241t143.5 -81q48 0 77.5 19.5t45 50.5t20.5 64.5t5 62.5q0 39 -8 67.5
t-24 46.5t-42 23q4 16 19 23t34 7q27 0 50.5 -14.5t38 -47.5t14.5 -90q0 -38 -8.5 -74.5t-26 -68t-45 -55t-66 -37.5t-87.5 -14zM463 850q-9 -31 -26.5 -57t-43.5 -41t-63 -15t-63 15.5t-42 41t-24 53.5q9 3 17.5 6.5t16.5 6.5q12 -32 38.5 -48.5t61.5 -16.5q37 0 61.5 18
t35.5 46q9 -2 16 -4.5t15 -4.5z" />
    <glyph glyph-name="gbreve" unicode="&#x11f;" horiz-adv-x="537" 
d="M218 -233q-45 0 -84 13t-62.5 39.5t-23.5 67.5q0 34 18.5 54t43.5 20q28 0 40 -15q-15 -11 -21.5 -26.5t-6.5 -34.5q0 -28 12.5 -46.5t35 -28t51.5 -9.5q86 0 126 63t40 181v32.5v35.5q-18 -55 -61 -86t-105 -31q-54 0 -94 25.5t-61.5 81.5t-21.5 145q0 38 6 76.5
t20.5 74t40.5 63t65.5 43.5t95.5 16q34 0 69.5 -6t68.5 -20.5t56 -39.5v-410q0 -104 -32 -165t-88 -87t-128 -26zM242 40q40 0 67.5 18.5t44.5 48.5t25 67t8 74l1 199q-18 19 -49.5 28t-67.5 9q-46 0 -74 -21t-43 -56t-20 -78.5t-5 -88.5q0 -107 27.5 -153.5t85.5 -46.5z
M276 628q31 0 52 12t35.5 30t21.5 36l16 -4t16 -6q-9 -33 -27 -61.5t-46.5 -46t-69.5 -17.5q-46 0 -76 19.5t-46.5 47.5t-23.5 56q9 6 17 9t16 4q9 -20 24 -38t37.5 -29.5t53.5 -11.5z" />
    <glyph glyph-name="Gdotaccent" unicode="&#x120;" horiz-adv-x="625" 
d="M336 -13q-134 0 -205.5 92.5t-71.5 266.5t73.5 267t205.5 93q38 0 73 -8t62.5 -21.5t43.5 -31.5t16 -38t-17 -34.5t-48 -11.5q-8 53 -42.5 80.5t-85.5 27.5q-96 0 -144 -81.5t-48 -241.5t47.5 -241t143.5 -81q48 0 77.5 19.5t45 50.5t20.5 64.5t5 62.5q0 39 -8 67.5
t-24 46.5t-42 23q4 16 19 23t34 7q27 0 50.5 -14.5t38 -47.5t14.5 -90q0 -38 -8.5 -74.5t-26 -68t-45 -55t-66 -37.5t-87.5 -14zM332 753q-20 0 -35.5 15t-15.5 36t15.5 36t35.5 15q21 0 36.5 -15t15.5 -36t-15.5 -36t-36.5 -15z" />
    <glyph glyph-name="gdotaccent" unicode="&#x121;" horiz-adv-x="537" 
d="M218 -233q-45 0 -84 13t-62.5 39.5t-23.5 67.5q0 34 18.5 54t43.5 20q28 0 40 -15q-15 -11 -21.5 -26.5t-6.5 -34.5q0 -28 12.5 -46.5t35 -28t51.5 -9.5q86 0 126 63t40 181v32.5v35.5q-18 -55 -61 -86t-105 -31q-54 0 -94 25.5t-61.5 81.5t-21.5 145q0 38 6 76.5
t20.5 74t40.5 63t65.5 43.5t95.5 16q34 0 69.5 -6t68.5 -20.5t56 -39.5v-410q0 -104 -32 -165t-88 -87t-128 -26zM242 40q40 0 67.5 18.5t44.5 48.5t25 67t8 74l1 199q-18 19 -49.5 28t-67.5 9q-46 0 -74 -21t-43 -56t-20 -78.5t-5 -88.5q0 -107 27.5 -153.5t85.5 -46.5z
M273 576q-20 0 -35.5 15.5t-15.5 36.5t15.5 36t35.5 15q21 0 36 -15t15 -36t-15 -36.5t-36 -15.5z" />
    <glyph glyph-name="uni0122" unicode="&#x122;" horiz-adv-x="625" 
d="M336 -13q-134 0 -205.5 92.5t-71.5 266.5t73.5 267t205.5 93q38 0 73 -8t62.5 -21.5t43.5 -31.5t16 -38t-17 -34.5t-48 -11.5q-8 53 -42.5 80.5t-85.5 27.5q-96 0 -144 -81.5t-48 -241.5t47.5 -241t143.5 -81q48 0 77.5 19.5t45 50.5t20.5 64.5t5 62.5q0 39 -8 67.5
t-24 46.5t-42 23q4 16 19 23t34 7q27 0 50.5 -14.5t38 -47.5t14.5 -90q0 -38 -8.5 -74.5t-26 -68t-45 -55t-66 -37.5t-87.5 -14zM328 -228q-10 2 -17 6.5t-13 11.5q15 17 23 33.5t8 33.5q0 20 -7.5 30.5t-18 16t-20.5 8.5q0 19 15 36.5t41 17.5q20 0 38.5 -14.5t18.5 -54.5
q0 -28 -14.5 -59.5t-53.5 -65.5z" />
    <glyph glyph-name="uni0123" unicode="&#x123;" horiz-adv-x="537" 
d="M218 -233q-45 0 -84 13t-62.5 39.5t-23.5 67.5q0 34 18.5 54t43.5 20q28 0 40 -15q-15 -11 -21.5 -26.5t-6.5 -34.5q0 -28 12.5 -46.5t35 -28t51.5 -9.5q86 0 126 63t40 181v32.5v35.5q-18 -55 -61 -86t-105 -31q-54 0 -94 25.5t-61.5 81.5t-21.5 145q0 38 6 76.5
t20.5 74t40.5 63t65.5 43.5t95.5 16q34 0 69.5 -6t68.5 -20.5t56 -39.5v-410q0 -104 -32 -165t-88 -87t-128 -26zM242 40q40 0 67.5 18.5t44.5 48.5t25 67t8 74l1 199q-18 19 -49.5 28t-67.5 9q-46 0 -74 -21t-43 -56t-20 -78.5t-5 -88.5q0 -107 27.5 -153.5t85.5 -46.5z
M280 753q10 -1 18 -5t14 -12q-15 -21 -21 -39t-6 -32q0 -21 11.5 -30.5t25.5 -12.5q0 -19 -13.5 -34.5t-36.5 -15.5q-12 0 -24.5 5.5t-20.5 19t-8 36.5t12.5 51t48.5 69z" />
    <glyph glyph-name="Hcircumflex" unicode="&#x124;" horiz-adv-x="680" 
d="M177 114q0 -29 2.5 -57t10.5 -50q-6 -5 -18 -11.5t-29 -6.5q-20 0 -33 12t-13 32l-1 544q0 30 -2.5 57.5t-10.5 49.5q6 6 18 12t29 6q20 0 33.5 -11.5t13.5 -32.5v-544zM584 114q0 -29 2.5 -57t10.5 -50q-6 -5 -18 -11.5t-29 -6.5q-20 0 -33 12t-13 32l-1 544
q0 30 -2.5 57.5t-10.5 49.5q6 6 18 12t29 6q20 0 33.5 -11.5t13.5 -32.5v-544zM148 390h383v-48h-383v48zM363 868l126 -114q-1 -4 -7.5 -12t-12.5 -10l-131 78l-132 -78q-5 2 -11.5 10t-8.5 12l126 114q6 2 16 2.5t19.5 0t15.5 -2.5z" />
    <glyph glyph-name="hcircumflex" unicode="&#x125;" horiz-adv-x="562" 
d="M129 -11q-20 0 -33 13t-13 35l-1 649q0 21 11 32t29 12q19 1 33 -6t20 -12q-8 -27 -10.5 -63.5t-3.5 -92.5l-1 -209l-17 -18q5 60 29.5 103t63.5 66t89 23q83 0 121.5 -53t38.5 -155l1 -199q0 -26 2.5 -55.5t9.5 -51.5q-7 -7 -18.5 -12.5t-27.5 -5.5q-20 0 -32.5 12
t-12.5 32l-1 270q0 85 -23 129.5t-81 44.5q-24 0 -49 -13t-46 -40.5t-33.5 -72.5t-12.5 -110v-99t1.5 -64t4 -41t8.5 -30q-6 -5 -17.5 -11.5t-28.5 -6.5zM16 735q-6 0 -18 3.5t-14 7.5l120 137q6 2 16 3t19.5 0t15.5 -3l120 -137q-3 -4 -14.5 -7.5t-17.5 -3.5l-113 87z" />
    <glyph glyph-name="Hbar" unicode="&#x126;" horiz-adv-x="680" 
d="M45 572h586q7 -18 0 -37h-586q-7 19 0 37zM177 114q0 -29 2.5 -57t10.5 -50q-6 -5 -18 -11.5t-29 -6.5q-20 0 -33 12t-13 32l-1 544q0 30 -2.5 57.5t-10.5 49.5q6 6 18 12t29 6q20 0 33.5 -11.5t13.5 -32.5v-544zM584 114q0 -29 2.5 -57t10.5 -50q-6 -5 -18 -11.5
t-29 -6.5q-20 0 -33 12t-13 32l-1 544q0 30 -2.5 57.5t-10.5 49.5q6 6 18 12t29 6q20 0 33.5 -11.5t13.5 -32.5v-544zM148 390h383v-48h-383v48z" />
    <glyph glyph-name="hbar" unicode="&#x127;" horiz-adv-x="568" 
d="M15 614h267q7 -18 0 -36h-267q-6 18 0 36zM129 -11q-20 0 -33 13t-13 35l-1 649q0 21 11 32t29 12q19 1 33 -6t20 -12q-8 -27 -10.5 -63.5t-3.5 -92.5l-1 -209l-17 -18q5 60 29.5 103t63.5 66t89 23q83 0 121.5 -53t38.5 -155l1 -199q0 -26 2.5 -55.5t9.5 -51.5
q-7 -7 -18.5 -12.5t-27.5 -5.5q-20 0 -32.5 12t-12.5 32l-1 270q0 85 -23 129.5t-81 44.5q-24 0 -49 -13t-46 -40.5t-33.5 -72.5t-12.5 -110v-99t1.5 -64t4 -41t8.5 -30q-6 -5 -17.5 -11.5t-28.5 -6.5z" />
    <glyph glyph-name="Itilde" unicode="&#x128;" horiz-adv-x="273" 
d="M143 -11q-20 0 -33 12t-13 32l-1 544q0 30 -2.5 57.5t-10.5 49.5q6 6 18 12t29 6q20 0 33.5 -11.5t13.5 -32.5v-544q0 -29 2.5 -57t10.5 -50q-6 -5 -18 -11.5t-29 -6.5zM272 836q-7 -36 -28 -59t-54 -23q-24 0 -45 10.5t-40.5 21t-41.5 10.5q-24 0 -37.5 -10.5
t-20.5 -29.5q-5 -1 -12 2t-12 8q7 47 31.5 66t54.5 19q26 0 46.5 -10.5t40.5 -21t44 -10.5q22 0 32 10.5t18 25.5q9 0 14 -2t10 -7z" />
    <glyph glyph-name="itilde" unicode="&#x129;" horiz-adv-x="247" 
d="M163 114q0 -29 2.5 -57t9.5 -50q-6 -5 -17.5 -11.5t-28.5 -6.5q-19 0 -32 12t-13 32l-1 363q0 29 -2.5 57t-9.5 50q6 5 17 11.5t28 6.5q20 0 32.5 -11.5t12.5 -32.5zM257 667q-6 -37 -26.5 -61.5t-53.5 -24.5q-25 0 -44 12t-37 24t-41 12t-38 -12t-22 -31q-5 -1 -11.5 2
t-11.5 7q7 46 32.5 65.5t54.5 19.5q27 0 45.5 -12.5t37.5 -24t42 -11.5t33.5 12.5t17.5 31.5q7 0 12.5 -2t9.5 -7z" />
    <glyph glyph-name="Imacron" unicode="&#x12a;" horiz-adv-x="273" 
d="M143 -11q-20 0 -33 12t-13 32l-1 544q0 30 -2.5 57.5t-10.5 49.5q6 6 18 12t29 6q20 0 33.5 -11.5t13.5 -32.5v-544q0 -29 2.5 -57t10.5 -50q-6 -5 -18 -11.5t-29 -6.5zM0 816h257q8 -22 0 -44h-257q-8 22 0 44z" />
    <glyph glyph-name="imacron" unicode="&#x12b;" horiz-adv-x="247" 
d="M163 114q0 -29 2.5 -57t9.5 -50q-6 -5 -17.5 -11.5t-28.5 -6.5q-19 0 -32 12t-13 32l-1 363q0 29 -2.5 57t-9.5 50q6 5 17 11.5t28 6.5q20 0 32.5 -11.5t12.5 -32.5zM-12 643h257q8 -22 0 -43h-257q-8 21 0 43z" />
    <glyph glyph-name="Iogonek" unicode="&#x12e;" horiz-adv-x="273" 
d="M143 -11q-20 0 -33 12t-13 32l-1 544q0 30 -2.5 57.5t-10.5 49.5q6 6 18 12t29 6q20 0 33.5 -11.5t13.5 -32.5v-544q0 -29 2.5 -57t10.5 -50q-6 -5 -18 -11.5t-29 -6.5zM135 -174q-21 0 -42 7.5t-35 24.5t-14 45q0 32 18.5 54.5t47.5 38t61 24.5l9 -19q-37 -18 -57.5 -38
t-20.5 -51q0 -19 11.5 -33.5t38.5 -14.5q32 0 53 17.5t31 36.5q7 -4 10 -10t0 -16q-12 -28 -41.5 -47t-69.5 -19z" />
    <glyph glyph-name="iogonek" unicode="&#x12f;" horiz-adv-x="260" 
d="M127 603q-22 0 -38 16t-16 38q0 23 16 38.5t38 15.5q23 0 38.5 -15.5t15.5 -38.5q0 -22 -15.5 -38t-38.5 -16zM171 114q0 -29 2.5 -57t10.5 -50q-6 -5 -17.5 -11.5t-28.5 -6.5q-19 0 -32 12t-13 32l-1 363q0 29 -2.5 57t-10.5 50q6 5 17.5 11.5t28.5 6.5q20 0 32.5 -11.5
t12.5 -32.5zM126 -171q-21 0 -42 7.5t-35 24.5t-14 45q0 32 18.5 54.5t47.5 38t61 24.5l9 -19q-37 -18 -57.5 -38t-20.5 -51q0 -19 11.5 -33.5t38.5 -14.5q32 0 53 17.5t31 36.5q7 -4 10 -10t0 -16q-12 -28 -41.5 -47t-69.5 -19z" />
    <glyph glyph-name="Idotaccent" unicode="&#x130;" horiz-adv-x="273" 
d="M143 -11q-20 0 -33 12t-13 32l-1 544q0 30 -2.5 57.5t-10.5 49.5q6 6 18 12t29 6q20 0 33.5 -11.5t13.5 -32.5v-544q0 -29 2.5 -57t10.5 -50q-6 -5 -18 -11.5t-29 -6.5zM128 753q-20 0 -35.5 15t-15.5 36t15.5 36t35.5 15q21 0 36.5 -15t15.5 -36t-15.5 -36t-36.5 -15z
" />
    <glyph glyph-name="dotlessi" unicode="&#x131;" horiz-adv-x="247" 
d="M163 114q0 -29 2.5 -57t9.5 -50q-6 -5 -17.5 -11.5t-28.5 -6.5q-19 0 -32 12t-13 32l-1 363q0 29 -2.5 57t-9.5 50q6 5 17 11.5t28 6.5q20 0 32.5 -11.5t12.5 -32.5z" />
    <glyph glyph-name="Jcircumflex" unicode="&#x134;" horiz-adv-x="456" 
d="M192 -13q-51 0 -83.5 15.5t-47.5 40.5t-15 53q0 22 12 40t38 18q11 0 17.5 -3t11.5 -11q-4 -10 -6.5 -20t-2.5 -20q0 -26 12 -42.5t29 -25t34 -8.5q39 0 58.5 19.5t27 53t7.5 75.5v442q0 14 0.5 27.5t3.5 23.5q-24 0 -50.5 1t-52.5 3q-17 1 -34 -6.5t-17 -32.5
q0 -19 8.5 -31t20.5 -19q-6 -6 -16 -8t-19 -2q-21 0 -39.5 17.5t-18.5 48.5q0 30 22 50t65 20q15 0 36 -1.5t46 -2.5t48 -2q25 -1 45.5 1t36.5 3q-2 -13 -3 -30.5t-1 -41.5v-453q0 -36 -7.5 -70t-26 -61.5t-52.5 -44t-87 -16.5zM254 868l126 -114q-1 -4 -7.5 -12t-12.5 -10
l-131 78l-132 -78q-5 2 -11.5 10t-8.5 12l126 114q6 2 16 2.5t19.5 0t15.5 -2.5z" />
    <glyph glyph-name="jcircumflex" unicode="&#x135;" horiz-adv-x="251" 
d="M28 -232q-55 0 -81.5 22t-26.5 58q0 17 11 32.5t34 15.5q10 0 15.5 -3t9.5 -11q-4 -8 -6 -17t-2 -17q0 -18 7.5 -28t18.5 -13.5t21 -3.5q30 0 44 21t18.5 56.5t4.5 80.5l1 434q0 27 -2.5 56t-9.5 52q8 7 19.5 12.5t25.5 5.5q20 0 32.5 -11.5t12.5 -33.5l1 -529
q0 -32 -6.5 -64t-23 -58t-45.5 -41.5t-73 -15.5zM15 562q-6 0 -18 3.5t-14 7.5l120 137q6 2 16 3t19.5 0t15.5 -3l120 -137q-3 -4 -14.5 -7.5t-17.5 -3.5l-113 87z" />
    <glyph glyph-name="uni0136" unicode="&#x136;" horiz-adv-x="585" 
d="M504 -12q-26 0 -44.5 14.5t-31.5 37t-21 45.5l-42 133q-8 20 -18 39t-27 34.5t-45.5 24.5t-72.5 9h-35l-1 36q9 1 20 2t19 2q52 6 91.5 31.5t65.5 62.5t39.5 77.5t13.5 77.5q0 31 -6.5 49.5t-11.5 26.5q10 6 18.5 9t18.5 3q14 0 28 -7.5t23 -26.5t9 -54q0 -51 -22 -104
t-71 -97.5t-130 -69.5l5 11q73 -5 109 -36t53 -79l47 -134q13 -29 23.5 -40t24.5 -12q5 -1 13 1.5t15 10.5q7 -13 7 -25q0 -23 -19.5 -37.5t-44.5 -14.5zM143 -11q-20 0 -33 12t-13 32l-1 544q0 30 -2.5 57.5t-10.5 49.5q6 6 18 12t29 6q20 0 33 -11.5t13 -32.5l1 -544
q0 -29 2.5 -57t10.5 -50q-6 -5 -18 -11.5t-29 -6.5zM301 -228q-10 2 -17 6.5t-13 11.5q15 17 23 33.5t8 33.5q0 20 -7.5 30.5t-18 16t-20.5 8.5q0 19 15 36.5t41 17.5q20 0 38.5 -14.5t18.5 -54.5q0 -28 -14.5 -59.5t-53.5 -65.5z" />
    <glyph glyph-name="uni0137" unicode="&#x137;" horiz-adv-x="546" 
d="M127 -11q-26 0 -35 13.5t-9 34.5l-1 649q0 21 13 32.5t33 11.5q18 0 29.5 -6.5t16.5 -11.5q-5 -22 -7 -41.5t-3 -37.5t-1.5 -37t-1.5 -41l-1 -212l-6 8q14 51 42 89t69 59.5t93 21.5q61 0 92.5 -31.5t31.5 -82.5q0 -41 -20 -73.5t-51.5 -56.5t-67.5 -41q11 -5 19.5 -15
t17.5 -24l59 -106q11 -17 18.5 -25.5t21.5 -8.5q5 0 13 2.5t15 10.5q6 -7 8.5 -14t2.5 -15q0 -23 -20.5 -37.5t-46.5 -14.5q-25 0 -45.5 15t-32.5 43l-86 170q-33 -12 -66 -21.5t-60 -16.5q0 -44 0.5 -72.5t2 -45.5t4 -29t7.5 -25q-7 -6 -18 -12t-30 -6zM161 215
q44 13 86.5 29.5t77.5 39t55.5 51.5t20.5 67q0 39 -19.5 55.5t-50.5 16.5q-51 0 -89 -33.5t-59.5 -92t-21.5 -133.5zM267 -228q-10 2 -17 6.5t-13 11.5q15 17 23 33.5t8 33.5q0 20 -7.5 30.5t-18 16t-20.5 8.5q0 19 15 36.5t41 17.5q20 0 38.5 -14.5t18.5 -54.5
q0 -28 -14.5 -59.5t-53.5 -65.5z" />
    <glyph glyph-name="kgreenlandic" unicode="&#x138;" horiz-adv-x="578" 
d="M480 -11q-32 0 -55.5 20.5t-32.5 52.5l-24 86q-8 24 -21 45t-40 34t-77 13h-72l-1 36q14 1 35 2t35 2q58 5 96.5 29.5t58.5 59.5t20 70q0 23 -5.5 42.5t-10.5 26.5q9 7 18 10t18 3q13 0 27 -8.5t23 -26t9 -45.5q0 -43 -23.5 -81.5t-66 -65t-101.5 -35.5l4 10
q40 6 68.5 -7t48 -37.5t29.5 -57.5l19 -65q10 -32 22 -41.5t23 -9.5q9 -1 16.5 2.5t12.5 9.5q4 -6 5 -12.5t1 -12.5q0 -22 -17 -35.5t-42 -13.5zM134 -11q-20 0 -33.5 12t-13.5 32v362q0 30 -2.5 57.5t-10.5 50.5q6 5 18.5 11.5t29.5 6.5q20 0 33 -11.5t13 -33.5v-362
q0 -29 2.5 -57t9.5 -50q-5 -5 -17 -11.5t-29 -6.5z" />
    <glyph glyph-name="Lacute" unicode="&#x139;" horiz-adv-x="480" 
d="M176 658l1 -610q45 0 91 4t90 10t80 13q8 -4 12 -16.5t4 -26t-4.5 -23t-15.5 -9.5h-291q-20 0 -33 12t-13 33l-1 532q0 30 -2.5 57.5t-10.5 49.5q6 6 18 12t29 6q20 0 33 -11.5t13 -32.5zM296 818l-173 -82q-5 2 -10.5 11t-5.5 13l136 114q10 -4 20.5 -13.5t19.5 -20.5
t13 -22z" />
    <glyph glyph-name="lacute" unicode="&#x13a;" horiz-adv-x="270" 
d="M175 -10q-45 0 -70 29.5t-25 81.5v585q0 21 13 32.5t34 11.5q17 0 28.5 -6.5t17.5 -11.5q-9 -28 -11 -73t-2 -122v-412q0 -25 9.5 -39t28.5 -14q11 0 21.5 5t15.5 16q6 -8 8.5 -16.5t2.5 -14.5q0 -23 -21.5 -37.5t-49.5 -14.5zM276 901l-134 -138q-8 0 -20 1.5t-16 5.5
l91 150q12 1 28.5 -2t30.5 -7.5t20 -9.5z" />
    <glyph glyph-name="uni013B" unicode="&#x13b;" horiz-adv-x="480" 
d="M176 658l1 -610q45 0 91 4t90 10t80 13q8 -4 12 -16.5t4 -26t-4.5 -23t-15.5 -9.5h-291q-20 0 -33 12t-13 33l-1 532q0 30 -2.5 57.5t-10.5 49.5q6 6 18 12t29 6q20 0 33 -11.5t13 -32.5zM266 -228q-10 2 -17 6.5t-13 11.5q15 17 23 33.5t8 33.5q0 20 -7.5 30.5t-18 16
t-20.5 8.5q0 19 15 36.5t41 17.5q20 0 38.5 -14.5t18.5 -54.5q0 -28 -14.5 -59.5t-53.5 -65.5z" />
    <glyph glyph-name="uni013C" unicode="&#x13c;" horiz-adv-x="270" 
d="M175 -10q-45 0 -70 29.5t-25 81.5v585q0 21 13 32.5t34 11.5q17 0 28.5 -6.5t17.5 -11.5q-9 -28 -11 -73t-2 -122v-412q0 -25 9.5 -39t28.5 -14q11 0 21.5 5t15.5 16q6 -8 8.5 -16.5t2.5 -14.5q0 -23 -21.5 -37.5t-49.5 -14.5zM159 -228q-10 2 -17 6.5t-13 11.5
q15 17 23 33.5t8 33.5q0 20 -7.5 30.5t-18 16t-20.5 8.5q0 19 15 36.5t41 17.5q20 0 38.5 -14.5t18.5 -54.5q0 -28 -14.5 -59.5t-53.5 -65.5z" />
    <glyph glyph-name="Lcaron" unicode="&#x13d;" horiz-adv-x="480" 
d="M176 658l1 -610q45 0 91 4t90 10t80 13q8 -4 12 -16.5t4 -26t-4.5 -23t-15.5 -9.5h-291q-20 0 -33 12t-13 33l-1 532q0 30 -2.5 57.5t-10.5 49.5q6 6 18 12t29 6q20 0 33 -11.5t13 -32.5zM280 586q4 33 1.5 73t-12.5 77q17 6 38 5.5t37 -5.5q1 -39 -6.5 -78t-18.5 -72
h-39z" />
    <glyph glyph-name="lcaron" unicode="&#x13e;" horiz-adv-x="326" 
d="M175 -10q-45 0 -70 29.5t-25 81.5v585q0 21 13 32.5t34 11.5q17 0 28.5 -6.5t17.5 -11.5q-9 -28 -11 -73t-2 -122v-412q0 -25 9.5 -39t28.5 -14q11 0 21.5 5t15.5 16q6 -8 8.5 -16.5t2.5 -14.5q0 -23 -21.5 -37.5t-49.5 -14.5zM239 589q4 33 1.5 73t-12.5 77q17 6 38 5.5
t37 -5.5q1 -39 -6.5 -78t-18.5 -72h-39z" />
    <glyph glyph-name="Ldot" unicode="&#x13f;" horiz-adv-x="480" 
d="M176 658l1 -610q45 0 91 4t90 10t80 13q8 -4 12 -16.5t4 -26t-4.5 -23t-15.5 -9.5h-291q-20 0 -33 12t-13 33l-1 532q0 30 -2.5 57.5t-10.5 49.5q6 6 18 12t29 6q20 0 33 -11.5t13 -32.5zM365 268q-22 0 -38 16t-16 38t16 38t38 16q23 0 38.5 -16t15.5 -38t-15.5 -38
t-38.5 -16z" />
    <glyph glyph-name="ldot" unicode="&#x140;" horiz-adv-x="270" 
d="M175 -10q-45 0 -70 29.5t-25 81.5v585q0 21 13 32.5t34 11.5q17 0 28.5 -6.5t17.5 -11.5q-9 -28 -11 -73t-2 -122v-412q0 -25 9.5 -39t28.5 -14q11 0 21.5 5t15.5 16q6 -8 8.5 -16.5t2.5 -14.5q0 -23 -21.5 -37.5t-49.5 -14.5zM292 285q-22 0 -38 16t-16 38t16 38t38 16
q23 0 38.5 -16t15.5 -38t-15.5 -38t-38.5 -16z" />
    <glyph glyph-name="Lslash" unicode="&#x141;" horiz-adv-x="480" 
d="M19 176l267 267q22 -5 27 -26l-268 -266q-20 4 -26 25zM176 658l1 -610q45 0 91 4t90 10t80 13q8 -4 12 -16.5t4 -26t-4.5 -23t-15.5 -9.5h-291q-20 0 -33 12t-13 33l-1 532q0 30 -2.5 57.5t-10.5 49.5q6 6 18 12t29 6q20 0 33 -11.5t13 -32.5z" />
    <glyph glyph-name="lslash" unicode="&#x142;" horiz-adv-x="270" 
d="M-5 174l231 311l30 -21l-231 -311zM175 -10q-45 0 -70 29.5t-25 81.5v585q0 21 13 32.5t34 11.5q17 0 28.5 -6.5t17.5 -11.5q-9 -28 -11 -73t-2 -122v-412q0 -25 9.5 -39t28.5 -14q11 0 21.5 5t15.5 16q6 -8 8.5 -16.5t2.5 -14.5q0 -23 -21.5 -37.5t-49.5 -14.5z" />
    <glyph glyph-name="Nacute" unicode="&#x143;" horiz-adv-x="682" 
d="M121 -11q-11 0 -20 3.5t-16 8.5q7 23 9.5 53.5t2.5 59.5l-1 458q0 37 -1.5 67t-5.5 51q7 7 20.5 9t26 1t15.5 -5q32 -46 73.5 -106t86.5 -126t89 -131t80.5 -122t60.5 -99l-17 498q-2 34 5 57.5t22 31.5q8 2 17.5 1.5t18.5 -4.5q-1 -14 0.5 -34.5t1.5 -37.5v-510
q0 -37 1 -64t4 -48q-5 -5 -16 -8t-22 -3t-19 4q-36 44 -73.5 94.5t-74.5 103.5t-71.5 105t-66 101.5t-58 92.5t-46.5 77l15 -530q1 -22 -12 -35.5t-29 -13.5zM488 818l-173 -82q-5 2 -10.5 11t-5.5 13l136 114q10 -4 20.5 -13.5t19.5 -20.5t13 -22z" />
    <glyph glyph-name="nacute" unicode="&#x144;" horiz-adv-x="574" 
d="M139 -11q-21 0 -34 13t-13 35v369q-1 29 -7 40.5t-21 11.5q-5 0 -13 -3t-13 -13q-12 15 -12 32q0 20 16 33t44 13q38 0 58 -25.5t20 -77.5v-70l-15 -18q6 60 30.5 103t65 66t91.5 23q83 0 122 -53t39 -155v-199q1 -26 3.5 -55.5t9.5 -51.5q-8 -7 -19 -12.5t-27 -5.5
q-20 0 -33.5 12t-13.5 32v270q-1 84 -23.5 127.5t-80.5 43.5q-25 0 -49.5 -12t-45.5 -39.5t-34 -72.5t-13 -109q0 -60 0.5 -99t1.5 -64t4 -41t8 -30q-6 -5 -17.5 -11.5t-28.5 -6.5zM435 701l-134 -138q-8 0 -20 1.5t-16 5.5l91 150q12 1 28.5 -2t30.5 -7.5t20 -9.5z" />
    <glyph glyph-name="uni0145" unicode="&#x145;" horiz-adv-x="682" 
d="M121 -11q-11 0 -20 3.5t-16 8.5q7 23 9.5 53.5t2.5 59.5l-1 458q0 37 -1.5 67t-5.5 51q7 7 20.5 9t26 1t15.5 -5q32 -46 73.5 -106t86.5 -126t89 -131t80.5 -122t60.5 -99l-17 498q-2 34 5 57.5t22 31.5q8 2 17.5 1.5t18.5 -4.5q-1 -14 0.5 -34.5t1.5 -37.5v-510
q0 -37 1 -64t4 -48q-5 -5 -16 -8t-22 -3t-19 4q-36 44 -73.5 94.5t-74.5 103.5t-71.5 105t-66 101.5t-58 92.5t-46.5 77l15 -530q1 -22 -12 -35.5t-29 -13.5zM337 -228q-10 2 -17 6.5t-13 11.5q15 17 23 33.5t8 33.5q0 20 -7.5 30.5t-18 16t-20.5 8.5q0 19 15 36.5t41 17.5
q20 0 38.5 -14.5t18.5 -54.5q0 -28 -14.5 -59.5t-53.5 -65.5z" />
    <glyph glyph-name="uni0146" unicode="&#x146;" horiz-adv-x="574" 
d="M139 -11q-21 0 -34 13t-13 35v369q-1 29 -7 40.5t-21 11.5q-5 0 -13 -3t-13 -13q-12 15 -12 32q0 20 16 33t44 13q38 0 58 -25.5t20 -77.5v-70l-15 -18q6 60 30.5 103t65 66t91.5 23q83 0 122 -53t39 -155v-199q1 -26 3.5 -55.5t9.5 -51.5q-8 -7 -19 -12.5t-27 -5.5
q-20 0 -33.5 12t-13.5 32v270q-1 84 -23.5 127.5t-80.5 43.5q-25 0 -49.5 -12t-45.5 -39.5t-34 -72.5t-13 -109q0 -60 0.5 -99t1.5 -64t4 -41t8 -30q-6 -5 -17.5 -11.5t-28.5 -6.5zM291 -228q-10 2 -17 6.5t-13 11.5q15 17 23 33.5t8 33.5q0 20 -7.5 30.5t-18 16t-20.5 8.5
q0 19 15 36.5t41 17.5q20 0 38.5 -14.5t18.5 -54.5q0 -28 -14.5 -59.5t-53.5 -65.5z" />
    <glyph glyph-name="Ncaron" unicode="&#x147;" horiz-adv-x="682" 
d="M121 -11q-11 0 -20 3.5t-16 8.5q7 23 9.5 53.5t2.5 59.5l-1 458q0 37 -1.5 67t-5.5 51q7 7 20.5 9t26 1t15.5 -5q32 -46 73.5 -106t86.5 -126t89 -131t80.5 -122t60.5 -99l-17 498q-2 34 5 57.5t22 31.5q8 2 17.5 1.5t18.5 -4.5q-1 -14 0.5 -34.5t1.5 -37.5v-510
q0 -37 1 -64t4 -48q-5 -5 -16 -8t-22 -3t-19 4q-36 44 -73.5 94.5t-74.5 103.5t-71.5 105t-66 101.5t-58 92.5t-46.5 77l15 -530q1 -22 -12 -35.5t-29 -13.5zM366 741q-6 -2 -15.5 -2.5t-19.5 0t-16 2.5l-126 114q1 5 8 12.5t12 9.5l132 -78l131 78q6 -2 12.5 -9.5
t7.5 -12.5z" />
    <glyph glyph-name="ncaron" unicode="&#x148;" horiz-adv-x="574" 
d="M139 -11q-21 0 -34 13t-13 35v369q-1 29 -7 40.5t-21 11.5q-5 0 -13 -3t-13 -13q-12 15 -12 32q0 20 16 33t44 13q38 0 58 -25.5t20 -77.5v-70l-15 -18q6 60 30.5 103t65 66t91.5 23q83 0 122 -53t39 -155v-199q1 -26 3.5 -55.5t9.5 -51.5q-8 -7 -19 -12.5t-27 -5.5
q-20 0 -33.5 12t-13.5 32v270q-1 84 -23.5 127.5t-80.5 43.5q-25 0 -49.5 -12t-45.5 -39.5t-34 -72.5t-13 -109q0 -60 0.5 -99t1.5 -64t4 -41t8 -30q-6 -5 -17.5 -11.5t-28.5 -6.5zM182 717l114 -87l113 87q7 0 18 -3.5t14 -7.5l-120 -138q-6 -2 -15.5 -2.5t-19 0.5t-15.5 2
l-120 138q1 4 13.5 7.5t17.5 3.5z" />
    <glyph glyph-name="napostrophe" unicode="&#x149;" horiz-adv-x="674" 
d="M8 605l17 -152h38l20 152q-16 5 -36.5 5t-38.5 -5zM213 -11q-21 0 -34 13t-13 35v369q-1 29 -7 40.5t-21 11.5q-5 0 -13 -3t-13 -13q-12 15 -12 32q0 20 16 33t44 13q38 0 58 -25.5t20 -77.5v-70l-15 -18q6 60 30.5 103t65 66t91.5 23q83 0 122 -53t39 -155v-199
q1 -26 3.5 -55.5t9.5 -51.5q-8 -7 -19 -12.5t-27 -5.5q-20 0 -33.5 12t-13.5 32v270q-1 84 -23.5 127.5t-80.5 43.5q-25 0 -49.5 -12t-45.5 -39.5t-34 -72.5t-13 -109q0 -60 0.5 -99t1.5 -64t4 -41t8 -30q-6 -5 -17.5 -11.5t-28.5 -6.5z" />
    <glyph glyph-name="Omacron" unicode="&#x14c;" horiz-adv-x="651" 
d="M325 -13q-128 0 -197 88.5t-69 270.5t69 271t197 89q129 0 198 -89t69 -271t-69 -270.5t-198 -88.5zM325 24q88 0 133 77.5t45 244.5q0 168 -45 245.5t-133 77.5q-86 0 -131.5 -77.5t-45.5 -245.5q0 -167 45.5 -244.5t131.5 -77.5zM197 816h257q8 -22 0 -44h-257
q-8 22 0 44z" />
    <glyph glyph-name="omacron" unicode="&#x14d;" horiz-adv-x="547" 
d="M273 -13q-108 0 -168.5 70.5t-60.5 196.5t60.5 196.5t168.5 70.5q109 0 169.5 -70.5t60.5 -196.5t-60.5 -196.5t-169.5 -70.5zM273 23q70 0 107 60t37 171t-37 170.5t-107 59.5q-69 0 -106.5 -59.5t-37.5 -170.5t37.5 -171t106.5 -60zM145 643h257q8 -22 0 -43h-257
q-8 21 0 43z" />
    <glyph glyph-name="Ohungarumlaut" unicode="&#x150;" horiz-adv-x="651" 
d="M325 -13q-128 0 -197 88.5t-69 270.5t69 271t197 89q129 0 198 -89t69 -271t-69 -270.5t-198 -88.5zM325 24q88 0 133 77.5t45 244.5q0 168 -45 245.5t-133 77.5q-86 0 -131.5 -77.5t-45.5 -245.5q0 -167 45.5 -244.5t131.5 -77.5zM402 847l-148 -116q-6 2 -13 9t-9 10
l104 139q11 -2 23.5 -8t24 -15t18.5 -19zM533 845l-149 -116q-5 2 -12 8.5t-9 10.5l105 138q11 -1 23 -7t23.5 -15t18.5 -19z" />
    <glyph glyph-name="ohungarumlaut" unicode="&#x151;" horiz-adv-x="547" 
d="M273 -13q-108 0 -168.5 70.5t-60.5 196.5t60.5 196.5t168.5 70.5q109 0 169.5 -70.5t60.5 -196.5t-60.5 -196.5t-169.5 -70.5zM273 23q70 0 107 60t37 171t-37 170.5t-107 59.5q-69 0 -106.5 -59.5t-37.5 -170.5t37.5 -171t106.5 -60zM349 693l-154 -149q-6 2 -13.5 8
t-10.5 10l116 164q15 -1 33 -10t29 -23zM493 694l-154 -150q-6 2 -13.5 8.5t-10.5 9.5l116 164q16 -1 33 -10t29 -22z" />
    <glyph glyph-name="OE" unicode="&#x152;" horiz-adv-x="893" 
d="M508 153q-12 -38 -27 -68.5t-36 -52t-50 -33.5t-70 -12q-128 0 -197 88.5t-69 270.5t69 271t197 89q53 0 86.5 -17t55.5 -49.5t38 -79.5l-44 -20q-12 48 -31 76t-44.5 40.5t-60.5 12.5q-86 0 -131.5 -77.5t-45.5 -245.5q0 -167 45.5 -244.5t131.5 -77.5q54 0 90 35
t54 116zM499 0q-20 0 -33 12t-13 33l-1 524q0 30 -2.5 55.5t-10.5 47.5q14 13 28.5 17t39.5 4h303q9 0 12.5 -9.5t1.5 -22.5t-8 -24t-15 -15q-65 11 -131.5 18t-138.5 8l2 -604q48 1 99.5 5.5t99.5 10.5t88 12q8 -5 12 -16.5t4 -24t-4.5 -22t-15.5 -9.5h-317zM517 340v48
h260q4 -12 3.5 -24.5t-3.5 -23.5h-260z" />
    <glyph glyph-name="oe" unicode="&#x153;" horiz-adv-x="884" 
d="M273 -13q-108 0 -168.5 70.5t-60.5 196.5t60.5 196.5t168.5 70.5q70 0 121 -34.5t73 -96.5l-11 1q21 59 73.5 94.5t126.5 35.5q54 0 94.5 -16.5t64 -48.5t23.5 -79q0 -75 -60.5 -113.5t-166.5 -38.5q-30 0 -56.5 2t-51.5 5q4 -72 27 -113.5t60 -59t80 -17.5q54 0 95 22.5
t56 64.5q10 -4 14 -14.5t-6 -35.5q-19 -45 -66.5 -68.5t-111.5 -23.5q-70 0 -122 33t-74 94h12q-23 -59 -73.5 -93t-120.5 -34zM273 23q70 0 107 60t37 171t-37 170.5t-107 59.5q-69 0 -106.5 -59.5t-37.5 -170.5t37.5 -171t106.5 -60zM503 268q20 -3 43 -5t41 -2
q51 0 88.5 13.5t58 41.5t20.5 71q0 39 -15.5 60t-38 29.5t-47.5 8.5q-44 0 -78 -25.5t-53 -74t-19 -117.5z" />
    <glyph glyph-name="Racute" unicode="&#x154;" horiz-adv-x="599" 
d="M144 -11q-21 0 -34 12t-14 32v544q0 10 -0.5 30t-3.5 41.5t-9 35.5q16 8 50 15t97 7q141 0 210 -44t69 -145q0 -58 -26 -101t-72 -68t-106 -29l6 14q41 0 67.5 -14.5t43.5 -38.5t30 -54l50 -118q12 -30 23 -42t24 -13q5 0 13.5 2.5t15.5 10.5q4 -7 5 -13.5t1 -12.5
q0 -17 -10.5 -28.5t-24.5 -17t-25 -5.5q-26 0 -44 12t-31 34.5t-26 52.5l-46 118q-10 25 -22 48t-35.5 37t-68.5 14l-84 1l-9 37q19 -1 43 -1.5t54 -0.5q48 1 85.5 22t59 58.5t21.5 88.5q0 81 -44 120.5t-143 39.5q-20 0 -34 -0.5t-23 -2.5v-556q0 -10 1 -29.5t4 -39.5
t8 -35q-6 -5 -17.5 -11.5t-28.5 -6.5zM425 818l-173 -82q-5 2 -10.5 11t-5.5 13l136 114q10 -4 20.5 -13.5t19.5 -20.5t13 -22z" />
    <glyph glyph-name="racute" unicode="&#x155;" horiz-adv-x="441" 
d="M138 -9q-18 0 -32 12.5t-14 34.5v368q0 29 -6.5 40.5t-21.5 11.5q-5 0 -13 -3t-13 -13q-12 15 -12 32q0 20 16 33t44 13q38 0 58 -27t19 -82v-66h-12q10 87 48 131.5t97 44.5q51 0 83 -27t32 -77q0 -33 -18 -54t-41 -22q-24 -1 -35 10q12 19 15.5 33.5t3.5 30.5
q0 32 -15 47t-43 15q-27 0 -51.5 -23t-39.5 -74.5t-15 -138.5v-98t1.5 -63.5t4 -40.5t7.5 -30q-6 -6 -17.5 -12t-29.5 -6zM339 701l-134 -138q-8 0 -20 1.5t-16 5.5l91 150q12 1 28.5 -2t30.5 -7.5t20 -9.5z" />
    <glyph glyph-name="uni0156" unicode="&#x156;" horiz-adv-x="599" 
d="M144 -11q-21 0 -34 12t-14 32v544q0 10 -0.5 30t-3.5 41.5t-9 35.5q16 8 50 15t97 7q141 0 210 -44t69 -145q0 -58 -26 -101t-72 -68t-106 -29l6 14q41 0 67.5 -14.5t43.5 -38.5t30 -54l50 -118q12 -30 23 -42t24 -13q5 0 13.5 2.5t15.5 10.5q4 -7 5 -13.5t1 -12.5
q0 -17 -10.5 -28.5t-24.5 -17t-25 -5.5q-26 0 -44 12t-31 34.5t-26 52.5l-46 118q-10 25 -22 48t-35.5 37t-68.5 14l-84 1l-9 37q19 -1 43 -1.5t54 -0.5q48 1 85.5 22t59 58.5t21.5 88.5q0 81 -44 120.5t-143 39.5q-20 0 -34 -0.5t-23 -2.5v-556q0 -10 1 -29.5t4 -39.5
t8 -35q-6 -5 -17.5 -11.5t-28.5 -6.5zM307 -228q-10 2 -17 6.5t-13 11.5q15 17 23 33.5t8 33.5q0 20 -7.5 30.5t-18 16t-20.5 8.5q0 19 15 36.5t41 17.5q20 0 38.5 -14.5t18.5 -54.5q0 -28 -14.5 -59.5t-53.5 -65.5z" />
    <glyph glyph-name="uni0157" unicode="&#x157;" horiz-adv-x="441" 
d="M138 -9q-18 0 -32 12.5t-14 34.5v368q0 29 -6.5 40.5t-21.5 11.5q-5 0 -13 -3t-13 -13q-12 15 -12 32q0 20 16 33t44 13q38 0 58 -27t19 -82v-66h-12q10 87 48 131.5t97 44.5q51 0 83 -27t32 -77q0 -33 -18 -54t-41 -22q-24 -1 -35 10q12 19 15.5 33.5t3.5 30.5
q0 32 -15 47t-43 15q-27 0 -51.5 -23t-39.5 -74.5t-15 -138.5v-98t1.5 -63.5t4 -40.5t7.5 -30q-6 -6 -17.5 -12t-29.5 -6zM132 -228q-10 2 -17 6.5t-13 11.5q15 17 23 33.5t8 33.5q0 20 -7.5 30.5t-18 16t-20.5 8.5q0 19 15 36.5t41 17.5q20 0 38.5 -14.5t18.5 -54.5
q0 -28 -14.5 -59.5t-53.5 -65.5z" />
    <glyph glyph-name="Rcaron" unicode="&#x158;" horiz-adv-x="599" 
d="M144 -11q-21 0 -34 12t-14 32v544q0 10 -0.5 30t-3.5 41.5t-9 35.5q16 8 50 15t97 7q141 0 210 -44t69 -145q0 -58 -26 -101t-72 -68t-106 -29l6 14q41 0 67.5 -14.5t43.5 -38.5t30 -54l50 -118q12 -30 23 -42t24 -13q5 0 13.5 2.5t15.5 10.5q4 -7 5 -13.5t1 -12.5
q0 -17 -10.5 -28.5t-24.5 -17t-25 -5.5q-26 0 -44 12t-31 34.5t-26 52.5l-46 118q-10 25 -22 48t-35.5 37t-68.5 14l-84 1l-9 37q19 -1 43 -1.5t54 -0.5q48 1 85.5 22t59 58.5t21.5 88.5q0 81 -44 120.5t-143 39.5q-20 0 -34 -0.5t-23 -2.5v-556q0 -10 1 -29.5t4 -39.5
t8 -35q-6 -5 -17.5 -11.5t-28.5 -6.5zM303 741q-6 -2 -15.5 -2.5t-19.5 0t-16 2.5l-126 114q1 5 8 12.5t12 9.5l132 -78l131 78q6 -2 12.5 -9.5t7.5 -12.5z" />
    <glyph glyph-name="rcaron" unicode="&#x159;" horiz-adv-x="441" 
d="M138 -9q-18 0 -32 12.5t-14 34.5v368q0 29 -6.5 40.5t-21.5 11.5q-5 0 -13 -3t-13 -13q-12 15 -12 32q0 20 16 33t44 13q38 0 58 -27t19 -82v-66h-12q10 87 48 131.5t97 44.5q51 0 83 -27t32 -77q0 -33 -18 -54t-41 -22q-24 -1 -35 10q12 19 15.5 33.5t3.5 30.5
q0 32 -15 47t-43 15q-27 0 -51.5 -23t-39.5 -74.5t-15 -138.5v-98t1.5 -63.5t4 -40.5t7.5 -30q-6 -6 -17.5 -12t-29.5 -6zM86 717l114 -87l113 87q6 0 17.5 -3.5t14.5 -7.5l-120 -138q-6 -2 -15.5 -2.5t-19 0.5t-15.5 2l-120 138q1 4 13 7.5t18 3.5z" />
    <glyph glyph-name="Sacute" unicode="&#x15a;" horiz-adv-x="555" 
d="M275 -13q-78 0 -127.5 20t-73 54t-23.5 74q0 19 7 33.5t23 21t44 2.5q-3 -9 -3.5 -19.5t0.5 -22.5q2 -38 21.5 -66t55 -44t84.5 -16q64 0 104.5 30.5t40.5 91.5q0 40 -18.5 68.5t-54 54t-87.5 53.5q-57 33 -100.5 62.5t-67.5 67t-24 90.5q0 59 29 94.5t77.5 52.5
t105.5 17q89 0 144 -32.5t55 -91.5q0 -18 -8.5 -30.5t-31.5 -15.5q-13 -4 -31 0q3 11 2.5 22t-2.5 20q-3 29 -20.5 49t-47.5 31t-68 11q-30 0 -59.5 -9.5t-49 -31.5t-19.5 -61q0 -40 20 -68.5t56 -52.5t85 -51q54 -28 98 -59.5t70.5 -71.5t26.5 -96q0 -34 -12 -66.5t-40 -58
t-72.5 -41t-108.5 -15.5zM426 818l-173 -82q-5 2 -10.5 11t-5.5 13l136 114q10 -4 20.5 -13.5t19.5 -20.5t13 -22z" />
    <glyph glyph-name="sacute" unicode="&#x15b;" horiz-adv-x="468" 
d="M224 -13q-65 0 -106.5 16.5t-60.5 44t-19 60.5q0 17 6 31t20.5 21.5t39.5 2.5q-3 -10 -3.5 -19.5t1.5 -22.5q2 -44 36 -70t93 -26q55 0 90 20t35 59q0 32 -20.5 51.5t-52.5 34.5t-67 32q-39 18 -75 38.5t-59.5 51.5t-23.5 81q0 46 25 74.5t66 41.5t89 13q82 0 128 -26.5
t46 -73.5q0 -17 -8 -30t-29 -16q-7 -2 -14 -1.5t-15 1.5q2 10 2 21.5t-3 20.5q-4 33 -33 50t-77 17q-27 0 -50.5 -6.5t-38 -22t-14.5 -40.5q0 -33 18 -54.5t48 -37t63 -31.5q30 -14 60 -28.5t55.5 -33t40.5 -42.5t15 -59q0 -33 -18.5 -66t-64 -55t-125.5 -22zM373 701
l-134 -138q-8 0 -20 1.5t-16 5.5l91 150q12 1 28.5 -2t30.5 -7.5t20 -9.5z" />
    <glyph glyph-name="Scircumflex" unicode="&#x15c;" horiz-adv-x="555" 
d="M275 -13q-78 0 -127.5 20t-73 54t-23.5 74q0 19 7 33.5t23 21t44 2.5q-3 -9 -3.5 -19.5t0.5 -22.5q2 -38 21.5 -66t55 -44t84.5 -16q64 0 104.5 30.5t40.5 91.5q0 40 -18.5 68.5t-54 54t-87.5 53.5q-57 33 -100.5 62.5t-67.5 67t-24 90.5q0 59 29 94.5t77.5 52.5
t105.5 17q89 0 144 -32.5t55 -91.5q0 -18 -8.5 -30.5t-31.5 -15.5q-13 -4 -31 0q3 11 2.5 22t-2.5 20q-3 29 -20.5 49t-47.5 31t-68 11q-30 0 -59.5 -9.5t-49 -31.5t-19.5 -61q0 -40 20 -68.5t56 -52.5t85 -51q54 -28 98 -59.5t70.5 -71.5t26.5 -96q0 -34 -12 -66.5t-40 -58
t-72.5 -41t-108.5 -15.5zM303 868l126 -114q-1 -4 -7.5 -12t-12.5 -10l-131 78l-132 -78q-5 2 -11.5 10t-8.5 12l126 114q6 2 16 2.5t19.5 0t15.5 -2.5z" />
    <glyph glyph-name="scircumflex" unicode="&#x15d;" horiz-adv-x="468" 
d="M224 -13q-65 0 -106.5 16.5t-60.5 44t-19 60.5q0 17 6 31t20.5 21.5t39.5 2.5q-3 -10 -3.5 -19.5t1.5 -22.5q2 -44 36 -70t93 -26q55 0 90 20t35 59q0 32 -20.5 51.5t-52.5 34.5t-67 32q-39 18 -75 38.5t-59.5 51.5t-23.5 81q0 46 25 74.5t66 41.5t89 13q82 0 128 -26.5
t46 -73.5q0 -17 -8 -30t-29 -16q-7 -2 -14 -1.5t-15 1.5q2 10 2 21.5t-3 20.5q-4 33 -33 50t-77 17q-27 0 -50.5 -6.5t-38 -22t-14.5 -40.5q0 -33 18 -54.5t48 -37t63 -31.5q30 -14 60 -28.5t55.5 -33t40.5 -42.5t15 -59q0 -33 -18.5 -66t-64 -55t-125.5 -22zM118 562
q-6 0 -18 3.5t-14 7.5l120 137q6 2 16 3t19.5 0t15.5 -3l120 -137q-3 -4 -14.5 -7.5t-17.5 -3.5l-113 87z" />
    <glyph glyph-name="Scedilla" unicode="&#x15e;" horiz-adv-x="555" 
d="M275 -13q-78 0 -127.5 20t-73 54t-23.5 74q0 19 7 33.5t23 21t44 2.5q-3 -9 -3.5 -19.5t0.5 -22.5q2 -38 21.5 -66t55 -44t84.5 -16q64 0 104.5 30.5t40.5 91.5q0 40 -18.5 68.5t-54 54t-87.5 53.5q-57 33 -100.5 62.5t-67.5 67t-24 90.5q0 59 29 94.5t77.5 52.5
t105.5 17q89 0 144 -32.5t55 -91.5q0 -18 -8.5 -30.5t-31.5 -15.5q-13 -4 -31 0q3 11 2.5 22t-2.5 20q-3 29 -20.5 49t-47.5 31t-68 11q-30 0 -59.5 -9.5t-49 -31.5t-19.5 -61q0 -40 20 -68.5t56 -52.5t85 -51q54 -28 98 -59.5t70.5 -71.5t26.5 -96q0 -34 -12 -66.5t-40 -58
t-72.5 -41t-108.5 -15.5zM298 8l-11 -56q45 0 70 -19.5t25 -53.5q0 -38 -28.5 -62t-75.5 -24q-37 0 -57.5 10.5t-30.5 21.5q-2 8 2.5 18t9.5 13q6 -5 19.5 -14t40.5 -9q23 0 36.5 11.5t13.5 33.5q0 21 -15.5 35t-56.5 10l16 85h42z" />
    <glyph glyph-name="scedilla" unicode="&#x15f;" horiz-adv-x="468" 
d="M224 -13q-65 0 -106.5 16.5t-60.5 44t-19 60.5q0 17 6 31t20.5 21.5t39.5 2.5q-3 -10 -3.5 -19.5t1.5 -22.5q2 -44 36 -70t93 -26q55 0 90 20t35 59q0 32 -20.5 51.5t-52.5 34.5t-67 32q-39 18 -75 38.5t-59.5 51.5t-23.5 81q0 46 25 74.5t66 41.5t89 13q82 0 128 -26.5
t46 -73.5q0 -17 -8 -30t-29 -16q-7 -2 -14 -1.5t-15 1.5q2 10 2 21.5t-3 20.5q-4 33 -33 50t-77 17q-27 0 -50.5 -6.5t-38 -22t-14.5 -40.5q0 -33 18 -54.5t48 -37t63 -31.5q30 -14 60 -28.5t55.5 -33t40.5 -42.5t15 -59q0 -33 -18.5 -66t-64 -55t-125.5 -22zM254 8l-11 -56
q45 0 70 -19.5t25 -53.5q0 -38 -28.5 -62t-75.5 -24q-37 0 -57.5 10.5t-30.5 21.5q-2 8 2.5 18t9.5 13q6 -5 19.5 -14t40.5 -9q23 0 36.5 11.5t13.5 33.5q0 21 -15.5 35t-56.5 10l16 85h42z" />
    <glyph glyph-name="Scaron" unicode="&#x160;" horiz-adv-x="555" 
d="M275 -13q-78 0 -127.5 20t-73 54t-23.5 74q0 19 7 33.5t23 21t44 2.5q-3 -9 -3.5 -19.5t0.5 -22.5q2 -38 21.5 -66t55 -44t84.5 -16q64 0 104.5 30.5t40.5 91.5q0 40 -18.5 68.5t-54 54t-87.5 53.5q-57 33 -100.5 62.5t-67.5 67t-24 90.5q0 59 29 94.5t77.5 52.5
t105.5 17q89 0 144 -32.5t55 -91.5q0 -18 -8.5 -30.5t-31.5 -15.5q-13 -4 -31 0q3 11 2.5 22t-2.5 20q-3 29 -20.5 49t-47.5 31t-68 11q-30 0 -59.5 -9.5t-49 -31.5t-19.5 -61q0 -40 20 -68.5t56 -52.5t85 -51q54 -28 98 -59.5t70.5 -71.5t26.5 -96q0 -34 -12 -66.5t-40 -58
t-72.5 -41t-108.5 -15.5zM305 741q-6 -2 -15.5 -2.5t-19.5 0t-16 2.5l-126 114q1 5 8 12.5t12 9.5l132 -78l131 78q6 -2 12.5 -9.5t7.5 -12.5z" />
    <glyph glyph-name="scaron" unicode="&#x161;" horiz-adv-x="468" 
d="M224 -13q-65 0 -106.5 16.5t-60.5 44t-19 60.5q0 17 6 31t20.5 21.5t39.5 2.5q-3 -10 -3.5 -19.5t1.5 -22.5q2 -44 36 -70t93 -26q55 0 90 20t35 59q0 32 -20.5 51.5t-52.5 34.5t-67 32q-39 18 -75 38.5t-59.5 51.5t-23.5 81q0 46 25 74.5t66 41.5t89 13q82 0 128 -26.5
t46 -73.5q0 -17 -8 -30t-29 -16q-7 -2 -14 -1.5t-15 1.5q2 10 2 21.5t-3 20.5q-4 33 -33 50t-77 17q-27 0 -50.5 -6.5t-38 -22t-14.5 -40.5q0 -33 18 -54.5t48 -37t63 -31.5q30 -14 60 -28.5t55.5 -33t40.5 -42.5t15 -59q0 -33 -18.5 -66t-64 -55t-125.5 -22zM120 717
l114 -87l112 87q7 0 18.5 -3t13.5 -8l-119 -137q-6 -2 -15.5 -3t-19.5 0t-16 3l-120 137q2 5 14 8t18 3z" />
    <glyph glyph-name="uni0162" unicode="&#x162;" horiz-adv-x="528" 
d="M271 -11q-20 0 -33 12t-13 32l-1 643l80 -5l1 -557q0 -29 2.5 -57t10.5 -50q-6 -5 -18 -11.5t-29 -6.5zM40 622q-9 4 -15 15t-8 24t1.5 22.5t12.5 9.5h467q9 0 12.5 -9.5t1 -22.5t-8.5 -24t-14 -15q-34 8 -72 16t-77.5 13.5t-77.5 5.5q-37 0 -75.5 -5.5t-75.5 -13.5
t-71 -16zM296 8l-11 -56q45 0 70 -19.5t25 -53.5q0 -38 -28.5 -62t-75.5 -24q-37 0 -57.5 10.5t-30.5 21.5q-2 8 2.5 18t9.5 13q6 -5 19.5 -14t40.5 -9q23 0 36.5 11.5t13.5 33.5q0 21 -15.5 35t-56.5 10l16 85h42z" />
    <glyph glyph-name="uni0163" unicode="&#x163;" horiz-adv-x="339" 
d="M196 -11q-48 0 -74.5 29.5t-26.5 81.5v496q0 21 13 32.5t34 11.5q18 0 29 -6.5t17 -11.5q-9 -28 -11 -73t-2 -122v-322q0 -25 12 -39.5t36 -14.5q14 0 28 5t19 16q6 -8 8.5 -16.5t2.5 -15.5q0 -22 -24 -36.5t-61 -14.5zM21 462l1 23q1 11 7.5 16.5t14.5 5.5h172
q4 0 16 0.5t26.5 1t26.5 1t16 0.5l-1 -22q-1 -11 -7 -17t-15 -6h-197q-10 0 -30 -0.5t-30 -2.5zM209 8l-11 -56q45 0 70 -19.5t25 -53.5q0 -38 -28.5 -62t-75.5 -24q-37 0 -57.5 10.5t-30.5 21.5q-2 8 2.5 18t9.5 13q6 -5 19.5 -14t40.5 -9q23 0 36.5 11.5t13.5 33.5
q0 21 -15.5 35t-56.5 10l16 85h42z" />
    <glyph glyph-name="Tcaron" unicode="&#x164;" horiz-adv-x="528" 
d="M271 -11q-20 0 -33 12t-13 32l-1 643l80 -5l1 -557q0 -29 2.5 -57t10.5 -50q-6 -5 -18 -11.5t-29 -6.5zM40 622q-9 4 -15 15t-8 24t1.5 22.5t12.5 9.5h467q9 0 12.5 -9.5t1 -22.5t-8.5 -24t-14 -15q-34 8 -72 16t-77.5 13.5t-77.5 5.5q-37 0 -75.5 -5.5t-75.5 -13.5
t-71 -16zM290 741q-6 -2 -15.5 -2.5t-19.5 0t-16 2.5l-126 114q1 5 8 12.5t12 9.5l132 -78l131 78q6 -2 12.5 -9.5t7.5 -12.5z" />
    <glyph glyph-name="tcaron" unicode="&#x165;" horiz-adv-x="362" 
d="M196 -11q-48 0 -74.5 29.5t-26.5 81.5v496q0 21 13 32.5t34 11.5q18 0 29 -6.5t17 -11.5q-9 -28 -11 -73t-2 -122v-322q0 -25 12 -39.5t36 -14.5q14 0 28 5t19 16q6 -8 8.5 -16.5t2.5 -15.5q0 -22 -24 -36.5t-61 -14.5zM21 462l1 23q1 11 7.5 16.5t14.5 5.5h172
q4 0 16 0.5t26.5 1t26.5 1t16 0.5l-1 -22q-1 -11 -7 -17t-15 -6h-197q-10 0 -30 -0.5t-30 -2.5zM239 558q4 33 1.5 73t-12.5 77q17 6 38 5.5t37 -5.5q1 -39 -6.5 -78t-18.5 -72h-39z" />
    <glyph glyph-name="Utilde" unicode="&#x168;" horiz-adv-x="658" 
d="M573 658v-353q0 -157 -61.5 -237.5t-183.5 -80.5q-119 0 -178 77t-59 241v272q0 30 -2.5 57.5t-9.5 49.5q6 6 17.5 12t28.5 6q20 0 33 -11.5t13 -32.5v-356q0 -145 38 -211.5t119 -66.5q84 0 125 71t41 207v275q0 30 -2.5 57.5t-10.5 49.5q6 6 17.5 12t28.5 6
q20 0 33 -11.5t13 -32.5zM472 836q-7 -36 -28 -59t-54 -23q-24 0 -45 10.5t-40.5 21t-41.5 10.5q-24 0 -37.5 -10.5t-20.5 -29.5q-5 -1 -12 2t-12 8q7 47 31.5 66t54.5 19q26 0 46.5 -10.5t40.5 -21t44 -10.5q22 0 32 10.5t18 25.5q9 0 14 -2t10 -7z" />
    <glyph glyph-name="utilde" unicode="&#x169;" horiz-adv-x="566" 
d="M428 521q20 0 33 -12.5t13 -35.5l1 -370q0 -28 6.5 -39.5t21.5 -11.5q5 0 13 3t13 12q12 -15 12 -31q0 -20 -15.5 -33t-44.5 -13q-38 0 -58 25.5t-20 76.5v71l15 18q-6 -61 -30.5 -104t-63.5 -66.5t-89 -23.5q-80 0 -118 47t-39 163v198q0 27 -2.5 56t-10.5 52
q9 6 19.5 12t27.5 6q20 0 32.5 -11.5t12.5 -33.5l1 -269q0 -63 9.5 -102t31.5 -56.5t59 -17.5q24 0 48 13t44.5 41t33 73.5t12.5 110.5q0 60 -0.5 99t-1.5 63.5t-4 41t-8 30.5q6 5 17.5 11.5t28.5 6.5zM409 667q-6 -37 -26.5 -61.5t-53.5 -24.5q-25 0 -44 12t-37 24t-41 12
t-38 -12t-22 -31q-5 -1 -11.5 2t-11.5 7q7 46 32.5 65.5t54.5 19.5q27 0 45.5 -12.5t37.5 -24t42 -11.5t33.5 12.5t17.5 31.5q7 0 12.5 -2t9.5 -7z" />
    <glyph glyph-name="Umacron" unicode="&#x16a;" horiz-adv-x="658" 
d="M573 658v-353q0 -157 -61.5 -237.5t-183.5 -80.5q-119 0 -178 77t-59 241v272q0 30 -2.5 57.5t-9.5 49.5q6 6 17.5 12t28.5 6q20 0 33 -11.5t13 -32.5v-356q0 -145 38 -211.5t119 -66.5q84 0 125 71t41 207v275q0 30 -2.5 57.5t-10.5 49.5q6 6 17.5 12t28.5 6
q20 0 33 -11.5t13 -32.5zM200 816h257q8 -22 0 -44h-257q-8 22 0 44z" />
    <glyph glyph-name="umacron" unicode="&#x16b;" horiz-adv-x="566" 
d="M428 521q20 0 33 -12.5t13 -35.5l1 -370q0 -28 6.5 -39.5t21.5 -11.5q5 0 13 3t13 12q12 -15 12 -31q0 -20 -15.5 -33t-44.5 -13q-38 0 -58 25.5t-20 76.5v71l15 18q-6 -61 -30.5 -104t-63.5 -66.5t-89 -23.5q-80 0 -118 47t-39 163v198q0 27 -2.5 56t-10.5 52
q9 6 19.5 12t27.5 6q20 0 32.5 -11.5t12.5 -33.5l1 -269q0 -63 9.5 -102t31.5 -56.5t59 -17.5q24 0 48 13t44.5 41t33 73.5t12.5 110.5q0 60 -0.5 99t-1.5 63.5t-4 41t-8 30.5q6 5 17.5 11.5t28.5 6.5zM140 643h257q8 -22 0 -43h-257q-8 21 0 43z" />
    <glyph glyph-name="Ubreve" unicode="&#x16c;" horiz-adv-x="658" 
d="M573 658v-353q0 -157 -61.5 -237.5t-183.5 -80.5q-119 0 -178 77t-59 241v272q0 30 -2.5 57.5t-9.5 49.5q6 6 17.5 12t28.5 6q20 0 33 -11.5t13 -32.5v-356q0 -145 38 -211.5t119 -66.5q84 0 125 71t41 207v275q0 30 -2.5 57.5t-10.5 49.5q6 6 17.5 12t28.5 6
q20 0 33 -11.5t13 -32.5zM460 850q-9 -31 -26.5 -57t-43.5 -41t-63 -15t-63 15.5t-42 41t-24 53.5q9 3 17.5 6.5t16.5 6.5q12 -32 38.5 -48.5t61.5 -16.5q37 0 61.5 18t35.5 46q9 -2 16 -4.5t15 -4.5z" />
    <glyph glyph-name="ubreve" unicode="&#x16d;" horiz-adv-x="566" 
d="M428 521q20 0 33 -12.5t13 -35.5l1 -370q0 -28 6.5 -39.5t21.5 -11.5q5 0 13 3t13 12q12 -15 12 -31q0 -20 -15.5 -33t-44.5 -13q-38 0 -58 25.5t-20 76.5v71l15 18q-6 -61 -30.5 -104t-63.5 -66.5t-89 -23.5q-80 0 -118 47t-39 163v198q0 27 -2.5 56t-10.5 52
q9 6 19.5 12t27.5 6q20 0 32.5 -11.5t12.5 -33.5l1 -269q0 -63 9.5 -102t31.5 -56.5t59 -17.5q24 0 48 13t44.5 41t33 73.5t12.5 110.5q0 60 -0.5 99t-1.5 63.5t-4 41t-8 30.5q6 5 17.5 11.5t28.5 6.5zM270 625q31 0 52 12t35.5 30t21.5 36l16 -4t16 -6q-9 -33 -27 -61.5
t-46.5 -46t-69.5 -17.5q-46 0 -76 19.5t-46.5 47.5t-23.5 56q9 6 17 9t16 4q9 -20 24 -38t37.5 -29.5t53.5 -11.5z" />
    <glyph glyph-name="Uring" unicode="&#x16e;" horiz-adv-x="658" 
d="M573 658v-353q0 -157 -61.5 -237.5t-183.5 -80.5q-119 0 -178 77t-59 241v272q0 30 -2.5 57.5t-9.5 49.5q6 6 17.5 12t28.5 6q20 0 33 -11.5t13 -32.5v-356q0 -145 38 -211.5t119 -66.5q84 0 125 71t41 207v275q0 30 -2.5 57.5t-10.5 49.5q6 6 17.5 12t28.5 6
q20 0 33 -11.5t13 -32.5zM333 906q40 0 64.5 -22t24.5 -59q-1 -39 -26 -61.5t-67 -22.5q-40 0 -64.5 22t-24.5 58q0 39 26 62t67 23zM331 877q-21 0 -34 -14t-13 -40q0 -25 13 -39.5t34 -14.5q22 0 34.5 14.5t12.5 39.5q0 26 -12.5 40t-34.5 14z" />
    <glyph glyph-name="uring" unicode="&#x16f;" horiz-adv-x="566" 
d="M428 521q20 0 33 -12.5t13 -35.5l1 -370q0 -28 6.5 -39.5t21.5 -11.5q5 0 13 3t13 12q12 -15 12 -31q0 -20 -15.5 -33t-44.5 -13q-38 0 -58 25.5t-20 76.5v71l15 18q-6 -61 -30.5 -104t-63.5 -66.5t-89 -23.5q-80 0 -118 47t-39 163v198q0 27 -2.5 56t-10.5 52
q9 6 19.5 12t27.5 6q20 0 32.5 -11.5t12.5 -33.5l1 -269q0 -63 9.5 -102t31.5 -56.5t59 -17.5q24 0 48 13t44.5 41t33 73.5t12.5 110.5q0 60 -0.5 99t-1.5 63.5t-4 41t-8 30.5q6 5 17.5 11.5t28.5 6.5zM273 721q40 0 64.5 -22t24.5 -59q-1 -39 -26 -61.5t-67 -22.5
q-40 0 -64.5 22t-24.5 58q0 39 26 62t67 23zM271 692q-21 0 -34 -14t-13 -40q0 -25 13 -39.5t34 -14.5q22 0 34.5 14.5t12.5 39.5q0 26 -12.5 40t-34.5 14z" />
    <glyph glyph-name="Uhungarumlaut" unicode="&#x170;" horiz-adv-x="658" 
d="M573 658v-353q0 -157 -61.5 -237.5t-183.5 -80.5q-119 0 -178 77t-59 241v272q0 30 -2.5 57.5t-9.5 49.5q6 6 17.5 12t28.5 6q20 0 33 -11.5t13 -32.5v-356q0 -145 38 -211.5t119 -66.5q84 0 125 71t41 207v275q0 30 -2.5 57.5t-10.5 49.5q6 6 17.5 12t28.5 6
q20 0 33 -11.5t13 -32.5zM405 847l-148 -116q-6 2 -13 9t-9 10l104 139q11 -2 23.5 -8t24 -15t18.5 -19zM536 845l-149 -116q-5 2 -12 8.5t-9 10.5l105 138q11 -1 23 -7t23.5 -15t18.5 -19z" />
    <glyph glyph-name="uhungarumlaut" unicode="&#x171;" horiz-adv-x="566" 
d="M428 521q20 0 33 -12.5t13 -35.5l1 -370q0 -28 6.5 -39.5t21.5 -11.5q5 0 13 3t13 12q12 -15 12 -31q0 -20 -15.5 -33t-44.5 -13q-38 0 -58 25.5t-20 76.5v71l15 18q-6 -61 -30.5 -104t-63.5 -66.5t-89 -23.5q-80 0 -118 47t-39 163v198q0 27 -2.5 56t-10.5 52
q9 6 19.5 12t27.5 6q20 0 32.5 -11.5t12.5 -33.5l1 -269q0 -63 9.5 -102t31.5 -56.5t59 -17.5q24 0 48 13t44.5 41t33 73.5t12.5 110.5q0 60 -0.5 99t-1.5 63.5t-4 41t-8 30.5q6 5 17.5 11.5t28.5 6.5zM344 693l-154 -149q-6 2 -13.5 8t-10.5 10l116 164q15 -1 33 -10
t29 -23zM488 694l-154 -150q-6 2 -13.5 8.5t-10.5 9.5l116 164q16 -1 33 -10t29 -22z" />
    <glyph glyph-name="Uogonek" unicode="&#x172;" horiz-adv-x="658" 
d="M573 658v-353q0 -157 -61.5 -237.5t-183.5 -80.5q-119 0 -178 77t-59 241v272q0 30 -2.5 57.5t-9.5 49.5q6 6 17.5 12t28.5 6q20 0 33 -11.5t13 -32.5v-356q0 -145 38 -211.5t119 -66.5q84 0 125 71t41 207v275q0 30 -2.5 57.5t-10.5 49.5q6 6 17.5 12t28.5 6
q20 0 33 -11.5t13 -32.5zM382 -171q-21 0 -42 7.5t-35 24.5t-14 45q0 32 18.5 54.5t47.5 38t61 24.5l9 -19q-37 -18 -57.5 -38t-20.5 -51q0 -19 11.5 -33.5t38.5 -14.5q32 0 53 17.5t31 36.5q7 -4 10 -10t0 -16q-12 -28 -41.5 -47t-69.5 -19z" />
    <glyph glyph-name="uogonek" unicode="&#x173;" horiz-adv-x="566" 
d="M428 521q20 0 33 -12.5t13 -35.5l1 -370q0 -28 6.5 -39.5t21.5 -11.5q5 0 13 3t13 12q12 -15 12 -31q0 -20 -15.5 -33t-44.5 -13q-38 0 -58 25.5t-20 76.5v71l15 18q-6 -61 -30.5 -104t-63.5 -66.5t-89 -23.5q-80 0 -118 47t-39 163v198q0 27 -2.5 56t-10.5 52
q9 6 19.5 12t27.5 6q20 0 32.5 -11.5t12.5 -33.5l1 -269q0 -63 9.5 -102t31.5 -56.5t59 -17.5q24 0 48 13t44.5 41t33 73.5t12.5 110.5q0 60 -0.5 99t-1.5 63.5t-4 41t-8 30.5q6 5 17.5 11.5t28.5 6.5zM473 -175q-21 0 -42 7.5t-35 24.5t-14 45q0 32 18.5 54.5t47.5 38
t61 24.5l9 -19q-37 -18 -57.5 -38t-20.5 -51q0 -19 11.5 -33.5t38.5 -14.5q32 0 53 17.5t31 36.5q7 -4 10 -10t0 -16q-12 -28 -41.5 -47t-69.5 -19z" />
    <glyph glyph-name="Wcircumflex" unicode="&#x174;" horiz-adv-x="922" 
d="M851 704q24 0 36 -9t11 -27q0 -9 -3 -21.5t-6 -24.5l-174 -620q-16 -7 -30 -10t-25 -3q-19 0 -32.5 6.5t-17.5 19.5l-144 509l-150 -522q-16 -7 -29.5 -10t-23.5 -3q-22 0 -36 6.5t-17 19.5l-166 626q-3 11 -9.5 24.5t-14.5 21.5q7 8 19 13.5t30 5.5q21 0 34.5 -8
t17.5 -24l152 -616l146 515q4 18 2.5 29.5t-5.5 19.5q12 6 28 9.5t28 3.5q14 0 25.5 -4.5t14.5 -13.5l159 -558l138 582q2 8 4 16.5t2 15.5q0 8 -1.5 13.5t-4.5 10.5q9 3 18.5 5t23.5 2zM489 868l126 -114q-1 -4 -7.5 -12t-12.5 -10l-131 78l-132 -78q-5 2 -11.5 10t-8.5 12
l126 114q6 2 16 2.5t19.5 0t15.5 -2.5z" />
    <glyph glyph-name="wcircumflex" unicode="&#x175;" horiz-adv-x="781" 
d="M221 -11q-15 0 -27.5 7t-18.5 23l-135 430q-3 8 -9.5 23t-14.5 23q7 7 18.5 13t28.5 6q19 0 31.5 -8t16.5 -25l123 -435l105 405q2 6 3.5 15t1.5 17q0 7 -1 13t-4 10q12 5 27 7.5t27 2.5q16 0 30.5 -5.5t20.5 -20.5l117 -444l112 405q2 7 3.5 15.5t1.5 16.5q0 7 -1 13
t-4 10q9 4 18 6t22 2q24 0 35.5 -9t10.5 -28q0 -8 -2.5 -20.5t-6.5 -24.5l-145 -430q-14 -6 -27 -9.5t-27 -3.5q-15 0 -29.5 7t-18.5 23l-110 412l-113 -429q-15 -6 -29.5 -9.5t-29.5 -3.5zM274 562q-6 0 -18 3.5t-14 7.5l120 137q6 2 16 3t19.5 0t15.5 -3l120 -137
q-3 -4 -14.5 -7.5t-17.5 -3.5l-113 87z" />
    <glyph glyph-name="Ycircumflex" unicode="&#x176;" horiz-adv-x="553" 
d="M273 228q-13 1 -21.5 7t-14.5 15t-11 17l-179 364q-5 10 -14.5 23.5t-19.5 23.5q7 8 22 17t36 9q23 0 34.5 -12t20.5 -32l178 -382l-34 -14l175 372q10 22 10 35q0 7 -2 13.5t-5 11.5q9 4 18.5 6t25.5 2q20 0 29.5 -11.5t10.5 -27.5q0 -10 -5.5 -24t-14.5 -28l-199 -371z
M317 277v-163q0 -29 2.5 -57t10.5 -50q-6 -5 -17.5 -11.5t-28.5 -6.5q-20 0 -33 12t-13 32l-1 233zM317 868l126 -114q-1 -4 -7.5 -12t-12.5 -10l-131 78l-132 -78q-5 2 -11.5 10t-8.5 12l126 114q6 2 16 2.5t19.5 0t15.5 -2.5z" />
    <glyph glyph-name="ycircumflex" unicode="&#x177;" horiz-adv-x="546" 
d="M240 -233q-43 0 -82 10.5t-64 34t-25 63.5q0 28 16.5 47t43.5 19t39 -15q-15 -9 -20 -23t-5 -24q0 -28 14.5 -45t36.5 -25t46 -8q83 0 121.5 63t38.5 184q0 17 1 39.5t3 45t3 42.5l11 16q-10 -92 -57.5 -146t-130.5 -54q-75 0 -113 47.5t-39 162.5v194q0 28 -2.5 56.5
t-10.5 51.5q9 6 19.5 12t27.5 6q20 0 32.5 -11.5t12.5 -33.5l1 -265q0 -91 21 -133t72 -42q28 0 53.5 13t46.5 41t33 73.5t12 110.5q0 59 -0.5 97t-1.5 62t-4 40t-8 30q6 5 17.5 11.5t28.5 6.5q20 0 33 -12.5t13 -35.5l1 -424q0 -105 -30.5 -167t-83.5 -88.5t-121 -26.5z
M162 562q-6 0 -18 3.5t-14 7.5l120 137q6 2 16 3t19.5 0t15.5 -3l120 -137q-3 -4 -14.5 -7.5t-17.5 -3.5l-113 87z" />
    <glyph glyph-name="Ydieresis" unicode="&#x178;" horiz-adv-x="553" 
d="M273 228q-13 1 -21.5 7t-14.5 15t-11 17l-179 364q-5 10 -14.5 23.5t-19.5 23.5q7 8 22 17t36 9q23 0 34.5 -12t20.5 -32l178 -382l-34 -14l175 372q10 22 10 35q0 7 -2 13.5t-5 11.5q9 4 18.5 6t25.5 2q20 0 29.5 -11.5t10.5 -27.5q0 -10 -5.5 -24t-14.5 -28l-199 -371z
M317 277v-163q0 -29 2.5 -57t10.5 -50q-6 -5 -17.5 -11.5t-28.5 -6.5q-20 0 -33 12t-13 32l-1 233zM203 758q-21 0 -36 15t-15 36t15 36t36 15t36 -15t15 -36t-15 -36t-36 -15zM388 758q-21 0 -36 15t-15 36t15 36t36 15t36 -15t15 -36t-15 -36t-36 -15z" />
    <glyph glyph-name="Zacute" unicode="&#x179;" horiz-adv-x="573" 
d="M63 -6l-15 23q0 21 6 38.5t20 35.5l384 560l12 -19l-270 -9q-37 0 -58 -13.5t-26 -35.5q-4 -21 2 -36t21 -29q-20 -2 -40 6q-21 5 -35 29t-14 52q0 42 35 71t108 28l187 -4q42 0 72 1t50 7l17 -24q0 -24 -5.5 -41.5t-18.5 -35.5l-390 -560l-8 24l285 8q49 1 70.5 18
t25.5 38q6 23 -1.5 41.5t-18.5 30.5q11 1 15.5 0.5t10.5 -1.5q20 -4 33.5 -19t20.5 -35t7 -40q0 -45 -34 -74.5t-106 -29.5l-234 3q-29 1 -54.5 -0.5t-53.5 -7.5zM437 818l-173 -82q-5 2 -10.5 11t-5.5 13l136 114q10 -4 20.5 -13.5t19.5 -20.5t13 -22z" />
    <glyph glyph-name="zacute" unicode="&#x17a;" horiz-adv-x="490" 
d="M48 -7l-12 19q0 17 4.5 31t16.5 28l320 393l12 -12l-221 -9q-30 -1 -45.5 -13.5t-20.5 -27.5q-4 -14 -1.5 -26.5t9.5 -21.5q-5 -2 -11 -2t-13 2q-26 7 -39 29.5t-13 42.5q0 36 30.5 61.5t94.5 24.5l174 -4q31 0 54 1t39 6l11 -20q0 -19 -3 -34t-18 -33l-308 -382l-13 17
l228 5q37 1 55 16.5t22 35.5q4 15 0.5 29t-11.5 22q15 1 25 -1q20 -5 31 -19t15.5 -30.5t4.5 -29.5q0 -41 -32.5 -67.5t-90.5 -26.5l-200 3q-21 0 -46.5 -1t-47.5 -6zM384 702l-134 -138q-8 0 -20 1.5t-16 5.5l91 150q12 1 28.5 -2t30.5 -7.5t20 -9.5z" />
    <glyph glyph-name="Zdotaccent" unicode="&#x17b;" horiz-adv-x="573" 
d="M63 -6l-15 23q0 21 6 38.5t20 35.5l384 560l12 -19l-270 -9q-37 0 -58 -13.5t-26 -35.5q-4 -21 2 -36t21 -29q-20 -2 -40 6q-21 5 -35 29t-14 52q0 42 35 71t108 28l187 -4q42 0 72 1t50 7l17 -24q0 -24 -5.5 -41.5t-18.5 -35.5l-390 -560l-8 24l285 8q49 1 70.5 18
t25.5 38q6 23 -1.5 41.5t-18.5 30.5q11 1 15.5 0.5t10.5 -1.5q20 -4 33.5 -19t20.5 -35t7 -40q0 -45 -34 -74.5t-106 -29.5l-234 3q-29 1 -54.5 -0.5t-53.5 -7.5zM290 753q-20 0 -35.5 15t-15.5 36t15.5 36t35.5 15q21 0 36.5 -15t15.5 -36t-15.5 -36t-36.5 -15z" />
    <glyph glyph-name="zdotaccent" unicode="&#x17c;" horiz-adv-x="490" 
d="M48 -7l-12 19q0 17 4.5 31t16.5 28l320 393l12 -12l-221 -9q-30 -1 -45.5 -13.5t-20.5 -27.5q-4 -14 -1.5 -26.5t9.5 -21.5q-5 -2 -11 -2t-13 2q-26 7 -39 29.5t-13 42.5q0 36 30.5 61.5t94.5 24.5l174 -4q31 0 54 1t39 6l11 -20q0 -19 -3 -34t-18 -33l-308 -382l-13 17
l228 5q37 1 55 16.5t22 35.5q4 15 0.5 29t-11.5 22q15 1 25 -1q20 -5 31 -19t15.5 -30.5t4.5 -29.5q0 -41 -32.5 -67.5t-90.5 -26.5l-200 3q-21 0 -46.5 -1t-47.5 -6zM244 574q-20 0 -35.5 15.5t-15.5 36.5t15.5 36t35.5 15q21 0 36 -15t15 -36t-15 -36.5t-36 -15.5z" />
    <glyph glyph-name="Zcaron" unicode="&#x17d;" horiz-adv-x="573" 
d="M63 -6l-15 23q0 21 6 38.5t20 35.5l384 560l12 -19l-270 -9q-37 0 -58 -13.5t-26 -35.5q-4 -21 2 -36t21 -29q-20 -2 -40 6q-21 5 -35 29t-14 52q0 42 35 71t108 28l187 -4q42 0 72 1t50 7l17 -24q0 -24 -5.5 -41.5t-18.5 -35.5l-390 -560l-8 24l285 8q49 1 70.5 18
t25.5 38q6 23 -1.5 41.5t-18.5 30.5q11 1 15.5 0.5t10.5 -1.5q20 -4 33.5 -19t20.5 -35t7 -40q0 -45 -34 -74.5t-106 -29.5l-234 3q-29 1 -54.5 -0.5t-53.5 -7.5zM315 741q-6 -2 -15.5 -2.5t-19.5 0t-16 2.5l-126 114q1 5 8 12.5t12 9.5l132 -78l131 78q6 -2 12.5 -9.5
t7.5 -12.5z" />
    <glyph glyph-name="zcaron" unicode="&#x17e;" horiz-adv-x="490" 
d="M48 -7l-12 19q0 17 4.5 31t16.5 28l320 393l12 -12l-221 -9q-30 -1 -45.5 -13.5t-20.5 -27.5q-4 -14 -1.5 -26.5t9.5 -21.5q-5 -2 -11 -2t-13 2q-26 7 -39 29.5t-13 42.5q0 36 30.5 61.5t94.5 24.5l174 -4q31 0 54 1t39 6l11 -20q0 -19 -3 -34t-18 -33l-308 -382l-13 17
l228 5q37 1 55 16.5t22 35.5q4 15 0.5 29t-11.5 22q15 1 25 -1q20 -5 31 -19t15.5 -30.5t4.5 -29.5q0 -41 -32.5 -67.5t-90.5 -26.5l-200 3q-21 0 -46.5 -1t-47.5 -6zM131 718l115 -87l112 87q7 0 18 -3.5t14 -7.5l-120 -138q-6 -2 -15 -2.5t-19 0.5t-16 2l-120 138
q2 4 14 7.5t17 3.5z" />
    <glyph glyph-name="uni018F" unicode="&#x18f;" horiz-adv-x="605" 
d="M277 706q129 0 202 -91.5t73 -267.5q0 -111 -31.5 -191.5t-93.5 -124.5t-153 -44q-64 0 -114 21.5t-78.5 63.5t-28.5 104q0 66 29 110.5t82.5 67.5t126.5 23q42 0 81 -2t75.5 -7t68.5 -15l-3 -32q-23 6 -54.5 10t-64.5 6.5t-60 2.5q-39 0 -74 -9t-62.5 -29.5t-43.5 -54
t-16 -83.5q0 -55 21 -85.5t53 -43.5t65 -13q58 0 100.5 36t66 107t23.5 174q0 89 -15.5 149t-44.5 96t-67 51.5t-82 15.5q-41 0 -77.5 -11t-64 -33.5t-40.5 -55.5q-9 4 -13.5 15t5.5 35q23 52 80.5 78.5t128.5 26.5z" />
    <glyph glyph-name="florin" unicode="&#x192;" horiz-adv-x="382" 
d="M112 -173q-20 0 -31.5 12t-10.5 32l34 685q2 34 11 67t28.5 59.5t53.5 42.5t84 16q60 0 95 -22t33 -63q-1 -31 -21 -48t-40 -17q-10 0 -18.5 2.5t-13.5 7.5q13 15 17 28.5t5 24.5q2 29 -15 41t-45 12q-40 0 -59 -23.5t-25.5 -61t-9.5 -79.5l-32 -591q-1 -26 0 -55.5
t7 -51.5q-8 -7 -19.5 -12.5t-27.5 -5.5zM25 462l2 23q2 11 8.5 16.5t14.5 5.5h194q4 0 15 0.5t25 1t25.5 1t15.5 0.5l-2 -22q-1 -11 -7.5 -17t-15.5 -6h-215q-10 0 -30 -0.5t-30 -2.5z" />
    <glyph glyph-name="Ohorn" unicode="&#x1a0;" horiz-adv-x="651" 
d="M325 -13q-128 0 -197 88.5t-69 270.5t69 271t197 89q129 0 198 -89t69 -271t-69 -270.5t-198 -88.5zM325 24q88 0 133 77.5t45 244.5q0 168 -45 245.5t-133 77.5q-86 0 -131.5 -77.5t-45.5 -245.5q0 -167 45.5 -244.5t131.5 -77.5zM494 611l-13 32q31 11 43 26t12 34
q0 11 -5.5 25t-15.5 26q7 5 17.5 10.5t22.5 11t20 6.5q12 -11 19 -31t7 -39q0 -24 -14 -43.5t-38 -33.5t-55 -24z" />
    <glyph glyph-name="ohorn" unicode="&#x1a1;" horiz-adv-x="547" 
d="M273 -13q-108 0 -168.5 70.5t-60.5 196.5t60.5 196.5t168.5 70.5q109 0 169.5 -70.5t60.5 -196.5t-60.5 -196.5t-169.5 -70.5zM273 23q70 0 107 60t37 171t-37 170.5t-107 59.5q-69 0 -106.5 -59.5t-37.5 -170.5t37.5 -171t106.5 -60zM370 470l-13 32q30 11 42 25.5
t12 33.5q0 12 -5 26t-15 25q6 6 16.5 11.5t22.5 11t21 6.5q11 -11 18 -31t7 -39q0 -24 -14 -43.5t-37.5 -33.5t-54.5 -24z" />
    <glyph glyph-name="Uhorn" unicode="&#x1af;" horiz-adv-x="658" 
d="M573 658v-353q0 -157 -61.5 -237.5t-183.5 -80.5q-119 0 -178 77t-59 241v272q0 30 -2.5 57.5t-9.5 49.5q6 6 17.5 12t28.5 6q20 0 33 -11.5t13 -32.5v-356q0 -145 38 -211.5t119 -66.5q84 0 125 71t41 207v275q0 30 -2.5 57.5t-10.5 49.5q6 6 17.5 12t28.5 6
q20 0 33 -11.5t13 -32.5zM522 667l-12 32q30 11 42 26t12 34q0 12 -5 25.5t-15 25.5q6 5 16.5 11t22.5 11t21 7q11 -12 18 -32t7 -39q0 -24 -14 -43t-37.5 -33t-55.5 -25z" />
    <glyph glyph-name="uhorn" unicode="&#x1b0;" horiz-adv-x="566" 
d="M428 521q20 0 33 -12.5t13 -35.5l1 -370q0 -28 6.5 -39.5t21.5 -11.5q5 0 13 3t13 12q12 -15 12 -31q0 -20 -15.5 -33t-44.5 -13q-38 0 -58 25.5t-20 76.5v71l15 18q-6 -61 -30.5 -104t-63.5 -66.5t-89 -23.5q-80 0 -118 47t-39 163v198q0 27 -2.5 56t-10.5 52
q9 6 19.5 12t27.5 6q20 0 32.5 -11.5t12.5 -33.5l1 -269q0 -63 9.5 -102t31.5 -56.5t59 -17.5q24 0 48 13t44.5 41t33 73.5t12.5 110.5q0 60 -0.5 99t-1.5 63.5t-4 41t-8 30.5q6 5 17.5 11.5t28.5 6.5zM448 469l-13 32q30 11 42 26t12 34q0 11 -5 25t-15 26q6 5 16.5 10.5
t23 11t20.5 7.5q11 -12 18.5 -32t7.5 -39q0 -24 -14.5 -43.5t-38 -33.5t-54.5 -24z" />
    <glyph glyph-name="uni01CD" unicode="&#x1cd;" horiz-adv-x="592" 
d="M319 706q17 0 30.5 -6.5t17.5 -23.5l201 -621q4 -12 10 -24.5t14 -22.5q-6 -7 -17 -13t-30 -6q-18 0 -32.5 8t-17.5 25l-201 652l13 -1l-186 -620q-2 -8 -4 -16.5t-2 -16.5q0 -7 1.5 -13t4.5 -10q-9 -3 -19 -5.5t-25 -2.5q-22 0 -34 9t-11 28q0 8 3 20.5t6 24.5l212 622
q33 13 66 13zM154 268h317v-48h-317v48zM333 741q-6 -2 -15.5 -2.5t-19.5 0t-16 2.5l-126 114q1 5 8 12.5t12 9.5l132 -78l131 78q6 -2 12.5 -9.5t7.5 -12.5z" />
    <glyph glyph-name="uni01CE" unicode="&#x1ce;" horiz-adv-x="550" 
d="M470 -10q-43 0 -65 29.5t-22 94.5v89l19 -9q-17 -60 -51.5 -106.5t-80.5 -72.5t-100 -26q-59 0 -92 31.5t-33 84.5q0 41 21.5 73t59 54t85.5 35q42 11 86.5 15t81.5 2v26q0 87 -29 131t-98 44q-24 0 -48.5 -7.5t-40 -24.5t-15.5 -49q0 -20 10 -41.5t33 -29.5
q-9 -11 -22 -15.5t-26 -4.5q-35 0 -55 27t-20 61q0 59 52 89.5t139 30.5q104 0 152.5 -53t48.5 -163v-200q0 -53 36 -53q8 0 18 5t15 16q6 -8 8.5 -16.5t2.5 -14.5q0 -22 -20 -37t-50 -15zM206 45q29 0 59.5 17.5t56.5 46.5t42.5 66t16.5 77q-23 2 -51.5 0t-55.5 -7t-48 -13
q-44 -16 -69 -43.5t-25 -66.5q0 -30 17 -54.5t57 -22.5zM149 717l114 -87l112 87q7 0 18.5 -3.5t13.5 -7.5l-119 -138q-6 -2 -15.5 -2.5t-19.5 0.5t-16 2l-120 138q2 4 14 7.5t18 3.5z" />
    <glyph glyph-name="uni01CF" unicode="&#x1cf;" horiz-adv-x="273" 
d="M143 -11q-20 0 -33 12t-13 32l-1 544q0 30 -2.5 57.5t-10.5 49.5q6 6 18 12t29 6q20 0 33.5 -11.5t13.5 -32.5v-544q0 -29 2.5 -57t10.5 -50q-6 -5 -18 -11.5t-29 -6.5zM153 741q-6 -2 -15.5 -2.5t-19.5 0t-16 2.5l-126 114q1 5 8 12.5t12 9.5l132 -78l131 78
q6 -2 12.5 -9.5t7.5 -12.5z" />
    <glyph glyph-name="uni01D0" unicode="&#x1d0;" horiz-adv-x="247" 
d="M163 114q0 -29 2.5 -57t9.5 -50q-6 -5 -17.5 -11.5t-28.5 -6.5q-19 0 -32 12t-13 32l-1 363q0 29 -2.5 57t-9.5 50q6 5 17 11.5t28 6.5q20 0 32.5 -11.5t12.5 -32.5zM2 717l114 -87l113 87q6 0 17.5 -3.5t14.5 -7.5l-120 -138q-6 -2 -15.5 -2.5t-19.5 0.5t-16 2l-119 138
q1 4 13 7.5t18 3.5z" />
    <glyph glyph-name="uni01D1" unicode="&#x1d1;" horiz-adv-x="651" 
d="M325 -13q-128 0 -197 88.5t-69 270.5t69 271t197 89q129 0 198 -89t69 -271t-69 -270.5t-198 -88.5zM325 24q88 0 133 77.5t45 244.5q0 168 -45 245.5t-133 77.5q-86 0 -131.5 -77.5t-45.5 -245.5q0 -167 45.5 -244.5t131.5 -77.5zM351 741q-6 -2 -15.5 -2.5t-19.5 0
t-16 2.5l-126 114q1 5 8 12.5t12 9.5l132 -78l131 78q6 -2 12.5 -9.5t7.5 -12.5z" />
    <glyph glyph-name="uni01D2" unicode="&#x1d2;" horiz-adv-x="547" 
d="M273 -13q-108 0 -168.5 70.5t-60.5 196.5t60.5 196.5t168.5 70.5q109 0 169.5 -70.5t60.5 -196.5t-60.5 -196.5t-169.5 -70.5zM273 23q70 0 107 60t37 171t-37 170.5t-107 59.5q-69 0 -106.5 -59.5t-37.5 -170.5t37.5 -171t106.5 -60zM159 717l115 -87l112 87
q7 0 18 -3.5t14 -7.5l-120 -138q-6 -2 -15 -2.5t-19 0.5t-16 2l-120 138q2 4 14 7.5t17 3.5z" />
    <glyph glyph-name="uni01D3" unicode="&#x1d3;" horiz-adv-x="658" 
d="M573 658v-353q0 -157 -61.5 -237.5t-183.5 -80.5q-119 0 -178 77t-59 241v272q0 30 -2.5 57.5t-9.5 49.5q6 6 17.5 12t28.5 6q20 0 33 -11.5t13 -32.5v-356q0 -145 38 -211.5t119 -66.5q84 0 125 71t41 207v275q0 30 -2.5 57.5t-10.5 49.5q6 6 17.5 12t28.5 6
q20 0 33 -11.5t13 -32.5zM354 741q-6 -2 -15.5 -2.5t-19.5 0t-16 2.5l-126 114q1 5 8 12.5t12 9.5l132 -78l131 78q6 -2 12.5 -9.5t7.5 -12.5z" />
    <glyph glyph-name="uni01D4" unicode="&#x1d4;" horiz-adv-x="566" 
d="M428 521q20 0 33 -12.5t13 -35.5l1 -370q0 -28 6.5 -39.5t21.5 -11.5q5 0 13 3t13 12q12 -15 12 -31q0 -20 -15.5 -33t-44.5 -13q-38 0 -58 25.5t-20 76.5v71l15 18q-6 -61 -30.5 -104t-63.5 -66.5t-89 -23.5q-80 0 -118 47t-39 163v198q0 27 -2.5 56t-10.5 52
q9 6 19.5 12t27.5 6q20 0 32.5 -11.5t12.5 -33.5l1 -269q0 -63 9.5 -102t31.5 -56.5t59 -17.5q24 0 48 13t44.5 41t33 73.5t12.5 110.5q0 60 -0.5 99t-1.5 63.5t-4 41t-8 30.5q6 5 17.5 11.5t28.5 6.5zM155 717l114 -87l112 87q7 0 18.5 -3.5t13.5 -7.5l-119 -138
q-6 -2 -15.5 -2.5t-19.5 0.5t-16 2l-120 138q2 4 14 7.5t18 3.5z" />
    <glyph glyph-name="uni01D5" unicode="&#x1d5;" horiz-adv-x="658" 
d="M573 658v-353q0 -157 -61.5 -237.5t-183.5 -80.5q-119 0 -178 77t-59 241v272q0 30 -2.5 57.5t-9.5 49.5q6 6 17.5 12t28.5 6q20 0 33 -11.5t13 -32.5v-356q0 -145 38 -211.5t119 -66.5q84 0 125 71t41 207v275q0 30 -2.5 57.5t-10.5 49.5q6 6 17.5 12t28.5 6
q20 0 33 -11.5t13 -32.5zM238 758q-21 0 -36 15t-15 36t15 36t36 15t36 -15t15 -36t-15 -36t-36 -15zM423 758q-21 0 -36 15t-15 36t15 36t36 15t36 -15t15 -36t-15 -36t-36 -15zM200 954h257q8 -22 0 -44h-257q-8 22 0 44z" />
    <glyph glyph-name="uni01D6" unicode="&#x1d6;" horiz-adv-x="566" 
d="M428 521q20 0 33 -12.5t13 -35.5l1 -370q0 -28 6.5 -39.5t21.5 -11.5q5 0 13 3t13 12q12 -15 12 -31q0 -20 -15.5 -33t-44.5 -13q-38 0 -58 25.5t-20 76.5v71l15 18q-6 -61 -30.5 -104t-63.5 -66.5t-89 -23.5q-80 0 -118 47t-39 163v198q0 27 -2.5 56t-10.5 52
q9 6 19.5 12t27.5 6q20 0 32.5 -11.5t12.5 -33.5l1 -269q0 -63 9.5 -102t31.5 -56.5t59 -17.5q24 0 48 13t44.5 41t33 73.5t12.5 110.5q0 60 -0.5 99t-1.5 63.5t-4 41t-8 30.5q6 5 17.5 11.5t28.5 6.5zM184 586q-19 0 -33.5 14t-14.5 33q0 20 14.5 33.5t33.5 13.5t33 -14
t14 -33t-14 -33t-33 -14zM357 586q-18 0 -32 14t-14 33q0 20 14 33.5t32 13.5q20 0 34 -14t14 -33t-14 -33t-34 -14zM140 780h257q8 -22 0 -43h-257q-8 21 0 43z" />
    <glyph glyph-name="uni01D7" unicode="&#x1d7;" horiz-adv-x="658" 
d="M573 658v-353q0 -157 -61.5 -237.5t-183.5 -80.5q-119 0 -178 77t-59 241v272q0 30 -2.5 57.5t-9.5 49.5q6 6 17.5 12t28.5 6q20 0 33 -11.5t13 -32.5v-356q0 -145 38 -211.5t119 -66.5q84 0 125 71t41 207v275q0 30 -2.5 57.5t-10.5 49.5q6 6 17.5 12t28.5 6
q20 0 33 -11.5t13 -32.5zM238 758q-21 0 -36 15t-15 36t15 36t36 15t36 -15t15 -36t-15 -36t-36 -15zM423 758q-21 0 -36 15t-15 36t15 36t36 15t36 -15t15 -36t-15 -36t-36 -15zM475 956l-173 -82q-5 2 -10.5 11t-5.5 13l136 114q10 -4 20.5 -13.5t19.5 -20.5t13 -22z" />
    <glyph glyph-name="uni01D8" unicode="&#x1d8;" horiz-adv-x="566" 
d="M428 521q20 0 33 -12.5t13 -35.5l1 -370q0 -28 6.5 -39.5t21.5 -11.5q5 0 13 3t13 12q12 -15 12 -31q0 -20 -15.5 -33t-44.5 -13q-38 0 -58 25.5t-20 76.5v71l15 18q-6 -61 -30.5 -104t-63.5 -66.5t-89 -23.5q-80 0 -118 47t-39 163v198q0 27 -2.5 56t-10.5 52
q9 6 19.5 12t27.5 6q20 0 32.5 -11.5t12.5 -33.5l1 -269q0 -63 9.5 -102t31.5 -56.5t59 -17.5q24 0 48 13t44.5 41t33 73.5t12.5 110.5q0 60 -0.5 99t-1.5 63.5t-4 41t-8 30.5q6 5 17.5 11.5t28.5 6.5zM184 586q-19 0 -33.5 14t-14.5 33q0 20 14.5 33.5t33.5 13.5t33 -14
t14 -33t-14 -33t-33 -14zM357 586q-18 0 -32 14t-14 33q0 20 14 33.5t32 13.5q20 0 34 -14t14 -33t-14 -33t-34 -14zM408 838l-134 -138q-8 0 -20 1.5t-16 5.5l91 150q12 1 28.5 -2t30.5 -7.5t20 -9.5z" />
    <glyph glyph-name="uni01D9" unicode="&#x1d9;" horiz-adv-x="658" 
d="M573 658v-353q0 -157 -61.5 -237.5t-183.5 -80.5q-119 0 -178 77t-59 241v272q0 30 -2.5 57.5t-9.5 49.5q6 6 17.5 12t28.5 6q20 0 33 -11.5t13 -32.5v-356q0 -145 38 -211.5t119 -66.5q84 0 125 71t41 207v275q0 30 -2.5 57.5t-10.5 49.5q6 6 17.5 12t28.5 6
q20 0 33 -11.5t13 -32.5zM238 758q-21 0 -36 15t-15 36t15 36t36 15t36 -15t15 -36t-15 -36t-36 -15zM423 758q-21 0 -36 15t-15 36t15 36t36 15t36 -15t15 -36t-15 -36t-36 -15zM354 879q-6 -2 -15.5 -2.5t-19.5 0t-16 2.5l-126 114q1 5 8 12.5t12 9.5l132 -78l131 78
q6 -2 12.5 -9.5t7.5 -12.5z" />
    <glyph glyph-name="uni01DA" unicode="&#x1da;" horiz-adv-x="566" 
d="M428 521q20 0 33 -12.5t13 -35.5l1 -370q0 -28 6.5 -39.5t21.5 -11.5q5 0 13 3t13 12q12 -15 12 -31q0 -20 -15.5 -33t-44.5 -13q-38 0 -58 25.5t-20 76.5v71l15 18q-6 -61 -30.5 -104t-63.5 -66.5t-89 -23.5q-80 0 -118 47t-39 163v198q0 27 -2.5 56t-10.5 52
q9 6 19.5 12t27.5 6q20 0 32.5 -11.5t12.5 -33.5l1 -269q0 -63 9.5 -102t31.5 -56.5t59 -17.5q24 0 48 13t44.5 41t33 73.5t12.5 110.5q0 60 -0.5 99t-1.5 63.5t-4 41t-8 30.5q6 5 17.5 11.5t28.5 6.5zM184 586q-19 0 -33.5 14t-14.5 33q0 20 14.5 33.5t33.5 13.5t33 -13.5
t14 -33.5q0 -19 -14 -33t-33 -14zM358 586q-19 0 -33 14t-14 33q0 20 14 33.5t33 13.5t33 -13.5t14 -33.5q0 -19 -14 -33t-33 -14zM155 854l114 -87l112 87q7 0 18.5 -3t13.5 -8l-119 -137q-6 -2 -15.5 -3t-19.5 0t-16 3l-120 137q2 5 14 8t18 3z" />
    <glyph glyph-name="uni01DB" unicode="&#x1db;" horiz-adv-x="658" 
d="M573 658v-353q0 -157 -61.5 -237.5t-183.5 -80.5q-119 0 -178 77t-59 241v272q0 30 -2.5 57.5t-9.5 49.5q6 6 17.5 12t28.5 6q20 0 33 -11.5t13 -32.5v-356q0 -145 38 -211.5t119 -66.5q84 0 125 71t41 207v275q0 30 -2.5 57.5t-10.5 49.5q6 6 17.5 12t28.5 6
q20 0 33 -11.5t13 -32.5zM238 758q-21 0 -36 15t-15 36t15 36t36 15t36 -15t15 -36t-15 -36t-36 -15zM423 758q-21 0 -36 15t-15 36t15 36t36 15t36 -15t15 -36t-15 -36t-36 -15zM180 956q5 11 14 22t19.5 20.5t19.5 13.5l136 -114q0 -4 -5 -13t-11 -11z" />
    <glyph glyph-name="uni01DC" unicode="&#x1dc;" horiz-adv-x="566" 
d="M428 521q20 0 33 -12.5t13 -35.5l1 -370q0 -28 6.5 -39.5t21.5 -11.5q5 0 13 3t13 12q12 -15 12 -31q0 -20 -15.5 -33t-44.5 -13q-38 0 -58 25.5t-20 76.5v71l15 18q-6 -61 -30.5 -104t-63.5 -66.5t-89 -23.5q-80 0 -118 47t-39 163v198q0 27 -2.5 56t-10.5 52
q9 6 19.5 12t27.5 6q20 0 32.5 -11.5t12.5 -33.5l1 -269q0 -63 9.5 -102t31.5 -56.5t59 -17.5q24 0 48 13t44.5 41t33 73.5t12.5 110.5q0 60 -0.5 99t-1.5 63.5t-4 41t-8 30.5q6 5 17.5 11.5t28.5 6.5zM184 586q-19 0 -33.5 14t-14.5 33q0 20 14.5 33.5t33.5 13.5t33 -13.5
t14 -33.5q0 -19 -14 -33t-33 -14zM358 586q-19 0 -33 14t-14 33q0 20 14 33.5t33 13.5t33 -13.5t14 -33.5q0 -19 -14 -33t-33 -14zM126 838q7 5 20.5 9.5t30 7.5t29.5 2l90 -149q-3 -4 -15 -5.5t-20 -1.5z" />
    <glyph glyph-name="Gcaron" unicode="&#x1e6;" horiz-adv-x="625" 
d="M336 -13q-134 0 -205.5 92.5t-71.5 266.5t73.5 267t205.5 93q38 0 73 -8t62.5 -21.5t43.5 -31.5t16 -38t-17 -34.5t-48 -11.5q-8 53 -42.5 80.5t-85.5 27.5q-96 0 -144 -81.5t-48 -241.5t47.5 -241t143.5 -81q48 0 77.5 19.5t45 50.5t20.5 64.5t5 62.5q0 39 -8 67.5
t-24 46.5t-42 23q4 16 19 23t34 7q27 0 50.5 -14.5t38 -47.5t14.5 -90q0 -38 -8.5 -74.5t-26 -68t-45 -55t-66 -37.5t-87.5 -14zM357 741q-6 -2 -15.5 -2.5t-19.5 0t-16 2.5l-126 114q1 5 8 12.5t12 9.5l132 -78l131 78q6 -2 12.5 -9.5t7.5 -12.5z" />
    <glyph glyph-name="gcaron" unicode="&#x1e7;" horiz-adv-x="537" 
d="M218 -233q-45 0 -84 13t-62.5 39.5t-23.5 67.5q0 34 18.5 54t43.5 20q28 0 40 -15q-15 -11 -21.5 -26.5t-6.5 -34.5q0 -28 12.5 -46.5t35 -28t51.5 -9.5q86 0 126 63t40 181v32.5v35.5q-18 -55 -61 -86t-105 -31q-54 0 -94 25.5t-61.5 81.5t-21.5 145q0 38 6 76.5
t20.5 74t40.5 63t65.5 43.5t95.5 16q34 0 69.5 -6t68.5 -20.5t56 -39.5v-410q0 -104 -32 -165t-88 -87t-128 -26zM242 40q40 0 67.5 18.5t44.5 48.5t25 67t8 74l1 199q-18 19 -49.5 28t-67.5 9q-46 0 -74 -21t-43 -56t-20 -78.5t-5 -88.5q0 -107 27.5 -153.5t85.5 -46.5z
M161 720l114 -88l112 88q7 0 18.5 -3.5t13.5 -7.5l-119 -138q-6 -2 -15.5 -2.5t-19.5 0.5t-16 2l-120 138q2 4 14 7.5t18 3.5z" />
    <glyph glyph-name="uni0218" unicode="&#x218;" horiz-adv-x="555" 
d="M275 -13q-78 0 -127.5 20t-73 54t-23.5 74q0 19 7 33.5t23 21t44 2.5q-3 -9 -3.5 -19.5t0.5 -22.5q2 -38 21.5 -66t55 -44t84.5 -16q64 0 104.5 30.5t40.5 91.5q0 40 -18.5 68.5t-54 54t-87.5 53.5q-57 33 -100.5 62.5t-67.5 67t-24 90.5q0 59 29 94.5t77.5 52.5
t105.5 17q89 0 144 -32.5t55 -91.5q0 -18 -8.5 -30.5t-31.5 -15.5q-13 -4 -31 0q3 11 2.5 22t-2.5 20q-3 29 -20.5 49t-47.5 31t-68 11q-30 0 -59.5 -9.5t-49 -31.5t-19.5 -61q0 -40 20 -68.5t56 -52.5t85 -51q54 -28 98 -59.5t70.5 -71.5t26.5 -96q0 -34 -12 -66.5t-40 -58
t-72.5 -41t-108.5 -15.5zM272 -228q-10 2 -17 6.5t-13 11.5q15 17 23 33.5t8 33.5q0 20 -7.5 30.5t-18 16t-20.5 8.5q0 19 15 36.5t41 17.5q20 0 38.5 -14.5t18.5 -54.5q0 -28 -14.5 -59.5t-53.5 -65.5z" />
    <glyph glyph-name="uni0219" unicode="&#x219;" horiz-adv-x="468" 
d="M224 -13q-65 0 -106.5 16.5t-60.5 44t-19 60.5q0 17 6 31t20.5 21.5t39.5 2.5q-3 -10 -3.5 -19.5t1.5 -22.5q2 -44 36 -70t93 -26q55 0 90 20t35 59q0 32 -20.5 51.5t-52.5 34.5t-67 32q-39 18 -75 38.5t-59.5 51.5t-23.5 81q0 46 25 74.5t66 41.5t89 13q82 0 128 -26.5
t46 -73.5q0 -17 -8 -30t-29 -16q-7 -2 -14 -1.5t-15 1.5q2 10 2 21.5t-3 20.5q-4 33 -33 50t-77 17q-27 0 -50.5 -6.5t-38 -22t-14.5 -40.5q0 -33 18 -54.5t48 -37t63 -31.5q30 -14 60 -28.5t55.5 -33t40.5 -42.5t15 -59q0 -33 -18.5 -66t-64 -55t-125.5 -22zM229 -228
q-10 2 -17 6.5t-13 11.5q15 17 23 33.5t8 33.5q0 20 -7.5 30.5t-18 16t-20.5 8.5q0 19 15 36.5t41 17.5q20 0 38.5 -14.5t18.5 -54.5q0 -28 -14.5 -59.5t-53.5 -65.5z" />
    <glyph glyph-name="uni021A" unicode="&#x21a;" horiz-adv-x="528" 
d="M271 -11q-20 0 -33 12t-13 32l-1 643l80 -5l1 -557q0 -29 2.5 -57t10.5 -50q-6 -5 -18 -11.5t-29 -6.5zM40 622q-9 4 -15 15t-8 24t1.5 22.5t12.5 9.5h467q9 0 12.5 -9.5t1 -22.5t-8.5 -24t-14 -15q-34 8 -72 16t-77.5 13.5t-77.5 5.5q-37 0 -75.5 -5.5t-75.5 -13.5
t-71 -16zM270 -228q-10 2 -17 6.5t-13 11.5q15 17 23 33.5t8 33.5q0 20 -7.5 30.5t-18 16t-20.5 8.5q0 19 15 36.5t41 17.5q20 0 38.5 -14.5t18.5 -54.5q0 -28 -14.5 -59.5t-53.5 -65.5z" />
    <glyph glyph-name="uni021B" unicode="&#x21b;" horiz-adv-x="339" 
d="M196 -11q-48 0 -74.5 29.5t-26.5 81.5v496q0 21 13 32.5t34 11.5q18 0 29 -6.5t17 -11.5q-9 -28 -11 -73t-2 -122v-322q0 -25 12 -39.5t36 -14.5q14 0 28 5t19 16q6 -8 8.5 -16.5t2.5 -15.5q0 -22 -24 -36.5t-61 -14.5zM21 462l1 23q1 11 7.5 16.5t14.5 5.5h172
q4 0 16 0.5t26.5 1t26.5 1t16 0.5l-1 -22q-1 -11 -7 -17t-15 -6h-197q-10 0 -30 -0.5t-30 -2.5zM184 -228q-10 2 -17 6.5t-13 11.5q15 17 23 33.5t8 33.5q0 20 -7.5 30.5t-18 16t-20.5 8.5q0 19 15 36.5t41 17.5q20 0 38.5 -14.5t18.5 -54.5q0 -28 -14.5 -59.5t-53.5 -65.5z
" />
    <glyph glyph-name="uni0237" unicode="&#x237;" horiz-adv-x="251" 
d="M28 -232q-55 0 -81.5 22t-26.5 58q0 17 11 32.5t34 15.5q10 0 15.5 -3t9.5 -11q-4 -8 -6 -17t-2 -17q0 -18 7.5 -28t18.5 -13.5t21 -3.5q30 0 44 21t18.5 56.5t4.5 80.5l1 434q0 27 -2.5 56t-9.5 52q8 7 19.5 12.5t25.5 5.5q20 0 32.5 -11.5t12.5 -33.5l1 -529
q0 -32 -6.5 -64t-23 -58t-45.5 -41.5t-73 -15.5z" />
    <glyph glyph-name="ascript" unicode="&#x251;" horiz-adv-x="566" 
d="M216 -13q-53 0 -86.5 22t-52 58.5t-26 79t-7.5 83.5q0 136 54 212.5t157 76.5q51 0 86.5 -19t50.5 -57q1 12 1.5 25t1 24.5t0.5 17.5q5 5 12 7.5t15 2.5q24 0 36.5 -12.5t12.5 -32.5l-1 -370q0 -27 8.5 -39t22.5 -12q6 0 14 2.5t13 12.5q6 -8 8.5 -16.5t2.5 -15.5
q0 -20 -17.5 -32.5t-44.5 -12.5q-42 0 -62 33.5t-20 94.5v89l22 11q-7 -50 -22 -92.5t-40 -74t-59.5 -49t-79.5 -17.5zM236 36q37 0 65.5 21.5t48.5 58.5t30 84.5t10 100.5q0 30 -4.5 60t-17 55.5t-36 40.5t-61.5 15q-71 0 -106.5 -60t-35.5 -179q0 -36 4 -71t15 -63.5
t32.5 -45.5t55.5 -17z" />
    <glyph glyph-name="uni0259" unicode="&#x259;" horiz-adv-x="515" 
d="M236 521q109 0 171.5 -67.5t62.5 -196.5q0 -125 -60.5 -197.5t-177.5 -72.5q-53 0 -94 16.5t-64.5 48.5t-23.5 79q0 75 60 113.5t167 38.5q41 0 79 -3.5t78 -12.5l-3 -32q-24 4 -57.5 7t-65.5 4q-36 0 -67.5 -5.5t-55.5 -19.5t-37.5 -38.5t-13.5 -62.5t15.5 -59t38.5 -30
t47 -9q68 0 109 57t41 167q0 83 -22 131t-60 68t-86 20q-54 0 -94.5 -22t-55.5 -65q-10 5 -14.5 15.5t5.5 34.5q20 46 67.5 69.5t110.5 23.5z" />
    <glyph glyph-name="uni210A" unicode="&#x261;" horiz-adv-x="537" 
d="M218 -233q-45 0 -84 13t-62.5 39.5t-23.5 67.5q0 34 18.5 54t43.5 20q28 0 40 -15q-15 -11 -21.5 -26.5t-6.5 -34.5q0 -28 12.5 -46.5t35 -28t51.5 -9.5q86 0 126 63t40 181v32.5v35.5q-18 -55 -61 -86t-105 -31q-54 0 -94 25.5t-61.5 81.5t-21.5 145q0 38 6 76.5
t20.5 74t40.5 63t65.5 43.5t95.5 16q34 0 69.5 -6t68.5 -20.5t56 -39.5v-410q0 -104 -32 -165t-88 -87t-128 -26zM242 40q40 0 67.5 18.5t44.5 48.5t25 67t8 74l1 199q-18 19 -49.5 28t-67.5 9q-46 0 -74 -21t-43 -56t-20 -78.5t-5 -88.5q0 -107 27.5 -153.5t85.5 -46.5z
" />
    <glyph glyph-name="uni02BC" unicode="&#x2bc;" horiz-adv-x="600" 
d="M208 684l17 -152h38l20 152q-16 5 -36.5 5t-38.5 -5z" />
    <glyph glyph-name="circumflex" unicode="&#x2c6;" horiz-adv-x="600" 
d="M186 562q-6 0 -18 3.5t-14 7.5l120 137q6 2 16 3t19.5 0t15.5 -3l120 -137q-3 -4 -14.5 -7.5t-17.5 -3.5l-113 87z" />
    <glyph glyph-name="caron" unicode="&#x2c7;" horiz-adv-x="600" 
d="M186 717l114 -87l113 87q6 0 17.5 -3.5t14.5 -7.5l-120 -138q-6 -2 -15.5 -2.5t-19.5 0.5t-16 2l-120 138q2 4 14 7.5t18 3.5z" />
    <glyph glyph-name="breve" unicode="&#x2d8;" horiz-adv-x="600" 
d="M297 625q31 0 52 12t35.5 30t21.5 36l16 -4t16 -6q-9 -33 -27 -61.5t-46.5 -46t-69.5 -17.5q-46 0 -76 19.5t-46.5 47.5t-23.5 56q9 6 17 9t16 4q9 -20 24 -38t37.5 -29.5t53.5 -11.5z" />
    <glyph glyph-name="dotaccent" unicode="&#x2d9;" horiz-adv-x="600" 
d="M298 573q-20 0 -35.5 15.5t-15.5 36.5t15.5 36t35.5 15q21 0 36 -15t15 -36t-15 -36.5t-36 -15.5z" />
    <glyph glyph-name="ring" unicode="&#x2da;" horiz-adv-x="600" 
d="M302 721q40 0 64.5 -22t24.5 -59q-1 -39 -26 -61.5t-67 -22.5q-40 0 -64.5 22t-24.5 58q0 39 26 62t67 23zM300 692q-21 0 -34 -14t-13 -40q0 -25 13 -39.5t34 -14.5q22 0 34.5 14.5t12.5 39.5q0 26 -12.5 40t-34.5 14z" />
    <glyph glyph-name="ogonek" unicode="&#x2db;" horiz-adv-x="600" 
d="M305 -170q-21 0 -42 7.5t-35 24.5t-14 45q0 32 18.5 54.5t47.5 38t61 24.5l9 -19q-37 -18 -57.5 -38t-20.5 -51q0 -19 11.5 -33.5t38.5 -14.5q32 0 53 17.5t31 36.5q7 -4 10 -10t0 -16q-12 -28 -41.5 -47t-69.5 -19z" />
    <glyph glyph-name="tilde" unicode="&#x2dc;" horiz-adv-x="600" 
d="M439 669q-6 -37 -26.5 -61.5t-53.5 -24.5q-25 0 -44 12t-37 24t-41 12t-38 -12t-22 -31q-5 -1 -11.5 2t-11.5 7q7 46 32.5 65.5t54.5 19.5q27 0 45.5 -12.5t37.5 -24t42 -11.5t33.5 12.5t17.5 31.5q7 0 12.5 -2t9.5 -7z" />
    <glyph glyph-name="hungarumlaut" unicode="&#x2dd;" horiz-adv-x="600" 
d="M322 693l-154 -149q-6 2 -13.5 8t-10.5 10l116 164q15 -1 33 -10t29 -23zM466 694l-154 -150q-6 2 -13.5 8.5t-10.5 9.5l116 164q16 -1 33 -10t29 -22z" />
    <glyph glyph-name="gravecomb" unicode="&#x300;" 
d="M177 701q7 5 21 9.5t30.5 7.5t28.5 2l91 -150q-4 -4 -16 -5.5t-20 -1.5z" />
    <glyph glyph-name="acutecomb" unicode="&#x301;" 
d="M385 701l-134 -138q-8 0 -20 1.5t-16 5.5l91 150q12 1 28.5 -2t30.5 -7.5t20 -9.5z" />
    <glyph glyph-name="uni0302" unicode="&#x302;" 
d="M186 562q-6 0 -18 3.5t-14 7.5l120 137q6 2 16 3t19.5 0t15.5 -3l120 -137q-3 -4 -14.5 -7.5t-17.5 -3.5l-113 87z" />
    <glyph glyph-name="tildecomb" unicode="&#x303;" 
d="M439 669q-6 -37 -26.5 -61.5t-53.5 -24.5q-25 0 -44 12t-37 24t-41 12t-38 -12t-22 -31q-5 -1 -11.5 2t-11.5 7q7 46 32.5 65.5t54.5 19.5q27 0 45.5 -12.5t37.5 -24t42 -11.5t33.5 12.5t17.5 31.5q7 0 12.5 -2t9.5 -7z" />
    <glyph glyph-name="uni0304" unicode="&#x304;" 
d="M155 643h257q8 -22 0 -43h-257q-8 21 0 43z" />
    <glyph glyph-name="uni0306" unicode="&#x306;" 
d="M297 625q31 0 52 12t35.5 30t21.5 36l16 -4t16 -6q-9 -33 -27 -61.5t-46.5 -46t-69.5 -17.5q-46 0 -76 19.5t-46.5 47.5t-23.5 56q9 6 17 9t16 4q9 -20 24 -38t37.5 -29.5t53.5 -11.5z" />
    <glyph glyph-name="uni0307" unicode="&#x307;" 
d="M298 573q-20 0 -35.5 15.5t-15.5 36.5t15.5 36t35.5 15q21 0 36 -15t15 -36t-15 -36.5t-36 -15.5z" />
    <glyph glyph-name="uni0308" unicode="&#x308;" 
d="M207 586q-19 0 -33.5 14t-14.5 33q0 20 14.5 33.5t33.5 13.5t33 -14t14 -33t-14 -33t-33 -14zM380 586q-18 0 -32 14t-14 33q0 20 14 33.5t32 13.5q20 0 34 -14t14 -33t-14 -33t-34 -14z" />
    <glyph glyph-name="hookabovecomb" unicode="&#x309;" 
d="M191 550l-8 28q26 8 38 17t12 23q0 13 -12 19.5t-27.5 8.5t-28.5 2l-2 37q28 1 58 -3.5t50.5 -18.5t20.5 -41t-23 -45.5t-78 -26.5z" />
    <glyph glyph-name="uni030A" unicode="&#x30a;" 
d="M302 721q40 0 64.5 -22t24.5 -59q-1 -39 -26 -61.5t-67 -22.5q-40 0 -64.5 22t-24.5 58q0 39 26 62t67 23zM300 692q-21 0 -34 -14t-13 -40q0 -25 13 -39.5t34 -14.5q22 0 34.5 14.5t12.5 39.5q0 26 -12.5 40t-34.5 14z" />
    <glyph glyph-name="uni030B" unicode="&#x30b;" 
d="M322 693l-154 -149q-6 2 -13.5 8t-10.5 10l116 164q15 -1 33 -10t29 -23zM466 694l-154 -150q-6 2 -13.5 8.5t-10.5 9.5l116 164q16 -1 33 -10t29 -22z" />
    <glyph glyph-name="uni030C" unicode="&#x30c;" 
d="M186 717l114 -87l113 87q6 0 17.5 -3.5t14.5 -7.5l-120 -138q-6 -2 -15.5 -2.5t-19.5 0.5t-16 2l-120 138q2 4 14 7.5t18 3.5z" />
    <glyph glyph-name="uni0312" unicode="&#x312;" 
d="M280 753q10 -1 18 -5t14 -12q-15 -21 -21 -39t-6 -32q0 -21 11.5 -30.5t25.5 -12.5q0 -19 -13.5 -34.5t-36.5 -15.5q-12 0 -24.5 5.5t-20.5 19t-8 36.5t12.5 51t48.5 69z" />
    <glyph glyph-name="uni031B" unicode="&#x31b;" 
d="M178 481l-12 33q30 11 42 25.5t12 33.5q0 12 -5 25.5t-15 25.5q6 6 16.5 11.5t22.5 10.5t21 7q11 -12 18 -32t7 -39q0 -23 -14 -42.5t-38 -33.5t-55 -25z" />
    <glyph glyph-name="dotbelowcomb" unicode="&#x323;" 
d="M300 -149q-22 0 -38 16.5t-16 37.5q0 23 16 39t38 16t38 -16t16 -39q0 -21 -16 -37.5t-38 -16.5z" />
    <glyph glyph-name="uni0324" unicode="&#x324;" 
d="M206 -171q-23 0 -39 16t-16 38q0 23 16 38.5t39 15.5q22 0 38 -15.5t16 -38.5q0 -22 -16 -38t-38 -16zM395 -171q-22 0 -38.5 16t-16.5 38q0 23 16.5 38.5t38.5 15.5t38 -15.5t16 -38.5q0 -22 -16 -38t-38 -16z" />
    <glyph glyph-name="uni0326" unicode="&#x326;" 
d="M292 -228q-10 2 -17 6.5t-13 11.5q15 17 23 33.5t8 33.5q0 20 -7.5 30.5t-18 16t-20.5 8.5q0 19 15 36.5t41 17.5q20 0 38.5 -14.5t18.5 -54.5q0 -28 -14.5 -59.5t-53.5 -65.5z" />
    <glyph glyph-name="uni0327" unicode="&#x327;" 
d="M307 8l-11 -56q45 0 70 -19.5t25 -53.5q0 -38 -28.5 -62t-75.5 -24q-37 0 -57.5 10.5t-30.5 21.5q-2 8 2.5 18t9.5 13q6 -5 19.5 -14t40.5 -9q23 0 36.5 11.5t13.5 33.5q0 21 -15.5 35t-56.5 10l16 85h42z" />
    <glyph glyph-name="uni0328" unicode="&#x328;" 
d="M305 -170q-21 0 -42 7.5t-35 24.5t-14 45q0 32 18.5 54.5t47.5 38t61 24.5l9 -19q-37 -18 -57.5 -38t-20.5 -51q0 -19 11.5 -33.5t38.5 -14.5q32 0 53 17.5t31 36.5q7 -4 10 -10t0 -16q-12 -28 -41.5 -47t-69.5 -19z" />
    <glyph glyph-name="uni032E" unicode="&#x32e;" 
d="M303 -132q31 0 52 12t34.5 29.5t19.5 35.5l31 -5q-7 -32 -25 -59.5t-47 -45t-70 -17.5q-45 0 -74 19t-44.5 47t-20.5 53l33 10q6 -20 20.5 -38t37.5 -29.5t53 -11.5z" />
    <glyph glyph-name="uni0331" unicode="&#x331;" 
d="M171 -66h258q7 -20 0 -40h-258q-7 20 0 40z" />
    <glyph glyph-name="uni0374" unicode="&#x374;" horiz-adv-x="154" 
d="M67 563q-8 0 -19 1.5t-16 5.5l33 176q18 1 38.5 -4.5t31.5 -14.5z" />
    <glyph glyph-name="uni0375" unicode="&#x375;" horiz-adv-x="154" 
d="M67 -102q-8 0 -19 1.5t-16 5.5l33 176q18 1 38.5 -4.5t31.5 -14.5z" />
    <glyph glyph-name="uni037A" unicode="&#x37a;" horiz-adv-x="301" 
d="M156 -227q-35 0 -49.5 22t-14.5 58q0 27 -1 46.5t-4 34.5q6 7 14.5 11t19.5 4q17 0 23.5 -11t4.5 -28l-1 -49q-1 -20 4 -32t20 -12q7 0 13 3.5t10 13.5q9 -10 9 -25q0 -17 -14.5 -26.5t-33.5 -9.5z" />
    <glyph glyph-name="uni037E" unicode="&#x37e;" horiz-adv-x="259" 
d="M132 339q-22 0 -38 16t-16 38q0 23 16 38.5t38 15.5q23 0 38.5 -15.5t15.5 -38.5q0 -22 -15.5 -38t-38.5 -16zM118 -99q-10 2 -17 7t-13 11q15 17 23 33.5t8 34.5q0 19 -7.5 29.5t-18 16t-20.5 8.5q0 19 15 36.5t41 17.5q20 0 38.5 -14.5t18.5 -54.5q0 -28 -14.5 -59.5
t-53.5 -65.5z" />
    <glyph glyph-name="tonos" unicode="&#x384;" horiz-adv-x="201" 
d="M91 563q-8 0 -19 1.5t-16 5.5l33 176q18 1 38.5 -4.5t31.5 -14.5z" />
    <glyph glyph-name="dieresistonos" unicode="&#x385;" horiz-adv-x="450" 
d="M231 589q-8 -1 -18.5 -0.5t-15.5 4.5l6 166q10 3 23 3t25.5 -1.5t21.5 -7.5zM117 581q-21 0 -32 14.5t-11 33.5q0 20 11 34t32 14t31.5 -14t10.5 -34q0 -19 -10.5 -33.5t-31.5 -14.5zM325 581q-21 0 -32.5 14t-11.5 33q0 20 11.5 34t32.5 14t31.5 -14t10.5 -34
q0 -19 -10.5 -33t-31.5 -14z" />
    <glyph glyph-name="Alphatonos" unicode="&#x386;" horiz-adv-x="602" 
d="M319 706q17 0 30.5 -6.5t17.5 -23.5l201 -621q4 -12 10 -24.5t14 -22.5q-6 -7 -17 -13t-30 -6q-18 0 -32.5 8t-17.5 25l-201 652l13 -1l-186 -620q-2 -8 -4 -16.5t-2 -16.5q0 -7 1.5 -13t4.5 -10q-9 -3 -19 -5.5t-25 -2.5q-22 0 -34 9t-11 28q0 8 3 20.5t6 24.5l212 622
q33 13 66 13zM154 268h317v-48h-317v48zM106 517q-8 0 -19 1.5t-16 5.5l33 176q18 1 38.5 -4.5t32.5 -14.5z" />
    <glyph glyph-name="anoteleia" unicode="&#x387;" horiz-adv-x="253" 
d="M127 339q-22 0 -38 16t-16 38q0 23 16 38.5t38 15.5q23 0 38.5 -15.5t15.5 -38.5q0 -22 -15.5 -38t-38.5 -16z" />
    <glyph glyph-name="Epsilontonos" unicode="&#x388;" horiz-adv-x="614" 
d="M220 0q-20 0 -33 12t-13 33l-1 524q0 30 -2.5 55.5t-10.5 47.5q14 13 28.5 17t40.5 4h302q9 0 12.5 -9.5t1.5 -22.5t-8 -24t-14 -15q-65 11 -132 18t-138 8l1 -604q48 1 99.5 5.5t100 10.5t87.5 12q8 -5 12.5 -16.5t4.5 -24t-5 -22t-15 -9.5h-318zM238 340v48h261
q3 -12 3 -24.5t-3 -23.5h-261zM50 518q-8 0 -19 1.5t-16 5.5l33 176q18 1 38.5 -4.5t32.5 -14.5z" />
    <glyph glyph-name="Etatonos" unicode="&#x389;" horiz-adv-x="757" 
d="M254 114q0 -29 2.5 -57t10.5 -50q-6 -5 -18 -11.5t-29 -6.5q-20 0 -33 12t-13 32l-1 544q0 30 -2.5 57.5t-10.5 49.5q6 6 18 12t29 6q20 0 33.5 -11.5t13.5 -32.5v-544zM661 114q0 -29 2.5 -57t10.5 -50q-6 -5 -18 -11.5t-29 -6.5q-20 0 -33 12t-13 32l-1 544
q0 30 -2.5 57.5t-10.5 49.5q6 6 18 12t29 6q20 0 33.5 -11.5t13.5 -32.5v-544zM225 390h383v-48h-383v48zM50 517q-8 0 -19 1.5t-16 5.5l33 176q18 1 38.5 -4.5t32.5 -14.5z" />
    <glyph glyph-name="Iotatonos" unicode="&#x38a;" horiz-adv-x="350" 
d="M219 -11q-20 0 -33 12t-13 32l-1 544q0 30 -2.5 57.5t-10.5 49.5q6 6 18 12t29 6q20 0 33.5 -11.5t13.5 -32.5v-544q0 -29 2.5 -57t10.5 -50q-6 -5 -18 -11.5t-29 -6.5zM50 517q-8 0 -19 1.5t-16 5.5l33 176q18 1 38.5 -4.5t32.5 -14.5z" />
    <glyph glyph-name="Omicrontonos" unicode="&#x38c;" horiz-adv-x="688" 
d="M362 -13q-128 0 -197 88.5t-69 270.5t69 271t197 89q129 0 198 -89t69 -271t-69 -270.5t-198 -88.5zM362 24q88 0 133 77.5t45 244.5q0 168 -45 245.5t-133 77.5q-86 0 -131.5 -77.5t-45.5 -245.5q0 -167 45.5 -244.5t131.5 -77.5zM50 518q-8 0 -19 1.5t-16 5.5l33 176
q18 1 38.5 -4.5t32.5 -14.5z" />
    <glyph glyph-name="Upsilontonos" unicode="&#x38e;" horiz-adv-x="735" 
d="M438 -11q-20 0 -33.5 12t-13.5 32v145q0 40 -17 89.5t-46 117.5l-76 170q-16 36 -31.5 58.5t-37.5 22.5q-9 0 -16 -3.5t-12 -10.5q-11 11 -11 27q0 21 19 37t49 16q40 0 63.5 -26t45.5 -80l63 -154q25 -59 38.5 -101t19 -74.5t5.5 -63.5l-23 -1q0 24 7 53t18 60
t22.5 59.5t20.5 49.5l70 167q15 34 28 58t30.5 38t42.5 14q30 0 45.5 -16t15.5 -36q0 -14 -10 -27q-4 7 -12.5 10.5t-17.5 3.5q-24 0 -40 -21.5t-29 -51.5l-71 -153q-7 -16 -19.5 -43t-25 -60t-20.5 -65.5t-8 -59.5v-70q0 -28 3 -55.5t10 -49.5q-6 -5 -17.5 -11.5
t-28.5 -6.5zM50 518q-8 0 -19 1.5t-16 5.5l33 176q18 1 38.5 -4.5t32.5 -14.5z" />
    <glyph glyph-name="Omegatonos" unicode="&#x38f;" horiz-adv-x="747" 
d="M344 40l-14 -12q-65 23 -117.5 73t-83 122t-30.5 161q0 104 36 175t100.5 108.5t149.5 37.5t149.5 -37.5t100.5 -108.5t36 -175q0 -89 -28 -160.5t-80 -122t-123 -73.5l-14 12q77 49 117 138.5t40 205.5q0 93 -25.5 156t-70 95.5t-102.5 32.5t-102.5 -32.5t-70 -95.5
t-25.5 -156q0 -75 21 -141.5t57 -118t79 -84.5zM116 0q-9 0 -16 8.5t-10 21t-2 26.5t9 25l247 -44v-37h-228zM426 0v37l247 44q8 -11 9.5 -25t-2 -26.5t-10.5 -21t-16 -8.5h-228zM50 517q-8 0 -19 1.5t-16 5.5l33 176q18 1 38.5 -4.5t32.5 -14.5z" />
    <glyph glyph-name="iotadieresistonos" unicode="&#x390;" horiz-adv-x="285" 
d="M181 -13q-49 0 -71.5 38.5t-22.5 99.5l-1 277q0 36 -2.5 60t-6.5 40q12 9 22.5 13t23.5 4q18 0 31 -12.5t11 -42.5l-5 -346q-2 -34 7.5 -49.5t31.5 -15.5q12 0 21 5t16 14q5 -6 7.5 -15.5t2.5 -17.5q0 -24 -20 -38t-45 -14zM137 592q-8 -1 -18.5 -0.5t-15.5 4.5l6 166
q10 3 23 3t25.5 -1.5t21.5 -7.5zM23 584q-21 0 -32 14.5t-11 33.5q0 20 11 34t32 14t31.5 -14t10.5 -34q0 -19 -10.5 -33.5t-31.5 -14.5zM231 584q-21 0 -32.5 14t-11.5 33q0 20 11.5 34t32.5 14t31.5 -14t10.5 -34q0 -19 -10.5 -33t-31.5 -14z" />
    <glyph glyph-name="Alpha" unicode="&#x391;" horiz-adv-x="602" 
d="M319 706q17 0 30.5 -6.5t17.5 -23.5l201 -621q4 -12 10 -24.5t14 -22.5q-6 -7 -17 -13t-30 -6q-18 0 -32.5 8t-17.5 25l-201 652l13 -1l-186 -620q-2 -8 -4 -16.5t-2 -16.5q0 -7 1.5 -13t4.5 -10q-9 -3 -19 -5.5t-25 -2.5q-22 0 -34 9t-11 28q0 8 3 20.5t6 24.5l212 622
q33 13 66 13zM154 268h317v-48h-317v48z" />
    <glyph glyph-name="Beta" unicode="&#x392;" horiz-adv-x="574" 
d="M144 0q-21 0 -34 12t-14 33v532q0 10 -0.5 30t-3.5 41.5t-9 35.5q16 8 48.5 15t94.5 7q126 0 192.5 -39.5t66.5 -130.5q0 -61 -31.5 -106t-91.5 -63q76 -12 117 -57t41 -122q0 -70 -33 -111.5t-95.5 -59t-151.5 -17.5h-96zM177 37h66q62 0 104 15t64 48t22 87
q0 63 -23.5 97t-66 47.5t-100.5 13.5h-77l-7 37h102q40 -1 71.5 15.5t49.5 50.5t18 83q0 71 -41.5 105t-136.5 34q-15 0 -26 -0.5t-19 -1.5v-631z" />
    <glyph glyph-name="Gamma" unicode="&#x393;" horiz-adv-x="515" 
d="M143 -11q-20 0 -33 12t-13 33l-1 534q0 30 -2.5 55.5t-10.5 47.5q14 13 28.5 17.5t40.5 4.5h321q9 0 12.5 -9.5t1.5 -22t-7.5 -24.5t-14.5 -16q-66 11 -138 18t-151 8l1 -533q0 -29 2.5 -56.5t10.5 -49.5q-6 -5 -18 -12t-29 -7z" />
    <glyph glyph-name="uni0394" unicode="&#x394;" horiz-adv-x="609" 
d="M82 0q-31 0 -43.5 21t-1.5 54l218 616q33 13 66 13q17 0 30 -6.5t18 -23.5l206 -609q4 -11 10 -24t14 -22q-7 -7 -18.5 -13t-30.5 -6h-468zM105 21l-23 32h451l-31 -28l-205 643l11 -2z" />
    <glyph glyph-name="Epsilon" unicode="&#x395;" horiz-adv-x="537" 
d="M143 0q-20 0 -33 12t-13 33l-1 524q0 30 -2.5 55.5t-10.5 47.5q14 13 28.5 17t40.5 4h302q9 0 12.5 -9.5t1.5 -22.5t-8 -24t-14 -15q-65 11 -132 18t-138 8l1 -604q48 1 99.5 5.5t100 10.5t87.5 12q8 -5 12.5 -16.5t4.5 -24t-5 -22t-15 -9.5h-318zM161 340v48h261
q3 -12 3 -24.5t-3 -23.5h-261z" />
    <glyph glyph-name="Zeta" unicode="&#x396;" horiz-adv-x="573" 
d="M63 -6l-15 23q0 21 6 38.5t20 35.5l384 560l12 -19l-270 -9q-37 0 -58 -13.5t-26 -35.5q-4 -21 2 -36t21 -29q-20 -2 -40 6q-21 5 -35 29t-14 52q0 42 35 71t108 28l187 -4q42 0 72 1t50 7l17 -24q0 -24 -5.5 -41.5t-18.5 -35.5l-390 -560l-8 24l285 8q49 1 70.5 18
t25.5 38q6 23 -1.5 41.5t-18.5 30.5q11 1 15.5 0.5t10.5 -1.5q20 -4 33.5 -19t20.5 -35t7 -40q0 -45 -34 -74.5t-106 -29.5l-234 3q-29 1 -54.5 -0.5t-53.5 -7.5z" />
    <glyph glyph-name="Eta" unicode="&#x397;" horiz-adv-x="680" 
d="M177 114q0 -29 2.5 -57t10.5 -50q-6 -5 -18 -11.5t-29 -6.5q-20 0 -33 12t-13 32l-1 544q0 30 -2.5 57.5t-10.5 49.5q6 6 18 12t29 6q20 0 33.5 -11.5t13.5 -32.5v-544zM584 114q0 -29 2.5 -57t10.5 -50q-6 -5 -18 -11.5t-29 -6.5q-20 0 -33 12t-13 32l-1 544
q0 30 -2.5 57.5t-10.5 49.5q6 6 18 12t29 6q20 0 33.5 -11.5t13.5 -32.5v-544zM148 390h383v-48h-383v48z" />
    <glyph glyph-name="Theta" unicode="&#x398;" horiz-adv-x="651" 
d="M221 325q-8 26 0 49h205q5 -13 4.5 -25.5t-4.5 -23.5h-205zM325 -13q-128 0 -197 88.5t-69 270.5t69 271t197 89q129 0 198 -89t69 -271t-69 -270.5t-198 -88.5zM326 24q87 0 132 77.5t45 244.5q0 168 -45 245.5t-132 77.5t-132.5 -77.5t-45.5 -245.5q0 -167 45.5 -244.5
t132.5 -77.5z" />
    <glyph glyph-name="Iota" unicode="&#x399;" horiz-adv-x="273" 
d="M143 -11q-20 0 -33 12t-13 32l-1 544q0 30 -2.5 57.5t-10.5 49.5q6 6 18 12t29 6q20 0 33.5 -11.5t13.5 -32.5v-544q0 -29 2.5 -57t10.5 -50q-6 -5 -18 -11.5t-29 -6.5z" />
    <glyph glyph-name="Kappa" unicode="&#x39a;" horiz-adv-x="585" 
d="M504 -14q-26 0 -44.5 15t-31.5 37.5t-21 46.5l-42 133q-8 20 -18 39t-27 34.5t-45.5 24.5t-72.5 9h-35l-1 36q9 1 20 2t19 2q52 6 91.5 31.5t65.5 62.5t39.5 77.5t13.5 77.5q0 31 -6.5 49.5t-11.5 26.5q10 6 18.5 9t18.5 3q14 0 28 -7.5t23 -26.5t9 -54q0 -51 -22 -104
t-71 -97.5t-130 -69.5l5 11q73 -5 109 -36t53 -79l47 -134q13 -31 23.5 -42t24.5 -12q5 -1 13 2t15 10q7 -13 7 -25q0 -23 -19.5 -37.5t-44.5 -14.5zM143 -11q-20 0 -33 12t-13 32l-1 544q0 30 -2.5 57.5t-10.5 49.5q6 6 18 12t29 6q20 0 33 -11.5t13 -32.5l1 -544
q0 -29 2.5 -57t10.5 -50q-6 -5 -18 -11.5t-29 -6.5z" />
    <glyph glyph-name="Lambda" unicode="&#x39b;" horiz-adv-x="619" 
d="M74 -13q-24 0 -35.5 9t-11.5 27q0 9 2.5 21t6.5 25l228 622q16 8 30 10.5t24 2.5q44 0 53 -27l220 -625q4 -11 9.5 -24t13.5 -22q-7 -8 -18.5 -13.5t-30.5 -5.5q-42 0 -51 32l-218 667h26l-206 -636q-2 -7 -4 -15.5t-2 -16.5t2 -13.5t4 -9.5q-9 -4 -18.5 -6t-23.5 -2z
" />
    <glyph glyph-name="Mu" unicode="&#x39c;" horiz-adv-x="845" 
d="M749 114q0 -29 2.5 -57t10.5 -50q-6 -5 -18 -11.5t-29 -6.5q-19 0 -31 12t-12 32l-2 570l13 22l-232 -516q-22 -8 -40 -9t-36 7q-41 78 -83.5 163.5t-83.5 173.5t-79 172l10 -10l1 -492q0 -29 2.5 -60t10.5 -53q-6 -5 -14 -8.5t-19 -3.5q-15 0 -22 10t-7 27l-1 553
q0 37 -1.5 63.5t-5.5 47.5q6 6 19 9t35 3q15 0 25 -3.5t17 -12.5q63 -132 126 -263.5t125 -259.5l-14 -1q28 61 58 129t60.5 138t60 137.5t55.5 127.5q14 5 27 6.5t22 1.5q19 0 33.5 -6.5t15.5 -17.5z" />
    <glyph glyph-name="Nu" unicode="&#x39d;" horiz-adv-x="662" 
d="M121 -11q-11 0 -20 3.5t-16 8.5q7 23 9.5 53.5t2.5 59.5l-1 458q0 37 -1.5 67t-5.5 51q7 7 20.5 9t26 1t15.5 -5q32 -46 73.5 -106t86.5 -126t89 -131t80.5 -122t60.5 -99l-17 498q-2 34 5 57.5t22 31.5q8 2 17.5 1.5t18.5 -4.5q-1 -14 0.5 -34.5t1.5 -37.5v-510
q0 -37 1 -64t4 -48q-5 -5 -16 -8t-22 -3t-19 4q-36 44 -73.5 94.5t-74.5 103.5t-71.5 105t-66 101.5t-58 92.5t-46.5 77l15 -530q1 -22 -12 -35.5t-29 -13.5z" />
    <glyph glyph-name="Xi" unicode="&#x39e;" horiz-adv-x="541" 
d="M66 616q-8 5 -14 17.5t-8 26.5t1.5 24t12.5 10h425q9 0 13 -10.5t1.5 -24.5t-8.5 -26.5t-15 -16.5q-46 9 -95 16t-100 7q-68 0 -124.5 -8.5t-88.5 -14.5zM58 0q-10 0 -13.5 10t-1.5 24.5t8 26.5t14 16q46 -9 98.5 -16t105.5 -7q45 0 84.5 3.5t71 9t51.5 10.5
q9 -4 14.5 -16t7.5 -26.5t-1.5 -24.5t-13.5 -10h-425zM125 336q-11 26 0 52h303q5 -14 4.5 -27t-4.5 -25h-303z" />
    <glyph glyph-name="Omicron" unicode="&#x39f;" horiz-adv-x="651" 
d="M325 -13q-128 0 -197 88.5t-69 270.5t69 271t197 89q129 0 198 -89t69 -271t-69 -270.5t-198 -88.5zM325 24q88 0 133 77.5t45 244.5q0 168 -45 245.5t-133 77.5q-86 0 -131.5 -77.5t-45.5 -245.5q0 -167 45.5 -244.5t131.5 -77.5z" />
    <glyph glyph-name="Pi" unicode="&#x3a0;" horiz-adv-x="670" 
d="M143 -13q-20 0 -33 12t-13 32l-1 546q0 30 -2.5 57.5t-10.5 49.5q17 7 37.5 8.5t37.5 1.5h354q18 0 38.5 -1.5t36.5 -8.5q-8 -22 -10 -49.5t-2 -57.5l-2 -465q0 -29 2.5 -57t10.5 -50q-6 -5 -18 -11.5t-29 -6.5q-20 0 -33 12t-13 32v615h-316v-534q0 -29 2.5 -57
t10.5 -50q-6 -5 -18 -11.5t-29 -6.5z" />
    <glyph glyph-name="Rho" unicode="&#x3a1;" horiz-adv-x="559" 
d="M144 -11q-21 0 -34 12t-14 32v544q0 10 -0.5 30t-3.5 41.5t-9 35.5q16 8 48.5 15t92.5 7q146 0 216.5 -49.5t70.5 -154.5q0 -113 -77.5 -169.5t-228.5 -56.5h-23t-21 1l-7 37q10 -1 21 -1.5t32 -0.5q76 0 123.5 21t70 62.5t22.5 101.5q0 57 -20.5 95.5t-65 57.5
t-116.5 19q-14 0 -25.5 -0.5t-18.5 -1.5v-556q0 -10 1 -29.5t4 -39.5t8 -35q-6 -5 -17.5 -11.5t-28.5 -6.5z" />
    <glyph glyph-name="Sigma" unicode="&#x3a3;" horiz-adv-x="507" 
d="M76 0v0q-14 4 -22.5 16.5t-8.5 26.5l216 323l4 -38l-233 317q0 9 5.5 20t14 19.5t16.5 8.5h371q9 0 12.5 -9.5t1.5 -22.5t-8 -23.5t-15 -14.5q-72 12 -153 18t-161 7l1 16l214 -300l-230 -339l-12 33q67 -10 130.5 -9t121.5 8t108 15q8 -3 12 -14.5t3.5 -25t-5.5 -23
t-17 -9.5h-366z" />
    <glyph glyph-name="Tau" unicode="&#x3a4;" horiz-adv-x="528" 
d="M271 -11q-20 0 -33 12t-13 32l-1 643l80 -5l1 -557q0 -29 2.5 -57t10.5 -50q-6 -5 -18 -11.5t-29 -6.5zM40 622q-9 4 -15 15t-8 24t1.5 22.5t12.5 9.5h467q9 0 12.5 -9.5t1 -22.5t-8.5 -24t-14 -15q-34 8 -72 16t-77.5 13.5t-77.5 5.5q-37 0 -75.5 -5.5t-75.5 -13.5
t-71 -16z" />
    <glyph glyph-name="Upsilon" unicode="&#x3a5;" horiz-adv-x="620" 
d="M323 -11q-20 0 -33.5 12t-13.5 32v145q0 40 -17 89.5t-46 117.5l-76 170q-16 36 -31.5 58.5t-37.5 22.5q-9 0 -16 -3.5t-12 -10.5q-11 11 -11 27q0 21 19 37t49 16q40 0 63.5 -26t45.5 -80l63 -154q25 -59 38.5 -101t19 -74.5t5.5 -63.5l-23 -1q0 24 7 53t18 60
t22.5 59.5t20.5 49.5l70 167q15 34 28 58t30.5 38t42.5 14q30 0 45.5 -16t15.5 -36q0 -14 -10 -27q-4 7 -12.5 10.5t-17.5 3.5q-24 0 -40 -21.5t-29 -51.5l-71 -153q-7 -16 -19.5 -43t-25 -60t-20.5 -65.5t-8 -59.5v-70q0 -28 3 -55.5t10 -49.5q-6 -5 -17.5 -11.5
t-28.5 -6.5z" />
    <glyph glyph-name="Phi" unicode="&#x3a6;" horiz-adv-x="807" 
d="M404 98q-112 0 -192 27.5t-122.5 84t-42.5 142.5q0 126 92.5 190t264.5 64q112 0 191.5 -28t121.5 -84.5t42 -141.5q0 -127 -92.5 -190.5t-262.5 -63.5zM387 136h35q70 0 125.5 23.5t88 71.5t32.5 121q0 74 -32.5 121t-88 70t-125.5 23l-34 1q-70 0 -127 -23t-89.5 -70.5
t-32.5 -121.5q0 -75 32.5 -122.5t89 -70.5t126.5 -23zM410 -19q-19 0 -31.5 12.5t-12.5 33.5l-1 555q0 30 -2 58.5t-10 51.5q6 5 17 11.5t27 6.5q19 0 32 -11.5t13 -33.5v-555q0 -30 2 -58.5t10 -51.5q-6 -5 -17 -12t-27 -7z" />
    <glyph glyph-name="Chi" unicode="&#x3a7;" horiz-adv-x="604" 
d="M512 -10q-40 0 -64 24.5t-43 61.5l-133 250l-142 264q-10 19 -20 28.5t-23 9.5q-15 0 -22.5 -9t-7.5 -21q-13 5 -21.5 16t-8.5 27q0 22 18 41t56 19q41 0 65.5 -24.5t44.5 -62.5l117 -223l157 -290q10 -17 21 -28t24 -11q14 0 21 10t7 20q14 -4 22.5 -15t8.5 -27
q0 -22 -21 -41t-56 -19zM71 -9q-20 0 -30.5 12t-13.5 38q20 7 37.5 25.5t38.5 47.5l181 262l36 -40l-208 -320q-7 -11 -16.5 -18t-24.5 -7zM324 338l-30 38l184 302q7 11 16.5 18t24.5 7q20 0 30.5 -12t13.5 -38q-22 -9 -40 -28t-36 -45z" />
    <glyph glyph-name="Psi" unicode="&#x3a8;" horiz-adv-x="835" 
d="M435 205l1 41q75 0 122.5 22.5t71.5 70.5t25 122l1 127q1 42 14.5 68t35 37.5t44.5 11.5q29 0 47 -14t18 -38q0 -12 -6 -25q-7 7 -15 9.5t-15 2.5q-10 0 -19.5 -5.5t-15 -20.5t-6.5 -46l-1 -113q-1 -70 -24 -118t-63 -77t-95 -42t-120 -13zM405 205q-65 0 -120 13
t-95.5 42t-63 77t-23.5 118l-2 113q0 31 -6 46t-15 20.5t-19 5.5q-8 0 -16 -2.5t-15 -9.5q-6 13 -6 25q0 24 18.5 38t47.5 14q24 0 44.5 -11.5t34 -37.5t14.5 -68l2 -127q1 -74 25 -121.5t72 -70.5t121 -23zM426 -11q-20 0 -33 12t-13 32l-1 544q0 30 -2.5 57.5t-10.5 49.5
q6 6 18 12t29 6q20 0 33.5 -11.5t13.5 -32.5v-544q0 -29 2.5 -57t10.5 -50q-6 -5 -18 -11.5t-29 -6.5z" />
    <glyph glyph-name="uni03A9" unicode="&#x3a9;" horiz-adv-x="646" 
d="M320 40l-14 -12q-65 23 -117.5 73t-83 122t-30.5 161q0 104 36 175t100.5 108.5t149.5 37.5t149.5 -37.5t100.5 -108.5t36 -175q0 -89 -28 -160.5t-80 -122t-123 -73.5l-14 12q77 49 117 138.5t40 205.5q0 93 -25.5 156t-70 95.5t-102.5 32.5t-102.5 -32.5t-70 -95.5
t-25.5 -156q0 -75 21 -141.5t57 -118t79 -84.5zM92 0q-9 0 -16 8.5t-10 21t-2 26.5t9 25l247 -44v-37h-228zM402 0v37l247 44q8 -11 9.5 -25t-2 -26.5t-10.5 -21t-16 -8.5h-228z" />
    <glyph glyph-name="Iotadieresis" unicode="&#x3aa;" horiz-adv-x="273" 
d="M143 -11q-20 0 -33 12t-13 32l-1 544q0 30 -2.5 57.5t-10.5 49.5q6 6 18 12t29 6q20 0 33.5 -11.5t13.5 -32.5v-544q0 -29 2.5 -57t10.5 -50q-6 -5 -18 -11.5t-29 -6.5zM38 758q-21 0 -36 15t-15 36t15 36t36 15t36 -15t15 -36t-15 -36t-36 -15zM223 758q-21 0 -36 15
t-15 36t15 36t36 15t36 -15t15 -36t-15 -36t-36 -15z" />
    <glyph glyph-name="Upsilondieresis" unicode="&#x3ab;" horiz-adv-x="620" 
d="M323 -11q-20 0 -33.5 12t-13.5 32v145q0 40 -17 89.5t-46 117.5l-76 170q-16 36 -31.5 58.5t-37.5 22.5q-9 0 -16 -3.5t-12 -10.5q-11 11 -11 27q0 21 19 37t49 16q40 0 63.5 -26t45.5 -80l63 -154q25 -59 38.5 -101t19 -74.5t5.5 -63.5l-23 -1q0 24 7 53t18 60
t22.5 59.5t20.5 49.5l70 167q15 34 28 58t30.5 38t42.5 14q30 0 45.5 -16t15.5 -36q0 -14 -10 -27q-4 7 -12.5 10.5t-17.5 3.5q-24 0 -40 -21.5t-29 -51.5l-71 -153q-7 -16 -19.5 -43t-25 -60t-20.5 -65.5t-8 -59.5v-70q0 -28 3 -55.5t10 -49.5q-6 -5 -17.5 -11.5
t-28.5 -6.5zM226 759q-21 0 -36 15t-15 36t15 36t36 15t36 -15t15 -36t-15 -36t-36 -15zM411 759q-21 0 -36 15t-15 36t15 36t36 15t36 -15t15 -36t-15 -36t-36 -15z" />
    <glyph glyph-name="alphatonos" unicode="&#x3ac;" horiz-adv-x="597" 
d="M229 -13q-32 0 -64.5 14t-60 44t-44 78t-16.5 115q0 76 27 140.5t76.5 103.5t117.5 39q42 0 74.5 -17.5t56 -48t37.5 -73.5l-16 -49q-11 59 -46.5 97t-87.5 38q-43 0 -73.5 -21.5t-50 -55.5t-28.5 -73.5t-9 -76.5q0 -54 13.5 -98.5t40.5 -70t69 -25.5q32 0 56 15t41 40
t28.5 57t19.5 67t13 67l26 143q4 24 5.5 42t-0.5 32q5 3 13 4.5t16 1.5q21 0 35 -10.5t19 -28t-2 -40.5l-55 -213q1 -81 16.5 -126t51.5 -45q17 0 29.5 6t20.5 19q11 -12 11 -31q0 -25 -20.5 -42.5t-54.5 -17.5q-48 0 -74.5 44.5t-28.5 140.5l5 -4q-12 -49 -36.5 -90.5
t-61.5 -66t-89 -24.5zM297 563q-8 0 -19 1.5t-16 5.5l33 176q18 1 38.5 -4.5t31.5 -14.5z" />
    <glyph glyph-name="epsilontonos" unicode="&#x3ad;" horiz-adv-x="491" 
d="M259 -15q-98 0 -154.5 37.5t-56.5 101.5q0 48 34.5 84t96.5 53l6 -12q-55 10 -89 46t-34 78q0 45 26.5 77.5t73.5 51.5t110 19q88 0 133.5 -26.5t45.5 -68.5q0 -27 -17.5 -44t-43.5 -17q-12 0 -24 4t-19 10q16 11 22 23t6 25q0 25 -27.5 41t-74.5 16q-60 0 -94.5 -30
t-34.5 -79q0 -38 26 -67t65 -39v-22q-46 -9 -75 -38t-29 -66q0 -48 42 -75t106 -27q40 0 76 8.5t63.5 29t40.5 55.5q8 -4 11.5 -11t3.5 -15q0 -36 -28.5 -63.5t-77 -43.5t-109.5 -16zM311 228q-31 0 -57 4t-47 9l9 31q34 4 67 8t67 5q9 -9 9 -19q0 -15 -12 -26.5t-36 -11.5z
M277 563q-8 0 -19 1.5t-16 5.5l33 176q18 1 38.5 -4.5t31.5 -14.5z" />
    <glyph glyph-name="etatonos" unicode="&#x3ae;" horiz-adv-x="579" 
d="M478 -227q-20 0 -29.5 11.5t-13 31t-3.5 43.5l6 469q0 43 -8.5 71.5t-27 43.5t-50.5 15q-38 0 -68 -21t-51 -53.5t-32 -68t-11 -62.5v-165q0 -31 2.5 -50t7.5 -34q-8 -6 -18.5 -11.5t-25.5 -5.5q-24 0 -35 20.5t-9 58.5l10 218q0 54 -2.5 92t-12 57.5t-33.5 19.5
q-13 0 -22 -5t-15 -12q-5 5 -8 13.5t-3 17.5q0 23 19.5 37.5t45.5 14.5q29 0 50 -16.5t32.5 -58.5t7.5 -118l-14 5q22 67 55 109t71 61.5t76 19.5q27 0 52.5 -8.5t45 -30.5t31 -61.5t11.5 -102.5v-397q0 -22 0.5 -47.5t3 -47.5t7.5 -35q-5 -6 -17 -12t-25 -6zM339 563
q-8 0 -19 1.5t-16 5.5l33 176q18 1 38.5 -4.5t31.5 -14.5z" />
    <glyph glyph-name="iotatonos" unicode="&#x3af;" horiz-adv-x="285" 
d="M181 -13q-49 0 -71.5 38.5t-22.5 99.5l-1 277q0 36 -2.5 60t-6.5 40q12 9 22.5 13t23.5 4q18 0 31 -12.5t11 -42.5l-5 -346q-2 -34 7.5 -49.5t31.5 -15.5q12 0 21 5t16 14q5 -6 7.5 -15.5t2.5 -17.5q0 -24 -20 -38t-45 -14zM144 566q-8 0 -19 1.5t-16 5.5l33 176
q18 1 38.5 -4.5t31.5 -14.5z" />
    <glyph glyph-name="upsilondieresistonos" unicode="&#x3b0;" horiz-adv-x="593" 
d="M299 -13q-59 0 -102 22.5t-66 64.5t-23 99q0 58 8 113t8 107q0 29 -8 44.5t-30 15.5q-12 0 -21 -5.5t-15 -13.5q-9 13 -9 28q0 27 20.5 42t48.5 15q47 0 68.5 -34t21.5 -89q0 -32 -4 -70.5t-8 -80t-4 -83.5q0 -67 31 -103t84 -36q67 0 105.5 60.5t38.5 176.5
q0 90 -19 156t-48 91q7 11 24 11q29 0 57.5 -33t48 -92t19.5 -136q0 -84 -28.5 -144.5t-79.5 -93t-118 -32.5zM300 589q-8 -1 -18.5 -0.5t-15.5 4.5l6 166q10 3 23 3t25.5 -1.5t21.5 -7.5zM186 581q-21 0 -32 14.5t-11 33.5q0 20 11 34t32 14t31.5 -14t10.5 -34
q0 -19 -10.5 -33.5t-31.5 -14.5zM394 581q-21 0 -32.5 14t-11.5 33q0 20 11.5 34t32.5 14t31.5 -14t10.5 -34q0 -19 -10.5 -33t-31.5 -14z" />
    <glyph glyph-name="alpha" unicode="&#x3b1;" horiz-adv-x="597" 
d="M229 -13q-32 0 -64.5 14t-60 44t-44 78t-16.5 115q0 76 27 140.5t76.5 103.5t117.5 39q42 0 74.5 -17.5t56 -48t37.5 -73.5l-16 -49q-11 59 -46.5 97t-87.5 38q-43 0 -73.5 -21.5t-50 -55.5t-28.5 -73.5t-9 -76.5q0 -54 13.5 -98.5t40.5 -70t69 -25.5q32 0 56 15t41 40
t28.5 57t19.5 67t13 67l26 143q4 24 5.5 42t-0.5 32q5 3 13 4.5t16 1.5q21 0 35 -10.5t19 -28t-2 -40.5l-55 -213q1 -81 16.5 -126t51.5 -45q17 0 29.5 6t20.5 19q11 -12 11 -31q0 -25 -20.5 -42.5t-54.5 -17.5q-48 0 -74.5 44.5t-28.5 140.5l5 -4q-12 -49 -36.5 -90.5
t-61.5 -66t-89 -24.5z" />
    <glyph glyph-name="beta" unicode="&#x3b2;" horiz-adv-x="558" 
d="M127 -227q-21 0 -31 12t-12.5 33.5t-2.5 50.5v624q0 66 17 112t46 73.5t64.5 39.5t72.5 12q50 0 91 -18.5t66.5 -54t25.5 -88.5q0 -56 -33.5 -106t-89.5 -81l-48 8q24 13 44.5 37.5t32.5 59t12 77.5q0 33 -10.5 62t-33.5 48t-61 19q-32 0 -60 -17.5t-45 -55.5t-17 -102
v-613q0 -33 1.5 -64.5t9.5 -49.5q-4 -6 -15 -12t-24 -6zM304 -13q-61 0 -104 20.5t-69 51.5l7 39q14 -14 34 -28.5t47.5 -24.5t63.5 -10q44 0 78 20t53 55t19 81q0 61 -32 107.5t-91 61.5q-16 -11 -34 -18t-37 -7q-16 0 -25.5 8t-9.5 24q0 5 1 10l2 10q21 6 47 9t57 0l6 -2
q62 -6 106 -34t67.5 -71t23.5 -98q0 -48 -22.5 -95t-68.5 -78t-119 -31z" />
    <glyph glyph-name="gamma" unicode="&#x3b3;" horiz-adv-x="536" 
d="M280 -30l-29 5l-149 423q-11 30 -23 42.5t-27 12.5q-12 0 -20.5 -6t-13.5 -14q-5 5 -8 12t-3 17q0 19 17.5 38t50.5 19q35 0 59.5 -26.5t38.5 -84.5l113 -388l-22 12q29 39 54 92t45 112t31.5 119t11.5 114q0 15 -1.5 25t-4.5 14q8 5 19 8t23 3q23 0 34.5 -14t11.5 -35
q0 -47 -13 -103t-34.5 -113t-47.5 -109t-54 -91zM263 -225q-25 0 -35 12.5t-10 42.5q0 28 5 63t14 69t19 57l42 -5q-3 -45 -4 -89t1.5 -79.5t6.5 -53.5q-6 -8 -17 -12.5t-22 -4.5z" />
    <glyph glyph-name="delta" unicode="&#x3b4;" horiz-adv-x="532" 
d="M270 -13q-106 0 -166 66t-60 182q0 74 33 130.5t91.5 87.5t134.5 31l22 -28q-62 2 -107 -23t-69.5 -74.5t-24.5 -118.5q0 -99 39 -158t106 -59t105.5 58t38.5 157q0 74 -30.5 124t-90.5 83l-74 40q-57 31 -85.5 64t-28.5 69q0 51 44 81.5t120 30.5q55 0 100 -14t71 -38.5
t26 -55.5q0 -19 -15 -33t-36 -14q-7 32 -33 55t-62.5 36t-79.5 13q-37 0 -57.5 -11.5t-20.5 -34.5q0 -19 15.5 -34t52.5 -36l101 -62q77 -48 120 -111t43 -146q0 -79 -27 -137t-76.5 -89t-119.5 -31z" />
    <glyph glyph-name="epsilon" unicode="&#x3b5;" horiz-adv-x="491" 
d="M259 -15q-98 0 -154.5 37.5t-56.5 101.5q0 48 34.5 84t96.5 53l6 -12q-55 10 -89 46t-34 78q0 45 26.5 77.5t73.5 51.5t110 19q88 0 133.5 -26.5t45.5 -68.5q0 -27 -17.5 -44t-43.5 -17q-12 0 -24 4t-19 10q16 11 22 23t6 25q0 25 -27.5 41t-74.5 16q-60 0 -94.5 -30
t-34.5 -79q0 -38 26 -67t65 -39v-22q-46 -9 -75 -38t-29 -66q0 -48 42 -75t106 -27q40 0 76 8.5t63.5 29t40.5 55.5q8 -4 11.5 -11t3.5 -15q0 -36 -28.5 -63.5t-77 -43.5t-109.5 -16zM311 228q-31 0 -57 4t-47 9l9 31q34 4 67 8t67 5q9 -9 9 -19q0 -15 -12 -26.5t-36 -11.5z
" />
    <glyph glyph-name="zeta" unicode="&#x3b6;" horiz-adv-x="419" 
d="M326 -187q-31 0 -44 22q12 5 25 13.5t22.5 22.5t9.5 35q0 23 -11.5 38t-29.5 24.5t-42 16.5l-39 13q-25 8 -52.5 22t-51 36.5t-38 56t-14.5 80.5q0 50 20.5 108.5t59.5 120.5t97 125.5t133 123.5l-9 -26q-37 -17 -83 -30t-90 -13q-38 0 -65 12.5t-42 33.5t-15 46
q0 18 12.5 31.5t30.5 14.5q8 -20 21 -37t38 -28t64 -11q28 0 54 5t48 14q28 10 43.5 19.5t30.5 9.5q19 0 27.5 -10.5t9.5 -26.5l-49 -38q-40 -29 -77 -69t-68.5 -85t-55.5 -93.5t-37.5 -95.5t-13.5 -92q0 -43 11 -72.5t29 -49.5t39.5 -31.5t43.5 -19.5l32 -11
q17 -6 36.5 -14.5t37 -21.5t28 -31t10.5 -42q0 -26 -11.5 -48t-30.5 -35t-44 -13z" />
    <glyph glyph-name="eta" unicode="&#x3b7;" horiz-adv-x="579" 
d="M478 -227q-20 0 -29.5 11.5t-13 31t-3.5 43.5l6 469q0 43 -8.5 71.5t-27 43.5t-50.5 15q-38 0 -68 -21t-51 -53.5t-32 -68t-11 -62.5v-165q0 -31 2.5 -50t7.5 -34q-8 -6 -18.5 -11.5t-25.5 -5.5q-24 0 -35 20.5t-9 58.5l10 218q0 54 -2.5 92t-12 57.5t-33.5 19.5
q-13 0 -22 -5t-15 -12q-5 5 -8 13.5t-3 17.5q0 23 19.5 37.5t45.5 14.5q29 0 50 -16.5t32.5 -58.5t7.5 -118l-14 5q22 67 55 109t71 61.5t76 19.5q27 0 52.5 -8.5t45 -30.5t31 -61.5t11.5 -102.5v-397q0 -22 0.5 -47.5t3 -47.5t7.5 -35q-5 -6 -17 -12t-25 -6z" />
    <glyph glyph-name="theta" unicode="&#x3b8;" horiz-adv-x="586" 
d="M298 730q68 0 120 -44t82 -127t30 -200q0 -175 -61.5 -273.5t-172.5 -98.5q-112 0 -173.5 98.5t-61.5 273.5q0 117 29.5 200t83 127t124.5 44zM295 692q-47 0 -80.5 -35.5t-52.5 -106t-19 -176.5q59 -2 107.5 -2.5t96 1t101.5 4.5q-1 105 -20 175t-53 105t-80 35zM296 25
q70 0 109 77t43 228q-53 0 -99 0.5t-95 0t-111 -2.5q3 -150 42.5 -226.5t110.5 -76.5z" />
    <glyph glyph-name="iota" unicode="&#x3b9;" horiz-adv-x="285" 
d="M181 -13q-49 0 -71.5 38.5t-22.5 99.5l-1 277q0 36 -2.5 60t-6.5 40q12 9 22.5 13t23.5 4q18 0 31 -12.5t11 -42.5l-5 -346q-2 -34 7.5 -49.5t31.5 -15.5q12 0 21 5t16 14q5 -6 7.5 -15.5t2.5 -17.5q0 -24 -20 -38t-45 -14z" />
    <glyph glyph-name="kappa" unicode="&#x3ba;" horiz-adv-x="554" 
d="M120 -11q-23 0 -34 16.5t-11 45.5v351q0 36 -2.5 60t-6.5 40q9 8 20.5 12.5t22.5 4.5q19 0 31.5 -12.5t11.5 -42.5l-11 -379l-14 2q4 34 21.5 68.5t34.5 57.5l114 160q28 38 50 70.5t44.5 52.5t50.5 20q20 0 34.5 -12.5t14.5 -32.5q0 -8 -3 -17t-7 -15q-5 3 -9.5 4
t-10.5 1q-19 0 -41.5 -17.5t-46.5 -45t-49 -57.5l-111 -149q-16 -19 -29 -42t-21 -45.5t-8 -41.5q0 -12 2 -21t5 -19q-7 -6 -17.5 -11.5t-24.5 -5.5zM467 -11q-24 0 -43 12.5t-34.5 35t-30.5 52.5l-103 201l33 40l115 -197q24 -41 44.5 -59.5t41.5 -18.5q12 0 19.5 7
t11.5 13q4 -4 7.5 -11t3.5 -18q0 -13 -7 -26t-21.5 -22t-36.5 -9z" />
    <glyph glyph-name="lambda" unicode="&#x3bb;" horiz-adv-x="527" 
d="M479 -13q-26 0 -43 13.5t-29 39t-24 58.5l-156 442q-14 46 -26 73t-26 38.5t-33 11.5q-18 0 -33 -7t-22 -15q-3 4 -5.5 11t-2.5 14q0 29 23 46t52 17q33 0 52 -19t34.5 -55t33.5 -88l168 -432q16 -41 28.5 -62t33.5 -21q11 0 19.5 6.5t12.5 13.5q4 -4 7 -11.5t3 -18.5
t-7 -24t-22 -22t-38 -9zM89 -13q-17 0 -28.5 7t-16 17.5t-4.5 18.5q0 14 11 45.5t30 75t42 92.5t46.5 98t44 92t34.5 72l34 -29q-9 -28 -24.5 -68t-33.5 -86.5l-36 -93t-33.5 -88t-24 -72.5t-8.5 -47q0 -6 1 -12.5t4 -11.5q-6 -4 -16 -7t-22 -3z" />
    </font>
</defs>
</svg>
